<svg id="svg" version="1.1" width="555" height="500" xmlns="http://www.w3.org/2000/svg" xmlns:xlink="http://www.w3.org/1999/xlink" style="display: block;"><g id="svgg"><path id="path0" d="M70.991 78.255 C 70.514 78.456,70.330 112.647,70.447 179.279 L 70.625 280.000 87.565 280.193 L 104.505 280.386 104.505 237.491 L 104.505 194.595 113.508 194.595 L 122.511 194.595 122.697 237.297 L 122.883 280.000 139.640 280.193 L 156.396 280.387 156.396 179.550 C 156.396 88.264,156.288 78.671,155.256 78.275 C 153.994 77.791,72.140 77.771,70.991 78.255 M289.153 88.072 C 288.490 88.735,288.288 108.913,288.288 174.507 C 288.288 267.741,288.050 262.342,292.160 262.342 C 295.621 262.342,295.495 265.508,295.495 177.874 L 295.495 95.135 334.054 95.135 L 372.613 95.135 372.613 177.546 C 372.613 256.469,372.668 260.007,373.931 261.150 C 375.766 262.811,378.090 262.637,379.419 260.741 C 381.299 258.056,381.108 90.106,379.223 88.400 C 377.517 86.856,290.685 86.540,289.153 88.072 M20.513 92.432 C 20.324 92.928,20.253 135.333,20.355 186.667 L 20.541 280.000 36.036 280.000 L 51.532 280.000 51.718 238.739 L 51.904 197.477 58.024 197.477 L 64.144 197.477 64.144 144.505 L 64.144 91.532 42.500 91.532 C 25.848 91.532,20.777 91.739,20.513 92.432 M106.667 106.306 L 106.667 115.315 97.658 115.315 L 88.649 115.315 88.649 106.306 L 88.649 97.297 97.658 97.297 L 106.667 97.297 106.667 106.306 M138.220 106.126 L 138.018 114.955 129.189 115.157 L 120.360 115.360 120.360 106.328 L 120.360 97.297 129.392 97.297 L 138.423 97.297 138.220 106.126 M308.880 107.079 C 307.529 108.430,307.201 129.524,308.494 131.939 C 309.712 134.216,325.910 134.039,327.527 131.732 C 329.569 128.815,329.135 109.537,326.981 107.513 C 324.800 105.465,310.829 105.130,308.880 107.079 M341.522 107.323 C 338.678 109.626,338.534 129.422,341.341 132.229 C 343.319 134.207,358.509 133.801,359.959 131.732 C 361.861 129.016,361.571 110.367,359.587 107.845 C 357.586 105.300,344.487 104.922,341.522 107.323 M53.333 117.117 L 53.333 125.405 45.405 125.405 L 37.477 125.405 37.477 117.117 L 37.477 108.829 45.405 108.829 L 53.333 108.829 53.333 117.117 M320.721 119.640 L 320.721 125.405 318.198 125.405 L 315.676 125.405 315.676 119.640 L 315.676 113.874 318.198 113.874 L 320.721 113.874 320.721 119.640 M353.153 119.640 L 353.153 125.405 350.270 125.405 L 347.387 125.405 347.387 119.640 L 347.387 113.874 350.270 113.874 L 353.153 113.874 353.153 119.640 M237.998 126.527 L 236.396 127.649 236.396 161.826 L 236.396 196.003 238.163 197.160 C 243.782 200.842,244.315 197.859,244.320 162.703 L 244.324 133.333 262.559 133.333 C 282.129 133.333,282.523 133.260,282.523 129.637 C 282.523 125.469,282.182 125.405,259.929 125.405 C 242.696 125.405,239.356 125.576,237.998 126.527 M106.667 137.297 L 106.667 146.306 97.658 146.306 L 88.649 146.306 88.649 137.297 L 88.649 128.288 97.658 128.288 L 106.667 128.288 106.667 137.297 M138.378 137.297 L 138.378 146.306 129.369 146.306 L 120.360 146.306 120.360 137.297 L 120.360 128.288 129.369 128.288 L 138.378 128.288 138.378 137.297 M53.333 145.225 L 53.333 153.514 45.405 153.514 L 37.477 153.514 37.477 145.225 L 37.477 136.937 45.405 136.937 L 53.333 136.937 53.333 145.225 M172.754 152.364 C 167.721 157.281,163.604 161.700,163.604 162.184 C 163.604 164.380,180.719 180.295,182.821 180.054 C 186.570 179.625,185.737 177.431,179.450 171.171 L 173.660 165.405 199.004 165.045 C 225.986 164.661,226.661 164.562,225.363 161.179 C 224.955 160.117,222.307 160.000,198.787 160.000 L 172.664 160.000 178.945 153.719 C 185.159 147.505,186.041 145.969,184.360 144.288 C 182.821 142.749,182.037 143.294,172.754 152.364 M257.458 145.987 C 255.917 147.066,255.856 147.545,255.856 158.511 C 255.856 172.550,255.358 171.892,265.978 171.892 C 276.862 171.892,276.596 172.223,276.718 158.583 L 276.814 147.898 274.886 146.381 C 272.380 144.410,260.106 144.132,257.458 145.987 M309.350 145.987 C 307.809 147.066,307.748 147.545,307.748 158.511 C 307.748 172.446,307.304 171.831,317.515 172.052 C 328.638 172.294,328.649 172.281,328.649 158.559 L 328.649 147.852 326.750 146.359 C 324.271 144.409,311.977 144.146,309.350 145.987 M341.239 146.624 C 338.790 149.073,338.684 168.188,341.107 170.607 C 343.141 172.638,358.578 172.511,360.099 170.450 C 361.518 168.529,361.248 147.622,359.786 146.160 C 357.733 144.108,343.396 144.466,341.239 146.624 M268.829 158.559 L 268.829 164.324 266.306 164.324 L 263.784 164.324 263.784 158.559 L 263.784 152.793 266.306 152.793 L 268.829 152.793 268.829 158.559 M320.721 158.559 L 320.721 164.324 318.198 164.324 L 315.676 164.324 315.676 158.559 L 315.676 152.793 318.198 152.793 L 320.721 152.793 320.721 158.559 M353.153 158.559 L 353.153 164.324 350.270 164.324 L 347.387 164.324 347.387 158.559 L 347.387 152.793 350.270 152.793 L 353.153 152.793 353.153 158.559 M106.667 168.649 L 106.667 177.297 97.658 177.297 L 88.649 177.297 88.649 168.649 L 88.649 160.000 97.658 160.000 L 106.667 160.000 106.667 168.649 M138.378 168.649 L 138.378 177.297 129.369 177.297 L 120.360 177.297 120.360 168.649 L 120.360 160.000 129.369 160.000 L 138.378 160.000 138.378 168.649 M53.333 173.694 L 53.333 182.342 45.405 182.342 L 37.477 182.342 37.477 173.694 L 37.477 165.045 45.405 165.045 L 53.333 165.045 53.333 173.694 M256.602 185.178 C 254.976 188.215,255.676 195.885,257.699 197.210 C 260.012 198.726,263.277 196.758,263.651 193.622 C 263.849 191.971,264.215 191.712,266.354 191.712 L 268.829 191.712 268.829 200.000 C 268.829 210.396,270.501 213.187,274.695 209.795 C 277.019 207.915,277.781 187.552,275.617 185.160 C 273.722 183.067,257.724 183.081,256.602 185.178 M308.494 185.178 C 306.853 188.244,307.560 208.796,309.350 210.049 C 311.977 211.890,324.271 211.627,326.750 209.677 C 329.122 207.811,329.738 188.543,327.527 185.386 C 325.910 183.078,309.712 182.901,308.494 185.178 M341.341 184.888 C 338.516 187.713,338.682 207.180,341.552 209.669 C 344.464 212.195,357.514 211.908,359.587 209.272 C 361.571 206.750,361.861 188.101,359.959 185.386 C 358.509 183.316,343.319 182.910,341.341 184.888 M205.165 190.751 C 203.805 192.111,205.195 194.501,210.264 199.520 L 215.844 205.045 190.830 205.405 C 163.563 205.798,162.326 205.996,164.279 209.646 C 165.087 211.155,165.361 211.171,190.820 211.171 L 216.545 211.171 210.551 217.196 C 204.180 223.601,203.065 226.385,206.667 226.897 C 208.605 227.172,225.586 210.777,225.586 208.632 C 225.586 206.732,209.089 190.270,207.185 190.270 C 206.339 190.270,205.429 190.486,205.165 190.751 M320.721 197.477 L 320.721 203.243 318.198 203.243 L 315.676 203.243 315.676 197.477 L 315.676 191.712 318.198 191.712 L 320.721 191.712 320.721 197.477 M353.153 197.477 L 353.153 203.243 350.270 203.243 L 347.387 203.243 347.387 197.477 L 347.387 191.712 350.270 191.712 L 353.153 191.712 353.153 197.477 M248.288 204.584 C 244.634 206.841,243.747 208.178,240.328 216.577 C 240.006 217.369,239.643 218.505,239.523 219.099 C 239.403 219.694,238.796 222.288,238.173 224.865 C 236.088 233.487,235.902 248.613,237.831 252.598 C 239.590 256.231,245.660 261.622,247.993 261.622 C 249.274 261.622,249.369 262.242,249.369 270.542 C 249.369 279.803,249.554 280.411,252.653 281.357 C 256.163 282.430,257.297 279.714,257.297 270.242 C 257.297 263.304,257.496 261.622,258.314 261.622 C 258.873 261.622,261.003 260.299,263.048 258.683 C 269.073 253.920,270.741 248.034,269.364 236.396 C 267.170 217.857,265.249 211.829,259.636 205.873 C 256.913 202.984,251.816 202.405,248.288 204.584 M255.365 212.468 C 256.896 214.161,258.409 218.527,259.854 225.425 C 260.496 228.486,261.177 231.640,261.369 232.432 C 262.500 237.113,262.487 246.528,261.345 248.934 C 258.384 255.175,250.570 256.485,246.278 251.461 L 244.183 249.009 244.583 238.919 C 245.342 219.756,250.503 207.096,255.365 212.468 M302.883 223.189 C 298.271 226.406,301.535 229.910,309.142 229.910 L 314.234 229.910 314.234 244.994 C 314.234 261.330,314.466 262.342,318.209 262.342 C 321.734 262.342,322.162 260.415,322.162 244.524 L 322.162 229.910 334.414 229.910 L 346.667 229.910 346.667 244.994 C 346.667 261.294,346.904 262.342,350.594 262.342 C 353.763 262.342,353.982 261.202,353.903 245.119 L 353.830 229.969 359.773 229.759 C 367.251 229.495,369.726 227.066,365.906 223.742 L 363.884 221.982 334.194 222.020 C 308.429 222.053,304.290 222.207,302.883 223.189 M331.469 242.945 C 328.947 245.467,330.583 249.333,334.183 249.358 C 337.795 249.384,339.359 244.625,336.416 242.563 C 334.284 241.070,333.266 241.148,331.469 242.945 M283.404 268.509 C 281.531 269.821,280.991 278.815,282.703 280.184 C 285.917 282.755,289.009 281.453,289.009 277.529 L 289.009 275.315 333.253 275.315 C 375.065 275.315,377.588 275.243,379.128 273.995 C 381.244 272.282,380.609 269.093,377.951 268.083 C 374.523 266.779,285.299 267.182,283.404 268.509 " stroke="none" fill="#555555" fill-rule="evenodd"></path></g></svg>