<svg id="svg" version="1.1" width="877" height="500" xmlns="http://www.w3.org/2000/svg" xmlns:xlink="http://www.w3.org/1999/xlink" style="display: block;"><g id="svgg"><path id="path0" d="M57.729 3.453 C 56.486 4.696,56.650 222.807,57.895 223.473 C 59.100 224.118,92.781 224.118,93.987 223.473 C 94.850 223.011,94.869 222.007,94.869 176.495 L 94.869 129.989 104.901 129.989 L 114.933 129.989 115.049 176.978 L 115.165 223.968 132.865 223.968 C 142.599 223.968,150.758 223.848,150.995 223.701 C 151.263 223.536,151.425 181.794,151.425 113.086 L 151.425 2.737 104.936 2.737 C 63.280 2.737,58.371 2.811,57.729 3.453 M297.035 13.985 L 295.553 15.650 295.553 107.962 C 295.553 210.189,295.302 202.153,298.543 203.692 C 300.254 204.504,301.405 204.239,303.421 202.572 C 304.176 201.947,304.219 197.037,304.219 111.218 L 304.219 20.525 346.408 20.525 L 388.597 20.525 388.612 111.174 C 388.623 182.543,388.747 201.970,389.191 202.509 C 391.027 204.733,394.521 204.689,395.957 202.424 C 396.166 202.094,396.340 159.670,396.344 108.149 L 396.351 14.473 395.097 13.395 L 393.843 12.316 346.180 12.318 L 298.518 12.320 297.035 13.985 M3.045 17.632 C 2.151 18.525,2.721 222.993,3.619 223.473 C 4.568 223.981,34.934 224.163,36.223 223.668 C 36.874 223.419,36.944 218.996,36.944 178.286 L 36.944 133.181 43.787 133.181 L 50.631 133.181 50.515 75.371 L 50.399 17.560 26.876 17.442 C 13.938 17.377,3.214 17.462,3.045 17.632 M97.149 33.295 L 97.149 42.873 87.115 42.873 L 77.081 42.873 77.081 33.295 L 77.081 23.717 87.115 23.717 L 97.149 23.717 97.149 33.295 M131.813 33.295 L 131.813 42.873 121.779 42.873 L 111.745 42.873 111.745 33.295 L 111.745 23.717 121.779 23.717 L 131.813 23.717 131.813 33.295 M320.182 33.751 C 320.182 34.002,319.906 34.208,319.569 34.208 C 317.551 34.208,317.389 35.284,317.431 48.397 C 317.484 64.441,316.352 62.942,328.410 62.942 L 337.390 62.942 338.592 61.739 L 339.795 60.537 339.749 48.855 C 339.698 35.778,339.629 35.271,337.729 34.156 C 336.163 33.238,320.182 32.869,320.182 33.751 M355.986 33.751 C 355.831 34.002,355.310 34.208,354.828 34.208 C 354.273 34.208,353.846 34.626,353.665 35.348 C 353.508 35.975,353.196 36.488,352.972 36.488 C 352.744 36.488,352.566 41.721,352.566 48.382 L 352.566 60.275 353.899 61.609 L 355.232 62.942 364.047 62.927 C 376.397 62.907,375.749 63.705,375.805 48.468 C 375.850 36.673,375.468 34.636,373.153 34.290 C 372.617 34.210,372.178 33.953,372.178 33.720 C 372.178 33.132,356.350 33.163,355.986 33.751 M38.769 44.926 L 38.769 53.820 29.875 53.820 L 20.981 53.820 20.981 44.926 L 20.981 36.032 29.875 36.032 L 38.769 36.032 38.769 44.926 M331.585 48.347 L 331.585 54.732 328.620 54.732 L 325.656 54.732 325.656 48.347 L 325.656 41.961 328.620 41.961 L 331.585 41.961 331.585 48.347 M366.705 48.347 L 366.705 54.732 363.968 54.732 L 361.231 54.732 361.231 48.347 L 361.231 41.961 363.968 41.961 L 366.705 41.961 366.705 48.347 M240.365 55.628 L 239.225 56.504 239.088 93.360 C 238.936 134.087,238.870 133.066,241.691 133.265 C 243.881 133.419,245.458 133.171,245.992 132.586 C 247.662 130.758,247.662 130.754,247.662 96.471 L 247.662 62.942 267.617 62.941 L 287.571 62.941 288.826 61.862 C 290.696 60.253,290.429 56.955,288.295 55.317 C 286.899 54.245,241.784 54.538,240.365 55.628 M97.149 67.047 L 97.149 77.081 87.115 77.081 L 77.081 77.081 77.081 67.047 L 77.081 57.013 87.115 57.013 L 97.149 57.013 97.149 67.047 M131.813 67.047 L 131.813 77.081 121.779 77.081 L 111.745 77.081 111.745 67.047 L 111.745 57.013 121.779 57.013 L 131.813 57.013 131.813 67.047 M38.769 76.397 L 38.769 85.291 29.875 85.291 L 20.981 85.291 20.981 76.397 L 20.981 67.503 29.875 67.503 L 38.769 67.503 38.769 76.397 M179.475 74.722 C 177.537 75.116,159.495 93.794,159.817 95.074 C 160.347 97.186,178.572 114.937,180.210 114.937 C 185.062 114.937,184.012 111.807,176.739 104.584 C 173.352 101.221,170.582 98.378,170.582 98.265 C 170.582 98.153,182.845 98.061,197.834 98.061 L 225.086 98.060 226.340 96.982 C 227.917 95.625,227.959 93.983,226.450 92.671 L 225.307 91.676 197.944 91.676 C 182.895 91.676,170.582 91.586,170.582 91.475 C 170.582 91.364,173.332 88.532,176.695 85.181 C 180.057 81.831,182.869 78.689,182.945 78.199 C 183.340 75.623,181.942 74.221,179.475 74.722 M262.942 76.169 C 263.097 76.420,262.875 76.625,262.449 76.625 C 260.613 76.625,260.463 77.679,260.448 90.671 L 260.433 103.120 261.553 104.240 C 262.665 105.352,262.729 105.359,271.609 105.359 L 280.545 105.359 281.664 104.152 L 282.782 102.945 282.782 90.437 C 282.782 77.229,282.832 77.550,280.604 76.283 C 279.342 75.565,262.501 75.456,262.942 76.169 M319.726 76.169 C 319.726 76.420,319.426 76.625,319.058 76.625 C 317.624 76.625,317.414 78.395,317.414 90.536 C 317.414 106.534,316.514 105.359,328.778 105.359 L 337.433 105.359 338.614 103.956 L 339.795 102.553 339.795 90.750 C 339.795 78.465,339.548 76.625,337.897 76.625 C 337.436 76.625,337.058 76.420,337.058 76.169 C 337.058 75.881,333.865 75.713,328.392 75.713 C 322.919 75.713,319.726 75.881,319.726 76.169 M355.074 76.267 C 352.767 77.599,352.802 77.397,352.659 90.318 L 352.524 102.482 353.868 103.921 L 355.212 105.359 363.983 105.359 L 372.754 105.359 374.260 103.762 L 375.766 102.165 375.810 91.238 C 375.874 75.314,376.175 75.705,363.877 75.727 C 358.766 75.736,355.665 75.926,355.074 76.267 M275.029 90.764 L 275.029 97.149 272.064 97.149 L 269.099 97.149 269.099 90.764 L 269.099 84.379 272.064 84.379 L 275.029 84.379 275.029 90.764 M331.585 90.764 L 331.585 97.149 328.620 97.149 L 325.656 97.149 325.656 90.764 L 325.656 84.379 328.620 84.379 L 331.585 84.379 331.585 90.764 M366.705 90.764 L 366.705 97.149 363.968 97.149 L 361.231 97.149 361.231 90.764 L 361.231 84.379 363.968 84.379 L 366.705 84.379 366.705 90.764 M97.149 101.710 L 97.149 111.745 87.115 111.745 L 77.081 111.745 77.081 101.710 L 77.081 91.676 87.115 91.676 L 97.149 91.676 97.149 101.710 M131.813 101.710 L 131.813 111.745 121.779 111.745 L 111.745 111.745 111.745 101.710 L 111.745 91.676 121.779 91.676 L 131.813 91.676 131.813 101.710 M38.769 107.184 L 38.769 116.306 29.875 116.306 L 20.981 116.306 20.981 107.184 L 20.981 98.062 29.875 98.062 L 38.769 98.062 38.769 107.184 M262.486 118.681 C 260.687 119.712,260.463 120.495,260.448 125.790 C 260.434 130.729,260.482 130.991,261.610 132.119 C 263.772 134.281,268.124 133.416,268.172 130.814 C 268.180 130.389,268.392 129.916,268.643 129.761 C 268.894 129.606,269.099 128.875,269.099 128.137 L 269.099 126.796 272.064 126.796 L 275.029 126.796 275.029 136.294 C 275.029 147.611,276.089 149.682,280.636 147.248 C 282.805 146.088,282.783 146.232,282.768 133.100 C 282.753 120.484,282.574 119.042,281.022 119.042 C 280.736 119.042,280.502 118.837,280.502 118.586 C 280.502 117.919,263.660 118.007,262.486 118.681 M319.726 118.586 C 319.726 118.837,319.338 119.042,318.864 119.042 C 317.504 119.042,317.115 126.143,317.438 145.062 C 317.476 147.285,319.500 147.777,328.607 147.777 L 337.355 147.777 338.461 146.600 L 339.567 145.423 339.671 133.374 C 339.783 120.549,339.659 119.656,337.630 118.700 C 336.117 117.987,319.726 117.883,319.726 118.586 M354.276 118.994 C 353.837 119.439,353.478 120.042,353.478 120.335 C 353.478 120.627,353.263 120.867,353.001 120.867 C 352.677 120.867,352.567 124.842,352.659 133.225 L 352.794 145.584 354.162 146.678 C 355.495 147.744,355.748 147.772,363.981 147.774 C 376.190 147.778,375.827 148.231,375.827 132.998 C 375.827 117.637,376.215 118.119,363.874 118.157 C 356.073 118.181,354.984 118.276,354.276 118.994 M204.903 126.110 C 203.338 127.887,204.092 129.123,210.832 135.835 L 217.332 142.306 189.925 142.291 C 174.851 142.283,162.126 142.423,161.647 142.603 C 159.510 143.407,159.039 145.690,160.691 147.241 L 161.746 148.233 189.528 148.233 L 217.309 148.233 210.821 154.707 C 203.113 162.399,202.192 165.108,207.283 165.108 C 209.302 165.108,227.594 147.192,227.594 145.216 C 227.594 143.204,209.218 125.424,207.161 125.445 C 206.233 125.454,205.217 125.754,204.903 126.110 M331.585 133.203 L 331.585 139.610 328.734 139.474 L 325.884 139.339 325.757 133.067 L 325.630 126.796 328.607 126.796 L 331.585 126.796 331.585 133.203 M366.705 133.181 L 366.705 139.567 363.968 139.567 L 361.231 139.567 361.231 133.181 L 361.231 126.796 363.968 126.796 L 366.705 126.796 366.705 133.181 M255.447 139.488 C 253.543 139.669,250.674 141.578,248.547 144.079 C 246.755 146.185,246.161 147.292,244.050 152.452 C 243.073 154.840,242.189 158.061,242.189 159.233 C 242.189 159.926,241.984 160.620,241.733 160.775 C 241.482 160.930,241.277 161.854,241.277 162.828 C 241.277 163.802,241.072 164.725,240.821 164.880 C 240.570 165.035,240.365 166.126,240.365 167.305 C 240.365 168.483,240.172 170.121,239.935 170.945 C 238.423 176.219,239.093 193.161,240.839 193.767 C 241.080 193.850,241.277 194.207,241.277 194.560 C 241.277 194.912,241.636 195.637,242.075 196.172 C 243.693 198.140,245.727 200.228,246.025 200.228 C 246.194 200.228,246.773 200.639,247.311 201.140 C 247.850 201.642,248.560 202.052,248.889 202.052 C 249.218 202.052,249.487 202.231,249.487 202.450 C 249.487 202.669,250.308 202.979,251.311 203.140 L 253.136 203.432 253.136 212.755 C 253.136 224.105,253.587 225.314,257.820 225.314 C 261.183 225.314,261.802 223.348,261.802 212.669 C 261.802 204.166,261.866 203.421,262.600 203.418 C 263.367 203.415,264.404 202.957,266.795 201.563 C 268.984 200.288,270.618 198.807,272.064 196.789 C 272.566 196.089,273.233 195.257,273.546 194.940 C 273.860 194.623,274.116 194.041,274.116 193.647 C 274.116 193.253,274.287 192.930,274.496 192.930 C 275.265 192.930,275.581 174.081,274.890 169.441 C 274.704 168.187,274.428 166.083,274.277 164.766 C 274.127 163.449,273.824 162.372,273.604 162.372 C 273.384 162.372,273.204 161.665,273.204 160.802 C 273.204 159.939,272.999 159.106,272.748 158.951 C 272.497 158.796,272.292 158.078,272.292 157.355 C 272.292 156.632,272.114 155.930,271.897 155.796 C 271.680 155.662,271.387 154.839,271.245 153.966 C 269.855 145.397,262.657 138.801,255.447 139.488 M259.770 149.487 C 260.634 150.428,261.342 151.454,261.343 151.767 C 261.345 152.081,261.560 152.338,261.822 152.338 C 262.083 152.338,262.256 152.594,262.206 152.908 C 262.117 153.456,262.298 154.077,263.207 156.350 C 263.437 156.926,263.626 157.798,263.626 158.288 C 263.626 158.778,263.831 159.179,264.082 159.179 C 264.333 159.179,264.538 159.863,264.538 160.699 C 264.538 161.536,264.685 162.366,264.864 162.546 C 265.043 162.725,265.231 163.323,265.281 163.876 C 265.331 164.428,265.619 166.420,265.922 168.301 C 266.443 171.543,266.973 176.496,267.552 183.535 C 267.721 185.590,267.617 187.095,267.251 187.868 C 265.573 191.419,265.115 192.162,263.988 193.168 C 260.980 195.854,256.807 196.387,253.180 194.549 C 248.482 192.169,247.496 189.739,247.798 181.298 C 248.005 175.508,248.198 173.438,249.094 167.389 C 249.335 165.758,249.646 163.655,249.786 162.714 C 249.925 161.773,250.222 161.003,250.447 161.003 C 250.672 161.003,250.855 160.467,250.855 159.810 C 250.855 158.444,252.281 154.010,252.794 153.782 C 252.982 153.698,253.136 153.134,253.136 152.528 C 253.136 151.921,253.341 151.425,253.592 151.425 C 253.843 151.425,254.048 151.117,254.048 150.741 C 254.048 150.365,254.239 150.057,254.473 150.057 C 254.707 150.057,255.025 149.660,255.179 149.174 C 255.439 148.354,256.152 147.959,257.606 147.829 C 257.932 147.800,258.906 148.546,259.770 149.487 M311.351 161.750 C 309.525 163.576,309.691 165.765,311.802 167.699 L 313.456 169.213 318.871 169.213 L 324.287 169.213 324.287 185.318 C 324.287 202.751,324.202 202.146,326.891 203.675 C 328.407 204.537,328.436 204.533,331.585 202.977 C 332.716 202.418,332.843 200.648,332.899 184.607 L 332.953 169.213 346.180 169.213 L 359.407 169.213 359.433 184.379 C 359.459 199.821,359.695 202.257,361.231 202.964 C 361.608 203.137,362.375 203.516,362.936 203.806 C 364.100 204.407,365.336 204.500,365.336 203.985 C 365.336 203.794,365.795 203.434,366.355 203.187 C 368.411 202.277,368.515 201.396,368.522 184.835 L 368.529 169.213 373.476 169.213 C 379.118 169.213,380.836 168.641,381.962 166.384 C 382.953 164.397,382.853 163.656,381.373 161.998 L 380.078 160.547 346.316 160.547 L 312.553 160.547 311.351 161.750 M345.087 181.851 C 340.595 183.023,341.534 190.194,346.180 190.194 C 347.699 190.194,349.386 189.162,349.661 188.063 C 349.808 187.479,350.111 187.001,350.335 187.001 C 350.558 187.001,350.741 186.488,350.741 185.861 C 350.741 185.234,350.536 184.721,350.285 184.721 C 350.034 184.721,349.829 184.398,349.829 184.004 C 349.829 182.487,347.208 181.297,345.087 181.851 M289.987 211.060 C 287.492 213.946,287.689 222.039,290.310 224.318 C 293.393 226.999,297.377 224.553,297.377 219.977 L 297.377 218.016 345.870 218.016 L 394.362 218.016 395.357 216.872 C 396.760 215.259,396.749 211.961,395.338 210.972 C 393.683 209.813,290.991 209.899,289.987 211.060 " stroke="none" fill="#555555" fill-rule="evenodd"></path></g></svg>