<svg id="svg" version="1.1" width="500" height="500" xmlns="http://www.w3.org/2000/svg" xmlns:xlink="http://www.w3.org/1999/xlink" style="display: block;"><g id="svgg"><path id="path0" d="M60.620 4.443 C 59.421 5.096,58.069 6.324,57.615 7.172 C 57.055 8.218,56.786 70.316,56.779 200.557 L 56.768 392.400 58.984 394.196 L 61.200 395.992 167.880 395.996 L 274.559 396.000 298.280 372.480 C 311.326 359.544,326.950 344.080,333.000 338.114 L 344.000 327.268 344.000 167.784 L 344.000 8.299 341.548 5.950 L 339.095 3.600 200.948 3.428 C 80.127 3.278,62.527 3.405,60.620 4.443 M328.000 92.800 L 328.000 166.400 326.362 166.400 C 319.194 166.400,318.740 178.749,325.800 181.681 L 328.000 182.594 328.000 249.297 L 328.000 316.000 298.438 316.000 C 266.858 316.000,265.597 316.144,264.026 319.938 C 263.449 321.330,263.084 332.179,262.972 351.234 L 262.800 380.400 167.600 380.400 L 72.400 380.400 72.197 281.488 L 71.994 182.575 73.903 182.096 C 83.274 179.744,82.042 164.814,72.600 166.305 C 72.270 166.357,72.000 133.280,72.000 92.800 L 72.000 19.200 200.000 19.200 L 328.000 19.200 328.000 92.800 M134.800 37.495 C 122.062 40.836,117.951 49.741,119.493 70.648 C 121.053 91.803,139.740 101.428,154.131 88.490 C 161.722 81.665,164.661 60.636,159.688 48.733 C 156.222 40.439,144.227 35.023,134.800 37.495 M144.000 54.400 C 144.880 55.280,145.632 56.630,145.671 57.400 C 145.792 59.786,145.509 66.077,145.208 67.678 C 145.051 68.515,144.895 70.536,144.861 72.169 C 144.794 75.447,142.380 78.415,140.135 77.981 C 139.401 77.839,138.543 77.695,138.228 77.661 C 135.137 77.330,133.932 56.179,136.887 54.109 C 139.398 52.350,142.059 52.459,144.000 54.400 M207.510 55.184 C 202.129 57.359,200.962 63.522,205.141 67.701 L 207.881 70.441 232.331 70.377 L 256.780 70.313 259.190 68.285 C 263.100 64.996,262.263 58.011,257.674 55.638 C 254.988 54.249,210.814 53.849,207.510 55.184 M206.400 91.435 C 201.821 93.751,201.371 100.993,205.610 104.137 C 207.520 105.554,210.120 105.629,258.010 105.649 L 308.400 105.669 310.600 103.222 C 314.043 99.392,312.805 92.875,308.310 91.166 C 305.049 89.926,208.881 90.180,206.400 91.435 M113.042 99.094 C 105.876 101.599,96.000 109.511,96.000 112.747 C 96.000 113.216,95.670 113.600,95.266 113.600 C 93.653 113.600,89.419 128.907,89.471 134.551 C 89.552 143.363,89.016 143.276,141.349 143.020 L 186.272 142.800 188.421 140.800 C 192.827 136.699,191.487 124.461,185.385 113.067 C 178.591 100.381,158.127 93.519,146.215 99.932 C 140.178 103.182,136.880 102.986,133.882 99.200 C 132.375 97.297,118.384 97.226,113.042 99.094 M127.200 114.291 C 127.200 118.067,144.353 119.008,151.490 115.623 C 160.554 111.324,171.078 115.859,173.251 125.000 L 173.773 127.200 140.487 127.200 C 117.979 127.200,107.200 126.931,107.200 126.368 C 107.200 122.942,112.315 116.822,116.806 114.874 C 119.814 113.570,127.200 113.155,127.200 114.291 M206.108 127.581 C 202.057 130.649,201.563 136.583,205.083 139.890 L 206.942 141.636 257.088 141.637 C 290.680 141.637,307.754 141.360,308.809 140.795 C 313.241 138.423,313.696 130.917,309.586 127.990 C 306.641 125.893,208.847 125.507,206.108 127.581 M90.833 166.145 C 84.871 167.806,82.681 173.623,86.071 178.796 C 89.677 184.299,107.095 182.847,109.585 176.835 C 112.762 169.167,102.004 163.034,90.833 166.145 M119.200 166.645 C 115.947 167.755,113.142 172.465,113.910 175.527 C 115.795 183.035,134.229 184.863,138.733 177.989 C 144.067 169.850,131.390 162.488,119.200 166.645 M148.110 166.952 C 137.924 172.436,143.097 181.760,156.311 181.733 C 166.946 181.712,171.031 178.361,168.771 171.513 C 167.013 166.185,154.616 163.448,148.110 166.952 M178.650 166.482 C 171.208 168.635,171.330 181.122,178.800 181.724 C 194.957 183.027,201.119 179.255,197.666 170.175 C 196.161 166.214,186.237 164.287,178.650 166.482 M207.452 166.722 C 200.997 169.653,201.538 181.406,208.138 181.637 C 226.145 182.267,231.245 179.196,227.143 170.195 C 225.285 166.116,213.403 164.021,207.452 166.722 M238.000 166.127 C 233.905 167.234,231.348 172.008,232.366 176.645 C 233.832 183.320,253.329 184.086,256.797 177.605 C 260.963 169.822,249.721 162.958,238.000 166.127 M267.510 166.100 C 261.727 167.409,259.570 175.140,263.806 179.376 C 266.127 181.696,266.335 181.742,274.486 181.730 L 282.800 181.718 285.059 179.059 C 291.838 171.077,280.972 163.053,267.510 166.100 M297.553 166.359 C 290.181 168.596,288.280 176.579,294.197 180.455 C 299.081 183.655,313.736 181.861,315.884 177.800 C 320.118 169.794,309.033 162.875,297.553 166.359 M98.800 209.903 C 93.887 212.057,92.743 218.583,96.576 222.584 L 98.699 224.800 148.986 224.800 L 199.273 224.800 201.204 222.869 C 205.105 218.968,204.409 213.198,199.691 210.329 C 196.516 208.398,103.131 208.003,98.800 209.903 M97.857 241.751 C 93.920 243.654,93.007 250.970,96.295 254.258 L 98.436 256.400 202.343 256.609 C 267.800 256.740,307.002 256.532,308.283 256.045 C 313.950 253.890,314.738 245.753,309.660 241.825 C 307.979 240.525,100.543 240.452,97.857 241.751 M99.102 272.993 C 93.179 275.184,92.413 284.028,97.887 287.024 C 101.205 288.841,302.268 289.596,307.660 287.812 C 313.715 285.809,315.301 277.938,310.388 274.271 C 308.301 272.713,103.213 271.472,99.102 272.993 M96.803 328.600 C 92.298 332.691,93.892 340.185,99.600 341.747 C 100.920 342.108,114.204 342.385,129.120 342.362 L 156.240 342.320 158.920 339.640 C 161.915 336.645,162.310 334.094,160.362 330.326 C 158.420 326.571,156.970 326.400,127.161 326.400 L 99.225 326.400 96.803 328.600 M176.600 327.264 C 171.520 330.223,171.835 338.367,177.140 341.224 C 187.798 346.963,200.778 336.655,192.862 328.738 C 190.352 326.228,179.991 325.289,176.600 327.264 M316.000 331.867 C 316.000 332.235,307.810 340.576,297.800 350.403 L 279.600 368.272 279.384 350.755 C 279.265 341.121,279.344 332.779,279.559 332.219 C 280.011 331.040,316.000 330.693,316.000 331.867 " stroke="none" fill="#555555" fill-rule="evenodd"></path></g></svg>