<?xml version="1.0" encoding="iso-8859-1"?>
<!-- Generator: Adobe Illustrator 19.0.0, SVG Export Plug-In . SVG Version: 6.00 Build 0)  -->
<svg version="1.1" id="Layer_1" xmlns="http://www.w3.org/2000/svg" xmlns:xlink="http://www.w3.org/1999/xlink" x="0px" y="0px"
	 viewBox="0 0 469.333 469.333" style="enable-background:new 0 0 469.333 469.333;" xml:space="preserve">
<g>
	<g>
		<path d="M437.365,117.333H298.667c0-35.296-28.704-64-64-64s-64,28.704-64,64H31.968C14.336,117.333,0,131.68,0,149.301v234.731
			C0,401.653,14.336,416,31.968,416h405.397c17.632,0,31.968-14.347,31.968-31.968V149.301
			C469.333,131.68,454.997,117.333,437.365,117.333z M234.667,74.667c23.531,0,42.667,19.136,42.667,42.667H192
			C192,93.803,211.136,74.667,234.667,74.667z M448,384.032c0,5.867-4.768,10.635-10.635,10.635H31.968
			c-5.867,0-10.635-4.768-10.635-10.635V149.301c0-5.867,4.768-10.635,10.635-10.635h150.443h104.523h150.443
			c5.856,0,10.624,4.768,10.624,10.635V384.032z"/>
	</g>
</g>
<g>
	<g>
		<path d="M138.667,170.667c-52.928,0-96,43.061-96,96s43.072,96,96,96s96-43.061,96-96S191.595,170.667,138.667,170.667z
			 M138.667,341.333C97.493,341.333,64,307.829,64,266.667S97.493,192,138.667,192s74.667,33.504,74.667,74.667
			S179.84,341.333,138.667,341.333z"/>
	</g>
</g>
<g>
	<g>
		<path d="M170.667,250.667h-16v-16c0-8.843-7.157-16-16-16s-16,7.157-16,16v16h-16c-8.843,0-16,7.157-16,16c0,8.843,7.157,16,16,16
			h16v16c0,8.843,7.157,16,16,16s16-7.157,16-16v-16h16c8.843,0,16-7.157,16-16C186.667,257.824,179.509,250.667,170.667,250.667z"
			/>
	</g>
</g>
<g>
	<g>
		<path d="M416,192H277.333c-5.888,0-10.667,4.768-10.667,10.667c0,5.899,4.779,10.667,10.667,10.667H416
			c5.888,0,10.667-4.768,10.667-10.667C426.667,196.768,421.888,192,416,192z"/>
	</g>
</g>
<g>
	<g>
		<path d="M309.333,234.667h-32c-5.888,0-10.667,4.768-10.667,10.667S271.445,256,277.333,256h32
			c5.888,0,10.667-4.768,10.667-10.667S315.221,234.667,309.333,234.667z"/>
	</g>
</g>
<g>
	<g>
		<path d="M416,234.667h-64c-5.888,0-10.667,4.768-10.667,10.667S346.112,256,352,256h64c5.888,0,10.667-4.768,10.667-10.667
			S421.888,234.667,416,234.667z"/>
	</g>
</g>
<g>
	<g>
		<path d="M416,277.333H277.333c-5.888,0-10.667,4.768-10.667,10.667c0,5.899,4.779,10.667,10.667,10.667H416
			c5.888,0,10.667-4.768,10.667-10.667C426.667,282.101,421.888,277.333,416,277.333z"/>
	</g>
</g>
<g>
	<g>
		<path d="M394.667,320H277.333c-5.888,0-10.667,4.768-10.667,10.667c0,5.899,4.779,10.667,10.667,10.667h117.333
			c5.888,0,10.667-4.768,10.667-10.667C405.333,324.768,400.555,320,394.667,320z"/>
	</g>
</g>
<g>
	<g>
		<circle cx="234.667" cy="96" r="10.667"/>
	</g>
</g>
<g>
</g>
<g>
</g>
<g>
</g>
<g>
</g>
<g>
</g>
<g>
</g>
<g>
</g>
<g>
</g>
<g>
</g>
<g>
</g>
<g>
</g>
<g>
</g>
<g>
</g>
<g>
</g>
<g>
</g>
</svg>
