<svg style="display: block;" id="svg" version="1.1" width="500" height="500" xmlns="http://www.w3.org/2000/svg" xmlns:xlink="http://www.w3.org/1999/xlink"><g id="svgg"><path id="path0" d="M198.049 9.520 C 197.805 9.916,196.405 10.240,194.940 10.240 C 191.489 10.240,182.313 12.812,182.822 13.636 C 183.038 13.985,182.128 14.508,180.800 14.800 C 179.472 15.092,178.590 15.661,178.840 16.065 C 179.090 16.469,178.793 16.800,178.180 16.800 C 174.978 16.800,164.800 29.890,164.800 34.009 C 164.800 35.179,164.453 35.880,164.009 35.606 C 163.556 35.325,163.422 35.647,163.695 36.358 C 163.957 37.041,163.835 37.600,163.424 37.600 C 162.494 37.600,162.306 55.048,163.231 55.619 C 163.600 55.847,163.764 56.746,163.597 57.617 C 163.429 58.488,163.631 59.200,164.046 59.200 C 164.461 59.200,164.800 60.100,164.800 61.200 C 164.800 62.300,165.160 63.200,165.600 63.200 C 166.040 63.200,166.400 63.740,166.400 64.400 C 166.400 65.060,166.760 65.600,167.200 65.600 C 167.640 65.600,168.000 66.077,168.000 66.661 C 168.000 67.244,168.889 68.556,169.975 69.577 C 171.062 70.597,171.761 71.740,171.528 72.116 C 171.296 72.492,171.442 72.800,171.854 72.800 C 172.265 72.800,174.089 74.200,175.905 75.911 C 179.339 79.144,183.682 81.600,185.968 81.600 C 186.698 81.600,187.072 81.960,186.800 82.400 C 186.506 82.876,187.458 83.200,189.153 83.200 C 190.719 83.200,192.000 83.509,192.000 83.887 C 192.000 85.057,204.770 85.018,206.220 83.843 C 207.308 82.961,207.403 82.986,206.836 84.000 C 206.291 84.976,206.366 85.013,207.243 84.200 C 207.835 83.650,209.155 83.200,210.176 83.200 C 211.197 83.200,213.457 82.300,215.200 81.200 C 216.943 80.100,218.735 79.200,219.184 79.200 C 219.633 79.200,220.000 78.922,220.000 78.582 C 220.000 78.242,221.262 77.284,222.805 76.453 C 224.347 75.623,225.458 74.791,225.272 74.605 C 225.086 74.420,226.344 72.900,228.067 71.227 C 229.790 69.555,231.200 67.785,231.200 67.294 C 231.200 66.802,231.528 66.400,231.930 66.400 C 232.331 66.400,232.903 64.960,233.200 63.200 C 233.497 61.440,234.045 60.000,234.416 60.000 C 235.044 60.000,235.923 58.049,236.578 55.200 C 237.346 51.865,237.402 41.600,236.654 41.600 C 236.200 41.600,236.019 41.104,236.252 40.497 C 236.485 39.891,236.253 38.938,235.737 38.380 C 235.003 37.586,235.060 37.503,236.000 38.000 C 236.975 38.516,237.013 38.433,236.200 37.557 C 235.650 36.965,235.200 35.631,235.200 34.593 C 235.200 33.538,234.847 32.924,234.400 33.200 C 233.955 33.475,233.598 32.874,233.595 31.847 C 233.588 29.567,230.925 25.365,230.012 26.194 C 229.644 26.527,229.587 26.376,229.884 25.857 C 230.196 25.313,229.024 23.621,227.113 21.857 C 225.292 20.176,222.946 18.006,221.901 17.036 C 220.855 16.066,220.000 15.492,220.000 15.760 C 220.000 16.029,219.341 15.651,218.535 14.922 C 217.729 14.193,216.829 13.837,216.535 14.132 C 216.241 14.426,216.000 14.296,216.000 13.843 C 216.000 12.677,208.003 10.304,203.653 10.180 C 201.644 10.122,200.000 9.788,200.000 9.437 C 200.000 8.570,198.600 8.629,198.049 9.520 M155.600 92.000 C 155.328 92.440,154.047 92.800,152.753 92.800 C 151.459 92.800,150.400 93.131,150.400 93.536 C 150.400 93.941,149.317 94.511,147.993 94.802 C 146.669 95.092,145.790 95.661,146.040 96.065 C 146.290 96.469,146.020 96.800,145.439 96.800 C 143.871 96.800,138.400 102.350,138.400 103.942 C 138.400 104.387,137.691 106.014,136.824 107.557 C 135.350 110.182,135.248 111.972,135.248 135.241 C 135.248 158.887,135.326 160.202,136.824 161.810 C 137.691 162.740,138.400 164.168,138.400 164.983 C 138.400 166.596,144.398 172.738,146.130 172.900 C 146.719 172.955,147.560 173.090,148.000 173.200 C 148.440 173.310,149.541 173.445,150.447 173.500 C 151.353 173.555,151.879 173.949,151.615 174.376 C 151.307 174.874,168.356 175.165,199.168 175.188 C 233.534 175.213,247.200 174.973,247.200 174.345 C 247.200 173.862,247.650 173.626,248.200 173.821 C 250.986 174.808,261.600 168.388,261.600 165.716 C 261.600 165.095,262.230 164.005,263.000 163.294 C 265.142 161.314,265.200 160.535,265.200 133.666 C 265.200 114.270,264.972 108.457,264.200 108.200 C 263.650 108.017,263.200 107.357,263.200 106.733 C 263.200 106.110,262.840 105.600,262.400 105.600 C 261.960 105.600,261.600 104.945,261.600 104.144 C 261.600 102.686,256.821 96.655,256.776 98.056 C 256.762 98.465,256.384 98.170,255.936 97.399 C 253.914 93.928,249.059 92.711,236.800 92.603 L 225.200 92.501 234.800 92.012 L 244.400 91.522 233.747 91.361 C 223.825 91.211,220.504 91.727,219.200 93.620 C 217.314 96.360,215.370 98.886,214.200 100.122 C 213.430 100.935,212.800 101.971,212.800 102.425 C 212.800 102.878,211.540 104.406,210.000 105.819 C 208.460 107.233,207.200 108.677,207.200 109.028 C 207.200 109.832,206.515 110.719,202.436 115.200 C 200.634 117.180,199.258 118.393,199.380 117.896 C 199.501 117.399,198.610 116.067,197.400 114.935 C 196.190 113.803,195.200 112.446,195.200 111.919 C 195.200 111.392,193.940 109.738,192.400 108.242 C 190.860 106.747,189.600 105.197,189.600 104.798 C 189.600 104.399,188.755 103.228,187.723 102.195 C 186.690 101.163,185.160 99.257,184.323 97.959 C 181.579 93.709,179.860 92.104,178.577 92.596 C 177.762 92.909,177.536 92.751,177.916 92.136 C 178.347 91.438,175.642 91.200,167.294 91.200 C 160.691 91.200,155.892 91.528,155.600 92.000 M170.629 92.589 C 168.335 92.750,164.375 92.751,161.829 92.592 C 159.283 92.433,161.160 92.301,166.000 92.299 C 170.840 92.297,172.923 92.428,170.629 92.589 M194.800 188.333 C 193.920 188.737,192.120 190.328,190.800 191.871 L 188.400 194.675 188.152 221.755 C 187.998 238.518,187.615 248.656,187.146 248.367 C 186.729 248.109,186.188 248.421,185.943 249.060 C 185.698 249.698,184.531 250.416,183.349 250.655 C 182.167 250.894,180.480 251.750,179.600 252.556 C 178.720 253.361,176.380 254.730,174.400 255.596 C 172.420 256.463,170.324 257.628,169.743 258.186 C 169.161 258.744,168.150 259.200,167.496 259.200 C 166.841 259.200,166.528 259.560,166.800 260.000 C 167.072 260.440,166.691 260.800,165.954 260.800 C 165.217 260.800,162.898 262.060,160.800 263.600 C 158.702 265.140,156.571 266.400,156.065 266.400 C 155.112 266.400,151.111 268.740,150.392 269.718 C 150.168 270.023,149.000 270.520,147.798 270.822 C 146.595 271.124,145.810 271.692,146.053 272.085 C 146.296 272.478,146.001 272.800,145.398 272.800 C 141.994 272.800,138.360 285.987,141.477 287.026 C 141.985 287.195,142.400 287.843,142.400 288.467 C 142.400 293.075,157.259 296.167,159.959 292.119 C 160.201 291.755,161.924 290.793,163.786 289.981 C 165.648 289.169,166.991 288.324,166.770 288.103 C 166.549 287.882,168.674 286.562,171.491 285.168 C 174.309 283.775,177.444 281.862,178.458 280.918 C 179.472 279.973,180.954 279.200,181.751 279.200 C 182.548 279.200,183.200 278.840,183.200 278.400 C 183.200 277.960,183.931 277.600,184.825 277.600 C 185.719 277.600,186.657 277.062,186.909 276.405 C 187.161 275.747,187.639 275.377,187.971 275.582 C 188.303 275.787,189.976 274.895,191.687 273.600 C 193.399 272.304,195.451 271.234,196.247 271.222 C 197.043 271.210,197.496 270.878,197.253 270.485 C 196.551 269.349,200.821 268.622,202.077 269.664 C 202.694 270.176,203.200 270.317,203.200 269.976 C 203.200 269.634,203.851 270.106,204.647 271.024 C 205.443 271.942,207.063 272.936,208.247 273.233 C 209.431 273.530,210.400 274.094,210.400 274.487 C 210.400 274.879,210.940 275.200,211.600 275.200 C 212.260 275.200,212.800 275.521,212.800 275.913 C 212.800 276.306,213.700 276.852,214.800 277.129 C 215.900 277.405,216.800 277.984,216.800 278.415 C 216.800 278.847,217.396 279.200,218.124 279.200 C 218.853 279.200,220.629 280.100,222.071 281.200 C 223.513 282.300,225.077 283.200,225.547 283.200 C 226.016 283.200,226.400 283.560,226.400 284.000 C 226.400 284.440,226.808 284.800,227.306 284.800 C 227.804 284.800,229.514 285.608,231.106 286.595 C 232.698 287.583,234.180 288.441,234.400 288.503 C 236.952 289.219,238.400 289.886,238.400 290.345 C 238.400 291.071,243.705 293.600,245.227 293.600 C 245.872 293.600,246.400 293.883,246.400 294.229 C 246.400 294.574,247.094 294.857,247.941 294.857 C 248.789 294.857,249.308 294.574,249.094 294.229 C 248.880 293.883,249.897 293.588,251.353 293.573 C 253.966 293.547,257.600 291.311,257.600 289.729 C 257.600 289.281,258.214 288.300,258.965 287.550 C 260.406 286.108,261.200 279.200,259.924 279.200 C 259.526 279.200,259.200 278.559,259.200 277.777 C 259.200 276.994,258.499 275.848,257.643 275.231 C 256.786 274.614,256.235 273.867,256.418 273.572 C 256.600 273.276,254.781 272.071,252.375 270.893 C 249.969 269.715,248.000 268.363,248.000 267.890 C 248.000 267.416,247.460 267.236,246.800 267.489 C 246.140 267.743,245.600 267.641,245.600 267.263 C 245.600 266.885,244.008 265.828,242.063 264.914 C 240.118 263.999,238.296 262.879,238.014 262.423 C 237.733 261.968,235.927 260.878,234.000 260.000 C 232.073 259.122,230.270 258.037,229.993 257.589 C 229.716 257.141,229.154 256.981,228.745 257.234 C 228.335 257.487,228.000 257.296,228.000 256.809 C 228.000 255.728,223.104 253.565,222.084 254.195 C 221.682 254.444,221.588 254.267,221.875 253.802 C 222.176 253.315,220.902 252.339,218.864 251.496 C 216.921 250.692,215.478 249.798,215.657 249.508 C 215.836 249.219,215.266 248.795,214.391 248.566 C 212.845 248.162,212.800 247.429,212.800 222.550 C 212.800 195.526,212.075 190.400,208.252 190.400 C 207.673 190.400,207.200 190.040,207.200 189.600 C 207.200 189.160,206.459 188.800,205.553 188.800 C 204.647 188.800,204.084 188.511,204.302 188.159 C 204.846 187.278,196.780 187.426,194.800 188.333 M69.386 210.881 C 69.251 211.016,67.803 211.217,66.170 211.327 C 64.536 211.437,63.200 211.813,63.200 212.164 C 63.200 212.514,62.321 212.800,61.247 212.800 C 60.173 212.800,59.078 213.150,58.813 213.579 C 58.549 214.007,56.997 214.965,55.366 215.708 C 53.735 216.451,51.680 217.688,50.800 218.458 C 45.753 222.871,42.400 226.725,42.400 228.112 C 42.400 228.983,42.078 229.496,41.685 229.252 C 40.876 228.753,38.400 234.419,38.400 236.769 C 38.400 237.614,38.040 238.528,37.600 238.800 C 37.160 239.072,36.800 240.872,36.800 242.800 C 36.800 244.728,36.440 246.528,36.000 246.800 C 35.560 247.072,35.200 248.014,35.200 248.894 C 35.200 249.774,35.512 250.301,35.894 250.065 C 36.276 249.829,36.587 250.258,36.585 251.018 C 36.570 256.221,36.892 258.438,37.600 258.000 C 38.041 257.727,38.400 258.299,38.400 259.276 C 38.400 261.487,42.178 269.600,43.208 269.600 C 43.627 269.600,44.200 270.517,44.481 271.637 C 44.762 272.758,45.188 273.479,45.427 273.240 C 45.665 273.001,46.517 273.884,47.319 275.203 C 48.626 277.352,49.640 277.995,50.785 277.400 C 50.996 277.290,51.737 278.010,52.430 279.000 C 53.123 279.990,54.352 280.800,55.160 280.800 C 55.968 280.800,56.836 281.340,57.089 282.000 C 57.361 282.708,58.562 283.200,60.022 283.200 C 61.525 283.200,62.293 283.525,61.982 284.029 C 61.669 284.535,62.509 284.880,64.135 284.913 C 80.322 285.240,85.387 284.991,86.103 283.833 C 86.318 283.485,87.253 283.200,88.181 283.200 C 89.108 283.200,89.637 282.970,89.355 282.689 C 89.074 282.408,90.274 281.470,92.022 280.605 C 93.770 279.740,95.200 278.689,95.200 278.269 C 95.200 277.849,95.492 277.686,95.850 277.907 C 96.207 278.128,97.523 277.429,98.774 276.354 C 100.025 275.280,100.775 274.400,100.440 274.400 C 100.105 274.400,100.889 273.410,102.182 272.200 C 104.955 269.604,109.600 260.266,109.600 257.286 C 109.600 256.139,110.050 255.194,110.600 255.188 C 111.267 255.180,111.200 254.917,110.400 254.400 C 109.600 253.883,109.533 253.620,110.200 253.612 C 110.910 253.604,111.200 251.860,111.200 247.600 C 111.200 244.300,110.881 241.600,110.492 241.600 C 110.103 241.600,109.537 239.620,109.235 237.200 C 108.932 234.780,108.351 232.800,107.942 232.800 C 107.534 232.800,107.200 232.260,107.200 231.600 C 107.200 230.940,106.840 230.400,106.400 230.400 C 105.960 230.400,105.600 229.916,105.600 229.324 C 105.600 228.732,104.888 227.604,104.019 226.817 C 103.149 226.030,102.665 225.019,102.942 224.569 C 103.220 224.120,103.058 223.994,102.581 224.288 C 102.105 224.582,101.483 224.093,101.200 223.200 C 100.917 222.307,100.351 221.783,99.942 222.036 C 99.534 222.288,99.200 222.182,99.200 221.800 C 99.200 221.418,98.633 220.407,97.941 219.553 C 97.248 218.699,96.962 218.540,97.305 219.200 C 97.648 219.860,96.823 219.473,95.471 218.341 C 94.119 217.209,91.795 215.789,90.306 215.187 C 88.818 214.584,87.420 213.890,87.200 213.645 C 86.077 212.395,83.045 211.103,83.670 212.141 C 84.187 213.000,84.074 213.011,83.071 212.199 C 82.007 211.339,70.078 210.189,69.386 210.881 M319.600 211.047 C 318.280 211.199,316.858 211.655,316.440 212.062 C 316.022 212.468,314.924 212.800,314.000 212.800 C 313.076 212.800,311.952 213.168,311.501 213.619 C 311.051 214.069,309.835 214.601,308.800 214.800 C 307.765 214.999,306.711 215.468,306.459 215.842 C 306.206 216.215,304.830 217.201,303.400 218.033 C 301.970 218.864,300.800 219.772,300.800 220.050 C 300.800 220.328,300.080 221.385,299.200 222.400 C 298.320 223.415,297.600 223.969,297.600 223.631 C 297.600 222.217,291.070 232.934,290.705 234.948 C 290.485 236.159,289.917 237.617,289.444 238.188 C 288.410 239.434,288.282 256.751,289.302 257.492 C 289.686 257.771,290.125 258.720,290.277 259.600 C 290.430 260.480,291.044 262.377,291.642 263.815 C 292.241 265.253,292.824 266.693,292.937 267.015 C 293.051 267.337,294.057 268.635,295.172 269.899 C 296.287 271.163,297.110 272.513,297.000 272.899 C 296.890 273.285,297.361 273.600,298.047 273.600 C 298.733 273.600,299.104 273.909,298.870 274.286 C 298.637 274.664,299.674 275.634,301.174 276.442 C 302.674 277.250,303.723 278.201,303.504 278.556 C 303.285 278.910,303.868 279.200,304.800 279.200 C 305.732 279.200,306.272 279.560,306.000 280.000 C 305.728 280.440,306.203 280.800,307.055 280.800 C 307.907 280.800,309.052 281.340,309.600 282.000 C 310.148 282.660,311.272 283.200,312.098 283.200 C 312.924 283.200,313.600 283.587,313.600 284.060 C 313.600 284.533,314.590 284.842,315.800 284.745 C 317.010 284.649,318.665 284.854,319.477 285.200 C 322.626 286.543,336.211 284.944,340.428 282.733 C 347.330 279.116,347.921 278.723,350.993 275.711 C 352.647 274.090,354.810 271.969,355.800 270.999 C 357.434 269.396,357.990 267.956,357.675 266.141 C 357.612 265.778,357.929 265.709,358.380 265.988 C 359.095 266.429,359.297 266.015,359.166 264.380 C 359.148 264.149,359.739 262.799,360.481 261.380 C 363.091 256.384,363.168 256.125,362.171 255.720 C 361.429 255.419,361.436 255.311,362.200 255.263 C 363.435 255.185,363.622 242.755,362.400 242.000 C 361.960 241.728,361.600 240.288,361.600 238.800 C 361.600 237.312,361.234 235.868,360.787 235.592 C 360.340 235.316,360.206 234.714,360.489 234.255 C 360.773 233.796,360.689 233.191,360.302 232.911 C 359.916 232.630,358.718 230.780,357.641 228.800 C 355.302 224.501,350.569 219.200,349.071 219.200 C 348.482 219.200,348.000 218.842,348.000 218.404 C 348.000 217.966,346.290 216.813,344.200 215.842 C 342.110 214.870,340.280 213.788,340.133 213.438 C 339.987 213.087,338.795 212.800,337.486 212.800 C 336.177 212.800,335.291 212.500,335.518 212.133 C 335.744 211.767,335.495 211.426,334.965 211.376 C 331.221 211.026,321.577 210.819,319.600 211.047 M28.800 293.426 C 28.800 293.770,27.888 294.127,26.773 294.219 C 24.827 294.380,20.031 296.477,19.200 297.530 C 18.980 297.809,17.799 298.674,16.575 299.454 C 15.350 300.233,14.563 301.217,14.825 301.641 C 15.087 302.065,14.739 302.627,14.051 302.891 C 13.363 303.155,12.800 304.074,12.800 304.933 C 12.800 305.792,12.440 306.272,12.000 306.000 C 11.560 305.728,11.155 305.887,11.100 306.353 C 11.045 306.819,10.910 307.560,10.800 308.000 C 10.690 308.440,10.555 309.181,10.500 309.647 C 10.445 310.113,10.040 310.272,9.600 310.000 C 9.073 309.674,8.800 318.300,8.800 335.277 L 8.800 361.049 10.800 363.671 C 11.900 365.113,12.802 366.767,12.805 367.347 C 12.808 367.926,14.068 369.256,15.605 370.303 C 17.142 371.350,18.400 372.520,18.400 372.903 C 18.400 373.286,19.279 373.600,20.353 373.600 C 21.427 373.600,22.528 373.960,22.800 374.400 C 23.121 374.920,41.491 375.200,75.294 375.200 C 105.618 375.200,127.110 374.902,126.853 374.485 C 126.610 374.092,127.399 373.526,128.606 373.228 C 130.770 372.693,135.200 368.610,135.200 367.151 C 135.200 366.738,135.544 366.400,135.964 366.400 C 136.384 366.400,136.963 365.143,137.251 363.607 C 137.540 362.071,138.077 361.000,138.445 361.228 C 138.813 361.455,139.143 350.472,139.177 336.821 C 139.221 319.484,138.979 312.000,138.373 312.000 C 137.896 312.000,137.695 311.693,137.928 311.317 C 138.473 310.435,136.749 305.653,135.200 303.748 C 132.288 300.166,130.407 298.400,129.505 298.400 C 128.971 298.400,128.776 298.157,129.073 297.860 C 129.855 297.078,125.512 294.411,123.447 294.405 C 122.483 294.402,121.472 294.040,121.200 293.600 C 120.928 293.160,120.277 292.806,119.753 292.812 C 119.180 292.820,119.279 293.134,120.000 293.600 C 120.721 294.066,120.820 294.380,120.247 294.388 C 119.723 294.394,119.072 294.040,118.800 293.600 C 118.507 293.126,113.588 292.800,106.742 292.800 L 95.177 292.800 92.812 295.400 C 91.511 296.830,90.436 298.365,90.423 298.810 C 90.411 299.256,89.500 300.296,88.400 301.122 C 87.300 301.948,86.400 303.114,86.400 303.712 C 86.400 304.310,86.118 304.800,85.772 304.800 C 85.427 304.800,84.469 305.944,83.643 307.343 C 82.124 309.914,80.918 311.411,76.360 316.388 L 73.849 319.130 71.924 316.598 C 70.866 315.206,69.563 313.332,69.028 312.434 C 68.494 311.535,68.044 311.096,68.028 311.457 C 67.988 312.392,65.600 309.883,65.600 308.907 C 65.600 308.462,64.490 306.907,63.133 305.449 C 61.776 303.992,59.441 300.910,57.943 298.600 C 56.145 295.827,54.673 294.400,53.610 294.400 C 52.724 294.400,52.000 294.040,52.000 293.600 C 52.000 293.103,47.600 292.800,40.400 292.800 C 34.020 292.800,28.800 293.081,28.800 293.426 M280.465 293.495 C 280.229 293.877,278.607 294.418,276.861 294.697 C 275.116 294.977,273.218 295.834,272.644 296.602 C 272.070 297.371,271.077 298.114,270.437 298.254 C 269.205 298.524,267.625 300.400,265.512 304.101 C 264.804 305.342,263.994 306.127,263.712 305.845 C 263.430 305.564,263.172 305.843,263.139 306.467 C 263.105 307.090,262.883 308.320,262.645 309.200 C 262.001 311.581,261.117 359.304,261.709 359.669 C 261.989 359.841,262.456 361.246,262.746 362.791 C 263.035 364.336,263.637 365.600,264.083 365.600 C 264.529 365.600,264.683 365.942,264.425 366.360 C 264.167 366.778,264.685 367.510,265.578 367.988 C 266.470 368.466,267.201 369.294,267.202 369.828 C 267.203 370.363,269.099 371.790,271.415 373.000 L 275.625 375.200 327.413 375.200 C 361.404 375.200,379.200 374.925,379.200 374.400 C 379.200 373.960,379.575 373.600,380.034 373.600 C 380.963 373.600,381.523 373.188,385.720 369.421 C 387.326 367.979,388.881 365.985,389.177 364.988 C 389.473 363.992,390.049 363.383,390.458 363.636 C 390.909 363.914,391.200 353.091,391.200 336.047 C 391.200 312.519,391.019 308.000,390.078 308.000 C 389.461 308.000,388.596 306.967,388.156 305.705 C 386.698 301.522,378.456 294.400,375.074 294.400 C 373.875 294.400,372.672 294.040,372.400 293.600 C 372.106 293.124,367.058 292.800,359.953 292.800 C 352.518 292.800,348.000 293.102,348.000 293.600 C 348.000 294.040,347.304 294.400,346.454 294.400 C 345.604 294.400,344.681 295.115,344.404 295.989 C 344.126 296.863,342.932 298.594,341.750 299.835 C 339.041 302.680,336.800 305.491,336.800 306.043 C 336.800 306.637,335.186 308.535,332.600 310.982 C 331.390 312.128,330.400 313.465,330.400 313.956 C 330.400 314.446,329.680 315.366,328.800 316.000 C 327.920 316.634,327.200 317.614,327.200 318.177 C 327.200 319.813,325.891 319.363,324.508 317.252 C 323.806 316.181,322.324 314.397,321.216 313.288 C 320.107 312.180,319.200 310.741,319.200 310.090 C 319.200 309.440,318.498 308.685,317.641 308.413 C 316.783 308.141,315.859 307.217,315.587 306.359 C 315.315 305.502,314.756 304.800,314.346 304.800 C 313.936 304.800,313.657 304.530,313.727 304.200 C 313.937 303.207,312.671 300.786,312.116 301.121 C 311.832 301.292,311.136 300.930,310.568 300.316 C 310.001 299.702,309.804 299.200,310.131 299.200 C 310.457 299.200,309.319 297.760,307.600 296.000 L 304.475 292.800 292.685 292.800 C 286.200 292.800,280.701 293.113,280.465 293.495 " stroke="none" fill="#2e375a" fill-rule="evenodd"></path></g></svg>