<svg style="display: block;" id="svg" version="1.1" width="500" height="500" xmlns="http://www.w3.org/2000/svg" xmlns:xlink="http://www.w3.org/1999/xlink"><g id="svgg"><path id="path0" d="M188.000 3.790 C 186.020 3.961,184.040 4.487,183.600 4.959 C 183.038 5.562,183.396 5.669,184.800 5.320 C 185.900 5.046,188.711 4.817,191.047 4.811 C 193.673 4.804,195.106 4.494,194.800 4.000 C 194.528 3.560,193.697 3.263,192.953 3.340 C 192.209 3.417,189.980 3.619,188.000 3.790 M202.000 3.986 C 215.067 5.417,218.036 5.582,216.711 4.803 C 216.003 4.386,210.963 3.874,205.511 3.665 C 196.784 3.331,196.364 3.369,202.000 3.986 M178.000 5.370 C 177.120 5.582,176.071 6.068,175.668 6.450 C 175.265 6.831,176.345 6.759,178.068 6.288 C 182.711 5.020,182.654 4.251,178.000 5.370 M223.200 6.317 C 223.860 6.685,227.100 7.635,230.400 8.427 C 233.700 9.220,237.947 10.553,239.838 11.388 C 241.728 12.224,243.678 12.774,244.171 12.610 C 245.304 12.232,237.489 9.390,229.415 7.244 C 222.775 5.479,221.301 5.259,223.200 6.317 M169.200 7.641 L 166.000 8.758 169.200 8.306 C 172.556 7.832,175.988 6.412,173.600 6.486 C 172.940 6.506,170.960 7.026,169.200 7.641 M162.000 9.736 C 157.719 11.180,145.600 17.048,145.600 17.676 C 145.600 18.012,147.130 17.439,149.000 16.402 C 150.870 15.365,155.280 13.379,158.800 11.989 C 162.320 10.598,165.350 9.312,165.533 9.130 C 166.061 8.607,164.606 8.857,162.000 9.736 M247.200 13.911 C 247.200 14.101,249.990 15.773,253.400 17.628 C 256.810 19.482,260.232 21.553,261.005 22.228 C 261.778 22.904,262.609 23.258,262.852 23.015 C 263.095 22.772,261.203 21.315,258.647 19.778 C 253.165 16.482,247.200 13.425,247.200 13.911 M142.400 19.240 L 140.400 20.844 142.600 19.894 C 143.810 19.371,144.800 18.641,144.800 18.272 C 144.800 17.359,144.689 17.404,142.400 19.240 M134.403 24.651 C 129.856 28.184,119.909 37.882,119.071 39.600 C 118.641 40.480,119.925 39.359,121.924 37.108 C 124.685 33.999,133.768 26.041,137.533 23.431 C 137.717 23.304,137.710 23.043,137.518 22.851 C 137.326 22.660,135.925 23.470,134.403 24.651 M266.000 26.015 C 269.869 29.250,271.903 29.995,268.400 26.893 C 266.640 25.335,264.840 24.048,264.400 24.034 C 263.960 24.020,264.680 24.911,266.000 26.015 M277.669 36.564 C 279.578 38.854,281.288 40.578,281.470 40.396 C 281.652 40.214,280.091 38.341,278.000 36.233 L 274.199 32.400 277.669 36.564 M116.338 42.547 C 115.996 43.126,115.198 44.410,114.566 45.400 C 113.933 46.390,113.613 47.200,113.854 47.200 C 114.581 47.200,117.805 42.338,117.367 41.901 C 117.143 41.677,116.680 41.968,116.338 42.547 M282.400 42.034 C 282.400 42.273,283.840 44.418,285.600 46.800 C 287.360 49.182,288.800 51.463,288.800 51.868 C 288.800 52.273,289.399 53.098,290.131 53.702 C 291.975 55.223,290.479 52.390,286.170 46.200 C 283.139 41.845,282.400 41.029,282.400 42.034 M108.425 55.259 C 104.465 62.794,105.124 62.980,109.314 55.509 C 111.136 52.259,112.351 49.600,112.013 49.600 C 111.675 49.600,110.060 52.146,108.425 55.259 M295.290 64.813 C 297.001 68.780,298.400 72.357,298.400 72.761 C 298.400 74.110,300.039 77.828,300.452 77.415 C 301.172 76.695,293.699 57.624,292.690 57.608 C 292.410 57.604,293.580 60.846,295.290 64.813 M104.504 63.032 C 103.441 64.751,102.487 68.000,103.044 68.000 C 103.721 68.000,105.746 63.079,105.266 62.600 C 105.098 62.431,104.755 62.626,104.504 63.032 M101.112 71.686 C 100.449 73.274,100.097 74.764,100.331 74.997 C 100.699 75.366,101.257 74.190,102.799 69.800 C 103.613 67.480,102.217 69.041,101.112 71.686 M194.400 74.977 C 190.423 75.690,191.209 76.560,195.253 75.920 C 197.535 75.560,199.597 75.070,199.834 74.832 C 200.316 74.351,197.468 74.426,194.400 74.977 M200.991 74.858 C 201.243 75.110,202.653 75.492,204.125 75.707 C 205.596 75.923,208.029 76.424,209.532 76.821 C 211.035 77.219,211.935 77.245,211.532 76.881 C 210.110 75.592,199.735 73.601,200.991 74.858 M99.619 76.769 C 98.845 78.022,96.030 91.429,96.086 93.600 C 96.114 94.700,96.972 91.820,97.992 87.200 C 99.013 82.580,100.100 78.170,100.409 77.400 C 101.003 75.922,100.427 75.462,99.619 76.769 M184.400 78.332 C 181.760 79.613,178.520 81.619,177.200 82.789 C 174.486 85.194,175.952 84.649,179.645 81.880 C 180.990 80.871,184.050 79.156,186.445 78.069 C 188.840 76.982,190.440 76.072,190.000 76.047 C 189.560 76.022,187.040 77.050,184.400 78.332 M215.205 78.155 C 215.208 78.510,216.288 79.413,217.605 80.163 C 218.922 80.912,220.000 81.260,220.000 80.935 C 220.000 80.611,218.920 79.707,217.600 78.927 C 216.280 78.148,215.202 77.800,215.205 78.155 M221.240 82.206 C 221.658 82.540,223.260 83.889,224.800 85.205 L 227.600 87.597 224.843 84.598 C 223.327 82.949,221.725 81.600,221.283 81.600 C 220.784 81.600,220.767 81.829,221.240 82.206 M301.728 84.903 C 302.169 86.826,303.207 93.440,304.033 99.600 C 305.281 108.896,305.470 109.644,305.146 104.000 C 304.689 96.059,302.598 83.109,301.611 82.103 C 301.234 81.720,301.287 82.980,301.728 84.903 M172.270 87.400 C 167.174 93.102,161.300 107.200,164.020 107.200 C 164.449 107.200,164.800 106.364,164.800 105.343 C 164.800 101.934,167.394 95.653,170.889 90.600 C 174.537 85.325,174.922 84.433,172.270 87.400 M228.018 88.502 C 228.008 88.998,228.501 89.820,229.114 90.329 C 229.727 90.837,230.670 92.321,231.211 93.627 C 231.752 94.932,232.520 96.000,232.918 96.000 C 233.316 96.000,233.103 95.010,232.446 93.800 C 230.749 90.676,228.039 87.434,228.018 88.502 M95.200 98.933 C 95.200 102.362,95.571 102.246,96.265 98.600 C 96.549 97.106,96.428 96.000,95.980 96.000 C 95.551 96.000,95.200 97.320,95.200 98.933 M234.895 103.225 C 235.678 107.361,236.868 109.008,236.324 105.200 C 236.072 103.440,235.529 101.651,235.118 101.225 C 234.652 100.742,234.568 101.497,234.895 103.225 M94.899 103.631 C 94.624 104.346,94.457 108.411,94.528 112.665 L 94.655 120.400 95.205 111.600 C 95.775 102.465,95.736 101.449,94.899 103.631 M163.305 114.800 C 163.287 116.120,163.771 118.280,164.380 119.600 L 165.488 122.000 165.013 119.200 C 164.125 113.975,163.343 111.962,163.305 114.800 M235.644 116.444 C 235.343 118.050,235.277 119.543,235.497 119.763 C 235.717 119.983,236.143 118.850,236.444 117.244 C 236.746 115.639,236.812 114.145,236.592 113.925 C 236.372 113.705,235.946 114.839,235.644 116.444 M304.391 122.918 C 304.109 124.613,303.187 128.852,302.343 132.337 C 300.778 138.798,300.780 141.860,302.345 136.275 C 303.907 130.705,305.774 120.707,305.334 120.268 C 305.097 120.031,304.673 121.223,304.391 122.918 M233.736 123.600 C 233.164 125.360,232.524 127.340,232.315 128.000 C 232.105 128.660,232.690 127.825,233.614 126.144 C 234.539 124.463,235.179 122.483,235.036 121.744 C 234.885 120.967,234.337 121.749,233.736 123.600 M96.175 129.823 C 96.586 132.120,97.308 134.360,97.779 134.800 C 98.376 135.357,98.478 135.154,98.116 134.130 C 97.830 133.322,97.370 131.244,97.093 129.512 C 96.816 127.781,96.328 126.203,96.008 126.005 C 95.688 125.807,95.763 127.525,96.175 129.823 M166.408 125.840 C 166.311 134.064,185.749 148.157,196.800 147.874 C 198.780 147.824,199.500 147.651,198.400 147.490 C 184.326 145.435,174.596 139.440,168.713 129.200 C 167.449 127.000,166.412 125.488,166.408 125.840 M228.543 133.400 C 225.495 137.546,222.542 139.969,216.400 143.361 C 214.200 144.577,212.989 145.578,213.709 145.586 C 216.990 145.622,228.554 136.030,231.294 131.000 C 232.715 128.391,231.349 129.582,228.543 133.400 M97.628 136.440 C 97.644 136.858,98.199 138.100,98.862 139.200 L 100.067 141.200 99.543 139.200 C 98.997 137.113,97.577 135.066,97.628 136.440 M300.028 141.547 C 299.015 143.441,298.968 144.238,299.903 143.660 C 300.609 143.223,301.710 140.000,301.153 140.000 C 300.990 140.000,300.484 140.696,300.028 141.547 M101.692 148.691 C 103.057 152.762,104.311 155.955,104.479 155.787 C 104.894 155.373,100.769 142.993,99.901 142.045 C 99.520 141.629,100.326 144.620,101.692 148.691 M298.204 146.600 C 297.993 147.590,297.056 150.290,296.122 152.600 C 295.188 154.910,294.736 156.800,295.118 156.800 C 295.501 156.800,295.986 155.990,296.196 155.000 C 296.407 154.010,297.344 151.310,298.278 149.000 C 299.212 146.690,299.664 144.800,299.282 144.800 C 298.899 144.800,298.414 145.610,298.204 146.600 M205.600 146.895 L 200.400 147.960 205.106 147.561 C 207.694 147.341,210.394 146.821,211.106 146.405 C 212.664 145.494,212.263 145.530,205.600 146.895 M105.173 158.000 C 105.508 158.880,105.963 160.230,106.184 161.000 C 106.405 161.770,106.897 162.400,107.276 162.400 C 107.655 162.400,107.545 161.410,107.031 160.200 C 105.908 157.557,104.264 155.611,105.173 158.000 M293.230 160.200 C 292.632 161.630,290.697 166.130,288.931 170.200 C 287.165 174.270,285.963 177.595,286.260 177.588 C 286.557 177.581,288.144 174.431,289.788 170.588 C 294.487 159.597,295.253 157.600,294.770 157.600 C 294.522 157.600,293.829 158.770,293.230 160.200 M108.094 165.200 C 108.267 165.640,108.929 167.350,109.565 169.000 C 110.201 170.650,111.016 172.000,111.377 172.000 C 111.738 172.000,111.261 170.470,110.318 168.600 C 108.719 165.429,107.385 163.389,108.094 165.200 M114.048 178.961 C 116.593 184.546,118.516 187.860,117.416 184.764 C 115.892 180.477,112.306 172.816,111.820 172.809 C 111.501 172.804,112.504 175.573,114.048 178.961 M277.291 195.400 C 272.688 204.750,269.465 211.680,270.128 210.800 C 272.443 207.729,286.796 178.400,285.984 178.400 C 285.806 178.400,281.894 186.050,277.291 195.400 M118.400 187.829 C 118.400 189.289,120.200 192.800,120.949 192.800 C 121.330 192.800,121.046 191.630,120.319 190.200 C 118.721 187.058,118.400 186.661,118.400 187.829 M121.746 195.600 C 122.247 196.700,122.951 197.600,123.311 197.600 C 123.671 197.600,123.556 196.700,123.054 195.600 C 122.553 194.500,121.849 193.600,121.489 193.600 C 121.129 193.600,121.244 194.500,121.746 195.600 M124.000 199.369 C 124.000 200.048,124.599 201.098,125.331 201.702 C 126.548 202.706,126.573 202.629,125.623 200.800 C 124.229 198.118,124.000 197.916,124.000 199.369 M130.972 213.528 C 133.517 218.329,135.708 222.150,135.841 222.020 C 136.280 221.591,127.649 204.800,126.989 204.800 C 126.634 204.800,128.426 208.728,130.972 213.528 M266.540 216.600 C 265.436 218.958,265.247 219.793,266.042 218.800 C 267.971 216.388,269.729 212.800,268.980 212.800 C 268.616 212.800,267.518 214.510,266.540 216.600 M139.269 229.000 C 141.038 232.190,143.257 236.330,144.202 238.200 C 145.146 240.070,146.170 241.600,146.477 241.600 C 146.784 241.600,144.823 237.464,142.118 232.409 C 139.413 227.353,136.942 223.213,136.627 223.209 C 136.312 223.204,137.501 225.810,139.269 229.000 M262.400 224.065 C 262.400 224.541,261.125 227.106,259.567 229.765 C 258.008 232.424,256.838 234.888,256.967 235.241 C 257.095 235.594,258.730 233.030,260.599 229.542 C 262.469 226.054,263.639 223.200,263.199 223.200 C 262.760 223.200,262.400 223.589,262.400 224.065 M147.248 242.800 C 147.248 243.240,148.493 245.760,150.014 248.400 C 151.535 251.040,152.780 252.840,152.780 252.400 C 152.780 251.960,151.535 249.440,150.014 246.800 C 148.493 244.160,147.248 242.360,147.248 242.800 M246.285 253.228 C 242.922 259.153,240.402 263.996,240.685 263.991 C 240.968 263.987,243.966 259.127,247.347 253.191 C 250.728 247.256,253.248 242.413,252.947 242.428 C 252.646 242.444,249.648 247.304,246.285 253.228 M157.155 260.400 C 157.896 262.602,179.371 298.495,179.732 298.135 C 179.892 297.975,174.756 289.059,168.319 278.322 C 161.883 267.585,156.859 259.520,157.155 260.400 M141.369 263.202 C 136.619 263.810,134.209 264.827,137.667 264.765 C 138.730 264.746,141.085 264.443,142.901 264.091 C 145.948 263.500,146.467 263.672,149.660 266.325 L 153.120 269.198 150.760 269.704 L 148.400 270.211 151.000 270.305 C 152.430 270.357,153.600 270.144,153.600 269.830 C 153.600 269.101,147.010 262.365,146.433 262.505 C 146.195 262.563,143.916 262.876,141.369 263.202 M251.141 264.463 C 250.140 265.528,249.700 266.400,250.163 266.400 C 250.625 266.400,251.452 265.860,252.000 265.200 C 252.585 264.495,254.331 264.000,256.231 264.000 C 260.064 264.000,259.927 263.600,255.880 262.977 C 253.484 262.607,252.633 262.874,251.141 264.463 M260.388 264.020 C 260.185 264.348,262.445 264.871,265.410 265.183 C 273.887 266.075,287.170 268.607,295.600 270.938 C 296.684 271.237,296.942 271.116,296.400 270.561 C 294.746 268.867,261.162 262.767,260.388 264.020 M126.000 265.600 C 124.535 266.230,124.568 266.291,126.400 266.332 C 127.500 266.356,128.940 266.027,129.600 265.600 C 131.175 264.582,128.368 264.582,126.000 265.600 M118.600 266.618 C 116.290 267.062,114.400 267.702,114.400 268.040 C 114.400 268.379,116.370 268.198,118.777 267.638 C 121.184 267.079,123.344 266.811,123.577 267.044 C 123.810 267.276,124.000 267.047,124.000 266.533 C 124.000 266.020,123.730 265.647,123.400 265.705 C 123.070 265.763,120.910 266.174,118.600 266.618 M237.066 269.400 C 236.313 270.610,235.360 272.050,234.950 272.600 C 234.540 273.150,234.518 273.597,234.902 273.594 C 235.286 273.590,236.421 272.150,237.424 270.394 C 239.475 266.803,239.185 265.998,237.066 269.400 M247.360 268.160 C 246.141 269.379,246.129 270.400,247.333 270.400 C 247.847 270.400,248.032 270.166,247.746 269.879 C 247.459 269.593,247.849 268.884,248.612 268.305 C 249.376 267.725,249.622 267.239,249.160 267.225 C 248.698 267.211,247.888 267.632,247.360 268.160 M110.000 268.800 C 109.415 269.746,110.198 269.746,112.400 268.800 C 113.943 268.137,113.937 268.110,112.247 268.056 C 111.283 268.025,110.272 268.360,110.000 268.800 M101.600 270.863 L 98.000 271.968 101.200 271.522 C 102.960 271.276,104.742 270.744,105.160 270.338 C 106.052 269.472,106.197 269.451,101.600 270.863 M142.200 270.602 C 139.230 271.034,136.800 271.627,136.800 271.920 C 136.800 272.213,139.320 272.104,142.400 271.679 C 145.480 271.253,148.000 270.611,148.000 270.252 C 148.000 269.894,147.910 269.649,147.800 269.709 C 147.690 269.768,145.170 270.170,142.200 270.602 M249.272 270.045 C 250.484 270.605,263.536 272.674,263.881 272.360 C 264.395 271.893,258.065 270.549,253.200 270.092 C 250.560 269.844,248.793 269.823,249.272 270.045 M301.212 272.020 C 301.413 272.344,302.471 272.780,303.564 272.989 C 304.657 273.198,305.388 273.104,305.188 272.780 C 304.987 272.456,303.929 272.020,302.836 271.811 C 301.743 271.602,301.012 271.696,301.212 272.020 M93.684 272.868 C 92.630 273.289,91.950 273.817,92.173 274.040 C 92.640 274.507,96.800 273.050,96.800 272.420 C 96.800 271.842,95.938 271.966,93.684 272.868 M126.600 273.365 C 125.610 273.555,124.800 274.017,124.800 274.391 C 124.800 274.765,125.970 274.766,127.400 274.394 C 128.830 274.021,130.720 273.552,131.600 273.351 C 133.667 272.879,129.056 272.891,126.600 273.365 M267.267 273.085 C 268.153 273.843,272.834 274.302,272.393 273.588 C 272.125 273.155,270.787 272.800,269.419 272.800 C 268.052 272.800,267.083 272.928,267.267 273.085 M306.401 273.433 C 306.401 273.745,309.101 274.931,312.401 276.069 C 315.700 277.207,318.400 277.903,318.400 277.617 C 318.400 277.330,315.700 276.144,312.400 274.980 C 309.100 273.817,306.400 273.121,306.401 273.433 M88.400 274.878 L 86.000 276.009 88.398 275.540 C 90.903 275.049,91.696 274.624,91.133 274.074 C 90.950 273.895,89.720 274.257,88.400 274.878 M273.890 274.156 C 274.196 274.463,274.895 274.779,275.444 274.859 C 275.993 274.940,279.104 275.759,282.358 276.680 C 285.612 277.601,287.943 278.041,287.537 277.658 C 286.271 276.463,272.719 272.985,273.890 274.156 M119.600 275.630 C 116.432 276.726,116.428 276.733,119.200 276.277 C 120.740 276.024,122.540 275.509,123.200 275.133 C 124.961 274.129,123.260 274.364,119.600 275.630 M230.895 279.695 C 229.235 282.582,228.015 285.082,228.184 285.251 C 228.353 285.420,229.865 283.211,231.543 280.343 C 233.221 277.474,234.441 274.974,234.254 274.787 C 234.067 274.600,232.555 276.809,230.895 279.695 M82.200 277.040 C 80.990 277.518,80.000 278.192,80.000 278.537 C 80.000 279.188,83.822 277.789,85.160 276.648 C 86.174 275.783,84.980 275.941,82.200 277.040 M289.200 278.208 C 289.640 278.595,292.700 279.920,296.000 281.152 C 299.300 282.385,304.638 284.790,307.861 286.497 C 313.972 289.732,316.000 290.471,313.001 288.371 C 310.407 286.554,302.720 282.860,296.800 280.586 C 289.465 277.768,288.276 277.396,289.200 278.208 M319.200 277.994 C 319.200 278.536,325.698 281.769,326.060 281.407 C 326.228 281.239,324.753 280.319,322.782 279.361 C 320.812 278.404,319.200 277.789,319.200 277.994 M72.184 281.979 C 65.702 285.459,56.647 291.878,55.481 293.820 C 54.825 294.913,54.626 295.049,61.461 289.732 C 63.804 287.909,68.754 284.765,72.461 282.744 C 76.167 280.724,79.200 278.920,79.200 278.735 C 79.200 278.213,79.184 278.220,72.184 281.979 M92.600 285.310 C 88.750 287.322,85.600 289.264,85.600 289.626 C 85.600 289.987,87.655 289.046,90.168 287.533 C 92.680 286.020,95.920 284.354,97.368 283.830 C 98.815 283.307,100.000 282.591,100.000 282.239 C 100.000 281.389,100.511 281.177,92.600 285.310 M327.200 281.925 C 327.200 282.085,328.100 282.806,329.200 283.526 C 330.300 284.247,331.200 284.526,331.200 284.147 C 331.200 283.767,330.300 283.047,329.200 282.546 C 328.100 282.044,327.200 281.765,327.200 281.925 M335.351 287.400 C 337.398 288.830,340.631 291.245,342.536 292.766 C 344.550 294.373,345.332 294.759,344.404 293.686 C 342.291 291.243,333.686 284.800,332.536 284.800 C 332.037 284.800,333.304 285.970,335.351 287.400 M224.556 290.095 C 223.329 292.128,222.479 293.946,222.669 294.135 C 222.858 294.325,224.132 292.662,225.499 290.440 C 226.867 288.218,227.716 286.400,227.387 286.400 C 227.058 286.400,225.784 288.063,224.556 290.095 M321.175 295.845 C 325.867 300.714,327.638 302.162,325.524 299.400 C 323.961 297.357,319.848 293.322,318.000 292.018 C 317.120 291.397,318.549 293.119,321.175 295.845 M76.773 296.832 C 74.916 299.050,73.574 301.041,73.790 301.257 C 74.006 301.473,74.743 300.795,75.428 299.750 C 76.113 298.705,77.809 296.714,79.198 295.325 C 80.587 293.936,81.369 292.800,80.936 292.800 C 80.503 292.800,78.630 294.614,76.773 296.832 M51.336 298.228 C 48.307 302.052,44.780 308.640,44.863 310.319 C 44.898 311.024,45.312 310.520,45.783 309.200 C 46.558 307.031,49.793 301.765,53.279 297.000 C 55.478 293.993,53.900 294.990,51.336 298.228 M347.230 297.400 C 347.247 297.730,348.546 299.440,350.117 301.200 L 352.974 304.400 350.352 300.600 C 347.753 296.835,347.172 296.239,347.230 297.400 M216.460 303.628 C 212.619 309.955,211.469 312.754,214.670 307.986 C 217.577 303.656,220.997 297.600,220.536 297.600 C 220.307 297.600,218.473 300.313,216.460 303.628 M182.191 302.762 C 183.374 304.721,184.447 306.219,184.576 306.091 C 184.967 305.700,181.240 299.214,180.620 299.207 C 180.301 299.203,181.008 300.803,182.191 302.762 M326.400 302.240 C 326.400 302.592,326.783 303.263,327.251 303.731 C 327.719 304.199,328.396 306.341,328.757 308.491 C 329.290 311.673,329.429 311.912,329.506 309.774 C 329.558 308.330,329.078 305.900,328.441 304.374 C 327.356 301.778,326.400 300.778,326.400 302.240 M353.022 305.600 C 353.227 306.260,353.974 308.600,354.683 310.800 C 355.392 313.000,356.203 315.880,356.485 317.200 C 356.767 318.520,357.166 319.142,357.371 318.582 C 357.805 317.403,354.840 307.375,353.533 305.600 C 352.747 304.533,352.690 304.533,353.022 305.600 M188.605 313.152 C 190.671 316.426,192.502 318.964,192.673 318.794 C 193.099 318.368,186.142 307.273,185.423 307.233 C 185.106 307.215,186.538 309.878,188.605 313.152 M70.412 312.067 C 70.419 314.450,70.751 316.916,71.150 317.546 C 71.603 318.262,71.707 316.760,71.429 313.546 C 70.870 307.087,70.396 306.398,70.412 312.067 M205.108 321.800 C 202.558 325.870,200.096 329.464,199.636 329.788 C 199.069 330.186,199.089 330.379,199.696 330.388 C 200.189 330.394,202.565 327.250,204.977 323.400 C 210.332 314.852,210.590 314.400,210.119 314.400 C 209.912 314.400,207.657 317.730,205.108 321.800 M327.655 318.866 C 327.140 320.918,324.819 324.779,321.563 329.000 C 320.630 330.210,320.065 331.200,320.307 331.200 C 320.550 331.200,322.187 329.294,323.946 326.964 C 327.345 322.463,330.103 316.800,328.897 316.800 C 328.499 316.800,327.940 317.730,327.655 318.866 M72.018 320.080 C 71.985 322.415,81.556 334.400,83.454 334.400 C 83.855 334.400,82.062 332.132,79.470 329.361 C 76.877 326.589,74.144 323.079,73.396 321.561 C 72.648 320.042,72.028 319.376,72.018 320.080 M193.605 320.330 C 193.599 321.154,198.383 328.800,198.904 328.800 C 199.340 328.800,197.333 325.072,195.243 322.000 C 194.345 320.680,193.608 319.928,193.605 320.330 M356.416 328.943 C 356.122 330.404,355.689 332.275,355.455 333.100 C 355.199 334.002,355.354 334.399,355.845 334.096 C 356.739 333.543,358.005 327.338,357.356 326.689 C 357.134 326.467,356.711 327.481,356.416 328.943 M42.483 327.632 C 41.281 339.642,58.550 360.712,78.800 371.942 C 83.256 374.413,80.160 372.070,71.380 366.326 C 56.207 356.399,48.259 346.182,43.741 330.800 C 43.095 328.600,42.529 327.174,42.483 327.632 M314.000 335.301 C 309.147 339.322,294.454 347.047,288.200 348.865 C 286.330 349.408,284.800 350.153,284.800 350.520 C 284.800 352.355,307.349 341.515,314.200 336.386 C 316.950 334.327,319.200 332.318,319.200 331.921 C 319.200 330.953,319.428 330.805,314.000 335.301 M90.398 339.201 C 92.340 340.928,101.600 345.959,101.600 345.288 C 101.600 345.104,99.530 343.786,97.000 342.360 C 94.470 340.934,91.500 339.241,90.400 338.597 L 88.400 337.426 90.398 339.201 M349.183 347.043 C 347.879 349.109,344.533 353.083,341.747 355.874 C 338.961 358.665,336.837 361.103,337.026 361.293 C 337.216 361.482,339.760 359.105,342.681 356.009 C 347.986 350.385,352.536 344.270,351.894 343.627 C 351.707 343.440,350.487 344.977,349.183 347.043 M102.400 345.563 C 102.400 346.350,105.499 347.568,106.064 347.003 C 106.252 346.814,105.505 346.249,104.403 345.747 C 103.302 345.245,102.400 345.162,102.400 345.563 M112.000 349.553 C 112.000 350.235,125.726 354.538,134.000 356.449 C 143.905 358.736,150.400 359.830,150.400 359.210 C 150.400 358.878,148.666 358.376,146.547 358.095 C 141.152 357.379,124.727 353.286,117.800 350.931 C 114.610 349.846,112.000 349.226,112.000 349.553 M279.400 351.765 C 278.410 351.955,277.600 352.428,277.600 352.814 C 277.600 353.201,278.680 353.140,280.000 352.680 C 282.152 351.930,283.332 351.031,281.800 351.309 C 281.470 351.369,280.390 351.574,279.400 351.765 M270.000 354.472 C 264.417 355.994,244.958 359.743,240.400 360.173 C 238.908 360.314,238.454 360.583,239.200 360.883 C 241.431 361.780,272.523 355.590,275.991 353.557 C 277.742 352.531,276.322 352.748,270.000 354.472 M159.200 360.639 C 160.943 361.722,168.800 362.477,168.800 361.562 C 168.800 361.143,167.585 360.800,166.100 360.800 C 164.615 360.800,162.185 360.596,160.700 360.347 C 158.857 360.037,158.381 360.130,159.200 360.639 M224.403 361.707 C 220.445 362.087,216.845 362.574,216.403 362.788 C 215.231 363.358,231.034 362.345,234.800 361.609 L 238.000 360.984 234.800 361.000 C 233.040 361.009,228.361 361.327,224.403 361.707 M174.000 362.400 C 175.320 362.736,178.560 363.003,181.200 362.993 L 186.000 362.975 181.600 362.366 C 179.180 362.032,175.940 361.765,174.400 361.774 L 171.600 361.789 174.000 362.400 M191.943 363.165 C 192.999 363.817,214.362 363.505,215.039 362.827 C 215.262 362.604,209.936 362.452,203.202 362.489 C 196.469 362.527,191.402 362.831,191.943 363.165 M328.231 366.676 C 326.818 367.624,325.648 368.675,325.631 369.011 C 325.614 369.348,327.040 368.670,328.800 367.505 C 330.560 366.340,332.000 365.255,332.000 365.094 C 332.000 364.472,330.701 365.017,328.231 366.676 M322.857 370.057 C 322.010 370.677,321.471 371.338,321.660 371.526 C 321.848 371.715,322.696 371.362,323.543 370.743 C 324.390 370.123,324.929 369.462,324.740 369.274 C 324.552 369.085,323.704 369.438,322.857 370.057 M316.388 373.682 C 311.406 376.310,311.085 377.227,316.000 374.790 C 320.818 372.400,321.438 372.000,320.321 372.000 C 319.912 372.000,318.142 372.757,316.388 373.682 M85.600 375.600 C 87.580 376.660,89.740 377.528,90.400 377.528 C 91.060 377.528,89.980 376.660,88.000 375.600 C 86.020 374.540,83.860 373.672,83.200 373.672 C 82.540 373.672,83.620 374.540,85.600 375.600 M305.048 378.680 C 298.168 381.694,296.150 383.280,302.400 380.761 C 304.820 379.785,307.790 378.596,309.000 378.118 C 310.210 377.640,311.200 376.968,311.200 376.625 C 311.200 376.281,311.110 376.036,311.000 376.080 C 310.890 376.124,308.212 377.294,305.048 378.680 M98.400 380.724 C 98.400 381.388,101.682 382.585,102.168 382.098 C 102.300 381.967,101.505 381.449,100.403 380.947 C 99.302 380.445,98.400 380.345,98.400 380.724 M292.000 383.717 L 289.200 384.821 291.942 384.402 C 294.666 383.986,295.771 383.468,295.133 382.906 C 294.950 382.745,293.540 383.110,292.000 383.717 M108.800 384.314 C 108.800 384.923,119.368 388.099,119.836 387.630 C 120.052 387.414,119.727 387.100,119.115 386.932 C 118.502 386.764,116.740 386.246,115.200 385.783 C 109.456 384.052,108.800 383.902,108.800 384.314 M282.200 386.270 C 279.670 386.962,277.600 387.780,277.600 388.088 C 277.600 388.718,286.146 386.632,288.000 385.549 C 289.810 384.492,287.777 384.745,282.200 386.270 M121.200 387.799 C 122.188 388.761,132.127 391.252,131.604 390.407 C 131.397 390.071,129.511 389.376,127.414 388.862 C 125.316 388.348,122.880 387.723,122.000 387.474 C 120.954 387.177,120.677 387.290,121.200 387.799 M268.912 389.718 C 267.434 390.143,266.387 390.653,266.584 390.851 C 267.185 391.452,272.000 390.251,272.000 389.500 C 272.000 389.115,271.910 388.832,271.800 388.872 C 271.690 388.912,270.391 389.292,268.912 389.718 M139.200 391.874 C 140.920 392.886,146.123 393.790,145.175 392.912 C 144.749 392.517,142.960 391.963,141.200 391.681 C 139.209 391.361,138.454 391.434,139.200 391.874 M253.200 392.508 C 249.680 393.109,245.593 393.804,244.118 394.052 C 242.643 394.300,241.604 394.671,241.809 394.876 C 242.391 395.458,260.308 392.717,261.160 391.915 C 262.085 391.045,261.502 391.088,253.200 392.508 M147.600 393.559 C 149.121 394.252,155.035 394.729,154.333 394.103 C 154.150 393.939,152.200 393.586,150.000 393.318 C 147.307 392.990,146.523 393.069,147.600 393.559 M155.200 394.594 C 155.200 394.927,156.055 395.200,157.100 395.200 C 158.145 395.200,160.215 395.428,161.700 395.706 C 163.553 396.053,164.149 395.952,163.600 395.383 C 162.659 394.409,155.200 393.708,155.200 394.594 M232.000 395.438 C 228.260 395.824,214.868 396.198,202.240 396.270 C 189.612 396.341,179.892 396.637,180.640 396.927 C 183.978 398.221,237.620 396.922,239.133 395.511 C 239.907 394.789,238.430 394.774,232.000 395.438 M169.600 396.088 C 169.600 396.480,171.100 396.800,172.933 396.800 C 176.913 396.800,176.757 396.320,172.600 395.772 C 170.950 395.554,169.600 395.696,169.600 396.088 " stroke="none" fill="#2d3659" fill-rule="evenodd"></path><path id="path1" d="M194.747 3.914 C 195.122 4.522,193.709 4.839,190.247 4.925 C 187.471 4.994,184.300 5.160,183.200 5.295 C 182.100 5.430,179.925 5.681,178.366 5.853 C 176.807 6.025,174.820 6.547,173.951 7.012 C 173.082 7.477,170.972 8.120,169.263 8.441 C 165.865 9.078,154.290 13.582,149.204 16.245 C 147.442 17.168,145.730 17.851,145.400 17.762 C 145.070 17.673,144.800 17.916,144.800 18.303 C 144.800 18.690,143.673 19.473,142.296 20.043 C 140.919 20.614,138.697 22.080,137.359 23.303 C 136.021 24.525,134.572 25.306,134.139 25.039 C 133.701 24.768,133.605 24.962,133.924 25.476 C 134.238 25.984,134.134 26.400,133.693 26.400 C 132.652 26.400,117.600 41.225,117.600 42.250 C 117.600 42.679,116.567 44.136,115.305 45.487 C 114.043 46.838,113.203 48.136,113.439 48.372 C 113.674 48.607,113.447 48.800,112.933 48.800 C 112.420 48.800,112.080 49.070,112.178 49.400 C 112.348 49.976,106.566 60.778,105.647 61.600 C 105.401 61.820,105.180 62.360,105.155 62.800 C 105.061 64.499,103.800 68.000,103.284 68.000 C 102.985 68.000,102.691 68.630,102.631 69.400 C 102.571 70.170,102.083 71.880,101.548 73.200 C 101.012 74.520,100.480 76.140,100.367 76.800 C 100.253 77.460,99.422 81.240,98.521 85.200 C 95.877 96.815,94.002 119.014,95.465 121.381 C 95.733 121.816,95.809 123.308,95.633 124.698 C 95.457 126.087,95.608 127.043,95.967 126.820 C 96.502 126.490,97.270 129.449,98.040 134.800 C 98.103 135.240,98.422 136.213,98.748 136.962 C 99.075 137.711,99.074 138.756,98.747 139.285 C 98.343 139.939,98.492 140.037,99.212 139.592 C 99.965 139.127,100.135 139.295,99.798 140.171 C 99.538 140.850,99.612 141.719,99.964 142.103 C 100.315 142.486,101.413 145.320,102.404 148.400 C 103.395 151.480,104.908 155.574,105.768 157.499 C 106.627 159.423,107.451 161.626,107.599 162.395 C 107.747 163.164,108.804 165.640,109.948 167.897 C 111.091 170.154,111.751 172.006,111.413 172.012 C 111.076 172.019,111.175 172.289,111.633 172.612 C 112.679 173.350,117.600 184.396,117.600 186.007 C 117.600 186.663,117.916 187.200,118.303 187.200 C 119.066 187.200,121.300 192.022,120.990 193.000 C 120.886 193.330,121.136 193.600,121.546 193.600 C 122.428 193.600,123.604 196.734,123.303 198.280 C 123.188 198.874,123.424 199.156,123.830 198.905 C 124.235 198.655,124.981 199.362,125.489 200.476 C 126.114 201.848,126.133 202.329,125.547 201.967 C 125.071 201.673,125.155 202.190,125.733 203.116 C 126.312 204.042,126.981 204.800,127.221 204.800 C 127.462 204.800,129.625 208.850,132.029 213.800 C 134.433 218.750,136.621 222.980,136.890 223.200 C 137.782 223.928,146.783 241.188,146.590 241.800 C 146.485 242.130,146.689 242.400,147.042 242.400 C 147.394 242.400,148.924 244.830,150.442 247.800 C 151.959 250.770,153.560 253.464,154.000 253.788 C 154.440 254.111,154.504 254.381,154.143 254.388 C 153.781 254.394,154.051 254.966,154.743 255.657 C 155.434 256.349,156.000 257.399,156.000 257.990 C 156.000 258.582,156.295 259.187,156.656 259.333 C 157.595 259.715,173.867 287.374,173.867 288.589 C 173.867 289.145,174.044 289.422,174.262 289.205 C 174.710 288.757,180.000 297.271,180.000 298.440 C 180.000 298.858,180.271 299.200,180.601 299.200 C 180.932 299.200,182.093 300.910,183.182 303.000 C 184.270 305.090,185.358 306.980,185.598 307.200 C 186.736 308.242,192.800 318.224,192.800 319.056 C 192.800 319.575,193.099 320.000,193.465 320.000 C 193.831 320.000,195.361 322.149,196.865 324.776 C 200.255 330.696,199.541 330.941,205.052 321.971 C 207.610 317.807,210.062 314.400,210.499 314.400 C 210.937 314.400,211.090 314.069,210.840 313.664 C 210.590 313.260,210.929 312.386,211.593 311.722 C 212.257 311.058,212.800 310.321,212.800 310.086 C 212.800 309.053,220.193 297.600,220.860 297.600 C 221.267 297.600,221.519 297.330,221.421 297.000 C 221.177 296.184,224.786 289.133,226.343 287.381 C 227.034 286.604,228.680 283.888,230.000 281.346 C 231.320 278.804,233.038 276.028,233.817 275.178 C 234.596 274.327,235.221 273.354,235.206 273.016 C 235.190 272.677,236.083 271.018,237.189 269.328 C 238.295 267.639,239.200 265.929,239.200 265.528 C 239.200 265.128,239.560 264.800,240.000 264.800 C 240.440 264.800,240.715 264.530,240.612 264.200 C 240.373 263.440,252.081 242.893,252.959 242.532 C 253.317 242.384,253.405 241.932,253.154 241.526 C 252.904 241.120,253.261 240.573,253.949 240.309 C 254.637 240.045,255.200 239.147,255.200 238.314 C 255.200 237.481,255.560 236.800,256.000 236.800 C 256.440 236.800,256.800 236.279,256.800 235.643 C 256.800 235.006,258.060 232.336,259.600 229.708 C 261.140 227.081,262.400 224.541,262.400 224.065 C 262.400 223.589,262.760 223.200,263.200 223.200 C 263.640 223.200,264.000 222.660,264.000 222.000 C 264.000 221.340,264.420 220.800,264.933 220.800 C 265.447 220.800,265.642 220.575,265.368 220.301 C 264.724 219.658,267.841 213.531,269.517 212.143 C 270.223 211.559,270.427 211.262,269.971 211.482 C 269.515 211.703,272.961 204.169,277.629 194.742 C 282.297 185.314,286.027 177.600,285.918 177.600 C 285.741 177.600,290.055 167.452,293.399 160.000 C 294.861 156.742,294.967 156.416,295.100 154.753 C 295.158 154.025,295.585 153.743,296.124 154.076 C 296.662 154.409,296.831 154.298,296.530 153.810 C 295.971 152.905,298.410 145.373,299.405 144.932 C 299.738 144.784,299.811 144.342,299.568 143.948 C 299.325 143.555,299.567 142.416,300.105 141.417 C 300.644 140.417,301.164 138.880,301.261 138.000 C 301.357 137.120,302.243 132.800,303.229 128.400 C 305.721 117.272,305.308 102.650,302.053 86.755 C 301.507 84.091,301.150 81.301,301.259 80.555 C 301.369 79.810,301.130 79.200,300.729 79.200 C 300.328 79.200,300.058 78.930,300.129 78.600 C 300.200 78.270,299.840 76.987,299.329 75.748 C 298.818 74.509,298.400 73.165,298.400 72.761 C 298.400 72.357,297.001 68.780,295.290 64.813 C 293.580 60.846,292.363 57.600,292.585 57.600 C 292.808 57.600,292.047 56.364,290.895 54.853 C 289.743 53.343,288.800 51.887,288.800 51.619 C 288.800 51.351,287.360 49.182,285.600 46.800 C 283.840 44.418,282.400 42.289,282.400 42.071 C 282.400 41.852,281.590 40.831,280.600 39.802 C 279.610 38.772,277.180 36.146,275.200 33.965 C 273.219 31.784,270.699 29.414,269.600 28.697 C 268.500 27.981,266.660 26.541,265.511 25.497 C 262.939 23.162,262.184 22.677,253.200 17.578 C 245.692 13.317,240.656 11.251,232.147 8.943 C 229.368 8.189,227.334 7.333,227.626 7.040 C 227.919 6.748,227.445 6.695,226.573 6.923 C 225.700 7.151,223.825 6.737,222.405 6.003 C 220.797 5.171,220.054 5.041,220.436 5.658 C 220.829 6.294,220.718 6.444,220.125 6.077 C 219.209 5.511,218.190 5.402,204.400 4.399 C 200.440 4.110,196.525 3.684,195.700 3.452 C 194.732 3.179,194.394 3.343,194.747 3.914 M206.800 75.361 C 209.000 75.828,211.171 76.501,211.625 76.857 C 212.079 77.214,213.382 77.674,214.521 77.881 C 216.873 78.307,220.000 80.083,220.000 80.992 C 220.000 81.327,220.496 81.600,221.102 81.600 C 223.288 81.600,235.172 95.970,233.021 96.012 C 232.679 96.019,232.841 96.305,233.380 96.647 C 233.919 96.989,234.469 97.974,234.603 98.835 C 234.737 99.696,235.151 100.888,235.523 101.485 C 238.305 105.946,235.210 128.800,231.824 128.800 C 231.429 128.800,231.308 129.127,231.554 129.526 C 232.264 130.675,226.168 137.847,221.682 141.140 C 201.731 155.785,171.237 145.661,165.235 122.400 C 165.178 122.180,164.699 120.740,164.170 119.199 C 162.201 113.468,164.914 94.187,167.467 95.765 C 167.897 96.031,167.993 95.836,167.681 95.330 C 165.595 91.956,182.125 77.380,189.103 76.440 C 190.036 76.314,191.340 76.005,192.000 75.753 C 195.741 74.322,201.220 74.177,206.800 75.361 M142.400 264.151 C 140.420 264.515,137.463 264.685,135.829 264.529 C 134.195 264.373,133.044 264.548,133.273 264.918 C 133.501 265.287,132.858 265.611,131.844 265.636 C 126.324 265.777,124.000 266.063,124.000 266.600 C 124.000 266.930,123.730 267.127,123.400 267.038 C 123.070 266.949,121.540 267.118,120.000 267.414 C 114.206 268.527,111.564 269.001,110.386 269.136 C 109.718 269.213,108.818 269.461,108.386 269.687 C 107.954 269.914,106.799 270.036,105.821 269.960 C 104.803 269.880,104.255 270.165,104.540 270.626 C 104.847 271.123,104.233 271.278,102.943 271.032 C 101.791 270.811,101.039 270.939,101.271 271.316 C 101.504 271.692,100.828 272.000,99.770 272.000 C 98.712 272.000,96.715 272.564,95.333 273.254 C 93.951 273.943,92.456 274.282,92.010 274.006 C 91.565 273.731,91.200 273.858,91.200 274.289 C 91.200 274.720,90.116 275.311,88.792 275.602 C 87.468 275.893,85.292 276.675,83.957 277.341 C 82.623 278.007,81.096 278.616,80.565 278.694 C 76.633 279.271,55.892 292.916,53.520 296.486 C 52.904 297.413,51.068 300.157,49.441 302.583 C 47.813 305.010,46.245 307.939,45.956 309.092 C 45.656 310.288,45.064 310.963,44.579 310.663 C 44.040 310.330,43.922 310.644,44.258 311.519 C 44.550 312.279,44.221 313.998,43.528 315.339 C 42.776 316.793,42.650 317.540,43.214 317.192 C 43.891 316.773,43.967 317.032,43.480 318.103 C 40.990 323.584,44.951 338.545,51.336 347.777 C 52.790 349.880,53.894 351.870,53.790 352.200 C 53.685 352.530,53.870 352.713,54.200 352.608 C 54.530 352.502,56.477 354.098,58.526 356.155 C 60.576 358.212,64.428 361.496,67.087 363.454 C 69.746 365.411,71.669 367.265,71.361 367.573 C 71.052 367.881,71.181 368.013,71.646 367.867 C 72.366 367.640,74.582 368.723,81.600 372.733 C 82.260 373.110,84.690 374.241,87.000 375.246 C 89.310 376.251,91.200 377.372,91.200 377.737 C 91.200 378.102,92.121 378.400,93.247 378.400 C 94.607 378.400,95.100 378.714,94.716 379.336 C 94.327 379.965,94.574 380.105,95.469 379.761 C 96.201 379.480,96.800 379.629,96.800 380.092 C 96.800 380.555,97.250 380.773,97.800 380.578 C 98.350 380.382,100.150 380.899,101.800 381.727 C 103.450 382.555,104.800 383.033,104.800 382.788 C 104.800 382.544,105.610 382.782,106.600 383.317 C 107.590 383.853,109.205 384.380,110.189 384.490 C 111.735 384.661,113.993 385.297,119.200 387.024 C 119.860 387.243,120.940 387.494,121.600 387.583 C 124.044 387.910,128.460 389.028,130.400 389.812 C 131.500 390.256,133.300 390.724,134.400 390.852 C 142.189 391.760,144.313 392.099,145.045 392.552 C 145.503 392.834,146.805 393.127,147.939 393.201 C 153.236 393.550,162.120 394.552,163.200 394.923 C 164.827 395.482,174.625 396.147,179.854 396.054 C 182.194 396.012,183.938 396.253,183.730 396.589 C 183.523 396.925,190.484 397.200,199.200 397.200 C 207.916 397.200,214.916 396.988,214.756 396.728 C 214.595 396.469,215.800 396.220,217.432 396.174 C 229.395 395.840,239.291 394.930,250.000 393.179 C 254.400 392.459,259.080 391.718,260.400 391.531 C 264.684 390.924,266.756 390.510,269.200 389.772 C 270.520 389.374,272.410 389.112,273.400 389.190 C 274.390 389.268,275.200 388.994,275.200 388.581 C 275.200 388.167,275.717 388.027,276.348 388.269 C 276.980 388.512,277.610 388.446,277.748 388.124 C 278.120 387.257,287.973 384.689,288.849 385.230 C 289.262 385.486,289.600 385.352,289.600 384.934 C 289.600 384.210,291.639 383.487,295.975 382.675 C 297.061 382.472,298.321 381.999,298.775 381.626 C 299.782 380.796,309.841 376.734,310.400 376.931 C 310.620 377.009,312.240 376.164,314.000 375.053 C 315.760 373.942,318.048 372.765,319.086 372.436 C 320.123 372.107,321.664 371.244,322.511 370.519 C 323.359 369.794,324.270 369.321,324.536 369.468 C 324.803 369.616,325.241 369.436,325.511 369.068 C 326.128 368.225,330.988 364.800,331.568 364.800 C 332.104 364.800,333.342 363.710,340.400 357.025 C 343.480 354.108,346.360 351.814,346.800 351.927 C 347.240 352.041,347.344 351.878,347.032 351.565 C 346.488 351.021,350.714 344.130,352.216 343.111 C 352.612 342.841,352.949 342.301,352.964 341.911 C 352.979 341.520,353.368 340.300,353.829 339.200 C 354.289 338.100,354.741 336.930,354.833 336.600 C 354.925 336.270,355.075 335.910,355.167 335.800 C 355.258 335.690,355.421 334.880,355.529 334.000 C 355.637 333.120,356.025 330.960,356.391 329.200 C 358.201 320.509,355.323 307.926,349.987 301.200 C 348.591 299.440,347.302 297.603,347.124 297.118 C 346.781 296.183,339.892 290.462,335.200 287.215 C 333.660 286.149,332.136 284.900,331.812 284.439 C 331.489 283.977,331.219 283.914,331.212 284.298 C 331.206 284.682,330.698 284.579,330.085 284.070 C 329.085 283.241,319.389 278.218,318.400 278.017 C 316.717 277.675,306.716 274.062,306.400 273.681 C 306.180 273.417,305.100 273.075,304.000 272.922 C 302.900 272.769,301.607 272.322,301.126 271.929 C 300.646 271.536,300.025 271.442,299.746 271.721 C 299.467 272.000,298.747 271.820,298.146 271.321 C 297.545 270.822,296.889 270.577,296.689 270.777 C 296.489 270.977,294.362 270.619,291.963 269.980 C 286.438 268.510,271.535 265.828,265.016 265.130 C 262.274 264.837,260.198 264.328,260.401 263.998 C 261.046 262.955,253.257 264.154,251.937 265.302 C 251.242 265.906,250.231 266.400,249.690 266.400 C 249.148 266.400,248.914 266.738,249.170 267.151 C 249.425 267.564,248.996 268.273,248.217 268.727 C 247.438 269.180,246.980 269.576,247.200 269.607 C 247.420 269.638,249.940 269.839,252.800 270.053 C 255.660 270.267,259.260 270.815,260.800 271.269 C 262.340 271.723,265.220 272.269,267.200 272.483 C 269.180 272.697,271.340 273.091,272.000 273.359 C 272.660 273.627,273.869 273.761,274.687 273.658 C 275.689 273.531,275.975 273.793,275.564 274.459 C 275.178 275.083,275.282 275.243,275.848 274.894 C 276.693 274.371,285.861 276.365,287.593 277.449 C 288.037 277.726,289.120 278.066,290.000 278.202 C 294.217 278.857,310.908 286.463,313.570 288.944 C 314.466 289.779,315.200 290.272,315.200 290.039 C 315.200 289.369,318.410 292.064,322.592 296.245 C 324.708 298.360,326.252 300.392,326.024 300.761 C 325.796 301.130,326.184 301.653,326.888 301.923 C 327.640 302.212,327.971 302.922,327.692 303.648 C 327.386 304.447,327.542 304.683,328.135 304.316 C 328.759 303.931,328.908 304.302,328.601 305.476 C 328.334 306.497,328.469 307.005,328.931 306.719 C 330.882 305.513,329.103 318.942,326.788 322.893 C 320.551 333.536,298.394 348.339,285.091 350.751 C 284.128 350.926,282.644 351.441,281.794 351.896 C 280.943 352.351,279.382 352.911,278.324 353.140 C 277.266 353.370,273.852 354.272,270.737 355.146 C 263.221 357.255,246.302 360.615,240.800 361.092 C 238.380 361.301,232.980 361.841,228.800 362.291 C 224.620 362.741,218.320 363.144,214.800 363.187 C 211.280 363.230,207.337 363.407,206.038 363.580 C 204.739 363.753,203.318 363.673,202.879 363.402 C 201.849 362.765,198.151 362.765,197.121 363.402 C 196.682 363.673,195.261 363.738,193.962 363.546 C 192.663 363.354,187.460 363.051,182.400 362.872 C 170.734 362.459,161.654 361.727,159.600 361.033 C 158.720 360.736,157.370 360.585,156.600 360.697 C 155.830 360.809,155.200 360.602,155.200 360.236 C 155.200 359.871,154.030 359.625,152.600 359.689 C 146.966 359.941,113.225 351.576,112.015 349.627 C 111.787 349.260,109.530 348.358,107.000 347.623 C 104.470 346.888,102.400 345.892,102.400 345.410 C 102.400 344.928,102.177 344.757,101.904 345.030 C 101.263 345.670,92.930 341.467,89.919 338.985 C 88.644 337.933,86.970 336.842,86.200 336.561 C 85.430 336.280,84.800 335.679,84.800 335.225 C 84.800 334.771,84.333 334.400,83.762 334.400 C 81.460 334.400,72.302 323.095,73.260 321.435 C 73.588 320.866,73.556 320.673,73.188 321.007 C 72.226 321.880,70.426 316.193,70.412 312.238 C 70.401 309.104,70.832 307.514,73.078 302.400 C 74.377 299.442,79.989 292.800,81.189 292.800 C 81.761 292.800,82.436 292.260,82.689 291.600 C 82.943 290.940,83.701 290.400,84.375 290.400 C 85.049 290.400,85.600 290.076,85.600 289.681 C 85.600 289.046,100.093 281.102,100.600 281.459 C 101.383 282.011,103.994 281.438,103.600 280.800 C 103.136 280.050,104.734 279.646,107.000 279.940 C 107.550 280.012,108.000 279.656,108.000 279.149 C 108.000 278.643,108.540 278.436,109.200 278.689 C 109.860 278.943,110.400 278.780,110.400 278.328 C 110.400 277.876,110.735 277.713,111.145 277.966 C 111.554 278.219,112.131 278.036,112.426 277.559 C 112.721 277.081,113.465 276.884,114.081 277.120 C 114.696 277.357,115.200 277.141,115.200 276.642 C 115.200 276.142,115.399 275.932,115.642 276.176 C 115.886 276.419,117.727 276.124,119.735 275.519 C 121.743 274.915,123.673 274.598,124.025 274.815 C 124.376 275.032,124.784 274.868,124.932 274.450 C 125.240 273.577,135.088 271.837,136.118 272.473 C 136.493 272.705,136.800 272.542,136.800 272.111 C 136.800 271.680,139.230 271.048,142.200 270.706 C 145.170 270.364,147.870 270.021,148.200 269.942 C 148.530 269.864,149.721 269.755,150.847 269.700 C 153.292 269.581,152.954 268.873,148.989 265.803 C 146.278 263.704,145.665 263.550,142.400 264.151 " stroke="none" fill="#2e375a" fill-rule="evenodd"></path></g></svg>