<svg style="display: block;" id="svg" version="1.1" width="1000" height="1000" xmlns="http://www.w3.org/2000/svg" xmlns:xlink="http://www.w3.org/1999/xlink"><g id="svgg"><path id="path0" d="M74.043 14.031 C 66.587 15.504,60.606 22.052,59.581 29.865 C 59.304 31.974,59.207 77.131,59.285 167.800 L 59.400 302.600 60.268 304.221 C 60.745 305.113,61.613 306.060,62.197 306.326 L 63.257 306.809 68.929 295.304 L 74.600 283.800 74.800 157.542 C 74.996 34.093,75.017 31.265,75.762 30.442 L 76.524 29.600 144.693 29.600 L 212.862 29.600 214.031 30.769 L 215.200 31.938 215.200 53.691 L 215.200 75.443 216.193 77.421 C 216.769 78.569,217.807 79.820,218.663 80.400 L 220.140 81.400 239.970 81.600 C 260.715 81.809,261.058 81.840,261.991 83.583 C 262.265 84.094,262.400 104.734,262.400 145.974 L 262.400 207.600 270.200 207.600 L 278.000 207.600 278.000 139.584 C 278.000 73.546,277.978 71.525,277.240 70.084 C 276.006 67.675,228.280 15.430,226.510 14.550 C 224.859 13.730,78.096 13.230,74.043 14.031 M241.948 54.111 C 247.697 60.442,252.400 65.707,252.400 65.811 C 252.400 65.915,247.540 66.000,241.600 66.000 L 230.800 66.000 230.800 53.920 C 230.800 47.046,230.950 42.004,231.148 42.220 C 231.339 42.429,236.199 47.780,241.948 54.111 M94.578 97.954 C 87.889 100.993,87.417 111.056,93.779 114.989 L 95.737 116.200 168.800 116.200 L 241.863 116.200 243.821 114.989 C 250.201 111.045,249.731 101.001,243.022 97.954 C 240.491 96.805,97.109 96.805,94.578 97.954 M21.113 123.821 C 13.676 125.624,6.993 132.211,5.056 139.650 C 4.113 143.271,4.015 366.443,4.955 369.767 C 7.008 377.024,12.588 382.790,20.000 385.315 L 22.600 386.200 88.800 386.297 C 125.210 386.350,189.487 386.260,231.638 386.097 L 308.276 385.800 312.038 383.919 C 316.343 381.767,320.018 378.895,322.323 375.883 C 324.497 373.042,394.539 238.822,395.408 235.831 C 396.915 230.647,395.463 224.730,392.020 222.025 C 388.392 219.175,392.112 219.412,349.100 219.292 L 310.400 219.185 310.400 201.666 C 310.400 182.397,310.269 180.928,308.157 176.505 C 305.333 170.590,297.922 165.244,292.500 165.208 L 291.200 165.200 291.200 192.196 L 291.200 219.192 208.900 219.296 L 126.600 219.400 124.000 220.676 C 116.221 224.496,117.711 221.838,80.000 299.140 L 47.000 366.785 39.200 366.789 C 29.133 366.793,26.428 365.658,24.050 360.429 C 22.966 358.046,23.062 150.834,24.147 148.800 C 27.029 143.400,28.714 142.677,38.900 142.474 L 46.800 142.317 46.800 132.758 L 46.800 123.200 35.100 123.233 C 26.592 123.258,22.776 123.418,21.113 123.821 M94.578 153.154 C 86.965 156.612,87.747 168.631,95.738 171.004 C 98.771 171.905,238.829 171.905,241.862 171.004 C 249.853 168.631,250.635 156.612,243.022 153.154 C 240.491 152.005,97.109 152.005,94.578 153.154 M96.600 207.974 C 85.272 210.732,87.364 226.304,99.167 227.086 L 102.200 227.287 103.136 224.943 C 106.009 217.756,112.501 211.565,119.863 208.992 C 121.282 208.496,122.553 207.980,122.688 207.845 C 123.036 207.497,98.052 207.620,96.600 207.974 " stroke="none" fill="#ffffff" fill-rule="evenodd"></path></g></svg>