<svg style="display: block;" id="svg" version="1.1" width="1000" height="1000" xmlns="http://www.w3.org/2000/svg" xmlns:xlink="http://www.w3.org/1999/xlink"><g id="svgg"><path id="path0" d="M187.000 18.030 C 168.894 18.722,148.998 21.225,131.400 25.027 C 123.932 26.640,114.464 29.003,114.131 29.336 C 114.003 29.463,115.621 36.640,117.725 45.284 C 119.829 53.928,123.387 68.560,125.630 77.800 C 127.874 87.040,129.763 94.663,129.829 94.740 C 129.894 94.818,132.974 94.150,136.674 93.258 C 179.432 82.939,224.375 83.080,265.338 93.661 C 267.944 94.334,270.217 94.730,270.391 94.542 C 270.985 93.898,286.588 29.655,286.236 29.303 C 285.905 28.971,272.698 25.783,266.193 24.465 C 247.594 20.694,231.680 18.806,211.800 18.010 C 200.892 17.574,198.903 17.576,187.000 18.030 M206.400 37.000 L 206.400 44.800 213.600 44.800 L 220.800 44.800 220.800 51.400 L 220.800 58.000 213.600 58.000 L 206.400 58.000 206.400 65.800 L 206.400 73.600 200.200 73.600 L 194.000 73.600 194.000 65.800 L 194.000 58.000 186.600 58.000 L 179.200 58.000 179.200 51.400 L 179.200 44.800 186.600 44.800 L 194.000 44.800 194.000 37.000 L 194.000 29.200 200.200 29.200 L 206.400 29.200 206.400 37.000 M190.200 101.060 C 168.418 102.319,144.519 106.273,126.340 111.627 L 123.680 112.410 123.248 114.905 C 122.088 121.601,121.855 124.391,121.856 131.600 C 121.867 184.382,166.941 223.227,216.000 212.734 C 256.010 204.175,283.369 163.736,278.198 120.798 C 277.098 111.663,277.718 112.511,270.800 110.671 C 243.965 103.533,212.442 99.774,190.200 101.060 M261.607 201.700 C 226.286 234.786,174.797 235.330,140.076 202.983 C 136.344 199.506,136.454 199.497,134.990 203.388 C 131.912 211.566,130.012 222.846,129.884 233.695 C 129.788 241.897,129.397 241.052,133.925 242.427 C 164.872 251.831,181.872 301.480,168.224 342.601 C 164.356 354.256,162.081 357.031,153.878 360.097 C 142.752 364.257,133.008 358.049,133.008 346.800 C 133.008 335.137,143.389 329.052,155.223 333.778 C 155.700 333.968,156.001 333.532,156.509 331.913 C 159.656 321.879,159.382 304.469,155.854 290.400 L 154.600 285.400 150.897 283.890 C 134.381 277.154,113.844 277.132,95.731 283.830 L 91.687 285.325 90.867 288.163 C 87.015 301.492,86.315 316.911,89.012 328.975 C 90.201 334.296,90.054 334.143,93.000 333.100 C 103.654 329.329,113.000 335.731,113.000 346.800 C 113.000 360.908,98.536 366.096,85.626 356.619 C 75.057 348.860,69.935 313.298,75.864 288.832 C 81.570 265.288,96.317 246.726,113.200 241.838 L 115.400 241.201 115.471 234.300 C 115.550 226.655,116.365 218.657,117.769 211.748 C 118.858 206.388,119.150 206.511,113.272 209.868 C 62.858 238.661,27.406 291.106,18.613 349.897 C 16.391 364.754,23.119 376.895,35.800 380.913 L 38.600 381.800 200.200 381.800 L 361.800 381.800 364.985 380.674 C 376.525 376.596,383.416 365.303,381.999 352.793 C 376.790 306.808,349.744 257.802,313.000 227.772 C 304.694 220.984,287.677 209.390,287.005 210.062 C 286.920 210.147,287.188 213.183,287.601 216.808 C 289.994 237.826,289.672 262.134,286.785 278.354 C 286.339 280.858,286.025 282.947,286.087 282.995 C 286.149 283.044,287.463 283.740,289.006 284.542 C 315.621 298.376,306.758 339.948,277.184 339.994 C 245.677 340.043,239.155 291.748,269.459 282.789 L 271.117 282.298 271.951 278.249 C 275.633 260.364,275.702 237.552,272.157 210.828 C 270.862 201.072,271.114 201.653,267.533 200.159 L 264.572 198.923 261.607 201.700 M117.200 256.606 C 115.990 256.937,113.734 257.827,112.186 258.583 C 108.143 260.559,101.523 266.293,104.253 265.454 C 112.582 262.895,128.070 262.727,141.200 265.054 L 142.600 265.302 141.420 264.046 C 135.600 257.849,124.794 254.530,117.200 256.606 M273.235 299.063 C 261.706 303.293,263.952 322.221,276.132 323.478 C 288.930 324.799,293.809 305.520,282.200 299.503 C 280.063 298.395,275.644 298.178,273.235 299.063 " stroke="none" fill="#ffffff" fill-rule="evenodd"></path></g></svg>