<svg style="display: block;" id="svg" version="1.1" width="1000" height="1000" xmlns="http://www.w3.org/2000/svg" xmlns:xlink="http://www.w3.org/1999/xlink"><g id="svgg"><path id="path0" d="M105.106 47.598 C 100.573 48.963,99.600 50.960,99.600 58.895 L 99.600 65.082 92.100 65.323 C 75.049 65.871,70.036 69.391,61.079 87.104 C 58.327 92.547,45.287 118.330,32.102 144.400 C 6.077 195.860,5.519 197.004,4.620 200.819 C 3.549 205.362,3.707 328.325,4.789 332.556 C 7.155 341.809,14.886 349.491,24.250 351.894 C 28.596 353.010,372.007 352.989,376.000 351.873 C 385.547 349.205,393.287 341.397,395.390 332.312 C 395.941 329.929,396.000 322.307,395.906 265.112 L 395.800 200.600 394.889 198.204 C 393.017 193.283,334.644 78.419,332.689 75.807 C 327.244 68.537,320.692 65.743,308.100 65.324 L 300.800 65.081 300.800 59.687 C 300.800 51.684,299.406 48.751,295.086 47.663 C 292.905 47.114,106.925 47.050,105.106 47.598 M285.200 79.200 L 285.200 95.600 200.000 95.600 L 114.800 95.600 114.800 79.200 L 114.800 62.800 200.000 62.800 L 285.200 62.800 285.200 79.200 M99.600 89.165 L 99.600 95.530 93.233 95.665 C 86.898 95.799,86.858 95.806,85.169 97.000 C 81.689 99.459,81.815 98.533,81.690 122.700 L 81.580 144.000 76.290 144.009 C 70.432 144.019,68.749 144.483,66.725 146.650 C 64.857 148.650,64.800 149.191,64.800 165.026 L 64.800 180.000 49.167 180.000 L 33.534 180.000 42.315 162.700 C 47.145 153.185,57.716 132.288,65.805 116.263 C 73.895 100.238,80.943 86.617,81.466 85.994 C 83.643 83.408,85.852 82.800,93.079 82.800 L 99.600 82.800 99.600 89.165 M314.554 83.290 C 318.279 84.397,317.860 83.659,343.075 133.595 C 355.904 159.002,366.400 179.837,366.400 179.895 C 366.400 179.953,359.380 180.000,350.800 180.000 L 335.200 180.000 335.200 164.735 L 335.200 149.470 334.204 147.770 C 332.410 144.710,331.103 144.221,324.300 144.063 L 318.400 143.927 318.391 122.863 C 318.380 95.086,318.615 95.607,306.100 95.602 L 300.800 95.600 300.800 89.200 L 300.800 82.800 306.854 82.800 C 310.464 82.800,313.572 82.998,314.554 83.290 M302.800 127.600 L 302.800 144.000 200.000 144.000 L 97.200 144.000 97.200 127.600 L 97.200 111.200 200.000 111.200 L 302.800 111.200 302.800 127.600 M320.000 169.800 L 320.000 180.000 298.884 180.000 C 267.115 180.000,268.890 179.023,258.386 202.274 L 252.817 214.600 200.084 214.701 L 147.351 214.803 141.376 201.515 C 131.375 179.278,132.719 180.000,101.316 180.000 L 80.400 180.000 80.400 169.800 L 80.400 159.600 200.200 159.600 L 320.000 159.600 320.000 169.800 M126.205 210.135 C 134.327 228.170,136.347 230.543,144.800 231.988 C 149.697 232.824,255.313 232.365,257.860 231.496 C 264.589 229.200,266.437 226.746,273.830 210.293 L 279.719 197.187 325.760 197.293 L 371.800 197.400 373.400 198.265 C 374.280 198.741,375.576 199.731,376.280 200.465 C 378.988 203.291,378.800 198.371,378.796 266.287 L 378.792 327.800 377.853 329.816 C 376.766 332.151,375.142 333.654,372.716 334.569 C 371.143 335.163,356.704 335.208,199.369 335.108 L 27.737 335.000 25.779 333.789 C 24.566 333.039,23.361 331.834,22.611 330.621 L 21.400 328.663 21.290 267.031 C 21.189 210.587,21.235 205.253,21.839 203.658 C 22.956 200.708,25.324 198.510,28.397 197.573 C 28.949 197.405,49.891 197.297,74.935 197.334 L 120.470 197.400 126.205 210.135 M154.400 258.769 C 150.816 259.498,147.401 262.206,145.860 265.540 C 145.024 267.347,145.000 267.864,145.000 283.800 L 145.000 300.200 146.125 302.492 C 147.340 304.965,149.123 306.670,151.988 308.097 L 153.800 309.000 200.000 309.000 L 246.200 309.000 248.473 307.884 C 254.749 304.802,255.000 303.877,255.000 283.800 C 255.000 263.723,254.749 262.798,248.473 259.716 L 246.200 258.600 201.000 258.542 C 176.140 258.510,155.170 258.612,154.400 258.769 M239.600 283.800 L 239.600 293.600 200.000 293.600 L 160.400 293.600 160.400 283.800 L 160.400 274.000 200.000 274.000 L 239.600 274.000 239.600 283.800 " stroke="none" fill="#ffffff" fill-rule="evenodd"></path></g></svg>