<svg style="display: block;" id="svg" version="1.1" width="500" height="500" xmlns="http://www.w3.org/2000/svg" xmlns:xlink="http://www.w3.org/1999/xlink"><g id="svgg"><path id="path0" d="M194.747 3.914 C 195.122 4.522,193.709 4.839,190.247 4.925 C 187.471 4.994,184.300 5.160,183.200 5.295 C 182.100 5.430,179.925 5.681,178.366 5.853 C 176.807 6.025,174.820 6.547,173.951 7.012 C 173.082 7.477,170.972 8.120,169.263 8.441 C 165.865 9.078,154.290 13.582,149.204 16.245 C 147.442 17.168,145.730 17.851,145.400 17.762 C 145.070 17.673,144.800 17.916,144.800 18.303 C 144.800 18.690,143.673 19.473,142.296 20.043 C 140.919 20.614,138.697 22.080,137.359 23.303 C 136.021 24.525,134.572 25.306,134.139 25.039 C 133.701 24.768,133.605 24.962,133.924 25.476 C 134.238 25.984,134.134 26.400,133.693 26.400 C 132.652 26.400,117.600 41.225,117.600 42.250 C 117.600 42.679,116.567 44.136,115.305 45.487 C 114.043 46.838,113.203 48.136,113.439 48.372 C 113.674 48.607,113.447 48.800,112.933 48.800 C 112.420 48.800,112.080 49.070,112.178 49.400 C 112.348 49.976,106.566 60.778,105.647 61.600 C 105.401 61.820,105.180 62.360,105.155 62.800 C 105.061 64.499,103.800 68.000,103.284 68.000 C 102.985 68.000,102.691 68.630,102.631 69.400 C 102.571 70.170,102.083 71.880,101.548 73.200 C 101.012 74.520,100.480 76.140,100.367 76.800 C 100.253 77.460,99.422 81.240,98.521 85.200 C 95.877 96.815,94.002 119.014,95.465 121.381 C 95.733 121.816,95.809 123.308,95.633 124.698 C 95.457 126.087,95.608 127.043,95.967 126.820 C 96.502 126.490,97.270 129.449,98.040 134.800 C 98.103 135.240,98.422 136.213,98.748 136.962 C 99.075 137.711,99.074 138.756,98.747 139.285 C 98.343 139.939,98.492 140.037,99.212 139.592 C 99.965 139.127,100.135 139.295,99.798 140.171 C 99.538 140.850,99.612 141.719,99.964 142.103 C 100.315 142.486,101.413 145.320,102.404 148.400 C 103.395 151.480,104.908 155.574,105.768 157.499 C 106.627 159.423,107.451 161.626,107.599 162.395 C 107.747 163.164,108.804 165.640,109.948 167.897 C 111.091 170.154,111.751 172.006,111.413 172.012 C 111.076 172.019,111.175 172.289,111.633 172.612 C 112.679 173.350,117.600 184.396,117.600 186.007 C 117.600 186.663,117.916 187.200,118.303 187.200 C 119.066 187.200,121.300 192.022,120.990 193.000 C 120.886 193.330,121.136 193.600,121.546 193.600 C 122.428 193.600,123.604 196.734,123.303 198.280 C 123.188 198.874,123.424 199.156,123.830 198.905 C 124.235 198.655,124.981 199.362,125.489 200.476 C 126.114 201.848,126.133 202.329,125.547 201.967 C 125.071 201.673,125.155 202.190,125.733 203.116 C 126.312 204.042,126.981 204.800,127.221 204.800 C 127.462 204.800,129.625 208.850,132.029 213.800 C 134.433 218.750,136.621 222.980,136.890 223.200 C 137.782 223.928,146.783 241.188,146.590 241.800 C 146.485 242.130,146.689 242.400,147.042 242.400 C 147.394 242.400,148.924 244.830,150.442 247.800 C 151.959 250.770,153.560 253.464,154.000 253.788 C 154.440 254.111,154.504 254.381,154.143 254.388 C 153.781 254.394,154.051 254.966,154.743 255.657 C 155.434 256.349,156.000 257.399,156.000 257.990 C 156.000 258.582,156.295 259.187,156.656 259.333 C 157.595 259.715,173.867 287.374,173.867 288.589 C 173.867 289.145,174.044 289.422,174.262 289.205 C 174.710 288.757,180.000 297.271,180.000 298.440 C 180.000 298.858,180.271 299.200,180.601 299.200 C 180.932 299.200,182.093 300.910,183.182 303.000 C 184.270 305.090,185.358 306.980,185.598 307.200 C 186.736 308.242,192.800 318.224,192.800 319.056 C 192.800 319.575,193.099 320.000,193.465 320.000 C 193.831 320.000,195.361 322.149,196.865 324.776 C 200.255 330.696,199.541 330.941,205.052 321.971 C 207.610 317.807,210.062 314.400,210.499 314.400 C 210.937 314.400,211.090 314.069,210.840 313.664 C 210.590 313.260,210.929 312.386,211.593 311.722 C 212.257 311.058,212.800 310.321,212.800 310.086 C 212.800 309.053,220.193 297.600,220.860 297.600 C 221.267 297.600,221.519 297.330,221.421 297.000 C 221.177 296.184,224.786 289.133,226.343 287.381 C 227.034 286.604,228.680 283.888,230.000 281.346 C 231.320 278.804,233.038 276.028,233.817 275.178 C 234.596 274.327,235.221 273.354,235.206 273.016 C 235.190 272.677,236.083 271.018,237.189 269.328 C 238.295 267.639,239.200 265.929,239.200 265.528 C 239.200 265.128,239.560 264.800,240.000 264.800 C 240.440 264.800,240.715 264.530,240.612 264.200 C 240.373 263.440,252.081 242.893,252.959 242.532 C 253.317 242.384,253.405 241.932,253.154 241.526 C 252.904 241.120,253.261 240.573,253.949 240.309 C 254.637 240.045,255.200 239.147,255.200 238.314 C 255.200 237.481,255.560 236.800,256.000 236.800 C 256.440 236.800,256.800 236.279,256.800 235.643 C 256.800 235.006,258.060 232.336,259.600 229.708 C 261.140 227.081,262.400 224.541,262.400 224.065 C 262.400 223.589,262.760 223.200,263.200 223.200 C 263.640 223.200,264.000 222.660,264.000 222.000 C 264.000 221.340,264.420 220.800,264.933 220.800 C 265.447 220.800,265.642 220.575,265.368 220.301 C 264.724 219.658,267.841 213.531,269.517 212.143 C 270.223 211.559,270.427 211.262,269.971 211.482 C 269.515 211.703,272.961 204.169,277.629 194.742 C 282.297 185.314,286.027 177.600,285.918 177.600 C 285.741 177.600,290.055 167.452,293.399 160.000 C 294.861 156.742,294.967 156.416,295.100 154.753 C 295.158 154.025,295.585 153.743,296.124 154.076 C 296.662 154.409,296.831 154.298,296.530 153.810 C 295.971 152.905,298.410 145.373,299.405 144.932 C 299.738 144.784,299.811 144.342,299.568 143.948 C 299.325 143.555,299.567 142.416,300.105 141.417 C 300.644 140.417,301.164 138.880,301.261 138.000 C 301.357 137.120,302.243 132.800,303.229 128.400 C 305.721 117.272,305.308 102.650,302.053 86.755 C 301.507 84.091,301.150 81.301,301.259 80.555 C 301.369 79.810,301.130 79.200,300.729 79.200 C 300.328 79.200,300.058 78.930,300.129 78.600 C 300.200 78.270,299.840 76.987,299.329 75.748 C 298.818 74.509,298.400 73.165,298.400 72.761 C 298.400 72.357,297.001 68.780,295.290 64.813 C 293.580 60.846,292.363 57.600,292.585 57.600 C 292.808 57.600,292.047 56.364,290.895 54.853 C 289.743 53.343,288.800 51.887,288.800 51.619 C 288.800 51.351,287.360 49.182,285.600 46.800 C 283.840 44.418,282.400 42.289,282.400 42.071 C 282.400 41.852,281.590 40.831,280.600 39.802 C 279.610 38.772,277.180 36.146,275.200 33.965 C 273.219 31.784,270.699 29.414,269.600 28.697 C 268.500 27.981,266.660 26.541,265.511 25.497 C 262.939 23.162,262.184 22.677,253.200 17.578 C 245.692 13.317,240.656 11.251,232.147 8.943 C 229.368 8.189,227.334 7.333,227.626 7.040 C 227.919 6.748,227.445 6.695,226.573 6.923 C 225.700 7.151,223.825 6.737,222.405 6.003 C 220.797 5.171,220.054 5.041,220.436 5.658 C 220.829 6.294,220.718 6.444,220.125 6.077 C 219.209 5.511,218.190 5.402,204.400 4.399 C 200.440 4.110,196.525 3.684,195.700 3.452 C 194.732 3.179,194.394 3.343,194.747 3.914 M206.800 75.361 C 209.000 75.828,211.171 76.501,211.625 76.857 C 212.079 77.214,213.382 77.674,214.521 77.881 C 216.873 78.307,220.000 80.083,220.000 80.992 C 220.000 81.327,220.496 81.600,221.102 81.600 C 223.288 81.600,235.172 95.970,233.021 96.012 C 232.679 96.019,232.841 96.305,233.380 96.647 C 233.919 96.989,234.469 97.974,234.603 98.835 C 234.737 99.696,235.151 100.888,235.523 101.485 C 238.305 105.946,235.210 128.800,231.824 128.800 C 231.429 128.800,231.308 129.127,231.554 129.526 C 232.264 130.675,226.168 137.847,221.682 141.140 C 201.731 155.785,171.237 145.661,165.235 122.400 C 165.178 122.180,164.699 120.740,164.170 119.199 C 162.201 113.468,164.914 94.187,167.467 95.765 C 167.897 96.031,167.993 95.836,167.681 95.330 C 165.595 91.956,182.125 77.380,189.103 76.440 C 190.036 76.314,191.340 76.005,192.000 75.753 C 195.741 74.322,201.220 74.177,206.800 75.361 M142.400 264.151 C 140.420 264.515,137.463 264.685,135.829 264.529 C 134.195 264.373,133.044 264.548,133.273 264.918 C 133.501 265.287,132.858 265.611,131.844 265.636 C 126.324 265.777,124.000 266.063,124.000 266.600 C 124.000 266.930,123.730 267.127,123.400 267.038 C 123.070 266.949,121.540 267.118,120.000 267.414 C 114.206 268.527,111.564 269.001,110.386 269.136 C 109.718 269.213,108.818 269.461,108.386 269.687 C 107.954 269.914,106.799 270.036,105.821 269.960 C 104.803 269.880,104.255 270.165,104.540 270.626 C 104.847 271.123,104.233 271.278,102.943 271.032 C 101.791 270.811,101.039 270.939,101.271 271.316 C 101.504 271.692,100.828 272.000,99.770 272.000 C 98.712 272.000,96.715 272.564,95.333 273.254 C 93.951 273.943,92.456 274.282,92.010 274.006 C 91.565 273.731,91.200 273.858,91.200 274.289 C 91.200 274.720,90.116 275.311,88.792 275.602 C 87.468 275.893,85.292 276.675,83.957 277.341 C 82.623 278.007,81.096 278.616,80.565 278.694 C 76.633 279.271,55.892 292.916,53.520 296.486 C 52.904 297.413,51.068 300.157,49.441 302.583 C 47.813 305.010,46.245 307.939,45.956 309.092 C 45.656 310.288,45.064 310.963,44.579 310.663 C 44.040 310.330,43.922 310.644,44.258 311.519 C 44.550 312.279,44.221 313.998,43.528 315.339 C 42.776 316.793,42.650 317.540,43.214 317.192 C 43.891 316.773,43.967 317.032,43.480 318.103 C 40.990 323.584,44.951 338.545,51.336 347.777 C 52.790 349.880,53.894 351.870,53.790 352.200 C 53.685 352.530,53.870 352.713,54.200 352.608 C 54.530 352.502,56.477 354.098,58.526 356.155 C 60.576 358.212,64.428 361.496,67.087 363.454 C 69.746 365.411,71.669 367.265,71.361 367.573 C 71.052 367.881,71.181 368.013,71.646 367.867 C 72.366 367.640,74.582 368.723,81.600 372.733 C 82.260 373.110,84.690 374.241,87.000 375.246 C 89.310 376.251,91.200 377.372,91.200 377.737 C 91.200 378.102,92.121 378.400,93.247 378.400 C 94.607 378.400,95.100 378.714,94.716 379.336 C 94.327 379.965,94.574 380.105,95.469 379.761 C 96.201 379.480,96.800 379.629,96.800 380.092 C 96.800 380.555,97.250 380.773,97.800 380.578 C 98.350 380.382,100.150 380.899,101.800 381.727 C 103.450 382.555,104.800 383.033,104.800 382.788 C 104.800 382.544,105.610 382.782,106.600 383.317 C 107.590 383.853,109.205 384.380,110.189 384.490 C 111.735 384.661,113.993 385.297,119.200 387.024 C 119.860 387.243,120.940 387.494,121.600 387.583 C 124.044 387.910,128.460 389.028,130.400 389.812 C 131.500 390.256,133.300 390.724,134.400 390.852 C 142.189 391.760,144.313 392.099,145.045 392.552 C 145.503 392.834,146.805 393.127,147.939 393.201 C 153.236 393.550,162.120 394.552,163.200 394.923 C 164.827 395.482,174.625 396.147,179.854 396.054 C 182.194 396.012,183.938 396.253,183.730 396.589 C 183.523 396.925,190.484 397.200,199.200 397.200 C 207.916 397.200,214.916 396.988,214.756 396.728 C 214.595 396.469,215.800 396.220,217.432 396.174 C 229.395 395.840,239.291 394.930,250.000 393.179 C 254.400 392.459,259.080 391.718,260.400 391.531 C 264.684 390.924,266.756 390.510,269.200 389.772 C 270.520 389.374,272.410 389.112,273.400 389.190 C 274.390 389.268,275.200 388.994,275.200 388.581 C 275.200 388.167,275.717 388.027,276.348 388.269 C 276.980 388.512,277.610 388.446,277.748 388.124 C 278.120 387.257,287.973 384.689,288.849 385.230 C 289.262 385.486,289.600 385.352,289.600 384.934 C 289.600 384.210,291.639 383.487,295.975 382.675 C 297.061 382.472,298.321 381.999,298.775 381.626 C 299.782 380.796,309.841 376.734,310.400 376.931 C 310.620 377.009,312.240 376.164,314.000 375.053 C 315.760 373.942,318.048 372.765,319.086 372.436 C 320.123 372.107,321.664 371.244,322.511 370.519 C 323.359 369.794,324.270 369.321,324.536 369.468 C 324.803 369.616,325.241 369.436,325.511 369.068 C 326.128 368.225,330.988 364.800,331.568 364.800 C 332.104 364.800,333.342 363.710,340.400 357.025 C 343.480 354.108,346.360 351.814,346.800 351.927 C 347.240 352.041,347.344 351.878,347.032 351.565 C 346.488 351.021,350.714 344.130,352.216 343.111 C 352.612 342.841,352.949 342.301,352.964 341.911 C 352.979 341.520,353.368 340.300,353.829 339.200 C 354.289 338.100,354.741 336.930,354.833 336.600 C 354.925 336.270,355.075 335.910,355.167 335.800 C 355.258 335.690,355.421 334.880,355.529 334.000 C 355.637 333.120,356.025 330.960,356.391 329.200 C 358.201 320.509,355.323 307.926,349.987 301.200 C 348.591 299.440,347.302 297.603,347.124 297.118 C 346.781 296.183,339.892 290.462,335.200 287.215 C 333.660 286.149,332.136 284.900,331.812 284.439 C 331.489 283.977,331.219 283.914,331.212 284.298 C 331.206 284.682,330.698 284.579,330.085 284.070 C 329.085 283.241,319.389 278.218,318.400 278.017 C 316.717 277.675,306.716 274.062,306.400 273.681 C 306.180 273.417,305.100 273.075,304.000 272.922 C 302.900 272.769,301.607 272.322,301.126 271.929 C 300.646 271.536,300.025 271.442,299.746 271.721 C 299.467 272.000,298.747 271.820,298.146 271.321 C 297.545 270.822,296.889 270.577,296.689 270.777 C 296.489 270.977,294.362 270.619,291.963 269.980 C 286.438 268.510,271.535 265.828,265.016 265.130 C 262.274 264.837,260.198 264.328,260.401 263.998 C 261.046 262.955,253.257 264.154,251.937 265.302 C 251.242 265.906,250.231 266.400,249.690 266.400 C 249.148 266.400,248.914 266.738,249.170 267.151 C 249.425 267.564,248.996 268.273,248.217 268.727 C 247.438 269.180,246.980 269.576,247.200 269.607 C 247.420 269.638,249.940 269.839,252.800 270.053 C 255.660 270.267,259.260 270.815,260.800 271.269 C 262.340 271.723,265.220 272.269,267.200 272.483 C 269.180 272.697,271.340 273.091,272.000 273.359 C 272.660 273.627,273.869 273.761,274.687 273.658 C 275.689 273.531,275.975 273.793,275.564 274.459 C 275.178 275.083,275.282 275.243,275.848 274.894 C 276.693 274.371,285.861 276.365,287.593 277.449 C 288.037 277.726,289.120 278.066,290.000 278.202 C 294.217 278.857,310.908 286.463,313.570 288.944 C 314.466 289.779,315.200 290.272,315.200 290.039 C 315.200 289.369,318.410 292.064,322.592 296.245 C 324.708 298.360,326.252 300.392,326.024 300.761 C 325.796 301.130,326.184 301.653,326.888 301.923 C 327.640 302.212,327.971 302.922,327.692 303.648 C 327.386 304.447,327.542 304.683,328.135 304.316 C 328.759 303.931,328.908 304.302,328.601 305.476 C 328.334 306.497,328.469 307.005,328.931 306.719 C 330.882 305.513,329.103 318.942,326.788 322.893 C 320.551 333.536,298.394 348.339,285.091 350.751 C 284.128 350.926,282.644 351.441,281.794 351.896 C 280.943 352.351,279.382 352.911,278.324 353.140 C 277.266 353.370,273.852 354.272,270.737 355.146 C 263.221 357.255,246.302 360.615,240.800 361.092 C 238.380 361.301,232.980 361.841,228.800 362.291 C 224.620 362.741,218.320 363.144,214.800 363.187 C 211.280 363.230,207.337 363.407,206.038 363.580 C 204.739 363.753,203.318 363.673,202.879 363.402 C 201.849 362.765,198.151 362.765,197.121 363.402 C 196.682 363.673,195.261 363.738,193.962 363.546 C 192.663 363.354,187.460 363.051,182.400 362.872 C 170.734 362.459,161.654 361.727,159.600 361.033 C 158.720 360.736,157.370 360.585,156.600 360.697 C 155.830 360.809,155.200 360.602,155.200 360.236 C 155.200 359.871,154.030 359.625,152.600 359.689 C 146.966 359.941,113.225 351.576,112.015 349.627 C 111.787 349.260,109.530 348.358,107.000 347.623 C 104.470 346.888,102.400 345.892,102.400 345.410 C 102.400 344.928,102.177 344.757,101.904 345.030 C 101.263 345.670,92.930 341.467,89.919 338.985 C 88.644 337.933,86.970 336.842,86.200 336.561 C 85.430 336.280,84.800 335.679,84.800 335.225 C 84.800 334.771,84.333 334.400,83.762 334.400 C 81.460 334.400,72.302 323.095,73.260 321.435 C 73.588 320.866,73.556 320.673,73.188 321.007 C 72.226 321.880,70.426 316.193,70.412 312.238 C 70.401 309.104,70.832 307.514,73.078 302.400 C 74.377 299.442,79.989 292.800,81.189 292.800 C 81.761 292.800,82.436 292.260,82.689 291.600 C 82.943 290.940,83.701 290.400,84.375 290.400 C 85.049 290.400,85.600 290.076,85.600 289.681 C 85.600 289.046,100.093 281.102,100.600 281.459 C 101.383 282.011,103.994 281.438,103.600 280.800 C 103.136 280.050,104.734 279.646,107.000 279.940 C 107.550 280.012,108.000 279.656,108.000 279.149 C 108.000 278.643,108.540 278.436,109.200 278.689 C 109.860 278.943,110.400 278.780,110.400 278.328 C 110.400 277.876,110.735 277.713,111.145 277.966 C 111.554 278.219,112.131 278.036,112.426 277.559 C 112.721 277.081,113.465 276.884,114.081 277.120 C 114.696 277.357,115.200 277.141,115.200 276.642 C 115.200 276.142,115.399 275.932,115.642 276.176 C 115.886 276.419,117.727 276.124,119.735 275.519 C 121.743 274.915,123.673 274.598,124.025 274.815 C 124.376 275.032,124.784 274.868,124.932 274.450 C 125.240 273.577,135.088 271.837,136.118 272.473 C 136.493 272.705,136.800 272.542,136.800 272.111 C 136.800 271.680,139.230 271.048,142.200 270.706 C 145.170 270.364,147.870 270.021,148.200 269.942 C 148.530 269.864,149.721 269.755,150.847 269.700 C 153.292 269.581,152.954 268.873,148.989 265.803 C 146.278 263.704,145.665 263.550,142.400 264.151 " stroke="none" fill="#2e375a" fill-rule="evenodd"></path></g></svg>