<svg style="display: block;" id="svg" version="1.1" width="500" height="617" xmlns="http://www.w3.org/2000/svg" xmlns:xlink="http://www.w3.org/1999/xlink"><g id="svgg"><path id="path0" d="M136.400 1.910 C 125.571 7.039,120.621 14.423,120.118 26.200 L 119.836 32.800 96.096 32.800 C 69.587 32.800,69.539 32.809,68.036 38.224 C 67.532 40.038,67.207 53.450,67.204 72.565 L 67.200 103.930 35.530 104.165 L 3.860 104.400 1.930 106.645 L 0.000 108.889 -0.000 259.569 L -0.000 410.249 2.858 413.724 C 4.430 415.636,8.480 420.028,11.858 423.484 C 27.279 439.261,30.757 442.876,42.400 455.223 C 49.220 462.456,58.075 471.672,62.077 475.702 C 66.079 479.733,70.708 484.683,72.364 486.704 C 78.642 494.365,65.169 493.600,193.857 493.600 C 275.165 493.600,307.675 493.349,309.074 492.712 C 312.450 491.174,312.800 489.036,312.800 469.962 L 312.800 452.000 354.436 452.000 L 396.073 452.000 398.036 450.036 L 400.000 448.073 400.000 242.400 L 400.000 36.727 398.036 34.764 L 396.073 32.800 302.554 32.800 L 209.035 32.800 208.536 26.902 C 207.598 15.803,200.175 5.176,190.948 1.724 C 183.556 -1.041,142.335 -0.901,136.400 1.910 M185.407 18.396 C 189.120 20.660,191.193 24.457,191.197 29.000 L 191.200 32.800 163.600 32.800 L 136.000 32.800 136.018 29.800 C 136.047 24.701,138.650 20.171,142.573 18.391 C 147.832 16.004,181.491 16.008,185.407 18.396 M120.000 76.800 L 120.000 104.000 102.000 104.000 L 84.000 104.000 84.000 76.800 L 84.000 49.600 102.000 49.600 L 120.000 49.600 120.000 76.800 M384.000 242.400 L 384.000 435.200 348.400 435.200 L 312.800 435.200 312.800 272.838 C 312.800 153.358,312.560 109.949,311.891 108.481 C 309.843 103.986,310.049 104.000,246.384 104.000 L 188.000 104.000 188.000 83.245 C 188.000 58.572,187.848 58.092,180.000 58.092 C 172.152 58.092,172.000 58.572,172.000 83.245 L 172.000 104.000 154.000 104.000 L 136.000 104.000 136.000 76.800 L 136.000 49.600 260.000 49.600 L 384.000 49.600 384.000 242.400 M120.000 139.974 L 120.000 158.347 87.930 158.574 L 55.860 158.800 53.930 161.045 C 50.990 164.463,51.186 170.509,54.338 173.662 L 56.677 176.000 88.646 176.000 L 120.614 176.000 122.360 180.301 C 124.587 185.788,127.875 189.322,134.400 193.240 L 139.600 196.363 152.525 196.649 L 165.449 196.935 170.774 194.471 C 177.340 191.432,183.874 185.085,185.674 180.000 L 186.948 176.400 223.456 176.000 L 259.965 175.600 262.123 173.441 C 265.289 170.275,265.318 164.157,262.183 161.019 L 259.965 158.800 223.983 158.569 L 188.000 158.338 188.000 139.969 L 188.000 121.600 241.600 121.600 L 295.200 121.600 295.200 299.200 L 295.200 476.800 193.600 476.800 L 92.000 476.800 92.000 439.538 L 92.000 402.277 89.662 399.938 L 87.323 397.600 51.662 397.600 L 16.000 397.600 16.000 259.600 L 16.000 121.600 68.000 121.600 L 120.000 121.600 120.000 139.974 M172.000 140.000 L 172.000 158.400 154.000 158.400 L 136.000 158.400 136.000 140.000 L 136.000 121.600 154.000 121.600 L 172.000 121.600 172.000 140.000 M164.800 177.600 C 159.921 180.271,140.800 179.348,140.800 176.441 C 140.800 176.198,146.830 176.015,154.200 176.034 L 167.600 176.067 164.800 177.600 M54.461 227.671 C 51.113 230.488,50.847 237.320,53.964 240.436 L 55.927 242.400 157.856 242.400 C 258.272 242.400,259.814 242.376,261.800 240.814 C 265.878 237.606,265.256 229.104,260.773 226.786 C 258.782 225.756,245.192 225.600,157.701 225.600 L 56.923 225.600 54.461 227.671 M53.964 294.764 C 51.141 297.586,51.140 304.439,53.962 307.483 L 55.924 309.600 157.784 309.600 C 270.389 309.600,262.152 309.999,263.984 304.450 C 264.644 302.448,264.655 300.831,264.022 298.481 C 262.362 292.318,271.376 292.800,157.786 292.800 L 55.927 292.800 53.964 294.764 M57.084 359.748 C 51.548 360.850,50.074 370.394,54.757 374.811 L 57.714 377.600 157.539 377.600 L 257.363 377.600 260.082 375.770 C 265.247 372.293,266.059 366.483,262.034 361.803 L 260.139 359.600 159.469 359.503 C 104.101 359.449,58.028 359.560,57.084 359.748 M75.177 439.400 L 75.153 464.400 72.655 461.600 C 70.240 458.894,58.474 446.595,42.426 430.000 C 38.171 425.600,33.139 420.290,31.243 418.200 L 27.796 414.400 51.498 414.400 L 75.200 414.400 75.177 439.400 " stroke="none" fill="#000000" fill-rule="evenodd"></path></g></svg>