<svg style="display: block;" id="svg" version="1.1" width="512" height="512" xmlns="http://www.w3.org/2000/svg" xmlns:xlink="http://www.w3.org/1999/xlink"><g id="svgg"><path id="path0" d="M183.984 1.259 C 138.630 7.924,121.875 30.452,121.875 84.768 L 121.875 104.417 119.578 104.080 C 111.594 102.908,111.108 119.626,118.491 141.406 C 123.157 155.171,126.474 160.156,130.965 160.156 C 132.658 160.156,132.813 160.479,132.813 164.006 C 132.813 185.453,142.332 208.271,156.376 220.486 L 161.040 224.542 160.531 244.498 L 160.022 264.453 165.363 268.222 C 189.282 285.100,214.105 284.908,236.007 267.673 L 240.372 264.238 240.887 250.674 C 241.170 243.213,241.403 233.692,241.404 229.516 C 241.406 221.975,241.423 221.910,243.765 220.178 C 255.856 211.239,264.411 190.917,266.815 165.430 C 267.246 160.856,267.518 160.156,268.864 160.156 C 275.846 160.156,284.631 137.805,286.382 115.584 C 287.028 107.393,285.308 104.307,280.178 104.453 L 277.344 104.533 277.344 85.135 C 277.344 33.325,263.218 11.567,223.828 2.707 C 218.494 1.507,189.473 0.453,183.984 1.259 M311.088 257.869 C 267.771 263.493,242.528 311.635,262.167 351.172 C 287.063 401.294,360.413 398.265,380.788 346.275 C 398.999 299.807,360.842 251.410,311.088 257.869 M128.516 275.863 C 124.648 278.054,108.301 287.060,92.188 295.876 C 26.680 331.718,11.311 340.529,7.109 344.656 C 1.771 349.898,1.599 350.885,1.580 376.367 L 1.563 399.219 95.313 399.219 C 146.875 399.219,189.063 399.035,189.063 398.809 C 189.063 398.584,185.607 393.223,181.384 386.895 C 160.423 355.489,149.128 328.043,141.446 289.844 C 137.192 268.690,138.561 270.171,128.516 275.863 M333.897 277.148 C 334.132 278.330,334.298 284.307,334.267 290.430 L 334.209 301.563 320.620 301.563 L 307.031 301.563 307.031 288.281 L 307.031 275.000 320.250 275.000 L 333.470 275.000 333.897 277.148 M347.656 317.578 L 347.656 321.875 341.016 321.875 L 334.375 321.875 334.375 339.063 L 334.375 356.250 340.143 356.250 C 346.439 356.250,346.838 356.586,346.864 361.914 L 346.875 364.063 319.922 364.063 L 292.969 364.063 292.969 360.186 L 292.969 356.309 300.195 356.084 L 307.422 355.859 307.632 338.867 L 307.843 321.875 300.796 321.875 L 293.750 321.875 293.750 317.578 L 293.750 313.281 320.703 313.281 L 347.656 313.281 347.656 317.578 M235.831 356.445 C 231.180 365.762,225.014 376.469,219.630 384.585 C 214.849 391.790,210.938 398.030,210.938 398.452 C 210.938 398.946,229.332 399.219,262.630 399.219 C 291.061 399.219,314.162 399.058,313.965 398.860 C 313.768 398.663,310.984 398.099,307.780 397.606 C 280.785 393.453,261.240 378.287,249.197 352.148 C 246.474 346.240,244.043 341.406,243.794 341.406 C 243.545 341.406,239.962 348.174,235.831 356.445 M389.083 354.799 C 382.586 368.063,373.671 378.345,362.234 385.763 C 352.184 392.282,345.665 394.679,328.125 398.304 C 325.745 398.796,336.563 399.061,361.606 399.125 L 398.603 399.219 398.273 384.180 C 397.946 369.326,395.126 346.875,393.587 346.875 C 393.244 346.875,391.218 350.441,389.083 354.799 " stroke="none" fill="#000000" fill-rule="evenodd"></path></g></svg>