<svg style="display: block;" id="svg" version="1.1" width="1000" height="1000" xmlns="http://www.w3.org/2000/svg" xmlns:xlink="http://www.w3.org/1999/xlink"><g id="svgg"><path id="path0" d="M88.534 5.792 C 71.362 8.908,57.687 23.200,55.218 40.609 C 54.886 42.951,54.797 85.898,54.883 202.000 L 55.000 360.200 56.095 364.171 C 60.778 381.156,74.510 392.997,91.600 394.788 C 96.691 395.321,303.093 395.326,308.578 394.793 C 325.898 393.109,339.481 381.293,344.449 363.589 L 345.400 360.200 345.505 231.753 L 345.610 103.305 297.363 54.253 L 249.116 5.200 170.258 5.236 C 107.409 5.265,90.818 5.378,88.534 5.792 M239.600 60.074 C 239.600 92.755,239.528 91.788,242.410 97.800 C 246.006 105.301,252.608 110.784,260.800 113.073 C 263.221 113.750,265.337 113.791,291.500 113.673 C 306.955 113.603,319.613 113.603,319.628 113.673 C 319.959 115.152,320.278 354.740,319.952 356.400 C 318.999 361.243,315.401 365.788,310.800 367.961 L 308.600 369.000 200.192 369.000 L 91.783 369.000 89.150 367.703 C 85.867 366.087,83.172 363.274,81.474 359.689 L 80.200 357.000 80.097 201.220 C 79.985 30.464,79.817 43.031,82.274 38.837 C 84.520 35.005,88.889 31.919,93.060 31.220 C 94.127 31.041,127.535 30.873,167.300 30.847 L 239.600 30.800 239.600 60.074 M106.572 51.748 C 100.601 54.542,100.757 53.387,100.889 93.840 C 101.014 132.075,100.770 129.121,104.065 132.280 C 106.826 134.926,104.931 134.800,141.841 134.800 C 181.198 134.800,179.874 134.982,182.350 129.228 L 183.213 127.222 183.106 92.279 L 183.000 57.337 181.789 55.379 C 181.039 54.166,179.834 52.961,178.621 52.211 L 176.663 51.000 142.632 50.899 L 108.600 50.798 106.572 51.748 M164.000 92.800 L 164.000 114.800 142.200 114.800 L 120.400 114.800 120.400 92.800 L 120.400 70.800 142.200 70.800 L 164.000 70.800 164.000 92.800 M107.451 158.583 C 105.187 159.396,103.142 161.217,102.002 163.432 L 101.000 165.379 101.000 200.189 L 101.000 235.000 101.865 236.600 C 102.982 238.666,105.011 240.597,106.887 241.380 C 109.567 242.497,175.533 242.298,177.873 241.165 C 179.986 240.142,182.114 237.731,182.736 235.657 C 183.621 232.702,183.356 165.781,182.452 163.800 C 181.578 161.888,179.626 159.906,177.643 158.919 C 175.678 157.940,110.112 157.626,107.451 158.583 M164.000 200.200 L 164.000 222.400 142.200 222.400 L 120.400 222.400 120.400 200.200 L 120.400 178.000 142.200 178.000 L 164.000 178.000 164.000 200.200 M107.468 265.849 C 106.218 266.233,104.919 267.060,103.788 268.191 C 100.644 271.335,100.763 269.690,100.889 308.240 C 101.039 354.145,97.469 349.346,131.600 349.518 C 144.470 349.583,156.800 349.583,159.000 349.518 L 163.000 349.400 160.786 348.120 C 159.339 347.283,155.602 343.852,150.001 338.220 L 141.430 329.600 130.915 329.600 L 120.400 329.600 120.400 307.400 L 120.400 285.200 142.200 285.200 L 164.000 285.200 164.000 291.711 L 164.000 298.221 166.710 300.911 C 170.147 304.321,169.238 304.690,176.740 296.839 L 183.200 290.077 183.191 281.339 C 183.180 270.186,181.786 267.048,176.220 265.647 C 173.246 264.898,109.957 265.084,107.468 265.849 M210.400 276.863 C 209.331 277.190,204.361 281.972,189.400 297.068 L 169.800 316.844 162.000 308.994 C 154.014 300.957,152.664 299.906,149.688 299.411 C 142.084 298.144,135.962 306.824,139.600 313.714 C 140.913 316.201,163.054 338.894,165.349 340.105 C 167.646 341.317,171.942 341.323,174.226 340.118 C 175.823 339.275,220.568 293.984,222.078 291.681 C 227.011 284.162,219.146 274.182,210.400 276.863 " stroke="none" fill="#ffffff" fill-rule="evenodd"></path></g></svg>