<svg style="display: block;" id="svg" version="1.1" width="1000" height="1000" xmlns="http://www.w3.org/2000/svg" xmlns:xlink="http://www.w3.org/1999/xlink"><g id="svgg"><path id="path0" d="M192.456 21.544 C 191.914 22.086,191.260 24.656,190.037 31.044 C 189.115 35.860,187.796 42.626,187.107 46.081 C 185.661 53.329,185.761 54.068,188.280 54.783 C 206.452 59.937,235.148 59.937,253.320 54.783 C 255.820 54.073,255.880 53.479,254.272 45.347 C 253.495 41.416,252.185 34.720,251.361 30.467 C 249.343 20.045,249.402 20.108,243.115 21.572 C 229.723 24.692,211.749 24.695,198.468 21.581 C 194.330 20.611,193.395 20.605,192.456 21.544 M225.200 34.200 L 225.200 36.400 227.400 36.400 L 229.600 36.400 229.600 40.800 L 229.600 45.200 227.400 45.200 L 225.200 45.200 225.200 47.200 L 225.200 49.200 220.600 49.200 L 216.000 49.200 216.000 47.200 L 216.000 45.200 214.000 45.200 L 212.000 45.200 212.000 40.800 L 212.000 36.400 214.000 36.400 L 216.000 36.400 216.000 34.200 L 216.000 32.000 220.600 32.000 L 225.200 32.000 225.200 34.200 M186.452 66.511 C 177.552 96.492,211.302 121.771,239.083 105.932 C 253.048 97.970,260.308 78.801,254.602 64.959 L 254.090 63.717 248.545 64.860 C 228.788 68.932,202.894 68.472,187.961 63.785 C 187.461 63.628,187.131 64.224,186.452 66.511 M184.600 118.423 C 181.474 119.438,178.741 121.489,177.037 124.102 C 176.069 125.586,139.296 190.371,125.750 214.457 C 125.618 214.692,151.921 229.200,152.478 229.200 C 152.611 229.200,157.193 221.298,162.660 211.640 C 168.127 201.982,172.626 194.107,172.658 194.140 C 172.689 194.173,170.679 203.469,168.190 214.799 C 165.700 226.128,163.695 235.423,163.732 235.455 C 163.769 235.486,172.440 240.202,183.000 245.933 L 202.200 256.354 238.200 246.991 C 258.000 241.841,275.055 237.508,276.100 237.362 C 278.459 237.033,279.011 240.830,271.828 208.005 C 268.434 192.497,265.703 179.764,265.758 179.709 C 265.813 179.654,268.234 183.011,271.137 187.169 C 279.525 199.184,284.465 201.863,293.200 199.132 C 296.656 198.052,336.918 175.803,339.201 173.713 C 347.508 166.103,344.138 152.045,333.300 149.097 C 332.365 148.842,331.600 148.426,331.600 148.171 C 331.600 146.621,328.568 141.875,326.107 139.573 C 312.555 126.895,289.985 136.036,289.828 154.267 C 289.792 158.490,289.466 158.410,295.698 155.722 C 301.046 153.417,301.088 153.389,301.515 151.799 C 304.448 140.863,321.361 143.079,321.373 154.400 C 321.381 161.639,313.605 166.654,307.289 163.482 L 305.288 162.477 288.144 169.865 C 278.715 173.928,269.683 177.688,268.073 178.219 C 245.688 185.604,222.760 173.051,217.806 150.697 C 217.187 147.905,217.013 147.572,216.059 147.364 C 202.794 144.469,193.131 133.847,192.150 121.082 L 191.882 117.600 189.441 117.622 C 188.098 117.635,185.920 117.995,184.600 118.423 M202.507 120.500 C 203.638 135.242,220.463 142.842,233.176 134.352 C 237.678 131.346,240.662 126.126,241.093 120.500 L 241.315 117.600 221.800 117.600 L 202.285 117.600 202.507 120.500 M251.600 119.309 C 251.600 131.602,241.720 144.035,229.679 146.896 C 227.274 147.467,227.293 147.387,228.586 151.479 C 232.836 164.933,247.955 173.199,261.874 169.680 C 264.831 168.932,287.320 159.624,288.151 158.804 C 288.547 158.413,264.616 123.843,262.449 121.676 C 260.629 119.856,256.592 118.003,253.824 117.718 L 251.600 117.488 251.600 119.309 M45.800 153.631 C 19.790 157.068,7.113 187.264,23.315 207.190 C 41.648 229.735,78.891 220.813,84.218 192.600 C 88.388 170.515,68.753 150.598,45.800 153.631 M86.400 217.771 C 61.160 223.381,53.851 254.812,74.318 269.730 C 75.852 270.849,175.624 325.364,182.683 328.941 C 186.715 330.984,190.492 331.775,196.200 331.770 L 201.400 331.766 242.654 321.032 L 283.908 310.298 320.654 322.392 C 366.073 337.339,365.843 337.290,375.453 334.071 C 400.992 325.514,403.238 290.680,378.943 279.934 C 377.023 279.084,299.472 253.480,293.738 251.802 C 285.160 249.293,286.378 249.082,239.702 261.165 C 218.383 266.684,200.706 271.200,200.418 271.200 C 200.130 271.200,178.813 259.732,153.047 245.715 C 127.281 231.698,105.158 219.808,103.884 219.293 C 99.027 217.327,91.389 216.662,86.400 217.771 M18.600 258.543 C 5.580 261.983,0.032 276.618,7.758 287.142 C 10.155 290.409,9.044 289.761,87.632 333.637 C 168.895 379.006,167.350 378.172,171.200 378.782 C 174.638 379.327,368.141 379.336,372.400 378.792 C 392.393 376.237,394.112 348.099,374.586 343.013 C 372.503 342.470,361.150 342.400,275.835 342.400 L 179.438 342.400 105.826 301.316 C 65.340 278.720,31.163 259.807,29.878 259.288 C 26.982 258.119,21.561 257.760,18.600 258.543 " stroke="none" fill="#ffffff" fill-rule="evenodd"></path></g></svg>