<svg style="display: block;" id="svg" version="1.1" width="1000" height="1000" xmlns="http://www.w3.org/2000/svg" xmlns:xlink="http://www.w3.org/1999/xlink"><g id="svgg"><path id="path0" d="M100.600 3.827 C 100.160 3.926,98.810 4.201,97.600 4.438 C 91.529 5.625,84.573 10.784,81.741 16.200 C 78.802 21.821,8.778 177.618,8.217 179.784 C 5.695 189.523,10.392 201.214,18.861 206.279 C 24.087 209.405,63.962 226.000,66.247 226.000 C 69.899 226.000,72.895 223.992,73.946 220.840 C 74.271 219.867,74.400 209.281,74.400 183.593 C 74.400 144.262,74.398 144.307,76.808 137.113 C 81.404 123.395,92.427 112.411,106.257 107.768 C 113.716 105.264,105.300 105.460,215.618 105.220 C 310.762 105.012,316.294 104.962,317.309 104.296 C 320.781 102.022,320.278 96.771,316.400 94.805 C 312.696 92.928,111.926 5.202,110.097 4.662 C 107.936 4.024,102.025 3.504,100.600 3.827 M114.713 127.421 C 106.014 129.530,99.068 136.530,96.774 145.502 C 95.721 149.618,95.558 323.627,96.602 328.600 C 98.498 337.632,106.364 345.478,115.452 347.404 C 117.623 347.864,122.008 347.988,136.343 347.993 L 154.487 348.000 154.258 347.087 C 152.782 341.206,153.021 322.370,154.639 317.100 C 154.841 316.443,154.030 316.400,141.427 316.400 L 128.000 316.400 128.000 275.400 L 128.000 234.400 244.200 234.400 L 360.400 234.400 360.400 275.400 L 360.400 316.400 346.973 316.400 C 334.368 316.400,333.560 316.443,333.767 317.100 C 335.339 322.091,335.576 340.117,334.160 346.925 L 333.926 348.049 353.063 347.906 C 374.288 347.746,373.762 347.806,379.268 344.929 C 384.718 342.081,388.922 337.121,391.075 331.000 L 392.200 327.800 392.305 238.499 C 392.422 139.656,392.587 146.174,389.822 140.600 C 386.513 133.928,379.907 128.721,372.880 127.245 C 369.407 126.516,117.739 126.687,114.713 127.421 M360.400 170.800 L 360.400 183.600 244.200 183.600 L 128.000 183.600 128.000 170.800 L 128.000 158.000 244.200 158.000 L 360.400 158.000 360.400 170.800 M239.072 270.022 C 185.309 273.923,160.587 339.449,198.570 377.377 C 237.250 416.002,303.075 392.323,308.032 338.001 C 311.093 304.456,284.344 272.660,251.000 270.211 C 244.499 269.733,243.310 269.715,239.072 270.022 M248.918 290.732 C 249.316 291.062,249.598 292.441,249.789 294.991 C 250.115 299.334,250.146 299.375,253.582 299.997 C 257.228 300.658,262.156 302.274,263.263 303.172 L 264.200 303.934 263.272 307.467 C 262.761 309.410,261.997 311.786,261.573 312.747 C 260.684 314.765,260.943 314.764,255.400 312.769 C 247.400 309.891,238.743 311.306,237.789 315.648 C 236.859 319.882,238.930 321.765,249.372 326.183 C 259.172 330.330,263.173 333.759,265.498 340.007 C 269.236 350.052,263.128 361.165,252.073 364.433 C 249.559 365.175,249.200 365.921,249.200 370.400 C 249.200 375.859,249.067 376.000,243.909 376.000 C 238.530 376.000,238.400 375.883,238.400 371.014 C 238.400 366.408,238.261 366.231,234.000 365.408 C 222.125 363.114,221.013 361.969,223.320 354.405 C 224.820 349.490,224.856 349.469,228.734 351.171 C 239.332 355.822,250.306 354.573,251.429 348.588 C 252.310 343.892,250.124 341.724,240.600 337.848 C 228.190 332.797,223.162 327.867,222.539 320.138 C 221.857 311.679,226.255 305.196,235.250 301.402 C 239.269 299.708,239.186 299.834,239.194 295.376 C 239.200 291.756,239.511 290.765,240.800 290.254 C 241.850 289.839,248.299 290.218,248.918 290.732 " stroke="none" fill="#ffffff" fill-rule="evenodd"></path></g></svg>