<svg style="display: block;" id="svg" version="1.1" width="500" height="500" xmlns="http://www.w3.org/2000/svg" xmlns:xlink="http://www.w3.org/1999/xlink"><g id="svgg"><path id="path0" d="M44.410 150.891 C 10.118 159.181,-5.118 201.008,15.586 230.022 C 37.610 260.886,85.538 257.023,102.379 223.026 C 121.580 184.266,86.569 140.700,44.410 150.891 M196.000 150.857 C 157.874 160.834,144.789 208.089,172.400 236.083 C 204.140 268.265,259.262 245.622,259.188 200.432 C 259.134 167.263,227.661 142.571,196.000 150.857 M330.853 150.881 C 292.865 160.070,279.517 208.187,307.219 236.076 C 339.284 268.356,394.108 245.536,393.888 200.000 C 393.729 167.070,362.981 143.110,330.853 150.881 " stroke="none" fill="#2e375a" fill-rule="evenodd"></path></g></svg>