<svg style="display: block;" id="svg" version="1.1" width="1000" height="1000" xmlns="http://www.w3.org/2000/svg" xmlns:xlink="http://www.w3.org/1999/xlink"><g id="svgg"><path id="path0" d="M77.938 4.595 C 77.862 4.670,76.990 4.847,76.000 4.988 C 75.010 5.129,73.248 5.594,72.085 6.022 C 70.922 6.450,69.617 6.800,69.185 6.800 C 68.753 6.800,68.400 6.991,68.400 7.224 C 68.400 7.457,68.220 7.536,68.000 7.400 C 67.780 7.264,67.600 7.354,67.600 7.600 C 67.600 7.846,67.420 7.936,67.200 7.800 C 66.980 7.664,66.800 7.754,66.800 8.000 C 66.800 8.246,66.620 8.336,66.400 8.200 C 66.180 8.064,66.000 8.143,66.000 8.376 C 66.000 8.609,65.865 8.760,65.700 8.711 C 65.377 8.615,63.334 9.870,62.471 10.695 C 62.181 10.973,61.804 11.200,61.633 11.200 C 60.620 11.200,53.830 18.759,52.756 21.083 C 52.327 22.009,51.802 22.875,51.589 23.007 C 51.375 23.139,51.200 23.575,51.200 23.975 C 51.200 24.375,50.930 24.926,50.600 25.200 C 50.270 25.474,50.000 26.045,50.000 26.469 C 50.000 26.893,49.751 27.726,49.446 28.320 C 49.141 28.914,48.786 30.120,48.657 31.000 C 48.528 31.880,48.308 33.050,48.169 33.600 C 47.830 34.939,47.638 42.496,47.931 42.993 C 48.058 43.209,48.193 43.659,48.231 43.993 C 48.269 44.327,48.518 45.500,48.785 46.600 C 49.051 47.700,49.350 49.024,49.450 49.542 C 49.929 52.034,53.544 58.697,55.585 60.849 C 55.923 61.205,56.802 62.240,57.538 63.149 C 58.273 64.057,58.998 64.725,59.149 64.632 C 59.299 64.539,60.118 65.163,60.969 66.019 C 61.820 66.875,62.670 67.480,62.858 67.364 C 63.046 67.248,63.200 67.347,63.200 67.585 C 63.200 67.823,63.695 68.235,64.300 68.500 C 64.905 68.766,65.490 69.086,65.600 69.210 C 65.945 69.601,70.800 71.589,70.800 71.340 C 70.800 71.209,71.025 71.283,71.300 71.504 C 71.762 71.876,74.200 72.486,77.600 73.080 C 83.028 74.028,92.093 72.575,96.800 70.002 C 97.570 69.581,98.965 68.875,99.900 68.433 C 100.835 67.990,101.600 67.481,101.600 67.300 C 101.600 67.120,102.185 66.632,102.900 66.216 C 104.040 65.553,105.591 64.069,108.976 60.400 C 109.483 59.850,110.216 58.770,110.605 58.000 C 110.994 57.230,111.422 56.510,111.556 56.400 C 112.006 56.032,113.893 51.824,114.606 49.600 C 114.994 48.390,115.403 47.130,115.516 46.800 C 116.296 44.510,116.450 35.046,115.754 32.199 C 115.432 30.880,115.077 29.371,114.966 28.846 C 114.855 28.321,114.498 27.376,114.172 26.746 C 113.846 26.116,113.702 25.600,113.852 25.600 C 114.001 25.600,113.869 25.285,113.558 24.900 C 112.621 23.742,111.532 21.600,111.877 21.594 C 112.055 21.591,112.011 21.456,111.779 21.294 C 111.548 21.132,110.743 20.100,109.990 19.000 C 108.283 16.505,101.651 10.000,100.814 10.000 C 100.618 10.000,100.219 9.775,99.929 9.499 C 99.638 9.224,98.680 8.654,97.800 8.235 C 96.920 7.815,95.526 7.129,94.702 6.711 C 93.878 6.293,93.023 6.062,92.802 6.199 C 92.581 6.335,92.400 6.280,92.400 6.075 C 92.400 5.870,91.635 5.559,90.700 5.384 C 89.765 5.209,88.640 4.993,88.200 4.904 C 87.146 4.690,78.116 4.418,77.938 4.595 M286.197 4.737 C 286.094 4.839,285.603 4.958,285.105 5.001 C 284.607 5.044,283.930 5.183,283.600 5.309 C 283.270 5.434,281.740 5.939,280.200 6.430 C 278.660 6.922,276.995 7.586,276.500 7.908 C 276.005 8.229,275.600 8.377,275.600 8.237 C 275.600 7.933,273.781 9.073,272.468 10.200 C 271.955 10.640,271.415 11.001,271.268 11.003 C 270.594 11.010,263.600 17.808,263.600 18.456 C 263.600 18.614,263.375 18.988,263.100 19.288 C 262.159 20.315,260.297 23.667,260.224 24.467 C 260.211 24.613,260.065 24.868,259.900 25.033 C 259.735 25.198,259.600 25.663,259.600 26.067 C 259.600 26.470,259.401 26.800,259.157 26.800 C 258.914 26.800,258.818 27.070,258.945 27.400 C 259.071 27.730,258.981 28.000,258.745 28.000 C 258.508 28.000,258.400 28.225,258.505 28.500 C 258.609 28.775,258.512 29.450,258.288 30.000 C 257.236 32.584,256.743 39.868,257.375 43.460 C 257.497 44.153,257.694 45.492,257.813 46.436 C 257.932 47.380,258.181 48.343,258.368 48.576 C 258.555 48.809,258.831 49.577,258.982 50.283 C 259.316 51.846,260.668 54.746,261.508 55.700 C 261.847 56.085,261.961 56.403,261.762 56.406 C 261.563 56.409,261.592 56.544,261.826 56.706 C 262.061 56.868,262.854 57.883,263.588 58.962 C 264.322 60.040,265.210 61.228,265.562 61.601 C 265.913 61.975,266.490 62.622,266.845 63.040 C 267.200 63.458,268.080 64.250,268.800 64.800 C 269.520 65.350,270.670 66.250,271.356 66.800 C 272.895 68.034,273.612 68.464,276.400 69.820 C 277.610 70.408,278.952 71.074,279.382 71.299 C 280.223 71.740,283.999 72.656,286.600 73.050 C 288.645 73.360,294.069 73.341,296.400 73.015 C 299.158 72.630,299.100 72.645,302.000 71.633 C 302.770 71.364,303.586 71.107,303.814 71.061 C 304.394 70.945,308.957 68.714,309.200 68.428 C 309.310 68.299,310.120 67.720,311.000 67.142 C 316.643 63.435,323.451 53.810,324.541 48.000 C 324.685 47.230,324.906 46.150,325.032 45.600 C 325.159 45.050,325.339 43.520,325.433 42.200 C 325.527 40.880,325.679 39.598,325.770 39.352 C 325.861 39.105,325.761 37.485,325.547 35.752 C 325.009 31.385,324.985 31.252,324.705 30.971 C 324.567 30.834,324.545 30.488,324.655 30.201 C 324.765 29.915,324.662 29.562,324.427 29.417 C 324.192 29.272,323.999 28.848,323.998 28.476 C 323.996 28.104,323.754 27.338,323.459 26.773 C 323.165 26.209,322.794 25.230,322.635 24.598 C 322.477 23.966,321.999 22.960,321.573 22.363 C 321.148 21.765,320.800 21.162,320.800 21.022 C 320.800 20.778,319.668 19.106,318.400 17.476 C 317.577 16.418,314.263 13.175,313.009 12.200 C 312.443 11.760,311.688 11.130,311.332 10.800 C 309.808 9.389,302.727 6.020,300.400 5.598 C 299.410 5.419,298.150 5.140,297.600 4.978 C 296.493 4.653,286.492 4.441,286.197 4.737 M55.883 85.856 C 55.048 86.150,53.945 86.467,53.431 86.560 C 50.445 87.101,42.400 93.390,42.400 95.183 C 42.400 95.412,42.224 95.600,42.008 95.600 C 40.944 95.600,38.531 102.327,38.206 106.200 C 38.132 107.080,37.973 168.825,37.852 243.411 C 37.630 380.027,37.641 381.374,38.907 382.640 C 39.068 382.801,39.200 383.232,39.200 383.598 C 39.200 384.191,41.378 387.892,42.025 388.400 C 42.166 388.510,42.494 389.005,42.754 389.500 C 43.015 389.995,43.421 390.400,43.657 390.400 C 43.892 390.400,44.439 390.850,44.871 391.400 C 45.304 391.950,45.842 392.400,46.066 392.400 C 46.290 392.400,46.920 392.751,47.465 393.180 C 48.257 393.803,50.687 394.736,53.300 395.421 C 53.465 395.465,53.645 395.545,53.700 395.601 C 53.992 395.894,60.847 395.848,61.030 395.551 C 61.150 395.358,61.786 395.200,62.445 395.200 C 64.891 395.200,73.887 389.220,72.910 388.243 C 72.786 388.120,72.981 387.905,73.343 387.767 C 73.704 387.628,74.000 387.277,74.000 386.986 C 74.000 386.695,74.245 386.212,74.544 385.913 C 75.105 385.353,76.810 381.753,76.743 381.271 C 76.722 381.122,76.750 380.910,76.804 380.800 C 77.266 379.866,77.491 348.973,77.615 269.500 L 77.680 228.000 82.040 228.000 L 86.400 228.000 86.461 302.900 C 86.494 344.095,86.555 377.980,86.596 378.200 C 86.637 378.420,86.826 379.320,87.017 380.200 C 87.208 381.080,87.380 381.890,87.399 382.000 C 87.613 383.222,88.708 385.631,89.458 386.531 C 89.976 387.153,90.400 387.796,90.400 387.960 C 90.400 388.460,94.529 392.400,95.053 392.400 C 95.322 392.400,95.814 392.672,96.146 393.003 C 98.237 395.094,106.836 396.640,110.374 395.562 C 110.938 395.390,112.165 395.029,113.100 394.761 C 114.035 394.492,114.800 394.121,114.800 393.936 C 114.800 393.751,114.935 393.641,115.100 393.692 C 115.518 393.819,118.000 392.298,118.000 391.914 C 118.000 391.741,118.201 391.600,118.447 391.600 C 118.693 391.600,119.614 390.880,120.494 390.000 C 121.374 389.120,121.955 388.400,121.786 388.400 C 121.616 388.400,121.893 388.040,122.400 387.600 C 122.907 387.160,123.177 386.800,122.999 386.800 C 122.821 386.800,122.954 386.485,123.293 386.100 C 123.974 385.328,125.639 381.808,125.557 381.313 C 125.528 381.141,125.542 380.910,125.586 380.800 C 125.848 380.151,125.901 373.820,126.043 326.400 C 126.218 268.359,125.979 190.422,125.628 190.360 C 124.975 190.246,123.267 190.047,117.400 189.398 C 116.520 189.300,115.260 189.135,114.600 189.031 C 113.940 188.927,112.140 188.726,110.600 188.585 C 106.884 188.243,105.776 188.120,103.400 187.790 C 100.938 187.447,98.456 187.192,97.418 187.175 C 96.989 187.168,96.399 186.965,96.109 186.724 C 95.818 186.483,95.474 186.393,95.343 186.523 C 94.972 186.895,91.385 185.404,90.366 184.454 C 89.862 183.984,89.317 183.600,89.155 183.600 C 88.822 183.600,86.400 181.251,86.400 180.927 C 86.400 180.810,85.884 180.059,85.253 179.258 C 84.623 178.456,83.969 177.350,83.799 176.800 C 83.630 176.250,83.324 175.692,83.119 175.560 C 82.915 175.428,82.704 175.031,82.653 174.678 C 82.601 174.325,81.990 173.160,81.296 172.088 C 80.148 170.317,79.359 168.695,79.257 167.894 C 79.235 167.726,78.569 166.576,77.777 165.337 C 76.485 163.318,75.702 161.764,75.692 161.200 C 75.690 161.090,74.769 159.485,73.644 157.634 C 72.520 155.783,71.600 154.053,71.600 153.790 C 71.600 153.527,71.133 152.624,70.563 151.784 C 69.993 150.943,69.463 149.925,69.385 149.521 C 69.307 149.117,68.964 148.506,68.622 148.164 C 68.280 147.823,68.000 147.311,68.000 147.027 C 68.000 146.744,67.533 145.824,66.963 144.984 C 66.393 144.143,65.857 143.097,65.773 142.657 C 65.688 142.218,65.473 141.756,65.296 141.629 C 65.118 141.503,64.349 140.140,63.586 138.600 C 62.824 137.060,62.065 135.740,61.900 135.667 C 61.735 135.593,61.600 135.203,61.600 134.800 C 61.600 134.397,61.465 134.007,61.300 133.933 C 61.135 133.860,60.402 132.630,59.671 131.200 L 58.342 128.600 59.755 130.200 C 60.532 131.080,61.310 131.800,61.484 131.801 C 61.658 131.801,70.006 140.036,80.035 150.101 C 90.065 160.165,98.480 168.400,98.735 168.400 C 98.991 168.400,99.200 168.610,99.200 168.867 C 99.200 169.123,99.320 169.213,99.468 169.066 C 99.615 168.919,100.020 169.046,100.368 169.349 C 101.361 170.213,104.446 171.116,107.400 171.407 C 108.280 171.493,109.810 171.664,110.800 171.786 C 111.790 171.909,113.538 172.082,114.684 172.172 C 115.830 172.262,117.157 172.459,117.634 172.611 C 118.111 172.762,119.423 172.942,120.550 173.010 C 121.678 173.078,123.230 173.234,124.000 173.356 C 125.509 173.595,128.319 173.932,131.200 174.218 C 133.039 174.401,133.609 174.470,137.800 175.012 C 139.120 175.182,140.740 175.364,141.400 175.416 C 142.060 175.467,143.230 175.610,144.000 175.734 C 144.770 175.857,146.660 176.074,148.200 176.216 C 153.237 176.679,156.917 177.121,158.168 177.413 C 169.719 180.115,178.569 175.607,181.899 165.324 C 182.424 163.703,182.222 157.349,181.623 156.627 C 181.374 156.327,181.089 155.660,180.989 155.145 C 180.890 154.630,180.447 153.719,180.005 153.121 C 179.562 152.522,179.200 151.938,179.200 151.823 C 179.200 151.148,175.463 147.925,173.600 146.994 C 172.390 146.390,171.077 145.732,170.683 145.533 C 170.288 145.335,168.848 145.080,167.483 144.969 C 166.117 144.857,164.550 144.679,164.000 144.572 C 163.450 144.466,162.010 144.296,160.800 144.194 C 158.369 143.989,156.905 143.803,154.793 143.429 C 154.019 143.292,152.399 143.091,151.193 142.981 C 149.987 142.871,148.370 142.707,147.600 142.615 C 143.208 142.094,142.227 141.983,140.500 141.813 C 139.455 141.711,137.790 141.508,136.800 141.363 C 135.810 141.218,134.370 141.040,133.600 140.966 C 132.830 140.893,131.300 140.726,130.200 140.594 C 129.100 140.463,127.570 140.289,126.800 140.209 C 126.030 140.129,124.590 139.946,123.600 139.803 C 122.610 139.660,121.170 139.496,120.400 139.439 C 115.866 139.100,117.088 140.088,98.568 121.784 C 82.862 106.259,80.458 103.638,84.356 106.281 C 85.102 106.786,85.934 107.200,86.207 107.200 C 86.479 107.200,86.924 107.468,87.196 107.796 C 87.468 108.123,87.850 108.293,88.045 108.172 C 88.240 108.051,88.400 108.129,88.400 108.345 C 88.400 108.560,88.928 108.852,89.572 108.994 C 90.217 109.136,90.944 109.492,91.188 109.786 C 91.432 110.079,92.614 110.719,93.816 111.206 C 95.017 111.694,96.000 112.282,96.000 112.513 C 96.000 112.744,96.107 112.826,96.239 112.695 C 96.370 112.563,97.630 113.161,99.039 114.024 C 100.447 114.886,101.600 115.508,101.600 115.407 C 101.600 115.305,102.545 115.767,103.700 116.432 C 104.855 117.098,106.790 118.113,108.000 118.687 C 109.210 119.262,110.310 119.897,110.445 120.100 C 110.579 120.303,110.806 120.449,110.949 120.426 C 111.092 120.403,111.791 120.690,112.504 121.065 C 113.892 121.794,114.047 121.833,116.800 122.154 C 117.790 122.269,119.050 122.452,119.600 122.559 C 120.150 122.667,121.836 122.862,123.346 122.992 L 126.092 123.228 125.890 114.314 C 125.779 109.411,125.568 104.950,125.421 104.400 C 125.274 103.850,125.107 103.220,125.051 103.000 C 124.354 100.258,123.468 97.970,122.810 97.211 C 122.364 96.698,122.000 96.118,122.000 95.922 C 122.000 95.126,117.058 90.047,115.492 89.232 C 114.891 88.920,114.400 88.515,114.400 88.332 C 114.400 88.150,114.051 88.000,113.624 88.000 C 113.197 88.000,112.729 87.809,112.585 87.575 C 112.307 87.126,110.970 86.540,109.490 86.219 C 109.000 86.113,107.880 85.844,107.000 85.621 C 104.415 84.968,57.795 85.182,55.883 85.856 M265.200 85.951 C 259.475 87.443,252.424 92.772,250.812 96.825 C 250.512 97.581,250.079 98.443,249.852 98.739 C 249.624 99.035,249.389 99.596,249.329 99.984 C 249.270 100.373,249.011 101.210,248.754 101.845 C 248.112 103.431,248.047 103.926,247.756 109.400 C 247.503 114.158,247.215 115.200,246.151 115.200 C 245.848 115.200,245.600 115.359,245.600 115.553 C 245.600 115.748,245.285 116.010,244.900 116.136 C 244.258 116.346,242.508 117.338,239.400 119.254 C 238.740 119.661,237.750 120.216,237.200 120.489 C 236.650 120.761,236.110 121.102,236.000 121.247 C 235.890 121.392,235.170 121.803,234.400 122.161 C 232.804 122.904,229.899 124.501,229.600 124.801 C 229.490 124.911,228.860 125.265,228.200 125.588 C 227.540 125.911,226.280 126.637,225.400 127.200 C 224.520 127.763,223.260 128.489,222.600 128.812 C 221.940 129.135,221.310 129.489,221.200 129.599 C 220.881 129.919,219.487 130.763,218.400 131.295 C 217.850 131.564,217.310 131.891,217.200 132.023 C 217.090 132.155,216.460 132.538,215.800 132.874 C 213.325 134.135,210.993 135.407,210.800 135.601 C 210.690 135.711,210.060 136.065,209.400 136.386 C 208.740 136.708,207.750 137.272,207.200 137.639 C 206.650 138.006,205.550 138.670,204.755 139.116 C 201.888 140.721,201.423 141.008,200.887 141.500 C 200.588 141.775,200.113 142.000,199.833 142.000 C 199.552 142.000,198.907 142.360,198.400 142.800 C 197.893 143.240,197.280 143.604,197.039 143.609 C 196.797 143.614,196.164 143.953,195.631 144.363 L 194.662 145.107 195.731 147.365 C 196.319 148.606,196.801 149.842,196.802 150.111 C 196.804 150.380,197.071 151.111,197.397 151.735 C 199.026 154.858,199.404 165.307,198.020 168.947 C 197.789 169.555,197.600 170.389,197.600 170.800 C 197.600 171.211,197.390 172.055,197.134 172.674 C 196.877 173.293,196.643 173.890,196.614 174.000 C 196.295 175.199,195.878 176.000,195.573 176.000 C 195.368 176.000,195.200 176.346,195.200 176.769 C 195.200 177.192,194.777 178.047,194.259 178.669 C 193.742 179.291,193.094 180.227,192.820 180.748 C 192.010 182.285,189.110 185.502,187.611 186.525 C 186.182 187.500,187.304 187.356,189.088 186.335 C 189.920 185.859,191.091 185.217,191.692 184.909 C 192.293 184.601,192.890 184.178,193.020 183.968 C 193.149 183.758,193.423 183.691,193.628 183.817 C 193.832 183.944,194.000 183.890,194.000 183.698 C 194.000 183.506,194.630 183.102,195.400 182.800 C 196.170 182.498,196.800 182.104,196.800 181.925 C 196.800 181.746,196.997 181.600,197.238 181.600 C 197.479 181.600,198.199 181.228,198.838 180.773 C 199.477 180.318,200.000 180.057,200.000 180.193 C 200.000 180.329,200.602 179.982,201.338 179.420 C 202.074 178.859,202.884 178.400,203.138 178.400 C 203.392 178.400,203.600 178.234,203.600 178.031 C 203.600 177.828,204.230 177.454,205.000 177.200 C 205.770 176.946,206.400 176.590,206.400 176.408 C 206.400 176.227,206.895 175.889,207.500 175.659 C 208.702 175.200,212.479 173.140,212.800 172.768 C 212.910 172.640,213.585 172.281,214.300 171.970 C 215.015 171.659,215.600 171.290,215.600 171.149 C 215.600 171.008,215.915 170.790,216.300 170.664 C 216.685 170.537,217.720 169.978,218.600 169.420 C 219.480 168.862,220.650 168.183,221.200 167.911 C 221.750 167.639,222.290 167.298,222.400 167.153 C 222.510 167.008,223.230 166.601,224.000 166.248 C 224.770 165.894,226.120 165.156,227.000 164.607 C 227.880 164.058,229.230 163.301,230.000 162.925 C 230.770 162.549,231.490 162.142,231.600 162.021 C 231.710 161.899,232.230 161.558,232.755 161.262 C 235.586 159.668,236.714 159.016,237.800 158.347 C 238.460 157.940,239.450 157.384,240.000 157.111 C 240.550 156.839,241.090 156.498,241.200 156.353 C 241.310 156.208,242.030 155.800,242.800 155.446 C 243.570 155.093,244.965 154.347,245.900 153.790 L 247.600 152.777 247.607 154.288 C 247.616 156.062,247.545 183.840,247.437 221.000 C 247.394 235.520,247.434 248.177,247.525 249.128 L 247.689 250.856 248.598 250.002 C 251.003 247.743,255.751 246.171,261.399 245.765 C 263.159 245.639,264.631 245.502,264.672 245.461 C 264.712 245.421,264.828 242.240,264.928 238.394 C 265.028 234.547,265.180 231.040,265.266 230.600 C 265.543 229.178,266.499 226.621,267.057 225.811 C 267.356 225.377,267.600 224.702,267.600 224.311 C 267.600 223.920,267.780 223.600,268.000 223.600 C 268.220 223.600,268.400 223.420,268.400 223.200 C 268.400 222.258,274.257 216.586,276.077 215.765 C 277.860 214.961,277.870 214.937,278.578 209.800 C 278.669 209.140,278.857 208.060,278.997 207.400 C 279.136 206.740,279.304 205.750,279.369 205.200 C 279.435 204.650,279.608 203.660,279.753 203.000 C 279.898 202.340,280.102 200.990,280.206 200.000 C 280.311 199.010,280.499 197.750,280.625 197.200 C 280.751 196.650,280.921 195.750,281.002 195.200 C 281.084 194.650,281.248 193.742,281.368 193.182 C 281.566 192.257,281.776 190.757,282.178 187.400 C 282.325 186.176,282.608 184.596,283.003 182.790 C 283.125 182.234,283.297 181.154,283.387 180.390 C 283.476 179.625,283.630 178.640,283.729 178.200 C 283.828 177.760,284.025 176.386,284.168 175.146 C 284.311 173.906,284.524 172.466,284.641 171.946 C 285.338 168.858,285.427 166.833,285.020 163.400 C 284.864 162.080,284.672 159.920,284.595 158.600 C 284.462 156.342,284.203 153.349,283.779 149.200 C 283.678 148.210,283.516 146.050,283.419 144.400 C 283.322 142.750,283.138 140.590,283.010 139.600 C 282.745 137.558,282.547 135.516,282.194 131.200 C 281.678 124.887,281.611 124.265,281.366 123.493 C 281.203 122.978,281.266 122.793,281.546 122.967 C 281.887 123.177,282.548 124.930,282.992 126.800 C 283.170 127.548,283.806 129.246,284.432 130.644 C 284.837 131.548,285.275 132.893,285.406 133.633 C 285.536 134.374,285.768 135.074,285.922 135.190 C 286.075 135.305,286.262 135.760,286.338 136.200 C 286.414 136.640,286.609 137.180,286.772 137.400 C 286.934 137.620,287.480 139.150,287.983 140.800 C 288.487 142.450,289.024 143.980,289.177 144.200 C 289.331 144.420,289.688 145.410,289.971 146.400 C 290.255 147.390,290.984 149.460,291.592 151.000 C 292.200 152.540,292.818 154.475,292.967 155.300 C 293.115 156.125,293.438 156.800,293.685 156.800 C 293.931 156.800,294.027 156.907,293.897 157.037 C 293.766 157.167,294.005 158.079,294.427 159.063 C 294.849 160.047,295.266 161.250,295.354 161.737 C 295.442 162.223,295.822 163.337,296.197 164.211 C 296.988 166.053,297.562 167.786,297.848 169.191 C 297.958 169.737,298.173 170.277,298.324 170.391 C 298.476 170.506,298.662 170.960,298.738 171.400 C 298.814 171.840,299.054 172.417,299.272 172.682 C 299.620 173.105,299.458 176.415,298.964 178.984 C 298.881 179.415,298.717 180.412,298.600 181.200 C 298.483 181.988,298.294 183.075,298.181 183.616 C 298.068 184.157,297.892 185.320,297.790 186.200 C 297.688 187.080,297.501 188.250,297.375 188.800 C 297.249 189.350,297.079 190.250,296.998 190.800 C 296.916 191.350,296.752 192.258,296.632 192.818 C 296.435 193.739,296.241 195.117,295.820 198.600 C 295.741 199.260,295.556 200.430,295.410 201.200 C 295.155 202.544,294.936 203.855,294.604 206.000 C 294.519 206.550,294.360 207.450,294.249 208.000 C 294.139 208.550,293.948 209.962,293.825 211.138 C 293.702 212.313,293.514 213.415,293.408 213.586 C 293.303 213.757,293.132 214.685,293.029 215.649 C 292.815 217.643,292.429 220.102,292.133 221.351 C 292.022 221.818,291.873 222.863,291.802 223.673 C 291.549 226.522,291.378 226.713,288.884 226.917 C 284.073 227.311,282.066 228.345,280.371 231.305 C 279.408 232.986,279.398 233.110,279.200 246.600 L 279.000 260.200 269.800 260.302 C 259.422 260.417,258.984 260.450,257.602 261.234 C 255.948 262.171,253.975 264.425,253.728 265.658 C 253.601 266.295,253.347 266.909,253.163 267.023 C 252.609 267.365,252.701 326.961,253.258 328.930 C 253.879 331.124,255.998 333.885,257.804 334.853 C 260.763 336.439,358.000 335.920,358.000 334.318 C 358.000 334.070,358.105 333.971,358.233 334.099 C 358.542 334.409,361.219 331.554,360.981 331.169 C 360.879 331.003,361.021 330.793,361.298 330.701 C 361.839 330.521,362.073 268.477,361.541 266.378 C 361.209 265.071,359.378 262.355,359.050 262.684 C 358.912 262.821,358.800 262.732,358.800 262.485 C 358.800 262.043,357.065 261.113,355.277 260.597 C 354.769 260.451,350.179 260.302,345.077 260.266 L 335.800 260.200 335.726 247.275 C 335.637 231.655,335.760 232.415,332.800 229.189 C 331.668 227.956,327.780 226.624,326.052 226.878 C 324.833 227.057,324.767 226.622,325.402 222.600 C 325.541 221.720,325.709 220.640,325.776 220.200 C 325.843 219.760,325.940 219.400,325.991 219.400 C 326.043 219.400,326.138 218.860,326.203 218.200 C 326.267 217.540,326.428 216.460,326.560 215.800 C 326.978 213.713,327.286 211.840,327.417 210.600 C 327.487 209.940,327.659 208.860,327.801 208.200 C 328.137 206.635,328.341 205.364,328.571 203.400 C 328.674 202.520,328.877 201.080,329.023 200.200 C 329.532 197.117,329.615 196.592,329.751 195.600 C 329.827 195.050,330.029 193.970,330.200 193.200 C 330.371 192.430,330.564 191.350,330.628 190.800 C 330.693 190.250,330.843 189.365,330.963 188.833 C 331.082 188.302,331.276 186.952,331.393 185.833 C 331.633 183.537,331.875 181.865,332.179 180.400 C 333.677 173.180,333.658 171.898,331.978 166.259 C 331.510 164.687,330.706 162.320,330.192 161.000 C 329.176 158.388,328.775 157.111,328.872 156.800 C 328.907 156.690,328.688 156.150,328.387 155.600 C 328.085 155.050,327.799 154.361,327.750 154.069 C 327.701 153.777,327.387 152.959,327.051 152.251 C 326.715 151.543,326.332 150.347,326.199 149.592 C 326.066 148.838,325.771 148.106,325.544 147.966 C 325.317 147.825,325.167 147.591,325.210 147.444 C 325.302 147.127,325.247 146.955,323.394 141.800 C 322.604 139.600,321.709 136.953,321.406 135.918 C 321.103 134.883,320.593 133.443,320.274 132.718 C 319.428 130.795,318.884 129.174,318.593 127.700 C 318.452 126.985,318.201 126.400,318.035 126.400 C 317.869 126.400,317.720 126.175,317.703 125.900 C 317.686 125.625,317.312 124.455,316.871 123.300 C 316.430 122.145,316.135 121.200,316.217 121.200 C 316.298 121.200,315.840 119.967,315.199 118.460 C 314.557 116.953,313.926 115.108,313.795 114.360 C 313.665 113.612,313.386 112.940,313.176 112.866 C 312.967 112.792,312.903 112.558,313.034 112.345 C 313.280 111.947,317.304 117.583,319.072 120.800 C 319.616 121.790,320.352 122.825,320.707 123.100 C 321.062 123.375,321.184 123.606,320.976 123.613 C 320.769 123.620,320.949 123.890,321.376 124.213 C 321.804 124.536,322.013 124.800,321.842 124.800 C 321.558 124.800,324.235 128.739,324.833 129.200 C 324.975 129.310,325.212 129.785,325.359 130.255 C 325.506 130.726,326.061 131.581,326.594 132.155 C 327.126 132.730,327.478 133.200,327.375 133.200 C 327.273 133.200,327.665 133.920,328.247 134.800 C 328.830 135.680,329.462 136.400,329.653 136.400 C 329.844 136.400,330.000 136.670,330.000 137.000 C 330.000 137.330,330.180 137.600,330.400 137.600 C 330.620 137.600,330.800 137.870,330.800 138.200 C 330.800 138.530,330.980 138.800,331.200 138.800 C 331.420 138.800,331.600 139.036,331.600 139.325 C 331.600 139.613,331.960 140.236,332.400 140.708 C 332.840 141.180,333.200 141.667,333.200 141.789 C 333.200 142.225,335.006 144.790,335.317 144.795 C 335.645 144.800,335.460 106.720,335.121 104.600 C 335.016 103.940,334.796 103.099,334.634 102.731 C 334.471 102.363,334.297 101.823,334.247 101.531 C 333.609 97.806,329.394 91.980,325.444 89.365 C 324.808 88.944,324.088 88.469,323.844 88.310 C 323.485 88.075,320.828 86.894,320.000 86.602 C 319.890 86.563,319.530 86.416,319.200 86.276 C 317.093 85.382,313.086 85.234,291.400 85.253 C 270.560 85.272,267.496 85.353,265.200 85.951 M298.044 246.630 C 298.861 247.197,299.771 247.701,300.065 247.750 C 300.359 247.798,301.023 248.071,301.540 248.355 C 304.695 250.087,316.800 248.196,316.800 245.971 C 316.800 245.767,317.295 245.600,317.900 245.600 L 319.000 245.599 318.883 253.000 L 318.766 260.400 307.383 260.400 L 296.000 260.400 296.000 253.000 C 296.000 248.930,296.125 245.600,296.278 245.600 C 296.432 245.600,297.226 246.064,298.044 246.630 M247.509 361.646 C 247.449 370.531,247.538 378.520,247.706 379.400 C 247.874 380.280,248.076 381.360,248.155 381.800 C 248.955 386.280,256.330 394.073,260.323 394.659 C 260.620 394.703,261.163 394.875,261.531 395.041 C 263.631 395.991,269.891 396.045,272.505 395.136 C 275.286 394.170,278.800 392.392,278.800 391.952 C 278.800 391.759,278.940 391.645,279.111 391.700 C 279.757 391.908,284.726 386.190,284.499 385.500 C 284.444 385.335,284.610 385.200,284.867 385.200 C 285.123 385.200,285.221 385.087,285.083 384.949 C 284.945 384.811,285.138 384.136,285.511 383.449 C 285.885 382.762,286.217 382.020,286.249 381.800 C 286.281 381.580,286.351 381.310,286.405 381.200 C 286.796 380.395,286.922 377.276,287.074 364.700 L 287.246 350.400 273.923 350.357 C 257.171 350.303,256.621 350.259,253.200 348.681 C 252.210 348.224,251.133 347.804,250.807 347.747 C 250.481 347.690,250.151 347.454,250.074 347.222 C 249.997 346.990,249.738 346.800,249.498 346.800 C 249.259 346.800,248.738 346.506,248.341 346.146 C 247.645 345.517,247.614 346.099,247.509 361.646 M296.026 364.805 C 296.065 373.197,296.248 379.306,296.466 379.440 C 296.671 379.567,296.801 379.970,296.756 380.335 C 296.624 381.389,297.248 383.273,298.264 384.892 C 298.779 385.713,299.200 386.485,299.200 386.609 C 299.200 388.199,305.453 393.374,308.600 394.389 C 309.480 394.672,310.441 395.096,310.736 395.331 C 311.044 395.577,312.998 395.741,315.336 395.719 C 320.444 395.671,320.554 395.649,324.226 393.952 C 325.121 393.538,326.046 393.200,326.283 393.200 C 326.520 393.200,326.818 392.930,326.945 392.600 C 327.071 392.270,327.363 392.000,327.593 392.000 C 328.045 392.000,331.488 388.604,332.295 387.362 C 335.839 381.906,336.502 376.218,335.766 357.572 L 335.483 350.400 315.721 350.400 L 295.959 350.400 296.026 364.805 " stroke="none" fill="#ffffff" fill-rule="evenodd"></path></g></svg>