<svg style="display: block;" id="svg" version="1.1" width="1000" height="1000" xmlns="http://www.w3.org/2000/svg" xmlns:xlink="http://www.w3.org/1999/xlink"><g id="svgg"><path id="path0" d="M134.921 65.238 C 131.946 66.386,129.088 69.117,127.512 72.318 L 126.200 74.983 126.093 188.992 C 126.031 255.171,126.136 303.713,126.344 304.700 L 126.703 306.400 122.384 306.400 L 118.064 306.400 117.432 303.621 C 116.866 301.134,116.800 291.624,116.800 213.015 L 116.800 125.188 77.500 125.294 L 38.200 125.400 35.941 126.459 C 33.064 127.808,30.608 130.264,29.259 133.141 L 28.200 135.400 28.200 220.900 L 28.200 306.400 16.500 306.400 L 4.800 306.400 4.800 321.000 L 4.800 335.600 200.000 335.600 L 395.200 335.600 395.200 321.000 L 395.200 306.400 384.448 306.400 L 373.697 306.400 374.056 304.700 C 374.264 303.717,374.370 267.838,374.308 219.600 L 374.200 136.200 373.238 133.812 C 372.087 130.953,369.120 127.822,366.200 126.385 L 364.200 125.400 323.905 125.293 L 283.610 125.185 283.486 213.893 C 283.383 287.587,283.270 302.922,282.814 304.500 L 282.265 306.400 277.993 306.400 L 273.721 306.400 274.065 304.205 C 274.255 302.997,274.362 251.022,274.305 188.705 L 274.200 75.400 273.308 73.200 C 272.071 70.150,269.287 67.098,266.491 65.725 L 264.200 64.600 200.600 64.518 C 137.807 64.438,136.974 64.447,134.921 65.238 M204.370 71.216 C 244.638 75.348,262.835 124.126,235.163 153.756 C 211.842 178.729,171.291 172.165,156.568 141.034 C 142.266 110.792,162.273 74.706,195.255 71.256 C 200.020 70.758,199.909 70.758,204.370 71.216 M188.000 98.200 L 188.000 107.600 178.600 107.600 L 169.200 107.600 169.200 120.000 L 169.200 132.400 178.600 132.400 L 188.000 132.400 188.000 141.800 L 188.000 151.200 200.200 151.200 L 212.400 151.200 212.400 141.800 L 212.400 132.400 221.600 132.400 L 230.800 132.400 230.800 120.000 L 230.800 107.600 221.600 107.600 L 212.400 107.600 212.400 98.200 L 212.400 88.800 200.200 88.800 L 188.000 88.800 188.000 98.200 M69.200 170.200 L 69.200 180.000 59.600 180.000 L 50.000 180.000 50.000 170.200 L 50.000 160.400 59.600 160.400 L 69.200 160.400 69.200 170.200 M100.000 170.200 L 100.000 180.000 90.200 180.000 L 80.400 180.000 80.400 170.200 L 80.400 160.400 90.200 160.400 L 100.000 160.400 100.000 170.200 M325.200 170.200 L 325.200 180.000 315.600 180.000 L 306.000 180.000 306.000 170.200 L 306.000 160.400 315.600 160.400 L 325.200 160.400 325.200 170.200 M356.000 170.200 L 356.000 180.000 346.400 180.000 L 336.800 180.000 336.800 170.200 L 336.800 160.400 346.400 160.400 L 356.000 160.400 356.000 170.200 M69.200 204.200 L 69.200 214.000 59.600 214.000 L 50.000 214.000 50.000 204.200 L 50.000 194.400 59.600 194.400 L 69.200 194.400 69.200 204.200 M100.000 204.200 L 100.000 214.000 90.200 214.000 L 80.400 214.000 80.400 204.200 L 80.400 194.400 90.200 194.400 L 100.000 194.400 100.000 204.200 M325.200 204.200 L 325.200 214.000 315.600 214.000 L 306.000 214.000 306.000 204.200 L 306.000 194.400 315.600 194.400 L 325.200 194.400 325.200 204.200 M356.000 204.200 L 356.000 214.000 346.400 214.000 L 336.800 214.000 336.800 204.200 L 336.800 194.400 346.400 194.400 L 356.000 194.400 356.000 204.200 M69.200 239.400 L 69.200 249.200 59.600 249.200 L 50.000 249.200 50.000 239.400 L 50.000 229.600 59.600 229.600 L 69.200 229.600 69.200 239.400 M100.000 239.400 L 100.000 249.200 90.200 249.200 L 80.400 249.200 80.400 239.400 L 80.400 229.600 90.200 229.600 L 100.000 229.600 100.000 239.400 M325.200 239.400 L 325.200 249.200 315.600 249.200 L 306.000 249.200 306.000 239.400 L 306.000 229.600 315.600 229.600 L 325.200 229.600 325.200 239.400 M356.000 239.400 L 356.000 249.200 346.400 249.200 L 336.800 249.200 336.800 239.400 L 336.800 229.600 346.400 229.600 L 356.000 229.600 356.000 239.400 M230.400 269.000 L 230.400 305.600 201.800 305.600 L 173.200 305.600 173.200 269.000 L 173.200 232.400 201.800 232.400 L 230.400 232.400 230.400 269.000 " stroke="none" fill="#ffffff" fill-rule="evenodd"></path></g></svg>