<svg style="display: block;" id="svg" version="1.1" width="1000" height="1000" xmlns="http://www.w3.org/2000/svg" xmlns:xlink="http://www.w3.org/1999/xlink"><g id="svgg"><path id="path0" d="M112.200 89.002 C 91.425 93.663,81.781 114.446,91.453 133.715 C 94.280 139.347,98.924 145.114,102.789 147.793 L 104.384 148.897 99.845 150.418 C 79.684 157.174,62.400 175.034,62.400 189.112 C 62.400 198.118,82.891 203.214,119.000 203.190 C 129.785 203.183,134.048 203.008,144.000 202.168 L 147.000 201.914 147.068 198.657 C 147.303 187.486,152.387 175.226,160.036 167.387 C 162.523 164.839,162.544 164.958,159.100 162.109 C 152.818 156.914,145.106 152.656,137.520 150.194 L 133.640 148.934 135.643 147.407 C 146.665 139.001,152.850 122.173,149.244 110.400 C 144.484 94.856,128.154 85.423,112.200 89.002 M273.800 89.033 C 246.659 95.009,241.155 128.122,264.121 147.265 C 265.478 148.397,266.167 149.200,265.780 149.200 C 261.276 149.200,246.351 157.050,239.897 162.813 L 237.593 164.870 240.037 167.535 C 247.851 176.058,252.800 188.180,252.800 198.795 L 252.800 201.885 255.500 202.131 C 285.572 204.869,318.764 202.428,331.200 196.564 C 336.443 194.092,337.836 192.180,337.407 188.042 C 335.878 173.298,319.719 156.974,300.167 150.422 L 295.623 148.900 297.960 147.064 C 308.587 138.715,314.418 122.744,311.243 110.680 C 307.190 95.273,290.164 85.430,273.800 89.033 M119.000 153.348 C 121.864 153.348,124.267 153.152,124.957 152.862 C 125.924 152.456,125.711 152.807,123.657 155.002 C 121.215 157.613,121.204 157.636,121.743 158.914 C 122.041 159.621,125.032 166.493,128.389 174.185 L 134.494 188.171 130.547 191.887 C 128.376 193.930,124.874 197.215,122.765 199.185 L 118.930 202.768 111.237 195.511 C 106.118 190.681,103.606 188.044,103.728 187.627 C 103.828 187.282,106.720 180.565,110.155 172.700 C 113.590 164.835,116.445 158.241,116.500 158.046 C 116.555 157.850,115.553 156.500,114.274 155.045 C 112.288 152.787,112.113 152.469,113.074 152.874 C 113.731 153.151,116.201 153.348,119.000 153.348 M280.200 153.381 C 282.180 153.391,284.700 153.251,285.800 153.070 L 287.800 152.739 285.435 155.147 L 283.070 157.555 289.760 172.878 L 296.450 188.200 294.666 189.800 C 293.685 190.680,290.180 193.970,286.878 197.112 L 280.872 202.823 273.236 195.572 C 269.036 191.584,265.600 188.149,265.600 187.940 C 265.600 187.730,268.412 181.133,271.849 173.279 C 275.286 165.426,278.186 158.690,278.293 158.311 C 278.418 157.868,277.672 156.693,276.200 155.017 C 273.926 152.427,273.920 152.414,275.256 152.887 C 275.995 153.148,278.220 153.371,280.200 153.381 M191.200 161.986 C 169.612 166.619,155.950 185.764,159.373 206.583 C 161.369 218.720,168.642 231.174,177.954 238.400 C 180.191 240.136,180.643 240.654,180.095 240.855 C 179.713 240.995,177.301 241.774,174.736 242.587 C 149.802 250.483,128.024 272.485,125.760 292.065 C 125.056 298.154,128.674 301.683,139.200 305.174 C 161.393 312.535,213.335 314.189,246.000 308.574 C 265.856 305.162,274.000 300.767,274.000 293.465 C 274.000 273.779,248.809 248.794,221.527 241.418 L 218.854 240.696 221.127 239.003 C 234.056 229.376,242.426 211.178,240.785 196.262 C 238.222 172.969,214.957 156.887,191.200 161.986 M21.700 215.102 L 2.400 226.977 2.400 236.288 L 2.400 245.600 73.516 245.600 L 144.632 245.600 149.040 242.700 C 151.464 241.105,154.830 239.080,156.520 238.200 C 160.111 236.329,160.025 236.583,158.057 233.678 C 157.208 232.425,155.931 230.366,155.219 229.101 L 153.925 226.802 84.520 226.701 L 15.116 226.600 28.358 215.073 C 35.641 208.733,41.600 203.468,41.600 203.373 C 41.600 202.908,39.671 204.045,21.700 215.102 M358.867 204.114 C 359.454 204.601,365.506 209.860,372.316 215.800 L 384.699 226.600 315.358 226.701 L 246.017 226.802 245.471 227.701 C 243.891 230.300,241.108 234.706,240.574 235.453 C 239.981 236.283,240.079 236.371,244.052 238.590 C 246.300 239.846,249.721 241.937,251.655 243.237 L 255.169 245.600 326.185 245.600 L 397.200 245.600 397.200 236.233 L 397.200 226.866 377.980 215.033 C 360.487 204.264,355.867 201.624,358.867 204.114 " stroke="none" fill="#ffffff" fill-rule="evenodd"></path></g></svg>