<svg style="display: block;" id="svg" version="1.1" width="1000" height="1000" xmlns="http://www.w3.org/2000/svg" xmlns:xlink="http://www.w3.org/1999/xlink"><g id="svgg"><path id="path0" d="M189.600 24.992 C 189.600 25.317,188.835 25.973,187.900 26.450 C 186.100 27.367,183.490 29.197,183.267 29.700 C 183.193 29.865,182.890 30.000,182.594 30.000 C 182.297 30.000,181.939 30.363,181.798 30.806 C 181.657 31.249,181.402 31.525,181.230 31.418 C 181.058 31.312,180.710 31.680,180.457 32.235 C 180.204 32.791,179.833 33.144,179.634 33.021 C 179.239 32.777,175.600 38.816,175.600 39.715 C 175.600 40.018,175.465 40.402,175.300 40.567 C 175.135 40.732,174.985 40.987,174.966 41.133 C 174.948 41.280,174.743 41.855,174.511 42.410 C 173.857 43.973,173.520 50.707,173.950 53.600 C 174.480 57.162,174.579 57.539,175.124 58.084 C 175.386 58.346,175.600 59.135,175.600 59.837 C 175.600 60.621,175.839 61.206,176.219 61.352 C 176.559 61.483,177.027 62.132,177.258 62.795 C 177.489 63.458,177.841 64.000,178.039 64.000 C 178.238 64.000,178.400 64.247,178.400 64.549 C 178.400 65.743,186.764 72.800,188.179 72.800 C 188.467 72.800,188.914 73.056,189.174 73.369 C 189.434 73.682,190.401 74.062,191.323 74.215 C 192.245 74.368,193.333 74.668,193.739 74.881 C 194.747 75.412,196.865 75.667,200.200 75.662 C 203.153 75.657,203.528 75.598,205.326 74.861 C 205.945 74.608,206.755 74.398,207.126 74.396 C 207.497 74.394,208.700 73.950,209.800 73.409 C 210.900 72.868,212.031 72.419,212.313 72.413 C 212.594 72.406,212.929 72.130,213.055 71.800 C 213.182 71.470,213.515 71.200,213.795 71.200 C 214.553 71.200,221.069 64.483,221.795 62.955 C 222.139 62.228,222.597 61.526,222.811 61.393 C 223.025 61.261,223.200 60.708,223.200 60.164 C 223.200 59.620,223.469 59.072,223.798 58.946 C 224.126 58.819,224.296 58.555,224.174 58.358 C 224.052 58.161,224.127 58.000,224.341 58.000 C 224.555 58.000,224.686 57.705,224.633 57.345 C 224.536 56.681,224.954 53.826,225.417 52.000 C 225.833 50.358,225.912 47.600,225.544 47.600 C 225.355 47.600,225.231 47.465,225.268 47.300 C 225.306 47.135,225.215 46.190,225.067 45.200 C 224.918 44.210,224.748 42.950,224.688 42.400 C 224.629 41.850,224.469 41.220,224.333 41.000 C 224.198 40.780,223.413 39.340,222.589 37.800 C 221.764 36.260,220.845 34.856,220.545 34.680 C 220.245 34.504,220.000 34.175,220.000 33.950 C 220.000 33.411,215.197 28.792,213.737 27.926 C 213.111 27.555,212.038 26.961,211.352 26.605 C 210.665 26.249,209.895 25.562,209.639 25.079 C 209.384 24.596,209.262 24.506,209.367 24.880 C 209.500 25.350,209.381 25.491,208.980 25.337 C 208.661 25.214,208.400 24.954,208.400 24.757 C 208.400 24.162,190.906 24.303,190.665 24.900 C 190.504 25.300,190.457 25.300,190.432 24.900 C 190.387 24.190,189.600 24.277,189.600 24.992 M91.197 62.355 C 91.192 62.770,89.096 63.600,88.052 63.600 C 87.508 63.600,86.779 63.856,86.431 64.168 C 86.084 64.481,85.530 64.796,85.200 64.868 C 84.870 64.941,84.027 65.405,83.327 65.900 C 82.626 66.395,81.933 66.800,81.786 66.800 C 81.307 66.800,76.000 72.469,76.000 72.980 C 76.000 73.253,75.640 73.802,75.200 74.200 C 74.760 74.598,74.400 75.247,74.400 75.642 C 74.400 76.037,74.085 76.544,73.700 76.768 C 73.315 76.992,73.157 77.181,73.349 77.188 C 73.541 77.195,73.499 77.439,73.257 77.731 C 72.826 78.251,72.489 79.528,72.430 80.871 C 72.413 81.241,72.153 81.790,71.852 82.091 C 71.118 82.825,71.069 91.526,71.794 92.251 C 72.064 92.521,72.499 93.835,72.762 95.171 C 73.025 96.507,73.392 97.600,73.577 97.600 C 73.762 97.600,74.020 98.005,74.151 98.500 C 74.353 99.269,77.164 103.362,78.340 104.600 C 79.746 106.081,82.064 108.000,82.448 108.000 C 82.700 108.000,83.197 108.315,83.553 108.700 C 83.909 109.085,84.560 109.459,85.000 109.532 C 85.440 109.604,86.188 109.912,86.663 110.216 C 87.137 110.521,88.397 110.985,89.463 111.247 C 90.528 111.510,91.755 111.966,92.189 112.262 C 93.477 113.140,99.281 112.973,101.294 112.000 C 102.205 111.560,103.321 111.194,103.775 111.186 C 104.229 111.179,105.320 110.825,106.200 110.400 C 107.080 109.975,107.997 109.621,108.238 109.614 C 108.479 109.606,109.002 109.240,109.400 108.800 C 109.798 108.360,110.321 107.999,110.562 107.998 C 110.803 107.997,111.892 107.187,112.983 106.198 C 114.074 105.209,115.089 104.400,115.240 104.400 C 115.390 104.400,115.618 103.982,115.746 103.472 C 115.874 102.962,116.614 101.891,117.390 101.092 C 118.165 100.293,118.800 99.365,118.800 99.029 C 118.800 98.694,119.159 97.830,119.599 97.110 C 120.038 96.389,120.398 95.383,120.399 94.874 C 120.399 94.364,120.598 93.577,120.841 93.124 C 122.000 90.958,122.025 83.492,120.881 81.350 C 120.660 80.937,120.425 79.970,120.358 79.200 C 120.290 78.430,119.912 77.478,119.518 77.084 C 119.123 76.691,118.800 76.187,118.800 75.965 C 118.800 74.522,111.526 65.941,110.864 66.603 C 110.768 66.698,110.220 66.453,109.645 66.058 C 108.147 65.030,105.261 63.600,104.682 63.600 C 104.410 63.600,103.561 63.265,102.794 62.856 C 101.423 62.124,91.205 61.683,91.197 62.355 M296.800 62.775 C 295.590 63.200,294.189 63.559,293.687 63.574 C 293.186 63.588,292.676 63.859,292.554 64.176 C 292.433 64.492,291.827 64.862,291.208 64.998 C 290.589 65.134,289.766 65.595,289.379 66.023 C 288.993 66.450,288.441 66.800,288.153 66.800 C 287.649 66.800,282.800 71.330,282.800 71.801 C 282.800 72.075,281.121 74.508,280.725 74.808 C 280.458 75.011,278.777 78.600,278.575 79.400 C 278.424 79.995,278.106 81.956,277.812 84.100 C 277.668 85.145,277.427 86.000,277.275 86.000 C 276.841 86.000,276.982 88.116,277.475 89.000 C 277.720 89.440,277.912 89.890,277.902 90.000 C 277.891 90.110,278.030 91.280,278.211 92.600 C 278.391 93.920,278.507 95.135,278.469 95.300 C 278.431 95.465,278.591 95.600,278.824 95.600 C 279.057 95.600,279.136 95.780,279.000 96.000 C 278.864 96.220,278.924 96.400,279.133 96.400 C 279.342 96.400,279.625 96.844,279.761 97.386 C 279.897 97.928,280.591 99.203,281.304 100.219 C 282.017 101.235,282.814 102.457,283.075 102.933 C 284.078 104.761,290.845 110.000,292.204 110.000 C 292.478 110.000,292.926 110.270,293.200 110.600 C 293.477 110.934,294.349 111.200,295.169 111.200 C 295.978 111.200,296.854 111.414,297.116 111.676 C 298.208 112.768,304.892 113.163,306.879 112.252 C 307.605 111.919,308.994 111.442,309.964 111.191 C 310.934 110.940,312.104 110.498,312.564 110.209 C 313.024 109.920,313.850 109.552,314.400 109.391 C 314.950 109.230,315.670 108.846,316.000 108.537 C 316.330 108.228,317.050 107.611,317.600 107.164 C 320.269 104.999,323.246 101.758,324.004 100.192 C 324.467 99.235,325.024 98.392,325.241 98.320 C 325.457 98.248,325.714 97.561,325.811 96.794 C 325.907 96.027,326.215 95.220,326.493 95.000 C 327.168 94.467,327.215 93.958,327.203 87.200 C 327.191 80.263,327.139 79.656,326.526 79.278 C 326.265 79.117,325.989 78.513,325.912 77.937 C 325.835 77.360,325.575 76.644,325.336 76.344 C 325.096 76.045,324.604 75.218,324.243 74.507 C 323.202 72.457,315.800 65.200,314.750 65.200 C 314.507 65.200,313.654 64.868,312.854 64.462 C 308.214 62.106,300.896 61.337,296.800 62.775 M165.089 81.843 C 161.113 82.379,155.849 84.299,153.880 85.933 C 153.615 86.154,153.128 86.394,152.799 86.467 C 152.469 86.540,151.965 86.915,151.677 87.300 C 151.390 87.685,150.956 88.000,150.712 88.000 C 149.599 88.000,142.464 96.268,141.830 98.292 C 141.677 98.782,141.348 99.142,141.100 99.092 C 140.852 99.041,140.529 99.694,140.381 100.542 C 140.233 101.390,139.862 102.242,139.556 102.436 C 139.250 102.629,139.141 102.791,139.314 102.794 C 139.487 102.797,139.443 103.146,139.216 103.570 C 138.989 103.993,138.724 105.028,138.627 105.870 C 138.355 108.219,138.057 109.317,137.617 109.589 C 137.355 109.751,137.222 118.108,137.233 133.595 L 137.249 157.352 136.325 157.821 C 135.816 158.079,134.612 158.411,133.649 158.558 C 132.686 158.705,131.521 159.090,131.060 159.413 C 130.599 159.736,129.823 160.000,129.335 160.000 C 128.847 160.000,128.339 160.175,128.207 160.389 C 128.075 160.602,127.209 161.146,126.283 161.598 C 124.202 162.612,123.079 163.271,122.233 163.973 C 121.193 164.836,121.183 164.736,121.057 151.355 C 120.936 138.508,120.618 134.914,119.443 133.121 C 119.091 132.584,118.763 131.667,118.715 131.082 C 118.667 130.498,118.404 129.934,118.132 129.829 C 117.859 129.725,117.281 128.943,116.847 128.092 C 115.512 125.475,111.397 121.684,108.300 120.219 C 107.475 119.828,106.800 119.349,106.800 119.154 C 106.800 118.959,106.445 118.800,106.012 118.800 C 105.579 118.800,104.583 118.440,103.800 118.000 C 101.723 116.833,91.416 116.833,89.000 118.000 C 88.120 118.425,87.220 118.778,87.000 118.785 C 86.413 118.804,83.168 120.503,82.390 121.200 C 80.967 122.474,79.978 123.200,79.663 123.200 C 79.483 123.200,78.778 123.965,78.095 124.900 C 77.413 125.835,76.438 127.051,75.928 127.603 C 74.723 128.905,72.959 132.590,72.626 134.500 C 72.482 135.325,72.222 136.000,72.049 136.000 C 71.486 136.000,71.477 136.537,71.341 175.200 C 71.268 196.210,71.206 213.565,71.204 213.767 C 71.202 213.968,71.094 214.027,70.965 213.898 C 70.835 213.768,70.250 214.212,69.665 214.884 C 69.079 215.557,66.669 218.096,64.308 220.528 L 60.016 224.949 59.986 210.375 C 59.953 194.554,59.939 194.000,59.599 194.000 C 59.473 194.000,59.345 193.685,59.314 193.300 C 59.175 191.552,58.803 190.346,58.226 189.769 C 57.882 189.425,57.600 188.806,57.600 188.395 C 57.600 187.984,57.424 187.539,57.210 187.406 C 56.995 187.273,56.188 186.228,55.415 185.082 C 53.583 182.366,51.484 180.000,50.905 180.000 C 50.652 180.000,50.165 179.600,49.823 179.111 C 49.480 178.622,49.200 178.359,49.200 178.525 C 49.200 178.692,48.528 178.372,47.707 177.814 C 46.886 177.256,45.905 176.800,45.527 176.800 C 45.149 176.800,44.695 176.542,44.519 176.227 C 44.342 175.911,43.308 175.547,42.221 175.416 C 41.134 175.286,39.514 174.945,38.622 174.659 C 36.770 174.066,32.829 174.127,31.260 174.772 C 30.677 175.012,29.541 175.261,28.735 175.326 C 27.929 175.391,27.029 175.629,26.735 175.855 C 26.441 176.081,25.570 176.506,24.800 176.799 C 24.030 177.092,23.130 177.545,22.800 177.805 C 22.470 178.065,21.885 178.390,21.500 178.527 C 21.115 178.663,20.800 178.948,20.800 179.160 C 20.800 179.373,20.431 179.663,19.980 179.806 C 19.170 180.064,16.400 182.593,16.400 183.076 C 16.400 183.214,15.674 184.268,14.786 185.419 C 13.898 186.570,13.092 187.923,12.995 188.426 C 12.898 188.930,12.608 189.534,12.351 189.771 C 12.005 190.087,11.967 190.053,12.203 189.638 C 12.418 189.262,12.371 189.171,12.062 189.362 C 11.808 189.519,11.600 190.222,11.600 190.925 C 11.600 191.628,11.245 193.443,10.811 194.960 C 10.051 197.618,10.022 199.135,10.006 237.110 C 9.988 278.979,9.978 279.200,8.154 279.200 C 7.693 279.200,7.600 281.357,7.600 292.000 C 7.600 303.111,7.679 304.800,8.200 304.800 C 8.530 304.800,8.822 305.070,8.850 305.400 C 8.955 306.662,9.011 306.837,9.401 307.115 C 9.621 307.272,10.056 307.895,10.368 308.500 C 10.680 309.105,11.085 309.600,11.268 309.600 C 11.450 309.600,11.600 309.834,11.600 310.119 C 11.600 310.405,12.320 311.388,13.200 312.304 C 14.080 313.220,14.800 314.058,14.800 314.166 C 14.800 314.421,16.775 316.400,17.030 316.400 C 17.136 316.400,18.117 317.106,19.208 317.969 C 20.300 318.832,22.230 320.038,23.497 320.650 C 24.763 321.262,25.907 321.916,26.037 322.104 C 26.168 322.291,26.947 322.528,27.769 322.630 C 28.590 322.732,29.907 323.085,30.695 323.414 C 31.939 323.934,38.615 324.015,81.563 324.033 C 108.754 324.044,131.315 324.178,131.700 324.332 C 132.347 324.589,132.407 325.773,132.500 340.034 C 132.591 354.110,132.661 355.519,133.300 356.157 C 133.685 356.542,134.000 357.097,134.000 357.391 C 134.000 359.287,139.580 363.813,142.354 364.167 C 143.319 364.291,144.342 364.586,144.628 364.824 C 144.975 365.111,145.392 365.126,145.874 364.868 C 146.273 364.655,147.320 364.368,148.200 364.231 C 150.402 363.887,151.270 363.587,151.910 362.947 C 152.211 362.646,152.702 362.400,153.002 362.400 C 153.301 362.400,153.660 362.040,153.800 361.600 C 153.940 361.160,154.316 360.800,154.637 360.800 C 154.957 360.800,155.407 360.309,155.635 359.708 C 155.863 359.108,156.251 358.492,156.497 358.340 C 156.743 358.188,156.991 357.825,157.048 357.532 C 157.427 355.609,157.630 355.029,158.004 354.798 C 158.286 354.623,158.455 349.495,158.513 339.368 L 158.600 324.200 160.886 324.080 L 163.173 323.961 163.342 345.280 C 163.435 357.006,163.517 368.625,163.524 371.100 L 163.537 375.600 199.369 375.600 L 235.200 375.600 235.206 368.700 C 235.210 364.905,235.255 353.340,235.306 343.000 L 235.400 324.200 237.743 324.200 L 240.087 324.200 240.072 336.800 C 240.064 343.730,240.223 350.120,240.426 351.000 C 240.629 351.880,241.065 353.770,241.396 355.199 C 241.726 356.629,242.178 357.859,242.398 357.933 C 242.619 358.006,242.800 358.314,242.800 358.616 C 242.800 358.919,243.492 359.894,244.338 360.783 L 245.876 362.400 253.578 362.400 L 261.279 362.400 262.466 361.130 C 263.118 360.431,263.910 359.360,264.226 358.750 C 264.542 358.139,265.049 357.496,265.353 357.320 C 265.657 357.144,265.999 356.280,266.113 355.400 C 266.228 354.520,266.415 353.440,266.530 353.000 C 266.645 352.560,266.762 352.110,266.791 352.000 C 266.949 351.396,266.766 325.432,266.602 325.269 C 265.364 324.031,266.951 323.991,317.255 324.005 C 360.036 324.016,367.365 323.935,368.322 323.440 C 368.936 323.123,370.221 322.746,371.176 322.604 C 372.131 322.461,373.170 322.087,373.485 321.772 C 373.800 321.458,374.494 321.200,375.029 321.200 C 375.563 321.200,376.000 321.059,376.000 320.886 C 376.000 320.714,376.585 320.237,377.300 319.826 C 378.015 319.415,379.350 318.477,380.267 317.740 C 381.184 317.003,382.129 316.400,382.367 316.400 C 382.605 316.400,382.801 316.265,382.802 316.100 C 382.804 315.935,383.704 314.824,384.802 313.632 C 385.901 312.440,386.800 311.337,386.800 311.181 C 386.800 311.025,387.080 310.665,387.423 310.381 C 387.766 310.096,388.297 309.264,388.603 308.532 C 388.909 307.799,389.326 307.200,389.530 307.200 C 389.733 307.200,390.004 306.682,390.130 306.048 C 390.257 305.415,390.631 304.626,390.961 304.296 C 391.292 303.966,391.450 303.584,391.314 303.448 C 391.178 303.311,391.412 303.197,391.833 303.194 C 392.484 303.189,392.510 303.124,392.000 302.763 C 391.548 302.444,391.524 302.289,391.900 302.136 C 392.537 301.878,392.636 282.000,392.000 282.000 C 391.780 282.000,391.600 281.659,391.600 281.243 C 391.600 280.826,391.347 280.388,391.038 280.270 C 390.728 280.151,390.350 279.482,390.196 278.783 C 390.043 278.084,389.643 277.192,389.308 276.801 C 388.771 276.174,388.708 271.526,388.773 237.288 C 388.838 203.125,388.773 198.310,388.230 197.011 C 387.693 195.726,387.238 193.508,387.012 191.081 C 386.976 190.686,386.662 190.031,386.314 189.625 C 385.967 189.219,385.563 188.343,385.417 187.677 C 385.271 187.011,384.892 186.367,384.576 186.246 C 384.259 186.124,384.000 185.868,384.000 185.675 C 384.000 185.051,380.634 181.345,378.246 179.340 C 376.684 178.029,371.478 175.574,369.823 175.369 C 369.013 175.268,367.957 174.949,367.475 174.658 C 366.410 174.016,360.589 174.057,359.359 174.715 C 358.898 174.962,357.692 175.240,356.679 175.334 C 355.667 175.428,354.547 175.796,354.191 176.152 C 353.834 176.509,353.106 176.800,352.571 176.800 C 352.037 176.800,351.600 176.958,351.600 177.150 C 351.600 177.343,351.076 177.754,350.435 178.064 C 349.008 178.756,344.340 183.098,343.346 184.659 C 342.946 185.287,342.403 185.936,342.140 186.103 C 341.876 186.270,341.440 187.080,341.172 187.903 C 340.904 188.726,340.517 189.509,340.312 189.642 C 340.107 189.776,339.838 190.676,339.715 191.642 C 339.591 192.609,339.235 193.904,338.924 194.520 C 338.333 195.692,338.078 221.179,338.636 223.402 C 338.774 223.951,338.776 224.400,338.641 224.400 C 338.386 224.400,331.600 217.637,331.600 217.382 C 331.600 217.160,329.832 215.440,328.636 214.500 L 327.571 213.662 327.446 175.731 C 327.318 137.127,327.290 135.963,326.469 135.690 C 326.211 135.604,326.000 134.943,326.000 134.221 C 326.000 133.499,325.631 132.438,325.179 131.864 C 324.727 131.290,324.290 130.469,324.207 130.039 C 324.125 129.609,323.684 128.884,323.228 128.428 C 322.773 127.973,322.400 127.420,322.400 127.200 C 322.400 126.265,315.730 120.325,314.474 120.140 C 314.175 120.096,313.616 119.777,313.233 119.430 C 312.850 119.084,312.189 118.800,311.763 118.800 C 311.337 118.800,310.287 118.424,309.431 117.965 C 307.323 116.836,296.471 116.935,294.695 118.100 C 294.108 118.485,293.264 118.800,292.819 118.800 C 292.373 118.800,291.641 119.115,291.192 119.500 C 290.742 119.885,290.245 120.202,290.087 120.205 C 288.641 120.229,281.904 126.735,281.449 128.545 C 281.304 129.125,280.908 129.600,280.569 129.600 C 280.230 129.600,280.064 129.780,280.200 130.000 C 280.336 130.220,280.246 130.400,280.000 130.400 C 279.754 130.400,279.668 130.586,279.808 130.813 C 279.949 131.040,279.672 131.890,279.194 132.701 C 278.676 133.578,278.243 135.142,278.123 136.563 C 278.013 137.877,277.749 139.408,277.537 139.966 C 277.129 141.038,277.057 161.890,277.455 163.478 C 277.625 164.154,277.515 164.400,277.043 164.400 C 276.690 164.400,276.400 164.228,276.400 164.017 C 276.400 163.806,275.316 163.105,273.991 162.458 C 272.666 161.812,271.296 161.046,270.947 160.756 C 270.597 160.466,269.862 160.168,269.312 160.095 C 268.762 160.021,267.859 159.664,267.305 159.301 C 266.751 158.938,265.466 158.574,264.449 158.493 C 261.386 158.247,261.597 160.050,261.441 132.776 C 261.298 107.839,261.264 106.818,260.526 105.400 C 260.298 104.960,259.985 104.060,259.832 103.400 C 259.434 101.686,258.059 98.904,256.523 96.704 C 255.796 95.661,255.200 94.705,255.200 94.579 C 255.200 94.363,249.601 88.909,247.754 87.325 C 247.289 86.926,246.659 86.541,246.354 86.468 C 246.049 86.396,245.530 86.095,245.200 85.800 C 244.870 85.504,244.103 85.138,243.495 84.987 C 242.887 84.835,242.250 84.462,242.080 84.157 C 241.910 83.853,241.228 83.541,240.566 83.464 C 239.903 83.387,238.838 82.981,238.198 82.562 C 237.089 81.835,235.820 81.795,210.218 81.698 C 195.468 81.642,180.020 81.552,175.889 81.498 C 171.758 81.444,166.898 81.599,165.089 81.843 M27.400 121.011 C 26.300 121.551,25.107 121.994,24.749 121.996 C 24.391 121.998,23.874 122.270,23.600 122.600 C 23.326 122.930,22.924 123.200,22.707 123.200 C 21.698 123.200,15.451 129.103,14.981 130.500 C 14.852 130.885,14.578 131.200,14.373 131.200 C 14.168 131.200,14.000 131.470,14.000 131.800 C 14.000 132.130,13.843 132.400,13.650 132.400 C 13.458 132.400,13.196 132.918,13.070 133.552 C 12.943 134.185,12.548 134.995,12.191 135.352 C 11.835 135.708,11.641 136.000,11.762 136.000 C 11.882 136.000,11.790 136.495,11.557 137.100 C 10.584 139.632,9.713 147.200,10.396 147.200 C 10.551 147.200,10.700 147.695,10.726 148.300 C 10.837 150.855,12.219 155.200,12.921 155.200 C 13.101 155.200,13.149 155.359,13.029 155.553 C 12.909 155.747,13.259 156.564,13.806 157.370 C 14.353 158.176,14.804 158.963,14.810 159.118 C 14.838 159.911,22.236 166.400,23.111 166.400 C 23.312 166.400,23.798 166.756,24.191 167.191 C 24.585 167.625,25.069 167.881,25.267 167.759 C 25.464 167.637,26.295 167.945,27.113 168.445 C 28.938 169.560,43.200 169.827,43.200 168.746 C 43.200 168.590,43.875 168.244,44.700 167.978 C 45.525 167.711,46.740 167.210,47.400 166.863 C 48.060 166.517,48.690 166.219,48.800 166.202 C 49.529 166.087,56.000 159.631,56.000 159.018 C 56.000 158.784,56.360 158.368,56.800 158.093 C 57.240 157.818,57.600 157.367,57.600 157.091 C 57.600 156.814,57.960 155.916,58.400 155.096 C 58.840 154.275,59.200 153.253,59.200 152.825 C 59.200 152.397,59.383 151.934,59.607 151.796 C 59.830 151.658,59.909 151.377,59.783 151.172 C 59.656 150.968,59.754 150.800,60.000 150.800 C 60.246 150.800,60.336 150.620,60.200 150.400 C 60.064 150.180,60.114 150.000,60.311 150.000 C 60.934 150.000,60.763 139.921,60.123 138.941 C 59.814 138.469,59.472 137.569,59.362 136.941 C 59.252 136.314,58.730 134.966,58.201 133.946 C 57.673 132.927,57.339 131.994,57.459 131.874 C 57.580 131.754,57.300 131.420,56.839 131.131 C 56.378 130.843,56.000 130.472,56.000 130.307 C 56.000 129.453,49.013 123.200,48.059 123.200 C 47.854 123.200,47.591 122.953,47.475 122.651 C 47.359 122.348,46.581 121.973,45.745 121.816 C 44.910 121.659,43.771 121.215,43.214 120.827 C 41.423 119.584,30.039 119.716,27.400 121.011 M355.400 121.008 C 354.300 121.550,353.079 121.994,352.687 121.996 C 352.296 121.998,351.871 122.270,351.745 122.600 C 351.618 122.930,351.280 123.200,350.993 123.200 C 350.474 123.200,346.311 126.287,346.077 126.845 C 346.009 127.007,345.156 127.995,344.181 129.043 C 343.205 130.090,342.304 131.274,342.177 131.673 C 342.050 132.073,341.817 132.400,341.658 132.400 C 341.500 132.400,341.341 132.783,341.306 133.252 C 341.271 133.720,340.905 134.485,340.494 134.952 C 340.082 135.418,339.696 136.507,339.636 137.370 C 339.576 138.234,339.260 139.348,338.933 139.846 C 338.081 141.147,338.102 147.863,338.963 149.529 C 339.314 150.206,339.600 151.309,339.600 151.980 C 339.600 153.142,341.237 156.734,342.300 157.906 C 342.575 158.209,342.805 158.579,342.811 158.729 C 342.817 158.878,343.539 159.810,344.416 160.800 C 347.214 163.960,347.718 164.402,350.066 165.758 C 351.092 166.351,352.148 167.096,352.411 167.414 C 352.675 167.731,353.052 167.891,353.250 167.769 C 353.448 167.647,354.553 167.987,355.705 168.525 C 357.696 169.454,358.109 169.496,364.000 169.363 C 370.940 169.207,371.200 169.185,371.200 168.772 C 371.200 168.377,373.606 167.557,374.018 167.811 C 374.198 167.922,374.830 167.563,375.423 167.014 C 376.016 166.465,376.649 166.107,376.830 166.219 C 377.012 166.331,377.355 166.057,377.594 165.611 C 377.833 165.165,378.223 164.800,378.461 164.800 C 380.496 164.800,384.969 158.520,387.854 151.613 C 388.881 149.153,388.933 140.500,387.933 138.400 C 387.566 137.630,387.142 136.327,386.989 135.504 C 386.837 134.680,386.570 134.095,386.395 134.203 C 386.221 134.311,385.890 133.859,385.660 133.200 C 385.430 132.540,385.347 132.000,385.476 132.000 C 385.604 132.000,384.875 131.108,383.855 130.017 C 382.835 128.927,382.000 127.879,382.000 127.689 C 382.000 127.277,376.609 123.200,376.065 123.200 C 375.856 123.200,375.591 122.953,375.475 122.651 C 375.359 122.348,374.625 121.981,373.845 121.835 C 373.064 121.688,372.118 121.261,371.742 120.884 C 370.489 119.631,358.006 119.726,355.400 121.008 M235.847 121.931 C 236.218 122.737,236.194 122.101,236.586 141.123 L 236.902 156.445 234.751 156.323 L 232.600 156.200 232.513 139.505 L 232.425 122.809 233.471 121.839 C 234.582 120.809,235.343 120.839,235.847 121.931 M164.640 121.506 C 165.797 122.279,165.918 123.809,165.972 138.400 C 166.002 146.650,166.049 153.670,166.077 154.000 C 166.261 156.234,166.083 156.449,164.164 156.322 L 162.328 156.200 162.264 139.200 C 162.194 120.695,162.296 119.941,164.640 121.506 M255.800 166.120 C 259.987 166.549,261.200 166.796,261.200 167.218 C 261.200 167.428,261.335 167.579,261.500 167.553 C 261.665 167.527,261.890 167.539,262.000 167.580 C 262.110 167.621,262.790 167.731,263.511 167.825 C 264.232 167.919,265.244 168.273,265.761 168.611 C 266.278 168.950,267.115 169.307,267.621 169.404 C 268.127 169.501,268.651 169.758,268.785 169.975 C 268.918 170.192,269.697 170.648,270.514 170.990 C 271.331 171.331,272.000 171.788,272.000 172.005 C 272.000 172.222,272.235 172.400,272.522 172.400 C 272.809 172.400,273.754 173.066,274.622 173.881 C 275.490 174.695,276.295 175.370,276.412 175.381 C 276.727 175.409,379.686 278.512,380.500 279.614 C 380.885 280.136,381.200 280.957,381.200 281.439 C 381.200 281.920,381.470 282.418,381.800 282.545 C 382.130 282.671,382.400 283.139,382.400 283.583 C 382.400 284.028,382.760 285.338,383.200 286.496 C 384.077 288.803,384.371 296.524,383.600 297.000 C 383.380 297.136,383.200 297.597,383.200 298.024 C 383.200 298.451,383.065 298.800,382.900 298.801 C 382.735 298.801,382.580 299.360,382.555 300.043 C 382.531 300.726,382.320 301.402,382.087 301.546 C 381.854 301.690,381.545 302.281,381.399 302.860 C 381.254 303.439,380.700 304.291,380.168 304.753 C 379.635 305.216,379.200 305.787,379.200 306.022 C 379.200 306.256,378.012 307.608,376.560 309.024 C 374.225 311.303,373.457 311.853,373.100 311.502 C 373.045 311.447,372.415 311.820,371.700 312.329 C 370.985 312.838,369.995 313.301,369.500 313.357 C 369.005 313.413,368.024 313.761,367.320 314.130 C 366.142 314.746,362.057 314.800,316.369 314.800 L 266.699 314.800 266.888 290.635 C 267.027 272.852,266.955 266.170,266.613 265.335 C 266.359 264.711,266.100 263.303,266.039 262.207 C 265.978 261.110,265.758 259.895,265.550 259.507 C 265.342 259.118,265.281 258.800,265.414 258.800 C 265.548 258.800,265.374 258.517,265.029 258.171 C 264.683 257.826,264.400 257.269,264.400 256.934 C 264.400 255.890,261.027 249.204,260.500 249.202 C 260.225 249.201,260.000 249.048,260.000 248.862 C 260.000 248.676,259.550 248.001,259.000 247.362 C 258.451 246.723,258.001 246.047,258.000 245.860 C 258.000 245.373,255.361 242.800,254.863 242.800 C 254.633 242.800,254.162 242.395,253.815 241.900 C 253.468 241.405,253.098 241.045,252.993 241.100 C 252.887 241.154,251.908 240.558,250.818 239.775 C 249.728 238.991,248.693 238.349,248.518 238.346 C 248.343 238.344,247.639 237.995,246.953 237.571 C 246.267 237.147,245.436 236.800,245.107 236.800 C 244.777 236.800,244.050 236.440,243.491 236.000 C 242.931 235.560,241.919 235.200,241.241 235.200 C 240.563 235.200,239.071 234.844,237.925 234.408 C 235.799 233.600,163.427 233.106,162.639 233.894 C 162.284 234.249,158.855 235.159,157.785 235.182 C 157.336 235.192,156.263 235.560,155.400 236.000 C 154.537 236.440,153.518 236.800,153.135 236.800 C 152.753 236.800,152.287 237.073,152.100 237.408 C 151.913 237.742,151.336 238.097,150.817 238.197 C 150.299 238.297,149.453 238.774,148.937 239.259 C 148.422 239.743,148.000 240.018,148.000 239.870 C 148.000 239.721,147.677 239.915,147.283 240.300 C 146.661 240.906,145.753 241.619,144.200 242.717 C 143.738 243.044,141.456 245.675,140.000 247.561 C 139.450 248.273,138.685 249.203,138.300 249.628 C 137.915 250.053,137.600 250.552,137.600 250.738 C 137.600 250.924,137.166 251.581,136.636 252.198 C 136.105 252.815,135.759 253.549,135.867 253.829 C 135.974 254.109,135.733 254.671,135.331 255.078 C 134.929 255.484,134.538 256.263,134.463 256.809 C 134.387 257.354,133.903 259.016,133.386 260.502 L 132.448 263.203 132.425 288.902 C 132.413 303.036,132.402 314.690,132.401 314.800 C 132.397 315.437,32.727 314.770,31.744 314.126 C 31.186 313.761,30.172 313.401,29.491 313.326 C 28.810 313.252,27.971 312.960,27.626 312.678 C 27.282 312.396,26.505 311.918,25.900 311.615 C 25.295 311.312,24.800 310.915,24.800 310.732 C 24.800 310.550,24.587 310.400,24.327 310.400 C 23.732 310.400,18.870 305.251,18.569 304.302 C 18.446 303.916,18.178 303.600,17.973 303.600 C 17.768 303.600,17.600 303.150,17.600 302.600 C 17.600 302.050,17.439 301.600,17.243 301.600 C 16.793 301.600,16.392 300.582,16.170 298.871 C 16.075 298.141,15.840 297.241,15.647 296.871 C 15.110 295.843,15.083 288.566,15.612 287.578 C 15.864 287.107,16.151 286.071,16.249 285.276 C 16.348 284.480,16.575 283.733,16.753 283.615 C 16.931 283.497,17.203 282.887,17.356 282.259 C 17.510 281.632,18.358 280.162,19.240 278.993 C 20.569 277.233,115.841 181.238,122.800 174.648 C 124.060 173.455,127.878 170.800,128.335 170.800 C 128.523 170.800,129.093 170.440,129.600 170.000 C 130.107 169.560,131.026 169.200,131.641 169.200 C 132.257 169.200,132.910 168.933,133.093 168.606 C 133.275 168.280,133.959 167.952,134.612 167.879 C 135.266 167.805,136.191 167.534,136.668 167.275 C 137.692 166.722,139.206 166.472,142.930 166.242 C 144.432 166.149,145.768 165.966,145.898 165.835 C 146.236 165.498,252.416 165.773,255.800 166.120 M194.000 171.224 C 194.000 171.457,193.832 171.544,193.628 171.417 C 193.423 171.291,193.155 171.349,193.032 171.548 C 192.909 171.747,192.198 172.024,191.451 172.164 C 186.814 173.034,175.600 181.824,175.600 184.588 C 175.600 184.842,175.275 185.398,174.878 185.825 C 174.480 186.251,174.112 186.780,174.060 187.000 C 174.008 187.220,173.859 187.850,173.729 188.400 C 173.599 188.950,173.276 189.670,173.012 190.000 C 172.748 190.330,172.486 191.500,172.430 192.600 C 172.373 193.700,172.074 195.206,171.764 195.947 C 171.230 197.227,171.248 199.326,171.814 201.600 C 171.951 202.150,172.139 203.230,172.231 204.000 C 172.477 206.061,173.259 208.800,173.602 208.800 C 173.766 208.800,174.004 209.319,174.131 209.954 C 174.389 211.243,176.821 215.143,178.300 216.637 C 178.575 216.915,178.800 217.232,178.800 217.341 C 178.800 217.686,181.246 220.000,181.611 220.000 C 181.803 220.000,182.104 220.225,182.280 220.500 C 182.456 220.775,182.960 221.217,183.400 221.482 C 186.175 223.154,188.612 224.504,188.977 224.571 C 190.070 224.772,191.200 225.286,191.200 225.582 C 191.200 226.221,201.606 226.832,203.400 226.299 C 203.840 226.168,204.952 226.047,205.871 226.031 C 206.854 226.013,207.814 225.729,208.201 225.342 C 208.563 224.980,209.311 224.634,209.863 224.573 C 210.416 224.513,211.167 224.200,211.534 223.879 C 211.900 223.558,212.584 223.178,213.052 223.035 C 213.521 222.893,214.270 222.467,214.715 222.088 C 215.161 221.710,215.931 221.130,216.428 220.800 C 217.724 219.938,223.448 214.000,222.983 214.000 C 222.877 214.000,223.245 213.278,223.802 212.397 C 224.870 210.706,226.532 206.800,226.184 206.800 C 226.071 206.800,226.293 206.215,226.676 205.500 C 227.747 203.502,227.817 191.972,226.755 192.628 C 226.560 192.749,226.385 192.522,226.367 192.124 C 226.289 190.405,225.906 188.959,225.373 188.370 C 225.058 188.022,224.800 187.359,224.800 186.897 C 224.800 186.435,224.504 185.761,224.142 185.400 C 223.260 184.518,221.909 182.462,221.281 181.048 C 221.000 180.415,220.675 179.992,220.558 180.108 C 220.442 180.225,219.703 179.677,218.917 178.890 C 216.330 176.304,210.543 172.794,208.000 172.271 C 207.450 172.158,206.280 171.788,205.400 171.450 C 203.483 170.713,194.000 170.525,194.000 171.224 M162.546 277.155 C 163.149 277.656,163.134 277.101,163.198 300.348 C 163.220 308.349,163.184 314.928,163.119 314.968 C 163.053 315.007,161.966 314.969,160.703 314.883 L 158.405 314.726 158.423 295.971 C 158.440 279.285,158.512 277.177,159.075 276.862 C 159.890 276.406,161.842 276.571,162.546 277.155 M239.626 277.066 C 239.826 277.266,239.996 285.631,240.010 296.012 L 240.035 314.600 237.918 314.838 C 236.753 314.969,235.660 315.000,235.490 314.908 C 234.702 314.482,235.206 278.500,236.014 277.473 C 236.797 276.478,238.811 276.251,239.626 277.066 " stroke="none" fill="#555555" fill-rule="evenodd"></path></g></svg>