<svg style="display: block;" id="svg" version="1.1" width="1000" height="1000" xmlns="http://www.w3.org/2000/svg" xmlns:xlink="http://www.w3.org/1999/xlink"><g id="svgg"><path id="path0" d="M194.200 7.044 C 131.575 10.798,103.425 55.394,118.210 127.430 C 129.648 183.162,158.200 212.845,200.320 212.792 C 240.116 212.743,267.742 186.125,280.204 135.822 C 293.051 83.962,284.384 44.042,255.683 22.872 C 240.525 11.692,217.130 5.670,194.200 7.044 M128.624 204.863 C 123.434 207.515,115.316 210.668,103.000 214.814 C 89.992 219.193,86.038 220.776,81.400 223.464 C 62.713 234.292,53.991 255.029,46.226 307.097 C 43.792 323.414,42.658 336.047,42.626 347.204 L 42.600 356.208 43.934 358.921 C 46.300 363.736,49.216 365.440,63.209 370.185 C 93.282 380.384,136.890 388.954,175.600 392.274 C 219.086 396.004,286.935 386.874,335.330 370.779 C 350.621 365.694,354.098 363.740,356.480 358.894 L 357.800 356.208 357.759 347.204 C 357.617 316.210,348.252 265.446,339.173 246.450 C 330.927 229.198,323.542 223.605,297.400 214.811 C 285.339 210.754,277.461 207.704,271.514 204.791 L 268.028 203.083 264.320 206.611 C 246.144 223.908,226.194 231.767,200.400 231.790 C 174.265 231.814,154.406 224.051,136.142 206.670 C 131.904 202.637,132.636 202.813,128.624 204.863 " stroke="none" fill="#ffffff" fill-rule="evenodd"></path></g></svg>