<svg id="svg" version="1.1" width="500" height="500" xmlns="http://www.w3.org/2000/svg" xmlns:xlink="http://www.w3.org/1999/xlink" style="display: block;"><g id="svgg"><path id="path0" d="M187.412 10.833 C 177.761 13.432,176.376 14.584,143.833 47.079 C 109.365 81.496,109.262 81.630,107.192 94.505 C 102.869 121.403,131.181 144.788,156.441 135.184 C 160.095 133.795,160.857 134.260,169.781 143.312 L 178.566 152.223 98.588 232.312 C 16.602 314.411,14.881 316.248,12.054 324.641 C 2.492 353.025,29.622 380.948,58.400 372.341 C 67.137 369.728,68.506 368.453,150.884 286.202 L 231.768 205.443 241.164 214.522 L 250.560 223.600 248.880 228.575 C 238.426 259.532,271.391 287.675,301.494 273.492 C 310.299 269.344,366.539 212.710,370.831 203.670 C 385.068 173.686,356.356 141.216,325.056 151.902 L 320.911 153.316 275.949 108.349 L 230.988 63.382 232.343 59.491 C 242.065 31.594,215.827 3.181,187.412 10.833 M202.095 36.499 C 207.690 39.154,210.327 46.541,207.675 52.129 C 205.709 56.271,152.311 109.218,148.488 110.815 C 138.831 114.850,129.083 104.631,133.454 95.054 C 135.227 91.168,187.361 38.616,191.600 36.441 C 194.707 34.847,198.661 34.869,202.095 36.499 M258.205 126.605 L 301.604 170.010 284.400 187.200 L 267.196 204.390 223.600 160.800 L 180.004 117.210 196.995 100.205 C 206.340 90.852,214.170 83.200,214.396 83.200 C 214.621 83.200,234.335 102.732,258.205 126.605 M135.197 266.037 C 91.859 309.395,55.180 345.634,53.690 346.568 C 43.676 352.843,30.986 340.508,37.222 330.561 C 37.967 329.373,74.267 292.855,117.888 249.412 L 197.200 170.423 205.597 178.813 L 213.994 187.203 135.197 266.037 M343.838 177.284 C 347.372 179.597,348.916 183.161,348.589 188.250 L 348.291 192.901 319.945 221.330 C 304.212 237.110,290.455 250.258,289.026 250.880 C 279.188 255.160,268.912 244.039,273.948 234.560 C 275.842 230.993,329.697 177.794,332.800 176.424 C 335.993 175.015,340.962 175.402,343.838 177.284 M248.000 315.753 C 231.258 318.555,218.823 331.924,216.683 349.423 C 214.004 371.322,216.479 385.309,223.653 388.812 C 228.283 391.073,379.079 391.327,383.440 389.082 C 390.317 385.540,390.567 384.529,390.254 361.484 L 390.000 342.709 386.998 336.639 C 382.070 326.674,372.863 319.263,361.845 316.393 C 357.499 315.261,254.402 314.681,248.000 315.753 M359.742 342.847 C 363.732 345.756,365.600 350.644,365.600 358.170 L 365.600 364.800 303.600 364.800 L 241.600 364.800 241.635 358.600 C 241.688 349.242,243.951 344.249,249.200 341.913 C 253.788 339.871,356.855 340.741,359.742 342.847 " stroke="none" fill="#dfaf46" fill-rule="evenodd"></path></g></svg>