<svg style="display: block;" id="svg" version="1.1" width="500" height="609" xmlns="http://www.w3.org/2000/svg" xmlns:xlink="http://www.w3.org/1999/xlink"><g id="svgg"><path id="path0" d="M53.461 11.286 C 52.919 11.621,52.165 11.702,51.785 11.467 C 51.405 11.232,50.551 11.706,49.887 12.520 C 49.224 13.334,48.909 13.550,49.188 13.000 C 49.808 11.775,48.307 11.655,47.557 12.870 C 47.261 13.348,46.340 13.562,45.510 13.345 C 44.679 13.127,44.000 13.276,44.000 13.675 C 44.000 14.074,43.504 14.400,42.898 14.400 C 42.292 14.400,41.334 14.956,40.770 15.636 C 40.205 16.316,39.320 16.710,38.803 16.512 C 38.285 16.313,36.763 17.177,35.421 18.432 C 34.078 19.687,32.777 20.510,32.529 20.262 C 32.281 20.014,31.836 20.775,31.540 21.953 C 31.185 23.369,30.615 23.947,29.860 23.657 C 29.221 23.412,28.934 23.570,29.209 24.015 C 29.480 24.453,29.118 25.035,28.405 25.309 C 27.692 25.583,27.305 26.319,27.545 26.945 C 27.787 27.575,27.629 27.865,27.191 27.594 C 26.756 27.326,26.400 27.508,26.400 28.000 C 26.400 28.492,25.950 28.635,25.400 28.319 C 24.850 28.002,24.671 28.042,25.002 28.407 C 25.333 28.772,25.109 29.639,24.505 30.335 C 23.900 31.031,22.772 33.580,21.997 36.000 C 21.222 38.420,20.247 40.832,19.830 41.359 C 19.413 41.887,19.171 43.697,19.293 45.382 C 19.415 47.066,19.245 48.880,18.916 49.413 C 18.109 50.718,18.454 59.108,19.417 61.600 C 19.842 62.700,20.314 64.817,20.466 66.305 C 20.618 67.793,21.367 69.700,22.130 70.544 C 22.893 71.387,23.600 72.637,23.700 73.322 C 23.801 74.007,24.629 75.090,25.541 75.729 C 26.454 76.368,27.200 77.372,27.200 77.960 C 27.200 78.548,27.792 79.256,28.515 79.533 C 29.237 79.811,29.595 80.272,29.308 80.559 C 28.561 81.305,32.931 84.005,33.950 83.426 C 34.418 83.161,34.559 83.212,34.265 83.540 C 33.464 84.434,36.700 87.802,38.888 88.351 C 39.940 88.615,40.800 89.184,40.800 89.615 C 40.800 90.047,41.499 90.400,42.353 90.400 C 43.207 90.400,44.103 90.720,44.345 91.112 C 44.765 91.790,49.204 92.775,52.217 92.858 C 53.094 92.882,53.417 93.260,53.064 93.848 C 52.647 94.544,52.819 94.536,53.705 93.819 C 54.649 93.056,55.131 93.051,55.879 93.799 C 56.615 94.535,57.190 94.541,58.334 93.827 C 59.155 93.314,60.077 93.143,60.381 93.447 C 61.129 94.194,66.400 94.230,66.400 93.489 C 66.400 93.165,67.030 92.911,67.800 92.925 C 69.638 92.958,72.553 92.249,73.803 91.465 C 74.351 91.121,75.430 90.944,76.200 91.070 C 76.970 91.197,77.600 90.897,77.600 90.403 C 77.600 89.909,78.016 89.762,78.524 90.076 C 79.060 90.408,79.231 90.298,78.932 89.814 C 78.649 89.356,78.954 88.536,79.609 87.993 C 80.558 87.205,80.800 87.212,80.800 88.026 C 80.800 88.787,81.158 88.740,82.200 87.846 C 82.970 87.184,84.282 86.400,85.115 86.103 C 85.947 85.806,86.427 85.360,86.180 85.114 C 85.502 84.435,88.190 81.600,89.511 81.600 C 90.147 81.600,90.457 81.390,90.200 81.133 C 89.943 80.877,90.333 80.031,91.067 79.254 C 94.040 76.102,95.224 74.286,94.777 73.563 C 94.518 73.143,94.856 72.800,95.528 72.800 C 96.285 72.800,96.575 72.344,96.289 71.600 C 96.036 70.940,96.227 70.400,96.714 70.400 C 97.201 70.400,97.600 69.680,97.600 68.800 C 97.600 67.920,98.050 67.194,98.600 67.188 C 99.349 67.179,99.332 67.006,98.533 66.499 C 97.685 65.962,97.747 65.715,98.830 65.299 C 99.868 64.901,100.079 64.194,99.710 62.348 C 99.443 61.013,99.536 60.113,99.917 60.349 C 100.716 60.842,100.936 44.854,100.148 43.619 C 99.860 43.169,99.574 42.170,99.512 41.400 C 99.451 40.630,99.327 39.910,99.239 39.800 C 99.150 39.690,98.949 38.916,98.792 38.080 C 98.635 37.244,98.186 36.344,97.795 36.080 C 96.807 35.413,95.711 32.620,95.927 31.320 C 96.026 30.726,95.787 30.437,95.396 30.679 C 95.005 30.920,94.085 30.416,93.351 29.559 C 92.616 28.702,92.236 28.000,92.506 28.000 C 92.775 28.000,92.595 27.517,92.105 26.926 C 91.615 26.336,91.391 25.616,91.607 25.326 C 91.823 25.037,91.789 24.951,91.532 25.135 C 90.791 25.665,87.206 22.238,87.687 21.460 C 87.924 21.075,87.642 20.859,87.059 20.980 C 86.473 21.102,86.119 20.664,86.267 20.000 C 86.413 19.340,86.265 19.068,85.937 19.396 C 85.609 19.724,84.139 19.076,82.670 17.955 C 81.202 16.835,80.000 16.173,80.000 16.483 C 80.000 16.794,79.370 16.501,78.600 15.831 C 77.830 15.162,76.195 14.376,74.967 14.084 C 73.739 13.792,72.935 13.229,73.180 12.833 C 73.425 12.436,72.270 12.112,70.613 12.111 C 65.852 12.111,64.800 11.948,64.800 11.215 C 64.800 10.838,63.490 10.891,61.889 11.333 C 60.288 11.775,58.758 11.836,58.489 11.468 C 57.861 10.610,54.738 10.497,53.461 11.286 M302.400 11.029 C 298.902 11.315,295.200 12.737,295.200 13.795 C 295.200 14.236,294.591 14.102,293.846 13.498 C 292.927 12.752,292.685 12.721,293.094 13.400 C 293.474 14.033,293.227 14.400,292.422 14.400 C 291.722 14.400,290.953 14.914,290.712 15.542 C 290.471 16.170,289.641 16.562,288.869 16.413 C 288.096 16.264,286.954 16.465,286.332 16.859 C 285.373 17.466,285.384 17.579,286.400 17.600 C 287.413 17.621,287.424 17.736,286.473 18.338 C 285.852 18.731,284.898 18.880,284.351 18.670 C 283.804 18.460,282.703 19.394,281.906 20.744 C 281.108 22.095,279.993 23.200,279.428 23.200 C 278.862 23.200,278.400 23.581,278.400 24.047 C 278.400 24.513,277.984 24.638,277.476 24.324 C 276.907 23.971,276.770 24.104,277.119 24.670 C 277.436 25.182,276.702 26.561,275.456 27.793 C 274.230 29.007,273.310 30.270,273.413 30.600 C 273.516 30.930,273.240 31.200,272.800 31.200 C 272.360 31.200,272.039 31.470,272.087 31.800 C 272.283 33.163,270.949 36.001,270.107 36.012 C 269.608 36.019,269.740 36.373,270.400 36.800 C 271.452 37.480,271.443 37.577,270.333 37.588 C 269.637 37.594,269.021 38.050,268.966 38.600 C 268.911 39.150,268.562 41.040,268.191 42.800 C 266.699 49.867,267.724 63.838,269.893 66.007 C 270.680 66.794,271.150 68.105,270.937 68.919 C 270.724 69.734,270.876 70.400,271.275 70.400 C 271.674 70.400,272.000 70.923,272.000 71.562 C 272.000 73.667,273.816 76.761,275.333 77.242 C 276.153 77.502,276.640 78.012,276.416 78.374 C 276.192 78.736,276.570 79.248,277.255 79.511 C 277.941 79.774,278.313 80.294,278.082 80.667 C 277.555 81.520,281.909 84.800,283.568 84.800 C 284.245 84.800,284.800 85.361,284.800 86.047 C 284.800 86.733,285.160 87.072,285.600 86.800 C 286.040 86.528,286.411 86.597,286.425 86.953 C 286.439 87.309,287.429 88.303,288.625 89.163 C 290.638 90.609,290.710 90.614,289.600 89.234 C 288.468 87.827,288.499 87.805,290.148 88.832 C 291.110 89.430,291.737 90.178,291.542 90.494 C 291.129 91.162,297.935 92.930,300.644 92.859 C 301.658 92.832,302.323 93.078,302.121 93.405 C 301.919 93.732,304.599 94.000,308.077 94.000 C 311.555 94.000,314.400 93.730,314.400 93.400 C 314.400 93.070,315.660 92.800,317.200 92.800 C 318.740 92.800,320.000 92.419,320.000 91.953 C 320.000 91.487,320.323 91.305,320.718 91.549 C 321.861 92.256,326.400 91.092,326.400 90.092 C 326.400 89.593,327.120 88.735,328.000 88.186 C 329.032 87.541,329.600 87.488,329.600 88.034 C 329.600 88.501,330.446 87.970,331.480 86.854 C 332.514 85.739,333.594 85.060,333.880 85.346 C 334.166 85.633,334.400 85.447,334.400 84.933 C 334.400 84.420,334.979 84.000,335.686 84.000 C 336.519 84.000,336.804 83.563,336.495 82.758 C 336.233 82.076,336.333 81.712,336.719 81.950 C 337.593 82.490,339.379 80.445,338.660 79.726 C 338.370 79.437,338.722 79.200,339.442 79.200 C 340.161 79.200,340.579 78.750,340.371 78.200 C 340.163 77.650,341.001 76.526,342.233 75.703 C 343.466 74.880,344.528 73.494,344.593 72.623 C 344.659 71.753,345.254 70.626,345.915 70.120 C 346.576 69.614,347.226 68.120,347.358 66.800 C 347.491 65.480,347.911 64.173,348.292 63.896 C 349.499 63.016,349.795 45.603,348.627 44.161 C 347.774 43.108,347.790 43.008,348.724 43.570 C 349.561 44.075,349.668 43.961,349.144 43.124 C 348.757 42.506,348.544 41.370,348.670 40.600 C 348.808 39.766,348.395 39.200,347.650 39.200 C 346.963 39.200,346.400 38.819,346.400 38.353 C 346.400 37.887,346.760 37.728,347.200 38.000 C 347.640 38.272,348.000 38.113,348.000 37.647 C 348.000 37.181,347.631 36.800,347.180 36.800 C 346.130 36.800,344.507 33.059,344.122 29.753 C 344.055 29.177,343.730 28.840,343.400 29.004 C 343.070 29.169,342.003 28.470,341.029 27.452 C 340.019 26.396,339.675 25.578,340.229 25.549 C 340.763 25.521,340.367 25.164,339.349 24.756 C 338.330 24.348,337.722 23.650,337.996 23.207 C 338.271 22.761,337.735 22.400,336.800 22.400 C 335.868 22.400,335.328 22.040,335.600 21.600 C 335.872 21.160,335.692 20.800,335.200 20.800 C 334.708 20.800,334.562 20.384,334.876 19.876 C 335.206 19.343,335.098 19.169,334.620 19.464 C 334.165 19.745,332.940 19.126,331.897 18.089 C 330.853 17.052,328.830 15.949,327.400 15.638 C 325.970 15.327,324.800 14.741,324.800 14.336 C 324.800 13.931,324.260 13.600,323.600 13.600 C 322.940 13.600,322.400 13.168,322.400 12.640 C 322.400 11.950,322.156 11.924,321.533 12.547 C 320.416 13.664,317.435 12.923,318.163 11.709 C 318.462 11.209,318.098 11.294,317.354 11.898 C 316.345 12.716,316.000 12.745,316.000 12.012 C 316.000 11.471,315.550 11.198,315.000 11.404 C 314.450 11.610,313.280 11.513,312.400 11.188 C 311.520 10.863,310.350 10.957,309.800 11.397 C 309.234 11.849,308.800 11.876,308.800 11.458 C 308.800 10.709,307.435 10.617,302.400 11.029 M30.853 107.115 C 30.552 107.602,29.589 108.000,28.713 108.000 C 27.837 108.000,26.019 108.570,24.672 109.266 C 23.326 109.962,22.444 110.176,22.713 109.741 C 23.001 109.274,22.539 109.123,21.589 109.371 C 20.701 109.603,19.745 110.165,19.464 110.620 C 19.151 111.127,19.388 111.217,20.076 110.854 C 20.694 110.528,20.310 110.984,19.222 111.868 C 18.135 112.752,16.969 113.304,16.632 113.096 C 16.294 112.887,16.234 113.280,16.498 113.968 C 16.845 114.872,16.625 115.083,15.700 114.728 C 14.804 114.384,14.171 114.899,13.580 116.451 C 13.117 117.669,12.122 119.236,11.369 119.933 C 10.616 120.630,9.877 121.904,9.727 122.765 C 9.577 123.626,8.894 124.740,8.210 125.240 C 7.409 125.826,7.109 126.899,7.367 128.251 C 7.588 129.406,7.467 130.165,7.099 129.938 C 6.731 129.710,6.426 203.501,6.421 293.919 C 6.415 410.719,6.662 458.468,7.276 458.847 C 7.751 459.140,7.962 460.060,7.745 460.890 C 7.527 461.721,7.651 462.400,8.019 462.400 C 8.387 462.400,9.503 464.032,10.499 466.026 C 11.613 468.257,12.712 469.498,13.355 469.251 C 13.930 469.031,14.406 469.289,14.414 469.825 C 14.421 470.361,15.389 471.700,16.565 472.800 C 17.740 473.900,18.435 474.354,18.109 473.809 C 17.708 473.138,17.915 472.971,18.754 473.293 C 19.434 473.554,19.794 474.086,19.554 474.475 C 19.314 474.864,19.639 474.981,20.278 474.736 C 20.916 474.491,21.700 474.714,22.019 475.231 C 22.451 475.929,22.777 475.892,23.288 475.085 C 23.848 474.200,23.978 474.222,23.989 475.200 C 24.007 476.742,33.483 477.347,36.056 475.970 C 37.022 475.453,37.572 475.398,37.295 475.846 C 36.998 476.327,37.439 476.483,38.390 476.234 C 39.266 476.005,39.808 475.537,39.596 475.193 C 39.383 474.849,39.724 474.370,40.353 474.129 C 40.982 473.887,41.671 474.120,41.885 474.645 C 42.099 475.170,42.302 474.949,42.337 474.153 C 42.372 473.357,42.764 472.931,43.210 473.206 C 44.273 473.863,50.215 467.845,49.783 466.549 C 49.600 466.000,49.917 465.651,50.489 465.775 C 51.060 465.899,51.573 465.640,51.629 465.200 C 51.919 462.912,53.040 460.054,53.528 460.356 C 54.477 460.942,54.521 457.270,54.662 366.400 L 54.800 278.000 59.393 278.271 L 63.986 278.541 64.277 367.871 C 64.593 465.077,64.515 460.271,65.774 459.492 C 66.357 459.132,66.493 459.559,66.178 460.762 C 65.840 462.055,66.262 463.089,67.652 464.378 C 68.724 465.371,69.600 466.772,69.600 467.492 C 69.600 468.211,69.941 468.800,70.359 468.800 C 70.776 468.800,72.089 469.700,73.276 470.800 C 74.463 471.900,75.762 472.800,76.164 472.800 C 76.566 472.800,76.697 473.119,76.456 473.509 C 76.215 473.899,76.734 474.405,77.610 474.634 C 78.486 474.863,79.003 474.728,78.760 474.335 C 78.516 473.941,78.874 473.832,79.554 474.093 C 80.234 474.354,80.615 474.852,80.400 475.200 C 80.185 475.548,80.566 476.046,81.246 476.307 C 82.085 476.629,82.292 476.463,81.888 475.791 C 81.431 475.031,81.562 475.012,82.446 475.712 C 85.296 477.964,98.064 476.426,99.807 473.620 C 100.361 472.729,101.351 472.000,102.007 472.000 C 102.663 472.000,103.200 471.701,103.200 471.335 C 103.200 470.970,104.100 470.189,105.200 469.600 C 106.300 469.011,107.200 468.029,107.200 467.418 C 107.200 466.806,107.560 466.528,108.000 466.800 C 108.719 467.245,109.147 466.195,108.895 464.600 C 108.843 464.270,109.199 464.000,109.686 464.000 C 110.173 464.000,110.368 463.470,110.120 462.823 C 109.871 462.176,110.215 461.099,110.884 460.430 C 111.959 459.355,112.117 446.037,112.250 345.407 L 112.400 231.600 110.600 231.696 C 109.610 231.748,108.800 231.478,108.800 231.096 C 108.800 230.209,107.007 230.549,106.139 231.600 C 105.711 232.118,105.336 232.048,105.073 231.401 C 104.822 230.784,103.930 230.588,102.734 230.888 C 101.561 231.183,100.800 231.025,100.800 230.487 C 100.800 229.930,99.241 229.665,96.600 229.772 C 94.290 229.865,92.040 229.737,91.600 229.488 C 91.160 229.238,87.935 228.983,84.434 228.921 C 79.756 228.838,77.894 228.497,77.410 227.633 C 76.895 226.712,76.286 226.635,74.593 227.279 C 73.405 227.730,72.690 227.843,73.004 227.529 C 74.021 226.512,70.927 224.831,69.784 225.779 C 69.012 226.420,68.883 226.315,69.255 225.346 C 69.590 224.472,68.962 223.588,67.276 222.563 C 65.917 221.737,65.044 220.822,65.336 220.530 C 65.628 220.239,65.324 220.000,64.662 220.000 C 63.519 220.000,61.594 216.975,61.112 214.422 C 60.989 213.774,60.260 212.784,59.492 212.222 C 58.663 211.616,58.502 211.200,59.094 211.200 C 59.644 211.200,59.868 210.834,59.592 210.387 C 59.316 209.940,58.754 209.781,58.345 210.034 C 57.935 210.287,57.600 210.143,57.600 209.714 C 57.600 209.285,58.008 208.797,58.507 208.631 C 59.127 208.424,59.050 207.960,58.262 207.164 C 57.629 206.524,56.872 205.370,56.580 204.600 C 56.289 203.830,55.658 203.200,55.178 203.200 C 54.698 203.200,54.528 202.840,54.800 202.400 C 55.072 201.960,54.883 201.600,54.381 201.600 C 53.878 201.600,53.614 201.157,53.795 200.616 C 53.975 200.074,53.285 198.728,52.261 197.624 C 50.303 195.512,49.755 193.907,51.324 194.876 C 51.896 195.230,52.030 195.096,51.676 194.524 C 51.362 194.016,50.497 193.572,49.753 193.537 C 49.009 193.502,48.812 193.305,49.315 193.098 C 49.818 192.892,50.047 192.025,49.824 191.171 C 49.601 190.317,49.157 189.779,48.839 189.976 C 48.520 190.173,47.222 188.009,45.955 185.167 C 44.687 182.325,43.398 180.000,43.089 180.000 C 42.780 180.000,42.290 178.920,42.000 177.600 C 41.710 176.280,41.134 175.200,40.719 175.200 C 40.305 175.200,39.653 174.390,39.270 173.400 C 36.984 167.482,35.677 164.800,35.079 164.800 C 34.705 164.800,34.400 164.431,34.400 163.979 C 34.400 163.512,35.433 163.693,36.800 164.400 C 39.382 165.735,40.104 166.917,37.800 166.036 C 36.744 165.633,36.834 165.906,38.167 167.151 C 39.138 168.058,40.121 168.800,40.350 168.800 C 41.132 168.800,52.000 180.075,52.000 180.886 C 52.000 181.331,52.270 181.550,52.600 181.374 C 53.235 181.035,56.040 183.653,55.943 184.494 C 55.911 184.766,56.993 185.661,58.346 186.484 C 59.699 187.307,60.715 188.388,60.603 188.886 C 60.491 189.385,61.480 190.426,62.800 191.200 C 64.120 191.974,65.122 192.975,65.026 193.425 C 64.931 193.875,66.101 194.835,67.626 195.559 C 70.567 196.954,71.341 197.836,69.000 197.124 C 68.230 196.890,68.565 197.260,69.745 197.946 C 70.925 198.632,72.128 199.942,72.418 200.857 C 72.708 201.772,73.133 202.333,73.362 202.105 C 73.591 201.876,74.687 202.769,75.797 204.088 C 76.908 205.408,78.308 206.300,78.908 206.069 C 79.509 205.839,80.000 206.091,80.000 206.630 C 80.000 208.055,84.476 209.811,86.483 209.174 C 87.549 208.835,88.013 208.933,87.705 209.430 C 87.432 209.871,87.766 210.446,88.446 210.707 C 89.154 210.979,89.474 210.844,89.194 210.391 C 88.383 209.079,94.285 209.488,96.428 210.892 C 97.513 211.603,98.400 211.843,98.400 211.425 C 98.400 211.008,98.940 210.667,99.600 210.667 C 100.260 210.667,100.800 210.907,100.800 211.200 C 100.800 211.493,101.250 211.735,101.800 211.737 C 102.350 211.738,104.150 211.995,105.800 212.306 C 108.012 212.724,108.803 212.600,108.812 211.836 C 108.821 211.118,109.005 211.074,109.412 211.692 C 109.736 212.182,112.160 212.849,114.800 213.173 C 117.440 213.497,120.208 214.086,120.951 214.483 C 121.695 214.880,122.478 214.921,122.692 214.574 C 123.242 213.685,131.543 214.265,131.867 215.216 C 132.013 215.647,132.733 215.994,133.467 215.988 C 134.629 215.977,134.646 215.865,133.600 215.112 C 132.602 214.394,132.647 214.329,133.865 214.725 C 134.671 214.986,136.291 215.225,137.465 215.256 C 139.385 215.307,139.439 215.383,138.000 216.015 C 136.718 216.577,136.957 216.697,139.200 216.617 C 140.740 216.562,142.519 216.131,143.154 215.658 C 144.022 215.012,144.159 215.047,143.706 215.800 C 143.376 216.350,143.397 216.841,143.753 216.892 C 145.232 217.101,152.753 217.628,157.600 217.861 C 164.989 218.218,174.269 214.708,172.152 212.358 C 171.848 212.021,172.200 211.960,172.933 212.222 C 173.896 212.566,174.628 211.935,175.571 209.949 C 176.288 208.437,177.198 207.200,177.592 207.200 C 177.986 207.200,178.169 206.480,178.000 205.600 C 177.831 204.720,178.052 204.000,178.493 204.000 C 178.934 204.000,179.087 203.665,178.834 203.255 C 178.581 202.846,178.711 202.302,179.124 202.047 C 180.427 201.242,179.514 192.924,178.000 191.812 C 177.525 191.463,177.668 191.220,178.353 191.212 C 179.276 191.202,179.244 191.000,178.197 190.200 C 177.477 189.650,176.778 188.660,176.644 188.000 C 176.510 187.340,175.764 186.325,174.987 185.745 C 174.209 185.165,173.769 184.373,174.009 183.985 C 174.473 183.235,171.671 181.396,171.034 182.033 C 170.826 182.240,170.003 181.688,169.204 180.805 C 168.406 179.922,167.088 179.200,166.276 179.200 C 165.464 179.200,164.800 178.900,164.800 178.534 C 164.800 178.167,163.990 177.938,163.000 178.024 C 162.010 178.110,160.527 177.834,159.703 177.411 C 158.566 176.825,158.358 176.884,158.835 177.656 C 159.300 178.409,159.066 178.508,157.931 178.038 C 155.295 176.945,150.248 176.154,143.316 175.746 C 139.640 175.529,136.238 174.958,135.756 174.476 C 134.689 173.409,132.522 173.302,133.168 174.349 C 133.654 175.134,129.637 174.212,127.902 173.140 C 127.256 172.740,127.157 172.912,127.594 173.676 C 128.112 174.585,128.029 174.609,127.157 173.800 C 126.565 173.250,125.522 172.806,124.840 172.812 C 123.747 172.823,123.743 172.917,124.800 173.600 C 125.521 174.066,125.620 174.380,125.047 174.388 C 124.523 174.394,123.889 174.067,123.637 173.660 C 123.385 173.252,122.104 173.055,120.790 173.222 C 119.475 173.388,118.400 173.168,118.400 172.734 C 118.400 172.236,117.809 172.260,116.800 172.800 C 115.862 173.302,115.200 173.343,115.200 172.899 C 115.200 172.482,114.291 172.241,113.181 172.363 C 112.070 172.484,110.976 172.284,110.749 171.917 C 110.522 171.550,108.461 171.288,106.168 171.335 C 101.727 171.426,98.157 170.365,97.124 168.649 C 96.687 167.923,96.971 167.965,98.046 168.786 C 99.579 169.957,99.580 169.949,98.072 168.181 C 97.231 167.196,96.379 166.554,96.179 166.754 C 95.979 166.954,94.644 165.876,93.213 164.359 C 91.782 162.842,90.182 161.600,89.658 161.600 C 89.134 161.600,88.920 161.253,89.182 160.829 C 89.632 160.101,86.562 156.400,85.507 156.400 C 85.237 156.400,83.797 155.156,82.307 153.637 C 80.818 152.117,80.320 151.397,81.200 152.037 C 82.711 153.135,82.733 153.115,81.600 151.676 C 80.940 150.838,79.230 149.663,77.800 149.065 C 76.370 148.468,75.155 147.623,75.100 147.189 C 74.900 145.609,74.764 145.182,74.162 144.235 C 73.825 143.704,73.053 143.460,72.447 143.693 C 71.777 143.950,71.116 143.387,70.761 142.258 C 70.440 141.236,68.967 139.254,67.488 137.854 C 66.010 136.453,64.800 135.103,64.800 134.854 C 64.800 133.978,66.114 134.414,67.649 135.800 C 68.502 136.570,69.560 137.227,70.000 137.260 C 71.851 137.398,75.967 139.406,75.604 139.994 C 75.073 140.853,77.524 141.741,78.596 141.079 C 79.098 140.769,79.213 140.932,78.876 141.476 C 78.538 142.024,78.814 142.400,79.553 142.400 C 80.239 142.400,80.800 142.726,80.800 143.125 C 80.800 143.524,81.520 143.662,82.400 143.432 C 83.330 143.189,84.000 143.407,84.000 143.954 C 84.000 144.471,84.360 144.672,84.800 144.400 C 85.240 144.128,85.600 144.456,85.600 145.128 C 85.600 145.871,86.058 146.174,86.770 145.901 C 87.443 145.643,88.856 146.417,90.101 147.726 C 91.289 148.977,92.002 149.550,91.684 149.000 C 91.366 148.450,91.487 148.000,91.953 148.000 C 92.419 148.000,92.800 148.381,92.800 148.847 C 92.800 149.313,93.129 149.491,93.532 149.242 C 93.934 148.994,94.402 149.206,94.571 149.714 C 94.741 150.222,96.301 150.782,98.040 150.958 C 99.778 151.134,101.325 151.635,101.478 152.072 C 101.650 152.565,102.181 152.513,102.878 151.935 C 103.688 151.263,104.000 151.254,104.000 151.902 C 104.000 152.396,104.381 152.800,104.847 152.800 C 105.313 152.800,105.504 152.492,105.271 152.116 C 104.729 151.238,108.889 151.970,110.165 152.976 C 110.696 153.395,111.506 153.506,111.965 153.222 C 113.084 152.530,113.081 135.468,111.961 134.776 C 111.397 134.427,111.463 133.837,112.161 132.975 C 112.873 132.097,112.896 131.876,112.233 132.273 C 111.527 132.697,111.364 132.092,111.628 130.027 C 111.827 128.472,111.660 127.200,111.257 127.200 C 110.854 127.200,110.079 125.850,109.536 124.200 C 108.993 122.550,108.010 120.805,107.352 120.321 C 106.625 119.788,106.409 119.032,106.801 118.398 C 107.228 117.707,107.134 117.546,106.524 117.924 C 105.928 118.292,105.596 117.838,105.588 116.647 C 105.578 115.161,105.424 115.035,104.800 116.000 C 104.011 117.222,103.550 116.172,103.950 114.065 C 104.027 113.660,103.463 113.840,102.695 114.465 C 101.458 115.472,101.360 115.442,101.825 114.200 C 102.214 113.163,101.941 112.800,100.775 112.800 C 99.862 112.800,99.200 112.260,99.200 111.514 C 99.200 110.681,98.763 110.396,97.958 110.705 C 97.147 111.017,96.915 110.860,97.290 110.255 C 97.676 109.630,97.415 109.500,96.490 109.855 C 95.735 110.145,95.314 110.064,95.554 109.675 C 96.152 108.707,94.056 108.002,90.535 107.988 C 88.390 107.979,87.920 107.773,88.789 107.224 C 89.545 106.746,79.561 106.453,61.389 106.421 C 38.805 106.381,32.797 106.583,32.788 107.385 C 32.778 108.152,32.608 108.135,32.088 107.315 C 31.608 106.558,31.234 106.497,30.853 107.115 M278.400 107.263 C 277.740 107.649,275.670 108.347,273.800 108.813 C 271.930 109.280,270.400 110.008,270.400 110.431 C 270.400 110.854,269.925 111.200,269.344 111.200 C 268.764 111.200,267.493 112.115,266.521 113.233 C 265.549 114.351,264.404 115.050,263.977 114.786 C 263.550 114.522,263.200 114.828,263.200 115.467 C 263.200 116.106,262.660 116.836,262.000 117.089 C 261.340 117.343,260.800 117.942,260.800 118.422 C 260.800 118.902,261.156 119.074,261.591 118.806 C 262.044 118.525,262.178 118.847,261.905 119.558 C 261.643 120.241,260.889 120.800,260.229 120.800 C 259.526 120.800,259.208 121.266,259.460 121.925 C 259.698 122.543,259.265 123.617,258.499 124.310 C 257.661 125.069,257.173 126.532,257.273 127.985 C 257.365 129.313,257.094 130.400,256.670 130.400 C 256.246 130.400,255.977 131.030,256.073 131.800 C 256.168 132.570,255.964 133.850,255.620 134.644 C 255.276 135.439,255.214 137.689,255.482 139.644 C 255.946 143.027,255.873 143.200,253.985 143.200 C 252.893 143.200,252.000 143.581,252.000 144.047 C 252.000 144.513,251.670 144.691,251.268 144.442 C 250.865 144.193,249.515 144.837,248.268 145.873 C 247.020 146.909,245.010 147.998,243.800 148.294 C 242.549 148.599,241.600 149.378,241.600 150.101 C 241.600 150.901,241.156 151.201,240.400 150.911 C 239.740 150.657,239.200 150.720,239.200 151.050 C 239.200 151.379,238.210 152.075,237.000 152.596 C 234.124 153.833,231.853 155.330,230.740 156.722 C 230.246 157.339,229.458 157.607,228.989 157.317 C 228.519 157.026,227.067 157.856,225.761 159.162 C 224.456 160.467,222.408 161.712,221.210 161.930 C 220.012 162.147,218.606 162.907,218.085 163.619 C 217.565 164.331,216.786 164.798,216.354 164.656 C 215.370 164.335,211.120 167.606,211.627 168.294 C 211.832 168.572,211.759 168.619,211.464 168.397 C 211.169 168.176,210.056 168.565,208.991 169.263 C 207.926 169.961,206.122 170.701,204.983 170.908 C 202.295 171.395,201.600 171.858,201.600 173.162 C 201.600 173.749,201.041 174.443,200.358 174.705 C 199.561 175.011,199.317 174.858,199.677 174.276 C 200.445 173.032,195.040 176.108,193.835 177.600 C 192.758 178.932,193.225 181.568,194.756 182.800 C 195.303 183.240,196.044 185.040,196.403 186.800 C 196.763 188.560,197.185 190.540,197.341 191.200 C 198.053 194.214,198.081 204.000,197.377 204.000 C 196.952 204.000,197.026 204.508,197.541 205.129 C 198.080 205.778,198.166 206.450,197.742 206.712 C 197.338 206.962,196.784 208.278,196.513 209.636 C 196.238 211.010,195.660 211.884,195.209 211.606 C 194.764 211.331,194.355 211.667,194.300 212.353 C 194.145 214.286,194.023 214.726,193.341 215.800 C 192.991 216.350,192.919 216.800,193.181 216.800 C 193.442 216.800,193.266 217.530,192.788 218.422 C 192.310 219.315,191.522 219.799,191.036 219.499 C 190.505 219.171,190.379 219.319,190.720 219.870 C 191.342 220.877,190.285 223.268,189.128 223.472 C 188.728 223.542,188.490 223.870,188.600 224.200 C 188.791 224.774,187.538 225.118,186.140 224.875 C 185.777 224.811,185.683 225.579,185.932 226.580 C 186.181 227.581,186.179 227.950,185.926 227.400 C 185.212 225.845,184.000 226.223,184.000 228.000 C 184.000 230.011,185.295 230.067,186.518 228.108 C 187.079 227.210,188.038 226.769,188.925 227.001 C 189.736 227.213,190.400 226.985,190.400 226.493 C 190.400 226.002,191.141 225.600,192.047 225.600 C 192.953 225.600,193.473 225.242,193.202 224.803 C 192.931 224.365,193.720 223.594,194.955 223.090 C 201.512 220.413,204.000 219.108,204.000 218.349 C 204.000 217.885,204.331 217.710,204.736 217.960 C 205.141 218.211,206.168 217.531,207.018 216.450 C 208.223 214.918,208.779 214.695,209.539 215.442 C 210.075 215.969,210.446 216.040,210.362 215.600 C 210.030 213.847,210.445 212.733,211.245 213.228 C 212.292 213.875,216.180 212.969,215.760 212.177 C 215.273 211.259,218.008 209.049,219.380 209.250 C 220.065 209.351,221.768 208.391,223.163 207.116 C 225.878 204.636,227.247 204.016,225.585 206.018 C 224.739 207.037,224.789 207.154,225.887 206.733 C 227.083 206.274,227.532 205.355,227.304 203.829 C 227.258 203.515,227.727 203.452,228.348 203.691 C 228.968 203.929,230.224 203.376,231.138 202.462 C 232.052 201.548,233.299 200.800,233.909 200.800 C 236.038 200.800,238.930 198.790,238.532 197.586 C 238.188 196.547,238.323 196.548,239.623 197.600 C 240.740 198.503,240.942 198.527,240.442 197.696 C 239.985 196.937,240.119 196.706,240.871 196.957 C 241.473 197.158,242.333 197.018,242.783 196.646 C 243.232 196.274,244.456 195.264,245.503 194.402 C 246.550 193.539,247.720 193.027,248.103 193.264 C 248.486 193.501,248.800 193.133,248.800 192.447 C 248.800 191.655,249.519 191.200,250.769 191.200 C 251.852 191.200,253.434 190.453,254.284 189.540 C 255.274 188.478,256.023 188.189,256.363 188.740 C 256.655 189.213,256.513 189.600,256.047 189.600 C 254.850 189.600,254.989 194.181,256.200 194.670 C 256.983 194.986,256.985 195.087,256.211 195.137 C 255.102 195.208,254.927 214.764,255.873 232.925 C 256.163 238.493,256.140 242.889,255.823 242.692 C 255.506 242.495,255.234 256.248,255.220 273.254 C 255.194 302.426,255.272 304.141,256.596 303.592 C 257.368 303.271,258.434 302.992,258.965 302.971 C 259.495 302.950,259.777 302.686,259.590 302.384 C 259.141 301.657,263.126 299.860,263.995 300.397 C 264.367 300.627,265.217 300.269,265.884 299.601 C 266.597 298.889,267.296 298.708,267.577 299.163 C 267.885 299.662,268.779 299.664,270.080 299.169 C 271.193 298.746,273.251 298.400,274.652 298.401 L 277.200 298.401 277.069 290.405 C 276.996 286.008,277.272 282.203,277.682 281.950 C 278.091 281.697,278.224 281.162,277.976 280.761 C 277.372 279.784,279.276 273.553,280.035 274.022 C 280.364 274.225,280.846 273.834,281.107 273.154 C 281.430 272.312,281.265 272.110,280.591 272.521 C 280.046 272.853,281.760 270.977,284.400 268.352 C 287.040 265.727,289.330 263.654,289.489 263.745 C 290.254 264.185,293.642 259.116,293.134 258.293 C 292.770 257.705,292.898 257.566,293.476 257.924 C 294.074 258.293,294.396 257.842,294.388 256.647 C 294.378 255.161,294.224 255.035,293.600 256.000 C 292.937 257.026,292.823 256.996,292.812 255.800 C 292.806 255.030,293.202 254.400,293.693 254.400 C 294.215 254.400,294.427 253.567,294.204 252.400 C 293.994 251.300,294.082 250.400,294.400 250.400 C 295.205 250.400,296.432 241.645,296.675 234.153 C 296.762 231.490,297.082 230.480,297.716 230.872 C 298.355 231.267,298.500 230.750,298.196 229.159 C 297.957 227.906,298.141 225.963,298.605 224.840 C 299.718 222.151,299.780 220.535,298.800 219.800 C 298.277 219.408,298.312 218.992,298.900 218.600 C 301.144 217.103,301.955 191.829,299.959 185.600 C 299.889 185.380,299.851 183.680,299.876 181.823 C 299.900 179.965,299.561 178.223,299.121 177.951 C 298.606 177.633,298.655 177.057,299.259 176.329 C 299.933 175.517,299.944 175.200,299.298 175.200 C 298.804 175.200,298.400 174.819,298.400 174.353 C 298.400 173.887,298.796 173.750,299.280 174.049 C 299.894 174.429,299.933 174.142,299.408 173.097 C 298.995 172.273,298.721 170.250,298.800 168.600 C 298.878 166.950,298.640 165.600,298.271 165.600 C 297.215 165.600,297.488 163.378,298.600 162.930 C 299.272 162.659,299.296 162.506,298.675 162.463 C 298.129 162.426,297.934 161.694,298.201 160.675 C 298.537 159.390,298.384 159.115,297.602 159.599 C 296.907 160.028,296.745 159.935,297.124 159.324 C 298.146 157.669,300.512 161.236,300.093 163.800 C 300.003 164.350,300.229 164.800,300.595 164.800 C 301.183 164.800,301.501 166.032,301.783 169.400 C 301.829 169.950,302.099 170.400,302.382 170.400 C 302.666 170.400,303.359 172.200,303.923 174.400 C 304.487 176.600,305.197 178.400,305.503 178.400 C 305.808 178.400,306.106 179.030,306.166 179.800 C 306.342 182.071,308.336 187.200,309.043 187.200 C 309.401 187.200,309.479 187.549,309.215 187.976 C 308.795 188.655,310.014 192.256,313.013 199.200 C 313.488 200.300,313.799 201.650,313.703 202.200 C 313.608 202.750,313.894 203.200,314.340 203.200 C 314.785 203.200,314.941 203.745,314.685 204.410 C 314.430 205.076,314.564 206.066,314.984 206.610 C 316.255 208.260,318.347 214.186,317.838 214.696 C 317.576 214.958,317.267 216.349,317.151 217.786 C 317.036 219.224,316.714 221.480,316.437 222.800 C 316.159 224.120,315.923 226.190,315.912 227.400 C 315.902 228.610,315.467 229.606,314.946 229.612 C 314.387 229.619,314.490 229.941,315.200 230.400 C 315.860 230.827,316.002 231.181,315.515 231.188 C 315.028 231.194,314.588 232.190,314.537 233.400 C 314.270 239.780,313.939 242.207,313.383 241.864 C 313.043 241.655,312.773 242.500,312.781 243.742 C 312.808 247.837,311.902 253.160,310.742 255.721 C 309.408 258.665,309.257 260.124,310.465 258.400 C 311.098 257.495,311.154 257.692,310.694 259.200 C 310.357 260.300,310.116 262.010,310.157 263.000 C 310.197 263.990,309.980 264.800,309.674 264.800 C 309.368 264.800,309.077 265.970,309.027 267.400 C 308.777 274.635,308.380 275.235,303.773 275.327 C 300.862 275.386,293.579 278.374,296.298 278.395 C 296.682 278.398,296.513 278.982,295.923 279.693 C 293.420 282.709,292.824 286.866,292.812 301.400 L 292.800 316.000 283.547 316.000 C 278.458 316.000,273.575 315.615,272.696 315.144 C 271.394 314.448,270.561 314.698,268.212 316.489 C 266.625 317.700,265.589 318.265,265.910 317.745 C 266.232 317.225,266.290 316.800,266.041 316.800 C 265.791 316.800,265.012 318.238,264.309 319.995 C 263.606 321.752,262.663 322.963,262.214 322.685 C 261.688 322.360,261.647 322.625,262.099 323.432 C 262.488 324.127,262.622 340.729,262.400 360.771 C 262.053 392.122,262.158 397.027,263.200 398.142 C 264.267 399.283,264.267 399.351,263.200 398.759 C 261.916 398.046,262.694 399.266,265.611 402.538 C 268.279 405.530,270.146 405.621,327.479 405.564 C 384.954 405.506,388.000 405.403,388.000 403.522 C 388.000 402.922,388.900 402.205,390.000 401.929 C 391.100 401.652,392.046 401.016,392.103 400.513 C 392.160 400.011,392.386 398.520,392.607 397.200 C 393.488 391.912,393.639 324.800,392.769 324.800 C 392.294 324.800,392.113 324.465,392.366 324.055 C 392.619 323.646,392.460 323.084,392.013 322.808 C 391.566 322.532,391.206 321.877,391.212 321.353 C 391.220 320.780,391.534 320.879,392.000 321.600 C 392.483 322.348,392.780 322.435,392.788 321.832 C 392.794 321.299,392.243 320.399,391.562 319.832 C 390.880 319.264,389.706 318.193,388.951 317.452 C 387.004 315.541,382.911 314.068,382.550 315.150 C 382.370 315.689,378.633 316.000,372.333 316.000 L 362.400 316.000 362.300 300.400 C 362.207 285.859,362.127 283.854,361.600 282.800 C 361.490 282.580,361.355 282.058,361.300 281.640 C 360.981 279.218,354.764 275.073,351.864 275.350 L 348.876 275.635 349.266 272.418 C 349.481 270.648,349.822 267.423,350.024 265.250 C 350.225 263.078,350.686 261.098,351.048 260.850 C 351.409 260.603,351.637 258.960,351.554 257.200 C 351.471 255.440,351.747 253.568,352.167 253.040 C 352.586 252.512,353.095 250.352,353.298 248.240 C 353.500 246.128,353.831 243.320,354.033 242.000 C 354.468 239.156,354.845 235.658,355.051 232.553 C 355.135 231.287,355.549 230.521,356.000 230.800 C 356.440 231.072,356.800 230.733,356.800 230.047 C 356.800 229.361,356.440 228.800,356.000 228.800 C 355.560 228.800,355.200 228.419,355.200 227.953 C 355.200 227.487,355.599 227.352,356.086 227.653 C 356.689 228.026,356.789 227.626,356.400 226.400 C 356.040 225.265,356.126 224.784,356.635 225.098 C 357.136 225.408,357.395 224.237,357.320 221.997 C 357.254 220.018,357.448 218.399,357.750 218.399 C 358.333 218.400,358.434 217.533,358.450 212.400 C 358.470 206.149,358.231 204.010,357.562 204.424 C 357.189 204.654,357.024 204.113,357.196 203.221 C 357.368 202.330,357.180 201.600,356.779 201.600 C 356.378 201.600,356.257 201.060,356.511 200.400 C 356.764 199.740,356.613 199.200,356.175 199.200 C 355.737 199.200,355.142 197.940,354.853 196.400 C 354.564 194.860,354.016 193.600,353.634 193.600 C 353.253 193.600,353.040 192.700,353.160 191.600 C 353.281 190.500,353.069 189.600,352.690 189.600 C 352.310 189.600,352.000 188.772,352.000 187.760 C 352.000 186.748,351.639 185.559,351.197 185.117 C 350.756 184.676,349.840 182.185,349.162 179.583 C 348.484 176.980,347.555 174.619,347.096 174.336 C 346.638 174.053,346.278 173.501,346.297 173.111 C 346.376 171.414,345.360 168.800,344.620 168.800 C 344.176 168.800,344.002 168.080,344.232 167.201 C 344.462 166.321,344.318 165.396,343.912 165.146 C 343.506 164.895,343.361 164.387,343.590 164.017 C 344.203 163.024,343.150 160.737,342.316 161.252 C 341.922 161.495,341.600 160.773,341.600 159.647 C 341.600 158.521,341.251 157.600,340.825 157.600 C 340.399 157.600,340.257 157.060,340.511 156.400 C 340.764 155.740,340.608 155.200,340.165 155.200 C 339.721 155.200,339.395 153.916,339.439 152.346 C 339.484 150.777,339.050 149.202,338.475 148.846 C 337.740 148.392,337.693 148.037,338.315 147.653 C 338.802 147.352,339.200 147.508,339.200 148.000 C 339.200 148.492,339.616 148.638,340.124 148.324 C 340.698 147.969,340.830 148.104,340.473 148.682 C 340.149 149.207,340.463 149.828,341.195 150.109 C 341.908 150.383,342.295 151.119,342.055 151.745 C 341.815 152.371,341.904 152.707,342.252 152.491 C 342.601 152.276,343.587 153.694,344.443 155.642 C 345.299 157.591,346.426 159.188,346.946 159.192 C 347.466 159.197,348.124 159.932,348.408 160.826 C 348.692 161.720,349.789 163.385,350.847 164.526 C 351.905 165.668,352.576 166.916,352.338 167.301 C 352.100 167.685,352.287 168.000,352.753 168.000 C 353.219 168.000,353.606 168.810,353.612 169.800 C 353.621 171.143,353.803 171.319,354.326 170.492 C 355.011 169.411,355.937 170.377,356.921 173.200 C 357.074 173.640,357.497 173.901,357.859 173.780 C 358.222 173.659,358.333 173.862,358.105 174.230 C 357.877 174.598,358.388 175.957,359.240 177.250 C 360.100 178.554,360.787 179.066,360.784 178.400 C 360.780 177.740,360.873 166.344,360.989 153.076 C 361.116 138.539,360.908 129.133,360.464 129.407 C 360.059 129.658,359.943 129.302,360.206 128.617 C 360.658 127.438,358.232 121.528,356.433 119.428 C 355.062 117.827,354.050 116.402,353.118 114.756 C 352.633 113.900,351.422 113.079,350.426 112.932 C 349.430 112.785,348.434 111.975,348.214 111.132 C 347.773 109.444,346.400 109.025,346.400 110.578 C 346.400 111.116,345.840 110.756,345.155 109.778 C 344.338 108.612,343.083 108.000,341.507 108.000 C 339.799 108.000,339.279 107.711,339.706 107.000 C 340.115 106.321,339.873 106.352,338.954 107.098 C 338.157 107.744,337.600 107.847,337.600 107.348 C 337.600 106.271,334.195 106.445,333.412 107.562 C 333.031 108.105,332.820 108.040,332.812 107.375 C 332.798 106.161,280.466 106.053,278.400 107.263 M340.061 307.639 L 340.222 315.600 327.311 315.820 L 314.400 316.040 314.400 307.245 C 314.400 299.756,314.578 298.519,315.600 298.911 C 316.260 299.164,316.800 299.681,316.800 300.060 C 316.800 300.440,317.340 300.543,318.000 300.289 C 318.660 300.036,319.200 300.215,319.200 300.687 C 319.200 301.534,326.849 302.993,328.400 302.442 C 328.840 302.286,330.289 302.123,331.620 302.079 C 333.824 302.007,335.063 301.330,337.838 298.683 C 339.423 297.171,339.887 299.038,340.061 307.639 M255.273 437.171 C 255.368 448.815,255.699 458.186,256.008 457.995 C 256.316 457.804,256.389 458.591,256.168 459.743 C 255.865 461.331,256.023 461.680,256.820 461.188 C 257.570 460.724,257.732 460.901,257.386 461.803 C 257.102 462.544,257.398 463.258,258.101 463.528 C 258.761 463.781,259.111 464.297,258.878 464.674 C 258.645 465.051,259.252 466.063,260.227 466.924 C 261.202 467.785,262.715 469.460,263.590 470.645 C 264.464 471.830,265.505 472.800,265.902 472.800 C 266.299 472.800,267.140 473.430,267.771 474.200 C 268.522 475.116,268.739 475.185,268.400 474.400 C 268.115 473.740,268.448 473.899,269.141 474.753 C 269.833 475.607,270.400 475.937,270.400 475.486 C 270.400 475.035,270.924 474.667,271.565 474.667 C 272.205 474.667,272.568 474.929,272.369 475.250 C 272.171 475.570,272.566 476.046,273.246 476.307 C 274.085 476.629,274.292 476.463,273.888 475.791 C 273.424 475.018,273.551 475.009,274.465 475.747 C 276.268 477.204,286.804 476.606,288.643 474.943 C 289.458 474.204,290.672 473.600,291.339 473.600 C 292.006 473.600,293.204 472.880,294.000 472.000 C 294.796 471.120,295.921 470.400,296.499 470.400 C 297.104 470.400,297.355 469.891,297.089 469.200 C 296.836 468.540,297.027 468.000,297.514 468.000 C 298.001 468.000,298.400 467.460,298.400 466.800 C 298.400 466.140,298.850 465.690,299.400 465.800 C 299.950 465.910,300.400 465.460,300.400 464.800 C 300.400 463.212,301.810 461.652,302.736 462.215 C 303.148 462.466,303.230 462.033,302.922 461.230 C 302.620 460.442,302.704 459.393,303.109 458.899 C 303.517 458.400,303.791 450.058,303.723 440.177 L 303.600 422.355 286.800 422.036 C 272.464 421.764,267.979 421.534,264.657 420.903 C 264.359 420.846,263.516 420.202,262.785 419.470 C 261.661 418.346,261.344 418.315,260.740 419.270 C 260.161 420.184,260.022 420.133,260.012 419.000 C 260.001 417.743,259.113 417.235,257.400 417.505 C 257.070 417.557,256.800 417.240,256.800 416.800 C 256.800 416.360,256.417 416.000,255.949 416.000 C 255.365 416.000,255.153 422.637,255.273 437.171 M313.329 431.600 C 313.400 436.880,313.544 443.937,313.648 447.283 C 313.753 450.629,313.550 453.834,313.196 454.407 C 312.784 455.073,312.868 455.252,313.429 454.906 C 313.990 454.559,314.274 455.162,314.217 456.582 C 314.050 460.787,314.406 462.023,316.409 464.182 C 317.513 465.374,318.323 466.781,318.209 467.309 C 318.094 467.837,318.808 468.691,319.795 469.206 C 320.783 469.721,321.413 470.320,321.196 470.537 C 320.980 470.754,321.702 471.412,322.801 472.001 C 323.901 472.589,324.800 473.370,324.800 473.735 C 324.800 474.101,325.628 474.400,326.640 474.400 C 327.652 474.400,328.899 474.819,329.411 475.331 C 330.765 476.685,342.931 476.831,346.042 475.531 C 347.447 474.944,348.880 474.719,349.227 475.032 C 349.573 475.344,349.609 475.168,349.306 474.640 C 348.774 473.713,351.725 471.469,353.000 471.830 C 353.330 471.924,353.510 471.566,353.400 471.036 C 353.290 470.506,353.663 470.056,354.229 470.036 C 355.450 469.993,356.862 467.948,356.300 467.038 C 356.083 466.687,356.505 466.400,357.238 466.400 C 358.073 466.400,358.405 465.967,358.126 465.241 C 357.854 464.531,358.311 463.882,359.309 463.566 C 360.558 463.169,360.823 462.602,360.453 461.125 C 360.187 460.066,360.285 459.200,360.671 459.200 C 361.057 459.200,361.263 457.750,361.128 455.979 C 360.994 454.207,361.135 452.909,361.442 453.095 C 361.749 453.281,362.000 446.446,362.000 437.908 L 362.000 422.383 337.600 422.192 L 313.200 422.000 313.329 431.600 " stroke="none" fill="#555555" fill-rule="evenodd"></path></g></svg>