<svg style="display: block;" id="svg" version="1.1" width="500" height="500" xmlns="http://www.w3.org/2000/svg" xmlns:xlink="http://www.w3.org/1999/xlink"><g id="svgg"><path id="path0" d="M194.064 25.250 C 193.369 25.945,192.755 27.209,192.700 28.057 C 192.557 30.265,192.226 32.766,192.046 33.000 C 191.961 33.110,191.741 34.460,191.556 36.000 C 191.371 37.540,190.969 39.700,190.663 40.800 C 190.357 41.900,190.011 43.340,189.895 44.000 C 189.779 44.660,189.382 46.460,189.013 48.000 C 187.998 52.238,188.213 57.237,189.400 57.000 C 189.950 56.890,190.400 57.183,190.400 57.650 C 190.400 58.118,191.030 58.436,191.800 58.358 C 192.570 58.280,193.380 58.285,193.600 58.369 C 194.376 58.666,197.240 59.186,200.800 59.675 C 202.780 59.946,205.480 60.345,206.800 60.560 C 210.022 61.085,234.605 61.384,235.539 60.910 C 235.945 60.703,237.205 60.453,238.339 60.354 C 252.285 59.136,255.435 57.636,254.872 52.479 C 254.329 47.503,253.708 43.996,253.086 42.400 C 252.829 41.740,252.475 39.580,252.300 37.600 C 252.124 35.620,251.447 32.649,250.796 30.998 C 250.144 29.347,249.576 27.727,249.533 27.398 C 249.211 24.918,248.295 24.798,239.966 26.146 C 231.533 27.511,209.600 28.131,209.600 27.005 C 209.600 26.678,208.790 26.542,207.800 26.703 C 206.810 26.864,205.440 26.707,204.756 26.353 C 204.071 26.000,202.083 25.577,200.337 25.414 C 198.591 25.252,196.750 24.864,196.246 24.552 C 195.742 24.240,194.760 24.554,194.064 25.250 M226.016 37.600 C 226.003 39.192,226.449 39.652,228.200 39.853 C 231.872 40.276,231.592 48.800,227.907 48.800 C 225.753 48.800,225.460 49.045,225.758 50.600 C 226.081 52.294,225.837 52.400,221.600 52.400 C 217.363 52.400,217.119 52.294,217.442 50.600 C 217.728 49.104,217.433 48.800,215.693 48.800 C 212.684 48.800,212.405 40.281,215.400 39.856 C 216.724 39.668,217.196 39.071,217.184 37.600 C 217.169 35.705,217.402 35.600,221.600 35.600 C 225.798 35.600,226.031 35.705,226.016 37.600 M188.950 67.419 C 186.895 69.895,186.248 82.326,188.003 85.605 C 188.410 86.367,188.516 87.218,188.237 87.496 C 187.697 88.036,189.044 91.063,191.348 94.490 C 192.120 95.640,192.493 96.868,192.176 97.219 C 191.859 97.569,192.015 97.619,192.522 97.329 C 193.076 97.012,193.767 97.729,194.254 99.125 C 194.700 100.403,195.820 101.689,196.744 101.982 C 197.667 102.275,198.217 102.849,197.964 103.258 C 197.712 103.666,197.937 104.000,198.465 104.000 C 198.992 104.000,199.823 104.520,200.312 105.156 C 200.800 105.792,201.739 106.422,202.397 106.556 C 203.056 106.690,203.956 107.243,204.397 107.785 C 204.839 108.327,205.975 108.884,206.922 109.022 C 207.869 109.161,209.162 109.705,209.796 110.230 C 210.429 110.756,211.149 110.985,211.395 110.739 C 211.641 110.493,213.588 110.799,215.721 111.420 C 217.854 112.041,220.860 112.441,222.400 112.309 C 227.638 111.860,229.523 111.544,230.040 111.027 C 230.324 110.743,231.061 110.704,231.678 110.941 C 232.295 111.177,232.800 111.033,232.800 110.619 C 232.800 110.205,233.250 109.866,233.800 109.866 C 235.666 109.866,241.191 106.900,243.155 104.845 C 244.231 103.720,245.428 102.899,245.815 103.020 C 246.202 103.141,246.276 102.846,245.979 102.366 C 245.674 101.873,246.160 101.304,247.093 101.060 C 248.003 100.822,248.963 99.946,249.227 99.114 C 249.492 98.281,250.044 97.600,250.454 97.600 C 250.864 97.600,251.200 97.090,251.200 96.467 C 251.200 95.843,251.601 95.200,252.091 95.036 C 252.582 94.873,253.092 93.746,253.225 92.531 C 253.358 91.317,253.826 89.891,254.264 89.362 C 255.441 87.940,256.921 78.856,256.399 76.254 C 256.151 75.014,255.757 72.560,255.524 70.800 C 255.018 66.970,254.201 65.975,252.254 66.815 C 246.188 69.431,222.539 71.395,212.000 70.158 C 209.580 69.873,205.886 69.470,203.791 69.262 C 201.696 69.054,199.676 68.694,199.302 68.463 C 198.928 68.232,197.402 67.868,195.911 67.654 C 194.420 67.440,192.455 67.046,191.544 66.777 C 190.563 66.488,189.506 66.749,188.950 67.419 M190.400 118.998 C 189.300 119.152,187.860 119.500,187.200 119.770 C 186.540 120.041,185.760 120.293,185.467 120.331 C 183.807 120.546,179.773 124.507,177.862 127.798 C 176.648 129.889,175.192 132.076,174.627 132.657 C 174.062 133.239,173.600 134.196,173.600 134.785 C 173.600 135.374,172.695 137.239,171.589 138.928 C 170.483 140.618,169.583 142.270,169.589 142.600 C 169.595 142.930,168.867 143.933,167.971 144.829 C 167.075 145.725,166.556 146.805,166.818 147.229 C 167.080 147.653,166.892 148.000,166.400 148.000 C 165.908 148.000,165.728 148.360,166.000 148.800 C 166.272 149.240,166.201 149.600,165.843 149.600 C 165.484 149.600,164.675 150.770,164.044 152.200 C 163.414 153.630,162.426 155.276,161.849 155.857 C 161.272 156.439,160.800 157.390,160.800 157.972 C 160.800 158.553,160.208 159.256,159.485 159.533 C 158.763 159.811,158.392 160.259,158.662 160.529 C 158.932 160.799,158.491 161.960,157.681 163.110 C 156.872 164.259,155.969 165.977,155.674 166.928 C 155.379 167.878,154.612 169.092,153.969 169.626 C 153.326 170.159,152.800 171.242,152.800 172.031 C 152.800 172.821,152.480 173.587,152.089 173.733 C 151.697 173.880,150.047 176.518,148.420 179.595 C 146.794 182.672,145.126 185.399,144.713 185.654 C 144.300 185.909,143.795 186.991,143.591 188.059 C 143.386 189.126,142.760 190.360,142.200 190.800 C 141.060 191.694,138.844 196.071,139.060 197.000 C 139.137 197.330,138.883 197.600,138.495 197.600 C 138.108 197.600,136.761 199.670,135.503 202.200 C 134.245 204.730,133.033 206.980,132.808 207.200 C 131.024 208.949,130.066 210.674,131.200 210.094 C 131.860 209.757,131.701 210.048,130.847 210.741 C 129.993 211.433,129.587 212.000,129.945 212.000 C 130.303 212.000,130.102 212.609,129.498 213.354 C 128.752 214.273,128.721 214.515,129.400 214.106 C 129.950 213.776,130.403 213.797,130.406 214.153 C 130.413 214.810,134.161 216.800,135.393 216.800 C 135.764 216.800,136.840 217.520,137.784 218.400 C 138.729 219.280,140.008 220.000,140.627 220.000 C 141.246 220.000,142.804 220.748,144.088 221.663 C 150.870 226.492,158.388 228.816,156.300 225.438 C 156.083 225.087,156.308 224.800,156.800 224.800 C 157.292 224.800,157.495 224.478,157.252 224.084 C 157.008 223.690,157.258 223.195,157.807 222.985 C 158.356 222.774,159.305 221.206,159.916 219.501 C 160.526 217.795,161.245 216.220,161.513 216.000 C 161.781 215.780,162.685 214.340,163.522 212.800 C 164.360 211.260,166.125 208.380,167.445 206.400 C 168.766 204.420,169.851 202.350,169.856 201.800 C 169.862 201.250,170.188 200.800,170.581 200.800 C 170.973 200.800,171.086 200.462,170.830 200.049 C 170.575 199.636,170.834 199.006,171.406 198.649 C 171.978 198.292,172.861 197.100,173.369 196.000 C 174.941 192.592,174.616 196.452,172.769 203.118 C 171.872 206.356,171.309 209.175,171.518 209.384 C 171.727 209.593,171.527 210.718,171.073 211.882 C 170.283 213.912,169.784 216.152,169.353 219.600 C 169.243 220.480,168.872 221.650,168.529 222.200 C 168.186 222.750,168.113 223.535,168.366 223.945 C 168.619 224.354,168.483 224.901,168.064 225.160 C 167.645 225.420,167.331 226.254,167.366 227.016 C 167.401 227.777,167.176 229.660,166.865 231.200 C 166.274 234.124,168.894 236.800,172.349 236.800 C 173.064 236.800,173.857 237.340,174.111 238.000 C 174.364 238.660,175.134 239.200,175.823 239.200 C 176.511 239.200,177.683 239.751,178.427 240.425 C 179.172 241.098,180.640 241.814,181.690 242.015 C 182.741 242.217,183.967 242.836,184.416 243.391 C 185.419 244.632,188.479 246.400,189.623 246.400 C 190.087 246.400,191.240 247.120,192.184 248.000 C 193.129 248.880,194.408 249.600,195.027 249.600 C 195.646 249.600,198.155 250.699,200.603 252.042 C 203.057 253.389,205.265 254.147,205.527 253.731 C 205.787 253.317,207.260 252.778,208.800 252.535 C 210.340 252.291,213.760 251.514,216.400 250.807 C 219.040 250.101,221.920 249.372,222.800 249.187 C 223.680 249.003,224.940 248.740,225.600 248.603 C 226.260 248.467,227.160 248.131,227.600 247.857 C 228.040 247.583,229.660 247.147,231.200 246.888 C 232.740 246.629,235.980 245.848,238.400 245.153 C 240.820 244.457,243.856 243.732,245.147 243.542 C 246.439 243.352,248.599 242.840,249.947 242.403 C 257.525 239.949,264.724 238.038,267.055 237.862 C 268.516 237.752,270.829 237.104,272.196 236.422 C 273.564 235.740,275.279 235.371,276.008 235.602 C 277.773 236.163,277.762 234.502,275.953 227.787 C 275.151 224.810,274.473 222.200,274.447 221.987 C 274.421 221.774,274.371 221.510,274.335 221.400 C 274.299 221.290,274.141 220.300,273.983 219.200 C 273.313 214.532,272.911 212.901,272.020 211.237 C 271.501 210.268,271.274 208.960,271.516 208.331 C 271.757 207.701,271.554 206.199,271.064 204.993 C 270.575 203.787,270.102 202.260,270.015 201.600 C 269.928 200.940,269.561 199.140,269.200 197.600 C 268.839 196.060,268.475 194.260,268.391 193.600 C 268.307 192.940,267.931 190.960,267.555 189.200 C 266.611 184.777,266.623 184.824,266.409 184.600 C 266.304 184.490,266.094 183.335,265.944 182.034 L 265.670 179.668 267.095 181.841 C 267.879 183.035,268.821 183.740,269.188 183.406 C 269.556 183.073,269.626 183.205,269.343 183.699 C 268.881 184.509,269.899 185.976,274.215 190.723 C 275.247 191.858,275.294 192.097,274.400 191.662 C 273.740 191.341,273.995 191.781,274.966 192.640 C 275.937 193.499,276.532 194.401,276.288 194.645 C 274.086 196.847,288.732 199.971,292.381 198.077 C 293.648 197.420,295.037 197.099,295.466 197.365 C 295.896 197.630,296.012 197.467,295.725 197.002 C 295.429 196.524,296.333 195.722,297.801 195.159 C 299.230 194.611,300.580 194.077,300.800 193.973 C 301.020 193.870,302.010 193.521,303.000 193.199 C 303.990 192.877,304.800 192.295,304.800 191.907 C 304.800 191.518,305.250 191.192,305.800 191.182 C 306.350 191.172,307.700 190.460,308.800 189.600 C 309.900 188.740,311.374 188.028,312.076 188.018 C 312.778 188.008,314.004 187.280,314.800 186.400 C 315.596 185.520,316.703 184.800,317.259 184.800 C 318.542 184.800,323.507 182.213,323.884 181.348 C 324.040 180.990,325.120 180.300,326.284 179.815 C 327.448 179.331,328.580 178.855,328.800 178.759 C 329.020 178.663,330.010 178.321,331.000 177.999 C 331.990 177.677,332.800 177.077,332.800 176.665 C 332.800 176.254,333.880 175.540,335.199 175.080 C 336.519 174.620,337.411 173.941,337.182 173.571 C 336.953 173.201,337.297 172.602,337.945 172.239 C 340.816 170.632,342.621 157.807,340.094 156.965 C 339.602 156.801,339.200 156.188,339.200 155.603 C 339.200 154.223,332.918 149.600,331.042 149.600 C 329.748 149.600,329.233 148.727,329.505 147.000 C 329.557 146.670,329.240 146.400,328.800 146.400 C 328.360 146.400,328.000 145.860,328.000 145.200 C 328.000 144.540,327.701 144.000,327.335 144.000 C 326.970 144.000,326.183 143.090,325.588 141.978 C 324.269 139.513,317.895 135.465,314.951 135.223 C 311.450 134.934,306.967 135.030,304.400 135.450 C 303.080 135.665,301.763 135.877,301.473 135.921 C 300.111 136.126,292.028 143.399,292.434 144.055 C 292.687 144.465,292.592 144.800,292.223 144.800 C 290.261 144.800,287.851 156.519,289.591 157.595 C 290.133 157.930,292.425 157.199,294.788 155.938 C 297.113 154.697,299.179 153.846,299.380 154.046 C 299.580 154.247,300.155 153.058,300.657 151.405 C 302.849 144.193,316.401 142.844,318.184 149.660 C 318.403 150.497,318.897 150.987,319.282 150.749 C 319.667 150.512,319.753 150.912,319.474 151.639 C 319.195 152.366,319.297 153.195,319.700 153.481 C 320.136 153.790,320.047 155.458,319.481 157.600 C 318.957 159.580,318.500 160.875,318.464 160.478 C 318.429 160.080,317.728 160.530,316.906 161.478 C 316.085 162.425,315.005 163.200,314.506 163.200 C 314.008 163.200,313.600 163.620,313.600 164.133 C 313.600 164.647,313.373 164.839,313.095 164.561 C 312.817 164.284,311.964 164.391,311.200 164.800 C 310.436 165.209,309.573 165.306,309.282 165.015 C 307.882 163.615,300.952 163.272,300.132 164.562 C 299.839 165.023,298.430 165.653,297.000 165.963 C 295.570 166.273,294.400 166.782,294.400 167.093 C 294.400 167.405,293.595 167.720,292.612 167.794 C 291.628 167.868,290.698 168.305,290.545 168.764 C 290.392 169.224,289.657 169.600,288.911 169.600 C 288.166 169.600,286.803 170.127,285.883 170.772 C 284.963 171.416,283.983 171.716,283.705 171.438 C 283.427 171.161,283.200 171.369,283.200 171.902 C 283.200 172.434,282.750 172.779,282.200 172.667 C 281.650 172.556,280.300 172.972,279.200 173.593 C 278.100 174.214,276.492 174.839,275.627 174.982 C 274.762 175.126,273.232 175.781,272.227 176.440 C 271.222 177.098,270.400 177.436,270.400 177.190 C 270.400 176.945,269.590 177.192,268.600 177.740 C 267.610 178.287,266.377 178.651,265.860 178.547 C 265.344 178.443,264.713 178.693,264.460 179.104 C 264.206 179.514,263.279 179.662,262.399 179.432 C 261.506 179.198,260.800 179.407,260.800 179.906 C 260.800 181.804,244.966 179.629,240.000 177.049 C 238.900 176.477,237.640 176.007,237.200 176.004 C 236.760 176.001,235.354 175.098,234.076 173.999 C 232.797 172.900,231.495 172.000,231.183 172.000 C 230.870 172.000,229.358 170.388,227.823 168.417 C 226.288 166.447,224.800 165.007,224.516 165.217 C 224.232 165.428,224.146 165.394,224.324 165.143 C 224.502 164.891,223.422 162.516,221.924 159.866 C 220.426 157.215,219.200 154.384,219.200 153.575 C 219.200 150.508,217.655 148.044,215.428 147.560 C 214.203 147.294,212.480 146.766,211.600 146.388 C 210.720 146.010,209.185 145.472,208.188 145.193 C 207.192 144.913,206.583 144.351,206.836 143.942 C 207.088 143.534,206.823 143.200,206.247 143.199 C 204.780 143.198,198.931 137.853,198.704 136.305 C 198.601 135.602,197.816 134.256,196.960 133.313 C 196.104 132.371,195.568 131.150,195.768 130.600 C 195.969 130.050,195.803 129.600,195.400 129.600 C 194.997 129.600,194.624 129.150,194.571 128.600 C 193.681 119.275,193.380 118.581,190.400 118.998 M203.905 118.985 C 203.853 119.323,203.881 119.953,203.967 120.384 C 204.052 120.815,204.256 122.226,204.420 123.519 C 204.830 126.761,206.422 130.400,207.430 130.400 C 207.890 130.400,208.033 130.633,207.748 130.919 C 206.211 132.455,215.922 138.363,220.172 138.477 C 226.519 138.649,233.111 136.828,233.937 134.676 C 234.185 134.028,234.751 133.723,235.194 133.997 C 235.637 134.270,236.000 133.933,236.000 133.247 C 236.000 132.561,236.336 132.000,236.746 132.000 C 237.156 132.000,237.722 131.275,238.004 130.388 C 238.285 129.502,238.849 128.983,239.258 129.236 C 239.910 129.639,240.333 128.461,239.800 127.723 C 239.690 127.571,239.997 126.941,240.482 126.323 C 240.966 125.705,241.326 123.760,241.282 122.000 L 241.200 118.800 222.600 118.585 C 212.370 118.467,203.957 118.647,203.905 118.985 M252.213 119.098 C 251.537 119.541,251.025 123.301,251.081 127.400 C 251.092 128.170,250.703 128.800,250.217 128.800 C 249.731 128.800,249.570 129.037,249.860 129.326 C 250.149 129.616,249.985 130.336,249.495 130.926 C 249.005 131.517,248.853 132.000,249.157 132.000 C 249.460 132.000,249.054 132.992,248.254 134.203 C 247.455 135.415,246.384 137.125,245.874 138.003 C 245.365 138.882,244.555 139.510,244.074 139.400 C 243.594 139.290,243.200 139.679,243.200 140.265 C 243.200 140.850,242.210 141.840,241.000 142.464 C 239.790 143.087,238.537 144.003,238.216 144.499 C 237.894 144.996,235.514 146.072,232.926 146.892 L 228.221 148.382 229.682 151.791 C 230.486 153.666,230.951 155.200,230.717 155.200 C 230.483 155.200,231.112 156.370,232.115 157.800 C 233.758 160.143,235.554 161.976,239.758 165.600 C 241.729 167.299,244.963 168.903,245.445 168.421 C 245.669 168.197,246.302 168.387,246.851 168.842 C 250.136 171.569,272.000 168.612,272.000 165.441 C 272.000 165.088,272.553 164.800,273.228 164.800 C 273.904 164.800,275.302 164.246,276.335 163.569 C 277.368 162.892,278.526 162.408,278.907 162.494 C 280.383 162.825,287.200 159.061,287.200 157.915 C 287.200 157.250,286.840 156.928,286.400 157.200 C 285.960 157.472,285.600 157.147,285.600 156.478 C 285.600 155.810,284.936 154.618,284.125 153.831 C 283.314 153.044,281.964 151.140,281.125 149.600 C 280.286 148.060,279.023 146.260,278.318 145.600 C 277.614 144.940,276.439 143.320,275.708 142.000 C 273.397 137.826,272.448 136.459,270.600 134.644 C 269.610 133.672,268.800 132.499,268.800 132.038 C 268.800 131.577,268.440 131.200,268.000 131.200 C 267.560 131.200,267.290 130.847,267.400 130.416 C 267.782 128.917,261.318 121.628,258.400 120.267 C 255.634 118.976,253.121 118.501,252.213 119.098 M51.897 153.969 C 51.672 154.194,49.932 154.574,48.029 154.813 C 46.127 155.052,44.172 155.501,43.685 155.812 C 42.825 156.360,42.405 156.492,40.857 156.700 C 40.449 156.755,39.639 157.250,39.057 157.801 C 38.476 158.352,36.670 159.695,35.044 160.786 C 33.418 161.878,31.716 163.587,31.261 164.585 C 30.806 165.583,30.101 166.400,29.693 166.400 C 29.048 166.400,24.300 173.686,24.618 174.189 C 24.683 174.293,24.185 175.913,23.511 177.789 C 22.166 181.530,21.846 192.338,23.035 193.852 C 23.805 194.832,25.143 199.200,24.957 200.123 C 24.899 200.411,25.380 201.085,26.026 201.621 C 26.672 202.157,27.200 203.006,27.200 203.506 C 27.200 204.644,30.994 208.800,32.032 208.800 C 32.455 208.800,32.800 209.340,32.800 210.000 C 32.800 210.660,33.134 211.200,33.543 211.200 C 33.951 211.200,34.761 211.650,35.343 212.200 C 37.159 213.918,45.849 217.637,49.200 218.130 C 54.968 218.979,64.967 218.231,66.800 216.814 C 67.240 216.474,68.493 215.921,69.585 215.585 C 71.697 214.936,76.221 212.004,76.668 210.995 C 76.816 210.662,77.266 210.594,77.668 210.842 C 78.071 211.091,78.400 210.865,78.400 210.340 C 78.400 209.816,79.243 208.624,80.272 207.693 C 83.270 204.983,86.400 200.381,86.400 198.684 C 86.400 197.824,86.740 196.778,87.156 196.360 C 89.006 194.498,89.721 179.124,87.984 178.533 C 87.553 178.387,87.200 177.622,87.200 176.835 C 87.200 170.442,75.149 157.660,67.810 156.269 C 66.374 155.997,64.839 155.495,64.397 155.153 C 63.444 154.415,52.489 153.378,51.897 153.969 M86.951 217.621 C 84.924 218.391,82.685 219.601,81.975 220.310 C 81.266 221.020,80.184 221.600,79.571 221.600 C 78.958 221.600,78.071 222.320,77.600 223.200 C 77.129 224.080,76.306 224.801,75.772 224.801 C 74.756 224.803,70.400 231.141,70.400 232.617 C 70.400 233.084,70.061 233.587,69.647 233.733 C 67.709 234.420,66.811 247.743,68.434 251.735 C 69.000 253.129,69.254 254.479,68.999 254.735 C 68.743 254.991,68.914 255.200,69.380 255.200 C 69.846 255.200,70.445 256.072,70.713 257.138 C 70.981 258.204,72.221 260.098,73.469 261.346 C 74.717 262.594,75.887 263.972,76.069 264.408 C 76.506 265.453,81.305 268.800,82.368 268.800 C 82.825 268.800,83.200 269.181,83.200 269.647 C 83.200 270.113,83.538 270.286,83.951 270.030 C 84.364 269.775,84.994 270.024,85.351 270.583 C 85.708 271.142,87.620 272.454,89.600 273.498 C 91.580 274.541,95.170 276.431,97.578 277.698 C 99.986 278.964,102.476 280.000,103.111 280.000 C 103.747 280.000,104.032 280.235,103.745 280.521 C 103.147 281.120,106.832 283.200,108.491 283.200 C 109.101 283.200,109.600 283.489,109.600 283.843 C 109.600 284.692,117.241 288.800,118.819 288.800 C 119.496 288.800,120.257 289.340,120.511 290.000 C 120.764 290.660,121.534 291.200,122.223 291.200 C 122.911 291.200,124.042 291.712,124.737 292.337 C 125.432 292.962,126.539 293.592,127.197 293.737 C 127.856 293.882,128.872 294.540,129.456 295.200 C 130.401 296.267,130.461 296.267,130.000 295.200 C 129.539 294.133,129.599 294.133,130.544 295.200 C 131.128 295.860,132.144 296.518,132.803 296.663 C 133.461 296.808,134.598 297.465,135.330 298.123 C 136.495 299.172,137.994 299.726,140.247 299.939 C 140.603 299.972,140.635 300.450,140.319 301.000 C 140.002 301.550,140.029 301.743,140.377 301.428 C 140.913 300.945,147.567 304.210,148.800 305.562 C 149.583 306.420,155.524 309.197,156.157 309.000 C 156.511 308.890,156.800 309.151,156.800 309.579 C 156.800 310.008,157.880 310.917,159.200 311.600 C 160.520 312.283,161.600 312.596,161.600 312.297 C 161.600 311.997,162.320 312.404,163.200 313.200 C 164.080 313.996,164.800 314.343,164.800 313.971 C 164.800 313.599,165.250 313.847,165.800 314.524 C 166.350 315.200,168.060 316.238,169.600 316.831 C 171.140 317.424,172.580 318.158,172.800 318.462 C 173.337 319.205,182.400 324.077,182.400 323.623 C 182.400 323.427,184.290 324.227,186.600 325.402 C 193.175 328.747,200.825 328.396,215.000 324.100 C 216.430 323.666,217.600 323.511,217.600 323.754 C 217.600 323.997,218.050 323.868,218.600 323.468 C 219.150 323.067,220.680 322.636,222.000 322.509 C 225.069 322.215,232.495 320.190,235.600 318.801 C 236.920 318.210,239.620 317.495,241.600 317.213 C 243.580 316.930,247.900 315.977,251.200 315.095 C 254.500 314.213,257.650 313.456,258.200 313.413 C 258.750 313.369,259.200 313.070,259.200 312.749 C 259.200 312.427,261.630 311.748,264.600 311.239 C 272.877 309.821,280.800 307.807,280.800 307.122 C 280.800 305.878,292.605 308.911,295.728 310.957 C 296.757 311.632,297.600 311.953,297.600 311.671 C 297.600 311.390,298.634 311.694,299.899 312.348 C 301.163 313.001,302.442 313.291,302.742 312.991 C 303.042 312.692,303.537 312.849,303.843 313.341 C 304.150 313.833,305.480 314.362,306.800 314.515 C 308.120 314.669,309.400 315.064,309.645 315.393 C 309.889 315.723,311.059 316.073,312.245 316.171 C 313.430 316.269,314.400 316.652,314.400 317.022 C 314.400 317.392,314.744 317.482,315.165 317.222 C 315.585 316.962,317.295 317.334,318.965 318.048 C 320.634 318.762,322.360 319.421,322.800 319.512 C 323.240 319.603,324.348 320.089,325.262 320.593 C 326.176 321.096,327.796 321.628,328.862 321.774 C 329.928 321.921,331.160 322.252,331.600 322.510 C 332.040 322.768,334.560 323.604,337.200 324.368 C 339.840 325.131,344.788 326.824,348.195 328.129 C 351.602 329.433,354.721 330.296,355.126 330.046 C 355.532 329.795,355.984 329.944,356.132 330.376 C 356.725 332.114,371.044 331.314,373.400 329.412 C 373.950 328.967,374.400 328.884,374.400 329.226 C 374.400 329.568,375.120 329.196,376.000 328.400 C 376.880 327.604,377.600 327.208,377.600 327.521 C 377.600 327.834,378.660 327.464,379.956 326.698 C 381.253 325.933,382.147 325.038,381.945 324.711 C 381.742 324.383,382.302 323.885,383.188 323.604 C 384.075 323.322,384.800 322.727,384.800 322.281 C 384.800 321.834,386.103 319.879,387.696 317.935 C 389.289 315.991,390.325 314.400,389.998 314.400 C 389.672 314.400,389.808 313.914,390.301 313.319 C 390.795 312.725,391.277 311.285,391.374 310.119 C 391.470 308.954,391.790 308.000,392.085 308.000 C 392.379 308.000,392.560 305.570,392.485 302.600 C 392.351 297.250,390.091 289.600,388.644 289.600 C 388.238 289.600,388.128 289.240,388.400 288.800 C 388.672 288.360,388.492 288.000,388.000 288.000 C 387.508 288.000,387.328 287.640,387.600 287.200 C 387.872 286.760,387.774 286.400,387.382 286.400 C 386.991 286.400,386.189 285.501,385.601 284.401 C 385.012 283.302,384.373 282.561,384.179 282.754 C 383.986 282.947,382.881 282.227,381.722 281.153 C 379.336 278.940,375.185 276.800,373.279 276.800 C 372.576 276.800,372.000 276.380,372.000 275.867 C 372.000 275.353,371.791 275.143,371.535 275.399 C 371.279 275.654,369.885 275.369,368.436 274.764 C 366.988 274.159,365.577 273.889,365.302 274.165 C 365.026 274.441,364.800 274.225,364.800 273.686 C 364.800 273.147,364.477 272.905,364.083 273.149 C 363.689 273.392,362.365 273.072,361.141 272.437 C 359.916 271.802,358.619 271.465,358.257 271.688 C 357.896 271.912,357.600 271.742,357.600 271.311 C 357.600 270.880,356.430 270.283,355.000 269.985 C 353.570 269.687,349.700 268.542,346.400 267.440 C 343.100 266.338,340.040 265.354,339.600 265.253 C 335.710 264.360,331.418 262.856,329.872 261.843 C 328.843 261.168,328.000 260.847,328.000 261.129 C 328.000 261.410,326.909 261.077,325.577 260.388 C 324.244 259.699,322.834 259.332,322.445 259.572 C 322.055 259.813,321.616 259.682,321.468 259.281 C 321.321 258.880,320.120 258.429,318.800 258.279 C 317.480 258.129,316.200 257.736,315.955 257.407 C 315.711 257.077,314.541 256.727,313.355 256.629 C 312.170 256.531,311.200 256.148,311.200 255.778 C 311.200 255.408,310.856 255.318,310.435 255.578 C 310.015 255.838,308.305 255.466,306.635 254.752 C 304.966 254.038,303.240 253.379,302.800 253.288 C 302.360 253.197,301.280 252.726,300.400 252.242 C 299.520 251.757,297.375 251.134,295.634 250.858 C 293.892 250.582,292.272 250.088,292.034 249.761 C 291.382 248.866,282.328 248.352,279.501 249.050 C 278.567 249.280,276.546 249.669,275.011 249.913 C 273.475 250.157,271.179 250.752,269.909 251.235 C 268.639 251.717,267.420 252.098,267.200 252.079 C 266.312 252.006,260.293 253.720,258.759 254.484 C 257.856 254.933,255.876 255.427,254.359 255.581 C 252.841 255.735,251.600 255.920,251.600 255.992 C 251.600 256.064,251.060 256.241,250.400 256.385 C 249.740 256.529,248.300 256.846,247.200 257.088 C 246.100 257.330,243.220 258.107,240.800 258.814 C 238.380 259.520,235.209 260.289,233.754 260.521 C 232.298 260.753,230.138 261.449,228.954 262.067 C 227.769 262.685,226.175 263.192,225.411 263.195 C 223.810 263.201,218.793 264.376,210.800 266.617 C 207.720 267.480,205.200 268.120,205.200 268.037 C 205.200 267.955,204.221 268.260,203.024 268.715 C 201.421 269.324,200.683 269.286,200.224 268.571 C 199.602 267.603,196.687 265.934,187.600 261.344 C 184.960 260.010,182.620 258.713,182.400 258.460 C 181.870 257.851,176.596 255.428,175.689 255.377 C 175.299 255.355,174.759 255.000,174.489 254.589 C 173.722 253.418,166.489 249.600,165.038 249.600 C 164.321 249.600,163.959 249.374,164.235 249.098 C 164.780 248.554,159.435 245.470,157.800 245.385 C 157.250 245.357,156.800 245.012,156.800 244.619 C 156.800 244.227,156.437 244.130,155.994 244.403 C 155.551 244.677,154.973 244.339,154.709 243.651 C 154.445 242.963,153.694 242.400,153.041 242.400 C 152.387 242.400,150.937 241.680,149.818 240.800 C 148.700 239.920,147.092 239.200,146.245 239.200 C 145.398 239.200,144.928 238.840,145.200 238.400 C 145.472 237.960,145.043 237.592,144.247 237.582 C 143.451 237.572,141.900 236.860,140.800 236.000 C 139.700 235.140,138.110 234.428,137.267 234.418 C 136.423 234.408,135.968 234.165,136.255 233.879 C 136.853 233.280,133.168 231.200,131.509 231.200 C 130.899 231.200,130.400 230.911,130.400 230.557 C 130.400 229.708,122.759 225.600,121.181 225.600 C 120.504 225.600,119.743 225.060,119.489 224.400 C 119.236 223.740,118.347 223.200,117.514 223.200 C 116.681 223.200,116.000 222.864,116.000 222.454 C 116.000 221.845,113.846 220.742,112.000 220.406 C 111.780 220.366,110.448 219.718,109.040 218.966 C 107.632 218.215,105.802 217.600,104.973 217.600 C 104.145 217.600,103.197 217.330,102.867 217.000 C 101.641 215.773,90.696 216.200,86.951 217.621 M21.600 257.425 C 20.060 258.181,18.680 259.070,18.533 259.400 C 18.387 259.730,17.911 260.000,17.476 260.000 C 16.610 260.000,14.400 261.993,14.400 262.775 C 14.400 263.044,13.619 264.320,12.666 265.611 C 10.588 268.420,10.229 280.000,12.219 280.000 C 12.590 280.000,12.706 280.305,12.475 280.679 C 12.244 281.052,12.691 282.042,13.468 282.879 C 14.245 283.715,15.123 285.035,15.420 285.812 C 15.716 286.589,16.833 287.556,17.902 287.963 C 18.970 288.369,20.081 289.084,20.370 289.551 C 20.658 290.018,21.614 290.400,22.494 290.400 C 23.374 290.400,23.909 290.700,23.683 291.066 C 23.457 291.432,24.965 292.519,27.036 293.483 C 29.106 294.446,31.880 295.935,33.200 296.791 C 36.359 298.842,41.040 301.081,41.822 300.916 C 42.165 300.844,42.653 301.328,42.908 301.993 C 43.163 302.657,43.898 303.200,44.543 303.200 C 45.187 303.200,46.258 303.743,46.922 304.407 C 47.586 305.071,48.463 305.409,48.870 305.157 C 49.278 304.905,49.827 305.261,50.091 305.949 C 50.355 306.637,50.983 307.208,51.486 307.218 C 51.989 307.228,53.278 307.910,54.351 308.735 C 55.424 309.559,56.864 310.034,57.551 309.790 C 58.238 309.545,58.535 309.637,58.211 309.995 C 57.887 310.352,59.327 311.504,61.411 312.554 C 63.495 313.605,66.280 315.158,67.600 316.007 C 70.799 318.063,75.449 320.279,76.222 320.116 C 76.565 320.044,77.053 320.528,77.308 321.193 C 77.563 321.857,78.298 322.400,78.943 322.400 C 79.587 322.400,80.658 322.943,81.322 323.607 C 81.986 324.271,82.822 324.633,83.181 324.412 C 83.539 324.190,84.039 324.547,84.291 325.205 C 84.543 325.862,85.327 326.400,86.032 326.400 C 86.737 326.400,87.854 326.940,88.514 327.600 C 89.174 328.260,90.469 328.800,91.390 328.800 C 92.312 328.800,92.832 329.035,92.545 329.322 C 92.257 329.609,93.907 330.741,96.211 331.836 C 98.515 332.932,100.580 334.047,100.800 334.314 C 101.320 334.945,104.068 336.668,105.600 337.323 C 111.553 339.868,113.722 341.073,115.831 343.007 C 116.435 343.561,117.222 343.833,117.581 343.612 C 117.939 343.390,118.439 343.747,118.691 344.405 C 118.943 345.062,119.727 345.600,120.432 345.600 C 121.137 345.600,122.254 346.140,122.914 346.800 C 123.574 347.460,124.869 348.000,125.790 348.000 C 126.712 348.000,127.237 348.230,126.955 348.511 C 126.674 348.792,127.964 349.762,129.822 350.667 C 131.680 351.571,133.380 352.555,133.600 352.852 C 134.106 353.537,141.286 357.255,144.200 358.341 C 145.410 358.792,146.400 359.529,146.400 359.980 C 146.400 360.431,147.076 360.800,147.902 360.800 C 148.728 360.800,149.849 361.336,150.393 361.991 C 150.936 362.646,151.703 362.984,152.096 362.740 C 152.490 362.497,153.027 362.861,153.291 363.549 C 153.555 364.237,154.423 364.800,155.219 364.800 C 156.015 364.800,156.793 365.180,156.948 365.644 C 157.190 366.371,158.681 366.915,161.047 367.139 C 161.403 367.172,161.496 367.522,161.253 367.915 C 161.010 368.308,161.739 368.862,162.874 369.147 C 164.008 369.432,165.680 370.358,166.589 371.205 C 167.498 372.052,168.523 372.571,168.866 372.359 C 169.209 372.147,169.714 372.337,169.988 372.781 C 170.703 373.937,371.723 373.896,372.437 372.739 C 372.726 372.273,373.479 372.089,374.111 372.332 C 374.743 372.575,375.465 372.241,375.714 371.591 C 375.964 370.941,376.478 370.601,376.858 370.836 C 377.237 371.070,378.006 370.528,378.566 369.631 C 379.127 368.734,380.060 368.000,380.640 368.000 C 381.220 368.000,381.472 367.640,381.200 367.200 C 380.928 366.760,381.087 366.400,381.553 366.400 C 382.019 366.400,382.400 365.890,382.400 365.267 C 382.400 364.643,382.764 364.012,383.208 363.864 C 384.067 363.578,384.630 361.503,385.196 356.547 C 385.578 353.199,383.657 347.398,381.646 345.825 C 380.961 345.289,380.726 344.839,381.124 344.825 C 382.224 344.787,377.348 340.802,376.200 340.801 C 375.650 340.800,375.200 340.481,375.200 340.091 C 375.200 339.701,373.490 339.102,371.400 338.760 C 369.310 338.418,367.060 338.028,366.400 337.893 C 365.740 337.758,323.260 337.628,272.000 337.604 C 213.901 337.577,178.348 337.271,177.600 336.792 C 176.940 336.370,176.754 336.019,177.188 336.012 C 177.621 336.006,176.361 335.135,174.388 334.079 C 172.414 333.022,170.440 332.360,170.000 332.607 C 169.560 332.854,169.488 332.741,169.839 332.356 C 170.190 331.971,168.750 330.835,166.639 329.833 C 164.528 328.831,161.720 327.294,160.400 326.417 C 158.066 324.868,155.896 323.790,152.200 322.344 C 151.210 321.956,150.400 321.271,150.400 320.820 C 150.400 320.369,149.680 320.000,148.800 320.000 C 147.920 320.000,147.200 319.619,147.200 319.153 C 147.200 318.687,146.840 318.528,146.400 318.800 C 145.960 319.072,145.600 318.892,145.600 318.400 C 145.600 317.908,145.237 317.730,144.794 318.003 C 144.351 318.277,143.773 317.939,143.509 317.251 C 143.245 316.563,142.617 315.992,142.114 315.982 C 141.611 315.972,140.322 315.290,139.249 314.465 C 138.176 313.641,136.736 313.166,136.049 313.410 C 135.362 313.655,135.063 313.565,135.384 313.210 C 135.705 312.855,134.265 311.719,132.184 310.685 C 130.103 309.650,127.320 308.095,126.000 307.228 C 122.888 305.183,118.172 302.917,117.378 303.084 C 117.035 303.156,116.547 302.672,116.292 302.007 C 116.037 301.343,115.177 300.800,114.381 300.800 C 113.585 300.800,112.807 300.420,112.652 299.956 C 112.497 299.492,111.719 299.017,110.922 298.900 C 110.124 298.783,109.231 298.353,108.936 297.944 C 108.061 296.729,103.464 294.400,101.943 294.400 C 101.168 294.400,100.766 294.167,101.051 293.883 C 101.335 293.598,99.819 292.555,97.682 291.565 C 95.545 290.575,93.551 289.367,93.251 288.882 C 92.951 288.397,92.007 288.000,91.153 288.000 C 90.299 288.000,89.600 287.645,89.600 287.211 C 89.600 286.405,84.107 283.646,82.978 283.884 C 82.635 283.956,82.147 283.472,81.892 282.807 C 81.637 282.143,80.902 281.600,80.257 281.600 C 79.613 281.600,78.542 281.057,77.878 280.393 C 77.214 279.729,76.378 279.367,76.019 279.588 C 75.661 279.810,75.161 279.453,74.909 278.795 C 74.657 278.138,73.873 277.600,73.168 277.600 C 72.463 277.600,71.346 277.060,70.686 276.400 C 70.026 275.740,68.731 275.200,67.810 275.200 C 66.888 275.200,66.366 274.967,66.651 274.683 C 66.935 274.398,65.419 273.355,63.282 272.365 C 61.145 271.375,59.151 270.167,58.851 269.682 C 58.551 269.197,57.607 268.800,56.753 268.800 C 55.899 268.800,55.200 268.445,55.200 268.011 C 55.200 267.205,49.707 264.446,48.578 264.684 C 48.235 264.756,47.747 264.272,47.492 263.607 C 47.237 262.943,46.502 262.400,45.857 262.400 C 45.213 262.400,44.142 261.857,43.478 261.193 C 42.814 260.529,41.940 260.190,41.536 260.440 C 41.131 260.690,40.800 260.504,40.800 260.027 C 40.800 259.551,39.810 258.754,38.600 258.257 C 33.001 255.959,25.349 255.584,21.600 257.425 " stroke="none" fill="#555555" fill-rule="evenodd"></path></g></svg>