<svg style="display: block;" id="svg" version="1.1" width="500" height="625" xmlns="http://www.w3.org/2000/svg" xmlns:xlink="http://www.w3.org/1999/xlink"><g id="svgg"><path id="path0" d="M181.844 14.959 C 180.714 15.178,180.246 15.709,180.530 16.450 C 180.797 17.145,180.481 17.600,179.733 17.600 C 178.119 17.600,177.300 16.254,178.595 15.731 C 179.148 15.509,178.834 15.298,177.898 15.263 C 176.007 15.193,174.082 16.997,175.007 17.973 C 175.333 18.317,174.773 18.344,173.762 18.033 C 172.750 17.722,171.467 17.847,170.908 18.310 C 169.600 19.396,165.473 19.711,164.053 18.833 C 163.306 18.371,163.137 18.451,163.527 19.082 C 163.853 19.610,163.526 20.232,162.770 20.522 C 162.038 20.803,161.155 20.575,160.809 20.014 C 160.011 18.723,158.330 19.687,158.880 21.120 C 159.345 22.333,156.256 23.461,155.559 22.333 C 155.315 21.939,154.363 22.318,153.443 23.175 C 152.182 24.349,151.408 24.540,150.303 23.948 C 149.136 23.324,148.932 23.412,149.304 24.381 C 149.596 25.144,149.315 25.600,148.552 25.600 C 147.882 25.600,147.182 26.050,146.997 26.600 C 146.735 27.377,146.359 27.352,145.312 26.487 C 144.135 25.515,144.027 25.541,144.467 26.687 C 144.839 27.655,144.516 28.000,143.238 28.000 C 142.285 28.000,141.722 28.349,141.986 28.777 C 142.249 29.204,141.565 29.779,140.466 30.055 C 139.366 30.331,138.047 31.062,137.535 31.678 C 136.283 33.187,134.911 33.106,135.505 31.558 C 135.795 30.803,135.651 30.521,135.136 30.839 C 134.671 31.127,134.508 31.927,134.773 32.617 C 135.270 33.912,133.991 35.166,132.153 35.188 C 131.577 35.194,131.350 34.804,131.649 34.320 C 131.991 33.767,131.496 33.813,130.314 34.446 C 128.569 35.380,128.543 35.489,129.945 35.981 C 131.299 36.456,131.202 36.690,129.004 38.255 C 126.245 40.219,125.225 40.480,126.090 39.000 C 126.412 38.450,125.866 38.711,124.876 39.580 C 123.846 40.484,123.460 41.287,123.972 41.457 C 124.624 41.675,124.616 42.057,123.943 42.869 C 123.435 43.481,122.691 43.780,122.290 43.532 C 121.888 43.284,121.612 43.378,121.675 43.741 C 121.938 45.253,121.531 45.930,120.929 44.981 C 120.441 44.213,119.903 44.406,118.741 45.767 C 117.215 47.555,117.215 47.561,118.775 46.386 C 120.342 45.206,120.342 45.213,118.775 47.732 C 115.394 53.167,112.582 56.137,111.851 55.045 C 111.417 54.397,111.345 54.835,111.662 56.200 C 112.096 58.066,111.917 58.400,110.487 58.400 C 109.559 58.400,108.800 58.910,108.800 59.533 C 108.800 60.157,108.350 60.832,107.800 61.033 C 107.026 61.317,107.053 61.649,107.917 62.500 C 108.623 63.195,108.827 63.232,108.470 62.600 C 108.160 62.050,108.287 61.600,108.753 61.600 C 109.219 61.600,109.600 61.060,109.600 60.400 C 109.600 59.740,109.994 59.200,110.476 59.200 C 110.958 59.200,110.365 60.910,109.159 63.000 C 106.434 67.721,106.060 68.124,106.742 65.600 C 107.258 63.693,107.226 63.671,106.059 65.129 C 105.328 66.042,105.024 67.413,105.304 68.529 C 105.603 69.722,105.421 70.400,104.801 70.400 C 104.266 70.400,104.032 70.928,104.279 71.574 C 104.527 72.220,104.432 72.933,104.068 73.158 C 103.704 73.383,103.134 74.744,102.801 76.183 C 102.468 77.623,102.097 79.229,101.976 79.752 C 101.659 81.123,99.961 86.588,99.413 88.000 C 99.157 88.660,99.014 89.623,99.095 90.140 C 99.176 90.656,98.817 91.342,98.298 91.663 C 97.665 92.054,97.567 91.901,98.000 91.200 C 98.428 90.507,98.335 90.346,97.724 90.724 C 96.499 91.480,96.545 93.364,97.800 93.870 C 98.600 94.193,98.600 94.286,97.800 94.337 C 97.250 94.372,96.800 94.781,96.800 95.247 C 96.800 95.713,97.196 95.850,97.680 95.551 C 98.292 95.172,98.280 95.529,97.643 96.720 C 97.139 97.662,96.944 98.786,97.210 99.217 C 97.477 99.647,97.343 100.000,96.914 100.000 C 96.485 100.000,95.958 99.550,95.743 99.000 C 95.528 98.450,95.384 99.800,95.423 102.000 C 95.461 104.200,95.633 105.370,95.805 104.600 C 95.977 103.830,96.489 103.200,96.944 103.200 C 97.424 103.200,97.523 103.788,97.179 104.600 C 96.853 105.370,96.637 106.950,96.699 108.112 C 96.765 109.339,96.306 110.418,95.606 110.687 C 94.943 110.942,94.400 111.722,94.400 112.422 C 94.400 113.208,94.783 113.478,95.400 113.130 C 96.200 112.678,96.200 112.781,95.400 113.643 C 94.850 114.235,94.406 115.098,94.412 115.560 C 94.419 116.022,94.767 115.860,95.186 115.200 C 95.721 114.358,95.896 115.108,95.774 117.716 C 95.678 119.760,95.330 121.269,95.000 121.069 C 94.670 120.869,94.400 121.288,94.400 122.000 C 94.400 122.738,94.779 123.060,95.280 122.751 C 95.912 122.360,95.923 122.649,95.320 123.776 C 94.361 125.567,94.405 128.891,95.379 128.289 C 95.735 128.069,95.785 127.499,95.489 127.021 C 95.167 126.500,95.326 126.383,95.885 126.729 C 96.398 127.046,96.818 128.272,96.819 129.453 C 96.824 134.784,97.339 140.530,97.891 141.423 C 98.248 142.001,98.067 142.405,97.447 142.412 C 96.613 142.422,96.621 142.564,97.485 143.112 C 98.278 143.614,98.321 143.954,97.647 144.371 C 96.949 144.802,96.952 145.219,97.659 146.071 C 98.333 146.883,98.344 147.200,97.698 147.200 C 97.204 147.200,96.800 147.560,96.800 148.000 C 96.800 148.440,97.340 148.800,98.000 148.800 C 99.447 148.800,99.614 151.700,98.200 152.270 C 97.400 152.593,97.400 152.686,98.200 152.737 C 98.750 152.772,99.200 153.181,99.200 153.647 C 99.200 154.113,98.750 154.266,98.200 153.988 C 97.650 153.709,97.751 153.958,98.425 154.541 C 100.323 156.182,101.632 161.412,100.735 163.771 C 100.074 165.508,100.160 165.710,101.361 165.249 C 102.125 164.956,102.515 164.951,102.227 165.240 C 101.938 165.528,102.030 166.628,102.431 167.682 C 102.954 169.058,102.883 169.603,102.180 169.612 C 101.506 169.621,101.549 169.845,102.317 170.332 C 102.949 170.732,103.213 171.612,102.926 172.361 C 102.628 173.136,102.745 173.481,103.209 173.194 C 103.644 172.926,104.000 173.237,104.000 173.886 C 104.000 174.535,103.550 175.248,103.000 175.470 C 102.403 175.711,102.564 175.899,103.400 175.937 C 104.691 175.995,105.184 177.301,104.860 179.800 C 104.788 180.350,105.196 180.806,105.765 180.812 C 106.565 180.822,106.551 180.982,105.702 181.520 C 104.854 182.057,104.794 182.735,105.439 184.507 C 106.096 186.313,106.299 186.460,106.393 185.200 C 106.472 184.151,106.910 184.684,107.666 186.750 C 108.445 188.876,108.557 190.163,108.010 190.710 C 107.565 191.155,107.206 191.898,107.212 192.360 C 107.219 192.822,107.579 192.660,108.012 192.000 C 109.100 190.343,110.371 192.281,110.388 195.622 C 110.395 197.059,111.064 198.613,112.034 199.444 C 112.933 200.213,113.452 201.193,113.187 201.621 C 112.922 202.050,113.010 202.400,113.383 202.400 C 113.755 202.400,114.114 203.128,114.181 204.017 C 114.260 205.060,113.965 205.441,113.352 205.089 C 112.804 204.775,112.683 204.852,113.067 205.272 C 113.433 205.672,114.148 206.000,114.656 206.000 C 115.163 206.000,115.699 206.630,115.848 207.400 C 115.996 208.170,115.742 208.800,115.284 208.800 C 114.825 208.800,114.669 209.370,114.936 210.067 C 115.328 211.089,115.556 211.128,116.111 210.267 C 116.675 209.394,116.943 209.418,117.588 210.400 C 118.580 211.912,118.628 213.035,117.675 212.446 C 117.276 212.200,117.137 212.714,117.366 213.590 C 117.595 214.466,118.076 215.000,118.436 214.778 C 118.795 214.556,119.350 214.795,119.668 215.311 C 120.030 215.896,119.900 216.033,119.324 215.676 C 118.776 215.338,118.400 215.614,118.400 216.353 C 118.400 217.054,119.080 217.600,119.953 217.600 C 120.807 217.600,121.766 218.021,122.084 218.536 C 122.475 219.168,122.224 219.304,121.313 218.954 C 120.180 218.519,120.098 218.689,120.805 220.010 C 121.269 220.876,121.959 221.498,122.339 221.392 C 123.198 221.153,127.051 225.504,127.659 227.400 C 127.906 228.170,128.465 228.800,128.901 228.800 C 129.337 228.800,129.442 229.209,129.133 229.708 C 128.769 230.297,128.231 229.978,127.600 228.800 C 127.065 227.801,126.433 227.302,126.195 227.692 C 125.958 228.081,126.854 229.660,128.187 231.200 C 129.520 232.740,130.378 233.575,130.092 233.055 C 129.807 232.536,129.900 231.909,130.299 231.662 C 131.224 231.091,133.600 234.669,133.600 236.632 C 133.600 238.460,137.169 241.961,138.312 241.255 C 139.287 240.652,142.783 243.884,142.001 244.665 C 141.709 244.958,140.959 244.499,140.335 243.646 C 139.711 242.792,139.200 242.497,139.200 242.989 C 139.200 244.291,143.319 247.326,144.481 246.880 C 145.025 246.671,147.389 247.921,149.735 249.658 C 152.081 251.395,154.990 253.251,156.200 253.783 C 157.410 254.315,158.400 255.032,158.400 255.375 C 158.400 255.719,158.940 256.000,159.600 256.000 C 160.260 256.000,160.800 256.349,160.800 256.775 C 160.800 257.201,161.402 257.319,162.139 257.036 C 163.177 256.638,163.355 256.843,162.930 257.950 C 162.471 259.147,162.699 259.298,164.342 258.886 C 165.420 258.615,166.525 258.755,166.798 259.197 C 167.071 259.639,166.643 260.028,165.847 260.063 C 164.963 260.102,164.799 260.287,165.427 260.539 C 165.992 260.766,166.958 260.533,167.573 260.022 C 168.450 259.295,169.052 259.452,170.346 260.746 C 171.256 261.656,172.000 262.040,172.000 261.600 C 172.000 261.160,172.381 260.800,172.847 260.800 C 173.313 260.800,173.487 261.135,173.234 261.545 C 172.554 262.645,174.402 263.518,175.367 262.553 C 176.304 261.616,178.611 262.212,177.982 263.229 C 177.758 263.592,177.995 264.150,178.511 264.468 C 179.074 264.817,179.234 264.701,178.911 264.179 C 178.615 263.701,178.710 263.103,179.120 262.850 C 180.236 262.160,184.173 263.872,183.601 264.799 C 182.891 265.947,185.076 265.790,186.357 264.600 C 187.233 263.787,187.316 263.825,186.800 264.800 C 186.322 265.704,186.402 265.783,187.124 265.119 C 188.191 264.138,192.000 264.587,192.000 265.693 C 192.000 266.082,192.381 266.400,192.847 266.400 C 193.313 266.400,193.454 266.011,193.160 265.535 C 192.477 264.430,196.163 264.878,196.988 266.000 C 197.352 266.495,197.580 266.419,197.588 265.800 C 197.595 265.225,198.620 264.800,200.000 264.800 C 201.380 264.800,202.405 265.225,202.412 265.800 C 202.420 266.467,202.683 266.400,203.200 265.600 C 203.717 264.800,203.980 264.733,203.988 265.400 C 203.994 265.950,204.381 266.400,204.847 266.400 C 205.313 266.400,205.472 266.040,205.200 265.600 C 204.928 265.160,205.447 264.800,206.353 264.800 C 207.259 264.800,208.006 265.250,208.012 265.800 C 208.021 266.483,208.211 266.524,208.612 265.930 C 209.546 264.549,217.032 263.363,219.072 264.274 C 220.455 264.890,221.062 264.747,221.896 263.608 C 222.562 262.696,223.346 262.396,224.002 262.801 C 224.693 263.228,224.854 263.134,224.476 262.524 C 224.162 262.016,224.257 261.600,224.686 261.600 C 225.115 261.600,225.648 262.050,225.870 262.600 C 226.126 263.235,226.297 263.123,226.337 262.293 C 226.405 260.874,230.400 259.666,230.400 261.064 C 230.400 261.527,230.911 261.207,231.536 260.353 C 232.160 259.499,232.970 258.787,233.336 258.772 C 233.701 258.756,234.853 258.270,235.897 257.692 C 237.019 257.069,237.571 256.999,237.249 257.520 C 236.374 258.937,237.467 258.533,239.200 256.800 C 240.080 255.920,241.520 255.200,242.400 255.200 C 243.280 255.200,244.000 254.840,244.000 254.400 C 244.000 253.960,244.335 253.690,244.744 253.800 C 245.152 253.910,246.075 253.280,246.794 252.400 C 247.715 251.271,248.223 251.095,248.517 251.800 C 249.069 253.126,250.464 253.096,249.954 251.769 C 249.737 251.203,250.648 249.695,251.979 248.420 C 253.311 247.144,254.400 246.286,254.400 246.513 C 254.400 246.740,256.066 245.330,258.101 243.379 C 260.422 241.155,262.006 240.163,262.350 240.718 C 262.699 241.284,263.728 240.736,265.198 239.202 C 266.464 237.881,267.232 236.800,266.905 236.800 C 266.578 236.800,267.321 235.871,268.555 234.735 C 269.790 233.600,270.350 232.901,269.800 233.183 C 269.250 233.464,268.800 233.313,268.800 232.847 C 268.800 232.381,269.300 232.000,269.911 232.000 C 270.522 232.000,270.972 231.370,270.911 230.600 C 270.846 229.782,271.358 229.196,272.144 229.190 C 272.882 229.184,273.782 228.884,274.144 228.523 C 274.505 228.162,274.440 227.987,274.000 228.133 C 273.560 228.280,273.110 228.130,273.000 227.800 C 272.478 226.233,272.953 225.600,274.652 225.600 C 275.981 225.600,276.881 224.809,277.839 222.800 C 278.810 220.764,278.905 219.997,278.187 219.988 C 277.447 219.979,277.461 219.810,278.242 219.314 C 278.815 218.951,279.203 218.326,279.103 217.927 C 278.759 216.553,280.984 212.962,282.691 212.136 C 283.631 211.681,283.937 211.284,283.372 211.254 C 282.571 211.212,282.546 210.823,283.258 209.492 C 284.001 208.103,284.320 207.991,284.961 208.892 C 285.580 209.760,285.656 209.703,285.310 208.626 C 285.068 207.870,285.239 207.023,285.689 206.745 C 286.140 206.466,286.317 205.736,286.081 205.123 C 285.469 203.528,288.388 197.129,290.012 196.506 C 291.067 196.101,291.172 195.731,290.473 194.888 C 289.334 193.515,290.400 190.544,292.727 188.608 C 293.647 187.842,294.428 186.762,294.461 186.208 C 294.600 183.930,295.136 182.144,295.917 181.363 C 296.487 180.793,296.317 180.188,295.372 179.418 C 294.363 178.595,294.266 178.189,295.005 177.881 C 295.558 177.651,295.805 177.132,295.554 176.726 C 295.304 176.320,295.659 175.774,296.345 175.511 C 297.030 175.248,297.407 174.735,297.182 174.371 C 296.958 174.008,297.140 173.484,297.587 173.208 C 298.034 172.932,298.394 172.277,298.388 171.753 C 298.380 171.169,298.052 171.264,297.539 172.000 C 296.921 172.887,296.835 172.471,297.211 170.400 C 298.027 165.908,298.470 164.749,299.202 165.201 C 299.580 165.435,300.150 165.205,300.468 164.689 C 300.830 164.104,300.700 163.967,300.124 164.324 C 299.540 164.684,299.200 164.289,299.200 163.247 C 299.200 162.341,299.521 161.600,299.914 161.600 C 300.307 161.600,300.829 161.078,301.074 160.441 C 301.387 159.625,301.134 159.429,300.220 159.780 C 299.195 160.173,299.052 159.955,299.540 158.739 C 299.880 157.892,300.349 155.857,300.582 154.217 C 300.815 152.576,301.320 151.427,301.703 151.664 C 302.086 151.901,302.400 151.743,302.400 151.314 C 302.400 150.885,301.982 150.394,301.472 150.224 C 300.780 149.993,300.795 149.520,301.533 148.357 C 302.320 147.117,302.432 147.085,302.086 148.200 C 301.846 148.970,301.978 149.600,302.378 149.600 C 302.779 149.600,303.038 148.374,302.953 146.876 C 302.869 145.378,302.530 144.320,302.200 144.524 C 301.870 144.728,301.600 144.312,301.600 143.600 C 301.600 142.823,301.970 142.534,302.526 142.878 C 303.161 143.270,303.310 142.907,303.001 141.724 C 302.752 140.775,302.850 140.184,303.217 140.411 C 304.542 141.229,305.044 137.357,303.736 136.401 C 302.456 135.465,302.745 131.624,304.036 132.422 C 304.395 132.644,304.950 132.405,305.268 131.889 C 305.631 131.302,305.500 131.167,304.918 131.527 C 303.293 132.532,302.932 129.622,304.471 127.921 C 305.699 126.565,305.753 126.189,304.805 125.603 C 303.832 125.002,303.831 124.610,304.800 122.800 C 305.487 121.517,305.628 120.482,305.163 120.148 C 304.177 119.440,303.960 116.800,304.889 116.800 C 305.280 116.800,305.594 115.990,305.588 115.000 C 305.578 113.521,305.429 113.414,304.753 114.400 C 304.114 115.332,303.964 115.064,304.080 113.200 C 304.162 111.880,303.951 110.147,303.610 109.349 C 303.266 108.545,303.396 107.007,303.901 105.898 C 304.442 104.711,304.484 104.101,304.006 104.396 C 303.176 104.909,303.060 104.500,302.874 100.400 C 302.814 99.080,302.481 97.550,302.135 97.000 C 301.789 96.450,301.835 96.000,302.238 96.000 C 302.641 96.000,302.932 94.951,302.885 93.669 C 302.838 92.386,302.485 91.396,302.100 91.469 C 301.715 91.541,301.218 91.100,300.996 90.489 C 300.749 89.808,300.943 89.594,301.496 89.936 C 302.009 90.253,302.400 89.992,302.400 89.333 C 302.400 88.694,301.819 87.948,301.109 87.676 C 300.304 87.367,299.971 86.597,300.224 85.629 C 300.448 84.775,300.218 83.908,299.715 83.702 C 299.212 83.495,299.396 83.298,300.125 83.263 C 301.755 83.185,301.248 80.538,299.314 79.026 C 298.138 78.108,298.117 78.149,299.114 79.419 C 299.727 80.200,299.997 81.070,299.714 81.353 C 298.808 82.259,298.121 80.865,298.060 77.995 C 298.027 76.461,297.741 75.204,297.424 75.202 C 297.108 75.201,296.896 73.938,296.954 72.396 C 297.012 70.854,296.768 69.324,296.412 68.996 C 296.055 68.668,295.963 69.210,296.207 70.200 C 296.804 72.625,295.680 72.490,294.546 70.000 C 294.044 68.900,293.953 68.000,294.342 68.000 C 294.732 68.000,294.854 67.250,294.614 66.332 C 294.291 65.098,294.010 64.936,293.532 65.710 C 293.036 66.513,292.756 66.417,292.326 65.297 C 292.018 64.493,292.159 63.596,292.641 63.298 C 293.206 62.949,293.251 62.340,292.770 61.579 C 292.154 60.606,292.022 60.661,292.012 61.898 C 292.002 63.138,291.794 63.225,290.800 62.400 C 289.476 61.301,289.132 59.616,290.391 60.394 C 290.844 60.674,290.979 60.354,290.707 59.646 C 290.446 58.966,289.948 58.585,289.600 58.800 C 289.252 59.015,288.750 58.623,288.484 57.930 C 287.782 56.100,287.879 55.833,289.000 56.506 C 289.625 56.882,289.560 56.525,288.826 55.554 C 287.032 53.179,286.906 53.091,287.447 54.600 C 287.724 55.370,287.589 56.000,287.149 56.000 C 286.066 56.000,284.820 52.516,285.701 51.953 C 286.085 51.707,285.833 50.807,285.141 49.953 C 284.448 49.099,284.094 48.825,284.354 49.345 C 285.198 51.032,283.454 51.206,281.983 49.581 C 281.196 48.712,280.938 48.000,281.409 48.000 C 281.881 48.000,282.448 48.450,282.670 49.000 C 282.934 49.655,283.095 49.565,283.137 48.739 C 283.208 47.320,279.740 43.726,279.007 44.459 C 278.406 45.061,274.723 41.430,275.023 40.531 C 275.146 40.163,274.528 39.674,273.649 39.445 C 272.771 39.215,271.835 38.341,271.569 37.502 C 271.303 36.663,270.754 36.181,270.349 36.431 C 269.944 36.682,268.778 36.057,267.757 35.043 C 266.736 34.029,264.946 32.696,263.778 32.079 C 262.610 31.463,261.828 30.678,262.040 30.335 C 262.253 29.991,262.020 29.460,261.524 29.153 C 261.027 28.846,260.307 29.091,259.923 29.698 C 259.399 30.525,259.221 30.373,259.212 29.086 C 259.200 27.322,257.185 25.930,256.425 27.160 C 255.732 28.281,252.806 27.128,252.737 25.707 C 252.700 24.950,252.510 24.802,252.285 25.355 C 251.849 26.427,249.600 25.850,249.600 24.667 C 249.600 24.248,249.960 24.128,250.400 24.400 C 250.840 24.672,251.200 24.555,251.200 24.141 C 251.200 23.726,250.507 23.205,249.660 22.984 C 248.515 22.684,248.242 22.900,248.596 23.822 C 248.909 24.638,248.752 24.864,248.136 24.484 C 247.621 24.166,247.172 23.297,247.137 22.553 C 247.098 21.720,246.919 21.584,246.670 22.200 C 246.448 22.750,245.735 23.200,245.086 23.200 C 244.437 23.200,244.107 22.874,244.354 22.475 C 244.600 22.076,244.061 21.943,243.155 22.180 C 242.046 22.470,240.683 21.858,238.984 20.305 C 237.597 19.037,236.889 18.566,237.411 19.259 C 238.231 20.345,238.044 20.471,236.037 20.176 C 234.317 19.924,233.822 19.493,234.132 18.518 C 234.386 17.720,234.284 17.531,233.875 18.038 C 233.050 19.063,229.387 19.391,230.009 18.385 C 230.255 17.988,229.187 17.828,227.627 18.028 C 226.072 18.227,224.800 18.048,224.800 17.629 C 224.800 17.210,223.469 16.972,221.842 17.100 C 217.694 17.427,213.949 16.489,214.245 15.197 C 214.441 14.345,214.207 14.359,213.092 15.265 C 212.198 15.990,211.910 16.039,212.294 15.400 C 212.675 14.764,212.423 14.400,211.600 14.400 C 210.777 14.400,210.525 14.764,210.906 15.400 C 211.315 16.079,211.073 16.048,210.154 15.302 C 209.243 14.563,208.473 14.460,207.800 14.986 C 207.250 15.416,204.640 15.783,202.000 15.803 C 197.918 15.833,197.619 15.747,200.000 15.225 L 202.800 14.611 200.247 14.505 C 198.843 14.447,197.472 14.760,197.200 15.200 C 196.928 15.640,195.806 16.000,194.706 16.000 C 193.576 16.000,192.921 15.652,193.200 15.200 C 193.487 14.735,192.753 14.424,191.447 14.456 C 189.471 14.506,189.393 14.595,190.800 15.200 C 192.133 15.773,191.959 15.897,189.753 15.944 C 187.847 15.984,187.269 15.720,187.690 15.000 C 188.012 14.450,187.555 14.630,186.675 15.400 C 184.941 16.917,183.200 17.247,183.200 16.059 C 183.200 15.651,183.830 15.153,184.600 14.951 C 186.390 14.484,184.262 14.489,181.844 14.959 M99.752 79.800 C 99.008 81.105,98.376 86.785,99.107 85.600 C 99.514 84.940,100.030 83.230,100.254 81.800 C 100.647 79.287,100.463 78.554,99.752 79.800 M98.825 158.400 C 99.058 159.940,99.253 161.915,99.259 162.790 C 99.268 163.999,99.434 164.115,99.954 163.275 C 100.565 162.285,100.248 160.399,98.864 156.800 C 98.610 156.140,98.593 156.860,98.825 158.400 M276.898 222.559 C 276.540 223.526,275.742 224.454,275.124 224.620 C 274.257 224.853,274.275 224.728,275.200 224.073 C 275.860 223.606,276.086 223.219,275.702 223.212 C 275.318 223.206,275.452 222.660,276.000 222.000 C 277.386 220.331,277.659 220.501,276.898 222.559 M137.600 239.875 C 137.600 240.814,137.225 240.699,136.000 239.384 C 135.120 238.440,134.400 237.236,134.400 236.709 C 134.400 236.130,135.031 236.323,136.000 237.200 C 136.880 237.996,137.600 239.200,137.600 239.875 M265.128 238.479 C 263.570 240.202,262.098 240.505,262.600 239.000 C 262.783 238.450,263.443 237.984,264.067 237.964 C 264.690 237.944,265.101 237.467,264.980 236.904 C 264.859 236.341,265.153 236.124,265.632 236.420 C 266.218 236.782,266.053 237.458,265.128 238.479 M252.285 248.987 C 251.457 250.326,252.830 250.713,254.057 249.486 C 255.149 248.394,255.144 248.267,254.003 248.267 C 253.303 248.267,252.529 248.591,252.285 248.987 M116.000 255.027 C 116.000 255.834,115.389 256.070,113.993 255.803 C 112.531 255.523,112.196 255.672,112.758 256.350 C 113.313 257.019,112.022 257.868,108.168 259.368 C 104.293 260.878,102.642 261.199,102.215 260.528 C 101.795 259.867,101.621 259.913,101.612 260.686 C 101.605 261.303,101.100 261.579,100.441 261.326 C 99.666 261.029,99.429 261.266,99.726 262.041 C 100.018 262.800,99.651 263.200,98.664 263.200 C 97.834 263.200,96.355 263.761,95.377 264.446 C 94.398 265.132,93.238 265.471,92.799 265.199 C 92.359 264.928,92.000 265.131,92.000 265.651 C 92.000 266.340,91.663 266.316,90.755 265.563 C 89.762 264.738,89.559 264.735,89.755 265.546 C 89.900 266.146,88.524 267.016,86.400 267.669 C 82.135 268.980,81.597 269.036,83.200 268.000 C 84.226 267.337,84.196 267.223,83.000 267.212 C 82.230 267.206,81.600 267.761,81.600 268.447 C 81.600 269.133,81.240 269.472,80.800 269.200 C 80.360 268.928,80.000 269.087,80.000 269.553 C 80.000 270.019,79.619 270.400,79.153 270.400 C 78.687 270.400,78.509 270.072,78.757 269.670 C 79.353 268.704,76.827 269.092,76.136 270.073 C 75.841 270.491,74.549 271.295,73.265 271.860 C 71.068 272.828,70.996 272.803,72.041 271.444 C 72.693 270.597,72.305 270.752,71.104 271.819 C 69.978 272.820,68.009 273.952,66.728 274.336 C 65.448 274.719,63.711 275.312,62.869 275.653 C 61.798 276.086,61.510 275.993,61.910 275.345 C 62.279 274.748,62.059 274.581,61.292 274.875 C 60.585 275.147,60.295 275.874,60.578 276.666 C 60.840 277.400,60.775 277.747,60.432 277.438 C 60.090 277.129,59.274 277.411,58.620 278.066 C 57.767 278.918,57.143 279.017,56.417 278.414 C 54.950 277.197,52.596 278.332,53.042 280.040 C 53.336 281.164,53.020 281.389,51.527 281.118 C 50.021 280.845,49.745 281.048,50.159 282.127 C 50.558 283.165,50.359 283.355,49.297 282.948 C 48.422 282.612,48.110 282.730,48.444 283.270 C 49.141 284.399,46.281 286.998,43.602 287.671 C 42.050 288.060,41.571 288.601,41.845 289.652 C 42.053 290.446,41.723 291.289,41.112 291.523 C 40.500 291.758,40.000 291.580,40.000 291.128 C 40.000 290.676,39.609 290.547,39.130 290.843 C 38.558 291.197,38.531 291.651,39.050 292.170 C 39.570 292.690,39.310 293.490,38.291 294.509 C 37.439 295.361,36.956 296.405,37.218 296.829 C 37.480 297.253,37.313 297.600,36.847 297.600 C 36.381 297.600,35.988 298.050,35.973 298.600 C 35.941 299.814,33.211 303.200,32.264 303.200 C 31.034 303.200,29.414 306.534,30.242 307.362 C 31.645 308.765,30.379 311.288,28.501 310.830 C 27.565 310.602,27.250 310.621,27.800 310.874 C 28.350 311.127,28.800 311.685,28.800 312.114 C 28.800 312.543,28.350 312.624,27.800 312.294 C 27.016 311.823,27.006 311.948,27.754 312.873 C 28.869 314.253,27.834 316.487,26.471 315.644 C 25.821 315.242,25.707 315.990,26.072 318.267 C 26.516 321.049,26.392 321.436,25.090 321.326 C 23.984 321.232,23.541 321.818,23.370 323.600 C 23.185 325.534,23.317 325.767,24.046 324.800 C 24.800 323.801,24.867 323.857,24.448 325.136 C 24.172 325.981,23.587 328.272,23.149 330.227 C 22.711 332.182,21.553 334.449,20.576 335.264 C 19.599 336.080,19.250 336.759,19.800 336.773 C 20.350 336.788,20.800 336.380,20.800 335.867 C 20.800 335.353,20.988 335.122,21.219 335.352 C 21.851 335.985,20.726 338.449,20.007 338.004 C 19.663 337.792,19.202 338.307,18.982 339.149 C 18.684 340.288,18.901 340.558,19.829 340.201 C 20.801 339.828,20.941 340.063,20.461 341.261 C 20.122 342.108,19.659 343.880,19.432 345.200 C 19.206 346.520,18.923 348.140,18.804 348.800 C 18.685 349.460,18.245 349.930,17.827 349.844 C 17.409 349.759,17.067 350.209,17.067 350.844 C 17.067 351.480,17.367 352.000,17.733 352.000 C 18.863 352.000,18.475 354.217,16.835 357.137 C 15.437 359.626,15.416 359.868,16.635 359.412 C 17.827 358.965,17.861 359.072,16.902 360.250 C 16.298 360.993,16.118 361.611,16.502 361.624 C 16.886 361.638,16.570 362.016,15.800 362.464 C 14.190 363.402,13.914 365.588,15.400 365.625 C 16.011 365.641,15.855 366.065,15.000 366.714 C 13.534 367.826,13.021 369.253,14.391 368.406 C 14.826 368.137,15.018 368.386,14.819 368.958 C 14.619 369.531,14.264 371.980,14.029 374.400 C 12.744 387.628,11.585 394.162,10.228 395.838 C 9.444 396.806,9.437 396.965,10.200 396.506 C 10.750 396.176,11.200 396.257,11.200 396.686 C 11.200 397.115,10.750 397.677,10.200 397.933 C 9.400 398.307,9.400 398.493,10.200 398.867 C 11.644 399.540,11.429 401.392,9.800 402.310 C 8.679 402.943,8.599 403.301,9.400 404.110 C 10.569 405.291,10.748 406.710,9.642 406.026 C 8.869 405.548,9.123 408.180,9.984 409.574 C 10.245 409.996,9.753 411.047,8.891 411.909 C 7.591 413.209,7.525 413.553,8.499 413.927 C 9.955 414.486,9.625 417.008,8.000 417.744 C 7.018 418.189,7.054 418.298,8.200 418.344 C 8.970 418.375,9.600 418.799,9.600 419.286 C 9.600 419.773,9.135 419.993,8.567 419.775 C 7.922 419.527,7.475 420.095,7.376 421.289 C 7.289 422.340,7.574 423.200,8.009 423.200 C 8.444 423.200,8.800 423.581,8.800 424.047 C 8.800 424.513,8.440 424.672,8.000 424.400 C 7.560 424.128,7.200 424.257,7.200 424.686 C 7.200 425.115,7.650 425.656,8.200 425.887 C 8.925 426.191,8.829 426.543,7.854 427.163 C 7.041 427.680,6.535 428.985,6.577 430.458 C 6.615 431.815,6.903 432.481,7.225 431.959 C 7.543 431.444,7.626 430.343,7.409 429.511 C 7.191 428.680,7.415 428.000,7.907 428.000 C 9.141 428.000,9.082 437.798,7.840 439.040 C 7.093 439.787,7.193 440.000,8.287 440.000 C 9.061 440.000,9.468 440.366,9.192 440.813 C 8.916 441.260,8.299 441.385,7.821 441.089 C 7.315 440.777,7.182 440.924,7.502 441.441 C 7.804 441.930,8.580 442.127,9.226 441.879 C 9.872 441.632,10.400 441.797,10.400 442.248 C 10.400 442.698,10.019 443.194,9.554 443.349 C 8.554 443.682,9.426 446.400,10.533 446.400 C 10.952 446.400,11.035 445.950,10.719 445.400 C 10.385 444.819,10.449 444.679,10.872 445.067 C 11.272 445.433,11.631 445.973,11.669 446.267 C 11.905 448.091,13.080 449.641,13.595 448.808 C 14.000 448.152,14.594 448.308,15.627 449.341 C 16.429 450.143,17.199 450.715,17.338 450.611 C 17.822 450.247,23.200 453.102,23.200 453.723 C 23.200 454.068,23.660 454.173,24.223 453.957 C 24.786 453.741,25.956 454.142,26.823 454.848 C 28.389 456.122,28.389 456.127,26.800 455.618 C 25.546 455.216,25.409 455.316,26.166 456.079 C 26.879 456.797,27.413 456.819,28.202 456.164 C 29.386 455.181,33.984 456.395,36.272 458.294 C 36.964 458.868,37.908 459.104,38.370 458.819 C 39.286 458.252,44.800 459.994,44.800 460.850 C 44.800 461.140,43.900 461.206,42.800 460.996 C 41.700 460.786,40.800 460.274,40.800 459.860 C 40.800 459.445,40.416 459.343,39.947 459.633 C 38.714 460.395,39.349 460.773,43.848 461.960 C 46.410 462.636,48.139 462.741,48.629 462.251 C 49.752 461.128,56.000 462.975,56.000 464.431 C 56.000 465.074,56.381 465.600,56.847 465.600 C 57.313 465.600,57.496 465.278,57.253 464.886 C 56.997 464.471,58.033 464.447,59.723 464.828 C 61.324 465.189,62.898 465.911,63.220 466.433 C 63.661 467.146,63.892 467.125,64.151 466.347 C 64.362 465.713,65.052 465.526,65.931 465.863 C 66.720 466.166,67.176 466.909,66.944 467.514 C 66.521 468.615,72.481 470.186,73.440 469.227 C 73.675 468.992,73.267 468.800,72.533 468.800 C 71.800 468.800,71.200 468.490,71.200 468.111 C 71.200 467.732,72.806 467.789,74.768 468.239 C 76.731 468.688,78.165 469.333,77.955 469.672 C 77.746 470.012,77.995 470.550,78.511 470.868 C 79.096 471.230,79.233 471.100,78.876 470.524 C 77.931 468.994,80.421 469.471,82.688 471.255 C 84.144 472.400,84.651 472.542,84.334 471.717 C 83.794 470.308,86.207 470.394,87.085 471.814 C 87.416 472.350,88.082 472.444,88.728 472.044 C 89.326 471.675,90.936 471.714,92.307 472.130 C 95.374 473.062,99.136 473.751,100.999 473.722 C 101.768 473.709,102.770 474.397,103.227 475.250 C 104.212 477.090,105.600 477.295,105.600 475.600 C 105.600 474.940,106.140 474.400,106.800 474.400 C 108.240 474.400,108.404 475.732,107.021 476.193 C 106.482 476.373,106.870 476.736,107.884 477.001 C 109.300 477.372,109.620 477.207,109.268 476.289 C 108.913 475.363,109.212 475.220,110.605 475.653 C 111.592 475.960,112.520 476.524,112.667 476.906 C 112.813 477.288,113.285 477.600,113.714 477.600 C 114.143 477.600,114.281 477.255,114.021 476.834 C 113.760 476.412,114.535 476.580,115.743 477.207 C 117.257 477.992,118.104 478.079,118.470 477.487 C 119.107 476.457,122.400 477.348,122.400 478.552 C 122.400 479.080,122.846 479.026,123.590 478.408 C 124.989 477.247,127.306 477.904,127.007 479.378 C 126.888 479.967,127.733 480.507,129.000 480.653 C 130.590 480.836,131.200 480.551,131.200 479.625 C 131.200 478.622,131.524 478.517,132.695 479.144 C 133.517 479.584,134.474 479.686,134.822 479.372 C 135.170 479.057,135.229 479.430,134.953 480.200 C 134.351 481.876,137.997 482.268,138.670 480.600 C 138.976 479.841,139.089 479.835,139.137 480.575 C 139.174 481.148,139.748 481.339,140.531 481.039 C 141.530 480.656,141.691 480.812,141.178 481.664 C 140.595 482.630,140.704 482.629,141.907 481.651 C 143.137 480.653,143.419 480.653,144.061 481.651 C 144.699 482.644,144.917 482.637,145.661 481.600 C 146.138 480.935,146.673 480.757,146.860 481.200 C 147.046 481.640,148.729 481.953,150.599 481.895 C 152.470 481.837,154.360 482.008,154.800 482.274 C 155.623 482.772,156.058 482.861,158.800 483.090 C 160.018 483.192,160.141 483.389,159.315 483.912 C 158.564 484.388,158.935 484.595,160.515 484.584 C 161.772 484.576,162.348 484.410,161.795 484.216 C 161.242 484.022,160.984 483.550,161.221 483.167 C 161.457 482.783,162.178 482.672,162.821 482.919 C 163.464 483.166,163.839 483.614,163.653 483.914 C 163.467 484.215,164.189 484.533,165.258 484.621 C 166.326 484.710,167.200 484.503,167.200 484.161 C 167.200 482.995,171.793 483.187,172.796 484.395 C 173.346 485.058,174.562 485.564,175.498 485.520 C 177.028 485.449,176.998 485.376,175.200 484.800 C 173.542 484.269,173.816 484.148,176.800 484.092 C 179.399 484.043,180.066 484.240,179.200 484.800 C 178.540 485.227,178.275 485.581,178.611 485.588 C 178.947 485.594,179.907 485.172,180.745 484.648 C 181.923 483.913,182.692 483.914,184.134 484.653 L 186.000 485.608 184.000 485.166 C 182.232 484.775,182.171 484.830,183.477 485.645 C 184.554 486.316,185.193 486.327,185.837 485.683 C 186.323 485.197,188.358 484.825,190.360 484.856 C 193.129 484.899,193.617 485.077,192.400 485.600 C 191.228 486.104,191.936 486.303,195.047 486.344 C 197.688 486.379,199.107 486.097,198.800 485.600 C 198.521 485.149,199.169 484.800,200.286 484.800 C 201.375 484.800,202.430 485.250,202.629 485.800 C 202.919 486.600,203.330 486.600,204.685 485.800 C 206.711 484.604,210.400 484.475,210.400 485.600 C 210.400 486.040,211.141 486.400,212.047 486.400 C 213.050 486.400,213.480 486.053,213.146 485.513 C 212.757 484.884,213.588 484.793,216.000 485.200 C 218.748 485.664,219.283 485.566,218.784 484.687 C 218.285 483.810,218.374 483.793,219.243 484.600 C 219.835 485.150,220.698 485.594,221.160 485.588 C 221.622 485.581,221.460 485.227,220.800 484.800 C 219.868 484.198,220.102 484.022,221.847 484.012 C 223.144 484.005,223.885 484.338,223.600 484.800 C 223.328 485.240,223.457 485.600,223.886 485.600 C 224.315 485.600,224.848 485.150,225.070 484.600 C 225.388 483.812,225.487 483.816,225.537 484.618 C 225.586 485.410,226.002 485.382,227.400 484.493 C 228.390 483.864,230.100 483.305,231.200 483.251 C 232.300 483.196,235.540 483.072,238.400 482.976 C 241.260 482.879,243.843 482.463,244.139 482.051 C 244.455 481.613,245.265 481.779,246.093 482.451 C 246.977 483.169,247.282 483.225,246.906 482.600 C 246.470 481.874,247.097 481.600,249.200 481.600 C 250.904 481.600,251.893 481.925,251.606 482.391 C 251.326 482.844,251.646 482.979,252.354 482.707 C 253.034 482.446,253.438 481.985,253.251 481.682 C 252.712 480.810,256.104 480.799,257.728 481.668 C 258.860 482.274,259.200 482.173,259.200 481.228 C 259.200 480.463,259.929 480.000,261.135 480.000 C 262.199 480.000,263.701 479.758,264.473 479.461 C 265.599 479.029,265.771 479.227,265.337 480.461 C 264.821 481.929,264.848 481.933,265.921 480.552 C 266.633 479.636,267.239 479.415,267.570 479.952 C 268.540 481.522,272.909 480.955,273.368 479.200 C 273.768 477.671,276.000 476.879,276.000 478.267 C 276.000 478.633,276.524 478.933,277.165 478.933 C 277.805 478.933,278.168 478.671,277.969 478.350 C 277.771 478.030,278.136 477.566,278.779 477.319 C 279.422 477.072,280.162 477.214,280.422 477.635 C 280.682 478.056,281.503 478.394,282.247 478.388 C 283.421 478.377,283.441 478.265,282.400 477.539 C 281.513 476.921,281.905 476.842,283.900 477.237 C 285.782 477.609,286.434 477.503,286.053 476.886 C 285.723 476.352,286.134 476.000,287.086 476.000 C 287.955 476.000,288.848 476.450,289.070 477.000 C 289.304 477.580,289.500 477.392,289.537 476.553 C 289.572 475.757,289.966 475.332,290.413 475.608 C 290.860 475.884,290.985 476.501,290.689 476.979 C 290.366 477.501,290.526 477.617,291.089 477.268 C 291.605 476.950,291.834 476.379,291.600 476.000 C 290.743 474.614,293.073 474.196,294.068 475.558 C 295.207 477.115,296.800 476.591,296.800 474.659 C 296.800 473.770,297.303 473.545,298.558 473.873 C 299.525 474.126,300.785 473.944,301.358 473.469 C 302.007 472.931,302.400 472.905,302.400 473.402 C 302.400 473.841,303.293 474.200,304.385 474.200 C 305.477 474.200,306.192 473.910,305.972 473.555 C 305.753 473.201,305.915 472.700,306.332 472.442 C 306.748 472.185,307.316 472.340,307.592 472.787 C 307.868 473.234,308.454 473.600,308.894 473.600 C 309.334 473.600,309.472 473.240,309.200 472.800 C 308.928 472.360,308.817 471.982,308.953 471.959 C 314.100 471.113,316.133 471.137,315.577 472.037 C 315.168 472.699,315.276 472.848,315.889 472.468 C 316.405 472.150,316.642 471.592,316.418 471.229 C 316.193 470.865,316.566 470.354,317.246 470.093 C 317.941 469.826,318.273 469.958,318.004 470.393 C 317.741 470.820,318.614 470.546,319.944 469.784 C 322.003 468.606,322.617 468.558,324.065 469.459 C 325.332 470.247,325.610 470.264,325.152 469.523 C 324.727 468.835,324.932 468.680,325.817 469.019 C 326.521 469.289,327.272 469.080,327.487 468.555 C 327.790 467.816,328.032 467.816,328.560 468.558 C 329.385 469.716,331.641 468.561,330.899 467.360 C 330.609 466.891,330.994 466.655,331.796 466.809 C 332.568 466.957,333.380 467.111,333.600 467.151 C 333.820 467.191,333.460 467.606,332.800 468.073 C 331.733 468.828,331.733 468.885,332.800 468.594 C 333.460 468.414,334.004 467.757,334.009 467.133 C 334.014 466.420,334.682 466.093,335.809 466.250 C 336.828 466.393,337.600 466.077,337.600 465.517 C 337.600 464.976,337.817 464.750,338.082 465.016 C 338.348 465.281,339.488 465.147,340.616 464.718 C 342.119 464.146,342.842 464.214,343.321 464.969 C 343.804 465.729,343.979 465.631,343.988 464.593 C 343.998 463.421,344.249 463.342,345.494 464.119 C 347.391 465.304,349.928 464.408,349.301 462.775 C 348.916 461.772,349.123 461.717,350.504 462.456 C 351.762 463.129,352.396 463.105,353.086 462.357 C 353.779 461.605,353.758 461.502,353.000 461.930 C 352.447 462.242,352.000 462.074,352.000 461.554 C 352.000 460.982,352.784 460.763,354.000 460.996 C 355.100 461.206,356.000 461.112,356.000 460.786 C 356.000 460.003,360.084 458.338,362.713 458.049 C 363.861 457.923,364.800 458.097,364.800 458.435 C 364.800 459.672,368.002 458.173,368.063 456.907 C 368.103 456.077,368.274 455.965,368.530 456.600 C 369.160 458.161,370.415 457.773,369.825 456.200 C 369.349 454.930,369.440 454.911,370.804 456.000 C 371.678 456.698,372.056 456.782,371.706 456.200 C 371.164 455.296,373.158 454.725,375.459 455.125 C 375.822 455.188,375.898 454.882,375.627 454.444 C 375.037 453.489,380.678 450.982,382.148 451.546 C 382.716 451.764,383.142 451.685,383.096 451.371 C 382.876 449.899,383.287 449.476,384.200 450.233 C 384.917 450.827,385.765 450.591,387.200 449.398 C 388.425 448.379,388.660 447.930,387.808 448.239 C 386.369 448.761,388.910 443.940,391.843 440.581 C 392.793 439.493,392.863 438.943,392.141 438.221 C 390.822 436.902,390.969 434.439,392.400 433.889 C 393.953 433.293,393.953 432.000,392.400 432.000 C 391.533 432.000,391.200 431.111,391.200 428.800 C 391.200 426.967,391.584 425.600,392.098 425.600 C 392.683 425.600,392.613 425.128,391.898 424.246 C 391.294 423.502,391.192 423.127,391.670 423.413 C 392.231 423.749,392.584 422.817,392.663 420.795 C 392.767 418.149,392.568 417.724,391.393 418.093 C 390.116 418.494,390.120 418.432,391.442 417.346 C 392.435 416.531,392.579 416.060,391.905 415.835 C 391.367 415.656,390.859 414.809,390.778 413.954 C 390.697 413.099,390.397 411.028,390.112 409.351 C 389.715 407.020,389.830 406.443,390.597 406.904 C 391.368 407.368,391.390 407.241,390.690 406.354 C 389.480 404.820,388.939 398.506,389.980 398.070 C 390.431 397.881,390.350 397.698,389.800 397.663 C 389.250 397.628,388.800 397.219,388.800 396.753 C 388.800 396.287,389.100 396.091,389.467 396.318 C 389.833 396.544,390.133 396.205,390.133 395.565 C 390.133 394.924,389.833 394.400,389.467 394.400 C 389.100 394.400,388.800 394.019,388.800 393.553 C 388.800 393.087,389.126 392.907,389.525 393.154 C 389.924 393.400,390.063 392.886,389.834 392.010 C 389.605 391.134,389.159 390.578,388.842 390.774 C 388.526 390.970,388.267 390.621,388.267 390.000 C 388.267 389.379,388.507 389.019,388.800 389.200 C 389.093 389.381,389.333 389.021,389.333 388.400 C 389.333 387.779,389.071 387.432,388.750 387.631 C 388.061 388.057,386.972 385.562,387.581 384.952 C 387.812 384.722,388.000 384.953,388.000 385.467 C 388.000 385.980,388.348 386.400,388.774 386.400 C 389.250 386.400,389.280 385.707,388.851 384.600 C 388.468 383.610,387.834 382.865,387.443 382.945 C 387.052 383.024,386.673 382.309,386.601 381.355 C 386.498 379.981,386.627 379.867,387.223 380.810 C 387.677 381.527,387.980 381.622,387.988 381.047 C 387.994 380.523,387.656 379.882,387.235 379.622 C 386.814 379.362,386.659 378.657,386.889 378.055 C 387.120 377.454,386.932 376.729,386.471 376.444 C 385.900 376.091,385.946 375.395,386.616 374.258 C 387.374 372.975,387.380 372.511,386.645 372.244 C 386.120 372.053,385.888 371.380,386.131 370.748 C 386.373 370.117,386.173 369.600,385.686 369.600 C 385.199 369.600,384.800 369.039,384.800 368.353 C 384.800 367.667,385.174 367.337,385.632 367.620 C 386.178 367.957,386.274 367.375,385.911 365.930 C 385.607 364.718,385.289 362.797,385.204 361.663 C 384.778 355.939,384.937 356.309,383.651 358.047 C 382.380 359.763,382.291 358.087,383.546 356.076 C 384.026 355.307,383.956 355.133,383.324 355.524 C 382.816 355.838,382.371 355.803,382.335 355.447 C 381.959 351.707,381.751 350.585,381.185 349.269 C 380.719 348.182,380.800 347.906,381.464 348.316 C 382.088 348.701,382.400 348.195,382.400 346.800 C 382.400 345.648,382.078 344.905,381.684 345.148 C 381.290 345.392,380.770 345.076,380.529 344.447 C 380.287 343.818,380.477 343.174,380.951 343.016 C 382.100 342.633,380.980 339.177,379.784 339.416 C 379.278 339.517,378.811 338.822,378.745 337.870 C 378.679 336.919,378.388 335.523,378.099 334.769 C 377.809 334.015,377.990 332.895,378.499 332.280 C 379.241 331.387,379.164 331.264,378.113 331.667 C 377.383 331.947,376.800 331.778,376.800 331.286 C 376.800 330.799,377.186 330.400,377.657 330.400 C 378.129 330.400,377.949 329.834,377.257 329.143 C 375.871 327.757,375.532 326.016,376.800 326.800 C 377.240 327.072,377.600 326.744,377.600 326.072 C 377.600 325.362,377.138 325.028,376.495 325.274 C 374.970 325.859,373.253 320.981,374.469 319.517 C 374.957 318.928,375.050 318.017,374.681 317.435 C 374.320 316.866,374.019 316.160,374.012 315.867 C 374.006 315.573,373.672 315.033,373.272 314.667 C 372.849 314.279,372.785 314.419,373.119 315.000 C 373.435 315.550,373.371 316.000,372.976 316.000 C 372.580 316.000,371.827 315.057,371.302 313.904 C 370.484 312.109,370.523 311.876,371.574 312.279 C 372.325 312.567,372.800 312.304,372.800 311.600 C 372.800 310.856,372.330 310.631,371.469 310.961 C 370.570 311.306,370.327 311.166,370.719 310.530 C 371.051 309.993,370.755 309.379,370.030 309.101 C 369.022 308.714,368.957 308.375,369.715 307.461 C 370.474 306.547,370.437 306.360,369.535 306.555 C 368.720 306.731,368.469 306.151,368.646 304.497 C 368.842 302.667,368.631 302.294,367.621 302.681 C 366.222 303.218,364.420 299.745,365.132 297.888 C 365.351 297.318,365.130 296.604,364.641 296.302 C 364.124 295.982,363.977 296.115,364.289 296.621 C 364.585 297.099,364.460 297.716,364.013 297.992 C 363.255 298.460,362.835 297.341,363.145 295.681 C 363.447 294.068,362.338 292.407,361.675 293.478 C 361.208 294.235,360.471 293.800,358.925 291.856 C 357.763 290.395,356.055 288.367,355.128 287.349 C 354.202 286.331,353.354 284.891,353.246 284.149 C 353.044 282.777,352.297 282.587,351.333 283.662 C 351.040 283.989,351.306 283.963,351.924 283.605 C 352.685 283.163,352.861 283.254,352.468 283.889 C 351.746 285.058,350.354 284.299,350.792 282.974 C 350.970 282.438,350.088 281.191,348.833 280.202 L 346.551 278.403 347.020 280.202 C 347.467 281.915,347.423 281.934,346.088 280.600 C 345.317 279.830,344.261 279.194,343.743 279.188 C 343.174 279.180,343.276 278.835,344.000 278.318 C 344.964 277.630,344.846 277.539,343.400 277.856 C 342.410 278.073,341.600 277.885,341.600 277.440 C 341.600 276.994,341.060 276.836,340.400 277.089 C 339.740 277.343,339.200 277.227,339.200 276.834 C 339.200 276.440,338.750 275.967,338.200 275.783 C 337.650 275.599,338.280 275.571,339.600 275.722 C 341.281 275.914,340.635 275.452,337.447 274.179 C 334.943 273.179,332.633 272.100,332.314 271.781 C 331.995 271.461,331.163 271.223,330.467 271.251 C 329.705 271.281,329.965 271.607,331.116 272.068 C 332.170 272.489,332.818 273.049,332.555 273.312 C 331.962 273.905,324.000 271.102,324.000 270.301 C 324.000 269.980,322.947 269.192,321.660 268.550 C 319.714 267.579,319.392 267.569,319.746 268.491 C 320.000 269.153,319.653 269.600,318.886 269.600 C 318.179 269.600,317.600 269.317,317.600 268.970 C 317.600 268.624,316.840 268.283,315.910 268.213 C 314.981 268.143,313.593 267.518,312.826 266.824 C 312.059 266.129,310.876 265.775,310.197 266.035 C 309.517 266.296,308.734 266.140,308.455 265.689 C 308.177 265.239,307.420 265.073,306.774 265.321 C 306.128 265.568,305.600 265.373,305.600 264.886 C 305.600 264.399,304.901 264.000,304.047 264.000 C 303.193 264.000,302.268 263.634,301.992 263.187 C 301.716 262.740,301.179 262.566,300.800 262.800 C 300.421 263.034,299.881 262.854,299.600 262.400 C 299.319 261.946,298.730 261.796,298.291 262.067 C 297.850 262.340,297.606 261.936,297.746 261.163 C 297.886 260.395,297.550 259.609,296.999 259.416 C 296.332 259.183,296.177 259.531,296.535 260.464 C 296.901 261.418,296.774 261.679,296.136 261.284 C 295.621 260.966,295.194 260.097,295.188 259.353 C 295.179 258.348,295.008 258.264,294.524 259.027 C 294.165 259.592,293.273 259.824,292.541 259.543 C 291.808 259.262,291.406 258.714,291.646 258.325 C 291.886 257.936,291.524 257.833,290.842 258.095 C 290.049 258.399,289.600 258.123,289.600 257.333 C 289.600 255.621,288.054 254.824,286.930 255.957 C 286.221 256.672,286.333 256.768,287.400 256.362 C 288.211 256.053,288.800 256.201,288.800 256.714 C 288.800 257.955,287.475 257.817,285.221 256.340 C 283.191 255.010,279.137 256.926,278.064 259.722 C 277.836 260.315,277.099 260.800,276.425 260.800 C 275.751 260.800,275.290 261.250,275.400 261.800 C 275.524 262.422,274.693 262.800,273.200 262.800 C 271.261 262.800,270.782 263.151,270.708 264.625 C 270.587 267.035,269.694 267.841,268.769 266.377 C 268.187 265.457,268.022 265.614,268.012 267.093 C 268.003 268.545,267.652 268.896,266.506 268.596 C 265.679 268.380,265.054 268.606,265.106 269.103 C 265.158 269.596,264.872 270.058,264.472 270.128 C 264.071 270.199,263.419 270.836,263.023 271.545 C 262.626 272.254,261.958 272.621,261.538 272.362 C 261.118 272.102,261.015 271.499,261.311 271.021 C 261.642 270.486,261.472 270.384,260.869 270.757 C 260.331 271.090,260.082 271.860,260.316 272.469 C 260.836 273.825,257.944 275.604,257.193 274.389 C 256.916 273.941,256.348 273.785,255.932 274.042 C 255.515 274.300,255.336 274.774,255.535 275.095 C 255.734 275.417,255.213 276.107,254.378 276.628 C 253.083 277.437,252.918 277.372,253.254 276.188 C 253.516 275.269,253.356 275.349,252.781 276.425 C 251.388 279.029,244.000 282.638,244.000 280.714 C 244.000 280.201,244.589 280.053,245.400 280.362 C 246.467 280.768,246.579 280.672,245.870 279.957 C 244.746 278.824,243.200 279.621,243.200 281.333 C 243.200 282.123,242.751 282.399,241.958 282.095 C 241.276 281.833,240.911 281.933,241.149 282.318 C 241.603 283.053,230.623 286.706,225.283 287.597 C 223.099 287.961,221.965 287.800,221.495 287.058 C 220.983 286.251,220.822 286.326,220.812 287.375 C 220.805 288.222,220.370 288.585,219.681 288.320 C 219.065 288.084,218.324 288.275,218.034 288.745 C 217.353 289.847,216.000 289.852,216.000 288.753 C 216.000 288.287,216.416 288.162,216.924 288.476 C 217.496 288.830,217.630 288.696,217.276 288.124 C 216.546 286.941,214.400 286.919,214.400 288.093 C 214.400 288.612,213.571 288.828,212.424 288.609 C 211.338 288.401,210.623 288.513,210.836 288.858 C 211.786 290.396,206.524 290.729,205.424 289.200 C 205.050 288.679,204.285 288.749,203.235 289.400 C 201.213 290.654,198.209 290.689,196.994 289.474 C 196.292 288.772,195.769 288.796,194.834 289.572 C 193.865 290.376,193.600 290.382,193.600 289.600 C 193.600 288.846,193.272 288.870,192.246 289.702 C 191.502 290.306,191.117 290.425,191.390 289.968 C 191.697 289.453,190.638 289.086,188.614 289.005 C 186.813 288.933,185.050 288.408,184.695 287.837 C 184.175 287.002,183.735 286.995,182.435 287.800 C 180.252 289.153,178.725 289.136,179.858 287.771 C 180.514 286.980,180.224 286.701,178.606 286.567 C 177.447 286.471,176.286 286.737,176.026 287.158 C 175.742 287.617,174.762 287.471,173.576 286.793 C 169.854 284.664,169.437 284.569,168.732 285.683 C 168.177 286.559,168.022 286.572,168.012 285.746 C 168.004 285.058,167.445 284.868,166.400 285.200 C 164.680 285.746,164.137 284.407,165.800 283.721 C 166.350 283.494,165.674 283.500,164.298 283.735 C 162.914 283.970,160.947 283.692,159.898 283.113 C 158.854 282.536,157.501 282.167,156.891 282.292 C 156.202 282.434,155.954 282.074,156.236 281.338 C 156.933 279.522,155.896 279.058,154.614 280.612 C 153.543 281.911,153.497 281.912,153.900 280.626 C 154.136 279.870,153.930 279.004,153.441 278.702 C 152.868 278.347,152.781 278.521,153.196 279.193 C 153.691 279.994,153.329 280.105,151.623 279.677 C 149.286 279.091,146.989 277.278,147.691 276.575 C 147.920 276.347,147.453 276.214,146.653 276.280 C 145.854 276.346,145.270 276.010,145.356 275.533 C 145.441 275.057,145.007 274.667,144.391 274.667 C 143.775 274.667,143.474 274.996,143.723 275.399 C 143.972 275.802,143.100 275.576,141.785 274.896 C 140.470 274.216,139.180 273.103,138.919 272.422 C 138.658 271.742,138.165 271.231,137.822 271.287 C 136.152 271.562,135.200 271.085,135.200 269.975 C 135.200 269.301,134.662 268.543,134.005 268.291 C 133.347 268.039,132.993 267.535,133.218 267.171 C 133.442 266.808,133.205 266.250,132.689 265.932 C 132.079 265.554,131.968 265.701,132.371 266.353 C 132.800 267.048,132.532 267.255,131.495 267.029 C 130.673 266.851,130.105 266.232,130.233 265.654 C 130.376 265.009,130.001 264.782,129.262 265.065 C 128.557 265.336,127.467 264.775,126.629 263.710 C 125.843 262.710,124.930 261.827,124.600 261.746 C 124.270 261.666,123.280 260.880,122.400 260.000 C 120.901 258.501,120.999 258.020,122.735 258.350 C 123.140 258.427,123.006 257.930,122.437 257.245 C 121.289 255.861,120.428 255.551,121.200 256.800 C 121.472 257.240,121.385 257.600,121.007 257.600 C 120.045 257.600,118.398 255.848,118.412 254.840 C 118.419 254.378,118.806 254.540,119.273 255.200 C 119.946 256.151,120.058 256.165,119.815 255.263 C 119.402 253.731,116.000 253.521,116.000 255.027 M32.333 305.885 C 31.869 307.096,30.400 307.765,30.400 306.766 C 30.400 306.196,32.336 304.102,32.619 304.366 C 32.739 304.479,32.611 305.163,32.333 305.885 M12.022 377.973 C 11.487 378.618,11.186 379.559,11.355 380.064 C 11.523 380.569,12.089 380.041,12.613 378.891 C 13.681 376.547,13.473 376.225,12.022 377.973 M11.189 382.600 C 11.183 383.150,10.946 384.466,10.663 385.525 C 10.362 386.648,10.461 387.257,10.899 386.986 C 11.684 386.501,12.333 381.600,11.613 381.600 C 11.386 381.600,11.195 382.050,11.189 382.600 M239.630 483.952 C 239.374 484.365,239.893 484.648,240.783 484.581 C 241.672 484.514,242.400 484.176,242.400 483.830 C 242.400 482.945,240.192 483.042,239.630 483.952 " stroke="none" fill="#555555" fill-rule="evenodd"></path></g></svg>