<svg style="display: block;" id="svg" version="1.1" width="500" height="500" xmlns="http://www.w3.org/2000/svg" xmlns:xlink="http://www.w3.org/1999/xlink"><g id="svgg"><path id="path0" d="M101.799 9.732 C 97.843 10.412,90.290 14.015,89.360 15.665 C 89.008 16.289,88.210 16.800,87.585 16.800 C 86.943 16.800,86.636 17.284,86.879 17.917 C 87.115 18.531,86.612 19.521,85.761 20.117 C 84.911 20.713,84.225 21.493,84.237 21.851 C 84.288 23.368,82.074 27.893,81.465 27.517 C 81.099 27.290,80.800 28.001,80.800 29.096 C 80.800 30.190,80.277 31.609,79.638 32.248 C 78.999 32.887,78.637 33.570,78.833 33.766 C 79.029 33.962,78.292 35.983,77.195 38.257 C 76.098 40.532,75.200 42.775,75.200 43.243 C 75.200 43.711,74.784 43.838,74.276 43.524 C 73.716 43.177,73.569 43.303,73.903 43.844 C 74.206 44.334,74.106 45.380,73.679 46.167 C 73.253 46.955,72.445 48.744,71.883 50.142 C 71.320 51.541,70.577 52.509,70.230 52.295 C 69.884 52.081,69.600 52.786,69.600 53.861 C 69.600 56.335,67.654 60.167,66.794 59.388 C 66.437 59.065,66.367 59.420,66.639 60.177 C 66.911 60.937,66.597 62.089,65.937 62.748 C 65.280 63.405,64.785 64.046,64.837 64.171 C 65.192 65.035,63.690 68.703,63.124 68.353 C 62.736 68.113,62.615 68.429,62.855 69.055 C 63.095 69.681,62.792 70.693,62.182 71.304 C 61.571 71.915,61.196 72.787,61.348 73.243 C 61.500 73.699,60.895 74.855,60.004 75.812 C 59.113 76.768,58.430 77.832,58.487 78.175 C 58.788 80.003,58.298 81.631,57.580 81.188 C 57.129 80.909,56.812 80.978,56.875 81.341 C 57.221 83.330,56.708 84.838,55.864 84.316 C 55.251 83.937,55.090 84.160,55.399 84.964 C 55.658 85.639,55.179 87.327,54.335 88.715 C 53.491 90.103,52.800 91.791,52.800 92.467 C 52.800 93.142,52.515 93.518,52.166 93.303 C 51.817 93.087,51.477 93.646,51.409 94.545 C 51.341 95.444,50.637 96.921,49.843 97.827 C 48.962 98.833,48.851 99.209,49.557 98.793 C 50.194 98.418,49.835 99.346,48.760 100.856 C 47.686 102.365,46.895 103.690,47.003 103.800 C 47.625 104.432,47.062 106.409,46.380 105.988 C 45.929 105.709,45.612 105.778,45.675 106.141 C 46.000 108.012,45.502 109.634,44.746 109.167 C 44.277 108.877,43.993 109.126,44.116 109.720 C 44.456 111.364,41.495 118.430,40.678 117.924 C 40.283 117.681,40.038 117.778,40.133 118.141 C 40.499 119.542,39.032 123.991,38.344 123.565 C 37.945 123.319,37.855 123.735,38.145 124.490 C 38.508 125.434,38.374 125.678,37.716 125.272 C 37.190 124.947,36.838 124.978,36.933 125.341 C 37.307 126.774,35.824 131.186,35.115 130.748 C 34.700 130.491,34.412 130.578,34.475 130.941 C 34.800 132.812,34.302 134.434,33.546 133.967 C 33.076 133.676,32.801 133.924,32.934 134.520 C 33.233 135.857,31.232 140.800,30.392 140.800 C 30.054 140.800,29.804 141.250,29.836 141.800 C 29.931 143.445,27.902 148.000,27.075 148.000 C 26.652 148.000,26.505 148.323,26.749 148.717 C 26.992 149.111,26.656 150.461,26.001 151.717 C 25.346 152.973,24.808 154.471,24.805 155.047 C 24.802 155.623,24.431 155.866,23.980 155.588 C 23.529 155.309,23.212 155.378,23.275 155.741 C 23.618 157.713,23.108 159.237,22.276 158.724 C 21.737 158.390,21.569 158.502,21.873 158.994 C 22.550 160.090,20.482 165.015,19.680 164.213 C 19.343 163.876,19.139 163.960,19.228 164.400 C 19.595 166.218,19.149 168.063,18.448 167.630 C 18.035 167.374,17.747 167.828,17.808 168.639 C 17.945 170.461,15.387 176.000,14.408 176.000 C 14.014 176.000,13.816 176.642,13.967 177.427 C 14.118 178.212,13.804 179.671,13.270 180.669 C 11.909 183.212,13.173 193.120,15.298 196.558 C 16.196 198.011,16.735 199.200,16.497 199.200 C 15.750 199.200,22.631 205.939,23.538 206.096 C 25.120 206.370,31.198 209.336,30.864 209.670 C 30.683 209.852,31.410 210.052,32.480 210.116 C 33.550 210.180,35.409 210.887,36.612 211.686 C 37.816 212.486,39.160 213.165,39.600 213.195 C 40.040 213.225,41.794 213.869,43.498 214.625 C 45.201 215.381,46.881 216.000,47.231 216.000 C 47.581 216.000,47.988 216.364,48.136 216.808 C 48.284 217.252,49.278 217.784,50.344 217.989 C 51.410 218.195,52.489 218.641,52.741 218.981 C 52.994 219.322,54.091 219.700,55.181 219.823 C 56.270 219.945,57.439 220.542,57.779 221.148 C 58.118 221.755,59.063 222.077,59.879 221.863 C 60.694 221.650,61.982 222.096,62.740 222.854 C 63.498 223.613,64.902 224.338,65.859 224.466 C 66.817 224.595,68.784 224.857,70.232 225.049 C 71.680 225.241,72.681 225.215,72.458 224.991 C 72.234 224.767,73.210 223.643,74.626 222.492 L 77.200 220.400 77.023 183.800 C 76.925 163.670,77.123 147.200,77.463 147.200 C 77.802 147.200,78.127 146.390,78.184 145.400 C 78.365 142.249,78.932 139.481,79.626 138.357 C 79.997 137.758,80.394 136.385,80.509 135.306 C 80.624 134.228,81.186 133.056,81.759 132.702 C 82.332 132.348,82.818 131.775,82.839 131.429 C 82.955 129.583,84.215 127.256,85.012 127.416 C 85.516 127.517,85.956 127.240,85.992 126.800 C 86.136 125.016,88.137 122.391,88.964 122.901 C 89.456 123.205,89.623 123.085,89.342 122.631 C 89.065 122.181,89.549 121.170,90.419 120.383 C 91.288 119.596,92.025 119.278,92.056 119.676 C 92.087 120.074,92.391 119.688,92.730 118.819 C 93.070 117.949,94.146 117.049,95.121 116.819 C 96.097 116.588,96.888 116.040,96.879 115.600 C 96.849 114.030,106.333 109.983,114.400 108.125 C 115.500 107.872,160.590 107.650,214.600 107.632 C 268.610 107.614,312.800 107.354,312.800 107.054 C 312.800 106.754,313.482 106.291,314.316 106.027 C 317.971 104.867,315.475 96.332,311.800 97.422 C 311.470 97.520,311.200 97.219,311.200 96.753 C 311.200 96.287,310.840 96.128,310.400 96.400 C 309.960 96.672,309.600 96.524,309.600 96.072 C 309.600 95.620,309.060 95.457,308.400 95.711 C 307.720 95.971,307.200 95.729,307.200 95.152 C 307.200 94.592,306.959 94.375,306.664 94.669 C 306.369 94.964,305.289 94.656,304.264 93.984 C 303.239 93.313,302.400 92.952,302.400 93.183 C 302.400 93.414,301.055 92.882,299.412 92.002 C 297.768 91.121,296.007 90.400,295.497 90.400 C 294.988 90.400,294.363 89.857,294.108 89.193 C 293.853 88.528,293.365 88.052,293.022 88.134 C 291.859 88.412,285.957 86.438,284.375 85.242 C 283.509 84.587,282.149 84.039,281.353 84.025 C 280.455 84.010,280.125 83.645,280.484 83.064 C 280.873 82.435,280.626 82.295,279.731 82.639 C 278.999 82.920,278.400 82.801,278.400 82.375 C 278.400 81.949,278.130 81.643,277.800 81.695 C 276.001 81.979,274.369 81.498,274.794 80.809 C 275.075 80.356,274.753 80.222,274.042 80.495 C 273.359 80.757,272.800 80.584,272.800 80.111 C 272.800 79.637,272.202 79.480,271.469 79.761 C 270.502 80.132,270.317 79.982,270.792 79.212 C 271.222 78.517,271.138 78.344,270.546 78.710 C 270.051 79.016,268.825 78.762,267.823 78.146 C 266.820 77.530,263.755 76.213,261.011 75.220 C 258.093 74.163,256.234 73.068,256.534 72.583 C 256.816 72.126,256.670 71.986,256.209 72.271 C 255.312 72.825,249.491 70.682,248.765 69.530 C 248.526 69.151,247.626 68.704,246.765 68.537 C 244.306 68.060,238.954 65.573,237.262 64.120 C 236.417 63.394,235.986 63.246,236.304 63.791 C 236.695 64.460,236.480 64.627,235.642 64.305 C 234.959 64.043,234.400 63.547,234.400 63.203 C 234.400 62.859,233.130 62.340,231.578 62.049 C 230.026 61.757,228.967 61.177,229.225 60.760 C 229.483 60.342,228.974 60.000,228.094 60.000 C 227.214 60.000,226.272 59.640,226.000 59.200 C 225.728 58.760,224.627 58.400,223.553 58.400 C 222.479 58.400,221.600 58.100,221.600 57.733 C 221.600 57.367,221.099 57.067,220.488 57.067 C 218.709 57.067,214.400 55.077,214.400 54.256 C 214.400 53.843,214.040 53.728,213.600 54.000 C 213.160 54.272,212.800 54.083,212.800 53.581 C 212.800 53.078,212.350 52.829,211.800 53.027 C 211.250 53.226,209.900 52.954,208.800 52.424 C 207.700 51.893,205.180 50.680,203.200 49.728 C 201.220 48.775,199.129 47.997,198.553 47.998 C 197.977 47.999,197.705 47.678,197.948 47.284 C 198.192 46.890,197.834 46.354,197.154 46.093 C 196.453 45.824,196.126 45.957,196.400 46.400 C 196.674 46.843,196.346 46.975,195.642 46.705 C 194.959 46.443,194.400 45.907,194.400 45.514 C 194.400 45.121,193.622 44.800,192.670 44.800 C 191.719 44.800,189.289 43.823,187.270 42.630 C 185.252 41.436,183.240 40.427,182.800 40.387 C 180.519 40.181,177.665 38.942,178.047 38.324 C 178.287 37.936,177.924 37.833,177.242 38.095 C 176.559 38.357,176.000 38.184,176.000 37.711 C 176.000 37.237,175.402 37.080,174.669 37.361 C 173.702 37.732,173.517 37.582,173.992 36.812 C 174.437 36.094,174.339 35.943,173.689 36.345 C 173.161 36.671,172.296 36.595,171.765 36.177 C 171.234 35.758,168.460 34.484,165.600 33.345 C 158.450 30.498,156.014 29.300,156.006 28.625 C 156.003 28.309,155.401 28.280,154.669 28.561 C 153.702 28.932,153.517 28.782,153.992 28.012 C 154.422 27.317,154.338 27.144,153.746 27.510 C 153.251 27.816,151.935 27.470,150.823 26.741 C 149.710 26.012,148.800 25.609,148.800 25.845 C 148.800 26.080,147.161 25.402,145.158 24.337 C 143.154 23.271,140.973 22.400,140.310 22.400 C 139.594 22.400,139.340 22.020,139.684 21.464 C 140.073 20.835,139.826 20.695,138.931 21.039 C 138.199 21.320,137.600 21.201,137.600 20.775 C 137.600 20.349,137.330 20.059,137.000 20.131 C 135.507 20.458,132.060 18.950,132.537 18.179 C 132.864 17.649,132.569 17.518,131.754 17.830 C 131.035 18.106,129.986 17.897,129.423 17.366 C 128.860 16.835,128.040 16.398,127.600 16.395 C 126.035 16.384,119.200 13.371,119.200 12.691 C 119.200 12.311,118.506 12.000,117.657 12.000 C 116.809 12.000,115.591 11.477,114.952 10.838 C 114.313 10.199,113.658 9.794,113.495 9.938 C 113.333 10.081,111.400 9.962,109.200 9.673 C 107.000 9.384,103.669 9.410,101.799 9.732 M117.394 129.672 C 116.620 130.120,115.630 130.266,115.194 129.996 C 114.757 129.726,114.400 129.845,114.400 130.259 C 114.400 130.982,111.448 132.266,110.200 132.087 C 109.870 132.039,109.600 132.381,109.600 132.847 C 109.600 133.313,109.184 133.438,108.676 133.124 C 108.144 132.794,107.969 132.902,108.262 133.377 C 108.543 133.831,107.338 135.195,105.586 136.410 C 102.522 138.533,101.319 139.842,103.400 138.788 C 103.950 138.509,103.703 138.846,102.852 139.537 C 102.000 140.228,101.245 141.586,101.174 142.556 C 101.102 143.525,100.667 144.444,100.207 144.598 C 99.747 144.751,99.568 145.636,99.811 146.563 C 100.109 147.703,99.955 148.067,99.337 147.685 C 98.653 147.262,98.429 169.248,98.448 234.960 C 98.476 328.842,98.457 328.377,102.296 332.216 C 102.793 332.713,103.200 333.501,103.200 333.968 C 103.200 334.434,103.920 335.265,104.800 335.814 C 105.680 336.364,106.400 337.312,106.400 337.921 C 106.400 338.530,106.959 339.243,107.642 339.505 C 108.480 339.827,108.695 339.660,108.304 338.991 C 107.986 338.446,108.417 338.587,109.262 339.304 C 112.224 341.815,117.462 344.023,120.800 344.167 C 121.460 344.196,129.257 344.170,138.126 344.110 L 154.251 344.000 154.005 332.400 C 153.870 326.020,153.993 320.800,154.280 320.801 C 154.566 320.801,154.800 319.451,154.800 317.801 L 154.800 314.800 142.000 314.400 L 129.200 314.000 129.200 274.000 L 129.200 234.000 242.800 233.797 L 356.400 233.594 356.185 273.597 L 355.971 313.600 343.677 313.600 L 331.384 313.600 331.603 327.200 C 331.724 334.680,331.507 340.800,331.121 340.800 C 330.734 340.800,330.494 341.722,330.587 342.848 L 330.757 344.896 347.578 344.513 C 366.648 344.078,369.600 343.870,369.600 342.955 C 369.600 342.598,369.935 342.513,370.345 342.766 C 370.754 343.019,371.306 342.876,371.570 342.448 C 371.835 342.020,372.639 341.895,373.357 342.171 C 374.230 342.506,374.471 342.362,374.084 341.736 C 373.576 340.914,374.065 340.646,375.672 340.864 C 375.932 340.900,377.415 339.550,378.968 337.864 C 380.521 336.179,381.513 335.306,381.172 335.924 C 380.760 336.671,380.862 336.856,381.476 336.476 C 381.984 336.162,382.400 335.287,382.400 334.531 C 382.400 333.774,383.135 332.526,384.034 331.756 C 384.933 330.987,385.442 329.991,385.165 329.544 C 384.889 329.096,385.143 328.150,385.731 327.442 C 387.528 325.277,387.209 144.000,385.408 144.000 C 385.074 144.000,384.800 143.360,384.800 142.578 C 384.800 141.796,384.065 140.526,383.166 139.756 C 382.247 138.970,381.778 137.929,382.094 137.379 C 382.403 136.840,382.362 136.667,382.002 136.993 C 381.106 137.804,379.092 136.023,379.732 134.986 C 380.016 134.528,379.877 134.382,379.424 134.662 C 378.971 134.942,377.025 134.010,375.100 132.591 C 373.175 131.172,370.880 129.854,370.000 129.663 C 366.352 128.868,118.766 128.877,117.394 129.672 M356.400 171.603 L 356.400 184.805 242.800 184.603 L 129.200 184.400 128.978 172.435 C 128.855 165.854,128.934 160.004,129.153 159.435 C 129.475 158.595,150.919 158.400,242.975 158.400 L 356.400 158.400 356.400 171.603 M231.966 269.455 C 229.565 270.036,227.060 270.616,226.400 270.744 C 225.740 270.873,224.660 271.191,224.000 271.451 C 223.340 271.711,222.080 272.031,221.200 272.162 C 220.320 272.293,219.240 272.825,218.800 273.345 C 218.360 273.864,217.280 274.404,216.400 274.545 C 215.520 274.685,214.321 275.253,213.736 275.807 C 213.150 276.361,212.284 276.576,211.812 276.284 C 211.339 275.992,211.145 276.078,211.380 276.476 C 211.615 276.874,210.572 278.006,209.062 278.991 C 207.552 279.976,206.547 280.336,206.828 279.791 C 207.109 279.246,206.556 279.700,205.600 280.800 C 204.644 281.900,204.125 282.260,204.447 281.600 C 204.769 280.940,203.692 281.930,202.054 283.800 C 200.416 285.670,198.696 287.200,198.231 287.200 C 197.114 287.200,194.400 290.369,194.400 291.675 C 194.400 292.242,193.984 292.962,193.476 293.276 C 192.865 293.654,192.772 293.493,193.200 292.800 C 193.619 292.122,193.534 291.946,192.959 292.302 C 192.470 292.604,192.273 293.380,192.521 294.026 C 192.768 294.672,192.661 295.200,192.281 295.200 C 191.901 295.200,191.112 296.282,190.526 297.605 C 189.941 298.927,189.124 299.800,188.711 299.545 C 188.298 299.290,188.012 299.378,188.075 299.741 C 188.138 300.103,188.102 300.670,187.995 301.000 C 187.666 302.011,187.405 303.159,187.300 304.047 C 187.245 304.513,186.831 304.666,186.380 304.388 C 185.929 304.109,185.617 304.178,185.687 304.541 C 185.957 305.943,184.562 310.400,183.853 310.400 C 183.442 310.400,183.317 310.741,183.574 311.159 C 183.832 311.576,183.372 313.827,182.552 316.161 C 181.731 318.494,181.167 321.753,181.296 323.402 C 181.426 325.051,181.188 326.400,180.768 326.400 C 180.325 326.400,180.210 327.831,180.493 329.800 C 180.762 331.670,181.046 334.715,181.124 336.566 C 181.202 338.417,181.496 340.163,181.778 340.444 C 182.059 340.726,182.094 341.466,181.855 342.088 C 181.616 342.711,181.789 343.666,182.239 344.210 C 182.689 344.755,183.309 346.550,183.617 348.200 C 183.926 349.850,184.519 351.200,184.936 351.200 C 185.353 351.200,185.487 351.535,185.234 351.945 C 184.981 352.354,185.164 352.931,185.641 353.226 C 186.119 353.521,186.309 354.284,186.064 354.922 C 185.815 355.571,185.968 355.867,186.409 355.594 C 187.159 355.131,187.334 355.478,187.520 357.800 C 187.564 358.350,188.249 359.284,189.042 359.875 C 189.835 360.466,190.346 361.362,190.178 361.867 C 190.010 362.371,190.730 363.458,191.778 364.283 C 192.827 365.108,193.498 365.969,193.269 366.197 C 193.041 366.426,193.745 367.313,194.835 368.170 C 195.924 369.027,196.611 370.059,196.360 370.464 C 196.110 370.869,196.368 371.200,196.932 371.200 C 197.497 371.200,199.049 372.380,200.380 373.822 C 206.444 380.390,221.671 388.800,227.500 388.800 C 228.267 388.800,228.703 389.109,228.470 389.488 C 228.236 389.866,228.933 390.078,230.019 389.958 C 231.105 389.839,232.148 389.992,232.336 390.297 C 232.525 390.602,234.147 390.770,235.940 390.670 C 237.733 390.570,239.200 390.767,239.200 391.108 C 239.200 391.449,240.370 391.627,241.800 391.503 C 250.241 390.774,252.543 390.483,253.800 389.984 C 254.570 389.679,255.717 389.627,256.348 389.869 C 256.980 390.112,257.610 390.060,257.748 389.755 C 258.164 388.839,266.368 386.286,267.215 386.809 C 267.647 387.076,268.000 386.971,268.000 386.576 C 268.000 385.835,271.779 383.698,273.200 383.635 C 273.640 383.616,274.575 383.060,275.278 382.400 C 277.537 380.279,281.050 377.994,281.735 378.200 C 282.101 378.310,282.310 377.982,282.200 377.471 C 282.090 376.960,282.900 376.276,284.000 375.951 C 285.100 375.625,285.677 375.324,285.283 375.280 C 284.372 375.178,288.621 371.200,289.641 371.200 C 290.059 371.200,290.400 370.459,290.400 369.553 C 290.400 368.647,290.670 368.069,291.000 368.269 C 291.725 368.708,293.107 367.181,293.444 365.569 C 293.578 364.926,294.208 364.000,294.844 363.512 C 295.480 363.023,296.000 362.201,296.000 361.684 C 296.000 360.645,298.369 356.681,299.450 355.911 C 299.828 355.641,300.106 355.191,300.068 354.911 C 299.829 353.119,300.095 351.964,300.667 352.318 C 301.033 352.544,301.368 352.295,301.411 351.765 C 301.453 351.234,302.066 348.640,302.773 346.000 C 305.459 335.967,305.647 324.757,303.274 316.182 C 302.754 314.301,302.580 312.356,302.888 311.858 C 303.215 311.328,303.091 311.173,302.589 311.483 C 302.074 311.801,301.512 310.969,301.187 309.407 C 300.888 307.973,300.123 305.980,299.488 304.977 C 298.853 303.975,298.550 302.805,298.814 302.377 C 299.078 301.950,298.902 301.600,298.422 301.600 C 297.942 301.600,297.326 300.970,297.053 300.200 C 296.780 299.430,296.044 298.202,295.418 297.470 C 294.792 296.739,294.199 295.594,294.101 294.926 C 294.003 294.258,292.618 292.516,291.023 291.056 C 289.429 289.595,288.146 288.040,288.172 287.600 C 288.199 287.160,287.541 286.436,286.710 285.992 C 285.880 285.548,283.779 283.860,282.043 282.242 C 280.306 280.624,278.594 279.480,278.237 279.701 C 277.880 279.921,277.385 279.571,277.136 278.923 C 276.888 278.275,275.796 277.521,274.709 277.249 C 273.520 276.950,272.956 276.395,273.291 275.853 C 273.638 275.292,273.486 275.176,272.889 275.545 C 272.361 275.871,271.434 275.726,270.827 275.223 C 269.603 274.207,261.768 271.089,260.200 270.994 C 259.650 270.961,259.200 270.667,259.200 270.342 C 259.200 270.016,258.480 269.938,257.600 270.168 C 256.720 270.398,256.000 270.247,256.000 269.832 C 256.000 269.417,254.920 269.236,253.600 269.429 C 252.280 269.623,251.200 269.471,251.200 269.091 C 251.201 268.009,236.821 268.282,231.966 269.455 M246.400 288.185 C 246.400 288.523,246.850 288.710,247.400 288.600 C 248.096 288.461,248.378 289.557,248.326 292.203 C 248.253 295.987,248.269 296.011,251.526 296.948 C 253.327 297.465,254.980 297.942,255.200 298.006 C 255.420 298.071,256.960 298.408,258.622 298.755 C 261.571 299.371,264.094 302.072,262.683 303.102 C 262.307 303.376,261.887 304.680,261.748 306.000 C 261.221 311.012,258.025 313.056,254.324 310.746 C 253.154 310.016,252.035 309.740,249.000 309.433 C 248.010 309.333,247.200 309.018,247.200 308.733 C 247.200 308.301,244.278 308.724,239.423 309.859 C 237.164 310.387,235.799 317.600,237.959 317.600 C 238.579 317.600,239.561 318.065,240.143 318.634 C 240.724 319.202,242.460 320.177,244.000 320.800 C 245.540 321.423,247.279 322.401,247.864 322.974 C 248.450 323.546,249.271 323.803,249.688 323.545 C 251.131 322.654,261.165 329.162,260.359 330.467 C 260.137 330.826,260.649 331.491,261.497 331.945 C 264.688 333.653,266.685 347.140,263.994 348.804 C 263.444 349.143,263.204 349.759,263.459 350.172 C 264.004 351.054,255.600 359.333,254.885 358.618 C 254.618 358.352,254.400 358.525,254.400 359.003 C 254.400 359.481,253.308 360.113,251.973 360.406 C 248.672 361.131,247.278 363.590,247.605 368.111 L 247.874 371.822 242.737 371.822 C 239.912 371.822,237.580 371.592,237.556 371.311 C 237.380 369.243,236.779 363.438,236.669 362.733 C 236.594 362.257,235.513 361.798,234.267 361.714 C 229.622 361.402,228.800 361.243,228.800 360.654 C 228.800 360.322,228.201 360.280,227.469 360.561 C 226.501 360.932,226.317 360.782,226.794 360.010 C 227.283 359.218,227.025 359.059,225.777 359.386 C 222.273 360.302,219.430 356.196,221.800 353.643 C 222.350 353.050,222.420 352.776,221.954 353.034 C 221.464 353.307,221.631 351.864,222.354 349.595 C 223.198 346.947,223.987 345.761,224.800 345.919 C 228.494 346.634,230.331 347.464,229.871 348.209 C 229.569 348.698,229.738 348.809,230.276 348.476 C 230.784 348.162,231.650 348.187,232.200 348.530 C 234.870 350.198,244.154 350.321,246.134 348.714 C 247.324 347.749,247.418 347.760,246.836 348.800 C 246.467 349.460,246.881 349.266,247.757 348.368 C 250.414 345.645,250.555 342.478,248.126 340.076 C 246.971 338.934,246.085 337.805,246.158 337.566 C 246.230 337.327,245.628 337.082,244.821 337.022 C 244.013 336.961,241.810 336.166,239.926 335.255 C 238.041 334.345,236.006 333.600,235.403 333.600 C 234.799 333.600,234.505 333.278,234.748 332.884 C 234.992 332.490,234.634 331.954,233.954 331.693 C 233.115 331.371,232.908 331.537,233.312 332.209 C 233.976 333.314,231.148 331.288,230.229 330.000 C 229.915 329.560,229.359 329.200,228.993 329.200 C 228.126 329.200,223.729 324.808,224.564 324.776 C 224.914 324.762,224.562 324.380,223.783 323.927 C 223.004 323.473,222.575 322.764,222.830 322.351 C 223.086 321.938,222.924 321.600,222.472 321.600 C 222.019 321.600,221.635 320.430,221.619 319.000 C 221.602 317.570,221.562 315.860,221.530 315.200 C 221.498 314.540,221.646 313.280,221.860 312.400 C 222.074 311.520,222.372 310.260,222.524 309.600 C 222.676 308.940,223.160 308.143,223.600 307.829 C 224.040 307.515,224.445 306.885,224.500 306.429 C 224.555 305.973,224.645 305.240,224.700 304.800 C 224.755 304.360,225.361 304.000,226.047 304.000 C 226.733 304.000,227.096 303.679,226.854 303.288 C 226.612 302.896,227.355 301.958,228.505 301.205 C 229.940 300.264,230.422 300.174,230.039 300.917 C 229.732 301.513,230.064 301.280,230.775 300.400 C 231.487 299.520,232.237 298.897,232.443 299.016 C 235.298 300.667,238.227 295.298,237.653 289.466 C 237.581 288.733,238.156 288.013,238.931 287.866 C 241.588 287.364,246.400 287.569,246.400 288.185 " stroke="none" fill="#555555" fill-rule="evenodd"></path></g></svg>