<svg style="display: block;" id="svg" version="1.1" width="625" height="500" xmlns="http://www.w3.org/2000/svg" xmlns:xlink="http://www.w3.org/1999/xlink"><g id="svgg"><path id="path0" d="M113.600 51.697 C 112.544 52.260,110.960 52.773,110.080 52.838 C 109.200 52.902,108.129 52.992,107.700 53.037 C 107.245 53.086,107.090 53.563,107.329 54.185 C 107.582 54.844,107.482 55.092,107.066 54.835 C 106.190 54.294,102.410 56.189,101.944 57.404 C 101.681 58.088,101.454 58.140,101.115 57.592 C 100.821 57.116,100.393 57.569,99.957 58.818 C 99.577 59.908,99.117 60.800,98.933 60.800 C 98.750 60.800,98.789 60.296,99.020 59.680 C 99.387 58.699,99.305 58.669,98.360 59.438 C 97.766 59.921,97.280 60.713,97.280 61.198 C 97.280 61.683,96.776 62.084,96.160 62.090 C 95.220 62.098,95.192 62.195,95.982 62.695 C 96.789 63.206,96.766 63.352,95.822 63.714 C 95.216 63.947,94.720 64.555,94.720 65.066 C 94.720 65.577,94.485 65.850,94.197 65.673 C 93.910 65.495,93.149 66.241,92.505 67.330 C 91.862 68.418,91.665 69.106,92.068 68.857 C 92.471 68.608,92.800 68.685,92.800 69.029 C 92.800 69.372,92.509 69.750,92.154 69.869 C 90.568 70.397,89.547 84.459,90.967 86.209 C 91.567 86.949,91.590 87.135,91.040 86.805 C 90.600 86.541,90.240 86.612,90.240 86.964 C 90.240 87.316,90.556 87.800,90.943 88.039 C 92.320 88.890,93.395 92.401,92.586 93.403 C 92.007 94.119,92.020 94.218,92.640 93.845 C 93.195 93.512,93.440 93.856,93.440 94.970 C 93.440 95.854,93.800 96.807,94.240 97.088 C 95.415 97.840,97.208 100.235,96.094 99.564 C 95.520 99.219,95.598 99.608,96.324 100.716 C 96.927 101.636,97.673 102.233,97.983 102.041 C 98.292 101.850,98.359 102.212,98.131 102.847 C 97.903 103.481,97.940 103.798,98.214 103.550 C 98.716 103.098,100.902 104.873,100.682 105.554 C 100.617 105.755,101.193 106.270,101.962 106.697 C 102.731 107.125,103.133 107.485,102.855 107.497 C 102.577 107.510,102.957 108.168,103.700 108.960 L 105.049 110.400 103.394 110.604 C 102.483 110.716,101.888 111.049,102.070 111.344 C 102.252 111.639,101.825 111.730,101.121 111.546 C 100.416 111.361,99.840 111.519,99.840 111.896 C 99.840 112.273,98.835 112.771,97.606 113.001 C 96.377 113.232,95.530 113.677,95.723 113.990 C 95.917 114.304,95.627 114.560,95.078 114.560 C 94.529 114.560,94.080 114.848,94.080 115.200 C 94.080 115.552,93.864 115.806,93.600 115.764 C 92.110 115.529,90.901 115.943,91.040 116.640 C 91.132 117.102,90.523 117.457,89.600 117.480 C 88.661 117.504,88.073 117.854,88.176 118.328 C 88.273 118.772,88.091 118.974,87.773 118.778 C 87.455 118.581,86.454 119.161,85.548 120.067 C 84.539 121.075,83.579 121.528,83.071 121.234 C 82.614 120.970,82.432 120.969,82.667 121.231 C 83.192 121.816,80.785 124.325,80.103 123.904 C 79.833 123.737,78.912 124.734,78.055 126.120 C 77.199 127.506,76.206 128.645,75.849 128.651 C 74.832 128.668,72.320 131.586,72.320 132.750 C 72.320 133.328,71.906 133.959,71.400 134.153 C 70.895 134.347,70.626 134.885,70.804 135.348 C 70.982 135.811,70.775 136.408,70.345 136.674 C 69.812 137.003,69.711 136.870,70.029 136.259 C 70.285 135.764,70.042 135.919,69.487 136.602 C 68.933 137.286,68.480 138.335,68.480 138.934 C 68.480 139.533,68.028 140.196,67.476 140.408 C 66.809 140.664,66.608 141.224,66.879 142.077 C 67.136 142.888,66.996 143.360,66.496 143.360 C 66.062 143.360,65.889 143.542,66.111 143.764 C 66.333 143.986,66.208 144.741,65.834 145.441 C 65.290 146.457,65.327 146.609,66.016 146.194 C 66.729 145.765,66.736 145.852,66.053 146.695 C 65.378 147.529,65.378 147.776,66.053 148.047 C 66.686 148.301,66.692 148.391,66.080 148.429 C 64.965 148.500,65.064 152.430,66.220 153.958 C 66.736 154.641,67.168 154.961,67.180 154.668 C 67.199 154.173,71.608 156.562,72.320 157.453 C 72.890 158.166,74.970 158.743,74.555 158.073 C 74.340 157.725,74.469 157.440,74.842 157.440 C 75.215 157.440,75.520 157.715,75.520 158.051 C 75.520 158.387,76.528 158.851,77.760 159.082 C 78.992 159.313,80.000 159.790,80.000 160.142 C 80.000 160.527,80.893 160.615,82.240 160.362 C 83.633 160.101,84.480 160.194,84.480 160.607 C 84.480 160.995,85.413 161.153,86.720 160.985 C 87.952 160.828,88.960 160.962,88.960 161.284 C 88.960 161.605,89.752 161.860,90.720 161.849 C 95.469 161.795,102.728 162.583,102.925 163.174 C 103.047 163.540,103.860 163.840,104.731 163.840 C 105.766 163.840,106.157 163.584,105.859 163.101 C 105.543 162.591,105.680 162.541,106.301 162.941 C 107.380 163.636,113.284 163.725,112.861 163.040 C 112.698 162.776,112.869 162.560,113.242 162.560 C 113.615 162.560,113.920 162.788,113.920 163.066 C 113.920 163.878,119.931 163.408,120.209 162.574 C 120.549 161.554,117.049 157.970,116.077 158.343 C 115.653 158.506,115.141 158.210,114.940 157.686 C 114.698 157.054,114.841 156.887,115.367 157.190 C 115.803 157.441,115.462 156.880,114.608 155.943 C 113.755 155.006,112.799 154.240,112.483 154.240 C 111.567 154.240,110.096 152.517,110.590 152.023 C 110.838 151.776,110.752 151.631,110.400 151.702 C 109.042 151.976,108.102 151.652,108.480 151.040 C 108.698 150.688,108.626 150.400,108.320 150.400 C 106.153 150.400,105.374 148.649,106.758 146.890 C 107.519 145.922,107.974 144.856,107.767 144.522 C 107.561 144.188,107.925 143.511,108.576 143.018 C 109.227 142.524,109.509 142.112,109.202 142.100 C 108.895 142.089,109.039 141.593,109.522 140.997 C 110.278 140.065,110.266 139.982,109.440 140.405 C 108.912 140.674,109.003 140.468,109.643 139.946 C 110.282 139.424,110.786 138.826,110.763 138.618 C 110.739 138.410,110.756 138.096,110.800 137.920 C 110.844 137.744,110.952 137.312,111.040 136.960 C 111.128 136.608,111.236 136.015,111.280 135.642 C 111.324 135.269,111.693 135.170,112.101 135.422 C 112.608 135.736,112.728 135.445,112.481 134.499 C 112.282 133.740,112.350 133.261,112.633 133.435 C 112.915 133.610,113.317 133.307,113.526 132.763 C 113.734 132.219,113.638 131.939,113.311 132.141 C 112.985 132.342,112.762 131.918,112.816 131.198 C 112.875 130.417,113.247 130.016,113.737 130.204 C 114.466 130.484,114.888 129.333,114.620 127.792 C 114.570 127.502,114.823 127.447,115.184 127.670 C 115.862 128.089,115.902 128.004,116.154 125.612 C 116.236 124.826,116.595 123.818,116.952 123.372 C 117.308 122.925,117.510 121.840,117.400 120.960 C 117.291 120.080,117.351 119.720,117.534 120.160 C 117.717 120.600,118.141 120.960,118.476 120.960 C 118.834 120.960,118.800 120.427,118.393 119.667 C 118.012 118.955,117.903 118.047,118.149 117.648 C 118.433 117.189,118.311 117.100,117.816 117.406 C 117.319 117.713,116.907 117.402,116.684 116.552 C 116.492 115.816,116.099 115.360,115.811 115.538 C 115.524 115.715,115.143 115.626,114.966 115.338 C 114.788 115.051,115.632 114.749,116.841 114.668 C 118.161 114.579,119.040 114.815,119.040 115.258 C 119.040 115.760,119.380 115.715,120.098 115.118 C 121.315 114.108,121.574 114.130,122.319 115.305 C 122.724 115.945,122.863 115.958,122.870 115.360 C 122.876 114.920,123.456 114.560,124.160 114.560 C 125.672 114.560,125.881 116.174,124.439 116.727 C 123.889 116.938,123.618 117.401,123.837 117.755 C 124.056 118.110,123.895 118.400,123.479 118.400 C 122.927 118.400,122.911 118.627,123.423 119.243 C 123.807 119.706,124.190 120.982,124.274 122.078 C 124.357 123.175,124.645 123.936,124.914 123.770 C 125.183 123.604,125.595 124.271,125.830 125.254 C 126.065 126.236,126.426 127.328,126.632 127.680 C 127.009 128.324,127.084 128.684,127.263 130.700 C 127.319 131.333,127.722 131.661,128.213 131.472 C 128.683 131.292,129.115 131.589,129.173 132.132 C 129.232 132.676,129.328 133.552,129.387 134.080 C 129.445 134.608,129.852 135.040,130.290 135.040 C 130.761 135.040,131.015 135.696,130.912 136.640 C 130.815 137.520,131.001 138.240,131.326 138.240 C 131.650 138.240,131.769 138.477,131.591 138.766 C 131.412 139.055,131.683 140.096,132.193 141.079 C 132.703 142.062,133.120 143.221,133.120 143.654 C 133.120 144.087,133.696 144.963,134.400 145.600 C 136.140 147.175,136.014 148.142,133.760 150.501 C 132.704 151.606,131.840 152.273,131.840 151.983 C 131.840 151.694,131.133 152.121,130.268 152.933 C 129.404 153.745,128.756 154.606,128.828 154.846 C 128.996 155.402,125.075 159.363,124.369 159.350 C 124.078 159.345,124.272 159.061,124.800 158.720 C 125.328 158.379,125.448 158.095,125.067 158.090 C 123.844 158.073,123.508 158.894,124.326 159.904 C 124.960 160.688,124.958 160.788,124.315 160.402 C 123.839 160.116,123.361 160.310,123.143 160.879 C 122.940 161.407,122.428 161.706,122.004 161.544 C 121.554 161.371,121.205 161.852,121.163 162.704 C 121.123 163.505,121.216 163.841,121.368 163.450 C 121.551 162.984,122.518 162.900,124.183 163.204 C 125.899 163.518,126.723 163.437,126.730 162.954 C 126.736 162.469,126.890 162.454,127.210 162.910 C 127.850 163.821,134.460 163.837,133.953 162.926 C 133.744 162.549,133.960 162.600,134.434 163.040 C 135.434 163.968,137.600 164.114,137.600 163.253 C 137.600 162.931,138.968 162.624,140.640 162.572 C 142.312 162.521,144.732 162.448,146.018 162.411 C 147.507 162.368,148.253 162.074,148.072 161.602 C 147.916 161.194,148.080 160.091,148.438 159.150 C 148.838 158.099,148.854 157.440,148.480 157.440 C 148.122 157.440,148.085 156.847,148.390 156.000 C 148.675 155.208,149.288 152.482,149.752 149.943 C 150.254 147.202,150.857 145.487,151.237 145.722 C 151.590 145.940,151.693 145.819,151.467 145.453 C 151.241 145.088,151.926 143.159,152.989 141.167 C 154.052 139.175,154.737 137.247,154.512 136.882 C 154.286 136.517,155.213 135.184,156.571 133.920 C 157.929 132.656,158.608 131.872,158.080 132.178 C 157.098 132.747,159.697 129.723,162.553 126.974 C 163.851 125.725,163.944 125.440,163.056 125.440 C 162.456 125.440,161.652 124.856,161.270 124.142 C 160.888 123.428,160.335 122.993,160.041 123.175 C 159.746 123.357,159.356 122.933,159.173 122.233 C 158.974 121.474,158.299 120.960,157.500 120.960 C 156.713 120.960,156.160 120.548,156.160 119.962 C 156.160 119.413,155.890 119.132,155.559 119.336 C 155.229 119.540,154.662 119.197,154.299 118.573 C 153.936 117.950,153.630 117.711,153.619 118.042 C 153.609 118.374,153.147 118.086,152.593 117.402 C 152.038 116.719,151.772 116.592,152.000 117.120 C 152.277 117.761,152.112 117.711,151.504 116.970 C 151.003 116.359,150.413 116.041,150.192 116.262 C 149.971 116.482,149.606 116.183,149.380 115.595 C 149.062 114.767,148.772 114.692,148.085 115.262 C 147.393 115.836,147.200 115.770,147.200 114.958 C 147.200 114.347,146.674 113.920,145.920 113.920 C 145.216 113.920,144.640 113.641,144.640 113.300 C 144.640 112.959,144.210 112.845,143.685 113.046 C 143.160 113.248,142.570 112.994,142.373 112.481 C 142.138 111.869,141.446 111.659,140.353 111.868 C 139.094 112.108,138.816 111.981,139.210 111.344 C 139.586 110.735,139.435 110.616,138.665 110.911 C 138.079 111.136,137.600 111.024,137.600 110.662 C 137.600 110.300,137.337 110.167,137.016 110.365 C 136.695 110.564,136.503 110.245,136.589 109.656 C 136.676 109.068,137.272 108.509,137.914 108.415 C 138.555 108.321,139.683 107.594,140.420 106.799 C 141.157 106.005,141.314 105.626,140.770 105.957 C 140.131 106.346,140.179 106.190,140.903 105.519 C 141.520 104.947,141.846 104.299,141.626 104.079 C 141.406 103.860,141.662 103.680,142.194 103.680 C 142.726 103.680,143.694 103.092,144.345 102.372 C 145.499 101.098,145.497 101.074,144.284 101.432 C 143.394 101.695,143.452 101.583,144.491 101.037 C 145.488 100.513,145.824 99.907,145.567 99.097 C 145.317 98.309,145.513 97.920,146.159 97.920 C 146.690 97.920,147.330 97.588,147.581 97.181 C 147.891 96.679,147.753 96.618,147.151 96.990 C 146.663 97.292,146.902 96.727,147.683 95.734 C 148.464 94.742,148.958 93.695,148.781 93.409 C 148.604 93.123,148.752 92.708,149.110 92.486 C 149.467 92.265,149.760 91.508,149.760 90.804 C 149.760 89.990,150.032 89.693,150.509 89.987 C 151.000 90.291,151.127 90.111,150.879 89.463 C 150.670 88.920,150.823 88.153,151.218 87.758 C 151.749 87.227,151.726 87.040,151.130 87.040 C 150.646 87.040,150.524 86.721,150.824 86.240 C 151.680 84.868,151.708 83.200,150.876 83.190 C 150.295 83.183,150.279 83.053,150.816 82.710 C 151.659 82.172,151.863 81.193,151.756 78.202 C 151.710 76.934,151.417 76.247,151.024 76.490 C 150.663 76.713,150.430 76.658,150.506 76.368 C 150.582 76.077,150.456 74.976,150.227 73.920 C 149.998 72.864,149.651 70.886,149.457 69.525 C 149.041 66.614,148.610 65.764,147.803 66.263 C 147.478 66.464,147.403 66.136,147.636 65.528 C 147.890 64.866,147.802 64.588,147.414 64.828 C 147.060 65.046,146.296 64.230,145.716 63.013 C 145.136 61.796,144.368 60.800,144.010 60.800 C 143.653 60.800,142.827 60.296,142.175 59.680 C 138.860 56.547,136.815 55.136,136.028 55.438 C 135.541 55.625,134.992 55.257,134.785 54.606 C 134.519 53.770,133.685 53.398,131.833 53.291 C 130.295 53.203,128.690 52.620,127.865 51.851 C 126.492 50.573,123.097 49.998,123.819 51.167 C 124.192 51.769,122.696 51.634,120.189 50.838 C 119.196 50.523,119.006 50.633,119.403 51.291 C 119.836 52.011,119.749 52.017,118.900 51.329 C 118.175 50.742,117.746 50.704,117.440 51.200 C 117.158 51.656,116.745 51.686,116.263 51.288 C 115.774 50.884,114.863 51.024,113.600 51.697 M274.036 51.282 C 273.268 51.566,272.640 51.648,272.640 51.463 C 272.640 51.278,272.031 51.554,271.287 52.075 C 270.542 52.597,269.487 52.852,268.942 52.643 C 268.232 52.371,268.101 52.506,268.480 53.120 C 268.875 53.759,268.718 53.865,267.864 53.538 C 267.234 53.296,266.335 53.416,265.867 53.804 C 265.399 54.192,264.671 54.297,264.249 54.036 C 263.764 53.736,263.650 53.834,263.939 54.301 C 264.190 54.708,264.130 55.040,263.804 55.040 C 263.479 55.040,262.244 55.886,261.060 56.920 C 259.875 57.954,258.756 58.572,258.573 58.294 C 258.390 58.015,257.664 58.365,256.960 59.072 C 256.256 59.778,256.037 60.153,256.473 59.905 C 257.012 59.598,257.139 59.782,256.870 60.484 C 256.653 61.050,256.080 61.362,255.597 61.177 C 255.115 60.992,254.720 61.099,254.720 61.414 C 254.720 61.730,254.216 62.493,253.600 63.109 C 252.984 63.725,252.480 64.476,252.480 64.778 C 252.480 65.080,252.056 65.589,251.539 65.909 C 251.021 66.229,250.781 66.674,251.006 66.899 C 251.231 67.124,250.935 67.869,250.347 68.555 C 249.760 69.241,249.255 70.008,249.225 70.261 C 249.194 70.513,248.946 71.228,248.673 71.848 C 248.400 72.468,248.303 73.836,248.458 74.888 C 248.612 75.940,248.539 76.800,248.294 76.800 C 248.050 76.800,247.851 78.233,247.851 79.985 C 247.851 82.159,248.078 83.034,248.565 82.742 C 248.958 82.507,248.908 82.774,248.453 83.335 C 247.778 84.169,247.778 84.416,248.453 84.687 C 249.110 84.951,249.112 85.029,248.465 85.069 C 247.850 85.108,247.893 85.490,248.640 86.630 C 249.211 87.501,249.442 88.628,249.186 89.295 C 248.927 89.970,248.996 90.293,249.354 90.072 C 249.690 89.864,250.004 90.177,250.050 90.767 C 250.224 92.978,250.672 94.118,252.037 95.814 C 253.301 97.385,253.735 98.613,253.516 100.000 C 253.474 100.264,253.989 100.480,254.660 100.480 C 255.541 100.480,255.792 100.816,255.564 101.688 C 255.391 102.352,255.606 103.117,256.043 103.387 C 256.603 103.733,256.678 103.612,256.296 102.979 C 255.835 102.213,255.915 102.210,256.837 102.958 C 257.433 103.441,257.920 104.312,257.920 104.893 C 257.920 105.474,259.000 106.508,260.320 107.190 C 263.038 108.597,265.406 110.720,264.255 110.720 C 263.841 110.720,263.120 110.216,262.655 109.600 C 261.877 108.570,261.829 108.593,262.060 109.883 C 262.253 110.955,262.071 111.194,261.291 110.894 C 260.562 110.614,260.418 110.743,260.790 111.344 C 261.185 111.982,260.904 112.108,259.631 111.865 C 258.493 111.647,257.599 111.934,256.856 112.754 C 256.254 113.420,255.391 113.823,254.939 113.650 C 254.487 113.476,253.711 113.740,253.215 114.237 C 252.718 114.733,252.134 114.961,251.916 114.743 C 251.698 114.525,251.520 114.683,251.520 115.093 C 251.520 115.504,250.960 115.840,250.277 115.840 C 248.467 115.840,244.601 118.291,244.145 119.726 C 243.930 120.405,243.468 120.960,243.119 120.960 C 242.770 120.960,242.680 120.643,242.919 120.256 C 243.225 119.761,242.951 119.768,241.997 120.279 C 241.251 120.678,240.640 121.444,240.640 121.980 C 240.640 122.517,240.373 122.790,240.046 122.589 C 239.720 122.387,238.673 122.892,237.720 123.712 C 235.894 125.282,236.294 128.000,238.351 128.000 C 238.828 128.000,239.178 128.497,239.129 129.105 C 239.080 129.712,239.472 130.229,240.000 130.254 C 240.528 130.278,240.888 130.645,240.800 131.069 C 240.712 131.493,240.928 131.840,241.280 131.840 C 241.632 131.840,241.920 132.320,241.920 132.907 C 241.920 133.493,242.110 133.784,242.341 133.552 C 243.024 132.870,244.480 134.446,244.480 135.868 C 244.480 136.589,244.984 137.755,245.600 138.460 C 246.404 139.379,246.449 139.588,245.760 139.200 C 244.914 138.724,244.914 138.805,245.767 139.890 C 247.270 141.802,249.083 145.280,248.577 145.280 C 248.327 145.280,248.670 145.906,249.341 146.670 C 250.011 147.435,250.163 147.826,249.677 147.541 C 249.056 147.176,248.913 147.285,249.197 147.911 C 249.418 148.400,249.777 149.304,249.994 149.920 C 250.212 150.536,250.658 151.040,250.986 151.040 C 251.351 151.040,251.356 151.447,250.998 152.086 C 250.677 152.661,250.627 154.078,250.888 155.234 C 251.149 156.391,251.213 158.118,251.030 159.073 C 250.623 161.205,251.911 162.073,256.000 162.423 C 257.584 162.559,259.240 162.968,259.680 163.333 C 260.253 163.809,260.483 163.748,260.490 163.118 C 260.497 162.428,260.633 162.446,261.120 163.200 C 261.671 164.053,261.743 164.053,261.760 163.200 C 261.776 162.414,261.879 162.398,262.332 163.112 C 262.773 163.808,262.941 163.818,263.160 163.159 C 263.346 162.603,263.737 162.527,264.358 162.927 C 265.630 163.745,269.438 163.734,269.450 162.911 C 269.456 162.471,269.622 162.460,269.930 162.880 C 270.669 163.886,272.150 163.988,272.741 163.074 C 273.110 162.503,273.432 162.456,273.760 162.923 C 274.404 163.840,277.429 163.631,278.693 162.582 C 279.548 161.873,279.652 161.889,279.346 162.687 C 278.917 163.805,284.139 163.985,284.950 162.880 C 285.255 162.465,285.424 162.484,285.430 162.933 C 285.441 163.677,287.686 163.727,288.414 163.000 C 288.655 162.758,289.165 162.564,289.547 162.570 C 289.928 162.575,289.808 162.859,289.280 163.200 C 288.434 163.747,288.438 163.822,289.312 163.830 C 289.858 163.836,290.692 163.480,291.166 163.040 C 291.855 162.400,291.937 162.400,291.576 163.040 C 291.328 163.480,291.429 163.840,291.802 163.840 C 292.175 163.840,292.480 163.552,292.480 163.200 C 292.480 162.848,292.785 162.560,293.158 162.560 C 293.531 162.560,293.658 162.848,293.440 163.200 C 293.204 163.582,293.979 163.840,295.360 163.840 C 296.741 163.840,297.516 163.582,297.280 163.200 C 296.918 162.615,299.195 162.234,301.327 162.523 C 301.794 162.586,302.586 162.297,303.087 161.881 C 303.608 161.449,304.000 161.396,304.000 161.758 C 304.000 162.410,306.926 162.281,309.760 161.503 C 310.640 161.262,311.504 161.036,311.680 161.002 C 311.856 160.968,312.385 160.696,312.856 160.398 C 313.360 160.079,314.004 160.148,314.424 160.568 C 315.321 161.465,316.373 161.503,315.827 160.618 C 315.569 160.202,316.036 160.068,317.082 160.258 C 318.099 160.443,318.592 160.310,318.349 159.917 C 318.130 159.564,318.340 159.342,318.816 159.424 C 319.291 159.506,320.832 159.323,322.240 159.017 C 323.648 158.711,325.024 158.522,325.298 158.596 C 325.572 158.671,325.962 158.297,326.166 157.766 C 326.370 157.235,326.811 156.800,327.146 156.800 C 327.481 156.800,327.580 157.085,327.365 157.433 C 327.141 157.795,327.396 157.903,327.963 157.686 C 328.507 157.477,328.789 157.041,328.588 156.716 C 328.388 156.392,329.110 155.818,330.192 155.441 C 331.274 155.064,332.160 154.478,332.160 154.140 C 332.160 153.801,332.497 153.733,332.909 153.987 C 333.409 154.297,333.525 154.104,333.257 153.405 C 333.036 152.831,333.093 152.215,333.382 152.036 C 333.672 151.857,333.780 150.912,333.624 149.935 C 333.392 148.484,333.477 148.335,334.090 149.120 C 334.729 149.936,334.784 149.905,334.460 148.908 C 334.251 148.263,334.080 147.166,334.080 146.470 C 334.080 145.708,333.798 145.379,333.372 145.642 C 332.881 145.945,332.794 145.483,333.089 144.141 C 333.363 142.896,333.237 142.030,332.739 141.722 C 332.212 141.396,332.128 141.511,332.480 142.080 C 332.812 142.618,332.747 142.763,332.298 142.485 C 331.913 142.248,331.709 141.481,331.844 140.781 C 331.984 140.051,331.422 138.789,330.524 137.821 C 328.860 136.025,328.521 135.333,329.647 136.029 C 330.025 136.263,329.956 135.848,329.493 135.107 C 329.031 134.366,328.416 133.760,328.128 133.760 C 327.840 133.760,327.763 133.504,327.957 133.190 C 328.150 132.877,327.591 132.150,326.715 131.575 C 325.838 131.001,325.120 130.105,325.120 129.585 C 325.120 129.065,324.671 128.640,324.122 128.640 C 323.573 128.640,323.302 128.352,323.520 128.000 C 323.738 127.648,323.323 127.360,322.598 127.360 C 321.419 127.360,320.979 126.704,321.204 125.280 C 321.246 125.016,320.920 124.872,320.480 124.960 C 320.040 125.048,319.752 124.760,319.840 124.320 C 319.928 123.880,319.601 123.520,319.114 123.520 C 318.626 123.520,317.749 122.791,317.165 121.900 C 316.582 121.008,315.828 120.449,315.492 120.657 C 315.155 120.865,314.880 120.700,314.880 120.289 C 314.880 119.879,314.490 119.693,314.013 119.876 C 313.536 120.059,312.397 119.513,311.481 118.664 C 310.565 117.815,309.525 117.120,309.170 117.120 C 308.815 117.120,308.217 116.544,307.840 115.840 C 307.463 115.136,306.805 114.564,306.377 114.570 C 305.877 114.576,305.942 114.826,306.560 115.270 C 307.358 115.845,307.323 115.897,306.348 115.580 C 305.703 115.371,305.038 115.200,304.870 115.200 C 304.702 115.200,304.770 114.868,305.021 114.461 C 305.318 113.980,305.195 113.897,304.667 114.223 C 304.199 114.513,303.635 114.365,303.331 113.872 C 303.041 113.404,301.993 112.996,301.002 112.966 C 300.011 112.936,299.258 112.605,299.328 112.230 C 299.403 111.833,298.737 111.664,297.728 111.825 C 296.525 112.017,296.259 111.918,296.854 111.499 C 297.521 111.029,297.423 110.823,296.405 110.557 C 295.688 110.369,294.996 110.531,294.868 110.916 C 294.708 111.397,294.485 111.376,294.159 110.848 C 293.898 110.426,294.006 110.080,294.400 110.080 C 294.794 110.080,294.933 109.785,294.710 109.424 C 294.487 109.063,294.673 108.847,295.123 108.944 C 295.574 109.041,295.956 108.688,295.973 108.160 C 295.989 107.632,296.496 107.197,297.097 107.193 C 297.699 107.188,298.562 106.770,299.015 106.263 C 299.705 105.493,299.678 105.442,298.851 105.951 C 298.307 106.286,298.811 105.740,299.971 104.738 C 301.131 103.736,302.080 102.351,302.080 101.660 C 302.080 100.874,302.356 100.575,302.819 100.861 C 303.267 101.138,303.384 101.037,303.117 100.605 C 302.581 99.738,304.016 97.280,305.058 97.280 C 305.470 97.280,305.998 96.151,306.232 94.770 C 306.465 93.390,307.089 92.094,307.619 91.891 C 308.323 91.620,308.468 91.004,308.160 89.601 C 307.918 88.496,308.002 87.680,308.359 87.680 C 308.701 87.680,309.098 86.672,309.241 85.440 C 309.393 84.140,309.221 83.196,308.831 83.190 C 308.462 83.185,308.538 82.941,309.000 82.648 C 309.673 82.221,309.701 81.237,309.141 77.698 C 308.757 75.268,308.452 72.416,308.464 71.360 C 308.481 69.877,308.342 69.659,307.853 70.400 C 307.186 71.411,306.889 70.666,307.152 68.640 C 307.209 68.200,306.925 67.840,306.520 67.840 C 306.114 67.840,305.943 67.423,306.139 66.913 C 306.350 66.361,306.016 65.833,305.313 65.610 C 304.488 65.348,304.225 64.808,304.441 63.818 C 304.676 62.744,304.597 62.619,304.114 63.304 C 303.608 64.021,303.431 63.888,303.258 62.664 C 303.112 61.631,302.654 61.152,301.876 61.216 C 301.125 61.278,300.833 60.997,301.053 60.424 C 301.241 59.935,301.044 59.604,300.617 59.688 C 300.190 59.771,299.909 59.490,299.992 59.063 C 300.087 58.582,299.739 58.442,299.081 58.694 C 298.259 59.010,298.117 58.843,298.456 57.960 C 298.783 57.109,298.648 56.912,297.927 57.189 C 297.395 57.393,296.960 57.314,296.960 57.013 C 296.960 56.712,295.952 55.988,294.720 55.403 C 293.488 54.818,292.480 54.065,292.480 53.730 C 292.480 53.394,292.264 53.154,292.000 53.196 C 291.736 53.237,291.376 53.215,291.200 53.147 C 290.495 52.872,288.223 52.466,286.561 52.317 C 285.501 52.222,284.798 51.779,284.791 51.200 C 284.782 50.406,284.684 50.392,284.222 51.122 C 283.868 51.681,283.344 51.803,282.792 51.455 C 281.652 50.737,275.820 50.622,274.036 51.282 M285.440 114.667 C 285.440 115.137,284.429 115.420,284.000 115.069 C 283.912 114.997,283.026 115.753,282.030 116.748 C 280.291 118.487,279.944 122.303,281.619 121.268 C 281.960 121.057,282.240 121.477,282.240 122.202 C 282.240 122.927,282.545 123.520,282.918 123.520 C 283.291 123.520,283.418 123.808,283.200 124.160 C 282.982 124.512,283.082 124.800,283.422 124.800 C 283.762 124.800,283.878 125.421,283.679 126.180 C 283.410 127.210,283.532 127.428,284.160 127.040 C 284.788 126.652,284.910 126.871,284.641 127.901 C 284.442 128.660,284.510 129.139,284.791 128.965 C 285.073 128.791,285.496 129.416,285.731 130.354 C 285.967 131.292,286.738 132.795,287.446 133.694 C 288.153 134.594,288.452 135.423,288.111 135.536 C 287.751 135.656,287.888 136.541,288.435 137.638 C 288.955 138.681,289.584 139.408,289.833 139.254 C 290.082 139.100,290.341 139.529,290.408 140.207 C 290.679 142.951,290.795 143.360,291.307 143.360 C 291.600 143.360,291.840 143.919,291.840 144.602 C 291.840 145.285,292.172 146.050,292.579 146.301 C 293.076 146.608,293.147 146.464,292.796 145.859 C 292.509 145.364,292.521 145.184,292.823 145.459 C 294.020 146.548,293.659 150.809,292.434 150.052 C 292.107 149.850,291.840 149.989,291.840 150.362 C 291.840 150.735,291.555 151.040,291.207 151.040 C 290.182 151.040,287.972 153.141,286.946 155.092 C 286.334 156.256,285.654 156.773,285.044 156.539 C 284.521 156.339,284.249 156.427,284.440 156.735 C 284.630 157.043,284.302 157.688,283.710 158.167 C 282.970 158.768,282.784 158.790,283.115 158.240 C 283.867 156.987,283.201 157.301,281.859 158.830 C 281.087 159.710,280.992 160.022,281.600 159.680 C 282.272 159.302,282.219 159.530,281.421 160.442 C 280.439 161.563,279.464 161.763,276.922 161.362 C 276.637 161.317,276.582 160.992,276.800 160.640 C 277.018 160.288,276.730 160.000,276.160 160.000 C 275.590 160.000,275.302 159.712,275.520 159.360 C 275.738 159.008,275.611 158.720,275.238 158.720 C 274.865 158.720,273.984 158.144,273.280 157.440 C 272.576 156.736,272.199 156.160,272.442 156.160 C 272.686 156.160,272.329 155.754,271.649 155.257 C 270.970 154.760,270.188 154.493,269.911 154.664 C 269.635 154.835,269.487 154.594,269.584 154.128 C 269.681 153.661,269.379 153.359,268.912 153.456 C 268.446 153.553,268.240 153.349,268.453 153.003 C 268.667 152.657,267.968 151.923,266.901 151.371 C 265.833 150.819,264.960 150.214,264.960 150.026 C 264.960 149.838,265.320 149.892,265.760 150.145 C 266.200 150.399,265.840 149.817,264.960 148.852 C 264.080 147.887,263.426 146.970,263.507 146.816 C 264.023 145.825,265.364 144.825,265.812 145.097 C 266.105 145.275,266.288 144.884,266.218 144.230 C 265.991 142.082,266.225 141.355,266.989 141.827 C 267.492 142.138,267.604 141.941,267.329 141.225 C 267.104 140.639,267.163 140.160,267.460 140.160 C 267.963 140.160,268.946 136.668,268.625 136.024 C 268.545 135.865,269.056 135.269,269.760 134.700 C 270.464 134.131,270.692 133.840,270.267 134.054 C 269.739 134.319,269.789 133.877,270.423 132.661 C 270.934 131.681,271.354 130.537,271.356 130.118 C 271.358 129.699,271.692 129.150,272.099 128.899 C 272.588 128.597,272.663 128.726,272.320 129.280 C 272.001 129.797,272.054 129.962,272.458 129.712 C 273.078 129.330,274.191 125.679,274.006 124.640 C 273.959 124.376,274.496 123.584,275.200 122.880 C 276.614 121.466,276.939 119.985,275.680 120.696 C 275.047 121.053,275.044 120.971,275.665 120.301 C 276.239 119.681,276.261 119.228,275.746 118.607 C 275.230 117.986,275.245 117.760,275.799 117.760 C 276.215 117.760,276.375 117.467,276.154 117.110 C 275.932 116.752,275.514 116.606,275.223 116.786 C 274.639 117.147,273.699 115.208,274.209 114.697 C 274.385 114.521,274.975 114.748,275.520 115.200 C 276.065 115.652,276.696 115.837,276.922 115.611 C 277.148 115.385,276.949 115.200,276.480 115.200 C 276.011 115.200,275.794 115.033,275.999 114.828 C 276.203 114.624,277.006 114.796,277.782 115.212 C 278.733 115.721,279.052 115.738,278.759 115.264 C 278.491 114.829,278.889 114.564,279.802 114.570 C 280.991 114.578,281.092 114.701,280.320 115.200 C 278.902 116.117,279.920 115.972,281.818 114.987 C 283.675 114.023,285.440 113.867,285.440 114.667 M196.991 121.942 C 196.702 122.231,192.403 122.942,190.240 123.058 C 189.448 123.101,188.800 123.318,188.800 123.541 C 188.800 123.764,188.152 123.890,187.360 123.820 C 186.568 123.751,185.560 123.979,185.120 124.326 C 184.680 124.673,184.320 124.733,184.320 124.460 C 184.320 124.187,183.782 124.584,183.125 125.342 C 182.468 126.100,181.299 126.720,180.527 126.720 C 179.665 126.720,179.293 126.993,179.562 127.429 C 179.861 127.911,179.541 127.991,178.560 127.680 C 177.628 127.384,177.265 127.457,177.530 127.887 C 178.005 128.656,177.235 129.239,175.238 129.623 C 174.464 129.772,173.383 130.373,172.836 130.957 C 172.124 131.717,172.097 131.875,172.739 131.511 C 173.345 131.168,173.487 131.246,173.175 131.752 C 172.920 132.164,172.488 132.362,172.214 132.193 C 171.702 131.877,168.272 135.133,168.098 136.100 C 168.044 136.397,167.763 136.561,167.472 136.464 C 167.182 136.367,167.129 136.586,167.353 136.949 C 167.866 137.779,166.102 139.619,165.377 139.010 C 165.083 138.762,165.265 139.118,165.781 139.800 C 166.626 140.916,166.611 140.999,165.633 140.632 C 164.919 140.365,164.649 140.497,164.848 141.015 C 165.015 141.449,164.554 142.447,163.823 143.231 C 163.092 144.015,162.698 144.985,162.946 145.387 C 163.224 145.837,163.114 145.942,162.659 145.661 C 162.252 145.410,161.898 145.437,161.871 145.722 C 161.844 146.007,161.689 146.816,161.526 147.520 C 161.364 148.224,161.060 149.880,160.851 151.200 C 160.642 152.520,160.269 153.600,160.022 153.600 C 159.375 153.600,159.433 155.711,160.104 156.565 C 160.465 157.026,160.317 157.427,159.696 157.665 C 159.159 157.871,158.720 158.786,158.720 159.698 C 158.720 160.610,158.975 161.198,159.287 161.005 C 159.927 160.609,160.706 162.921,160.127 163.499 C 159.409 164.218,159.339 166.632,160.025 167.056 C 160.406 167.291,160.772 168.534,160.839 169.819 C 160.905 171.103,161.193 172.156,161.478 172.157 C 161.763 172.159,161.838 172.415,161.645 172.727 C 161.452 173.040,161.733 173.659,162.270 174.105 C 162.885 174.615,163.140 175.591,162.958 176.741 C 162.799 177.752,162.932 178.406,163.255 178.206 C 163.577 178.007,163.876 178.149,163.920 178.522 C 163.964 178.895,164.075 179.416,164.166 179.680 C 164.257 179.944,164.543 180.808,164.801 181.600 C 165.058 182.392,165.668 183.040,166.155 183.040 C 166.642 183.040,167.040 183.616,167.040 184.320 C 167.040 185.024,167.345 185.600,167.718 185.600 C 168.091 185.600,168.218 185.888,168.000 186.240 C 167.782 186.592,168.053 186.880,168.602 186.880 C 169.151 186.880,169.600 187.185,169.600 187.558 C 169.600 187.931,169.283 188.040,168.896 187.801 C 168.387 187.486,168.384 187.696,168.885 188.563 C 170.238 190.899,172.133 192.732,172.782 192.331 C 173.144 192.107,173.440 192.304,173.440 192.768 C 173.440 193.232,174.027 193.979,174.745 194.427 C 175.462 194.875,175.877 195.520,175.667 195.861 C 175.322 196.419,176.179 196.755,177.440 196.556 C 177.704 196.514,177.848 196.827,177.760 197.250 C 177.672 197.674,178.171 198.034,178.870 198.050 C 179.568 198.067,180.232 198.561,180.347 199.149 C 180.486 199.868,180.180 200.163,179.410 200.050 C 178.781 199.957,177.880 200.268,177.408 200.741 C 176.935 201.213,176.209 201.596,175.794 201.590 C 175.352 201.584,175.437 201.324,176.000 200.960 C 176.557 200.600,176.645 200.335,176.209 200.330 C 175.796 200.324,174.577 201.061,173.501 201.967 C 172.215 203.049,171.119 203.479,170.306 203.221 C 169.625 203.005,168.855 203.172,168.595 203.593 C 168.278 204.106,168.418 204.205,169.021 203.891 C 169.516 203.635,169.374 203.869,168.706 204.412 C 168.038 204.955,167.246 205.247,166.946 205.062 C 166.646 204.876,166.396 205.101,166.390 205.562 C 166.383 206.171,166.211 206.138,165.760 205.440 C 165.211 204.590,164.856 204.956,165.029 206.195 C 165.063 206.434,164.384 206.502,163.521 206.345 C 162.261 206.117,162.034 206.272,162.365 207.135 C 162.643 207.860,162.534 208.059,162.029 207.747 C 161.617 207.493,161.280 207.570,161.280 207.919 C 161.280 208.268,160.632 208.772,159.840 209.039 C 158.427 209.515,157.924 209.627,156.320 209.823 C 155.880 209.876,155.520 210.248,155.520 210.649 C 155.520 211.677,153.521 213.074,152.000 213.109 C 151.051 213.132,150.941 213.280,151.574 213.681 C 152.383 214.194,150.343 215.309,148.960 215.109 C 148.696 215.071,148.480 215.309,148.480 215.637 C 148.480 215.965,147.904 216.417,147.200 216.640 C 146.496 216.863,145.920 217.405,145.920 217.842 C 145.920 218.731,144.224 220.644,142.200 222.037 C 141.468 222.541,141.012 223.185,141.188 223.469 C 141.363 223.753,140.988 223.799,140.353 223.571 C 139.719 223.343,139.411 223.389,139.668 223.673 C 139.926 223.957,139.522 224.723,138.770 225.375 C 138.019 226.027,137.664 226.564,137.982 226.570 C 138.300 226.575,138.190 226.814,137.738 227.101 C 137.285 227.388,136.375 228.608,135.714 229.812 C 135.053 231.015,134.150 231.912,133.708 231.804 C 133.073 231.649,133.076 231.816,133.724 232.596 C 134.401 233.413,134.369 233.652,133.536 233.972 C 132.982 234.184,132.353 234.912,132.138 235.588 C 131.924 236.265,131.511 236.672,131.221 236.493 C 130.931 236.314,130.533 236.588,130.335 237.103 C 130.138 237.618,130.295 238.236,130.685 238.477 C 131.155 238.768,130.997 239.205,130.215 239.778 C 129.566 240.252,129.270 240.640,129.556 240.640 C 129.842 240.640,129.681 241.127,129.198 241.723 C 128.479 242.609,128.477 242.711,129.184 242.286 C 129.884 241.864,129.910 242.023,129.321 243.123 C 128.922 243.869,128.245 244.484,127.817 244.490 C 127.266 244.497,127.289 244.657,127.895 245.041 C 128.874 245.662,128.779 246.352,127.544 247.588 C 126.938 248.194,126.874 248.694,127.332 249.247 C 127.693 249.682,127.791 250.236,127.549 250.477 C 126.769 251.258,126.772 253.051,127.556 254.021 C 128.166 254.776,128.146 254.861,127.456 254.446 C 126.777 254.037,126.730 254.183,127.237 255.130 C 128.156 256.847,130.249 258.624,131.624 258.853 C 132.271 258.962,132.716 259.409,132.613 259.847 C 132.493 260.355,132.885 260.523,133.691 260.312 C 134.435 260.118,135.098 260.348,135.299 260.871 C 135.486 261.360,136.482 261.760,137.511 261.760 C 138.618 261.760,139.540 262.169,139.767 262.760 C 140.055 263.512,140.718 263.670,142.435 263.397 C 143.691 263.198,144.578 263.262,144.406 263.540 C 144.103 264.031,145.395 264.292,148.288 264.324 C 149.063 264.333,149.899 264.668,150.147 265.069 C 150.443 265.548,150.310 265.620,149.760 265.280 C 149.194 264.930,149.076 265.012,149.398 265.532 C 149.767 266.130,150.087 266.125,150.826 265.512 C 151.584 264.883,151.883 264.893,152.297 265.563 C 152.597 266.048,153.160 266.192,153.627 265.903 C 154.168 265.569,154.279 265.660,153.959 266.176 C 153.601 266.756,154.300 266.878,156.741 266.665 C 158.533 266.508,160.000 266.641,160.000 266.962 C 160.000 267.283,160.765 267.406,161.700 267.237 C 162.635 267.067,163.714 267.122,164.096 267.358 C 164.479 267.595,166.498 267.877,168.582 267.984 C 170.667 268.092,172.812 268.535,173.349 268.970 C 174.126 269.599,174.228 269.597,173.845 268.960 C 173.516 268.411,173.829 268.163,174.842 268.170 C 176.045 268.178,176.141 268.300,175.360 268.826 C 174.685 269.280,176.017 269.423,179.840 269.307 C 182.832 269.217,185.684 269.398,186.179 269.710 C 186.765 270.080,186.933 270.044,186.663 269.607 C 186.413 269.203,186.859 268.973,187.783 269.028 C 188.627 269.079,189.184 269.336,189.021 269.600 C 188.858 269.864,189.190 270.080,189.760 270.080 C 190.330 270.080,190.618 269.792,190.400 269.440 C 189.966 268.738,190.899 268.553,191.557 269.210 C 192.083 269.737,205.202 269.662,206.067 269.128 C 206.426 268.906,206.720 269.029,206.720 269.402 C 206.720 269.775,207.368 270.060,208.160 270.035 C 209.534 269.992,209.541 269.965,208.320 269.440 C 207.053 268.895,207.053 268.890,208.352 268.845 C 209.074 268.820,210.052 269.160,210.526 269.600 C 211.220 270.244,211.293 270.233,210.902 269.545 C 210.531 268.891,210.926 268.733,212.577 268.876 C 213.766 268.978,215.139 268.814,215.628 268.512 C 216.177 268.173,216.369 268.203,216.130 268.590 C 215.890 268.978,217.323 269.201,219.871 269.175 C 222.142 269.151,224.000 268.924,224.000 268.671 C 224.000 268.418,224.792 268.244,225.760 268.285 C 226.728 268.325,229.536 268.151,232.000 267.898 C 234.464 267.645,237.488 267.418,238.720 267.392 C 239.952 267.366,241.320 267.062,241.760 266.714 C 242.200 266.367,242.560 266.298,242.560 266.560 C 242.560 266.822,243.014 266.660,243.569 266.200 C 244.392 265.516,244.672 265.514,245.089 266.189 C 245.472 266.810,245.716 266.829,246.065 266.265 C 246.320 265.851,246.947 265.673,247.458 265.869 C 248.046 266.095,248.220 265.956,247.933 265.492 C 247.625 264.993,247.921 264.874,248.859 265.119 C 249.618 265.318,250.376 265.257,250.544 264.986 C 250.712 264.714,251.576 264.631,252.465 264.800 C 253.353 264.970,254.080 264.813,254.080 264.451 C 254.080 264.089,254.584 263.874,255.200 263.974 C 255.816 264.073,256.896 263.843,257.600 263.463 C 258.304 263.082,259.281 262.854,259.772 262.955 C 260.262 263.056,260.867 262.809,261.116 262.407 C 261.365 262.004,261.971 261.595,262.464 261.498 C 265.416 260.913,266.823 260.266,266.451 259.663 C 266.185 259.233,266.434 259.137,267.128 259.404 C 267.781 259.654,268.068 259.568,267.835 259.193 C 267.620 258.845,267.893 258.560,268.442 258.560 C 268.991 258.560,269.368 258.213,269.280 257.789 C 269.192 257.365,269.552 256.997,270.080 256.972 C 270.699 256.942,270.981 256.391,270.873 255.418 C 270.745 254.269,270.897 254.070,271.513 254.581 C 272.145 255.105,272.344 254.431,272.432 251.465 C 272.494 249.383,272.278 247.680,271.952 247.680 C 271.627 247.680,271.360 246.511,271.360 245.082 C 271.360 243.533,271.105 242.642,270.727 242.875 C 270.361 243.102,270.259 242.838,270.485 242.249 C 270.700 241.690,270.408 240.716,269.836 240.084 C 269.265 239.453,268.988 238.745,269.221 238.512 C 269.454 238.279,269.011 237.538,268.236 236.866 C 267.227 235.991,267.062 235.550,267.654 235.313 C 268.286 235.059,268.293 234.969,267.680 234.931 C 267.240 234.903,266.880 234.518,266.880 234.076 C 266.880 233.633,265.800 232.279,264.480 231.067 C 263.160 229.854,262.591 229.058,263.215 229.297 C 264.980 229.973,263.568 227.769,260.659 225.309 C 259.328 224.184,258.644 223.474,259.139 223.731 C 259.730 224.038,259.881 223.945,259.581 223.459 C 259.330 223.052,258.778 222.720,258.354 222.720 C 257.930 222.720,257.299 222.105,256.952 221.353 C 256.604 220.601,256.098 220.031,255.827 220.086 C 255.296 220.195,253.553 218.765,253.577 218.240 C 253.632 217.026,253.331 216.778,252.800 217.600 C 252.386 218.240,252.176 218.293,252.170 217.760 C 252.164 217.320,251.747 216.960,251.243 216.960 C 250.739 216.960,250.143 216.384,249.920 215.680 C 249.555 214.530,248.848 214.112,248.026 214.560 C 247.865 214.648,247.001 213.728,246.106 212.516 C 245.212 211.303,244.460 210.727,244.435 211.236 C 244.407 211.806,244.179 211.669,243.840 210.880 C 243.537 210.176,243.270 209.995,243.245 210.478 C 243.209 211.183,243.012 211.201,242.247 210.566 C 241.723 210.131,241.482 209.471,241.712 209.099 C 241.974 208.674,241.724 208.578,241.041 208.840 C 240.380 209.094,239.815 208.904,239.605 208.356 C 239.415 207.859,238.707 207.559,238.032 207.689 C 237.298 207.831,236.538 207.426,236.140 206.683 C 235.774 205.999,235.053 205.440,234.537 205.440 C 234.022 205.440,233.600 205.118,233.600 204.725 C 233.600 204.312,232.939 204.137,232.032 204.311 C 231.070 204.494,230.335 204.274,230.130 203.739 C 229.946 203.260,229.572 202.902,229.298 202.943 C 228.410 203.077,225.920 202.104,225.920 201.623 C 225.920 201.366,224.971 201.220,223.810 201.298 C 221.206 201.472,218.064 199.308,219.554 198.365 C 220.063 198.043,220.840 197.775,221.280 197.770 C 221.720 197.764,222.080 197.472,222.080 197.120 C 222.080 196.768,222.529 196.480,223.078 196.480 C 223.627 196.480,223.898 196.192,223.680 195.840 C 223.462 195.488,223.733 195.200,224.282 195.200 C 224.831 195.200,225.280 194.891,225.280 194.514 C 225.280 193.783,226.562 192.304,227.360 192.114 C 227.624 192.051,227.821 191.834,227.798 191.631 C 227.774 191.428,228.531 190.595,229.479 189.781 C 230.427 188.966,231.005 187.980,230.763 187.590 C 230.517 187.192,230.741 186.880,231.271 186.880 C 231.797 186.880,232.401 186.050,232.628 185.013 C 232.854 183.987,233.471 182.981,234.000 182.778 C 234.528 182.575,234.802 182.152,234.608 181.837 C 234.413 181.522,234.643 180.943,235.118 180.548 C 235.629 180.124,235.848 179.138,235.656 178.131 C 235.382 176.700,235.512 176.500,236.476 176.870 C 237.405 177.227,237.480 177.140,236.874 176.409 C 236.290 175.706,236.349 175.424,237.144 175.119 C 237.704 174.905,237.974 174.426,237.745 174.056 C 237.517 173.687,237.682 172.959,238.113 172.440 C 238.884 171.511,239.117 170.391,239.278 166.842 C 239.325 165.822,239.637 165.216,240.000 165.440 C 240.352 165.658,240.640 165.531,240.640 165.158 C 240.640 164.785,240.352 164.480,240.000 164.480 C 239.648 164.480,239.360 164.031,239.360 163.482 C 239.360 162.933,239.576 162.618,239.840 162.781 C 240.530 163.207,240.433 159.216,239.727 158.118 C 239.336 157.510,239.390 157.110,239.887 156.944 C 240.301 156.806,240.640 156.412,240.640 156.069 C 240.640 155.725,240.369 155.612,240.039 155.816 C 239.708 156.020,239.425 155.533,239.411 154.734 C 239.352 151.507,239.254 151.040,238.642 151.040 C 238.292 151.040,238.182 150.753,238.399 150.401 C 238.616 150.050,238.368 148.970,237.847 148.001 C 236.565 145.616,235.935 143.827,236.070 142.953 C 236.132 142.553,235.727 142.051,235.171 141.837 C 234.614 141.624,234.346 141.146,234.575 140.776 C 235.175 139.805,233.565 138.116,232.447 138.546 C 231.687 138.837,231.650 138.727,232.263 137.988 C 232.880 137.246,232.772 136.987,231.704 136.648 C 230.977 136.417,230.534 135.981,230.720 135.680 C 230.906 135.379,230.474 134.947,229.760 134.720 C 229.046 134.493,228.614 134.061,228.800 133.760 C 228.986 133.459,228.558 133.028,227.849 132.803 C 227.140 132.578,226.560 132.125,226.560 131.797 C 226.560 131.469,226.172 131.200,225.698 131.200 C 225.224 131.200,223.822 130.215,222.582 129.011 C 221.343 127.807,219.128 126.462,217.661 126.023 C 215.873 125.487,215.265 125.054,215.817 124.708 C 216.296 124.407,215.766 124.300,214.550 124.450 C 213.401 124.593,212.607 124.472,212.787 124.182 C 213.344 123.280,211.110 122.802,204.800 122.474 C 201.456 122.300,198.388 122.052,197.983 121.923 C 197.577 121.794,197.131 121.802,196.991 121.942 M43.090 164.386 C 42.877 165.199,42.291 165.519,41.227 165.402 C 40.373 165.309,39.817 165.465,39.993 165.749 C 40.169 166.033,39.864 166.438,39.316 166.648 C 38.767 166.859,38.504 167.331,38.731 167.697 C 38.991 168.118,38.534 168.253,37.491 168.064 C 36.311 167.850,35.651 168.118,35.177 169.002 C 34.813 169.683,34.128 170.240,33.656 170.240 C 33.183 170.240,32.441 170.669,32.006 171.193 C 31.571 171.717,30.966 171.992,30.661 171.804 C 29.860 171.308,26.216 174.164,26.684 174.921 C 26.901 175.271,26.765 175.365,26.383 175.128 C 26.001 174.892,25.505 174.997,25.280 175.360 C 25.055 175.723,24.603 175.855,24.276 175.653 C 23.948 175.450,23.680 175.597,23.680 175.978 C 23.680 176.360,22.960 176.945,22.080 177.280 C 21.200 177.615,20.480 178.217,20.480 178.619 C 20.480 179.034,19.928 179.205,19.199 179.014 C 18.495 178.830,18.059 178.908,18.232 179.187 C 18.532 179.672,16.221 180.700,15.182 180.543 C 14.908 180.502,14.518 180.901,14.315 181.430 C 14.112 181.960,13.708 182.246,13.417 182.066 C 13.126 181.886,12.708 182.032,12.486 182.390 C 12.265 182.747,12.461 183.049,12.922 183.059 C 13.437 183.071,13.326 183.332,12.635 183.734 C 12.016 184.094,11.249 184.228,10.930 184.031 C 10.610 183.833,10.229 184.033,10.082 184.473 C 9.935 184.914,9.263 185.276,8.588 185.277 C 7.430 185.280,7.360 185.849,7.360 195.200 L 7.360 205.120 76.480 205.126 L 145.600 205.132 76.800 204.801 L 8.000 204.471 77.315 204.316 L 146.629 204.160 148.654 202.268 C 150.094 200.922,150.821 200.599,151.170 201.148 C 151.541 201.732,151.663 201.716,151.670 201.082 C 151.676 200.621,151.968 200.422,152.320 200.640 C 152.672 200.858,152.960 200.731,152.960 200.358 C 152.960 199.985,153.536 199.680,154.240 199.680 C 154.944 199.680,155.520 199.401,155.520 199.060 C 155.520 198.719,155.016 198.583,154.400 198.757 C 153.784 198.932,154.576 198.439,156.160 197.663 C 157.744 196.887,159.544 196.265,160.160 196.282 C 160.776 196.299,161.280 196.063,161.280 195.757 C 161.280 195.450,160.961 195.200,160.572 195.200 C 160.182 195.200,160.035 194.753,160.244 194.207 C 160.463 193.637,160.355 193.380,159.993 193.605 C 159.645 193.820,159.360 193.691,159.360 193.318 C 159.360 192.945,158.856 192.617,158.240 192.589 C 157.571 192.559,157.442 192.409,157.920 192.216 C 159.059 191.757,158.911 190.720,157.707 190.720 C 157.149 190.720,156.805 190.386,156.941 189.977 C 157.077 189.569,156.566 188.563,155.806 187.743 L 154.424 186.251 86.652 186.214 C 26.399 186.180,19.075 186.071,20.640 185.228 C 21.608 184.706,22.400 184.049,22.400 183.768 C 22.400 183.486,23.110 182.876,23.978 182.412 C 24.846 181.947,25.375 181.274,25.153 180.915 C 24.910 180.522,25.170 180.423,25.805 180.667 C 26.506 180.936,27.114 180.597,27.617 179.656 C 28.369 178.248,31.835 174.720,32.466 174.720 C 32.648 174.720,32.438 175.224,31.999 175.840 C 31.169 177.004,33.558 174.429,36.168 171.345 C 36.995 170.369,38.051 169.649,38.515 169.745 C 39.027 169.851,39.340 169.352,39.309 168.480 C 39.254 166.929,40.009 166.535,40.536 167.840 C 40.729 168.318,40.879 168.189,40.909 167.520 C 40.940 166.844,41.467 166.400,42.240 166.400 C 42.944 166.400,43.542 166.184,43.569 165.920 C 43.596 165.656,43.714 164.936,43.832 164.320 C 44.119 162.823,43.484 162.880,43.090 164.386 M356.723 165.409 C 356.229 166.697,356.972 167.697,358.100 167.264 C 358.648 167.054,359.040 167.273,359.040 167.789 C 359.040 168.946,361.483 171.028,362.270 170.542 C 362.605 170.334,362.880 170.479,362.880 170.864 C 362.880 171.737,366.517 175.350,366.955 174.912 C 367.132 174.735,368.084 175.340,369.072 176.255 C 370.059 177.171,370.619 177.920,370.315 177.920 C 370.012 177.920,370.119 178.349,370.554 178.873 C 370.989 179.397,371.561 179.692,371.825 179.529 C 372.089 179.366,373.339 180.305,374.602 181.616 C 377.471 184.593,379.101 185.983,379.398 185.707 C 379.524 185.589,379.795 185.661,380.000 185.867 C 380.205 186.072,349.788 186.240,312.407 186.240 C 252.698 186.240,244.395 186.356,244.073 187.196 C 243.871 187.722,243.476 188.011,243.195 187.837 C 242.645 187.497,241.190 191.057,241.679 191.546 C 241.841 191.708,241.111 192.655,240.057 193.650 C 237.808 195.773,238.266 196.857,241.682 197.498 C 242.888 197.724,244.165 198.451,244.520 199.114 C 244.875 199.778,245.529 200.320,245.975 200.320 C 246.420 200.320,247.144 200.680,247.584 201.120 C 248.370 201.906,248.638 202.000,250.560 202.160 C 251.088 202.204,251.524 202.744,251.530 203.360 C 251.537 204.176,251.680 204.259,252.057 203.665 C 252.452 203.042,252.851 203.156,253.746 204.145 C 254.958 205.484,392.287 206.291,392.338 204.960 C 392.594 198.325,392.542 186.423,392.258 186.598 C 392.048 186.728,391.039 186.053,390.016 185.097 C 386.616 181.922,384.805 180.568,385.931 182.043 C 386.772 183.144,386.770 183.221,385.920 182.722 C 385.392 182.412,384.574 181.623,384.102 180.969 C 383.383 179.971,383.079 179.913,382.219 180.609 C 381.447 181.235,381.313 181.242,381.676 180.639 C 381.989 180.118,381.584 179.620,380.519 179.215 C 379.617 178.872,378.880 178.424,378.880 178.218 C 378.880 178.013,379.212 178.050,379.619 178.301 C 380.095 178.595,380.183 178.475,379.867 177.963 C 379.597 177.526,378.862 177.303,378.235 177.467 C 377.481 177.664,376.860 177.250,376.401 176.242 C 376.008 175.379,375.154 174.720,374.429 174.720 C 372.954 174.720,369.181 172.578,369.205 171.755 C 369.214 171.450,368.653 171.291,367.957 171.403 C 367.194 171.525,366.761 171.282,366.866 170.792 C 366.962 170.344,366.680 169.929,366.240 169.869 C 365.800 169.809,365.135 169.724,364.762 169.680 C 364.389 169.636,364.260 169.315,364.475 168.967 C 364.700 168.605,364.443 168.497,363.873 168.716 C 363.223 168.965,362.880 168.732,362.880 168.040 C 362.880 167.389,362.450 167.056,361.760 167.172 C 361.103 167.282,360.713 167.010,360.816 166.512 C 360.913 166.046,360.697 165.847,360.336 166.070 C 359.975 166.293,359.680 166.140,359.680 165.729 C 359.680 165.318,359.234 165.154,358.687 165.364 C 358.117 165.583,357.860 165.475,358.085 165.113 C 358.300 164.765,358.162 164.480,357.778 164.480 C 357.394 164.480,356.919 164.898,356.723 165.409 M357.600 204.640 C 338.680 204.734,307.720 204.734,288.800 204.640 C 269.880 204.546,285.360 204.469,323.200 204.469 C 361.040 204.469,376.520 204.546,357.600 204.640 " stroke="none" fill="#555555" fill-rule="evenodd"></path></g></svg>