<svg style="display: block;" id="svg" version="1.1" width="714" height="500" xmlns="http://www.w3.org/2000/svg" xmlns:xlink="http://www.w3.org/1999/xlink"><g id="svgg"><path id="path0" d="M135.994 8.226 C 135.455 8.369,135.014 8.719,135.014 9.005 C 135.014 9.290,134.793 9.461,134.523 9.384 C 133.890 9.203,129.412 13.308,129.412 14.068 C 129.412 14.386,129.058 14.999,128.626 15.431 C 127.205 16.853,127.100 26.196,127.277 135.714 L 127.451 243.698 124.090 243.693 C 118.878 243.686,119.328 252.195,119.328 153.670 L 119.328 66.667 80.392 66.667 C 57.049 66.667,41.457 66.873,41.457 67.182 C 41.457 67.466,40.700 67.864,39.776 68.067 C 38.852 68.270,38.095 68.668,38.095 68.952 C 38.095 69.236,37.780 69.470,37.395 69.474 C 37.010 69.477,36.190 70.105,35.574 70.869 C 34.958 71.633,34.013 72.804,33.473 73.470 C 32.934 74.136,32.493 75.273,32.493 75.996 C 32.493 76.719,32.238 77.311,31.926 77.311 C 31.545 77.311,31.407 104.629,31.506 160.504 L 31.653 243.698 20.299 243.698 L 8.945 243.697 9.094 258.403 L 9.244 273.109 200.000 273.109 L 390.756 273.109 390.906 258.403 L 391.055 243.697 380.401 243.697 L 369.748 243.697 369.705 160.364 C 369.659 70.880,369.734 75.481,368.303 73.900 C 367.770 73.311,367.518 72.829,367.743 72.829 C 367.969 72.829,367.397 72.073,366.473 71.148 C 365.548 70.224,364.521 69.468,364.189 69.468 C 363.857 69.468,363.585 69.250,363.585 68.984 C 363.585 66.830,360.066 66.654,319.859 66.803 L 280.952 66.947 280.811 154.482 C 280.717 212.187,280.478 242.017,280.110 242.017 C 279.803 242.017,279.552 242.395,279.552 242.857 C 279.552 243.514,278.789 243.697,276.050 243.698 L 272.549 243.698 272.651 132.633 C 272.749 25.298,272.633 15.714,271.235 15.248 C 270.879 15.130,270.588 14.686,270.588 14.262 C 270.588 13.440,266.206 9.115,265.695 9.432 C 265.528 9.535,265.183 9.283,264.929 8.871 C 264.478 8.141,138.693 7.511,135.994 8.226 M205.602 15.049 C 205.602 15.314,207.277 15.703,209.323 15.913 C 211.369 16.122,213.568 16.661,214.209 17.111 C 214.851 17.560,215.950 17.927,216.651 17.927 C 217.353 17.927,217.927 18.179,217.927 18.487 C 217.927 18.796,218.116 19.007,218.347 18.957 C 218.895 18.839,222.020 20.125,222.398 20.623 C 222.993 21.409,226.308 23.529,226.942 23.529 C 227.303 23.529,228.431 24.412,229.448 25.490 C 230.465 26.569,231.608 27.451,231.989 27.451 C 232.369 27.451,232.539 27.592,232.367 27.763 C 232.195 27.935,232.854 28.881,233.831 29.864 C 236.092 32.140,238.655 35.601,238.655 36.377 C 238.655 36.706,238.891 36.975,239.178 36.975 C 239.465 36.975,239.877 37.530,240.092 38.209 C 240.308 38.888,240.829 39.788,241.250 40.210 C 241.672 40.631,242.017 41.337,242.017 41.777 C 242.017 42.217,242.280 42.577,242.602 42.577 C 242.923 42.577,243.135 42.892,243.072 43.277 C 243.009 43.662,243.250 44.687,243.608 45.555 C 243.965 46.422,244.258 47.634,244.258 48.249 C 244.258 48.863,244.488 49.223,244.770 49.049 C 245.051 48.875,245.460 50.688,245.677 53.078 C 245.895 55.468,246.358 57.786,246.706 58.231 C 247.212 58.877,247.170 58.944,246.499 58.569 C 245.815 58.187,245.789 58.240,246.359 58.853 C 247.153 59.710,247.332 66.432,246.572 66.901 C 246.305 67.067,245.911 68.972,245.698 71.136 C 245.485 73.300,245.089 75.070,244.818 75.070 C 244.548 75.070,244.157 76.196,243.951 77.573 C 243.745 78.950,243.225 80.367,242.796 80.723 C 242.368 81.079,242.017 81.786,242.017 82.294 C 242.017 82.803,241.134 84.559,240.056 86.196 C 238.978 87.834,238.095 89.277,238.095 89.405 C 238.095 89.532,237.654 90.098,237.115 90.664 C 236.576 91.229,235.157 92.864,233.961 94.298 C 231.544 97.196,223.323 103.641,222.043 103.641 C 221.592 103.641,221.361 103.866,221.531 104.140 C 221.700 104.415,220.984 104.799,219.939 104.995 C 218.895 105.191,217.754 105.696,217.405 106.116 C 217.056 106.537,215.581 107.059,214.128 107.277 C 212.674 107.495,211.305 107.963,211.085 108.318 C 210.806 108.769,207.458 108.964,200.000 108.964 C 192.542 108.964,189.194 108.769,188.915 108.318 C 188.695 107.963,187.326 107.495,185.872 107.277 C 184.419 107.059,182.944 106.537,182.595 106.116 C 182.246 105.696,181.091 105.189,180.030 104.990 C 178.968 104.790,178.227 104.499,178.383 104.343 C 178.540 104.187,177.852 103.643,176.856 103.135 C 173.311 101.328,166.854 95.653,163.996 91.833 C 162.399 89.700,160.898 87.955,160.659 87.955 C 160.420 87.955,160.224 87.611,160.224 87.190 C 160.224 86.770,159.720 85.785,159.104 85.001 C 158.487 84.218,157.983 83.132,157.983 82.589 C 157.983 82.045,157.611 81.190,157.156 80.687 C 156.351 79.797,155.868 78.135,155.784 75.957 C 155.761 75.366,155.553 75.074,155.322 75.306 C 155.091 75.539,154.569 73.501,154.163 70.778 C 153.069 63.449,152.766 58.824,153.381 58.824 C 153.675 58.824,153.894 58.382,153.867 57.843 C 153.762 55.701,154.705 49.874,155.208 49.564 C 155.502 49.382,155.742 48.761,155.742 48.183 C 155.742 47.605,156.035 46.422,156.392 45.555 C 156.750 44.687,156.991 43.662,156.928 43.277 C 156.865 42.892,157.049 42.577,157.338 42.577 C 157.626 42.577,158.020 41.947,158.213 41.176 C 158.407 40.406,158.812 39.776,159.114 39.776 C 159.417 39.776,159.664 39.447,159.664 39.044 C 159.664 37.906,164.977 30.641,167.197 28.746 C 168.292 27.810,169.188 26.758,169.188 26.408 C 169.188 26.057,169.557 25.770,170.008 25.770 C 170.460 25.770,171.083 25.295,171.394 24.714 C 171.705 24.133,172.596 23.498,173.375 23.303 C 174.153 23.108,174.790 22.701,174.790 22.398 C 174.790 22.096,175.150 21.849,175.590 21.849 C 176.030 21.849,176.768 21.472,177.229 21.011 C 177.908 20.331,179.751 19.366,181.513 18.766 C 183.205 18.190,184.280 17.744,185.596 17.072 C 186.456 16.632,188.788 16.106,190.778 15.902 C 192.769 15.698,194.398 15.314,194.398 15.049 C 194.398 14.783,196.919 14.566,200.000 14.566 C 203.081 14.566,205.602 14.783,205.602 15.049 M187.675 40.038 L 187.675 49.300 178.421 49.300 L 169.167 49.300 169.317 61.983 L 169.468 74.667 178.571 74.554 L 187.675 74.441 187.675 83.719 L 187.675 92.997 200.000 92.997 L 212.325 92.997 212.325 83.719 L 212.325 74.441 221.429 74.554 L 230.532 74.667 230.683 61.983 L 230.833 49.300 221.579 49.300 L 212.325 49.300 212.325 40.096 L 212.325 30.892 200.000 30.834 L 187.675 30.776 187.675 40.038 M71.709 111.204 L 71.709 120.448 62.745 120.448 L 53.782 120.448 53.782 111.204 L 53.782 101.961 62.745 101.961 L 71.709 101.961 71.709 111.204 M101.961 111.204 L 101.961 120.448 92.997 120.448 L 84.034 120.448 84.034 111.204 L 84.034 101.961 92.997 101.961 L 101.961 101.961 101.961 111.204 M321.008 111.204 L 321.008 120.448 312.325 120.448 L 303.641 120.448 303.641 111.204 L 303.641 101.961 312.325 101.961 L 321.008 101.961 321.008 111.204 M351.821 111.204 L 351.821 120.448 342.857 120.448 L 333.894 120.448 333.894 111.204 L 333.894 101.961 342.857 101.961 L 351.821 101.961 351.821 111.204 M71.709 144.538 L 71.709 153.501 62.745 153.501 L 53.782 153.501 53.782 144.538 L 53.782 135.574 62.745 135.574 L 71.709 135.574 71.709 144.538 M101.961 144.538 L 101.961 153.501 92.997 153.501 L 84.034 153.501 84.034 144.538 L 84.034 135.574 92.997 135.574 L 101.961 135.574 101.961 144.538 M321.008 144.538 L 321.008 153.501 312.325 153.501 L 303.641 153.501 303.641 144.538 L 303.641 135.574 312.325 135.574 L 321.008 135.574 321.008 144.538 M351.821 144.538 L 351.821 153.501 342.857 153.501 L 333.894 153.501 333.894 144.538 L 333.894 135.574 342.857 135.574 L 351.821 135.574 351.821 144.538 M101.961 178.738 L 101.961 187.675 92.997 187.675 L 84.034 187.675 84.033 178.571 L 84.032 169.468 92.996 169.635 L 101.961 169.801 101.961 178.738 M321.122 178.431 L 320.956 187.675 312.299 187.675 L 303.641 187.675 303.641 178.726 L 303.641 169.776 312.465 169.607 C 317.318 169.514,321.289 169.381,321.289 169.312 C 321.289 169.243,321.214 173.346,321.122 178.431 M71.709 178.711 L 71.709 187.675 62.745 187.675 L 53.782 187.675 53.782 178.711 L 53.782 169.748 62.745 169.748 L 71.709 169.748 71.709 178.711 M351.821 178.711 L 351.821 187.675 342.857 187.675 L 333.894 187.675 333.894 178.711 L 333.894 169.748 342.857 169.748 L 351.821 169.748 351.821 178.711 M229.132 207.843 L 229.132 243.137 201.681 243.137 L 174.230 243.137 174.230 207.843 L 174.230 172.549 201.681 172.549 L 229.132 172.549 229.132 207.843 " stroke="none" fill="#555555" fill-rule="evenodd"></path></g></svg>