<svg style="display: block;" id="svg" version="1.1" width="862" height="500" xmlns="http://www.w3.org/2000/svg" xmlns:xlink="http://www.w3.org/1999/xlink"><g id="svgg"><path id="path0" d="M113.341 7.334 C 112.767 7.419,112.297 7.783,112.297 8.141 C 112.297 8.618,111.923 8.719,110.905 8.515 C 110.018 8.338,109.513 8.426,109.513 8.759 C 109.513 9.046,109.356 9.256,109.165 9.226 C 108.152 9.066,107.635 9.336,107.950 9.861 C 108.187 10.255,108.047 10.237,107.514 9.804 C 107.082 9.454,106.729 9.377,106.729 9.634 C 106.729 9.891,106.284 10.217,105.740 10.359 C 105.045 10.541,104.841 10.849,105.051 11.397 C 105.279 11.992,105.145 12.123,104.485 11.950 C 104.009 11.826,103.118 12.109,102.506 12.580 C 101.852 13.083,101.655 13.441,102.029 13.447 C 102.531 13.455,102.548 13.599,102.111 14.126 C 101.495 14.868,100.062 14.572,100.538 13.801 C 100.714 13.516,100.617 13.451,100.304 13.645 C 100.009 13.827,99.768 14.289,99.768 14.672 C 99.768 15.055,99.559 15.239,99.304 15.081 C 99.049 14.923,98.840 15.212,98.840 15.722 C 98.840 16.233,98.596 16.802,98.297 16.986 C 97.922 17.218,97.850 17.047,98.066 16.433 C 98.357 15.605,98.332 15.608,97.697 16.473 C 97.322 16.984,96.812 17.640,96.563 17.932 C 96.315 18.224,96.237 18.588,96.390 18.741 C 96.791 19.142,95.084 20.910,94.590 20.604 C 94.363 20.464,94.206 20.521,94.243 20.731 C 94.444 21.888,94.095 22.657,93.271 22.872 C 92.548 23.061,92.342 23.509,92.336 24.899 C 92.331 26.100,92.197 26.473,91.923 26.040 C 91.496 25.366,91.081 26.834,91.021 29.227 C 91.005 29.862,90.766 30.456,90.488 30.549 C 90.147 30.663,90.177 30.955,90.584 31.457 C 91.037 32.017,91.042 32.112,90.603 31.848 C 90.284 31.657,90.023 31.721,90.023 31.991 C 90.023 32.261,90.258 32.483,90.544 32.483 C 90.895 32.483,90.916 32.672,90.609 33.063 C 90.007 33.827,89.929 37.010,90.502 37.364 C 90.749 37.517,90.948 37.890,90.944 38.194 C 90.940 38.527,90.758 38.469,90.487 38.051 C 90.123 37.488,90.036 37.555,90.030 38.399 C 90.026 38.973,90.228 39.443,90.477 39.443 C 90.750 39.443,90.714 39.919,90.388 40.636 C 89.947 41.603,89.971 41.910,90.514 42.254 C 91.017 42.572,91.032 42.679,90.576 42.684 C 90.242 42.688,90.100 42.904,90.260 43.163 C 90.420 43.422,90.778 43.495,91.055 43.323 C 91.365 43.132,91.424 43.229,91.210 43.577 C 91.017 43.889,91.188 44.504,91.593 44.951 C 91.995 45.396,92.236 46.218,92.129 46.778 C 92.000 47.446,92.163 47.796,92.602 47.796 C 93.246 47.796,93.463 48.760,93.295 50.884 C 93.252 51.434,93.435 52.019,93.703 52.184 C 94.007 52.372,94.079 52.171,93.896 51.648 C 93.622 50.866,93.660 50.868,94.482 51.680 C 95.110 52.301,95.195 52.608,94.780 52.763 C 94.461 52.881,94.200 53.181,94.200 53.430 C 94.200 53.679,94.444 53.732,94.742 53.548 C 95.104 53.324,95.189 53.462,94.998 53.961 C 94.787 54.511,94.909 54.633,95.458 54.422 C 96.047 54.197,96.148 54.355,95.935 55.169 C 95.720 55.991,95.791 56.097,96.283 55.688 C 96.738 55.311,96.992 55.323,97.246 55.734 C 97.465 56.088,97.395 56.171,97.055 55.961 C 96.735 55.763,96.520 55.931,96.520 56.381 C 96.520 56.793,96.686 57.028,96.890 56.903 C 97.094 56.777,97.563 56.866,97.934 57.100 C 98.477 57.443,98.427 57.533,97.680 57.563 C 96.793 57.598,96.796 57.617,97.741 57.999 C 98.286 58.219,99.015 59.041,99.363 59.826 C 99.710 60.611,100.279 61.253,100.627 61.253 C 100.998 61.253,101.149 61.540,100.992 61.949 C 100.835 62.358,100.986 62.645,101.357 62.645 C 101.705 62.645,102.114 62.971,102.267 63.370 C 102.423 63.777,102.783 63.949,103.085 63.763 C 103.406 63.564,103.499 63.632,103.315 63.929 C 103.142 64.209,103.639 64.744,104.448 65.147 C 105.788 65.816,105.868 65.810,105.588 65.068 C 105.306 64.321,105.339 64.321,106.104 65.078 C 106.685 65.653,106.777 66.030,106.424 66.384 C 106.070 66.737,105.683 66.638,105.083 66.039 C 104.269 65.226,104.249 65.231,104.498 66.185 C 104.728 67.067,104.589 67.157,103.199 67.022 C 102.068 66.912,101.469 67.118,101.011 67.771 C 100.665 68.267,100.248 68.539,100.086 68.376 C 99.923 68.214,99.432 68.372,98.994 68.727 C 98.467 69.155,98.316 69.177,98.546 68.794 C 98.738 68.474,98.726 68.220,98.519 68.228 C 97.877 68.253,96.520 69.450,96.520 69.990 C 96.520 70.273,96.208 70.385,95.828 70.239 C 95.426 70.085,95.010 70.300,94.837 70.752 C 94.626 71.302,94.215 71.450,93.441 71.255 C 92.837 71.104,92.343 71.169,92.343 71.400 C 92.343 72.030,89.907 73.504,88.979 73.435 C 88.508 73.401,88.161 73.704,88.152 74.159 C 88.134 75.135,86.019 76.756,85.615 76.103 C 85.156 75.359,84.457 75.567,84.760 76.356 C 85.097 77.236,83.690 78.387,82.251 78.408 C 81.668 78.416,81.258 78.679,81.323 79.002 C 81.386 79.321,81.177 79.530,80.858 79.466 C 80.539 79.403,80.278 79.559,80.278 79.814 C 80.278 80.070,79.979 80.278,79.614 80.278 C 79.248 80.278,78.814 80.703,78.650 81.221 C 78.332 82.222,76.442 84.455,75.913 84.455 C 75.741 84.455,75.151 84.872,74.603 85.383 C 74.046 85.901,73.862 86.311,74.186 86.311 C 74.504 86.311,74.634 86.523,74.473 86.783 C 74.313 87.042,73.982 87.131,73.738 86.980 C 73.494 86.829,73.352 86.878,73.422 87.088 C 73.493 87.299,73.386 87.516,73.185 87.570 C 72.505 87.756,71.350 89.138,71.636 89.424 C 71.792 89.580,71.494 90.007,70.973 90.371 C 70.208 90.907,70.134 91.165,70.588 91.713 C 71.047 92.266,70.967 92.438,70.146 92.653 C 69.594 92.797,69.142 93.205,69.142 93.558 C 69.142 93.911,68.939 94.200,68.692 94.200 C 68.445 94.200,68.374 94.565,68.534 95.012 C 68.694 95.458,68.656 95.670,68.449 95.483 C 68.242 95.295,67.791 95.684,67.447 96.348 C 66.723 97.743,66.668 98.061,67.208 97.728 C 67.421 97.596,67.595 97.783,67.595 98.144 C 67.595 98.504,67.431 98.698,67.231 98.574 C 67.031 98.451,66.628 98.799,66.334 99.347 C 65.900 100.158,65.918 100.272,66.427 99.958 C 66.803 99.726,66.710 100.097,66.192 100.888 C 65.547 101.875,65.472 102.292,65.894 102.553 C 66.222 102.755,66.273 103.014,66.016 103.172 C 65.423 103.539,65.433 108.996,66.028 109.364 C 66.318 109.543,66.356 109.422,66.125 109.049 C 65.877 108.647,65.931 108.553,66.286 108.772 C 66.580 108.955,66.821 109.544,66.821 110.082 C 66.821 110.619,66.941 110.940,67.086 110.795 C 67.232 110.649,67.896 110.812,68.561 111.158 C 69.227 111.503,69.978 111.657,70.231 111.501 C 70.508 111.330,70.566 111.544,70.375 112.041 C 70.154 112.618,70.244 112.793,70.678 112.627 C 71.018 112.496,71.555 112.804,71.871 113.310 C 72.187 113.817,72.721 114.125,73.057 113.996 C 73.394 113.867,73.934 114.006,74.257 114.305 C 74.716 114.729,74.764 114.706,74.474 114.197 C 74.199 113.715,74.272 113.652,74.754 113.952 C 75.113 114.175,75.807 114.421,76.298 114.497 C 76.788 114.573,77.507 114.893,77.895 115.206 C 78.455 115.660,78.529 115.658,78.252 115.197 C 78.060 114.878,78.125 114.617,78.395 114.617 C 78.665 114.617,78.890 114.983,78.893 115.429 C 78.899 116.123,78.966 116.140,79.350 115.545 C 79.758 114.914,80.017 115.214,79.864 116.140 C 79.831 116.340,80.734 116.417,81.869 116.312 C 83.417 116.169,84.002 116.298,84.205 116.828 C 84.355 117.216,84.592 117.419,84.733 117.278 C 84.873 117.137,85.603 117.198,86.355 117.414 C 87.189 117.653,87.616 117.637,87.453 117.372 C 87.305 117.133,87.597 116.937,88.101 116.937 C 88.605 116.937,89.123 117.198,89.252 117.517 C 89.439 117.981,89.493 117.981,89.523 117.517 C 89.566 116.834,91.415 116.721,91.415 117.401 C 91.415 117.657,91.572 117.841,91.763 117.810 C 92.812 117.645,93.753 117.926,93.503 118.329 C 93.346 118.585,93.555 118.794,93.968 118.794 C 94.395 118.794,94.583 118.574,94.403 118.283 C 94.174 117.912,94.348 117.912,95.041 118.283 C 96.325 118.970,98.065 118.953,97.636 118.258 C 97.407 117.888,97.506 117.852,97.956 118.142 C 98.315 118.373,99.652 118.561,100.928 118.561 C 102.393 118.561,103.213 118.754,103.152 119.083 C 103.045 119.659,105.319 119.610,106.281 119.015 C 106.633 118.798,106.757 118.837,106.586 119.113 C 106.407 119.402,107.421 119.569,109.299 119.559 C 110.948 119.550,112.297 119.374,112.297 119.168 C 112.297 118.962,112.518 118.794,112.788 118.794 C 113.059 118.794,113.173 118.967,113.041 119.179 C 112.910 119.392,114.464 119.586,116.494 119.612 C 118.524 119.637,120.217 119.463,120.255 119.226 C 120.460 117.952,120.354 117.633,119.722 117.633 C 119.339 117.633,118.963 117.192,118.886 116.653 C 118.754 115.731,116.726 114.336,115.836 114.555 C 115.614 114.610,115.564 114.310,115.726 113.888 C 115.938 113.334,115.826 113.196,115.318 113.391 C 114.877 113.560,114.617 113.391,114.617 112.935 C 114.617 112.536,114.196 112.100,113.682 111.965 C 113.146 111.825,112.799 111.398,112.870 110.965 C 112.939 110.537,112.724 110.265,112.373 110.338 C 112.032 110.409,111.641 110.040,111.505 109.519 C 111.368 108.997,111.021 108.598,110.733 108.632 C 109.558 108.772,109.049 108.549,109.049 107.894 C 109.049 106.885,107.581 105.336,106.625 105.336 C 106.050 105.336,105.800 104.978,105.800 104.149 C 105.800 103.475,106.001 103.086,106.265 103.248 C 106.520 103.406,106.729 103.093,106.729 102.552 C 106.729 102.012,106.937 101.698,107.193 101.856 C 107.635 102.129,107.840 101.544,107.703 100.401 C 107.669 100.111,107.957 99.752,108.344 99.603 C 109.189 99.279,109.294 97.451,108.469 97.441 C 108.071 97.436,108.100 97.300,108.563 97.007 C 108.933 96.773,109.455 96.712,109.723 96.871 C 109.990 97.031,109.896 96.769,109.513 96.288 C 109.130 95.807,109.054 95.556,109.344 95.729 C 109.979 96.110,111.101 94.892,110.705 94.252 C 110.551 94.003,110.648 93.662,110.920 93.494 C 111.258 93.285,111.224 92.954,110.811 92.445 C 110.360 91.887,110.354 91.788,110.789 92.050 C 111.180 92.285,111.369 92.078,111.369 91.415 C 111.369 90.875,111.578 90.562,111.833 90.719 C 112.097 90.883,112.297 90.483,112.297 89.791 C 112.297 89.123,112.487 88.694,112.720 88.838 C 112.953 88.982,113.081 88.733,113.005 88.285 C 112.929 87.837,113.282 87.141,113.789 86.738 C 114.407 86.246,114.710 85.445,114.710 84.303 C 114.710 83.367,114.898 82.717,115.128 82.859 C 115.357 83.001,115.545 82.571,115.545 81.903 C 115.545 81.234,115.740 80.808,115.977 80.955 C 116.215 81.101,116.540 81.009,116.701 80.750 C 116.861 80.491,116.771 80.278,116.501 80.278 C 115.660 80.278,115.954 79.546,117.401 78.031 C 118.782 76.587,119.222 75.783,118.329 76.334 C 118.074 76.492,117.865 76.283,117.865 75.870 C 117.865 75.457,118.052 75.235,118.280 75.376 C 118.508 75.517,118.665 75.114,118.628 74.482 C 118.592 73.849,118.341 73.380,118.072 73.440 C 117.481 73.573,114.894 71.401,114.739 70.642 C 114.677 70.339,114.930 70.219,115.319 70.368 C 115.699 70.514,116.009 70.924,116.009 71.279 C 116.009 71.635,116.212 71.926,116.459 71.926 C 116.706 71.926,116.775 71.578,116.612 71.154 C 116.421 70.657,116.498 70.494,116.826 70.697 C 117.107 70.871,117.477 70.787,117.647 70.511 C 117.853 70.178,118.282 70.293,118.919 70.851 C 119.448 71.315,119.743 71.456,119.574 71.165 C 119.360 70.797,119.969 70.652,121.582 70.688 C 122.856 70.716,123.898 70.927,123.898 71.157 C 123.898 71.387,124.250 71.289,124.681 70.938 C 125.364 70.383,125.426 70.402,125.169 71.090 C 124.986 71.578,125.085 71.834,125.430 71.762 C 125.736 71.698,125.533 71.847,124.980 72.094 C 123.488 72.759,122.647 74.551,123.321 75.629 C 123.617 76.103,123.776 76.923,123.674 77.450 C 123.558 78.055,123.860 78.668,124.493 79.112 C 125.045 79.498,125.334 79.814,125.135 79.814 C 124.936 79.814,125.098 80.278,125.496 80.846 C 125.893 81.413,126.218 82.346,126.218 82.919 C 126.218 83.702,126.420 83.897,127.030 83.700 C 127.667 83.496,127.702 83.539,127.195 83.900 C 126.346 84.504,126.884 85.918,127.825 85.557 C 128.217 85.407,128.538 85.515,128.538 85.797 C 128.538 86.080,128.329 86.311,128.074 86.311 C 127.385 86.311,127.538 87.344,128.383 88.399 C 129.019 89.193,129.085 89.206,128.838 88.491 C 128.652 87.952,128.729 87.766,129.054 87.967 C 129.337 88.142,129.444 88.860,129.297 89.595 C 129.081 90.676,129.168 90.858,129.790 90.620 C 130.212 90.458,130.427 90.523,130.276 90.767 C 130.128 91.008,130.591 92.398,131.306 93.856 C 132.021 95.314,132.422 96.394,132.197 96.254 C 131.971 96.115,131.787 96.222,131.787 96.492 C 131.787 96.763,132.050 96.984,132.371 96.984 C 133.321 96.984,134.248 98.806,133.660 99.516 C 133.281 99.971,133.388 100.179,134.097 100.364 C 134.622 100.501,135.035 100.996,135.035 101.488 C 135.035 101.971,135.296 102.643,135.615 102.981 C 136.079 103.473,136.079 103.639,135.615 103.809 C 135.296 103.926,135.035 104.317,135.035 104.679 C 135.035 105.041,134.826 105.336,134.571 105.336 C 134.316 105.336,134.107 105.655,134.107 106.044 C 134.107 106.433,133.637 106.938,133.063 107.165 C 131.381 107.832,128.884 110.392,129.176 111.151 C 129.364 111.642,129.103 111.833,128.242 111.833 C 127.325 111.833,127.115 112.010,127.339 112.595 C 127.584 113.232,127.516 113.260,126.925 112.770 C 126.324 112.271,126.218 112.359,126.218 113.357 C 126.218 114.302,126.037 114.483,125.290 114.288 C 124.751 114.147,124.362 114.273,124.362 114.590 C 124.362 114.890,124.603 114.987,124.898 114.805 C 125.240 114.593,125.307 114.678,125.083 115.041 C 124.890 115.353,124.440 115.496,124.083 115.359 C 123.706 115.215,123.434 115.400,123.434 115.802 C 123.434 116.182,122.912 116.731,122.274 117.022 C 121.636 117.313,121.114 117.709,121.114 117.902 C 121.114 118.095,120.987 118.584,120.832 118.988 C 120.647 119.469,120.807 119.722,121.296 119.722 C 121.706 119.722,122.042 119.487,122.042 119.201 C 122.042 118.828,122.229 118.835,122.700 119.226 C 123.675 120.035,128.072 119.681,128.081 118.794 C 128.087 118.209,128.154 118.201,128.501 118.748 C 128.727 119.106,129.571 119.471,130.376 119.559 C 131.332 119.664,131.733 119.547,131.533 119.222 C 131.364 118.949,131.660 118.996,132.190 119.328 C 132.952 119.803,133.275 119.810,133.724 119.362 C 134.037 119.049,135.034 118.808,135.940 118.826 C 137.265 118.852,137.406 118.934,136.659 119.244 C 135.950 119.539,136.132 119.613,137.430 119.560 C 138.365 119.521,139.096 119.286,139.054 119.037 C 139.013 118.787,139.501 118.510,140.139 118.420 C 141.278 118.259,141.283 118.270,140.371 119.015 C 139.479 119.743,139.488 119.750,140.603 119.191 C 141.241 118.870,142.285 118.659,142.923 118.722 C 143.845 118.812,143.940 118.737,143.387 118.357 C 142.962 118.066,142.907 117.877,143.244 117.873 C 143.548 117.869,143.924 118.072,144.080 118.324 C 144.253 118.604,144.853 118.471,145.616 117.984 C 146.593 117.361,146.746 117.340,146.311 117.893 C 145.842 118.489,145.967 118.616,147.111 118.703 C 148.191 118.785,148.409 118.653,148.180 118.057 C 148.021 117.642,148.181 117.125,148.540 116.898 C 148.896 116.672,148.979 116.484,148.724 116.480 C 147.970 116.468,148.009 112.217,148.781 110.221 C 149.174 109.207,149.312 108.317,149.088 108.242 C 148.863 108.167,148.765 107.380,148.868 106.493 C 148.991 105.441,149.241 104.990,149.586 105.197 C 149.904 105.388,149.880 105.223,149.526 104.786 C 149.034 104.178,149.079 104.020,149.804 103.831 C 150.281 103.706,150.791 103.147,150.937 102.588 C 151.150 101.775,151.078 101.675,150.580 102.088 C 150.084 102.500,150.009 102.406,150.214 101.624 C 150.378 100.996,150.717 100.738,151.158 100.907 C 151.713 101.121,151.789 100.872,151.553 99.613 C 151.309 98.312,151.473 97.841,152.544 96.770 C 153.268 96.047,153.841 94.952,153.857 94.263 C 153.896 92.591,155.460 90.218,155.981 91.040 C 156.252 91.467,156.368 91.337,156.373 90.603 C 156.377 90.029,156.594 89.559,156.856 89.559 C 157.118 89.559,157.530 89.037,157.773 88.399 C 158.015 87.761,158.532 87.239,158.921 87.239 C 159.367 87.239,159.629 86.809,159.629 86.079 C 159.629 85.357,159.892 84.919,160.325 84.919 C 160.708 84.919,161.021 84.593,161.021 84.195 C 161.021 83.797,161.230 83.601,161.485 83.759 C 161.740 83.916,161.952 83.668,161.956 83.206 C 161.961 82.569,162.058 82.516,162.356 82.986 C 162.666 83.476,162.812 83.438,163.055 82.803 C 163.404 81.895,163.456 81.977,162.070 81.256 C 161.499 80.959,160.905 80.211,160.750 79.593 C 160.595 78.976,159.974 78.147,159.369 77.751 C 158.039 76.879,157.612 76.834,158.032 77.610 C 158.204 77.929,157.830 77.620,157.200 76.922 C 156.570 76.225,155.919 75.790,155.754 75.956 C 155.588 76.121,155.452 75.921,155.452 75.510 C 155.452 75.030,155.142 74.823,154.582 74.931 C 153.997 75.044,153.731 74.845,153.770 74.324 C 153.807 73.834,153.410 73.491,152.686 73.389 C 152.058 73.300,151.307 72.903,151.017 72.506 C 150.726 72.109,150.247 71.934,149.951 72.116 C 149.648 72.303,149.287 72.120,149.125 71.696 C 148.966 71.283,148.539 71.058,148.176 71.198 C 147.810 71.338,147.642 71.246,147.799 70.992 C 147.955 70.740,147.861 70.508,147.591 70.476 C 147.321 70.444,146.891 70.365,146.636 70.302 C 146.381 70.238,145.806 70.156,145.360 70.121 C 144.732 70.070,144.688 69.966,145.167 69.663 C 145.639 69.364,145.560 69.211,144.835 69.021 C 144.311 68.885,143.928 68.908,143.983 69.073 C 144.038 69.238,143.875 69.412,143.619 69.459 C 143.364 69.506,143.217 69.245,143.292 68.879 C 143.367 68.513,143.158 68.189,142.828 68.160 C 142.498 68.130,142.019 68.058,141.763 67.999 C 141.508 67.939,140.713 67.859,139.996 67.820 C 139.087 67.771,138.798 67.574,139.041 67.169 C 139.316 66.711,139.243 66.708,138.693 67.153 C 138.130 67.608,137.846 67.540,137.212 66.799 C 136.359 65.803,136.177 65.220,136.848 65.635 C 137.079 65.778,137.151 65.444,137.007 64.893 C 136.836 64.239,136.920 64.000,137.250 64.204 C 137.528 64.376,137.888 64.301,138.051 64.037 C 138.214 63.774,138.531 63.672,138.756 63.811 C 139.245 64.113,140.234 62.430,139.814 62.010 C 139.652 61.849,140.055 61.717,140.708 61.717 C 142.028 61.717,142.844 60.391,141.895 59.789 C 141.472 59.521,141.569 59.407,142.227 59.396 C 143.145 59.381,145.250 57.550,145.237 56.779 C 145.233 56.560,145.013 56.694,144.748 57.077 C 144.351 57.649,144.296 57.607,144.434 56.845 C 144.527 56.334,144.838 55.964,145.127 56.023 C 145.419 56.082,145.573 55.723,145.474 55.211 C 145.364 54.638,145.549 54.292,145.966 54.292 C 146.334 54.292,146.639 53.927,146.643 53.480 C 146.649 52.779,146.718 52.763,147.147 53.364 C 147.549 53.927,147.602 53.865,147.422 53.043 C 147.284 52.408,147.537 51.720,148.095 51.216 C 148.586 50.771,148.883 50.132,148.755 49.797 C 148.626 49.462,148.765 49.188,149.063 49.188 C 149.473 49.188,149.475 49.057,149.070 48.653 C 148.402 47.984,149.218 46.224,149.979 46.694 C 150.288 46.886,150.360 46.799,150.160 46.475 C 149.978 46.181,150.063 45.940,150.348 45.940 C 150.633 45.940,150.761 45.768,150.631 45.558 C 150.502 45.349,150.695 44.599,151.062 43.893 C 151.564 42.924,151.604 42.376,151.224 41.666 C 150.858 40.982,150.860 40.810,151.230 41.039 C 151.521 41.218,151.740 41.031,151.740 40.603 C 151.740 40.190,151.576 39.954,151.376 40.078 C 151.175 40.202,151.011 39.916,151.011 39.443 C 151.011 38.970,151.182 38.689,151.391 38.818 C 151.601 38.948,151.674 38.515,151.555 37.856 C 151.422 37.123,151.551 36.656,151.887 36.652 C 152.302 36.646,152.299 36.558,151.877 36.289 C 151.569 36.094,151.384 35.316,151.464 34.560 C 151.554 33.715,151.323 32.949,150.863 32.568 C 150.452 32.228,150.363 32.073,150.664 32.224 C 151.569 32.676,151.885 31.556,151.099 30.687 C 150.696 30.242,150.454 29.424,150.561 28.870 C 150.679 28.259,150.538 27.903,150.204 27.968 C 149.876 28.031,149.693 27.603,149.752 26.914 C 149.897 25.233,149.482 23.666,148.890 23.666 C 148.546 23.666,148.568 23.894,148.956 24.362 C 149.274 24.745,149.351 25.055,149.129 25.052 C 148.579 25.044,146.502 21.789,146.835 21.456 C 146.980 21.310,147.100 21.428,147.100 21.718 C 147.100 22.008,147.406 22.127,147.780 21.984 C 148.298 21.785,148.133 21.448,147.082 20.564 C 146.325 19.926,145.798 19.255,145.911 19.072 C 146.024 18.890,145.611 18.360,144.993 17.896 C 144.375 17.432,144.002 16.838,144.164 16.575 C 144.336 16.297,144.231 16.239,143.914 16.435 C 143.586 16.637,142.500 15.879,141.193 14.534 C 139.995 13.304,139.177 12.558,139.373 12.877 C 139.572 13.201,139.513 13.457,139.239 13.457 C 138.759 13.457,138.543 12.765,138.731 11.833 C 138.782 11.578,138.671 11.522,138.484 11.710 C 138.296 11.897,137.861 11.688,137.516 11.246 C 136.923 10.485,136.904 10.486,137.175 11.262 C 137.449 12.047,137.398 12.047,136.019 11.262 C 135.226 10.810,134.575 10.198,134.574 9.902 C 134.572 9.602,134.054 9.419,133.411 9.490 C 132.773 9.560,132.251 9.437,132.251 9.217 C 132.251 8.997,131.572 8.814,130.742 8.810 C 129.913 8.806,128.921 8.600,128.538 8.353 C 127.983 7.994,128.069 7.901,128.964 7.896 C 130.514 7.886,130.044 7.609,127.917 7.281 C 126.569 7.072,126.192 7.152,126.367 7.607 C 126.528 8.027,126.263 8.144,125.485 7.995 C 124.873 7.878,124.487 7.598,124.627 7.372 C 124.766 7.145,124.543 6.961,124.130 6.961 C 123.653 6.961,123.506 7.172,123.728 7.541 C 123.991 7.979,123.896 7.975,123.336 7.521 C 122.731 7.031,122.552 7.031,122.356 7.521 C 122.171 7.980,122.106 7.984,122.078 7.541 C 122.058 7.222,121.561 6.961,120.974 6.961 C 120.387 6.961,119.626 7.222,119.282 7.541 C 118.939 7.860,118.784 7.893,118.940 7.614 C 119.124 7.283,118.504 7.096,117.152 7.076 C 115.876 7.056,115.078 7.251,115.074 7.583 C 115.070 7.930,114.946 7.954,114.726 7.650 C 114.539 7.391,113.915 7.249,113.341 7.334 M272.658 7.484 C 272.774 7.671,272.657 7.956,272.397 8.116 C 272.138 8.276,271.926 8.186,271.926 7.916 C 271.926 7.646,271.695 7.425,271.412 7.425 C 271.130 7.425,271.019 7.738,271.165 8.121 C 271.312 8.503,271.230 8.817,270.983 8.817 C 270.736 8.817,270.534 8.606,270.534 8.349 C 270.534 7.853,268.747 8.692,268.054 9.513 C 267.826 9.783,267.771 9.637,267.923 9.165 C 268.095 8.632,267.941 8.353,267.475 8.353 C 267.086 8.353,266.896 8.561,267.053 8.817 C 267.211 9.072,267.002 9.281,266.589 9.281 C 266.176 9.281,265.968 9.490,266.125 9.745 C 266.283 10.000,266.074 10.209,265.661 10.209 C 265.212 10.209,265.043 9.994,265.242 9.673 C 265.453 9.331,265.368 9.264,265.008 9.486 C 264.698 9.678,264.250 10.345,264.013 10.969 C 263.656 11.907,263.429 12.021,262.695 11.628 C 261.939 11.223,261.844 11.289,262.049 12.073 C 262.339 13.182,262.031 13.241,261.054 12.264 C 260.493 11.703,260.325 11.679,260.325 12.161 C 260.325 12.882,258.670 14.432,258.298 14.060 C 258.161 13.923,257.726 14.134,257.331 14.529 C 256.496 15.363,256.373 15.980,257.135 15.509 C 257.515 15.274,257.525 15.423,257.174 16.050 C 256.908 16.525,256.203 16.919,255.608 16.926 C 254.820 16.934,254.546 17.184,254.604 17.841 C 254.680 18.700,253.435 20.052,252.882 19.710 C 252.739 19.622,252.338 20.006,251.990 20.564 C 251.412 21.493,251.424 21.524,252.140 20.932 C 252.818 20.372,252.885 20.382,252.643 21.012 C 252.490 21.411,252.054 21.857,251.675 22.003 C 251.296 22.148,251.102 22.456,251.244 22.686 C 251.386 22.916,251.161 23.236,250.743 23.396 C 250.325 23.557,250.109 23.814,250.263 23.968 C 250.417 24.122,250.223 24.866,249.832 25.623 C 249.441 26.379,249.231 27.286,249.366 27.637 C 249.501 27.989,249.430 28.389,249.207 28.526 C 248.985 28.664,248.702 28.514,248.579 28.193 C 248.455 27.873,248.377 28.066,248.403 28.622 C 248.431 29.191,248.664 29.508,248.936 29.345 C 249.269 29.146,249.272 29.265,248.946 29.725 C 248.685 30.093,248.476 31.177,248.482 32.134 C 248.487 33.091,248.372 33.874,248.225 33.875 C 247.765 33.875,247.822 39.405,248.286 39.691 C 248.560 39.861,248.563 40.268,248.293 40.772 C 248.055 41.219,248.035 41.863,248.249 42.210 C 248.463 42.556,248.517 43.153,248.370 43.538 C 248.196 43.992,248.292 44.119,248.645 43.900 C 249.228 43.540,249.340 43.991,249.196 46.119 C 249.146 46.855,249.343 47.605,249.634 47.784 C 249.925 47.964,250.196 48.562,250.238 49.114 C 250.280 49.665,250.671 50.230,251.108 50.368 C 251.661 50.544,251.840 50.969,251.696 51.766 C 251.535 52.651,251.757 53.034,252.676 53.452 C 253.356 53.762,253.763 54.256,253.629 54.607 C 253.499 54.944,253.618 55.220,253.893 55.220 C 254.167 55.220,254.271 55.534,254.125 55.916 C 253.943 56.390,254.150 56.613,254.771 56.613 C 255.334 56.613,255.682 56.924,255.677 57.425 C 255.671 58.125,255.603 58.141,255.178 57.541 C 254.756 56.945,254.712 56.943,254.871 57.528 C 254.974 57.904,255.564 58.353,256.183 58.526 C 256.802 58.699,257.137 58.861,256.927 58.886 C 256.718 58.912,256.890 59.276,257.310 59.696 C 257.926 60.313,257.955 60.535,257.459 60.849 C 257.105 61.074,257.061 61.242,257.357 61.246 C 258.064 61.256,260.325 63.407,260.325 64.069 C 260.325 64.397,260.725 64.505,261.345 64.343 C 261.906 64.196,262.637 64.302,262.969 64.577 C 263.674 65.163,263.793 66.084,263.109 65.661 C 262.854 65.504,262.645 65.593,262.645 65.860 C 262.645 66.128,263.092 66.297,263.638 66.236 C 264.184 66.175,264.706 66.334,264.799 66.589 C 264.898 66.865,264.024 67.024,262.646 66.982 C 261.096 66.935,260.428 67.076,260.633 67.409 C 260.828 67.723,260.656 67.798,260.169 67.611 C 259.744 67.448,259.397 67.539,259.397 67.814 C 259.397 68.088,259.097 68.198,258.731 68.057 C 258.364 67.917,257.963 68.051,257.839 68.356 C 257.676 68.757,257.604 68.745,257.577 68.313 C 257.549 67.859,257.317 67.837,256.600 68.220 C 256.082 68.497,255.801 68.955,255.976 69.237 C 256.194 69.591,255.846 69.661,254.854 69.463 C 253.687 69.229,253.362 69.347,253.127 70.086 C 252.968 70.588,252.434 70.998,251.941 70.998 C 251.448 70.998,251.044 71.229,251.044 71.511 C 251.044 71.794,250.748 71.911,250.386 71.773 C 250.025 71.634,249.610 71.830,249.465 72.209 C 249.319 72.588,248.937 72.855,248.614 72.804 C 248.292 72.752,247.506 72.938,246.868 73.216 C 245.852 73.660,246.237 74.042,247.482 73.825 C 247.693 73.789,247.754 73.938,247.619 74.157 C 247.483 74.376,246.762 74.466,246.015 74.356 C 245.268 74.246,244.517 74.383,244.346 74.660 C 244.151 74.976,244.347 75.076,244.871 74.930 C 245.331 74.801,245.128 74.973,244.421 75.311 C 243.713 75.649,243.244 76.036,243.378 76.170 C 243.513 76.305,243.087 76.660,242.432 76.958 C 241.489 77.388,241.298 77.379,241.519 76.918 C 241.672 76.597,241.529 76.717,241.201 77.185 C 240.166 78.659,239.060 79.877,238.782 79.845 C 238.635 79.828,238.411 79.840,238.283 79.872 C 238.155 79.904,237.842 79.983,237.587 80.046 C 237.332 80.110,236.993 80.189,236.834 80.220 C 236.675 80.252,236.768 80.546,237.040 80.874 C 237.330 81.224,237.370 81.734,237.137 82.112 C 236.678 82.855,237.916 85.057,238.566 84.655 C 238.793 84.515,238.979 84.700,238.979 85.067 C 238.979 85.433,239.332 86.020,239.764 86.370 C 240.441 86.919,240.494 86.911,240.149 86.311 C 239.883 85.851,240.077 85.904,240.721 86.468 C 241.260 86.940,241.618 87.716,241.523 88.208 C 241.429 88.696,241.516 89.095,241.716 89.095 C 241.915 89.095,242.316 89.617,242.607 90.255 C 242.936 90.978,243.518 91.415,244.151 91.415 C 244.709 91.415,245.029 91.553,244.861 91.721 C 244.693 91.889,244.815 92.346,245.132 92.738 C 245.591 93.306,245.590 93.379,245.128 93.101 C 244.805 92.907,244.548 92.977,244.548 93.259 C 244.548 93.537,244.873 93.889,245.270 94.042 C 245.668 94.194,245.883 94.606,245.749 94.955 C 245.615 95.305,245.684 95.592,245.904 95.592 C 246.123 95.592,246.436 96.122,246.599 96.771 C 246.762 97.419,247.098 97.825,247.345 97.671 C 247.593 97.518,247.796 97.597,247.796 97.846 C 247.796 98.095,247.535 98.404,247.216 98.533 C 246.852 98.679,246.922 98.780,247.404 98.803 C 247.954 98.829,248.108 99.137,247.944 99.884 C 247.759 100.727,247.812 100.794,248.219 100.232 C 248.601 99.703,248.650 99.916,248.419 101.116 C 248.207 102.216,248.271 102.600,248.628 102.379 C 248.910 102.205,249.361 102.473,249.630 102.975 C 249.954 103.581,249.962 103.985,249.653 104.176 C 249.397 104.334,249.188 104.776,249.188 105.159 C 249.188 105.542,249.397 105.726,249.652 105.568 C 249.923 105.401,250.116 105.873,250.116 106.701 C 250.116 107.482,250.273 108.121,250.465 108.121 C 250.657 108.121,250.825 109.321,250.839 110.789 C 250.883 115.411,251.258 117.003,252.454 117.643 C 253.473 118.189,253.486 118.242,252.642 118.456 C 251.826 118.664,251.835 118.691,252.746 118.740 C 253.299 118.769,253.873 118.532,254.022 118.213 C 254.238 117.749,254.346 117.749,254.563 118.213 C 254.885 118.903,256.148 118.995,256.148 118.329 C 256.148 118.074,256.462 117.865,256.845 117.865 C 257.227 117.865,257.541 118.087,257.541 118.357 C 257.541 118.627,257.735 118.728,257.973 118.581 C 258.210 118.434,258.527 118.513,258.677 118.755 C 258.827 118.998,259.677 119.078,260.565 118.934 C 261.454 118.790,262.181 118.864,262.181 119.099 C 262.181 119.623,268.683 119.636,269.490 119.114 C 269.809 118.908,270.070 118.908,270.071 119.114 C 270.071 119.321,271.956 119.529,274.259 119.576 L 278.446 119.663 278.283 118.444 C 278.193 117.774,277.736 117.005,277.268 116.734 C 276.799 116.463,276.063 115.928,275.632 115.545 C 275.202 115.162,274.392 114.478,273.832 114.025 C 273.272 113.571,272.938 112.999,273.090 112.754 C 273.244 112.506,273.049 112.429,272.652 112.581 C 272.172 112.766,271.789 112.463,271.483 111.657 C 271.191 110.888,270.786 110.551,270.353 110.717 C 269.916 110.885,269.626 110.632,269.526 109.994 C 269.442 109.454,269.209 109.028,269.009 109.047 C 268.500 109.096,267.527 108.051,267.147 107.047 C 266.971 106.584,266.667 106.305,266.471 106.426 C 266.274 106.548,265.594 106.360,264.959 106.008 C 264.325 105.657,264.073 105.362,264.401 105.353 C 264.876 105.340,264.884 105.123,264.439 104.292 C 263.776 103.053,263.780 103.001,264.578 102.495 C 264.973 102.244,265.003 102.100,264.661 102.095 C 264.257 102.090,264.255 101.811,264.653 100.968 C 264.944 100.351,265.318 99.931,265.485 100.035 C 265.652 100.138,266.073 99.871,266.421 99.442 C 266.965 98.771,266.956 98.716,266.357 99.051 C 265.791 99.367,265.770 99.323,266.241 98.815 C 266.560 98.471,266.821 97.808,266.821 97.340 C 266.821 96.873,267.135 96.370,267.517 96.223 C 267.919 96.070,268.213 95.376,268.213 94.587 C 268.213 93.687,268.393 93.328,268.738 93.541 C 269.056 93.738,269.177 93.612,269.045 93.220 C 268.926 92.865,269.160 92.299,269.565 91.961 C 269.970 91.623,270.041 91.479,269.722 91.640 C 269.403 91.802,269.142 91.713,269.142 91.443 C 269.142 91.172,269.363 90.951,269.633 90.951 C 269.903 90.951,269.988 90.731,269.822 90.463 C 269.656 90.194,270.003 89.556,270.592 89.044 C 271.491 88.265,271.554 88.045,270.983 87.684 C 270.520 87.392,270.488 87.251,270.882 87.246 C 271.201 87.242,271.462 86.717,271.462 86.079 C 271.462 85.252,271.713 84.919,272.336 84.919 C 273.244 84.919,274.001 83.253,273.292 82.815 C 272.860 82.548,273.658 80.409,274.533 79.488 C 274.825 79.182,275.193 79.060,275.351 79.218 C 275.509 79.376,275.638 79.261,275.638 78.964 C 275.638 78.666,275.429 78.422,275.174 78.422 C 274.919 78.422,274.710 78.201,274.710 77.931 C 274.710 77.661,274.895 77.554,275.121 77.694 C 275.348 77.834,275.818 77.597,276.166 77.168 C 276.601 76.632,276.617 76.497,276.218 76.736 C 275.524 77.154,275.527 77.181,276.072 75.278 C 276.342 74.338,276.342 73.866,276.072 74.032 C 275.833 74.180,275.638 73.848,275.638 73.296 C 275.638 72.536,275.443 72.365,274.840 72.597 C 274.401 72.765,274.193 72.752,274.377 72.568 C 274.561 72.384,274.385 71.871,273.985 71.429 C 273.541 70.939,273.438 70.514,273.720 70.340 C 273.974 70.183,274.313 70.267,274.474 70.528 C 274.635 70.788,275.253 70.879,275.848 70.730 C 276.442 70.581,277.068 70.684,277.239 70.960 C 277.409 71.236,277.862 71.462,278.245 71.462 C 278.628 71.462,278.819 71.264,278.669 71.022 C 278.384 70.560,279.430 70.674,280.935 71.269 C 281.609 71.535,281.730 71.470,281.439 70.998 C 281.158 70.543,281.262 70.456,281.826 70.672 C 282.331 70.866,282.599 70.732,282.599 70.287 C 282.599 69.912,282.767 69.606,282.972 69.606 C 283.795 69.606,283.244 72.199,282.251 73.004 C 281.676 73.469,281.206 74.252,281.206 74.744 C 281.206 75.236,280.945 75.639,280.626 75.641 C 280.307 75.643,280.673 76.059,281.439 76.566 C 282.204 77.073,282.648 77.489,282.426 77.491 C 282.203 77.493,282.281 77.807,282.599 78.190 C 282.998 78.671,283.015 78.886,282.655 78.886 C 282.369 78.886,282.135 79.107,282.135 79.378 C 282.135 79.648,282.341 79.742,282.593 79.586 C 282.856 79.423,282.934 79.609,282.776 80.022 C 282.448 80.875,283.329 81.006,283.715 80.162 C 283.860 79.843,283.861 80.261,283.716 81.090 C 283.504 82.306,283.589 82.546,284.152 82.329 C 284.677 82.128,284.788 82.302,284.599 83.026 C 284.450 83.594,284.568 83.991,284.885 83.991 C 285.181 83.991,285.390 84.252,285.348 84.571 C 285.193 85.766,285.395 86.822,285.738 86.610 C 285.934 86.489,286.332 86.895,286.623 87.511 C 286.914 88.128,286.963 88.515,286.732 88.372 C 286.500 88.229,286.311 88.333,286.311 88.604 C 286.311 88.874,286.555 89.095,286.852 89.095 C 287.150 89.095,287.267 89.222,287.112 89.377 C 286.957 89.531,287.221 90.076,287.697 90.588 C 288.173 91.099,288.449 91.815,288.309 92.180 C 288.169 92.544,288.445 93.288,288.923 93.833 C 289.524 94.518,289.577 94.720,289.095 94.490 C 288.712 94.307,288.869 94.505,289.443 94.931 C 290.017 95.356,290.484 95.940,290.480 96.228 C 290.476 96.516,290.271 96.439,290.023 96.056 C 289.776 95.673,289.573 95.568,289.573 95.824 C 289.573 96.455,290.467 97.799,290.498 97.216 C 290.512 96.961,290.828 97.452,291.199 98.308 C 291.571 99.164,291.751 100.065,291.599 100.311 C 291.447 100.557,291.709 101.073,292.181 101.457 C 292.653 101.842,292.778 102.025,292.459 101.863 C 291.568 101.411,291.770 101.950,292.880 102.985 C 293.762 103.806,293.791 103.952,293.121 104.209 C 292.562 104.424,292.474 104.714,292.791 105.305 C 293.104 105.891,293.044 106.110,292.571 106.110 C 292.213 106.110,292.055 105.884,292.221 105.607 C 292.386 105.331,292.171 105.389,291.742 105.737 C 291.313 106.085,291.096 106.587,291.260 106.853 C 291.437 107.140,291.333 107.196,291.003 106.992 C 290.477 106.668,287.728 109.270,287.710 110.108 C 287.697 110.780,284.870 113.250,284.428 112.976 C 284.187 112.828,283.991 113.032,283.991 113.430 C 283.991 113.828,283.834 114.128,283.643 114.098 C 282.700 113.949,282.221 114.236,282.000 115.082 C 281.866 115.593,281.946 115.894,282.178 115.751 C 282.409 115.607,282.599 115.686,282.599 115.926 C 282.599 116.314,280.058 117.614,279.273 117.628 C 279.103 117.631,278.790 117.824,278.577 118.056 C 278.355 118.298,278.419 118.347,278.727 118.171 C 279.086 117.966,279.182 118.178,279.017 118.808 C 278.776 119.728,278.921 119.747,284.745 119.565 C 290.113 119.397,291.603 119.190,293.002 118.414 C 293.237 118.284,293.302 118.507,293.148 118.911 C 292.850 119.688,294.755 119.829,295.909 119.116 C 296.210 118.930,296.594 119.003,296.764 119.278 C 296.963 119.599,297.299 119.478,297.710 118.937 C 298.060 118.475,298.353 118.344,298.361 118.645 C 298.371 119.020,298.779 119.079,299.652 118.833 C 300.354 118.634,301.178 118.558,301.482 118.663 C 301.787 118.768,302.449 118.633,302.953 118.363 C 303.630 118.001,303.930 118.024,304.102 118.449 C 304.272 118.870,304.345 118.854,304.372 118.389 C 304.401 117.872,304.541 117.862,305.113 118.337 C 305.685 118.812,305.969 118.790,306.621 118.222 C 307.063 117.837,307.710 117.625,308.058 117.751 C 308.407 117.876,308.824 117.776,308.986 117.528 C 309.330 117.001,313.225 116.408,313.225 116.883 C 313.225 117.059,313.692 117.239,314.263 117.282 C 314.988 117.337,315.113 117.244,314.678 116.975 C 314.275 116.726,314.225 116.484,314.536 116.292 C 314.800 116.128,315.155 116.217,315.322 116.488 C 315.531 116.826,315.863 116.792,316.372 116.380 C 317.000 115.871,317.052 115.885,316.705 116.473 C 316.350 117.077,316.401 117.083,317.092 116.523 C 317.530 116.168,318.020 116.009,318.182 116.171 C 318.344 116.333,318.756 116.233,319.099 115.948 C 319.568 115.559,319.723 115.588,319.729 116.068 C 319.733 116.483,319.855 116.531,320.077 116.207 C 320.443 115.673,321.954 114.924,322.778 114.868 C 323.056 114.850,323.647 114.470,324.092 114.025 C 324.869 113.248,326.024 113.342,325.529 114.142 C 325.397 114.356,325.710 114.420,326.225 114.286 C 326.739 114.151,327.294 113.825,327.457 113.561 C 327.641 113.264,327.523 113.224,327.146 113.457 C 326.753 113.700,326.651 113.651,326.857 113.317 C 327.033 113.034,327.443 112.904,327.770 113.030 C 328.097 113.155,328.654 112.716,329.008 112.054 C 329.514 111.110,329.890 110.911,330.758 111.128 C 331.465 111.306,331.757 111.232,331.566 110.923 C 331.399 110.653,331.661 110.441,332.162 110.441 C 333.171 110.441,333.504 109.180,333.952 103.659 C 334.130 101.467,334.047 100.250,333.705 100.038 C 333.368 99.830,333.295 99.995,333.495 100.516 C 333.709 101.074,333.630 101.207,333.230 100.960 C 332.870 100.737,332.769 100.114,332.956 99.263 C 333.256 97.895,332.264 96.217,331.552 96.890 C 331.362 97.069,331.351 96.748,331.527 96.177 C 331.834 95.177,330.819 93.039,330.037 93.039 C 329.851 93.039,329.758 92.570,329.832 91.995 C 329.920 91.307,329.722 90.951,329.252 90.951 C 328.859 90.951,328.590 90.695,328.654 90.382 C 328.718 90.069,328.281 89.739,327.682 89.648 C 326.870 89.525,326.653 89.257,326.827 88.593 C 326.955 88.104,326.835 87.703,326.561 87.703 C 326.287 87.703,326.190 87.576,326.345 87.422 C 326.665 87.101,325.013 85.338,323.650 84.548 C 323.148 84.257,323.011 84.013,323.345 84.005 C 324.227 83.984,323.522 83.063,322.624 83.063 C 321.475 83.063,319.745 81.229,320.061 80.345 C 320.211 79.926,320.168 79.732,319.967 79.914 C 319.436 80.393,317.865 79.439,317.865 78.638 C 317.865 78.264,317.644 77.958,317.374 77.958 C 317.104 77.958,317.032 78.199,317.214 78.494 C 317.425 78.837,317.340 78.903,316.977 78.679 C 316.665 78.486,316.518 78.046,316.651 77.702 C 316.795 77.325,316.317 76.788,315.451 76.357 C 313.873 75.570,312.575 75.382,313.689 76.102 C 314.072 76.349,314.176 76.548,313.921 76.544 C 312.980 76.529,311.742 75.233,312.087 74.625 C 312.361 74.141,312.306 74.131,311.824 74.578 C 311.214 75.143,309.049 73.438,309.049 72.393 C 309.049 72.166,308.808 71.832,308.513 71.649 C 308.161 71.432,308.093 71.542,308.315 71.970 C 308.501 72.329,308.354 72.256,307.988 71.810 C 307.283 70.949,306.475 70.676,306.961 71.462 C 307.118 71.717,307.026 71.926,306.756 71.926 C 306.486 71.926,306.265 71.717,306.265 71.462 C 306.265 71.206,306.027 70.998,305.736 70.998 C 305.445 70.998,304.906 70.632,304.538 70.186 C 303.911 69.425,303.886 69.432,304.140 70.302 C 304.407 71.216,304.400 71.216,303.713 70.329 C 303.278 69.766,303.016 69.659,303.016 70.043 C 303.016 70.382,302.578 70.101,302.042 69.420 C 301.349 68.540,300.803 68.264,300.158 68.469 C 299.545 68.664,298.957 68.420,298.349 67.718 C 297.853 67.147,297.448 66.920,297.448 67.214 C 297.448 67.509,297.135 67.749,296.752 67.749 C 296.369 67.749,296.056 67.547,296.056 67.300 C 296.056 67.053,295.752 66.967,295.382 67.109 C 295.011 67.251,294.498 67.238,294.242 67.080 C 293.551 66.653,294.187 65.404,295.306 64.990 C 295.843 64.791,296.284 64.235,296.285 63.753 C 296.287 63.204,296.591 62.901,297.100 62.941 C 297.546 62.977,297.912 62.722,297.912 62.376 C 297.912 62.030,298.182 61.850,298.513 61.977 C 299.280 62.271,301.294 59.989,300.871 59.305 C 300.690 59.011,300.762 58.919,301.040 59.090 C 301.502 59.376,302.319 58.165,302.162 57.425 C 302.121 57.233,302.454 57.062,302.900 57.044 C 303.629 57.015,303.623 56.976,302.843 56.670 C 302.025 56.348,302.020 56.283,302.765 55.538 C 303.199 55.103,303.783 54.888,304.061 55.060 C 304.383 55.260,304.459 55.093,304.270 54.600 C 304.076 54.096,304.210 53.828,304.655 53.828 C 305.030 53.828,305.312 53.672,305.281 53.480 C 305.114 52.419,305.409 51.034,305.916 50.497 C 306.235 50.160,306.517 49.623,306.543 49.304 C 306.661 47.829,306.826 47.632,307.224 48.492 C 307.551 49.197,307.590 49.057,307.387 47.912 C 307.221 46.976,307.309 46.404,307.620 46.404 C 307.895 46.404,308.121 45.869,308.121 45.216 C 308.121 44.390,308.297 44.135,308.701 44.377 C 309.136 44.638,309.130 44.539,308.678 43.982 C 308.273 43.482,308.235 43.140,308.562 42.937 C 308.830 42.772,309.049 42.169,309.049 41.597 C 309.049 41.025,309.310 40.276,309.629 39.932 C 310.093 39.432,310.093 39.372,309.629 39.634 C 309.244 39.852,309.049 39.631,309.049 38.979 C 309.049 38.439,309.258 38.125,309.513 38.283 C 310.186 38.699,310.085 36.497,309.397 35.756 C 308.933 35.256,308.933 35.196,309.397 35.458 C 309.781 35.675,309.977 35.454,309.977 34.803 C 309.977 34.262,309.768 33.949,309.513 34.107 C 309.232 34.280,309.049 33.645,309.049 32.504 C 309.049 30.674,308.379 28.899,307.425 28.197 C 307.163 28.005,307.314 27.853,307.773 27.849 C 308.237 27.845,308.582 27.494,308.578 27.030 C 308.571 26.335,308.505 26.318,308.114 26.914 C 307.732 27.495,307.610 27.439,307.372 26.571 C 307.215 26.000,306.904 25.645,306.681 25.783 C 306.458 25.921,306.399 25.711,306.550 25.317 C 306.702 24.922,307.013 24.715,307.241 24.856 C 307.470 24.997,307.657 24.906,307.657 24.653 C 307.657 24.400,307.291 24.076,306.843 23.934 C 306.396 23.792,305.754 23.234,305.417 22.694 C 304.909 21.880,304.909 21.767,305.418 22.029 C 305.756 22.202,305.540 21.911,304.937 21.381 C 303.991 20.549,303.955 20.418,304.678 20.418 C 305.455 20.418,305.451 20.372,304.618 19.763 C 304.126 19.403,303.531 19.226,303.298 19.370 C 303.064 19.515,303.008 19.414,303.174 19.146 C 303.339 18.878,303.163 18.539,302.782 18.393 C 302.400 18.246,302.105 17.859,302.125 17.532 C 302.153 17.066,302.212 17.063,302.395 17.517 C 302.524 17.836,302.853 18.097,303.127 18.097 C 303.400 18.097,303.247 17.681,302.786 17.171 C 302.098 16.411,301.819 16.349,301.235 16.823 C 300.636 17.309,300.571 17.272,300.827 16.589 C 300.994 16.143,300.943 15.777,300.713 15.777 C 300.483 15.777,300.165 15.370,300.008 14.873 C 299.818 14.276,299.466 14.066,298.972 14.256 C 298.445 14.458,298.332 14.368,298.590 13.950 C 298.856 13.519,298.710 13.436,298.051 13.645 C 297.393 13.854,296.979 13.619,296.531 12.782 C 296.193 12.150,295.703 11.764,295.443 11.925 C 295.159 12.100,295.086 11.915,295.260 11.461 C 295.503 10.828,295.314 10.752,294.107 10.993 C 293.207 11.173,292.770 11.109,292.946 10.824 C 293.102 10.572,292.517 10.086,291.647 9.745 C 290.777 9.403,290.173 8.950,290.304 8.738 C 290.435 8.526,290.204 8.353,289.791 8.353 C 289.378 8.353,289.166 8.555,289.319 8.803 C 289.472 9.050,288.731 8.947,287.672 8.574 C 286.614 8.200,285.578 8.000,285.371 8.128 C 285.163 8.256,284.716 8.091,284.376 7.760 C 283.568 6.974,281.527 6.811,281.982 7.569 C 282.218 7.962,282.108 7.955,281.600 7.544 C 280.831 6.922,272.275 6.864,272.658 7.484 M92.343 49.447 C 92.343 50.100,92.533 50.518,92.764 50.375 C 92.995 50.232,93.075 49.698,92.942 49.187 C 92.608 47.911,92.343 48.026,92.343 49.447 M127.958 69.925 C 127.512 70.042,127.146 70.296,127.146 70.490 C 127.146 70.684,126.833 70.843,126.450 70.843 C 126.067 70.843,125.754 70.684,125.754 70.490 C 125.754 70.111,126.942 69.713,128.074 69.713 C 128.524 69.713,128.483 69.788,127.958 69.925 M285.116 70.474 C 284.625 70.951,284.141 71.270,284.041 71.181 C 283.748 70.922,284.985 69.606,285.521 69.606 C 285.789 69.606,285.607 69.996,285.116 70.474 M196.076 78.055 C 195.066 78.271,193.969 78.344,193.639 78.218 C 193.309 78.091,193.039 78.190,193.039 78.437 C 193.039 78.684,192.664 78.886,192.204 78.886 C 191.745 78.886,191.076 79.147,190.718 79.466 C 190.169 79.956,190.159 79.926,190.652 79.271 C 191.159 78.598,191.109 78.529,190.275 78.747 C 189.746 78.885,189.199 79.182,189.061 79.406 C 188.922 79.631,188.420 79.814,187.946 79.814 C 187.472 79.814,186.978 80.075,186.849 80.394 C 186.666 80.846,186.525 80.850,186.214 80.412 C 185.763 79.778,183.626 80.152,184.023 80.795 C 184.163 81.021,183.865 81.206,183.361 81.206 C 182.856 81.206,182.366 81.439,182.272 81.724 C 182.177 82.008,181.520 82.304,180.811 82.382 C 180.101 82.460,179.016 83.113,178.393 83.837 C 177.772 84.560,177.263 84.963,177.263 84.734 C 177.262 84.505,176.634 84.975,175.866 85.778 C 174.347 87.368,173.764 87.633,174.182 86.543 C 174.645 85.337,174.068 85.788,173.335 87.206 C 172.948 87.954,172.209 88.700,171.692 88.864 C 171.175 89.028,170.857 89.332,170.986 89.540 C 171.115 89.748,170.862 89.890,170.424 89.855 C 169.986 89.820,169.623 90.052,169.617 90.371 C 169.611 90.690,169.435 90.941,169.227 90.927 C 168.744 90.897,167.053 93.030,167.053 93.670 C 167.053 93.936,166.688 94.366,166.241 94.626 C 165.795 94.887,165.684 95.106,165.995 95.113 C 166.921 95.137,166.102 96.520,165.162 96.520 C 164.573 96.520,164.386 96.748,164.574 97.238 C 164.731 97.648,164.476 98.260,163.979 98.665 C 163.501 99.054,163.422 99.228,163.805 99.052 C 164.188 98.875,163.918 99.257,163.205 99.900 C 162.311 100.707,162.096 101.144,162.509 101.310 C 162.968 101.494,162.973 101.559,162.529 101.587 C 162.210 101.608,161.949 101.937,161.949 102.320 C 161.949 102.703,161.714 103.016,161.427 103.016 C 161.088 103.016,161.006 103.545,161.194 104.524 C 161.415 105.673,161.364 105.867,160.983 105.336 C 160.592 104.794,160.542 104.916,160.753 105.888 C 160.902 106.574,160.850 107.244,160.636 107.376 C 160.422 107.508,160.341 108.251,160.455 109.028 C 160.569 109.805,160.482 110.441,160.261 110.441 C 160.041 110.441,159.809 111.328,159.747 112.413 C 159.684 113.497,159.425 114.453,159.171 114.538 C 158.904 114.627,158.970 114.953,159.328 115.311 C 159.762 115.744,159.911 117.000,159.825 119.486 C 159.724 122.425,159.874 123.332,160.691 124.717 C 161.235 125.639,161.427 126.237,161.118 126.046 C 160.810 125.855,160.557 125.920,160.557 126.191 C 160.557 126.461,160.818 126.685,161.137 126.689 C 161.526 126.694,161.488 126.850,161.021 127.162 C 160.418 127.565,160.446 127.720,161.226 128.315 C 161.721 128.693,161.956 129.002,161.749 129.002 C 161.541 129.002,161.604 129.283,161.888 129.625 C 162.172 129.968,162.268 130.385,162.100 130.553 C 161.932 130.721,162.124 130.858,162.527 130.858 C 162.967 130.858,163.204 131.182,163.122 131.671 C 163.047 132.117,162.734 132.424,162.426 132.353 C 161.856 132.221,163.703 135.139,164.368 135.421 C 164.568 135.506,164.611 136.133,164.463 136.813 C 164.255 137.772,164.305 137.894,164.689 137.355 C 165.077 136.807,165.186 137.006,165.197 138.283 C 165.208 139.504,165.323 139.734,165.661 139.211 C 166.043 138.620,166.112 138.641,166.118 139.350 C 166.122 139.809,166.856 140.938,167.749 141.858 C 168.643 142.777,169.400 143.811,169.432 144.155 C 169.551 145.437,169.615 145.639,170.028 146.017 C 170.277 146.245,170.298 146.141,170.079 145.763 C 169.825 145.325,169.912 145.192,170.353 145.343 C 170.709 145.464,170.932 146.015,170.851 146.573 C 170.757 147.217,170.926 147.539,171.315 147.458 C 171.651 147.389,171.865 147.619,171.790 147.971 C 171.697 148.408,171.955 148.532,172.603 148.362 C 173.124 148.226,173.434 148.304,173.291 148.535 C 173.148 148.767,173.304 148.959,173.639 148.963 C 174.094 148.968,174.077 149.077,173.574 149.395 C 173.044 149.731,173.154 149.883,174.097 150.120 C 174.824 150.303,175.268 150.723,175.232 151.196 C 175.200 151.623,175.435 151.920,175.754 151.856 C 176.073 151.792,176.334 151.961,176.334 152.232 C 176.334 152.502,176.575 152.574,176.870 152.392 C 177.212 152.180,177.279 152.265,177.055 152.628 C 176.832 152.988,177.058 153.287,177.674 153.448 C 178.208 153.588,178.538 153.872,178.409 154.081 C 178.281 154.290,178.420 154.611,178.718 154.796 C 179.045 154.998,179.138 154.931,178.950 154.628 C 178.779 154.351,178.853 153.992,179.114 153.831 C 179.375 153.670,179.729 153.904,179.901 154.351 C 180.081 154.820,179.980 155.242,179.663 155.348 C 179.360 155.449,179.251 155.755,179.419 156.028 C 179.604 156.328,179.506 156.388,179.170 156.180 C 178.864 155.991,178.310 156.089,177.938 156.397 C 177.566 156.706,177.262 156.813,177.262 156.636 C 177.262 156.459,176.943 156.633,176.553 157.024 C 176.162 157.414,175.536 157.615,175.161 157.471 C 174.785 157.327,174.478 157.418,174.478 157.673 C 174.478 157.928,173.956 158.267,173.318 158.427 C 172.680 158.587,172.158 158.931,172.158 159.190 C 172.158 159.506,171.862 159.503,171.260 159.181 C 170.035 158.525,169.839 158.571,169.830 159.513 C 169.824 160.207,169.758 160.224,169.374 159.629 C 168.999 159.050,168.916 159.088,168.880 159.861 C 168.856 160.371,168.731 160.528,168.602 160.209 C 168.473 159.890,168.164 159.629,167.915 159.629 C 167.666 159.629,167.566 159.795,167.691 159.999 C 167.817 160.203,167.728 160.672,167.494 161.043 C 167.201 161.505,167.065 161.535,167.060 161.137 C 167.057 160.818,166.832 160.557,166.562 160.557 C 166.292 160.557,166.220 160.799,166.402 161.094 C 166.630 161.463,166.418 161.548,165.723 161.367 C 164.427 161.028,162.120 162.172,161.825 163.300 C 161.691 163.812,161.001 164.302,160.149 164.489 C 159.352 164.664,158.701 164.993,158.701 165.220 C 158.701 165.446,158.379 165.509,157.986 165.358 C 157.592 165.207,157.331 165.266,157.406 165.488 C 157.480 165.711,157.406 165.893,157.241 165.893 C 157.077 165.893,156.502 166.291,155.965 166.777 C 155.428 167.263,154.981 167.472,154.972 167.241 C 154.963 167.010,154.657 167.343,154.292 167.981 C 153.695 169.026,153.624 169.049,153.576 168.213 C 153.530 167.401,153.152 167.782,153.013 168.782 C 152.944 169.272,151.007 170.766,150.440 170.766 C 150.189 170.766,149.845 171.125,149.677 171.565 C 149.414 172.249,149.308 172.266,148.938 171.681 C 148.572 171.101,148.505 171.116,148.499 171.777 C 148.495 172.230,148.054 172.619,147.448 172.706 C 146.805 172.797,146.449 173.134,146.521 173.582 C 146.591 174.019,146.036 174.575,145.129 174.974 C 144.299 175.339,143.657 175.847,143.702 176.102 C 143.817 176.745,142.444 178.190,141.719 178.190 C 141.391 178.190,140.973 178.431,140.791 178.726 C 140.574 179.077,140.665 179.135,141.056 178.893 C 141.456 178.646,141.575 178.737,141.418 179.170 C 141.289 179.524,140.963 179.767,140.693 179.709 C 140.424 179.651,139.690 180.214,139.063 180.959 C 138.436 181.705,137.761 182.170,137.564 181.993 C 137.367 181.816,137.367 181.949,137.564 182.290 C 137.799 182.695,137.384 183.387,136.362 184.294 C 135.505 185.055,135.049 185.556,135.351 185.407 C 135.652 185.258,136.030 185.348,136.190 185.607 C 136.351 185.867,136.278 186.079,136.029 186.079 C 135.780 186.079,135.366 186.653,135.110 187.355 C 134.779 188.261,134.633 188.379,134.607 187.762 C 134.576 187.027,134.459 186.986,133.845 187.496 C 133.384 187.878,133.218 188.492,133.390 189.177 C 133.671 190.298,132.992 190.690,132.526 189.675 C 132.379 189.356,132.375 189.563,132.517 190.134 C 132.818 191.352,131.587 193.479,131.152 192.492 C 130.994 192.133,130.899 192.264,130.924 192.807 C 131.016 194.876,130.825 195.791,130.160 196.456 C 129.775 196.840,129.418 197.676,129.365 198.312 C 129.313 198.948,129.105 199.367,128.904 199.243 C 128.703 199.119,128.535 199.499,128.531 200.089 C 128.526 200.925,128.430 201.011,128.095 200.482 C 127.784 199.990,127.678 200.207,127.709 201.278 C 127.732 202.089,127.928 202.643,128.144 202.509 C 128.361 202.375,128.538 202.579,128.538 202.961 C 128.538 203.344,128.329 203.787,128.074 203.944 C 127.819 204.102,127.610 203.998,127.610 203.712 C 127.610 203.427,127.401 203.323,127.146 203.480 C 126.496 203.882,126.567 205.723,127.262 206.472 C 127.581 206.815,127.616 206.971,127.339 206.816 C 127.011 206.634,126.850 207.189,126.878 208.407 C 126.908 209.671,127.184 210.425,127.730 210.731 C 128.175 210.979,128.538 211.446,128.538 211.767 C 128.538 212.089,128.867 212.757,129.269 213.252 C 129.671 213.748,129.850 213.865,129.668 213.513 C 129.448 213.086,129.552 212.947,129.982 213.097 C 130.336 213.220,130.569 213.647,130.499 214.045 C 130.408 214.564,130.638 214.699,131.311 214.522 C 131.857 214.380,132.251 214.503,132.251 214.817 C 132.251 215.115,132.929 215.653,133.759 216.014 C 134.588 216.374,134.954 216.678,134.571 216.690 C 134.188 216.702,134.494 217.034,135.251 217.429 C 136.028 217.834,137.288 218.057,138.147 217.941 C 138.982 217.829,139.551 217.922,139.411 218.149 C 139.271 218.376,139.482 218.561,139.880 218.561 C 140.278 218.561,140.603 218.795,140.603 219.080 C 140.603 219.382,141.086 219.505,141.763 219.376 C 142.401 219.254,142.923 219.315,142.923 219.510 C 142.923 219.706,143.374 219.749,143.924 219.605 C 144.524 219.448,144.811 219.527,144.641 219.803 C 144.484 220.056,144.651 220.263,145.012 220.263 C 145.372 220.263,145.546 220.068,145.399 219.830 C 145.252 219.592,145.574 219.634,146.116 219.924 C 146.657 220.213,147.100 220.629,147.100 220.847 C 147.100 221.065,147.810 221.148,148.677 221.031 C 149.545 220.914,150.392 221.042,150.561 221.314 C 150.729 221.587,151.220 221.807,151.652 221.803 C 152.328 221.797,152.340 221.733,151.740 221.346 C 151.357 221.098,151.263 220.893,151.531 220.889 C 151.799 220.885,152.217 221.075,152.459 221.312 C 152.702 221.549,153.631 221.843,154.524 221.966 C 155.418 222.088,156.253 222.238,156.381 222.299 C 156.508 222.359,157.343 222.459,158.237 222.520 C 160.739 222.693,160.833 222.724,160.151 223.156 C 159.746 223.413,160.430 223.547,162.022 223.524 C 163.402 223.503,164.838 223.678,165.213 223.911 C 166.384 224.642,167.409 224.627,166.418 223.893 C 165.586 223.277,165.591 223.254,166.534 223.325 C 167.075 223.366,167.517 223.668,167.517 223.997 C 167.517 224.325,167.739 224.594,168.009 224.594 C 168.279 224.594,168.380 224.400,168.233 224.162 C 168.086 223.924,168.157 223.612,168.389 223.469 C 168.622 223.325,168.919 223.486,169.050 223.826 C 169.180 224.167,169.777 224.403,170.375 224.351 C 170.972 224.299,171.852 224.458,172.330 224.704 C 172.866 224.980,173.094 224.982,172.926 224.710 C 172.776 224.468,173.269 224.253,174.022 224.231 C 174.774 224.210,175.510 224.387,175.657 224.625 C 176.046 225.255,178.364 225.155,179.094 224.478 C 179.468 224.131,179.600 224.111,179.422 224.428 C 179.215 224.798,179.969 224.970,181.917 224.998 C 183.452 225.019,185.121 225.258,185.626 225.528 C 186.251 225.863,186.543 225.866,186.543 225.538 C 186.543 224.851,189.667 224.942,189.948 225.638 C 190.135 226.102,190.189 226.102,190.219 225.638 C 190.239 225.319,190.777 225.058,191.415 225.058 C 192.053 225.058,192.579 225.319,192.583 225.638 C 192.588 226.062,192.698 226.047,192.991 225.584 C 193.286 225.119,193.933 225.036,195.420 225.272 C 198.844 225.815,203.229 225.929,203.505 225.482 C 203.886 224.865,205.744 224.963,206.472 225.638 C 206.972 226.102,207.031 226.102,206.769 225.638 C 206.534 225.221,206.912 225.058,208.121 225.058 C 209.122 225.058,209.684 225.245,209.513 225.522 C 209.355 225.777,209.564 225.986,209.977 225.986 C 210.390 225.986,210.599 225.777,210.441 225.522 C 210.270 225.245,210.832 225.058,211.833 225.058 C 212.834 225.058,213.396 225.245,213.225 225.522 C 213.067 225.777,213.159 225.986,213.430 225.986 C 213.700 225.986,213.921 225.777,213.921 225.522 C 213.921 225.244,215.764 225.058,218.523 225.058 C 221.791 225.058,223.181 224.890,223.320 224.478 C 223.469 224.036,223.719 224.063,224.376 224.594 C 224.849 224.977,225.102 225.065,224.937 224.790 C 224.740 224.460,225.331 224.320,226.691 224.376 C 227.820 224.423,228.633 224.283,228.497 224.064 C 228.362 223.845,228.577 223.666,228.975 223.666 C 229.373 223.666,229.698 223.849,229.698 224.072 C 229.698 224.295,230.217 224.478,230.850 224.478 C 231.483 224.478,231.910 224.330,231.798 224.149 C 231.687 223.968,231.890 223.821,232.251 223.821 C 232.611 223.821,232.810 223.976,232.692 224.167 C 232.429 224.592,233.723 224.436,234.171 223.989 C 234.348 223.811,234.939 223.666,235.483 223.666 C 236.028 223.666,236.700 223.439,236.978 223.161 C 237.341 222.798,237.570 222.798,237.794 223.161 C 237.966 223.439,238.563 223.651,239.123 223.633 C 240.066 223.603,240.074 223.575,239.245 223.250 C 238.431 222.931,238.422 222.873,239.147 222.595 C 239.653 222.401,240.044 222.554,240.221 223.017 C 240.381 223.433,240.623 223.546,240.787 223.281 C 240.944 223.026,242.080 222.733,243.311 222.630 C 244.569 222.524,245.733 222.151,245.969 221.778 C 246.200 221.413,246.396 221.323,246.404 221.578 C 246.412 221.833,246.620 221.729,246.868 221.346 C 247.168 220.882,247.320 220.843,247.325 221.230 C 247.333 221.887,248.296 221.814,248.875 221.114 C 249.123 220.814,249.344 220.862,249.500 221.249 C 249.686 221.709,249.893 221.723,250.393 221.308 C 250.751 221.011,251.047 220.950,251.051 221.173 C 251.055 221.396,251.261 221.265,251.508 220.882 C 251.861 220.335,251.959 220.322,251.965 220.822 C 251.971 221.362,252.092 221.362,252.757 220.822 C 253.319 220.367,253.441 220.354,253.187 220.777 C 252.991 221.103,253.576 220.950,254.490 220.437 C 255.402 219.925,256.148 219.725,256.148 219.993 C 256.148 220.261,256.775 220.035,257.541 219.490 C 258.508 218.800,258.937 218.685,258.947 219.110 C 258.957 219.492,259.218 219.383,259.644 218.821 C 260.018 218.325,260.328 218.117,260.332 218.357 C 260.336 218.597,260.541 218.480,260.789 218.097 C 261.073 217.657,261.241 217.609,261.246 217.967 C 261.255 218.715,262.453 218.231,263.893 216.897 C 264.523 216.313,265.309 215.938,265.638 216.065 C 265.968 216.191,266.362 215.969,266.515 215.572 C 266.667 215.174,267.020 214.849,267.298 214.849 C 267.576 214.849,267.669 215.110,267.505 215.429 C 267.340 215.748,267.624 215.493,268.137 214.862 C 268.650 214.231,268.949 213.520,268.802 213.282 C 268.654 213.044,268.775 212.999,269.070 213.181 C 269.364 213.363,269.606 213.268,269.606 212.971 C 269.606 212.673,269.919 212.550,270.302 212.697 C 270.684 212.844,270.998 212.732,270.998 212.450 C 270.998 212.167,271.363 211.636,271.810 211.270 C 272.256 210.904,272.361 210.736,272.042 210.898 C 271.723 211.059,271.462 210.971,271.462 210.700 C 271.462 210.430,271.667 210.209,271.917 210.209 C 272.185 210.209,272.328 208.770,272.265 206.730 C 272.206 204.816,272.001 203.250,271.810 203.249 C 271.618 203.249,271.459 202.674,271.457 201.972 C 271.446 199.249,270.884 197.160,270.230 197.411 C 269.760 197.591,269.649 197.340,269.809 196.458 C 270.026 195.261,269.069 193.281,267.796 192.294 C 267.399 191.986,267.262 191.451,267.453 190.953 C 267.711 190.278,267.649 190.225,267.115 190.668 C 266.382 191.277,265.162 188.743,265.739 187.810 C 265.902 187.545,265.819 187.462,265.554 187.626 C 265.288 187.790,264.812 187.614,264.497 187.234 C 264.182 186.854,264.062 186.543,264.231 186.543 C 264.400 186.543,264.268 186.252,263.939 185.896 C 263.610 185.540,263.184 185.343,262.993 185.459 C 262.802 185.575,262.645 185.466,262.645 185.217 C 262.645 184.968,262.906 184.659,263.225 184.530 C 263.577 184.388,263.492 184.282,263.008 184.259 C 262.522 184.237,262.308 183.969,262.459 183.574 C 262.596 183.217,262.485 182.787,262.213 182.618 C 261.940 182.450,261.717 182.561,261.717 182.866 C 261.717 183.171,261.275 182.859,260.736 182.173 C 260.196 181.487,259.866 180.814,260.002 180.678 C 260.378 180.302,258.391 178.190,257.662 178.190 C 257.310 178.190,257.151 177.981,257.309 177.726 C 257.466 177.471,257.362 177.262,257.077 177.262 C 256.791 177.262,256.692 177.045,256.856 176.780 C 257.052 176.463,256.702 176.406,255.839 176.613 C 255.116 176.787,254.678 176.763,254.865 176.561 C 255.053 176.359,254.844 175.919,254.401 175.583 C 253.863 175.174,253.798 174.967,254.204 174.957 C 254.538 174.949,254.680 174.730,254.520 174.470 C 254.359 174.211,254.051 174.109,253.834 174.243 C 253.617 174.377,253.072 174.119,252.623 173.670 C 252.174 173.221,251.672 172.854,251.508 172.854 C 251.344 172.854,250.844 172.488,250.398 172.042 C 249.951 171.595,249.822 171.230,250.110 171.230 C 250.399 171.230,250.504 171.017,250.343 170.758 C 250.183 170.499,249.858 170.406,249.622 170.552 C 249.385 170.698,248.635 170.232,247.954 169.516 C 247.273 168.799,246.853 168.453,247.021 168.745 C 247.189 169.037,247.035 169.388,246.678 169.525 C 245.769 169.874,245.432 169.394,245.931 168.462 C 246.218 167.926,246.175 167.656,245.799 167.622 C 244.231 167.480,243.401 167.103,243.522 166.587 C 243.605 166.234,243.375 166.120,242.928 166.291 C 242.439 166.479,242.021 166.180,241.658 165.383 C 241.254 164.496,240.850 164.247,240.062 164.397 C 239.482 164.508,239.118 164.420,239.253 164.202 C 239.388 163.984,239.068 163.779,238.542 163.747 C 238.017 163.715,237.371 163.663,237.108 163.631 C 236.844 163.599,236.357 163.051,236.026 162.413 C 235.694 161.775,235.157 161.312,234.832 161.385 C 234.507 161.458,233.950 161.276,233.594 160.980 C 233.238 160.685,232.947 160.613,232.947 160.821 C 232.947 161.028,232.618 160.793,232.216 160.298 C 231.814 159.802,231.618 159.658,231.780 159.977 C 232.290 160.985,231.235 160.603,230.515 159.519 C 229.937 158.649,229.710 158.578,229.107 159.078 C 228.615 159.486,228.293 159.518,228.083 159.180 C 227.916 158.908,227.551 158.826,227.274 158.997 C 226.985 159.176,226.903 159.094,227.082 158.804 C 227.697 157.810,225.271 157.018,224.238 157.875 C 223.761 158.271,223.561 158.169,223.368 157.430 C 223.191 156.752,222.797 156.507,222.022 156.592 C 221.418 156.658,220.968 156.481,221.020 156.198 C 221.071 155.916,220.517 155.616,219.788 155.533 C 218.832 155.423,218.561 155.540,218.816 155.953 C 219.057 156.343,218.977 156.405,218.563 156.149 C 218.083 155.852,218.116 155.659,218.723 155.214 C 219.145 154.906,219.490 154.461,219.490 154.224 C 219.490 153.987,219.912 153.762,220.428 153.723 C 220.944 153.684,221.245 153.849,221.096 154.088 C 220.948 154.328,220.923 154.524,221.040 154.524 C 221.158 154.524,221.697 153.773,222.239 152.855 C 222.904 151.729,223.455 151.274,223.933 151.457 C 224.337 151.613,224.520 151.532,224.359 151.271 C 224.203 151.018,224.557 150.809,225.147 150.805 C 225.940 150.800,226.051 150.692,225.577 150.392 C 225.072 150.072,225.144 149.919,225.915 149.674 C 226.454 149.503,226.875 149.220,226.850 149.044 C 226.699 147.984,226.993 147.495,227.634 147.741 C 228.030 147.893,228.241 147.834,228.102 147.609 C 227.964 147.385,228.353 146.872,228.967 146.470 C 229.783 145.935,230.012 145.463,229.816 144.716 C 229.600 143.890,229.702 143.754,230.350 144.002 C 230.982 144.245,231.092 144.122,230.870 143.423 C 230.635 142.683,230.764 142.582,231.651 142.810 C 232.583 143.050,232.639 142.992,232.104 142.339 C 231.580 141.701,231.664 141.481,232.684 140.813 C 233.339 140.384,233.872 139.795,233.868 139.506 C 233.864 139.216,233.658 139.292,233.411 139.675 C 233.069 140.204,232.959 140.221,232.954 139.748 C 232.950 139.405,233.319 139.027,233.774 138.908 C 234.636 138.683,235.827 136.481,235.913 134.955 C 235.941 134.469,236.276 133.851,236.659 133.582 C 237.250 133.165,237.236 133.129,236.567 133.343 C 235.978 133.532,235.849 133.396,236.059 132.807 C 236.509 131.540,237.193 130.847,237.689 131.154 C 237.981 131.334,238.033 130.907,237.832 129.988 C 237.629 129.063,237.695 128.538,238.014 128.538 C 238.290 128.538,238.515 128.138,238.515 127.649 C 238.515 127.160,238.776 126.654,239.095 126.525 C 239.459 126.379,239.388 126.278,238.907 126.255 C 238.374 126.229,238.212 125.935,238.379 125.295 C 238.512 124.788,238.806 124.487,239.032 124.627 C 239.258 124.766,239.443 124.388,239.443 123.786 C 239.443 123.184,239.704 122.410,240.023 122.066 C 240.362 121.701,240.384 121.564,240.076 121.736 C 239.452 122.085,238.897 119.827,239.513 119.446 C 239.738 119.307,239.802 118.999,239.655 118.761 C 239.509 118.524,239.635 118.329,239.937 118.329 C 240.345 118.329,240.338 118.152,239.907 117.633 C 239.508 117.152,239.491 116.937,239.850 116.937 C 240.137 116.937,240.371 116.311,240.371 115.545 C 240.371 114.780,240.162 114.153,239.907 114.153 C 239.652 114.153,239.443 113.422,239.443 112.529 C 239.443 111.559,239.671 110.905,240.010 110.905 C 240.322 110.905,240.092 110.565,239.499 110.149 C 238.654 109.557,238.556 109.308,239.048 108.996 C 239.534 108.688,239.541 108.597,239.079 108.592 C 238.615 108.586,238.600 108.366,239.009 107.601 C 239.299 107.059,239.332 106.743,239.082 106.897 C 238.832 107.051,238.501 106.541,238.345 105.762 C 238.150 104.786,237.880 104.456,237.476 104.699 C 237.082 104.936,237.102 104.790,237.540 104.251 C 238.105 103.554,238.075 103.365,237.308 102.784 C 236.823 102.418,236.609 102.111,236.832 102.103 C 237.054 102.095,236.984 101.784,236.676 101.412 C 236.367 101.041,236.248 100.521,236.411 100.258 C 236.592 99.965,236.407 99.894,235.935 100.075 C 235.278 100.327,235.211 100.151,235.486 98.896 C 235.730 97.788,235.656 97.453,235.191 97.551 C 234.850 97.622,234.568 97.329,234.565 96.901 C 234.562 96.472,234.372 95.950,234.142 95.740 C 233.904 95.523,233.869 95.608,234.060 95.940 C 234.243 96.259,234.195 96.520,233.952 96.520 C 233.383 96.520,232.862 95.176,233.212 94.610 C 233.359 94.372,233.203 94.234,232.865 94.304 C 232.492 94.382,232.265 94.022,232.287 93.387 C 232.308 92.798,232.049 92.343,231.693 92.343 C 231.346 92.343,230.942 92.031,230.795 91.650 C 230.649 91.269,230.357 91.063,230.146 91.194 C 229.935 91.324,229.631 91.218,229.471 90.959 C 229.311 90.699,229.433 90.487,229.743 90.487 C 230.096 90.487,229.999 90.148,229.483 89.578 C 229.030 89.077,228.528 88.684,228.367 88.704 C 227.506 88.812,226.889 88.584,227.103 88.237 C 227.237 88.020,226.839 87.571,226.218 87.239 C 225.597 86.907,225.198 86.460,225.330 86.246 C 225.462 86.032,225.212 85.995,224.774 86.163 C 224.270 86.357,224.090 86.287,224.283 85.974 C 224.621 85.428,223.337 84.711,222.327 84.880 C 221.886 84.955,221.784 84.727,222.003 84.156 C 222.179 83.698,222.172 83.474,221.988 83.658 C 221.804 83.842,221.271 83.647,220.803 83.224 C 220.295 82.764,219.954 82.670,219.954 82.991 C 219.954 83.286,220.197 83.527,220.495 83.527 C 220.793 83.527,220.903 83.660,220.740 83.823 C 220.576 83.987,219.720 83.569,218.837 82.895 C 217.954 82.222,217.009 81.671,216.736 81.671 C 216.464 81.671,216.241 81.341,216.241 80.938 C 216.241 80.365,215.937 80.271,214.849 80.510 C 213.905 80.718,213.457 80.637,213.457 80.258 C 213.457 79.849,213.242 79.865,212.645 80.322 C 212.198 80.664,211.980 80.769,212.159 80.556 C 212.779 79.818,211.148 78.768,209.801 79.038 C 209.067 79.184,207.936 79.001,207.189 78.613 C 206.377 78.192,205.765 78.104,205.592 78.384 C 205.421 78.662,205.048 78.674,204.631 78.417 C 204.257 78.185,202.728 78.124,201.234 78.280 C 199.655 78.445,198.391 78.375,198.215 78.113 C 198.028 77.835,197.206 77.813,196.076 78.055 M44.171 119.915 C 44.920 121.357,45.024 121.384,44.918 120.110 C 44.865 119.471,44.563 118.948,44.246 118.948 C 43.811 118.948,43.793 119.185,44.171 119.915 M42.691 120.870 C 42.691 121.583,42.494 121.974,42.220 121.805 C 41.960 121.645,41.887 121.267,42.056 120.966 C 42.263 120.596,42.160 120.607,41.739 120.998 C 41.395 121.317,40.725 121.578,40.251 121.578 C 39.777 121.578,39.503 121.763,39.643 121.989 C 39.783 122.216,39.534 122.372,39.090 122.337 C 38.574 122.297,38.308 122.578,38.353 123.118 C 38.401 123.700,38.201 123.877,37.708 123.687 C 37.284 123.525,36.726 123.795,36.336 124.352 C 35.956 124.894,35.151 125.293,34.428 125.297 C 33.451 125.303,33.330 125.402,33.875 125.754 C 34.435 126.116,34.361 126.205,33.499 126.211 C 32.904 126.215,32.555 126.425,32.715 126.682 C 32.872 126.937,32.902 127.146,32.780 127.146 C 32.658 127.146,32.194 127.286,31.748 127.457 C 31.133 127.693,31.034 127.610,31.335 127.109 C 31.672 126.551,31.615 126.545,30.962 127.075 C 30.539 127.418,30.210 127.836,30.232 128.003 C 30.344 128.852,30.104 129.165,29.759 128.620 C 29.443 128.123,29.227 128.148,28.622 128.753 C 28.211 129.163,27.711 129.463,27.511 129.419 C 27.310 129.375,26.921 129.779,26.646 130.317 C 26.263 131.066,26.017 131.168,25.602 130.753 C 25.303 130.454,25.032 130.355,25.000 130.534 C 24.968 130.712,24.890 131.067,24.826 131.323 C 24.762 131.578,24.684 132.030,24.652 132.328 C 24.620 132.626,24.465 132.740,24.307 132.582 C 24.149 132.424,23.706 132.608,23.323 132.991 C 22.941 133.374,22.496 133.544,22.335 133.369 C 22.174 133.195,22.303 132.958,22.622 132.844 C 22.941 132.730,23.202 132.441,23.202 132.201 C 23.202 131.448,20.990 133.176,20.743 134.123 C 20.613 134.618,19.913 135.266,19.186 135.561 C 17.917 136.078,17.487 136.173,15.630 136.348 C 15.028 136.404,14.866 136.677,15.064 137.300 C 15.365 138.248,14.165 139.053,13.663 138.240 C 13.475 137.937,13.145 137.964,12.720 138.317 C 11.887 139.008,11.841 139.939,12.667 139.384 C 12.998 139.161,12.867 139.348,12.375 139.798 C 11.735 140.385,11.316 140.480,10.899 140.134 C 10.479 139.786,10.238 139.859,10.031 140.398 C 9.873 140.809,9.493 141.061,9.187 140.959 C 7.332 140.340,7.031 141.789,6.979 151.585 L 6.929 161.027 76.605 161.018 C 150.896 161.008,148.956 161.063,148.956 158.972 C 148.956 158.721,148.705 158.766,148.399 159.072 C 148.093 159.378,147.643 159.629,147.400 159.629 C 147.157 159.629,147.453 159.199,148.059 158.673 C 148.665 158.148,149.506 157.808,149.928 157.918 C 150.505 158.069,150.642 157.875,150.481 157.134 C 150.309 156.340,150.362 156.283,150.753 156.842 C 151.174 157.443,151.340 157.411,151.988 156.610 C 152.400 156.101,152.605 155.945,152.443 156.265 C 152.005 157.130,152.547 156.966,153.596 155.916 C 154.107 155.406,154.838 154.988,155.220 154.988 C 155.607 154.988,155.916 154.576,155.916 154.060 C 155.916 153.289,156.226 153.132,157.745 153.132 C 158.751 153.132,159.723 152.891,159.905 152.597 C 160.123 152.244,160.013 152.177,159.584 152.399 C 159.107 152.647,159.119 152.573,159.629 152.123 C 160.503 151.351,160.687 149.198,159.817 149.920 C 159.376 150.286,159.299 150.168,159.493 149.427 C 159.668 148.754,159.549 148.494,159.108 148.588 C 158.756 148.663,158.469 148.411,158.469 148.028 C 158.469 147.645,158.071 146.966,157.586 146.520 C 157.100 146.073,156.937 145.708,157.223 145.708 C 157.509 145.708,157.617 145.377,157.461 144.973 C 157.234 144.381,157.103 144.358,156.787 144.857 C 156.520 145.278,156.382 145.030,156.355 144.084 C 156.321 142.884,156.260 142.820,155.916 143.619 C 155.551 144.470,155.515 144.451,155.485 143.387 L 155.452 142.227 87.819 142.227 C 28.010 142.227,20.186 142.147,20.186 141.531 C 20.186 141.148,20.523 140.890,20.936 140.957 C 21.601 141.066,23.151 139.784,22.854 139.372 C 22.790 139.283,22.741 139.055,22.745 138.863 C 22.749 138.672,22.907 138.758,23.096 139.056 C 23.351 139.457,23.671 139.427,24.338 138.940 C 24.831 138.578,24.987 138.283,24.683 138.283 C 24.379 138.283,24.130 138.052,24.130 137.769 C 24.130 137.487,24.459 137.382,24.860 137.536 C 25.565 137.806,27.146 136.661,27.146 135.880 C 27.146 135.670,27.321 135.551,27.534 135.615 C 27.747 135.679,28.207 135.052,28.555 134.223 C 28.904 133.393,29.525 132.715,29.935 132.715 C 30.409 132.715,30.554 132.927,30.333 133.295 C 30.096 133.689,30.236 133.671,30.769 133.238 C 31.619 132.548,31.846 132.016,31.090 132.483 C 30.835 132.640,30.626 132.466,30.626 132.096 C 30.626 131.101,31.922 130.765,32.168 131.696 C 32.309 132.231,32.392 132.132,32.429 131.389 C 32.466 130.636,32.692 130.376,33.155 130.553 C 33.562 130.709,33.941 130.454,34.114 129.907 C 34.272 129.409,34.678 129.002,35.016 129.002 C 35.355 129.002,35.757 128.676,35.910 128.277 C 36.063 127.878,36.384 127.672,36.624 127.820 C 36.863 127.968,37.210 127.845,37.395 127.546 C 37.604 127.207,37.529 127.127,37.195 127.334 C 36.445 127.797,36.526 127.213,37.322 126.417 C 38.139 125.599,38.672 125.553,38.275 126.334 C 38.113 126.653,38.388 126.453,38.886 125.890 C 39.384 125.326,39.908 124.982,40.050 125.124 C 40.192 125.266,40.190 124.928,40.045 124.373 C 39.836 123.575,39.961 123.396,40.646 123.515 C 41.121 123.598,41.515 123.422,41.521 123.125 C 41.536 122.327,42.225 121.773,42.241 122.544 C 42.252 123.011,42.394 122.964,42.734 122.380 C 42.997 121.928,43.426 121.690,43.687 121.851 C 43.971 122.027,44.099 121.720,44.007 121.086 C 43.781 119.544,42.691 119.366,42.691 120.870 M355.800 120.486 C 356.119 120.618,356.381 121.038,356.381 121.418 C 356.381 122.341,357.408 123.323,358.125 123.084 C 358.477 122.967,358.598 123.160,358.437 123.580 C 358.292 123.959,358.429 124.426,358.741 124.619 C 359.104 124.843,359.189 124.776,358.977 124.434 C 358.795 124.139,358.862 123.898,359.127 123.898 C 359.391 123.898,359.975 124.472,360.424 125.174 C 361.754 127.252,362.167 127.553,363.025 127.072 C 363.666 126.714,363.805 126.847,363.805 127.819 C 363.805 128.562,364.064 129.002,364.501 129.002 C 364.884 129.002,365.197 129.338,365.197 129.748 C 365.197 130.209,365.454 130.395,365.870 130.236 C 366.336 130.057,366.457 130.201,366.263 130.704 C 366.045 131.273,366.200 131.361,366.983 131.113 C 367.715 130.880,367.981 130.990,367.981 131.523 C 367.981 131.923,368.272 132.251,368.627 132.251 C 368.982 132.251,369.406 132.781,369.569 133.430 C 369.732 134.078,370.067 134.483,370.315 134.330 C 370.563 134.177,370.766 134.295,370.766 134.593 C 370.766 135.327,373.150 137.155,373.886 136.986 C 374.212 136.911,374.478 137.068,374.478 137.335 C 374.478 137.601,374.896 137.819,375.406 137.819 C 376.100 137.819,376.343 138.141,376.371 139.095 C 376.391 139.797,376.516 140.102,376.648 139.772 C 376.892 139.164,378.654 140.759,378.654 141.588 C 378.654 141.796,378.968 141.846,379.350 141.699 C 379.733 141.552,380.046 141.662,380.046 141.943 C 380.046 142.312,361.342 142.422,312.297 142.340 C 267.368 142.265,244.545 142.384,244.540 142.691 C 244.537 142.947,244.331 142.842,244.084 142.459 C 243.734 141.919,243.632 142.055,243.627 143.067 C 243.622 143.943,243.441 144.260,243.077 144.035 C 242.707 143.806,242.632 143.957,242.843 144.506 C 243.153 145.313,242.118 146.836,241.607 146.325 C 241.460 146.178,241.446 146.640,241.575 147.351 C 241.764 148.393,241.688 148.543,241.187 148.127 C 240.710 147.731,240.417 147.849,239.930 148.631 C 239.349 149.563,239.361 149.596,240.065 149.015 C 240.638 148.542,240.835 148.524,240.835 148.948 C 240.835 149.262,240.313 149.929,239.675 150.431 C 238.263 151.542,238.240 151.809,239.492 152.591 C 240.029 152.926,240.330 152.977,240.160 152.702 C 239.791 152.104,240.357 152.063,241.243 152.623 C 241.594 152.846,241.753 153.237,241.596 153.492 C 241.439 153.746,241.715 154.061,242.210 154.190 C 242.706 154.320,243.209 154.187,243.329 153.895 C 243.448 153.603,243.563 153.730,243.583 154.176 C 243.605 154.667,243.987 154.988,244.548 154.988 C 245.063 154.988,245.476 155.298,245.476 155.684 C 245.476 156.067,245.841 156.377,246.288 156.373 C 246.988 156.367,247.004 156.299,246.404 155.874 C 245.785 155.436,245.785 155.404,246.404 155.581 C 246.787 155.691,247.045 156.096,246.978 156.481 C 246.887 157.007,247.165 157.123,248.091 156.946 C 248.944 156.783,249.224 156.874,248.997 157.241 C 248.795 157.569,249.007 157.773,249.553 157.773 C 250.039 157.773,250.834 158.226,251.320 158.780 C 251.873 159.410,251.943 159.638,251.508 159.387 C 250.907 159.041,250.899 159.094,251.453 159.777 C 252.056 160.520,252.131 160.518,252.715 159.750 C 253.309 158.966,253.622 159.372,253.421 160.667 C 253.359 161.068,391.218 161.156,392.261 160.756 C 393.571 160.254,393.387 143.560,392.067 143.141 C 391.346 142.913,391.227 142.719,391.647 142.459 C 392.068 142.199,391.953 142.008,391.238 141.781 C 390.690 141.607,390.375 141.248,390.539 140.984 C 390.728 140.678,390.478 140.617,389.852 140.816 C 389.040 141.074,388.924 140.981,389.185 140.286 C 389.464 139.541,389.409 139.518,388.707 140.089 C 388.020 140.648,387.950 140.639,388.188 140.020 C 388.501 139.204,387.972 138.776,386.267 138.467 C 385.612 138.349,384.572 137.706,383.954 137.039 C 383.336 136.373,382.831 136.092,382.831 136.416 C 382.831 136.885,382.690 136.888,382.140 136.431 C 381.760 136.116,381.572 135.659,381.722 135.415 C 381.873 135.172,381.714 135.011,381.369 135.059 C 380.120 135.230,379.582 135.022,379.582 134.366 C 379.582 133.525,379.193 133.287,377.262 132.947 C 375.258 132.593,374.823 132.301,375.128 131.508 C 375.265 131.151,375.102 130.858,374.766 130.858 C 374.431 130.858,373.669 130.436,373.074 129.920 C 372.389 129.326,371.882 129.161,371.691 129.470 C 371.500 129.780,370.937 129.602,370.150 128.982 C 369.468 128.446,368.896 128.179,368.880 128.389 C 368.864 128.599,368.658 128.291,368.423 127.704 C 368.164 127.058,367.677 126.693,367.187 126.776 C 366.721 126.856,366.372 126.619,366.363 126.218 C 366.353 125.766,365.982 125.573,365.305 125.668 C 364.684 125.755,364.150 125.520,363.984 125.088 C 363.831 124.689,363.415 124.362,363.059 124.362 C 362.704 124.362,362.413 124.049,362.413 123.666 C 362.413 123.283,362.256 122.995,362.065 123.025 C 361.052 123.185,360.535 122.914,360.851 122.390 C 361.054 122.052,360.834 122.100,360.325 122.506 C 359.844 122.889,359.594 122.963,359.769 122.670 C 359.944 122.378,359.740 122.006,359.315 121.843 C 358.890 121.680,358.389 121.796,358.200 122.101 C 357.980 122.457,357.800 122.270,357.699 121.581 C 357.589 120.832,357.189 120.466,356.381 120.375 C 355.742 120.303,355.481 120.353,355.800 120.486 " stroke="none" fill="#555555" fill-rule="evenodd"></path></g></svg>