<svg style="display: block;" id="svg" version="1.1" width="500" height="500" xmlns="http://www.w3.org/2000/svg" xmlns:xlink="http://www.w3.org/1999/xlink"><g id="svgg"><path id="path0" d="M188.533 8.514 C 188.460 8.577,183.720 8.877,178.000 9.181 C 163.737 9.938,161.421 10.145,159.765 10.816 C 158.977 11.136,158.164 11.230,157.959 11.025 C 157.754 10.821,155.315 11.080,152.539 11.602 C 149.762 12.124,146.345 12.517,144.945 12.475 C 143.545 12.434,142.400 12.638,142.400 12.930 C 142.400 13.221,141.500 13.360,140.400 13.240 C 139.300 13.119,138.400 13.358,138.400 13.770 C 138.400 14.183,137.410 14.455,136.200 14.376 C 134.990 14.296,133.820 14.296,133.600 14.376 C 132.886 14.637,130.040 15.272,128.400 15.537 C 127.520 15.680,126.800 15.869,126.800 15.959 C 126.800 16.049,126.260 16.236,125.600 16.374 C 124.940 16.512,122.060 17.251,119.200 18.016 C 116.340 18.781,113.137 19.515,112.083 19.646 C 109.891 19.919,108.449 21.689,109.759 22.498 C 110.240 22.795,110.412 23.615,110.142 24.319 C 109.871 25.024,109.959 25.600,110.336 25.600 C 110.713 25.600,111.279 26.950,111.592 28.600 C 111.906 30.250,112.352 32.500,112.582 33.600 C 112.813 34.700,113.086 36.140,113.190 36.800 C 113.293 37.460,113.604 38.540,113.880 39.200 C 114.156 39.860,114.511 41.120,114.671 42.000 C 114.830 42.880,115.218 44.193,115.534 44.918 C 115.850 45.642,116.008 46.722,115.886 47.318 C 115.764 47.913,116.034 49.120,116.485 50.000 C 116.937 50.880,117.270 52.140,117.226 52.800 C 117.182 53.460,117.434 54.205,117.786 54.455 C 118.138 54.706,118.573 56.389,118.753 58.196 C 118.933 60.003,119.499 62.265,120.012 63.222 C 120.524 64.180,120.765 65.647,120.547 66.482 C 120.328 67.317,120.515 68.000,120.960 68.000 C 121.406 68.000,121.540 68.601,121.258 69.336 C 120.977 70.071,121.154 70.924,121.653 71.233 C 122.152 71.541,122.560 73.100,122.560 74.697 C 122.560 76.293,122.820 77.600,123.139 77.600 C 123.637 77.600,125.588 85.678,125.796 88.600 C 125.875 89.722,127.200 89.998,127.200 88.893 C 127.200 88.505,127.920 87.998,128.801 87.768 C 129.682 87.538,130.233 87.624,130.025 87.959 C 129.818 88.294,130.533 88.400,131.615 88.193 C 132.700 87.986,133.353 87.447,133.072 86.993 C 132.750 86.472,133.344 86.317,134.681 86.573 C 135.846 86.796,136.800 86.668,136.800 86.289 C 136.800 85.910,137.677 85.600,138.748 85.600 C 139.819 85.600,141.562 85.271,142.620 84.868 C 143.679 84.466,146.132 84.016,148.073 83.868 C 150.013 83.721,151.781 83.362,152.003 83.072 C 152.383 82.573,159.156 81.656,165.800 81.204 C 167.450 81.092,168.890 80.923,169.000 80.829 C 170.881 79.218,215.390 78.799,227.200 80.281 C 229.180 80.530,232.669 80.895,234.954 81.093 C 237.238 81.291,240.298 81.727,241.754 82.062 C 246.216 83.090,247.516 83.286,249.800 83.275 C 251.010 83.269,252.000 83.617,252.000 84.047 C 252.000 84.478,252.861 84.614,253.913 84.350 C 254.965 84.086,256.070 84.265,256.368 84.748 C 256.666 85.231,257.237 85.424,257.637 85.177 C 258.036 84.930,259.900 85.142,261.778 85.648 C 263.657 86.154,265.735 86.676,266.397 86.809 C 270.108 87.552,272.516 88.312,273.418 89.023 C 274.179 89.623,274.309 89.495,273.933 88.513 C 273.642 87.755,273.826 87.200,274.368 87.200 C 274.944 87.200,275.111 86.580,274.800 85.600 C 274.496 84.642,274.656 84.000,275.200 84.000 C 275.744 84.000,275.904 83.358,275.600 82.400 C 275.296 81.442,275.456 80.800,276.000 80.800 C 276.544 80.800,276.704 80.158,276.400 79.200 C 276.096 78.242,276.256 77.600,276.800 77.600 C 277.344 77.600,277.504 76.958,277.200 76.000 C 276.896 75.042,277.056 74.400,277.600 74.400 C 278.144 74.400,278.304 73.758,278.000 72.800 C 277.721 71.920,277.786 71.200,278.146 71.200 C 278.506 71.200,278.854 70.210,278.919 69.000 C 279.113 65.436,280.766 58.820,281.527 58.562 C 281.914 58.431,282.046 57.621,281.822 56.762 C 281.594 55.889,281.815 55.200,282.322 55.200 C 282.855 55.200,283.081 54.373,282.869 53.200 C 282.669 52.100,282.771 51.200,283.094 51.200 C 283.418 51.200,283.720 49.892,283.765 48.294 C 283.811 46.696,284.191 45.166,284.611 44.894 C 285.030 44.622,285.279 43.786,285.163 43.036 C 284.875 41.173,286.445 35.200,287.222 35.200 C 287.568 35.200,287.662 34.480,287.432 33.600 C 287.202 32.720,287.341 32.000,287.740 32.000 C 288.140 32.000,288.494 31.010,288.528 29.800 C 288.561 28.590,288.949 25.890,289.391 23.800 C 290.170 20.109,290.139 20.000,288.297 20.000 C 287.254 20.000,286.400 19.700,286.400 19.333 C 286.400 18.967,285.950 18.626,285.400 18.576 C 281.852 18.255,277.600 17.302,277.600 16.828 C 277.600 16.520,276.790 16.338,275.800 16.425 C 274.810 16.511,273.495 16.181,272.877 15.691 C 272.259 15.201,271.629 14.890,271.477 15.000 C 271.325 15.110,271.110 15.161,271.000 15.114 C 270.890 15.067,269.720 14.934,268.400 14.818 C 267.080 14.703,266.000 14.547,266.000 14.472 C 266.000 14.398,264.052 14.187,261.670 14.005 C 259.289 13.823,257.079 13.251,256.759 12.734 C 256.440 12.218,255.818 12.018,255.378 12.290 C 254.937 12.563,250.847 12.240,246.288 11.573 C 241.730 10.906,235.120 10.181,231.600 9.961 C 228.080 9.741,224.300 9.353,223.200 9.098 C 221.531 8.712,188.943 8.163,188.533 8.514 M207.051 28.200 L 206.800 36.400 214.400 36.151 L 222.000 35.902 222.000 43.151 L 222.000 50.400 214.600 50.400 L 207.200 50.400 207.200 58.831 L 207.200 67.262 200.200 67.031 L 193.200 66.800 192.972 58.600 L 192.744 50.400 185.141 50.400 L 177.538 50.400 177.769 43.400 L 178.000 36.400 185.600 36.400 L 193.200 36.400 192.949 28.200 L 192.697 20.000 200.000 20.000 L 207.303 20.000 207.051 28.200 M189.210 96.201 C 188.620 96.532,185.615 96.701,182.531 96.578 C 179.447 96.455,177.053 96.563,177.211 96.819 C 177.369 97.074,176.171 97.306,174.549 97.335 C 172.927 97.363,170.520 97.580,169.200 97.816 C 166.186 98.356,155.714 99.966,152.000 100.461 C 150.460 100.666,146.960 101.394,144.223 102.078 C 141.485 102.762,138.875 103.093,138.423 102.814 C 137.970 102.534,137.600 102.694,137.600 103.168 C 137.600 103.652,136.721 103.872,135.600 103.669 C 134.500 103.469,133.600 103.610,133.600 103.983 C 133.600 104.573,129.134 105.729,125.600 106.053 C 124.940 106.114,124.040 106.259,123.600 106.376 C 123.160 106.494,122.530 106.547,122.200 106.495 C 121.870 106.443,121.600 106.749,121.600 107.175 C 121.600 107.601,121.056 107.741,120.391 107.486 C 119.526 107.154,119.323 107.389,119.677 108.311 C 119.949 109.020,119.837 109.600,119.429 109.600 C 119.021 109.600,118.675 110.770,118.659 112.200 C 118.610 116.854,118.097 121.600,117.644 121.600 C 116.854 121.599,117.806 139.467,118.795 143.200 C 119.086 144.300,119.443 146.460,119.587 148.000 C 119.732 149.540,119.929 150.890,120.025 151.000 C 120.121 151.110,120.290 151.560,120.400 152.000 C 120.510 152.440,120.688 153.070,120.795 153.400 C 120.902 153.730,120.947 154.270,120.895 154.600 C 120.843 154.930,121.199 155.200,121.686 155.200 C 122.173 155.200,122.364 155.740,122.111 156.400 C 121.857 157.060,122.037 157.600,122.511 157.600 C 122.984 157.600,123.174 158.114,122.933 158.742 C 122.692 159.369,123.030 160.327,123.684 160.870 C 124.338 161.412,124.697 162.315,124.481 162.876 C 124.266 163.438,124.340 164.010,124.645 164.148 C 125.293 164.442,128.177 170.280,128.484 171.920 C 128.599 172.536,129.142 173.317,129.691 173.656 C 130.239 173.995,130.776 174.879,130.885 175.620 C 130.994 176.361,131.829 177.490,132.741 178.129 C 133.654 178.768,134.400 180.012,134.400 180.893 C 134.400 181.774,134.760 182.272,135.200 182.000 C 135.937 181.544,136.274 182.504,135.800 183.708 C 135.690 183.988,136.433 184.525,137.451 184.902 C 138.470 185.278,139.077 185.952,138.801 186.399 C 138.525 186.846,138.861 187.427,139.549 187.691 C 140.237 187.955,140.800 188.651,140.800 189.238 C 140.800 189.825,141.216 190.562,141.724 190.876 C 142.351 191.264,142.430 191.086,141.970 190.324 C 141.395 189.369,141.495 189.364,142.638 190.291 C 143.377 190.891,143.751 191.756,143.468 192.214 C 143.184 192.672,143.301 192.832,143.726 192.569 C 144.152 192.306,146.049 193.507,147.942 195.237 C 149.835 196.967,152.612 199.142,154.113 200.070 C 155.614 200.998,157.291 202.171,157.840 202.678 C 158.389 203.185,159.322 203.704,159.914 203.832 C 160.506 203.959,162.117 204.923,163.495 205.974 C 166.041 207.916,166.246 208.000,168.447 208.000 C 169.133 208.000,169.518 208.285,169.303 208.634 C 169.087 208.983,169.535 209.315,170.298 209.372 C 171.061 209.430,173.904 210.225,176.617 211.138 C 179.330 212.052,182.281 212.800,183.175 212.800 C 184.069 212.800,184.800 213.110,184.800 213.490 C 184.800 213.869,185.773 214.073,186.962 213.943 C 188.151 213.812,189.501 213.939,189.962 214.224 C 190.981 214.854,209.600 215.004,209.600 214.381 C 209.600 214.139,210.770 213.856,212.200 213.754 C 213.630 213.651,215.994 213.178,217.454 212.704 C 218.913 212.229,220.292 212.026,220.519 212.252 C 220.745 212.479,222.115 212.169,223.564 211.564 C 225.012 210.959,226.480 210.719,226.827 211.032 C 227.173 211.344,227.249 211.233,226.995 210.784 C 226.739 210.331,229.172 208.915,232.467 207.600 C 235.730 206.297,238.400 204.933,238.400 204.568 C 238.400 204.204,238.722 204.105,239.116 204.348 C 239.510 204.592,240.059 204.201,240.335 203.481 C 240.611 202.760,241.048 202.381,241.304 202.637 C 241.560 202.894,242.507 202.418,243.406 201.579 C 244.306 200.741,245.438 200.281,245.921 200.556 C 246.405 200.831,246.535 200.764,246.211 200.406 C 245.488 199.607,250.362 195.882,251.339 196.486 C 251.724 196.724,251.941 196.442,251.820 195.859 C 251.699 195.277,252.050 194.890,252.600 195.000 C 253.150 195.110,253.600 194.660,253.600 194.000 C 253.600 193.340,253.907 192.800,254.283 192.800 C 254.659 192.800,255.937 191.900,257.124 190.800 C 258.311 189.700,258.994 188.800,258.641 188.799 C 258.289 188.798,258.925 187.988,260.055 186.999 C 261.186 186.010,262.345 184.570,262.630 183.800 C 262.916 183.030,263.740 182.400,264.460 182.400 C 265.297 182.400,265.605 181.966,265.311 181.200 C 265.057 180.540,265.175 180.000,265.571 180.000 C 265.968 180.000,266.522 179.275,266.804 178.388 C 267.085 177.502,267.584 176.943,267.912 177.146 C 268.241 177.349,268.958 176.274,269.506 174.757 C 270.055 173.241,270.862 172.000,271.299 172.000 C 271.736 172.000,271.912 171.705,271.689 171.343 C 271.466 170.982,271.984 169.534,272.841 168.124 C 273.699 166.715,274.400 165.009,274.400 164.333 C 274.400 163.609,274.779 163.340,275.324 163.676 C 275.903 164.035,276.030 163.895,275.663 163.302 C 275.341 162.782,275.808 160.836,276.699 158.978 C 277.591 157.120,278.489 154.642,278.694 153.470 C 278.900 152.299,279.440 150.646,279.894 149.798 C 280.348 148.949,280.735 147.568,280.754 146.728 C 280.772 145.887,281.167 142.320,281.632 138.800 C 282.769 130.182,283.082 120.822,282.251 120.308 C 281.879 120.078,281.729 119.638,281.919 119.332 C 282.236 118.818,281.429 113.356,280.388 108.967 C 280.149 107.959,279.629 107.335,279.232 107.580 C 278.835 107.826,278.281 107.654,278.000 107.200 C 277.719 106.746,277.154 106.581,276.745 106.834 C 276.335 107.087,276.000 107.003,276.000 106.647 C 276.000 106.291,275.010 105.959,273.800 105.909 C 272.590 105.860,270.700 105.568,269.600 105.262 C 268.500 104.956,266.520 104.514,265.200 104.281 C 263.880 104.047,262.679 103.526,262.532 103.123 C 262.384 102.720,261.920 102.602,261.501 102.861 C 260.718 103.345,253.343 101.895,251.200 100.836 C 250.540 100.510,249.292 100.348,248.427 100.476 C 247.562 100.604,246.408 100.339,245.862 99.886 C 245.317 99.433,244.487 99.299,244.019 99.588 C 243.552 99.877,241.971 99.718,240.506 99.235 C 239.042 98.752,235.359 98.163,232.322 97.927 C 225.474 97.394,222.915 97.112,222.400 96.834 C 222.180 96.715,219.120 96.517,215.600 96.393 C 196.000 95.702,190.176 95.659,189.210 96.201 M266.112 201.014 C 265.848 202.023,265.341 202.349,264.654 201.952 C 264.074 201.617,263.843 201.614,264.140 201.946 C 264.813 202.695,260.890 207.200,259.565 207.200 C 259.032 207.200,258.101 207.904,257.498 208.764 C 256.894 209.624,255.860 210.434,255.200 210.564 C 254.540 210.694,253.525 211.436,252.945 212.213 C 252.365 212.991,251.555 213.419,251.145 213.166 C 250.735 212.913,250.400 213.080,250.400 213.537 C 250.400 214.652,244.365 217.682,243.571 216.966 C 243.226 216.655,243.170 216.797,243.447 217.283 C 244.053 218.347,240.241 220.243,239.016 219.487 C 238.534 219.188,238.382 219.323,238.672 219.793 C 239.259 220.743,237.042 221.844,235.928 221.155 C 235.528 220.908,235.200 221.052,235.200 221.475 C 235.200 222.336,230.363 224.230,229.744 223.611 C 229.526 223.392,228.864 223.615,228.274 224.105 C 227.683 224.595,227.194 224.682,227.188 224.298 C 227.181 223.914,226.911 224.014,226.588 224.520 C 226.264 225.026,224.560 225.663,222.800 225.936 C 221.040 226.209,218.340 226.870,216.800 227.404 C 214.939 228.050,209.441 228.317,200.400 228.199 C 183.434 227.977,183.200 227.964,183.200 227.215 C 183.200 226.661,181.421 226.388,177.400 226.323 C 176.630 226.311,176.000 225.974,176.000 225.575 C 176.000 225.177,175.488 225.047,174.863 225.287 C 174.237 225.527,172.887 225.259,171.863 224.692 C 170.838 224.124,169.730 223.737,169.400 223.830 C 169.070 223.924,168.800 223.619,168.800 223.153 C 168.800 222.687,168.455 222.519,168.033 222.780 C 167.610 223.041,166.620 222.887,165.833 222.438 C 165.045 221.989,162.330 220.737,159.800 219.655 C 157.270 218.573,155.200 217.287,155.200 216.797 C 155.200 216.307,154.840 216.128,154.400 216.400 C 153.960 216.672,153.600 216.513,153.600 216.047 C 153.600 215.581,153.069 215.200,152.419 215.200 C 150.840 215.200,146.613 212.588,146.717 211.676 C 146.763 211.278,146.172 210.860,145.406 210.748 C 143.376 210.450,137.600 205.668,137.600 204.286 C 137.600 203.637,137.288 203.298,136.907 203.534 C 136.526 203.770,135.570 203.251,134.783 202.381 C 133.420 200.876,131.514 200.134,132.259 201.400 C 132.453 201.730,132.241 202.900,131.787 204.000 C 131.333 205.100,130.860 206.504,130.734 207.120 C 130.609 207.736,130.212 208.456,129.853 208.720 C 129.125 209.255,128.673 211.476,128.739 214.200 C 128.763 215.190,128.515 216.000,128.189 216.000 C 127.635 216.000,127.468 217.271,127.162 223.800 C 127.095 225.230,126.806 226.400,126.520 226.400 C 126.234 226.400,125.963 230.129,125.917 234.687 L 125.833 242.974 129.717 244.032 C 131.853 244.613,133.600 245.444,133.600 245.878 C 133.600 246.312,133.810 246.457,134.067 246.200 C 134.323 245.943,135.236 246.436,136.096 247.296 C 136.955 248.155,137.951 248.678,138.308 248.457 C 138.665 248.236,139.656 248.673,140.510 249.428 C 141.364 250.182,142.552 250.908,143.151 251.040 C 143.750 251.172,145.536 252.590,147.120 254.190 C 148.704 255.791,149.494 256.797,148.876 256.426 C 148.109 255.966,147.936 256.050,148.332 256.689 C 148.650 257.205,149.217 257.437,149.591 257.205 C 150.419 256.694,153.600 260.584,153.600 262.108 C 153.600 262.709,154.161 263.200,154.847 263.200 C 155.533 263.200,155.912 263.494,155.690 263.854 C 155.468 264.214,156.076 265.388,157.043 266.464 C 160.452 270.257,161.358 271.595,160.000 270.836 C 159.340 270.467,159.610 270.952,160.600 271.914 C 162.572 273.829,162.973 274.829,161.400 273.910 C 160.850 273.588,161.031 274.046,161.802 274.927 C 162.573 275.809,162.963 276.771,162.668 277.065 C 162.374 277.359,162.524 277.600,163.002 277.600 C 163.749 277.600,166.258 283.733,166.698 286.635 C 166.779 287.166,167.130 288.056,167.478 288.613 C 168.089 289.591,168.742 292.267,169.184 295.600 C 169.300 296.480,169.465 297.200,169.549 297.200 C 169.633 297.200,169.838 298.280,170.004 299.600 C 170.171 300.920,170.641 303.937,171.050 306.304 C 171.898 311.213,171.685 330.462,170.737 334.507 C 170.390 335.988,170.065 337.560,170.015 338.000 C 169.547 342.130,168.489 346.400,167.934 346.400 C 167.558 346.400,167.457 346.940,167.711 347.600 C 167.964 348.260,167.863 348.800,167.486 348.801 C 167.109 348.801,166.743 349.780,166.674 350.976 C 166.604 352.172,166.174 353.275,165.719 353.427 C 165.263 353.579,165.088 354.220,165.331 354.852 C 165.573 355.483,165.313 356.000,164.752 356.000 C 164.192 356.000,163.958 356.225,164.232 356.499 C 165.555 357.822,159.398 366.024,156.647 366.603 C 156.133 366.711,155.074 367.317,154.292 367.948 C 152.765 369.181,150.933 369.727,148.437 369.695 C 147.577 369.684,146.487 369.996,146.013 370.389 C 145.024 371.210,140.000 371.229,140.000 370.412 C 140.000 370.112,139.543 369.867,138.984 369.867 C 137.961 369.867,131.200 365.680,131.200 365.046 C 131.200 364.859,131.650 364.960,132.200 365.270 C 132.750 365.581,132.390 365.048,131.400 364.086 C 130.410 363.125,129.554 362.082,129.498 361.769 C 129.442 361.456,129.287 360.480,129.155 359.600 C 129.022 358.720,128.715 357.119,128.472 356.041 C 127.922 353.600,129.524 347.955,131.168 346.541 C 132.216 345.640,132.221 345.559,131.200 346.002 C 130.540 346.288,130.850 345.774,131.889 344.861 C 132.927 343.947,133.489 343.200,133.136 343.200 C 131.828 343.200,135.652 340.850,137.000 340.825 C 137.770 340.811,138.400 340.500,138.400 340.133 C 138.400 339.767,138.850 339.434,139.400 339.394 C 139.950 339.354,141.480 339.158,142.800 338.958 C 144.120 338.758,146.881 339.028,148.935 339.557 C 153.020 340.610,154.258 339.529,154.842 334.400 C 154.967 333.300,155.299 330.420,155.580 328.000 C 155.860 325.580,156.082 322.160,156.073 320.400 C 156.054 316.460,155.445 306.000,155.235 306.000 C 154.958 306.000,154.174 302.041,154.086 300.200 C 154.039 299.210,153.779 298.400,153.509 298.400 C 153.239 298.400,153.080 297.590,153.156 296.600 C 153.231 295.610,152.989 294.388,152.618 293.884 C 152.247 293.381,152.046 292.550,152.172 292.040 C 152.399 291.113,144.580 287.430,140.817 286.692 C 139.726 286.478,138.646 286.032,138.417 285.702 C 138.188 285.372,137.280 285.071,136.400 285.034 C 135.520 284.998,133.900 284.721,132.800 284.421 C 129.878 283.623,108.800 283.424,108.800 284.195 C 108.800 284.555,107.630 284.774,106.200 284.682 C 104.770 284.589,102.843 284.922,101.917 285.422 C 100.391 286.246,96.320 286.995,92.553 287.143 C 91.670 287.178,91.328 287.560,91.676 288.124 C 92.031 288.698,91.896 288.830,91.317 288.473 C 90.806 288.157,89.804 288.482,89.091 289.195 C 88.377 289.908,87.281 290.295,86.655 290.055 C 86.025 289.813,85.735 289.971,86.006 290.409 C 86.274 290.844,86.124 291.200,85.672 291.200 C 85.220 291.200,85.057 291.740,85.311 292.400 C 85.564 293.060,85.351 293.600,84.838 293.600 C 84.325 293.600,84.095 293.907,84.327 294.281 C 84.818 295.077,82.905 305.038,82.364 304.498 C 81.924 304.057,81.687 308.900,81.625 319.600 C 81.580 327.519,81.730 329.336,82.812 334.000 C 83.119 335.320,83.552 337.580,83.775 339.023 C 84.056 340.840,84.460 341.425,85.090 340.926 C 87.144 339.301,94.247 338.077,95.516 339.130 C 96.184 339.684,97.065 339.931,97.474 339.678 C 97.884 339.425,98.660 339.750,99.200 340.400 C 99.740 341.050,100.501 341.385,100.891 341.144 C 101.281 340.903,101.600 341.087,101.600 341.553 C 101.600 342.019,102.084 342.400,102.676 342.400 C 104.023 342.400,106.839 345.428,106.141 346.126 C 105.857 346.410,106.166 347.038,106.828 347.522 C 109.809 349.701,108.239 364.800,105.031 364.800 C 104.412 364.800,104.110 365.131,104.360 365.536 C 104.928 366.454,100.871 369.738,99.906 369.142 C 99.518 368.902,99.200 369.027,99.200 369.419 C 99.200 370.262,97.806 370.487,92.400 370.513 C 88.212 370.534,80.278 367.882,80.569 366.558 C 80.661 366.134,80.121 365.836,79.369 365.894 C 78.616 365.952,78.090 365.550,78.200 365.000 C 78.310 364.450,77.800 364.000,77.067 364.000 C 76.333 364.000,75.958 363.775,76.233 363.501 C 76.507 363.226,75.994 362.404,75.092 361.674 C 74.190 360.943,73.396 359.402,73.326 358.250 C 73.257 357.097,72.930 356.320,72.600 356.524 C 72.270 356.728,72.000 356.513,72.000 356.047 C 72.000 354.635,71.968 354.519,70.833 351.803 C 69.545 348.719,66.414 335.517,66.421 333.200 C 66.424 332.320,66.281 326.020,66.103 319.200 C 65.925 312.380,66.082 306.423,66.452 305.963 C 66.822 305.503,67.110 304.423,67.091 303.563 C 67.072 302.703,67.269 300.740,67.528 299.200 C 67.787 297.660,68.188 295.016,68.419 293.323 C 68.649 291.631,69.379 289.201,70.040 287.923 C 70.700 286.646,71.057 285.600,70.832 285.600 C 70.120 285.600,73.668 277.268,75.063 275.662 C 75.798 274.817,75.954 274.386,75.409 274.704 C 74.741 275.095,74.573 274.881,74.893 274.046 C 75.154 273.366,75.690 273.008,76.084 273.252 C 76.478 273.495,76.800 273.133,76.800 272.447 C 76.800 271.761,77.181 271.200,77.647 271.200 C 78.113 271.200,78.260 270.821,77.974 270.358 C 77.687 269.894,78.116 268.904,78.927 268.158 C 79.737 267.411,80.499 266.323,80.620 265.741 C 80.987 263.972,84.209 260.035,84.927 260.479 C 85.297 260.707,85.600 260.153,85.600 259.247 C 85.600 258.341,85.895 257.600,86.256 257.600 C 86.616 257.600,88.949 255.673,91.440 253.318 C 95.705 249.284,105.978 243.312,106.961 244.294 C 108.544 245.877,110.289 242.943,110.344 238.603 C 110.453 230.070,110.929 222.022,111.540 218.400 C 111.875 216.420,112.136 214.162,112.122 213.383 C 112.108 212.603,112.363 212.130,112.688 212.331 C 113.014 212.532,113.280 211.820,113.280 210.748 C 113.280 208.392,113.499 208.403,109.368 210.554 C 107.516 211.518,105.487 212.396,104.860 212.503 C 104.233 212.611,103.405 213.262,103.020 213.950 C 102.635 214.637,101.940 215.200,101.476 215.200 C 101.011 215.200,99.561 216.100,98.254 217.200 C 96.947 218.300,95.368 219.200,94.746 219.200 C 94.123 219.200,92.621 220.223,91.407 221.474 C 90.193 222.725,88.150 224.426,86.866 225.254 C 84.174 226.991,82.330 228.533,76.673 233.784 C 74.430 235.865,72.306 237.389,71.953 237.171 C 71.600 236.953,71.050 237.195,70.732 237.711 C 70.342 238.340,70.502 238.431,71.219 237.988 C 71.806 237.626,70.368 239.352,68.024 241.825 C 65.680 244.298,63.383 246.249,62.918 246.160 C 62.453 246.072,62.025 246.360,61.967 246.800 C 61.719 248.681,60.548 250.400,59.514 250.400 C 58.901 250.400,58.490 250.850,58.600 251.400 C 58.710 251.950,58.350 252.310,57.800 252.200 C 57.250 252.090,56.890 252.450,57.000 253.000 C 57.110 253.550,56.660 253.880,56.000 253.733 C 55.340 253.587,55.058 253.725,55.374 254.040 C 55.976 254.643,53.292 258.543,52.374 258.399 C 52.082 258.353,51.127 259.652,50.252 261.285 C 49.377 262.917,48.153 264.762,47.531 265.384 C 46.909 266.005,46.400 266.870,46.400 267.304 C 46.400 267.739,46.031 267.866,45.580 267.588 C 45.129 267.309,44.846 267.378,44.950 267.741 C 45.278 268.881,43.058 272.468,39.800 276.057 C 39.030 276.906,38.400 278.101,38.400 278.714 C 38.400 279.327,37.860 280.036,37.200 280.289 C 36.540 280.543,36.000 281.285,36.000 281.939 C 36.000 282.594,35.100 284.455,34.000 286.076 C 32.900 287.697,32.000 289.534,32.000 290.159 C 32.000 290.783,31.640 291.072,31.200 290.800 C 30.520 290.380,30.010 292.299,30.600 293.057 C 30.710 293.199,30.170 293.944,29.400 294.714 C 28.630 295.484,28.000 296.809,28.000 297.657 C 28.000 298.506,27.719 299.200,27.375 299.200 C 26.797 299.200,25.021 303.051,25.145 304.035 C 25.175 304.275,24.562 305.445,23.782 306.635 C 23.001 307.826,22.559 308.800,22.798 308.800 C 23.037 308.800,22.432 310.330,21.455 312.200 C 20.477 314.070,19.762 315.908,19.866 316.284 C 19.971 316.661,19.687 317.414,19.235 317.958 C 18.783 318.502,18.651 319.184,18.940 319.474 C 19.230 319.763,19.107 320.000,18.667 320.000 C 18.227 320.000,17.836 320.450,17.798 321.000 C 17.655 323.060,16.816 325.898,16.219 326.341 C 15.649 326.764,15.493 327.425,15.024 331.400 C 14.934 332.170,14.555 332.800,14.183 332.800 C 13.810 332.800,13.728 333.160,14.000 333.600 C 14.272 334.040,14.163 334.400,13.758 334.400 C 13.353 334.400,13.204 335.354,13.427 336.519 C 13.650 337.684,13.510 338.439,13.116 338.195 C 12.722 337.952,12.344 338.528,12.276 339.476 C 12.121 341.647,10.697 348.400,10.395 348.400 C 10.325 348.400,10.144 349.840,9.993 351.600 C 9.841 353.360,9.348 357.066,8.897 359.836 C 8.446 362.605,8.222 365.305,8.398 365.836 C 8.574 366.366,8.873 368.664,9.062 370.941 C 9.268 373.413,10.091 376.042,11.104 377.465 C 12.037 378.775,12.800 380.241,12.800 380.723 C 12.800 381.206,13.075 381.600,13.410 381.600 C 13.746 381.600,14.376 382.383,14.810 383.339 C 15.245 384.295,16.320 385.176,17.200 385.297 C 18.080 385.417,19.570 386.480,20.511 387.660 C 21.453 388.839,22.598 389.572,23.056 389.289 C 23.514 389.006,24.116 389.140,24.392 389.587 C 24.668 390.034,25.773 390.400,26.847 390.400 C 27.921 390.400,28.800 390.670,28.800 391.000 C 28.800 391.448,364.713 391.391,372.200 390.941 C 372.970 390.895,373.600 390.574,373.600 390.229 C 373.600 389.883,373.870 389.643,374.200 389.695 C 375.926 389.967,377.640 389.512,377.252 388.884 C 377.008 388.490,377.366 387.954,378.046 387.693 C 378.816 387.397,379.080 387.547,378.745 388.089 C 378.380 388.680,378.760 388.664,379.926 388.040 C 380.871 387.534,381.439 386.786,381.186 386.378 C 380.934 385.970,382.166 384.638,383.924 383.418 C 386.927 381.334,389.223 378.490,386.991 379.618 C 386.446 379.893,386.624 379.606,387.388 378.980 C 388.151 378.354,388.592 377.659,388.368 377.435 C 388.144 377.211,388.489 376.590,389.133 376.056 C 389.778 375.521,390.108 374.569,389.867 373.942 C 389.626 373.314,389.755 372.800,390.154 372.800 C 390.992 372.800,391.199 371.090,391.172 364.400 C 391.143 357.194,390.867 354.400,390.184 354.400 C 389.846 354.400,389.746 353.425,389.962 352.233 C 390.178 351.041,390.001 349.848,389.570 349.581 C 389.138 349.315,388.699 347.592,388.593 345.752 C 388.487 343.913,388.088 342.406,387.707 342.404 C 387.325 342.402,387.187 341.491,387.399 340.381 C 387.612 339.270,387.449 338.154,387.038 337.900 C 386.627 337.646,386.480 336.946,386.711 336.345 C 386.941 335.743,386.780 335.035,386.352 334.770 C 385.924 334.506,385.781 333.954,386.034 333.545 C 386.287 333.135,386.181 332.800,385.798 332.800 C 385.063 332.800,382.738 325.142,382.928 323.347 C 382.990 322.767,382.836 322.497,382.587 322.747 C 382.132 323.201,378.285 313.281,378.186 311.400 C 378.157 310.850,377.878 310.400,377.567 310.400 C 376.945 310.400,375.681 305.682,375.960 304.400 C 376.055 303.960,375.857 303.876,375.520 304.213 C 374.775 304.958,372.625 300.130,373.251 299.117 C 373.495 298.723,373.322 298.400,372.868 298.400 C 371.879 298.400,369.289 293.645,369.929 293.005 C 370.174 292.759,369.821 292.153,369.143 291.657 C 368.465 291.162,367.827 290.226,367.725 289.578 C 367.622 288.930,366.371 286.800,364.944 284.844 C 363.516 282.889,362.536 280.800,362.765 280.203 C 362.994 279.606,362.826 279.337,362.391 279.606 C 361.956 279.874,361.600 279.589,361.600 278.971 C 361.600 278.353,360.878 277.194,359.995 276.396 C 359.112 275.597,358.535 274.799,358.711 274.622 C 358.888 274.446,358.177 273.378,357.131 272.250 C 356.085 271.122,355.411 269.906,355.632 269.549 C 355.853 269.191,355.396 268.527,354.617 268.073 C 353.838 267.620,353.523 267.238,353.917 267.224 C 354.311 267.211,353.771 266.361,352.717 265.337 C 351.663 264.312,350.259 262.782,349.599 261.937 C 348.938 261.091,347.051 258.747,345.406 256.726 C 343.760 254.706,342.681 252.758,343.007 252.398 C 343.333 252.038,343.204 251.969,342.721 252.244 C 341.757 252.793,338.240 249.226,338.998 248.468 C 339.256 248.211,338.807 248.000,338.000 248.000 C 337.193 248.000,336.738 247.795,336.988 247.545 C 337.238 247.295,335.048 244.899,332.121 242.220 C 325.772 236.408,324.665 235.289,326.800 236.839 C 328.280 237.913,328.317 237.895,327.296 236.593 C 326.689 235.819,324.813 234.411,323.129 233.464 C 321.444 232.517,320.252 231.440,320.480 231.071 C 320.708 230.702,320.478 230.400,319.968 230.400 C 319.459 230.400,317.933 229.230,316.577 227.800 C 315.221 226.370,314.401 225.687,314.754 226.283 C 315.181 227.003,314.695 226.906,313.305 225.995 C 312.155 225.242,311.446 224.249,311.730 223.789 C 312.015 223.329,311.874 223.183,311.419 223.465 C 310.963 223.746,309.231 222.896,307.570 221.576 C 305.908 220.256,303.255 218.384,301.674 217.418 C 300.094 216.451,298.324 215.196,297.743 214.630 C 297.161 214.063,296.192 213.600,295.588 213.600 C 294.985 213.600,293.930 212.800,293.245 211.822 C 291.679 209.585,291.514 210.244,292.333 215.472 C 293.917 225.583,294.604 262.691,293.365 271.200 C 291.791 282.010,291.254 288.861,292.018 288.389 C 292.377 288.167,293.153 288.468,293.743 289.057 C 294.332 289.646,295.311 289.963,295.918 289.761 C 296.550 289.550,296.799 289.755,296.500 290.239 C 296.212 290.704,296.789 291.343,297.783 291.658 C 300.043 292.375,304.043 296.083,303.502 296.958 C 303.280 297.318,303.659 297.826,304.345 298.089 C 305.030 298.352,305.415 298.852,305.200 299.200 C 304.985 299.548,305.370 300.048,306.055 300.311 C 306.741 300.574,307.077 301.151,306.803 301.594 C 306.530 302.037,306.658 302.400,307.089 302.400 C 307.520 302.400,308.123 303.570,308.429 305.000 C 308.735 306.430,309.376 308.084,309.854 308.677 C 310.981 310.073,311.282 320.901,310.229 322.190 C 309.785 322.734,309.616 323.689,309.855 324.312 C 310.094 324.934,310.045 325.689,309.745 325.988 C 309.445 326.288,309.180 326.773,309.155 327.067 C 308.917 329.879,307.522 333.060,305.749 334.833 C 304.567 336.015,303.600 337.253,303.600 337.583 C 303.600 337.914,302.430 339.382,301.000 340.844 C 299.570 342.307,298.400 343.241,298.400 342.921 C 298.400 342.600,297.612 343.072,296.649 343.969 C 295.101 345.411,294.092 345.773,292.289 345.532 C 292.009 345.494,291.517 345.888,291.196 346.406 C 290.875 346.925,289.374 347.432,287.859 347.533 C 286.344 347.635,284.732 347.948,284.276 348.229 C 283.821 348.511,282.042 348.554,280.324 348.325 C 278.606 348.097,276.370 347.928,275.356 347.949 C 274.342 347.971,273.712 347.665,273.957 347.269 C 274.202 346.873,273.625 346.752,272.676 347.001 C 271.493 347.310,271.130 347.161,271.522 346.526 C 271.894 345.925,271.433 345.600,270.207 345.600 C 269.169 345.600,267.946 345.226,267.488 344.768 C 267.031 344.311,265.429 343.262,263.928 342.438 C 262.428 341.615,261.299 340.522,261.420 340.011 C 261.541 339.499,261.272 339.308,260.823 339.586 C 260.374 339.863,259.587 339.170,259.075 338.045 C 258.562 336.920,257.820 336.000,257.424 336.000 C 257.029 336.000,256.905 335.678,257.148 335.284 C 257.392 334.890,257.036 334.355,256.358 334.095 C 255.680 333.834,255.184 333.167,255.257 332.611 C 255.519 330.613,255.187 329.514,254.458 329.964 C 253.022 330.852,251.795 324.468,251.772 316.000 C 251.756 310.188,252.457 307.689,256.235 300.096 C 257.668 297.215,263.249 291.136,264.022 291.613 C 264.396 291.845,265.073 291.396,265.527 290.617 C 265.980 289.838,266.368 289.560,266.388 290.000 C 266.408 290.440,266.725 290.326,267.092 289.747 C 267.459 289.168,269.145 288.218,270.838 287.636 C 274.075 286.523,275.766 283.541,276.170 278.231 C 276.269 276.937,276.570 275.742,276.839 275.576 C 277.108 275.409,277.260 273.627,277.176 271.615 C 277.092 269.602,277.259 267.810,277.547 267.632 C 278.133 267.271,277.915 232.605,277.296 227.600 C 276.701 222.789,275.261 209.632,274.931 206.000 C 274.698 203.424,274.189 202.566,272.321 201.600 C 271.044 200.940,269.820 200.184,269.600 199.921 C 268.717 198.864,266.492 199.561,266.112 201.014 M112.000 260.247 C 112.000 260.645,111.441 260.757,110.758 260.495 C 109.968 260.191,109.718 260.343,110.070 260.913 C 110.401 261.448,110.183 261.661,109.529 261.443 C 108.927 261.242,107.714 261.750,106.833 262.570 C 105.952 263.391,104.415 264.267,103.416 264.518 C 102.417 264.768,101.600 265.444,101.600 266.020 C 101.600 266.596,101.150 267.242,100.600 267.456 C 100.050 267.671,101.760 267.654,104.400 267.418 C 117.079 266.289,129.670 266.625,136.600 268.279 C 137.590 268.515,138.400 268.369,138.400 267.954 C 138.400 267.539,137.839 267.200,137.153 267.200 C 136.467 267.200,136.128 266.840,136.400 266.400 C 136.672 265.960,136.233 265.600,135.424 265.600 C 134.615 265.600,133.448 264.899,132.831 264.043 C 132.214 263.186,131.414 262.668,131.054 262.890 C 130.694 263.112,130.400 262.913,130.400 262.447 C 130.400 261.981,129.572 261.600,128.560 261.600 C 127.548 261.600,126.287 261.167,125.758 260.638 C 124.628 259.508,112.000 259.149,112.000 260.247 M283.945 304.317 C 283.755 304.505,281.826 304.767,279.657 304.899 C 275.271 305.167,270.400 308.942,270.400 312.074 C 270.400 312.965,270.130 313.527,269.800 313.322 C 268.876 312.749,269.383 321.575,270.341 322.729 C 270.806 323.289,270.949 323.984,270.660 324.274 C 270.370 324.563,270.553 324.800,271.067 324.800 C 271.580 324.800,272.000 325.400,272.000 326.133 C 272.000 326.867,272.227 327.239,272.505 326.961 C 273.168 326.299,276.154 327.904,275.681 328.669 C 275.481 328.992,275.921 329.288,276.659 329.326 C 277.396 329.364,279.346 329.594,280.991 329.836 C 282.636 330.079,284.191 329.939,284.446 329.525 C 284.702 329.112,285.274 328.999,285.719 329.274 C 286.164 329.549,287.064 329.008,287.719 328.073 C 288.374 327.138,289.300 326.615,289.778 326.910 C 290.274 327.216,290.419 327.078,290.116 326.588 C 289.824 326.116,290.129 325.186,290.793 324.522 C 291.457 323.858,292.000 322.770,292.000 322.104 C 292.000 321.439,292.290 320.715,292.644 320.497 C 295.160 318.941,290.505 307.039,286.945 305.929 C 285.985 305.629,284.995 305.067,284.745 304.680 C 284.495 304.293,284.135 304.130,283.945 304.317 " stroke="none" fill="#555555" fill-rule="evenodd"></path></g></svg>