<svg style="display: block;" id="svg" version="1.1" width="500" height="684" xmlns="http://www.w3.org/2000/svg" xmlns:xlink="http://www.w3.org/1999/xlink"><g id="svgg"><path id="path0" d="M263.072 13.194 C 262.855 13.411,214.574 13.596,155.779 13.606 C 96.985 13.615,48.693 13.926,48.464 14.297 C 48.234 14.668,45.884 15.430,43.241 15.991 C 40.598 16.552,38.605 17.284,38.811 17.618 C 39.017 17.952,37.975 18.452,36.496 18.729 C 35.016 19.007,32.984 19.946,31.980 20.817 C 30.977 21.688,29.709 22.400,29.163 22.400 C 28.618 22.400,27.964 22.940,27.711 23.600 C 27.457 24.260,26.848 24.800,26.355 24.800 C 25.250 24.800,17.645 32.403,15.752 35.400 C 14.988 36.610,14.534 37.600,14.743 37.600 C 14.952 37.600,14.257 38.535,13.198 39.677 C 12.139 40.820,10.845 43.070,10.323 44.677 C 9.800 46.285,8.886 48.307,8.291 49.171 C 7.696 50.035,6.981 52.465,6.702 54.571 C 6.422 56.677,5.880 58.400,5.497 58.400 C 5.103 58.400,4.800 151.883,4.800 273.600 C 4.800 416.533,5.069 488.800,5.600 488.800 C 6.040 488.800,6.400 489.857,6.400 491.148 C 6.400 492.439,6.818 494.509,7.328 495.748 C 7.839 496.987,8.175 498.486,8.075 499.080 C 7.975 499.674,8.277 499.923,8.746 499.633 C 9.259 499.316,9.600 499.860,9.600 500.996 C 9.600 502.665,10.585 504.420,16.120 512.614 C 17.882 515.223,27.422 524.781,28.274 524.792 C 28.644 524.796,29.863 525.520,30.982 526.400 C 32.100 527.280,33.699 528.000,34.533 528.000 C 35.367 528.000,36.244 528.505,36.481 529.121 C 36.717 529.738,38.233 530.491,39.849 530.794 C 41.465 531.097,43.151 531.572,43.594 531.850 C 44.037 532.128,44.760 532.436,45.200 532.535 C 45.640 532.635,47.080 533.005,48.400 533.358 C 52.926 534.569,351.166 534.150,351.919 532.932 C 352.282 532.344,352.809 531.898,353.091 531.941 C 354.681 532.182,360.000 530.880,360.000 530.251 C 360.000 529.841,360.360 529.728,360.800 530.000 C 361.240 530.272,361.600 530.152,361.600 529.734 C 361.600 529.316,362.555 528.734,363.723 528.441 C 367.838 527.408,378.560 518.531,382.230 513.119 C 382.796 512.283,383.011 512.106,382.706 512.724 C 382.342 513.462,382.474 513.649,383.089 513.268 C 383.605 512.950,383.861 512.422,383.659 512.095 C 383.456 511.768,384.149 510.502,385.197 509.282 C 386.245 508.062,387.334 506.012,387.616 504.725 C 387.899 503.439,388.461 502.590,388.865 502.840 C 389.269 503.090,389.600 502.417,389.600 501.345 C 389.600 500.273,390.116 498.968,390.746 498.445 C 391.377 497.921,391.890 496.887,391.886 496.147 C 391.883 495.406,392.258 493.360,392.721 491.600 C 393.296 489.411,393.568 433.881,393.581 315.858 L 393.600 143.316 391.600 141.743 C 390.500 140.878,389.600 139.903,389.600 139.577 C 389.600 138.745,385.679 135.200,384.759 135.200 C 384.341 135.200,384.000 134.669,384.000 134.021 C 384.000 133.372,382.920 132.283,381.600 131.600 C 380.280 130.917,379.200 130.167,379.200 129.932 C 379.200 129.698,379.535 129.712,379.944 129.965 C 380.353 130.218,372.073 121.793,361.544 111.243 C 351.015 100.693,342.400 91.729,342.400 91.324 C 342.400 90.918,341.644 90.389,340.720 90.147 C 339.795 89.905,339.250 89.366,339.508 88.949 C 339.766 88.532,338.742 87.344,337.233 86.311 C 335.725 85.277,334.323 83.794,334.120 83.015 C 333.916 82.237,333.176 81.600,332.475 81.600 C 331.774 81.600,331.200 81.238,331.200 80.795 C 331.200 79.784,324.171 72.800,323.153 72.800 C 322.739 72.800,322.400 72.422,322.400 71.960 C 322.400 71.499,314.570 63.283,305.000 53.703 C 295.430 44.123,285.800 34.334,283.600 31.950 C 281.400 29.565,279.341 27.697,279.024 27.799 C 278.707 27.901,278.110 27.353,277.697 26.582 C 276.801 24.907,269.600 17.078,269.600 17.779 C 269.600 18.047,268.333 17.037,266.785 15.533 C 263.813 12.647,263.695 12.572,263.072 13.194 M251.292 87.000 C 251.343 108.010,251.317 125.851,251.234 126.648 C 251.151 127.444,251.448 128.535,251.894 129.073 C 252.340 129.610,252.881 131.022,253.097 132.210 C 253.312 133.398,254.054 135.177,254.744 136.163 C 255.435 137.149,256.000 138.469,256.000 139.096 C 256.000 141.001,263.299 149.420,267.188 152.000 C 268.182 152.660,269.415 153.599,269.927 154.087 C 270.440 154.574,272.286 155.472,274.029 156.082 C 275.773 156.692,277.457 157.553,277.770 157.996 C 278.136 158.511,292.586 158.882,317.970 159.029 L 357.600 159.257 357.600 161.629 C 357.600 162.933,357.962 164.000,358.404 164.000 C 358.940 164.000,359.204 217.497,359.196 324.442 C 359.189 424.346,358.901 484.710,358.433 484.420 C 358.019 484.165,357.443 485.226,357.151 486.778 C 356.860 488.330,356.294 489.600,355.894 489.600 C 355.493 489.600,354.771 490.466,354.289 491.525 C 353.806 492.583,352.104 494.113,350.506 494.925 C 348.908 495.736,347.343 496.760,347.029 497.200 C 346.072 498.541,55.544 498.693,52.895 497.354 C 47.777 494.766,43.600 491.563,43.600 490.226 C 43.600 489.910,42.880 488.830,42.000 487.826 C 39.529 485.006,39.070 65.737,41.533 60.968 C 43.334 57.480,48.048 52.193,49.667 51.844 C 50.290 51.710,51.033 51.279,51.317 50.888 C 52.553 49.183,63.084 48.979,154.600 48.892 L 251.200 48.800 251.292 87.000 M75.682 74.808 C 74.847 75.435,73.875 75.770,73.522 75.552 C 73.169 75.334,72.484 75.895,72.000 76.800 C 71.516 77.705,70.778 78.233,70.360 77.975 C 69.942 77.717,69.600 77.861,69.600 78.296 C 69.600 78.730,68.970 79.715,68.200 80.485 C 65.821 82.863,65.627 175.190,67.990 180.378 C 68.898 182.370,70.171 184.000,70.820 184.000 C 71.469 184.000,72.000 184.293,72.000 184.652 C 72.000 185.010,73.259 185.904,74.798 186.638 C 77.911 188.122,167.200 188.739,167.200 187.276 C 167.200 186.892,168.370 186.345,169.800 186.060 C 172.809 185.460,176.800 180.792,176.800 177.871 C 176.800 176.842,177.148 176.000,177.574 176.000 C 179.043 176.000,178.648 89.501,177.156 84.367 C 176.458 81.965,175.613 80.000,175.278 80.000 C 174.944 80.000,174.189 79.101,173.601 78.001 C 173.012 76.902,172.377 76.156,172.189 76.344 C 172.001 76.533,170.621 75.998,169.124 75.157 C 165.476 73.108,78.377 72.783,75.682 74.808 M149.600 130.800 L 149.600 159.200 121.600 159.200 L 93.600 159.200 93.600 130.800 L 93.600 102.400 121.600 102.400 L 149.600 102.400 149.600 130.800 M74.600 218.165 C 73.610 218.355,72.800 218.846,72.800 219.256 C 72.800 219.665,72.414 220.000,71.943 220.000 C 70.867 220.000,68.800 222.023,68.800 223.076 C 68.800 223.511,68.350 224.017,67.800 224.200 C 67.019 224.460,66.747 234.685,66.557 270.866 C 66.319 316.328,66.550 324.496,68.051 323.568 C 68.463 323.314,68.800 323.604,68.800 324.213 C 68.800 325.892,71.977 328.378,76.027 329.867 C 80.311 331.442,165.046 331.944,166.000 330.400 C 166.272 329.960,167.176 329.600,168.010 329.600 C 170.312 329.600,173.600 327.878,173.600 326.672 C 173.600 326.082,173.916 325.600,174.303 325.600 C 175.217 325.600,177.150 320.922,177.009 319.050 C 176.949 318.253,177.243 317.600,177.663 317.600 C 179.046 317.600,178.577 230.121,177.179 227.441 C 176.536 226.208,176.008 224.776,176.005 224.258 C 176.002 223.740,175.112 222.618,174.027 221.764 C 172.942 220.911,172.256 220.011,172.502 219.765 C 174.343 217.923,83.555 216.440,74.600 218.165 M149.600 273.600 L 149.600 302.400 121.600 302.400 L 93.600 302.400 93.600 273.600 L 93.600 244.800 121.600 244.800 L 149.600 244.800 149.600 273.600 M73.390 361.353 C 72.615 361.556,72.170 362.028,72.402 362.403 C 72.634 362.778,72.096 363.316,71.206 363.598 C 70.317 363.880,68.861 365.711,67.970 367.665 C 65.968 372.061,65.806 465.536,67.800 466.200 C 68.350 466.383,68.800 466.845,68.800 467.225 C 68.800 468.466,72.343 471.674,74.800 472.660 C 78.086 473.977,148.921 473.637,149.366 472.302 C 149.531 471.808,148.841 471.188,147.833 470.924 C 146.825 470.661,145.826 470.345,145.614 470.223 C 145.402 470.100,139.766 464.510,133.090 457.800 L 120.951 445.600 107.275 445.600 L 93.600 445.600 93.600 416.800 L 93.600 388.000 121.600 388.000 L 149.600 388.000 149.600 395.440 C 149.600 400.160,149.951 403.231,150.560 403.840 C 151.088 404.368,151.231 404.800,150.879 404.800 C 150.526 404.800,151.624 406.205,153.319 407.922 C 155.013 409.639,156.670 410.877,157.000 410.674 C 157.330 410.472,157.600 410.687,157.600 411.153 C 157.600 413.381,160.758 411.469,165.781 406.200 C 168.822 403.010,172.922 398.760,174.892 396.757 L 178.474 393.113 178.354 382.557 C 178.288 376.750,177.911 372.000,177.517 372.000 C 177.123 372.000,176.800 371.118,176.800 370.040 C 176.800 368.830,175.486 366.690,173.361 364.440 L 169.922 360.800 122.361 360.893 C 96.202 360.944,74.166 361.151,73.390 361.353 M213.000 375.765 C 212.010 375.955,211.200 376.358,211.200 376.660 C 211.200 376.962,210.095 377.698,208.746 378.296 C 207.396 378.893,205.986 380.151,205.613 381.091 C 205.240 382.031,203.310 384.060,201.322 385.600 C 199.335 387.140,197.271 389.198,196.734 390.173 C 196.198 391.148,195.453 391.756,195.079 391.525 C 194.706 391.295,194.400 391.411,194.400 391.784 C 194.400 392.157,189.224 397.758,182.898 404.231 C 176.572 410.704,171.533 416.000,171.700 416.000 C 171.868 416.000,170.474 417.350,168.602 419.000 C 166.731 420.650,165.067 422.310,164.904 422.689 C 164.741 423.068,163.699 424.148,162.589 425.089 C 161.479 426.030,160.172 427.211,159.685 427.713 C 159.029 428.389,156.186 426.005,148.712 418.513 C 143.164 412.951,137.801 407.787,136.795 407.037 C 134.261 405.149,124.195 405.451,123.077 407.449 C 122.661 408.192,121.798 408.800,121.160 408.800 C 120.522 408.800,120.000 409.134,120.000 409.543 C 120.000 409.951,119.390 410.896,118.644 411.642 C 117.194 413.092,116.238 420.850,117.090 424.248 C 117.354 425.296,120.096 428.752,123.184 431.928 C 126.273 435.104,128.800 437.848,128.800 438.026 C 128.800 438.532,138.385 447.963,138.873 447.938 C 139.112 447.925,140.273 449.108,141.454 450.566 C 144.222 453.986,150.192 459.831,152.332 461.216 C 154.488 462.612,164.921 462.439,165.400 461.000 C 165.584 460.450,166.153 459.998,166.667 459.997 C 167.180 459.995,173.720 453.698,181.200 446.004 C 188.680 438.310,202.466 424.272,211.836 414.808 C 221.206 405.343,228.651 397.600,228.379 397.600 C 228.108 397.600,228.451 397.034,229.143 396.343 C 229.834 395.651,230.400 394.010,230.400 392.696 C 230.400 391.075,230.701 390.492,231.336 390.884 C 231.992 391.290,232.091 391.005,231.667 389.931 C 231.334 389.089,230.919 387.680,230.745 386.800 C 229.759 381.833,229.331 380.842,227.361 378.963 C 223.795 375.562,219.278 374.555,213.000 375.765 " stroke="none" fill="#555555" fill-rule="evenodd"></path></g></svg>