<svg style="display: block;" id="svg" version="1.1" width="625" height="500" xmlns="http://www.w3.org/2000/svg" xmlns:xlink="http://www.w3.org/1999/xlink"><g id="svgg"><path id="path0" d="M108.987 11.096 C 108.805 11.390,108.125 11.493,107.478 11.323 C 106.052 10.951,103.960 12.341,104.539 13.276 C 104.766 13.644,104.555 14.098,104.069 14.285 C 103.410 14.538,103.162 16.216,103.092 20.880 C 102.980 28.341,103.867 27.371,96.960 27.588 C 93.792 27.687,90.279 28.142,89.154 28.599 C 87.665 29.203,86.988 29.234,86.666 28.712 C 86.362 28.221,86.049 28.306,85.671 28.981 C 85.368 29.523,84.616 29.892,84.000 29.802 C 83.384 29.711,82.499 30.096,82.033 30.658 C 81.566 31.220,81.367 31.320,81.590 30.880 C 82.080 29.913,81.852 29.894,79.683 30.719 C 78.657 31.109,78.181 31.646,78.460 32.098 C 78.744 32.557,78.637 32.664,78.179 32.381 C 77.772 32.130,77.440 32.246,77.440 32.640 C 77.440 33.034,77.203 33.209,76.914 33.031 C 76.388 32.706,73.862 35.236,74.109 35.840 C 74.181 36.016,74.024 36.164,73.760 36.170 C 72.790 36.190,71.669 37.225,72.014 37.783 C 72.210 38.099,71.797 38.716,71.097 39.153 C 70.073 39.792,69.975 40.132,70.593 40.893 C 71.226 41.674,71.164 41.766,70.240 41.420 C 69.219 41.037,68.814 41.585,69.044 43.040 C 69.086 43.304,68.801 43.520,68.412 43.520 C 68.022 43.520,67.858 43.924,68.048 44.418 C 68.237 44.912,67.979 45.848,67.474 46.498 C 66.594 47.632,66.572 47.628,66.927 46.400 C 67.269 45.215,67.242 45.205,66.558 46.274 C 65.988 47.163,66.014 47.667,66.669 48.476 C 67.282 49.232,67.296 49.391,66.720 49.045 C 66.204 48.735,65.920 48.954,65.920 49.662 C 65.920 50.265,65.212 51.687,64.348 52.821 C 63.483 53.954,62.955 55.062,63.174 55.281 C 63.394 55.500,63.237 55.680,62.827 55.680 C 62.416 55.680,62.114 55.896,62.156 56.160 C 62.411 57.777,61.932 58.887,60.960 58.931 C 60.248 58.963,60.141 59.102,60.666 59.313 C 61.245 59.545,60.994 60.106,59.830 61.185 C 58.916 62.032,58.333 62.992,58.534 63.319 C 58.736 63.645,58.608 64.092,58.250 64.314 C 57.893 64.535,57.600 65.131,57.600 65.638 C 57.600 66.145,57.009 67.151,56.287 67.873 C 55.471 68.689,55.118 69.636,55.353 70.379 C 55.562 71.035,55.432 71.758,55.066 71.984 C 54.700 72.210,54.387 72.019,54.371 71.558 C 54.355 71.097,53.963 71.584,53.500 72.640 C 53.037 73.696,52.788 74.791,52.948 75.074 C 53.107 75.357,52.680 76.077,51.999 76.674 C 51.318 77.271,50.883 78.120,51.034 78.560 C 51.184 79.000,50.995 79.360,50.613 79.360 C 50.232 79.360,49.954 79.576,49.996 79.840 C 50.168 80.929,49.875 81.876,49.120 82.674 C 48.680 83.139,47.888 84.384,47.361 85.440 C 46.834 86.496,46.114 87.572,45.761 87.830 C 45.380 88.110,45.494 88.304,46.042 88.310 C 46.699 88.317,46.607 88.582,45.722 89.228 C 45.039 89.728,44.441 90.376,44.394 90.668 C 44.125 92.329,43.290 94.080,42.768 94.080 C 42.436 94.080,42.341 94.366,42.557 94.715 C 42.982 95.402,42.073 97.431,41.382 97.337 C 40.368 97.200,40.311 97.348,40.937 98.517 C 41.479 99.529,41.356 99.831,40.261 100.179 C 39.338 100.472,39.022 100.981,39.242 101.822 C 39.417 102.492,39.299 103.040,38.980 103.040 C 38.661 103.040,38.400 103.441,38.400 103.932 C 38.400 104.422,37.944 104.998,37.387 105.212 C 36.830 105.426,36.492 105.955,36.636 106.388 C 36.780 106.820,36.430 107.612,35.859 108.147 C 35.287 108.682,35.193 108.869,35.650 108.562 C 36.961 107.680,36.617 108.623,35.118 110.019 C 34.327 110.756,33.916 111.705,34.137 112.283 C 34.379 112.912,33.939 113.657,32.939 114.312 C 32.071 114.882,31.364 115.674,31.370 116.074 C 31.375 116.473,31.659 116.368,32.000 115.840 C 32.535 115.012,32.622 115.028,32.630 115.957 C 32.636 116.549,32.036 117.225,31.297 117.460 C 30.302 117.776,30.030 118.278,30.245 119.404 C 30.405 120.238,30.321 120.789,30.060 120.628 C 29.799 120.466,29.192 120.818,28.713 121.410 C 27.962 122.335,27.975 122.410,28.800 121.949 C 29.328 121.653,29.112 122.041,28.320 122.811 C 26.835 124.254,26.392 125.177,27.520 124.480 C 27.872 124.262,28.160 124.389,28.160 124.762 C 28.160 125.135,27.883 125.440,27.545 125.440 C 27.206 125.440,26.620 126.589,26.242 127.992 C 25.864 129.396,25.290 130.476,24.966 130.392 C 24.166 130.185,21.701 135.067,22.200 135.874 C 22.419 136.228,22.295 136.331,21.926 136.103 C 21.556 135.874,21.089 136.118,20.887 136.644 C 20.685 137.170,20.838 137.600,21.227 137.600 C 21.616 137.600,21.205 138.330,20.313 139.222 C 19.338 140.197,18.813 141.310,18.997 142.013 C 19.177 142.702,18.891 143.341,18.302 143.568 C 17.670 143.810,17.455 144.353,17.720 145.041 C 18.002 145.778,17.896 145.980,17.389 145.667 C 16.939 145.389,16.640 145.603,16.640 146.202 C 16.640 147.713,16.490 148.055,15.236 149.401 C 14.600 150.084,14.152 151.003,14.240 151.445 C 14.328 151.887,13.824 152.718,13.120 153.292 C 12.416 153.866,12.272 154.148,12.800 153.920 C 13.595 153.576,13.588 153.651,12.760 154.353 C 11.616 155.323,10.545 157.723,11.527 157.115 C 11.875 156.900,12.160 157.190,12.160 157.760 C 12.160 158.330,11.875 158.620,11.527 158.405 C 11.165 158.180,11.057 158.437,11.276 159.007 C 11.485 159.553,11.332 160.000,10.935 160.000 C 10.069 160.000,9.964 288.394,10.829 288.928 C 11.121 289.109,11.360 289.996,11.360 290.899 C 11.360 291.803,11.900 292.981,12.560 293.518 C 13.220 294.055,13.379 294.299,12.913 294.060 C 12.211 293.701,12.210 293.858,12.907 294.973 C 13.369 295.714,13.935 296.320,14.165 296.320 C 14.394 296.320,14.753 297.004,14.962 297.839 C 15.184 298.722,16.151 299.693,17.272 300.157 C 18.332 300.596,19.200 301.225,19.200 301.555 C 19.200 301.885,18.868 301.950,18.461 301.699 C 17.985 301.405,17.897 301.525,18.213 302.037 C 18.483 302.474,19.248 302.689,19.912 302.516 C 20.818 302.279,21.122 302.544,21.130 303.580 C 21.137 304.585,21.287 304.727,21.683 304.102 C 22.108 303.433,22.596 303.614,23.913 304.932 C 24.841 305.859,25.600 306.307,25.600 305.927 C 25.600 305.432,25.970 305.433,26.898 305.930 C 27.612 306.312,28.056 306.850,27.886 307.125 C 27.716 307.401,27.996 307.627,28.508 307.627 C 29.021 307.627,29.440 307.444,29.440 307.222 C 29.440 306.999,30.520 306.952,31.840 307.118 C 34.038 307.394,34.105 307.458,32.640 307.886 C 31.760 308.142,108.025 308.381,202.118 308.416 C 304.294 308.454,373.051 308.246,372.837 307.900 C 372.640 307.581,373.021 307.461,373.684 307.635 C 374.453 307.836,375.251 307.435,375.885 306.530 C 376.543 305.591,377.309 305.222,378.145 305.441 C 379.043 305.675,379.509 305.391,379.752 304.460 C 380.056 303.301,380.224 303.254,381.210 304.055 C 381.824 304.553,382.129 304.631,381.888 304.230 C 381.485 303.557,384.547 300.403,387.571 298.376 C 388.247 297.923,388.440 297.724,388.000 297.934 C 387.560 298.144,387.200 298.041,387.200 297.706 C 387.200 297.371,387.605 296.942,388.100 296.752 C 388.594 296.562,389.193 295.526,389.429 294.451 C 389.665 293.375,390.121 292.332,390.442 292.134 C 390.763 291.936,390.857 292.292,390.652 292.927 C 390.344 293.881,390.396 293.915,390.953 293.125 C 391.324 292.600,391.385 291.929,391.089 291.633 C 390.793 291.337,391.021 290.182,391.595 289.067 C 393.568 285.239,393.071 155.225,391.088 156.450 C 390.784 156.639,390.373 156.372,390.175 155.857 C 389.978 155.342,390.135 154.724,390.525 154.483 C 390.993 154.193,390.821 153.742,390.017 153.155 C 389.348 152.665,388.761 152.061,388.714 151.812 C 388.396 150.144,387.603 148.480,387.125 148.480 C 386.814 148.480,386.560 148.175,386.560 147.802 C 386.560 147.429,386.878 147.321,387.266 147.561 C 387.655 147.801,387.494 147.266,386.908 146.373 C 386.322 145.479,385.365 144.564,384.780 144.339 C 383.862 143.987,383.845 143.848,384.658 143.326 C 385.432 142.828,385.447 142.621,384.745 142.168 C 384.275 141.865,383.896 141.361,383.903 141.048 C 383.910 140.736,383.446 140.578,382.872 140.697 C 382.040 140.870,381.981 140.731,382.579 140.010 C 383.014 139.486,383.093 138.856,382.767 138.513 C 382.457 138.187,382.100 137.344,381.973 136.640 C 381.846 135.936,381.458 135.391,381.111 135.429 C 380.358 135.512,378.621 131.887,378.823 130.656 C 378.902 130.180,378.662 129.979,378.290 130.209 C 377.879 130.463,377.764 130.237,377.996 129.633 C 378.205 129.087,378.058 128.640,377.668 128.640 C 377.279 128.640,376.960 128.064,376.960 127.360 C 376.960 126.656,376.456 125.571,375.840 124.949 C 373.971 123.063,372.404 120.321,372.814 119.657 C 373.027 119.313,372.751 118.858,372.201 118.647 C 371.650 118.436,371.200 117.989,371.200 117.654 C 371.200 117.319,371.485 117.220,371.833 117.435 C 372.195 117.659,372.303 117.404,372.086 116.837 C 371.877 116.293,371.478 115.988,371.200 116.160 C 370.662 116.493,369.631 114.616,369.842 113.688 C 369.911 113.385,369.478 112.778,368.880 112.341 C 368.231 111.866,367.955 111.120,368.196 110.493 C 368.418 109.914,368.340 109.440,368.023 109.440 C 367.706 109.440,367.241 108.793,366.990 108.002 C 366.739 107.212,366.104 106.251,365.579 105.867 C 365.054 105.483,364.759 104.764,364.923 104.270 C 365.088 103.776,364.912 103.019,364.531 102.588 C 362.671 100.480,362.224 99.840,362.613 99.840 C 362.846 99.840,362.641 99.353,362.158 98.757 C 361.402 97.825,361.414 97.742,362.240 98.165 C 362.863 98.483,362.821 98.343,362.119 97.766 C 361.525 97.277,360.949 96.473,360.839 95.981 C 360.730 95.488,360.064 94.580,359.360 93.964 C 358.656 93.347,358.413 92.833,358.820 92.821 C 359.241 92.809,359.417 92.251,359.227 91.527 C 359.044 90.827,358.639 90.412,358.327 90.605 C 358.015 90.798,357.760 90.476,357.760 89.890 C 357.760 89.304,357.022 87.947,356.120 86.875 C 354.997 85.541,354.711 84.782,355.213 84.472 C 355.721 84.158,355.634 83.898,354.934 83.629 C 354.376 83.415,353.920 82.830,353.920 82.329 C 353.920 81.827,353.456 81.239,352.888 81.021 C 352.135 80.732,352.038 80.405,352.531 79.811 C 353.236 78.962,352.595 77.284,351.608 77.394 C 351.296 77.428,351.004 76.816,350.961 76.034 C 350.917 75.251,350.269 74.204,349.521 73.708 C 348.772 73.211,348.160 72.280,348.160 71.640 C 348.160 70.999,347.864 70.293,347.503 70.070 C 347.142 69.846,346.888 69.325,346.939 68.912 C 347.136 67.319,346.854 66.500,346.240 66.880 C 345.888 67.098,345.600 66.777,345.600 66.168 C 345.600 65.559,345.096 64.485,344.480 63.780 C 343.864 63.076,343.741 62.724,344.207 62.997 C 344.903 63.405,344.909 63.261,344.239 62.188 C 343.791 61.470,343.226 61.005,342.985 61.154 C 342.743 61.303,342.396 60.852,342.212 60.152 C 342.029 59.451,342.114 59.023,342.400 59.200 C 342.686 59.377,342.587 58.803,342.180 57.926 C 341.773 57.048,341.046 56.328,340.565 56.325 C 339.995 56.322,339.812 55.856,340.039 54.989 C 340.305 53.972,340.150 53.750,339.383 54.044 C 338.510 54.379,338.496 54.286,339.269 53.332 C 339.860 52.605,339.890 52.396,339.360 52.715 C 338.880 53.003,338.560 52.855,338.560 52.346 C 338.560 51.879,337.802 50.382,336.876 49.019 C 335.950 47.656,335.518 46.742,335.916 46.988 C 337.247 47.811,336.659 46.321,335.060 44.819 C 334.191 44.002,333.633 43.085,333.821 42.781 C 334.338 41.944,333.433 39.609,332.754 40.028 C 332.427 40.230,332.160 39.947,332.160 39.398 C 332.160 38.849,331.711 38.400,331.162 38.400 C 330.613 38.400,330.322 38.145,330.515 37.833 C 330.708 37.521,330.275 37.111,329.553 36.922 C 328.721 36.705,328.314 36.152,328.441 35.410 C 328.586 34.559,327.811 33.844,325.600 32.788 C 323.928 31.989,322.560 31.022,322.560 30.639 C 322.560 30.256,322.113 30.115,321.567 30.324 C 320.997 30.543,320.740 30.435,320.965 30.073 C 321.180 29.725,320.763 29.440,320.038 29.440 C 319.313 29.440,318.720 29.152,318.720 28.800 C 318.720 28.448,318.288 28.160,317.760 28.160 C 317.232 28.160,316.800 28.467,316.800 28.843 C 316.800 29.226,316.259 29.355,315.571 29.136 C 311.845 27.953,309.595 27.636,304.480 27.573 L 300.160 27.520 300.160 22.438 C 300.160 19.524,299.868 17.175,299.476 16.933 C 299.100 16.701,298.947 16.108,299.136 15.615 C 299.325 15.123,299.270 14.720,299.014 14.720 C 298.758 14.720,298.169 14.114,297.707 13.373 C 297.010 12.257,297.011 12.108,297.713 12.503 C 298.212 12.784,298.149 12.541,297.559 11.912 C 296.455 10.734,109.710 9.926,108.987 11.096 M283.520 41.600 L 283.520 57.600 200.960 57.600 L 118.400 57.600 118.400 41.600 L 118.400 25.600 200.960 25.600 L 283.520 25.600 283.520 41.600 M103.040 50.948 L 103.040 57.736 97.980 57.506 C 95.197 57.379,93.024 57.445,93.152 57.651 C 93.279 57.858,92.977 58.027,92.480 58.027 C 91.983 58.027,91.748 57.749,91.957 57.410 C 92.167 57.071,91.938 56.939,91.449 57.117 C 90.960 57.295,90.632 57.764,90.720 58.160 C 90.808 58.556,90.664 58.846,90.400 58.804 C 90.136 58.763,89.704 58.799,89.440 58.884 C 89.176 58.970,88.600 59.076,88.161 59.120 C 87.721 59.164,87.338 59.632,87.308 60.160 C 87.192 62.237,86.209 65.280,85.654 65.280 C 85.308 65.280,85.144 73.510,85.254 85.380 C 85.356 96.436,85.275 105.213,85.072 104.885 C 84.465 103.899,75.014 104.327,74.618 105.359 C 74.432 105.843,73.534 106.240,72.622 106.240 C 71.680 106.240,71.135 106.516,71.360 106.880 C 71.578 107.232,71.337 107.520,70.826 107.520 C 70.315 107.520,69.725 107.967,69.516 108.513 C 69.297 109.083,69.405 109.340,69.767 109.115 C 70.115 108.900,70.400 109.173,70.400 109.722 C 70.400 110.271,70.099 110.720,69.732 110.720 C 69.365 110.720,69.111 111.080,69.168 111.520 C 69.225 111.960,69.238 118.440,69.196 125.920 L 69.120 139.520 54.788 139.520 C 39.138 139.520,38.177 139.278,41.328 136.126 C 42.385 135.069,42.756 134.181,42.461 133.413 C 42.160 132.629,42.258 132.415,42.771 132.733 C 43.210 133.004,43.520 132.815,43.520 132.276 C 43.520 131.770,43.952 130.998,44.480 130.560 C 45.603 129.628,45.786 128.351,44.701 129.021 C 43.870 129.535,44.304 128.690,46.230 126.041 C 46.885 125.140,47.466 123.804,47.522 123.072 C 47.579 122.311,47.957 121.869,48.404 122.041 C 48.925 122.241,49.070 121.897,48.839 121.011 C 48.586 120.043,48.792 119.680,49.594 119.680 C 50.283 119.680,50.566 119.339,50.349 118.773 C 50.157 118.274,50.392 117.716,50.871 117.532 C 51.415 117.323,51.602 116.668,51.370 115.779 C 51.153 114.952,51.254 114.518,51.611 114.739 C 51.948 114.947,52.591 114.530,53.039 113.812 C 53.709 112.739,53.703 112.595,53.007 113.003 C 52.541 113.276,52.664 112.924,53.280 112.220 C 53.896 111.515,54.400 110.449,54.400 109.850 C 54.400 109.250,54.814 108.601,55.320 108.407 C 55.825 108.213,56.102 107.697,55.934 107.260 C 55.767 106.823,56.400 105.694,57.342 104.753 C 58.284 103.811,58.727 103.040,58.327 103.040 C 57.927 103.040,58.176 102.464,58.880 101.760 C 59.584 101.056,60.160 99.887,60.160 99.162 C 60.160 98.437,60.418 98.004,60.733 98.199 C 61.600 98.734,62.081 96.897,61.283 96.099 C 60.780 95.596,60.883 95.288,61.653 94.993 C 62.240 94.767,62.720 94.196,62.720 93.723 C 62.720 93.250,63.224 92.570,63.840 92.211 C 64.456 91.852,64.609 91.550,64.180 91.539 C 63.734 91.528,63.567 91.086,63.789 90.506 C 64.105 89.683,64.292 89.653,64.785 90.346 C 65.221 90.960,65.305 90.807,65.086 89.801 C 64.904 88.966,65.139 88.265,65.671 88.061 C 66.160 87.874,66.560 87.118,66.560 86.382 C 66.560 85.646,66.815 85.202,67.127 85.395 C 67.439 85.588,67.844 85.173,68.027 84.473 C 68.210 83.773,68.082 83.200,67.742 83.200 C 67.402 83.200,67.305 82.907,67.526 82.550 C 67.748 82.192,68.171 82.049,68.468 82.233 C 68.765 82.416,68.932 82.061,68.839 81.443 C 68.746 80.825,69.420 79.638,70.335 78.805 C 71.251 77.971,71.568 77.523,71.040 77.808 C 70.213 78.254,70.202 78.176,70.958 77.243 C 71.441 76.647,71.646 76.160,71.413 76.160 C 71.015 76.160,71.727 75.153,73.343 73.428 C 73.730 73.015,73.912 72.165,73.749 71.539 C 73.585 70.913,73.754 70.400,74.124 70.400 C 74.494 70.400,75.156 69.407,75.595 68.194 C 76.034 66.981,76.677 66.164,77.025 66.379 C 77.395 66.607,77.491 66.335,77.256 65.724 C 77.035 65.148,77.274 64.257,77.787 63.744 C 78.300 63.231,78.720 62.350,78.720 61.786 C 78.720 61.221,79.130 60.603,79.631 60.410 C 80.131 60.218,80.704 59.636,80.903 59.117 C 81.107 58.587,80.988 58.345,80.633 58.565 C 80.285 58.780,80.000 58.651,80.000 58.278 C 80.000 57.905,80.220 57.600,80.489 57.600 C 80.758 57.600,81.477 56.448,82.087 55.040 C 82.697 53.632,83.476 52.480,83.818 52.480 C 84.160 52.480,84.256 52.001,84.031 51.415 C 83.741 50.658,83.859 50.496,84.440 50.855 C 85.052 51.234,85.143 50.999,84.800 49.920 C 84.509 49.004,84.580 48.626,84.994 48.882 C 85.352 49.104,86.735 48.227,88.066 46.933 C 89.439 45.600,90.595 44.904,90.735 45.325 C 90.907 45.842,91.273 45.778,91.937 45.114 C 92.622 44.429,94.322 44.160,97.966 44.160 L 103.040 44.160 103.040 50.948 M309.770 44.960 C 309.776 45.493,309.986 45.440,310.400 44.800 C 310.926 43.986,311.022 44.016,311.030 44.998 C 311.036 45.638,311.339 45.971,311.708 45.743 C 312.075 45.516,312.783 45.667,313.280 46.080 C 313.777 46.493,314.529 46.617,314.951 46.356 C 315.408 46.074,315.550 46.153,315.303 46.553 C 315.075 46.922,315.535 47.395,316.324 47.605 C 317.127 47.819,318.274 49.029,318.927 50.351 C 319.884 52.290,319.913 52.565,319.087 51.879 C 317.557 50.609,317.885 51.600,319.520 53.189 C 320.312 53.959,320.528 54.347,320.000 54.051 C 319.175 53.590,319.162 53.665,319.913 54.590 C 320.392 55.182,321.022 55.519,321.312 55.340 C 321.603 55.161,321.712 55.720,321.556 56.582 C 321.346 57.739,321.609 58.258,322.556 58.559 C 323.262 58.783,323.836 59.451,323.830 60.043 C 323.822 60.972,323.735 60.988,323.200 60.160 C 322.859 59.632,322.575 59.527,322.570 59.926 C 322.564 60.326,323.255 61.108,324.106 61.665 C 325.232 62.404,325.552 63.058,325.285 64.079 C 325.049 64.980,325.162 65.330,325.599 65.059 C 326.025 64.796,326.159 65.103,325.957 65.874 C 325.751 66.665,326.095 67.398,326.913 67.909 C 327.617 68.349,328.042 69.101,327.858 69.580 C 327.674 70.060,327.774 70.406,328.081 70.350 C 329.378 70.114,329.709 70.457,329.005 71.306 C 328.406 72.028,328.507 72.293,329.501 72.608 C 330.359 72.881,330.646 73.398,330.420 74.262 C 330.230 74.986,330.410 75.520,330.843 75.520 C 331.257 75.520,331.428 75.790,331.224 76.121 C 331.020 76.451,331.363 77.018,331.987 77.381 C 332.678 77.784,332.793 78.049,332.282 78.061 C 331.821 78.071,331.625 78.373,331.846 78.730 C 332.068 79.088,332.486 79.234,332.777 79.054 C 333.440 78.645,334.214 80.545,333.715 81.354 C 333.511 81.683,333.726 81.873,334.192 81.776 C 334.692 81.672,334.962 82.064,334.850 82.729 C 334.745 83.349,335.122 84.034,335.687 84.251 C 336.252 84.468,336.556 85.055,336.364 85.556 C 336.172 86.057,336.269 86.309,336.580 86.117 C 336.891 85.925,337.311 86.198,337.513 86.724 C 337.715 87.250,337.529 87.703,337.100 87.731 C 336.508 87.769,336.513 87.859,337.120 88.104 C 337.560 88.281,337.920 88.711,337.920 89.059 C 337.920 89.407,338.355 90.126,338.886 90.657 C 339.417 91.189,339.688 91.888,339.488 92.212 C 339.288 92.535,339.396 92.800,339.728 92.800 C 340.403 92.800,341.319 95.216,341.147 96.544 C 341.077 97.079,341.336 97.222,341.826 96.919 C 342.378 96.578,342.494 96.752,342.209 97.495 C 341.942 98.190,342.126 98.560,342.740 98.560 C 343.257 98.560,343.628 98.776,343.564 99.040 C 343.317 100.059,345.179 104.900,345.695 104.581 C 345.995 104.396,346.276 104.549,346.320 104.922 C 346.364 105.295,346.459 105.816,346.532 106.080 C 347.450 109.413,347.793 110.080,348.587 110.080 C 349.098 110.080,349.350 110.348,349.147 110.676 C 348.945 111.003,349.077 111.455,349.440 111.680 C 349.803 111.905,349.955 112.324,349.777 112.612 C 349.600 112.899,349.866 113.477,350.369 113.894 C 350.872 114.312,351.120 115.082,350.919 115.605 C 350.684 116.217,351.038 116.683,351.910 116.911 C 352.655 117.106,353.095 117.542,352.886 117.880 C 352.677 118.218,353.184 119.240,354.013 120.151 C 354.842 121.061,355.088 121.570,354.560 121.280 C 354.032 120.990,354.213 121.448,354.962 122.297 C 355.711 123.146,356.241 124.345,356.138 124.963 C 356.036 125.581,356.215 125.924,356.536 125.725 C 356.857 125.527,357.143 126.317,357.171 127.482 C 357.198 128.647,357.367 129.238,357.545 128.796 C 357.723 128.354,358.147 128.163,358.486 128.373 C 358.858 128.603,358.773 129.160,358.271 129.780 C 357.648 130.549,357.640 130.685,358.240 130.325 C 358.778 130.002,359.040 130.282,359.040 131.182 C 359.040 131.918,359.440 132.674,359.929 132.861 C 360.418 133.049,360.682 133.723,360.516 134.359 C 360.322 135.100,360.980 136.234,362.347 137.515 L 364.480 139.514 348.917 139.517 L 333.353 139.520 333.557 124.640 C 333.729 112.039,333.613 109.630,332.800 108.913 C 331.947 108.159,331.947 108.116,332.800 108.527 C 333.328 108.781,333.124 108.370,332.347 107.614 C 331.569 106.858,330.489 106.240,329.947 106.240 C 329.404 106.240,328.960 105.808,328.960 105.280 C 328.960 104.498,327.893 104.320,323.200 104.320 L 317.440 104.320 317.440 84.198 C 317.440 70.801,317.215 63.936,316.766 63.659 C 316.396 63.430,316.211 62.909,316.355 62.501 C 316.659 61.642,314.273 57.994,313.749 58.518 C 313.556 58.711,312.983 58.525,312.477 58.105 C 311.877 57.607,309.571 57.400,305.858 57.512 L 300.160 57.684 300.160 50.922 L 300.160 44.160 304.960 44.160 C 308.368 44.160,309.763 44.392,309.770 44.960 M301.440 88.320 L 301.440 104.320 201.600 104.320 L 101.760 104.320 101.760 88.320 L 101.760 72.320 201.600 72.320 L 301.440 72.320 301.440 88.320 M318.080 129.920 L 318.080 139.520 296.800 139.596 C 285.096 139.638,275.088 139.626,274.560 139.569 C 273.777 139.486,273.760 139.575,274.468 140.053 C 275.137 140.505,275.157 140.751,274.557 141.122 C 274.121 141.391,273.535 141.215,273.229 140.722 C 272.800 140.033,272.263 140.296,270.776 141.920 C 268.973 143.889,266.921 144.847,267.901 143.261 C 268.186 142.800,268.076 142.696,267.608 142.985 C 267.196 143.240,267.025 143.717,267.227 144.044 C 267.430 144.372,267.291 144.640,266.918 144.640 C 266.545 144.640,266.240 145.072,266.240 145.600 C 266.240 146.128,265.791 146.560,265.242 146.560 C 264.693 146.560,264.410 146.828,264.613 147.156 C 264.815 147.483,264.669 147.945,264.287 148.181 C 263.905 148.416,263.720 148.942,263.876 149.348 C 264.204 150.201,262.728 151.795,262.148 151.215 C 261.935 151.001,261.760 151.434,261.760 152.176 C 261.760 152.917,261.467 153.705,261.110 153.926 C 260.752 154.148,260.613 154.577,260.800 154.880 C 260.987 155.183,260.861 155.605,260.518 155.816 C 260.176 156.028,260.058 156.624,260.256 157.140 C 260.481 157.726,260.230 158.080,259.588 158.080 C 258.392 158.080,258.167 159.353,259.360 159.374 C 259.800 159.382,259.440 159.952,258.560 160.640 C 257.680 161.328,257.211 161.898,257.518 161.906 C 257.825 161.914,257.729 162.339,257.303 162.852 C 256.878 163.365,256.716 164.085,256.943 164.452 C 257.171 164.821,256.838 165.124,256.198 165.130 C 255.396 165.137,255.282 165.293,255.826 165.639 C 256.405 166.006,256.254 166.446,255.259 167.298 C 254.515 167.935,254.161 168.642,254.473 168.868 C 255.505 169.618,255.474 171.061,254.434 170.662 C 253.896 170.455,253.486 170.492,253.523 170.743 C 253.752 172.276,253.340 174.080,252.762 174.080 C 252.389 174.080,252.218 173.864,252.381 173.600 C 252.544 173.336,229.506 173.189,201.186 173.273 C 169.969 173.365,149.837 173.193,150.058 172.836 C 150.258 172.513,149.819 171.826,149.084 171.311 C 148.286 170.752,148.014 170.208,148.410 169.963 C 148.817 169.712,148.559 169.039,147.741 168.221 C 146.777 167.257,146.622 166.757,147.178 166.413 C 147.713 166.083,147.417 165.520,146.208 164.569 C 145.250 163.816,144.767 163.200,145.134 163.200 C 145.500 163.200,145.650 162.627,145.467 161.927 C 145.284 161.227,144.856 160.827,144.515 161.037 C 144.175 161.248,143.952 160.884,144.022 160.230 C 144.236 158.197,144.008 157.722,143.295 158.720 C 142.747 159.487,142.675 159.382,142.935 158.201 C 143.131 157.309,142.924 156.593,142.413 156.397 C 141.947 156.218,141.421 155.515,141.243 154.835 C 141.046 154.081,141.178 153.758,141.583 154.008 C 141.960 154.241,142.107 154.035,141.923 153.529 C 141.745 153.040,141.276 152.712,140.880 152.800 C 140.469 152.891,140.160 152.121,140.160 151.002 C 140.160 149.875,139.892 149.210,139.527 149.435 C 139.169 149.657,139.055 149.409,139.265 148.862 C 139.674 147.795,136.892 144.640,135.541 144.640 C 135.080 144.640,134.419 143.992,134.072 143.200 C 133.724 142.408,133.204 141.904,132.915 142.080 C 132.626 142.256,132.108 141.896,131.763 141.280 C 131.418 140.664,130.846 140.160,130.490 140.160 C 130.135 140.160,130.055 140.520,130.312 140.960 C 130.570 141.400,130.137 141.195,129.351 140.505 C 128.221 139.513,127.813 139.427,127.401 140.094 C 127.036 140.685,126.749 140.725,126.442 140.228 C 126.137 139.734,119.815 139.520,105.562 139.520 L 85.120 139.520 85.120 129.920 L 85.120 120.320 201.600 120.320 L 318.080 120.320 318.080 129.920 M124.460 157.920 C 124.702 158.888,125.338 160.166,125.873 160.760 C 126.408 161.353,126.671 162.122,126.457 162.468 C 126.243 162.814,126.503 163.531,127.034 164.063 C 128.120 165.148,128.335 166.043,127.367 165.445 C 127.005 165.220,126.897 165.477,127.116 166.047 C 127.325 166.593,127.684 167.040,127.912 167.040 C 128.141 167.040,128.758 167.976,129.284 169.120 C 130.212 171.140,130.331 171.553,130.486 173.318 C 130.527 173.779,130.848 173.978,131.200 173.760 C 131.564 173.535,131.840 174.086,131.840 175.040 C 131.840 175.994,132.116 176.545,132.480 176.320 C 132.832 176.102,133.120 176.229,133.120 176.602 C 133.120 177.985,133.235 178.267,134.286 179.470 C 134.877 180.147,135.000 180.490,134.560 180.232 C 134.120 179.975,133.760 180.078,133.760 180.462 C 133.760 180.846,134.192 181.326,134.720 181.529 C 135.248 181.731,135.680 182.298,135.680 182.788 C 135.680 183.279,136.016 183.680,136.427 183.680 C 136.837 183.680,137.012 183.842,136.814 184.040 C 136.370 184.483,139.294 187.711,140.351 187.944 C 140.774 188.037,141.696 188.234,142.400 188.382 C 143.104 188.529,143.596 189.007,143.494 189.444 C 143.387 189.899,143.695 190.089,144.216 189.889 C 144.715 189.697,145.400 189.816,145.737 190.153 C 146.388 190.804,254.108 191.002,257.600 190.359 C 258.656 190.164,260.398 189.158,261.470 188.123 C 262.543 187.087,263.867 186.240,264.411 186.240 C 265.466 186.240,267.396 184.427,267.478 183.360 C 267.605 181.686,268.963 178.585,269.440 178.880 C 269.734 179.062,270.199 178.273,270.472 177.126 C 270.745 175.979,271.020 174.824,271.084 174.560 C 271.148 174.296,271.236 173.648,271.280 173.120 C 271.324 172.592,271.775 172.160,272.283 172.160 C 272.869 172.160,273.114 171.681,272.954 170.848 C 272.807 170.084,273.105 169.381,273.667 169.166 C 274.199 168.962,274.479 168.392,274.290 167.900 C 274.101 167.407,274.511 166.522,275.200 165.932 C 276.129 165.136,276.249 164.730,275.666 164.359 C 275.128 164.017,275.257 163.857,276.078 163.850 C 277.011 163.842,277.118 163.648,276.561 162.977 C 276.014 162.319,276.147 161.840,277.122 160.958 C 277.825 160.322,278.400 159.143,278.400 158.339 C 278.400 157.534,278.688 156.698,279.040 156.480 C 279.392 156.262,279.680 156.389,279.680 156.762 C 279.680 157.234,292.853 157.393,323.040 157.287 L 366.400 157.134 323.200 156.800 L 280.000 156.466 323.360 156.313 C 348.139 156.226,366.720 156.402,366.720 156.725 C 366.720 157.036,367.368 157.454,368.160 157.654 C 369.551 158.004,369.558 157.985,368.358 157.088 C 367.674 156.578,367.461 156.160,367.884 156.160 C 368.307 156.160,369.146 156.736,369.748 157.440 C 370.351 158.144,371.212 158.720,371.662 158.720 C 372.112 158.720,372.480 159.008,372.480 159.360 C 372.480 159.712,372.912 160.000,373.440 160.000 C 373.978 160.000,374.400 160.571,374.400 161.300 C 374.400 162.015,374.830 162.765,375.356 162.967 C 375.882 163.169,376.165 163.574,375.983 163.867 C 375.802 164.160,375.663 191.489,375.673 224.598 L 375.693 284.797 374.108 286.175 C 373.237 286.933,372.687 287.817,372.886 288.140 C 373.086 288.462,372.647 288.884,371.912 289.076 C 371.176 289.268,370.730 289.677,370.920 289.985 C 371.111 290.293,370.816 290.372,370.265 290.161 C 369.714 289.950,368.877 290.098,368.403 290.491 C 367.257 291.442,36.770 291.119,32.960 290.163 C 31.552 289.810,30.472 289.179,30.560 288.760 C 30.648 288.342,30.432 288.000,30.080 288.000 C 29.728 288.000,29.512 287.653,29.600 287.229 C 29.688 286.805,29.328 286.445,28.800 286.429 C 27.954 286.403,27.840 279.169,27.840 225.280 C 27.840 191.664,27.625 163.999,27.362 163.803 C 27.099 163.607,27.891 162.347,29.122 161.003 C 30.353 159.659,31.364 158.235,31.370 157.840 C 31.376 157.415,31.603 157.473,31.926 157.982 C 32.385 158.706,32.603 158.706,33.278 157.982 C 33.939 157.275,42.032 157.123,78.322 157.135 L 122.560 157.150 79.680 156.808 L 36.800 156.466 80.411 156.313 L 124.021 156.160 124.460 157.920 M159.178 216.075 C 158.939 216.315,157.946 216.567,156.971 216.635 C 153.812 216.857,153.519 216.950,153.923 217.605 C 154.142 217.959,153.799 218.417,153.161 218.623 C 150.929 219.341,149.120 220.381,149.120 220.946 C 149.120 221.259,149.447 221.313,149.847 221.066 C 150.246 220.819,149.924 221.495,149.131 222.568 C 148.338 223.641,147.873 224.816,148.098 225.180 C 148.323 225.544,147.997 226.138,147.373 226.501 C 146.613 226.944,146.529 227.167,147.118 227.181 C 147.797 227.196,147.828 227.403,147.256 228.092 C 146.110 229.473,146.371 254.649,147.548 256.254 C 148.038 256.922,148.287 257.714,148.102 258.014 C 147.916 258.314,148.100 258.560,148.511 258.560 C 148.921 258.560,149.091 258.992,148.889 259.520 C 148.686 260.048,148.766 260.480,149.065 260.480 C 149.365 260.480,149.769 261.085,149.962 261.824 C 150.156 262.565,150.621 262.979,150.997 262.747 C 151.373 262.514,151.680 262.646,151.680 263.040 C 151.680 263.434,151.968 263.578,152.320 263.360 C 152.672 263.142,152.960 263.444,152.960 264.031 C 152.960 264.688,153.308 264.963,153.867 264.749 C 154.366 264.557,154.926 264.798,155.113 265.283 C 155.299 265.769,156.023 266.123,156.721 266.070 C 157.420 266.017,157.850 265.746,157.678 265.467 C 157.506 265.188,157.669 264.960,158.042 264.960 C 158.415 264.960,158.720 265.176,158.720 265.440 C 158.720 266.027,244.911 265.805,245.864 265.216 C 246.238 264.985,246.759 265.145,247.022 265.572 C 247.371 266.136,247.612 266.060,247.906 265.293 C 248.129 264.713,248.601 264.418,248.955 264.637 C 249.310 264.856,249.600 264.714,249.600 264.320 C 249.600 263.926,249.876 263.775,250.213 263.983 C 250.550 264.191,251.277 263.488,251.829 262.421 C 252.381 261.353,253.161 260.480,253.563 260.480 C 253.965 260.480,254.104 260.290,253.872 260.059 C 253.641 259.827,253.809 259.196,254.246 258.656 C 254.904 257.842,254.876 257.769,254.080 258.227 C 253.383 258.628,253.423 258.433,254.226 257.515 C 255.215 256.384,255.329 254.511,255.295 239.868 L 255.258 223.487 253.709 222.032 C 252.857 221.232,252.160 220.216,252.160 219.775 C 252.160 218.649,248.898 216.207,247.904 216.588 C 247.451 216.762,246.923 216.648,246.729 216.334 C 246.320 215.673,159.837 215.417,159.178 216.075 M147.677 247.840 C 147.563 251.448,147.470 248.496,147.470 241.280 C 147.470 234.064,147.563 231.112,147.677 234.720 C 147.791 238.328,147.791 244.232,147.677 247.840 M239.360 241.600 L 239.360 250.880 201.600 250.880 L 163.840 250.880 163.840 241.600 L 163.840 232.320 201.600 232.320 L 239.360 232.320 239.360 241.600 " stroke="none" fill="#555555" fill-rule="evenodd"></path></g></svg>