<svg style="display: block;" id="svg" version="1.1" width="555" height="500" xmlns="http://www.w3.org/2000/svg" xmlns:xlink="http://www.w3.org/1999/xlink"><g id="svgg"><path id="path0" d="M190.270 9.009 C 189.777 9.604,188.920 10.090,188.367 10.090 C 186.699 10.090,179.128 18.248,177.416 21.890 C 174.870 27.307,175.443 43.964,178.175 43.964 C 178.485 43.964,178.750 44.369,178.763 44.865 C 178.941 51.417,196.471 59.682,205.241 57.349 C 207.331 56.793,209.115 56.356,209.205 56.377 C 213.542 57.411,224.678 44.999,225.894 37.776 C 226.797 32.410,226.956 30.270,226.452 30.267 C 226.174 30.265,225.888 29.128,225.817 27.740 C 225.499 21.541,219.390 13.287,212.377 9.582 C 208.522 7.545,191.844 7.113,190.270 9.009 M94.649 45.037 C 92.995 45.444,91.400 46.017,91.106 46.312 C 90.811 46.606,89.976 46.847,89.249 46.847 C 88.523 46.847,87.928 47.171,87.928 47.568 C 87.928 47.964,87.565 48.288,87.121 48.288 C 85.919 48.288,80.285 54.405,79.173 56.915 C 78.642 58.116,78.006 59.099,77.760 59.099 C 76.819 59.099,75.494 67.946,75.879 71.670 C 78.327 95.388,111.499 101.793,122.375 80.648 C 124.096 77.301,126.184 69.511,125.719 68.171 C 125.570 67.740,125.309 66.577,125.140 65.586 C 122.662 51.065,108.624 41.605,94.649 45.037 M295.126 45.017 C 288.979 46.609,278.919 54.981,278.919 58.504 C 278.919 59.181,278.595 59.935,278.198 60.180 C 277.802 60.425,277.473 61.823,277.466 63.286 C 277.460 64.749,277.201 66.347,276.889 66.838 C 276.332 67.715,277.417 75.381,278.497 78.198 C 286.323 98.608,316.619 98.471,324.331 77.991 C 326.511 72.202,325.918 58.378,323.490 58.378 C 323.156 58.378,322.883 57.791,322.883 57.074 C 322.883 54.835,314.281 47.373,309.882 45.796 C 305.463 44.213,299.457 43.895,295.126 45.017 M167.207 63.326 C 159.592 64.718,146.306 73.216,146.306 76.695 C 146.306 77.185,145.510 78.335,144.536 79.249 C 143.563 80.164,142.829 81.112,142.906 81.357 C 142.983 81.602,142.688 82.775,142.250 83.964 C 140.132 89.727,139.820 93.749,139.820 115.312 L 139.820 137.630 137.838 138.064 C 134.453 138.804,128.335 141.377,126.467 142.846 L 124.685 144.249 124.685 131.352 C 124.685 121.226,124.427 117.692,123.485 114.903 C 116.853 95.261,91.495 91.722,79.668 108.789 C 75.792 114.381,75.692 115.543,75.683 155.042 L 75.676 191.525 71.892 195.809 C 64.879 203.749,65.186 203.941,65.477 191.799 C 65.890 174.499,63.911 166.763,57.507 160.649 C 45.097 148.803,25.755 152.742,18.235 168.649 C 16.150 173.058,15.856 178.976,15.856 216.502 C 15.856 253.880,15.817 254.959,14.414 256.577 C 12.628 258.636,12.175 279.790,13.894 280.865 C 14.401 281.182,15.423 282.819,16.165 284.503 C 17.714 288.017,23.348 293.620,28.169 296.442 C 35.251 300.586,34.358 300.524,86.916 300.533 L 135.273 300.541 134.936 312.031 C 134.558 324.889,135.077 331.010,136.680 332.613 C 137.274 333.207,137.516 333.694,137.218 333.694 C 136.919 333.694,137.906 334.788,139.410 336.126 C 143.128 339.435,149.817 341.360,150.991 339.459 C 151.236 339.063,152.082 338.739,152.871 338.739 C 154.659 338.739,158.905 334.666,159.633 332.252 C 159.932 331.261,160.488 330.060,160.869 329.583 C 161.250 329.106,161.488 327.647,161.397 326.340 C 161.306 325.033,161.279 318.694,161.337 312.252 L 161.441 300.541 163.159 300.541 L 164.877 300.541 165.160 324.505 C 165.316 337.685,165.697 348.874,166.007 349.369 C 166.446 350.070,174.335 350.270,201.484 350.270 L 236.396 350.270 236.396 325.405 L 236.396 300.541 238.378 300.541 L 240.360 300.541 240.256 312.253 C 240.051 335.141,242.106 338.579,255.588 337.898 C 265.434 337.401,266.646 334.751,266.659 313.694 L 266.667 300.541 314.691 300.541 C 348.072 300.541,363.620 300.293,365.682 299.729 C 374.885 297.209,381.762 291.701,386.677 282.912 L 389.299 278.224 389.064 268.301 C 388.841 258.900,388.727 258.231,386.893 255.577 L 384.958 252.775 384.890 214.661 C 384.806 167.560,384.512 165.864,375.239 158.914 C 367.543 153.146,353.508 151.987,349.522 156.790 C 349.044 157.366,348.111 157.838,347.449 157.838 C 345.819 157.838,340.656 163.296,338.927 166.847 C 336.197 172.454,335.772 175.725,335.998 189.370 C 336.118 196.605,336.131 202.524,336.026 202.523 C 335.838 202.523,334.944 201.568,328.773 194.781 L 325.654 191.351 325.723 155.866 C 325.789 121.478,325.454 114.971,323.506 112.829 C 323.163 112.452,322.883 111.679,322.883 111.110 C 322.883 110.541,322.072 109.324,321.081 108.405 C 320.090 107.487,319.279 106.452,319.279 106.106 C 319.279 105.204,316.402 102.733,313.874 101.463 C 312.685 100.865,310.739 99.848,309.550 99.202 C 304.395 96.401,293.812 97.724,287.568 101.949 C 278.480 108.099,276.715 113.037,276.691 132.391 L 276.676 144.061 273.332 141.940 C 271.493 140.774,269.468 139.820,268.832 139.820 C 268.196 139.820,267.368 139.520,266.991 139.155 C 266.614 138.789,265.333 138.383,264.144 138.254 L 261.982 138.018 261.549 113.153 C 261.312 99.477,260.780 87.081,260.369 85.606 C 258.464 78.780,250.360 69.284,244.294 66.771 C 242.527 66.039,239.946 64.905,238.559 64.252 C 235.930 63.013,173.359 62.202,167.207 63.326 M33.874 101.366 C 29.512 103.044,25.342 105.532,24.134 107.177 C 23.347 108.249,22.149 109.695,21.471 110.389 C 11.576 120.536,16.343 140.330,30.398 147.452 C 34.391 149.476,47.540 150.225,49.240 148.526 C 49.668 148.098,50.475 147.748,51.033 147.748 C 54.873 147.748,62.509 138.901,64.764 131.841 C 66.267 127.134,65.184 114.595,63.274 114.595 C 62.960 114.595,62.703 114.016,62.703 113.309 C 62.703 106.510,42.383 98.092,33.874 101.366 M352.613 101.811 C 350.928 102.216,349.550 102.825,349.550 103.165 C 349.550 103.506,349.087 103.784,348.521 103.784 C 343.456 103.784,335.337 118.494,336.055 126.369 C 338.933 157.937,384.414 156.852,385.308 125.194 C 385.776 108.637,370.288 97.560,352.613 101.811 M166.985 102.910 C 167.597 103.300,167.907 108.159,168.066 119.837 L 168.288 136.218 166.486 136.217 L 164.685 136.216 164.832 120.180 C 164.914 111.360,164.995 103.739,165.013 103.243 C 165.049 102.224,165.725 102.110,166.985 102.910 M236.616 119.861 L 236.980 136.299 235.067 136.077 L 233.153 135.856 232.959 120.246 C 232.788 106.515,232.909 104.492,233.958 103.442 C 235.994 101.406,236.241 102.935,236.616 119.861 M204.061 146.335 C 262.161 146.386,261.379 146.337,269.024 150.396 C 272.825 152.414,376.937 255.423,376.937 257.165 C 376.937 257.578,377.354 258.344,377.864 258.867 C 380.019 261.082,381.630 273.116,379.913 274.177 C 379.568 274.390,379.083 275.577,378.835 276.814 C 377.885 281.565,370.640 288.401,365.081 289.791 C 363.289 290.239,343.723 290.576,314.394 290.666 L 266.627 290.811 266.672 267.387 C 266.731 236.415,266.271 234.054,258.209 223.921 C 256.009 221.156,249.662 216.216,248.309 216.216 C 247.703 216.216,247.207 215.962,247.207 215.651 C 247.207 210.600,161.110 210.075,154.955 215.088 C 154.360 215.572,152.686 216.645,151.233 217.473 C 146.259 220.306,139.146 228.432,138.644 231.853 C 138.551 232.489,138.101 233.240,137.644 233.522 C 137.187 233.804,136.803 234.323,136.789 234.675 C 136.775 235.027,136.464 236.105,136.097 237.071 C 135.730 238.036,135.363 250.447,135.282 264.649 L 135.135 290.473 86.847 290.467 C 35.921 290.461,35.657 290.445,30.907 286.952 C 20.961 279.637,18.602 265.611,25.711 256.048 C 26.663 254.766,46.809 234.264,70.478 210.489 C 94.148 186.714,115.869 164.852,118.748 161.908 C 128.619 151.813,133.336 148.773,141.622 147.162 C 146.953 146.126,149.411 145.809,150.007 146.080 C 150.258 146.195,174.583 146.309,204.061 146.335 M196.035 150.811 C 196.036 151.108,195.793 151.287,195.495 151.209 C 189.149 149.532,176.298 162.135,174.037 172.252 C 172.370 179.714,175.652 192.795,179.614 194.474 C 179.925 194.607,180.180 195.012,180.180 195.375 C 180.180 199.528,192.311 205.014,201.441 204.991 C 212.191 204.962,226.348 195.086,226.674 187.387 C 226.682 187.189,227.004 186.541,227.390 185.946 C 228.388 184.407,228.553 173.267,227.612 170.951 C 226.714 168.742,224.106 163.249,223.133 161.518 C 221.643 158.868,214.762 153.873,210.389 152.267 C 205.908 150.621,196.034 149.619,196.035 150.811 M165.045 272.703 L 165.045 290.991 163.304 290.991 C 160.877 290.991,160.742 290.068,160.731 273.423 C 160.719 256.160,160.958 254.414,163.333 254.414 L 165.045 254.414 165.045 272.703 M240.000 271.653 C 240.000 281.134,240.189 289.383,240.420 289.985 C 240.741 290.823,240.322 291.063,238.618 291.015 L 236.396 290.952 236.396 273.164 C 236.396 254.847,236.449 254.414,238.679 254.414 C 239.923 254.414,240.000 255.417,240.000 271.653 " stroke="none" fill="#555555" fill-rule="evenodd"></path></g></svg>