<svg style="display: block;" id="svg" version="1.1" width="500" height="500" xmlns="http://www.w3.org/2000/svg" xmlns:xlink="http://www.w3.org/1999/xlink"><g id="svgg"><path id="path0" d="M77.386 18.254 C 76.072 18.406,75.386 18.854,75.698 19.358 C 76.000 19.847,75.751 20.049,75.111 19.834 C 74.500 19.628,73.523 20.031,72.941 20.730 C 72.121 21.713,72.020 21.729,72.494 20.800 C 73.025 19.761,72.923 19.750,71.734 20.714 C 70.979 21.327,70.548 22.015,70.776 22.243 C 71.004 22.471,70.383 23.079,69.395 23.594 C 68.408 24.109,67.690 24.951,67.800 25.465 C 67.910 25.979,67.640 26.400,67.200 26.400 C 66.760 26.400,66.443 26.670,66.495 27.000 C 66.547 27.330,66.520 27.780,66.435 28.000 C 66.350 28.220,66.117 29.300,65.917 30.400 C 65.717 31.500,65.294 32.490,64.977 32.600 C 64.526 32.757,64.250 290.308,64.691 299.447 C 64.753 300.721,65.147 301.480,65.600 301.200 C 66.040 300.928,66.400 301.207,66.400 301.819 C 66.400 302.432,66.924 302.933,67.565 302.933 C 68.205 302.933,68.544 302.633,68.318 302.267 C 68.091 301.900,68.325 301.600,68.838 301.600 C 69.351 301.600,69.559 301.046,69.299 300.370 C 69.031 299.671,69.337 298.944,70.009 298.686 C 70.659 298.436,71.012 297.943,70.793 297.588 C 70.143 296.536,71.297 294.365,72.207 294.928 C 72.679 295.219,72.812 295.066,72.511 294.579 C 72.215 294.101,72.293 293.513,72.684 293.272 C 73.074 293.031,73.616 291.722,73.887 290.364 C 74.159 289.005,74.741 288.117,75.181 288.389 C 75.662 288.685,75.771 288.335,75.455 287.510 C 75.100 286.585,75.230 286.324,75.855 286.710 C 76.479 287.096,76.610 286.835,76.255 285.910 C 75.900 284.985,76.030 284.724,76.655 285.110 C 77.228 285.465,77.425 285.275,77.171 284.613 C 76.945 284.025,77.400 282.836,78.180 281.972 C 79.527 280.481,79.600 274.041,79.600 156.800 L 79.600 33.200 147.155 32.995 C 184.311 32.883,215.019 33.099,215.395 33.475 C 215.771 33.851,216.191 44.023,216.328 56.079 C 216.590 79.137,216.642 80.000,217.781 80.000 C 218.173 80.000,218.296 80.322,218.053 80.715 C 217.810 81.108,218.523 81.658,219.638 81.938 C 220.753 82.218,221.463 82.774,221.217 83.173 C 220.953 83.600,228.618 83.933,239.784 83.981 C 260.656 84.070,262.000 84.156,262.000 85.410 C 262.000 85.881,262.270 86.537,262.600 86.867 C 262.930 87.197,263.200 114.407,263.200 147.333 L 263.200 207.200 269.991 207.200 L 276.782 207.200 276.991 140.653 C 277.222 67.068,277.638 73.968,272.640 68.479 C 271.879 67.642,271.444 66.652,271.675 66.279 C 271.906 65.905,271.512 65.600,270.800 65.600 C 270.025 65.600,269.735 65.229,270.076 64.676 C 270.415 64.129,270.297 63.969,269.788 64.284 C 269.315 64.576,268.183 63.822,267.273 62.608 C 266.362 61.393,265.253 59.965,264.809 59.434 C 264.364 58.902,264.000 58.092,264.000 57.634 C 264.000 57.175,263.516 56.800,262.924 56.800 C 262.332 56.800,261.196 56.080,260.400 55.200 C 259.604 54.320,259.240 53.600,259.593 53.600 C 259.945 53.600,259.281 52.717,258.117 51.638 C 256.953 50.559,256.000 49.343,256.000 48.936 C 256.000 48.529,255.370 47.702,254.600 47.098 C 253.305 46.082,253.288 46.120,254.376 47.600 C 255.246 48.785,254.988 48.697,253.379 47.264 C 252.184 46.198,251.363 45.171,251.554 44.980 C 251.745 44.788,251.087 43.860,250.091 42.916 C 249.095 41.972,248.047 40.565,247.761 39.788 C 247.475 39.011,246.414 38.062,245.404 37.677 C 244.393 37.293,243.063 36.039,242.448 34.889 C 241.833 33.740,241.030 32.800,240.665 32.800 C 240.299 32.800,240.000 32.304,240.000 31.698 C 240.000 31.092,239.391 30.102,238.646 29.498 C 237.481 28.553,237.379 28.567,237.911 29.600 C 238.251 30.260,237.610 29.720,236.486 28.400 C 235.362 27.080,233.893 25.370,233.222 24.600 C 232.550 23.830,232.000 22.884,232.000 22.498 C 232.000 22.112,231.370 21.302,230.600 20.698 C 229.306 19.683,229.288 19.721,230.369 21.200 C 231.044 22.123,230.523 21.874,229.139 20.612 L 226.738 18.425 153.169 18.212 C 112.706 18.096,78.604 18.115,77.386 18.254 M234.585 48.000 C 234.923 48.000,235.200 48.496,235.200 49.102 C 235.200 49.708,235.830 50.698,236.600 51.302 C 237.887 52.311,237.911 52.271,236.896 50.800 C 236.288 49.920,236.828 50.316,238.096 51.679 C 241.486 55.327,242.836 57.099,243.455 58.711 C 243.759 59.504,244.741 60.343,245.636 60.578 C 246.531 60.812,247.799 62.038,248.453 63.302 C 249.106 64.566,249.950 65.600,250.327 65.600 C 250.705 65.600,251.202 66.320,251.432 67.200 C 251.834 68.739,251.456 68.800,241.525 68.800 L 231.200 68.800 231.221 56.200 C 231.242 43.996,231.285 43.669,232.607 45.800 C 233.357 47.010,234.247 48.000,234.585 48.000 M101.222 99.165 C 100.962 99.586,100.161 99.705,99.443 99.429 C 98.630 99.117,98.336 99.249,98.664 99.780 C 99.163 100.587,97.086 101.999,95.800 101.727 C 95.470 101.657,95.243 101.870,95.295 102.200 C 95.538 103.738,95.132 104.852,94.476 104.447 C 93.691 103.962,94.043 109.701,94.962 112.373 C 95.269 113.268,95.539 114.240,95.561 114.533 C 95.582 114.827,95.928 115.367,96.328 115.733 C 96.756 116.125,96.814 115.905,96.469 115.200 C 96.102 114.451,96.308 114.520,97.017 115.383 C 98.077 116.675,102.894 116.768,169.966 116.791 C 209.463 116.805,242.102 117.016,242.496 117.259 C 242.889 117.502,243.426 117.141,243.689 116.455 C 243.952 115.770,244.440 115.377,244.772 115.583 C 245.312 115.916,247.324 111.976,248.236 108.800 C 248.425 108.140,248.104 106.656,247.522 105.501 C 246.940 104.347,246.652 103.214,246.883 102.984 C 247.114 102.753,245.321 101.628,242.901 100.482 L 238.499 98.400 170.097 98.400 C 127.441 98.400,101.516 98.688,101.222 99.165 M24.455 126.473 C 22.885 127.315,21.600 127.816,21.600 127.588 C 21.600 127.359,19.980 128.863,18.000 130.929 C 16.020 132.996,14.400 135.003,14.400 135.390 C 14.400 135.778,13.950 135.835,13.400 135.519 C 12.850 135.202,12.656 135.227,12.968 135.573 C 13.281 135.920,13.041 137.388,12.436 138.836 C 11.831 140.285,11.546 141.679,11.801 141.935 C 12.057 142.191,11.937 142.400,11.533 142.401 C 11.092 142.402,10.800 185.875,10.800 251.401 C 10.800 364.948,10.857 366.991,14.070 369.658 C 14.692 370.174,15.200 371.053,15.200 371.612 C 15.200 372.171,15.763 372.845,16.451 373.109 C 17.151 373.377,17.449 373.998,17.127 374.518 C 16.779 375.081,16.901 375.232,17.436 374.901 C 17.922 374.601,18.677 375.022,19.113 375.837 C 19.549 376.652,21.367 377.756,23.153 378.291 C 24.939 378.826,26.400 379.544,26.400 379.886 C 26.400 381.245,303.525 381.020,306.783 379.659 C 308.426 378.972,310.147 378.644,310.609 378.929 C 311.128 379.250,311.206 379.056,310.812 378.420 C 310.391 377.739,310.546 377.515,311.271 377.757 C 311.873 377.958,313.585 376.938,315.074 375.491 C 316.564 374.045,318.175 372.937,318.655 373.030 C 319.135 373.124,319.544 372.721,319.564 372.136 C 319.584 371.550,320.224 370.614,320.988 370.056 C 321.751 369.498,322.141 368.807,321.854 368.521 C 321.568 368.234,321.753 368.000,322.267 368.000 C 322.780 368.000,323.129 367.730,323.041 367.400 C 322.712 366.151,324.110 363.329,325.281 362.880 C 325.952 362.622,326.277 362.049,326.003 361.606 C 325.730 361.163,325.876 360.800,326.328 360.800 C 326.780 360.800,326.943 360.260,326.689 359.600 C 326.436 358.940,326.627 358.400,327.114 358.400 C 327.601 358.400,328.000 357.698,328.000 356.840 C 328.000 355.982,328.514 354.992,329.143 354.640 C 329.772 354.288,330.259 353.820,330.226 353.600 C 330.051 352.443,331.549 349.251,332.904 347.896 C 333.754 347.046,334.664 345.281,334.925 343.975 C 335.186 342.669,335.736 341.600,336.147 341.600 C 336.558 341.600,336.698 341.282,336.458 340.894 C 336.218 340.506,336.737 339.279,337.611 338.168 C 338.485 337.057,339.200 335.618,339.200 334.972 C 339.200 334.325,339.740 333.348,340.400 332.800 C 341.060 332.252,341.600 331.334,341.600 330.759 C 341.600 330.184,342.166 329.149,342.857 328.457 C 343.549 327.766,343.907 327.200,343.654 327.200 C 343.173 327.200,347.245 319.098,348.077 318.400 C 348.339 318.180,348.796 317.010,349.092 315.800 C 349.388 314.590,349.956 313.600,350.353 313.600 C 350.751 313.600,351.492 312.340,352.000 310.800 C 352.508 309.260,353.277 308.000,353.709 308.000 C 354.141 308.000,354.270 307.637,353.997 307.194 C 353.723 306.751,354.039 306.181,354.699 305.928 C 355.359 305.675,355.730 305.026,355.523 304.487 C 355.316 303.948,355.913 302.628,356.850 301.553 C 359.043 299.037,361.269 294.816,359.983 295.610 C 358.808 296.337,361.467 292.164,363.462 290.151 C 364.266 289.340,364.722 288.150,364.475 287.508 C 364.229 286.865,364.538 286.143,365.163 285.904 C 365.788 285.664,366.121 285.004,365.904 284.437 C 365.686 283.870,366.092 283.183,366.805 282.909 C 367.518 282.635,367.886 282.063,367.624 281.638 C 367.109 280.806,368.396 278.199,370.514 275.782 C 371.237 274.957,372.593 272.185,373.528 269.622 C 374.463 267.058,375.755 264.758,376.400 264.511 C 377.064 264.256,377.368 263.527,377.101 262.830 C 376.841 262.154,377.027 261.600,377.514 261.600 C 378.001 261.600,378.400 261.060,378.400 260.400 C 378.400 259.740,378.760 259.200,379.200 259.200 C 379.640 259.200,379.910 258.923,379.800 258.584 C 379.479 257.596,382.571 251.200,383.369 251.200 C 383.768 251.200,383.870 250.837,383.597 250.394 C 383.323 249.951,383.659 249.374,384.345 249.111 C 385.030 248.848,385.390 248.307,385.144 247.910 C 384.899 247.513,385.261 246.625,385.949 245.937 C 386.637 245.249,387.200 244.036,387.200 243.241 C 387.200 242.446,387.740 241.348,388.400 240.800 C 389.060 240.252,389.600 239.308,389.600 238.702 C 389.600 238.096,389.949 237.600,390.375 237.600 C 390.801 237.600,390.920 237.001,390.639 236.269 C 390.268 235.302,390.418 235.117,391.188 235.592 C 391.793 235.966,392.054 235.934,391.796 235.517 C 391.547 235.115,391.612 233.322,391.939 231.532 C 392.491 228.517,389.826 220.000,388.331 220.000 C 388.097 220.000,388.160 220.450,388.470 221.000 C 388.781 221.550,388.248 221.190,387.286 220.200 C 386.325 219.210,385.102 218.393,384.569 218.385 C 384.036 218.377,366.860 218.384,346.400 218.400 L 309.200 218.431 309.433 202.225 C 309.562 193.312,309.331 185.295,308.921 184.410 C 307.868 182.134,306.077 175.728,306.274 174.941 C 306.365 174.578,306.125 174.476,305.740 174.713 C 305.356 174.951,304.566 174.258,303.985 173.173 C 303.405 172.088,302.630 171.200,302.265 171.200 C 301.899 171.200,301.600 170.660,301.600 170.000 C 301.600 169.340,301.330 168.843,301.000 168.895 C 299.412 169.145,298.354 168.721,298.794 168.009 C 299.075 167.556,298.753 167.422,298.042 167.695 C 297.359 167.957,296.800 167.833,296.800 167.419 C 296.800 167.005,296.350 166.628,295.800 166.580 C 294.134 166.436,292.445 165.983,291.600 165.454 C 291.073 165.123,290.800 173.993,290.800 191.476 L 290.800 218.000 211.495 218.189 C 167.878 218.292,131.518 218.606,130.695 218.886 C 126.384 220.354,123.321 221.949,123.685 222.537 C 123.910 222.902,123.353 223.200,122.447 223.200 C 121.541 223.200,120.890 223.490,121.000 223.845 C 121.253 224.660,117.406 230.387,116.600 230.395 C 116.270 230.398,116.000 231.076,116.000 231.902 C 116.000 232.728,115.464 233.849,114.809 234.393 C 114.154 234.936,113.815 235.701,114.056 236.091 C 114.297 236.481,114.092 236.800,113.600 236.800 C 113.108 236.800,112.899 237.112,113.135 237.494 C 113.773 238.527,110.827 244.150,110.029 243.424 C 109.652 243.081,109.587 243.225,109.885 243.745 C 110.183 244.264,110.107 244.887,109.716 245.128 C 109.326 245.369,108.784 246.678,108.513 248.036 C 108.192 249.640,107.692 250.304,107.086 249.929 C 106.533 249.588,106.367 249.699,106.679 250.204 C 107.339 251.272,106.454 253.728,105.600 253.200 C 105.252 252.985,104.754 253.366,104.493 254.046 C 104.174 254.878,104.343 255.096,105.009 254.713 C 105.554 254.399,105.100 255.158,104.000 256.400 C 102.900 257.642,102.446 258.401,102.991 258.087 C 103.658 257.703,103.826 257.922,103.505 258.758 C 103.243 259.441,102.707 260.000,102.314 260.000 C 101.921 260.000,101.600 260.694,101.600 261.543 C 101.600 262.391,101.047 263.639,100.371 264.314 C 99.696 264.990,99.186 265.748,99.239 265.999 C 99.415 266.832,96.410 273.594,95.864 273.597 C 95.569 273.599,95.089 274.683,94.798 276.007 C 94.508 277.331,93.999 278.247,93.668 278.042 C 93.337 277.838,93.066 278.105,93.066 278.635 C 93.064 280.353,87.205 292.000,86.342 292.000 C 85.882 292.000,85.710 292.331,85.960 292.736 C 86.210 293.140,85.846 294.040,85.150 294.736 C 84.455 295.431,84.100 296.000,84.361 296.000 C 84.623 296.000,84.247 296.900,83.526 298.000 C 82.806 299.100,82.432 300.000,82.695 300.000 C 82.959 300.000,82.378 301.527,81.406 303.393 C 80.433 305.259,79.563 307.293,79.472 307.913 C 79.381 308.533,78.899 309.292,78.400 309.600 C 77.901 309.908,77.409 310.737,77.306 311.442 C 77.202 312.147,76.416 313.522,75.559 314.499 C 74.605 315.586,74.466 316.013,75.200 315.600 C 76.062 315.115,76.005 315.376,75.000 316.525 C 74.230 317.406,73.600 318.562,73.600 319.095 C 73.600 320.699,70.429 326.400,69.537 326.400 C 69.080 326.400,68.911 326.733,69.163 327.140 C 69.733 328.063,68.001 332.000,67.024 332.000 C 66.629 332.000,66.503 332.319,66.744 332.709 C 66.985 333.099,66.650 333.860,66.000 334.400 C 65.350 334.940,64.997 335.671,65.216 336.026 C 65.435 336.381,65.089 337.197,64.445 337.840 C 63.802 338.483,63.499 339.232,63.771 339.505 C 64.044 339.777,63.825 340.000,63.286 340.000 C 62.747 340.000,62.528 340.360,62.800 340.800 C 63.072 341.240,62.924 341.600,62.472 341.600 C 62.020 341.600,61.856 342.137,62.108 342.793 C 62.369 343.474,62.016 344.197,61.288 344.477 C 60.584 344.747,60.188 345.257,60.407 345.612 C 61.016 346.597,59.931 348.852,59.096 348.336 C 58.692 348.086,58.446 348.178,58.550 348.541 C 58.655 348.903,58.339 349.920,57.849 350.800 C 56.945 352.423,56.800 352.928,56.800 354.447 C 56.800 354.913,56.444 355.074,56.009 354.806 C 55.539 354.515,55.432 354.874,55.745 355.690 C 56.100 356.615,55.970 356.876,55.345 356.490 C 54.721 356.104,54.590 356.365,54.945 357.290 C 55.331 358.295,55.188 358.487,54.412 358.008 C 53.721 357.580,53.544 357.663,53.903 358.244 C 56.380 362.250,40.887 364.401,34.053 361.000 C 28.426 358.199,28.787 365.677,28.806 252.112 C 28.821 162.604,28.973 149.541,30.012 148.503 C 30.665 147.849,31.200 146.950,31.200 146.504 C 31.200 146.059,31.616 145.438,32.124 145.124 C 32.733 144.747,32.845 144.935,32.454 145.676 C 32.128 146.294,32.555 145.949,33.402 144.910 C 34.809 143.184,35.719 142.983,43.871 142.597 L 52.800 142.173 52.800 133.455 L 52.800 124.737 40.055 124.840 C 29.160 124.928,26.895 125.165,24.455 126.473 M98.820 154.238 C 98.601 154.808,97.787 155.168,97.011 155.038 C 96.165 154.895,95.691 155.234,95.828 155.884 C 95.954 156.481,95.594 157.526,95.028 158.207 C 93.815 159.667,93.504 166.553,94.684 165.824 C 95.124 165.552,95.273 165.855,95.022 166.511 C 94.704 167.339,95.921 168.321,99.161 169.851 L 103.751 172.018 172.075 171.733 C 246.463 171.423,242.080 171.561,244.327 169.467 C 245.193 168.660,246.254 168.000,246.684 168.000 C 247.115 168.000,247.239 167.773,246.961 167.495 C 246.684 167.217,246.864 166.228,247.362 165.297 C 248.698 162.801,248.647 159.840,247.240 158.196 C 246.558 157.400,246.000 156.310,246.000 155.774 C 246.000 155.238,245.537 154.800,244.971 154.800 C 244.405 154.800,243.685 154.440,243.371 154.000 C 242.431 152.683,99.326 152.918,98.820 154.238 M100.557 207.347 C 100.072 207.648,99.334 207.683,98.915 207.424 C 98.465 207.146,98.422 207.388,98.808 208.012 C 99.282 208.780,99.099 208.932,98.141 208.565 C 97.414 208.286,96.902 208.315,97.003 208.629 C 97.237 209.355,94.768 212.899,94.328 212.469 C 94.148 212.293,93.917 213.578,93.814 215.326 C 93.580 219.350,95.901 222.666,100.139 224.362 C 104.580 226.139,105.438 225.937,106.748 222.800 C 107.392 221.260,108.297 220.000,108.759 220.000 C 109.222 220.000,109.600 219.460,109.600 218.800 C 109.600 218.140,109.969 217.600,110.420 217.600 C 110.871 217.600,111.595 216.665,112.029 215.523 C 112.464 214.380,113.531 213.259,114.401 213.032 C 115.270 212.804,115.791 212.310,115.558 211.933 C 115.325 211.555,116.023 211.024,117.109 210.751 C 118.196 210.479,119.295 209.707,119.552 209.037 C 119.854 208.249,120.623 207.976,121.725 208.264 C 122.719 208.524,123.132 208.415,122.715 208.001 C 121.860 207.153,101.820 206.562,100.557 207.347 " stroke="none" fill="#555555" fill-rule="evenodd"></path></g></svg>