<?xml version="1.0" standalone="no"?>
<!DOCTYPE svg PUBLIC "-//W3C//DTD SVG 1.1//EN" "http://www.w3.org/Graphics/SVG/1.1/DTD/svg11.dtd" >
<svg xmlns="http://www.w3.org/2000/svg">
<metadata>Generated by IcoMoon</metadata>
<defs>
<font id="icomoon" horiz-adv-x="1024">
<font-face units-per-em="1024" ascent="960" descent="-64" />
<missing-glyph horiz-adv-x="1024" />
<glyph unicode="&#x20;" horiz-adv-x="512" d="" />
<glyph unicode="&#xe900;" glyph-name="arrow-down-filled-triangle" d="M5.974 736.668l489.359-613.469c8.094-10.128 25.208-10.128 33.301 0l489.412 613.512c5.825 7.338 7.551 18.275 4.409 27.795-0.65 1.991-1.374 3.514-1.981 4.654-3.738 6.922-10.916 11.246-18.797 11.246h-979.389c-7.838 0-15.059-4.313-18.765-11.246-0.628-1.161-1.352-2.694-1.96-4.537-3.163-9.638-1.448-20.596 4.409-27.955z" />
<glyph unicode="&#xe901;" glyph-name="up-triangle" d="M1018.036 159.332l-489.37 613.469c-8.094 10.128-25.208 10.128-33.301 0l-489.412-613.512c-5.815-7.338-7.54-18.285-4.409-27.795 0.65-1.991 1.384-3.514 1.991-4.654 3.717-6.912 10.916-11.246 18.775-11.246h979.41c7.849 0 15.059 4.313 18.775 11.246 0.639 1.161 1.342 2.705 1.96 4.547 3.152 9.627 1.427 20.586-4.42 27.945z" />
<glyph unicode="&#xe902;" glyph-name="arrow1" d="M117.029 53.029v906.971h-117.029v-1024h1024v117.029zM639.628 389.474l154.522 221.123-53.462 37.358 202.954 94.872-19.295-223.212-53.456 37.353-203.846-291.705-218.22 126.803-162.166-210.312-74.138 57.171 212.322 275.357z" />
<glyph unicode="&#xe903;" glyph-name="arrows" d="M782.857 397.307l-440.304-440.29c-28.009-28.022-73.42-28.022-101.415 0-27.997 27.997-27.997 73.406 0 101.401l389.601 389.589-389.589 389.576c-27.997 28.009-27.997 73.413 0 101.41 27.997 28.009 73.406 28.009 101.415 0l440.304-440.297c13.999-14.005 20.99-32.342 20.99-50.687 0-18.354-7.005-36.704-21.001-50.703z" />
<glyph unicode="&#xe904;" glyph-name="bible" d="M866.737 64.321c21.17 0 38.323 17.159 38.323 38.323v819.032c0 21.165-17.153 38.323-38.323 38.323h-671.33c-42.166 0-76.467-34.302-76.467-76.467v-808.629c0-1.308 0.066-2.606 0.194-3.883-0.066-1.288-0.194-2.56-0.194-3.868v-54.046c0-42.518 34.593-77.111 77.111-77.111h670.686c21.17 0 38.323 17.159 38.323 38.323s-17.153 38.323-38.323 38.323h-2.059v51.675h2.059zM397.881 658.182h75.793v74.112c0 21.165 17.153 38.323 38.323 38.323s38.323-17.159 38.323-38.323v-74.117h75.793c21.17 0 38.323-17.159 38.323-38.323s-17.153-38.323-38.323-38.323h-75.793v-232.468c0-21.165-17.153-38.323-38.323-38.323s-38.323 17.159-38.323 38.323v232.473h-75.793c-21.17 0-38.323 17.159-38.323 38.323s17.159 38.323 38.323 38.323zM788.032 12.646h-591.98c-0.255 0-0.465 0.209-0.465 0.465v51.21h592.445v-51.675z" />
<glyph unicode="&#xe905;" glyph-name="black" d="M955.44 704.934c-45.719 56.189-107.821 100.571-186.288 133.143-78.465 32.568-164.19 48.856-257.144 48.856-69.337 0-135.623-9.617-198.859-28.855-63.236-19.236-117.71-45.237-163.425-77.997-45.723-32.764-82.096-71.716-109.148-116.855-27.052-45.141-40.576-92.478-40.576-142.002 0-57.14 17.233-110.681 51.712-160.585 34.479-49.898 81.616-91.809 141.431-125.714-4.195-15.233-9.147-29.714-14.863-43.418-5.714-13.714-10.856-24.966-15.427-33.727-4.575-8.76-10.76-18.479-18.576-29.145-7.804-10.664-13.708-18.191-17.709-22.566-3.997-4.383-10.568-11.632-19.716-21.714-9.137-10.103-15.045-16.67-17.709-19.724-0.386-0.178-1.907-1.905-4.573-5.138-2.664-3.232-4.001-4.85-4.001-4.85l-3.429-5.136c-1.907-2.864-2.764-4.671-2.576-5.418 0.192-0.747-0.188-2.664-1.141-5.706-0.955-3.054-0.857-5.342 0.284-6.871v-0.568c1.531-6.863 4.864-12.383 10.003-16.566 5.14-4.187 10.956-5.904 17.429-5.13 24.768 3.046 46.48 7.217 65.144 12.561 99.813 25.535 187.435 71.616 262.86 138.295 28.565-3.046 56.185-4.575 82.853-4.575 92.952 0 178.673 16.288 257.146 48.87 78.473 32.568 140.569 76.952 186.28 133.131 45.719 56.165 68.576 117.412 68.576 183.696 0.002 66.286-22.853 127.529-68.558 183.708z" />
<glyph unicode="&#xe906;" glyph-name="book" d="M881.269 87.599c17.959 20.014 23.945 45.455 15.524 72.237-0.335 1.005-77.798 256.96-77.798 256.96-8.421 27.876-34.063 46.46-63.213 46.46h-101.297v-130.088c0-78.826-64.352-142.954-143.2-142.954-78.826 0-143.222 64.128-143.222 142.954v130.088h-81.975c-29.105 0-54.792-18.45-63.168-46.371-61.783-214.99-62.431-217.268-88.051-292.208-6.009-17.624-12.24-36.297-12.24-56.065 0-72.795 59.192-132.635 131.965-132.635h581.020c26.916 0 51.173 17.021 61.202 42.015 10.029 25.017 2.837 52.893-15.524 72.572-7.416 7.952-12.486 23.074-0.022 37.034zM835.591 4.462h-580.998c-36.453 0-66.005 29.462-66.005 65.893 0 36.453 29.551 65.893 66.005 65.893h581.020c-35.448-35.471-35.448-98.862-0.022-131.786zM324.886 628.033h109.092v-294.866c0-42.507 34.8-76.972 77.307-76.972s77.307 34.465 77.307 76.972v294.866h109.919c42.507 0 76.972 34.778 76.972 77.285 0 42.529-34.465 77.307-76.972 77.307h-109.919v100.381c0.022 42.529-34.8 76.994-77.307 76.994s-77.307-34.465-77.307-76.994v-100.381h-109.092c-42.507 0-76.972-34.8-76.972-77.307s34.488-77.285 76.972-77.285z" />
<glyph unicode="&#xe907;" glyph-name="book-1" d="M923.709 12.545v912.632c0 27.792-34.757 34.823-34.757 34.823h-684.325c-104.337 0-104.337-96.311-104.337-96.311v-890.611c0-20.43 16.516-37.078 37.145-37.078h667.875c20.496 0 37.078 16.649 37.078 37.078l44.176 0.133c39.864 0 37.145 39.334 37.145 39.334zM531.965 505.906v-401.959h-76.876v401.959h-169.406v76.876h169.406v135.976h76.876v-135.976h169.34l0.066-76.876c0 0-169.406 0-169.406 0zM880.728 60.965c0 0-6.633-24.144-38.339-24.144v788.197c0 20.496-16.582 37.078-37.078 37.078l-631.991 0.332c0 25.471 38.339 38.405 38.339 38.405h630.73c39.533 0 38.339-34.823 38.339-34.823s0-805.045 0-805.045z" />
<glyph unicode="&#xe908;" glyph-name="buildings" d="M529.020 927.823l487.152-453.357c9.846-9.513 10.556-24.992 1.397-35.193-4.923-5.278-11.62-7.739-18.295-7.739v-0.355h-123.185v-444.908c0-13.727-11.265-24.992-24.992-24.992h-193.947c-13.727 0-24.637 11.265-24.637 24.992v342.124h-240.76v-342.124c0-13.727-11.265-24.992-24.992-24.992h-193.947c-13.727 0-24.637 11.265-24.637 24.992v444.908h-123.54c-13.727 0-24.637 11.243-24.637 24.97 0 7.739 3.526 14.791 9.158 19.359l486.066 452.669c9.513 8.782 24.282 8.782 33.796-0.355v0zM738.8 664.888l-226.678 211.178-424.129-394.946h84.821c13.727 0 24.992-11.265 24.992-24.992v-444.908h144.318v341.814c0 13.727 10.91 24.992 24.637 24.992h290.389c13.727 0 24.992-11.265 24.992-24.992v-341.769h144.318v444.886c0 13.727 10.91 24.992 24.637 24.992h85.176l-197.473 183.747z" />
<glyph unicode="&#xe909;" glyph-name="businesswoman" d="M538.527 371.206l40.611-119.739-56.73 4.396-39.983-49.194 105.714-105.714 149.674 149.674c-11.513 19.259-28.469 34.959-48.984 45.216l-128.531 63.428c-7.327 3.768-14.444 7.745-21.771 11.932zM272.463 255.863l-56.73-4.396 41.448 119.739-25.748-13.188-125.391-61.963c-33.493-16.537-57.358-47.938-64.056-84.78l-20.515-113.459c-1.465-8.373 4.815-16.119 13.397-16.119h150.302l126.229 126.229-38.936 47.938zM712.693 485.084c14.653-7.117 30.353-10.676 46.472-13.397 12.56-1.884 12.979-2.512 12.979-15.491 0-5.861 0-11.723 0.209-17.793 0-7.536 3.768-11.723 11.304-11.932 8.583-0.209 17.375-0.209 26.167 0 7.117 0.209 10.676 3.977 10.885 11.304 0 8.164 0.419 16.119 0 24.283s3.14 12.351 11.095 14.444c18.212 5.024 33.703 14.653 45.635 29.307 33.075 40.192 20.305 99.015-26.376 124.973-14.653 8.164-30.353 14.235-45.844 20.724-9.001 3.768-17.584 8.164-25.12 14.025-14.863 11.932-12.141 31.191 5.443 38.936 4.815 2.093 10.048 2.931 15.491 3.14 20.305 1.047 39.564-2.512 57.776-11.513 9.211-4.396 12.141-2.931 15.281 6.489 3.349 10.048 6.071 20.305 9.001 30.353 1.884 6.908-0.419 11.304-6.908 14.235-11.723 5.233-23.864 9.001-36.424 10.885-16.537 2.512-16.537 2.721-16.537 19.259 0 23.445 0 23.445-23.655 23.445-3.349 0-6.908 0-10.257 0-10.885-0.419-12.769-2.303-13.188-13.188-0.209-5.024 0-9.839 0-14.863 0-14.653-0.209-14.444-14.235-19.677-34.121-12.351-55.055-35.587-57.358-72.639-2.093-32.865 15.072-55.055 42.076-71.174 16.537-10.048 34.959-15.909 52.543-23.655 6.908-2.931 13.397-6.489 19.259-11.304 16.956-14.025 13.816-37.261-6.28-46.054-10.676-4.605-22.189-5.861-33.703-4.396-18.003 2.303-35.168 6.908-51.496 15.491-9.42 5.024-12.351 3.559-15.491-6.699-2.721-8.792-5.233-17.793-7.745-26.795-3.768-12.351-2.512-15.281 9.001-20.724zM295.281 437.983v-37.889l53.799-157.001c13.816 9.211 30.144 14.235 47.1 14.235 17.793 0 34.959-5.443 49.194-15.7l54.008 157.629-0.209 2.721v36.843c0 0 116.39-3.559 171.654 52.752 0 0-80.384 22.817-65.94 169.142s-18.003 274.646-135.649 263.761c0 0-50.868 61.335-152.395 22.817-34.749-13.188-128.322-46.682-123.507-249.317s-72.011-203.891-72.011-203.891 39.564-57.148 173.957-56.102zM985.037 386.696c-0.628 0-1.465 0-2.093 0-45.426-2.093-90.851-4.187-136.277-6.489-7.117-0.419-14.025-0.628-18.003-9.211-3.977-8.373 0.628-13.188 5.443-18.003 14.025-14.025 27.632-28.051 41.867-41.867l-287.834-287.834-170.817 170.817c-5.861 5.861-13.607 8.792-21.143 8.792-7.745 0-15.281-2.931-21.143-8.792l-7.327-7.536-157.001-157.001c-11.723-11.723-11.723-30.772 0-42.286l7.536-7.536c5.861-5.861 13.607-8.792 21.143-8.792 7.745 0 15.281 2.931 21.143 8.792l135.649 135.649 170.607-170.607c5.861-5.861 13.607-8.792 21.143-8.792 7.745 0 15.281 2.931 21.143 8.792l316.304 316.304 41.029-40.611c3.768-3.768 7.536-7.955 12.979-7.955 2.093 0 4.187 0.628 6.699 1.884 8.164 4.396 10.048 11.513 10.257 19.677 1.884 44.379 4.187 88.548 6.28 132.927 1.047 13.607-4.605 19.677-17.584 19.677z" />
<glyph unicode="&#xe90a;" glyph-name="calendar" d="M706.76 851.576v60.235h-72.282v-60.235h-244.955v60.235h-72.282v-60.235h-317.24v-867.388h1024v867.388h-317.24zM317.24 779.294v-60.235h72.282v60.235h244.958v-48.188h72.282v48.188h244.955v-120.471h-879.435v120.471h244.958zM72.282 56.471v530.071h879.435v-530.071h-879.435zM234.918 273.318h120.471v-120.471h-120.471v120.471zM451.765 273.318h120.471v-120.471h-120.471v120.471zM668.612 273.318h120.471v-120.471h-120.471v120.471zM451.765 490.165h120.471v-120.471h-120.471v120.471zM668.612 490.165h120.471v-120.471h-120.471v120.471zM234.918 490.165h120.471v-120.471h-120.471v120.471z" />
<glyph unicode="&#xe90b;" glyph-name="captured-criminal-hands" d="M1024 261.072c0 24.269-30.92 37.934-68 45.615l-5.268 81.94c34.913 103.168-3.159 236.697-3.159 236.697-4.62 73.68-85.109 67.981-85.109 67.981-33.068 62.232-86.698 18.903-86.698 18.903-39.866 61.163-91.72 6.494-91.72 6.494-87.885 11.732-85.54-62.301-85.54-62.301-2.403-23.474 11.036-96.547 11.036-96.547-12.468 42.221-41.289 8.064-41.289 8.064-35.599-54.444-9.829-85.256-9.829-85.256 46.321-57.828 145.752-128.202 145.752-128.202 9.251-5.709 17.393-24.073 24.367-48.136-1.089-0.226-2.188-0.5-3.257-0.726-10.536 14.273-20.64 29.184-21.346 34.667-1.511 11.673-6.877 17.854-31.538-3.61-6.053-5.258-13.292-9.869-20.787-13.841l-30.037 34.501c3.963 9.231 4.944 19.413 2.354 29.272-3.080 11.723-10.536 21.552-21.012 27.663l-41.613 24.318c-6.955 4.051-14.871 6.2-22.876 6.2-16.078 0-31.097-8.623-39.199-22.484-3.698-6.317-5.552-13.272-5.954-20.355h-20.728c-6.337 20.532-25.25 35.56-47.822 35.56-26.898 0-48.744-21.277-50.049-47.861l-22.601-7.338c-2.452 9.476-4.179 19.384-4.179 28.634 0 0.304-0.020 0.579-0.020 0.873 33.009 25.279 86.482 68.766 116.951 106.807 0 0 25.79 30.822-9.829 85.256 0 0-28.831 34.147-41.289-8.064 0 0 13.429 73.072 11.036 96.547 0 0 2.354 74.033-85.53 62.301 0 0-51.844 54.669-91.72-6.494 0 0-53.629 43.329-86.678-18.903 0 0-80.488 5.699-85.128-67.981 0 0-38.071-133.529-3.159-236.697l-3.080-48.362c-37.728-7.632-69.452-21.346-69.452-45.919 0-23.308 28.526-36.835 63.625-44.683l-6.474-100.529 206.846-30.253c0 0 5.847 65.372 17.167 127.506 7.74 1.305 15.332 2.845 22.572 4.64h65.45v50.373c0 0-3.522 6.818-7.701 17.039l20.561 6.671c8.848-14.41 24.603-24.122 42.721-24.122 22.572 0 41.485 15.048 47.822 35.56h29.331c3.62-4.924 8.201-9.133 13.626-12.311l41.632-24.318c6.935-4.061 14.852-6.21 22.856-6.21 7.72 0 15.156 2.031 21.748 5.611l21.513-24.73c-11.703-4.13-20.286-6.21-20.286-6.21l-37.993-33.068 47.224-54.257 58.515 24.328c14.195-15.254 44.752-24.014 77.055-29.027 7.573-49.813 11.497-93.417 11.497-93.417l206.827 30.253-4.346 67.569c34.451 7.916 62.213 21.395 62.213 44.369zM328.3 392.914c0-5.415-4.385-9.8-9.81-9.8-1.972 0-3.718 0.736-5.248 1.756 1.893 2.364 3.855 4.287 5.866 5.513 0 0 3.119 2.237 8.466 6.141 0.441-1.118 0.726-2.325 0.726-3.61zM45.948 330.289c5.13 2.050 12.184 4.238 20.963 6.327l-0.804-12.468c-8.407 2.040-15.176 4.149-20.159 6.141zM424.768 366.349c-11.497 0-20.846 9.349-20.846 20.846 0 11.507 9.349 20.846 20.846 20.846 5.748 0 10.957-2.335 14.754-6.131h-14.754v-29.429h14.754c-3.787-3.777-9.005-6.131-14.754-6.131zM572.011 361.268l-29.527 17.255v23.396h-19.757c0.304 1.913 0.942 3.787 1.952 5.513 2.855 4.885 8.142 7.916 13.783 7.916 2.796 0 5.572-0.755 8.024-2.188l41.603-24.318c3.679-2.148 6.317-5.592 7.377-9.712 0.206-0.785 0.304-1.579 0.383-2.374l-17.167-14.95 2.178-2.511c-3.031-0.226-6.121 0.383-8.848 1.972zM671.755 310.042c4.081 3.541 10.271 3.11 13.832-0.991 3.561-4.081 3.139-10.271-0.961-13.832-4.081-3.531-10.271-3.11-13.812 0.991-0.196 0.206-0.245 0.49-0.402 0.706l2.148 1.864-4.1 4.699c0.216 2.452 1.295 4.817 3.296 6.563zM635.94 271.166c-4.1-3.551-10.271-3.129-13.822 0.961-3.561 4.081-3.11 10.281 0.942 13.832 4.1 3.541 10.3 3.11 13.851-0.981 3.541-4.081 3.11-10.261-0.971-13.812zM713.642 259.179l24.034 10.016c1.167-5.562 2.295-11.242 3.384-16.961-11.33 2.197-20.483 4.611-27.418 6.945zM959.325 255.294l-0.765 11.742c8.122-1.972 14.636-4.022 19.492-5.964-4.689-1.874-10.987-3.855-18.727-5.778z" />
<glyph unicode="&#xe90c;" glyph-name="car-black-side-silhouette" d="M1008.575 468.549c-1.437 17.334-3.050 36.95-6.198 53.876-2.186 11.839-6.994 27.603-23.248 27.603-1.628 0-3.26-0.16-4.869-0.327-1.005-0.096-2.011-0.231-3.657-0.262-0.034 0-0.561 0.512-1.23 2.458-4.774 13.67-24.796 30.674-50.472 51.471-6.325 5.104-13.895 11.25-17.121 14.42 1.184 8.19 1.008 18.25-4.693 25.182-2.649 3.235-7.632 7.099-16.224 7.099-1.261 0-2.603-0.077-5.588-0.342-6.198 0-18.62 2.547-35.818 6.103-44.344 9.1-126.884 26.058-250.65 28.725-180.208 3.568-321.817-126.477-327.655-131.954l-4.175-3.879c-7.401-3.577-30.773-12.128-102.211-26.172-101.326-19.952-120.655-52.233-124.306-64.716-8.089-6.038-21.188-20.439-23.264-37.381-1.668-13.51-5.446-19.036-5.446-19.021l-1.748-2.254v-95.362l0.197-1.739c5.492-25.324 31.738-38.723 75.897-38.723 14.083 0 24.648 1.437 24.238 1.437 0.614 0.034 6.060 0.126 15.496 0.321-0.965 2.667-1.844 5.366-2.603 8.129-0.734 2.664-1.406 5.347-1.924 8.095-1.246 6.47-1.946 13.128-1.946 19.961 0 58.604 47.678 106.285 106.282 106.285s106.285-47.681 106.285-106.285c0-5.301-0.518-10.442-1.261-15.536-0.407-2.763-0.879-5.508-1.502-8.19-0.638-2.778-1.308-5.526-2.156-8.224 132.719 2.843 301.597 6.596 432.391 9.883-0.577 2.683-0.944 5.4-1.311 8.147-0.367 2.714-0.577 5.427-0.719 8.172-0.096 1.918-0.287 3.799-0.287 5.748 0 58.604 47.681 106.285 106.282 106.285 57.774 0 104.848-46.37 106.158-103.858 0-0.799 0.126-1.61 0.126-2.427 0-2.060-0.191-4.071-0.321-6.115-0.16-2.905-0.447-5.794-0.83-8.638 24.972 4.12 43.752 17.278 54.626 38.562 18.601 36.391 9.119 85.667 2.442 96.13-3.605 5.662-5.393 27.794-6.988 47.314zM133.15 265.493c13.852-31.84 45.541-54.114 82.475-54.114 38.26 0 70.849 23.936 83.847 57.595 1.030 2.683 1.949 5.43 2.732 8.24 0.749 2.683 1.372 5.43 1.884 8.209 0.91 5.156 1.483 10.46 1.483 15.884 0 49.676-40.255 89.935-89.931 89.935s-89.931-40.258-89.931-89.935c0-6.738 0.799-13.297 2.211-19.622 0.598-2.748 1.317-5.446 2.186-8.079 0.888-2.782 1.903-5.461 3.044-8.113zM766.115 279.672c9.708-39.185 45.032-68.293 87.218-68.293 44.104 0 80.72 31.79 88.383 73.677 0.493 2.714 0.876 5.446 1.147 8.24 0.241 2.649 0.401 5.301 0.401 8.015 0 0.065 0 0.13 0 0.21-0.096 49.562-40.335 89.725-89.931 89.725-49.661 0-89.931-40.258-89.931-89.935 0-1.804 0.176-3.559 0.271-5.347 0.16-2.763 0.432-5.474 0.845-8.16 0.416-2.751 0.959-5.464 1.597-8.132z" />
<glyph unicode="&#xe90d;" glyph-name="check2" d="M614.184 433.835c-101.934 0-184.861-82.926-184.861-184.861s82.926-184.861 184.861-184.861 184.864 82.926 184.864 184.861-82.937 184.861-184.864 184.861zM614.184 131.863c-64.574 0-117.111 52.538-117.111 117.111 0 19.987 5.044 38.815 13.908 55.292l79.248-79.248c6.354-6.351 14.97-9.923 23.955-9.923h112.098c-14.57-48.104-59.302-83.233-112.098-83.233zM628.217 282.849l-69.328 69.328c16.48 8.864 35.309 13.908 55.292 13.908 52.803 0 97.535-35.13 112.102-83.237h-98.066zM813.657 859.345h-97.462c-11.912 29.472-40.805 50.331-74.493 50.331h-52.61c-13.064 29.606-42.701 50.324-77.089 50.324s-64.026-20.718-77.089-50.328h-52.61c-33.688 0-62.584-20.859-74.493-50.331h-97.462c-46.604 0-84.523-37.919-84.523-84.523v-754.299c0-46.604 37.919-84.519 84.523-84.519h603.31c46.604 0 84.523 37.915 84.523 84.519v754.303c0 46.604-37.919 84.523-84.523 84.523zM369.721 829.346v0c0.003 6.934 5.647 12.578 12.581 12.578h79.368c18.708 0 33.875 15.167 33.875 33.875 0 9.071 7.382 16.453 16.453 16.453s16.453-7.382 16.453-16.453c0-18.708 15.167-33.875 33.875-33.875h79.368c6.934 0 12.578-5.644 12.578-12.578v-58.085c0-6.934-5.644-12.578-12.578-12.578h-259.395c-6.934 0-12.578 5.644-12.578 12.578v58.085zM813.657 3.753h-603.31c-9.25 0-16.774 7.523-16.774 16.77v754.299c0 9.25 7.523 16.774 16.774 16.774h91.629v-20.332c0-44.294 36.036-80.327 80.327-80.327h259.395c44.294 0 80.327 36.036 80.327 80.327v20.332h91.629c9.25 0 16.774-7.523 16.774-16.774v-754.299h0.003c-0.003-9.247-7.527-16.77-16.774-16.77zM260.357 567.402h251.645c18.708 0 33.875 15.167 33.875 33.875s-15.167 33.875-33.875 33.875h-251.645c-18.708 0-33.875-15.167-33.875-33.875-0.003-18.708 15.163-33.875 33.875-33.875zM260.357 466.744h150.989c18.708 0 33.875 15.167 33.875 33.875s-15.167 33.875-33.875 33.875h-150.989c-18.708 0-33.875-15.167-33.875-33.875-0.003-18.708 15.163-33.875 33.875-33.875zM445.218 399.96c0 18.708-15.167 33.875-33.875 33.875h-150.986c-18.708 0-33.875-15.167-33.875-33.875s15.167-33.875 33.875-33.875h150.989c18.708 0 33.871 15.167 33.871 33.875z" />
<glyph unicode="&#xe90e;" glyph-name="check-1" d="M979.285 893.348c-46.208 24.881-97.748-23.104-127.961-51.54-69.309-67.535-127.958-145.733-193.718-216.822-72.867-78.198-140.401-156.397-215.045-232.82-42.654-42.654-88.862-88.862-117.297-142.179-63.98 62.206-119.075 129.741-190.164 184.832-51.54 39.099-136.847 67.535-135.070-26.658 3.554-122.632 111.966-254.147 191.941-337.674 33.767-35.545 78.198-72.867 129.738-74.644 62.203-3.554 126.184 71.089 163.505 111.966 65.761 71.089 119.078 151.068 179.501 223.931 78.198 95.971 158.174 190.167 234.595 287.915 47.985 60.426 199.050 209.716 79.975 273.694zM78.224 415.269c-1.777 0-3.554 0-7.109-1.774-7.109 1.774-12.441 3.554-19.55 7.109v0c5.332 3.554 14.218 1.777 26.658-5.335z" />
<glyph unicode="&#xe90f;" glyph-name="chevron-arrow-down" d="M999.674 697.098l-49.285 49.301c-17.079 16.207-37.026 24.312-59.796 24.312-23.239 0-42.95-8.106-59.163-24.312l-319.429-319.438-319.427 319.429c-16.211 16.207-35.926 24.312-59.156 24.312-22.781 0-42.724-8.106-59.805-24.312l-48.638-49.301c-16.653-16.642-24.975-36.584-24.975-59.81 0-23.658 8.331-43.375 24.973-59.147l427.87-427.872c15.781-16.644 35.489-24.973 59.156-24.973 23.223 0 43.164 8.327 59.801 24.973l427.872 427.872c16.213 16.216 24.326 35.931 24.326 59.147 0.002 22.793-8.11 42.724-24.324 59.819z" />
<glyph unicode="&#xe910;" glyph-name="close-cross" d="M685.381 448l302.693 302.668c47.894 47.894 47.894 125.535 0 173.405-47.845 47.87-125.535 47.87-173.381 0l-302.693-302.717-302.693 302.717c-47.845 47.87-125.535 47.87-173.381 0-47.894-47.894-47.894-125.535 0-173.405l302.668-302.668-302.668-302.668c-47.894-47.894-47.894-125.535 0-173.405 23.91-23.959 55.325-35.902 86.69-35.902 31.341 0 62.78 11.943 86.69 35.902l302.693 302.668 302.693-302.693c23.935-23.959 55.325-35.902 86.69-35.902s62.78 11.943 86.69 35.902c47.894 47.894 47.894 125.535 0 173.405l-302.693 302.693z" />
<glyph unicode="&#xe911;" glyph-name="clip" d="M479.454 498.009c12.701 12.701 12.701 33.34 0 46.040s-33.34 12.701-46.040 0l-172.254-172.254c-29.371-29.371-45.247-67.473-45.247-108.75s15.876-79.38 45.247-108.75c60.329-60.329 157.966-60.329 217.501 0l388.961 388.961c40.484 40.484 62.71 94.462 62.71 151.616s-22.226 111.132-62.71 151.616c-84.143 84.143-219.882 84.143-304.025 0l-388.167-388.167c-52.391-52.391-80.967-121.451-80.967-195.274s28.577-143.678 80.967-195.274c52.391-52.391 121.451-80.967 195.274-80.967s143.678 28.577 195.274 80.967l172.254 172.254c12.701 12.701 12.701 33.34 0 46.040s-33.34 12.701-46.040 0l-172.254-172.254c-39.69-39.69-92.874-61.916-149.234-61.916s-109.544 22.226-149.234 61.916-61.916 92.874-61.916 149.234 22.226 109.544 61.916 149.234l388.167 388.167c28.577 28.577 65.885 43.659 105.575 43.659s77.792-15.876 105.575-43.659c28.577-28.577 43.659-65.885 43.659-105.575s-15.876-77.792-43.659-105.575l-388.961-388.961c-34.133-34.133-90.493-34.133-125.42 0-16.67 16.67-26.195 38.896-26.195 62.71s9.526 46.040 26.195 62.71l173.048 172.254z" />
<glyph unicode="&#xe912;" glyph-name="close2" d="M479.418 415.418l-132.655 132.655c-4.655 4.655-11.636 4.655-16.291 0l-2.327-2.327c-16.291-30.255-25.6-62.836-25.6-97.745 0-58.182 23.273-109.382 60.509-148.945 37.236-37.236 90.764-60.509 148.945-60.509 34.909 0 67.491 9.309 97.745 25.6l2.327 2.327c4.655 4.655 4.655 11.636 0 16.291l-132.655 132.655zM512 657.455c-34.909 0-67.491-9.309-97.745-25.6l-2.327-2.327c-4.655-4.655-4.655-11.636 0-16.291l265.309-265.309c4.655-4.655 11.636-4.655 16.291 0l2.327 2.327c16.291 30.255 25.6 62.836 25.6 97.745 0 58.182-23.273 109.382-60.509 148.945-39.564 37.236-90.764 60.509-148.945 60.509zM512 960c-283.927 0-512-228.073-512-512s228.073-512 512-512 512 228.073 512 512-228.073 512-512 512zM726.109 233.891c-55.855-55.855-130.327-88.436-214.109-88.436s-158.255 34.909-214.109 88.436c-55.855 55.855-88.436 130.327-88.436 214.109s34.909 158.255 88.436 214.109c55.855 55.855 130.327 88.436 214.109 88.436s158.255-34.909 214.109-88.436c55.855-55.855 88.436-130.327 88.436-214.109s-34.909-158.255-88.436-214.109z" />
<glyph unicode="&#xe913;" glyph-name="court" d="M607.998 87.119v8.872c0 70.58-57.43 128.007-128.011 128.007h-320.008c-70.58 0-127.985-57.428-127.985-128.007v-8.886c-32-11.090-31.994-31.49-31.994-55.11 0-35.344 28.648-63.996 63.992-63.996h512.013c35.344 0 64.006 28.652 64.006 63.996-0.002 23.632-0.014 44.038-32.014 55.124zM960 704.001h-512.003v64.006c32 0 64 28.656 64 64.002v32c0 35.344-28.666 63.992-64.010 63.992h-256.008c-35.344 0-63.984-28.648-63.984-63.992v-32c0-35.344 32-64.002 64-64.002v-256.008c-32 0-64-28.656-64-64.002v-32c0-35.344 28.64-64 63.984-64h256.008c35.344 0 64.010 28.656 64.010 64v32c0 35.344-32 64.002-64 64.002v63.998h512.003c35.344 0 64.002 28.656 64.002 64s-28.658 64.002-64.002 64.002z" />
<glyph unicode="&#xe914;" glyph-name="credit-card" d="M806.683 696.085c14.879 0 19.070 20.118 5.658 26.195l-523.698 232.196c-31.854 14.25-69.365 0-83.616-32.063l-183.368-411.163c-14.25-31.854 0-69.365 32.063-83.616l105.62-45.685c13.202-5.868 28.291 3.772 28.291 18.232v174.566c0 66.851 54.277 121.127 121.127 121.127l497.922 0.21zM943.737 639.084h-635.185c-35.416 0-64.126-28.71-64.126-64.126v-448.674c0-35.416 28.71-64.126 64.126-64.126h85.292c-2.096 12.574-3.143 25.357-3.143 38.35 0 14.669 1.467 28.92 3.982 42.96h-68.737v214.802h600.607v-214.592h-68.946c2.515-14.041 3.982-28.291 3.982-42.96 0-12.993-1.048-25.776-3.143-38.35h85.292c35.416 0 64.126 28.71 64.126 64.126v448.465c0 35.416-28.71 64.126-64.126 64.126zM926.553 490.504h-600.607v67.27h600.607v-67.27zM626.25 265.433c-90.95 0-164.716-73.766-164.716-164.716s73.766-164.716 164.716-164.716 164.716 73.766 164.716 164.716-73.766 164.716-164.716 164.716zM673.611 35.752c-7.125-8.802-16.555-14.669-27.453-17.603-4.82-1.257-6.916-3.772-6.706-8.802 0.21-4.82 0-9.64 0-14.669 0-4.401-2.305-6.706-6.496-6.706-5.239-0.21-10.478-0.21-15.717 0-4.61 0-6.706 2.724-6.706 7.125 0 3.563 0 7.125 0 10.688 0 7.754-0.419 8.173-7.963 9.43-9.64 1.467-19.070 3.772-27.872 7.963-6.916 3.353-7.754 5.030-5.658 12.364 1.467 5.449 2.934 10.897 4.61 16.136 1.886 6.287 3.563 6.916 9.43 3.982 9.849-5.030 20.118-7.963 31.015-9.221 6.916-0.838 13.831-0.21 20.328 2.724 12.155 5.239 14.041 19.28 3.772 27.662-3.563 2.934-7.335 5.030-11.526 6.706-10.688 4.61-21.795 8.173-31.644 14.25-16.346 9.64-26.614 23.052-25.357 42.96 1.257 22.423 14.041 36.254 34.578 43.799 8.383 3.143 8.592 2.934 8.592 11.736 0 2.934 0 6.077 0 9.011 0.21 6.706 1.257 7.754 7.963 7.963 2.096 0 4.191 0 6.077 0 14.25 0 14.25 0 14.25-14.25 0-10.059 0-10.059 10.059-11.526 7.544-1.257 14.879-3.353 22.004-6.496 3.982-1.677 5.449-4.401 4.191-8.592-1.677-6.077-3.353-12.364-5.449-18.232-1.886-5.658-3.772-6.496-9.221-3.982-11.107 5.449-22.633 7.544-34.787 6.916-3.143-0.21-6.287-0.629-9.221-1.886-10.478-4.61-12.364-16.346-3.353-23.471 4.61-3.563 9.64-6.287 15.089-8.592 9.43-3.772 18.651-7.544 27.662-12.574 27.662-15.298 35.416-50.714 15.508-74.814z" />
<glyph unicode="&#xe915;" glyph-name="credit-card-1" d="M806.683 696.085c14.879 0 19.070 20.118 5.658 26.195l-523.698 232.196c-31.854 14.25-69.365 0-83.616-32.063l-183.368-411.163c-14.25-31.854 0-69.365 32.063-83.616l105.62-45.685c13.202-5.868 28.291 3.772 28.291 18.232v174.566c0 66.851 54.277 121.127 121.127 121.127l497.922 0.21zM943.737 639.084h-635.185c-35.416 0-64.126-28.71-64.126-64.126v-448.674c0-35.416 28.71-64.126 64.126-64.126h85.292c-2.096 12.574-3.143 25.357-3.143 38.35 0 14.669 1.467 28.92 3.982 42.96h-68.737v214.802h600.607v-214.592h-68.946c2.515-14.041 3.982-28.291 3.982-42.96 0-12.993-1.048-25.776-3.143-38.35h85.292c35.416 0 64.126 28.71 64.126 64.126v448.465c0 35.416-28.71 64.126-64.126 64.126zM926.553 490.504h-600.607v67.27h600.607v-67.27zM626.25 265.433c-90.95 0-164.716-73.766-164.716-164.716s73.766-164.716 164.716-164.716 164.716 73.766 164.716 164.716-73.766 164.716-164.716 164.716zM673.611 35.752c-7.125-8.802-16.555-14.669-27.453-17.603-4.82-1.257-6.916-3.772-6.706-8.802 0.21-4.82 0-9.64 0-14.669 0-4.401-2.305-6.706-6.496-6.706-5.239-0.21-10.478-0.21-15.717 0-4.61 0-6.706 2.724-6.706 7.125 0 3.563 0 7.125 0 10.688 0 7.754-0.419 8.173-7.963 9.43-9.64 1.467-19.070 3.772-27.872 7.963-6.916 3.353-7.754 5.030-5.658 12.364 1.467 5.449 2.934 10.897 4.61 16.136 1.886 6.287 3.563 6.916 9.43 3.982 9.849-5.030 20.118-7.963 31.015-9.221 6.916-0.838 13.831-0.21 20.328 2.724 12.155 5.239 14.041 19.28 3.772 27.662-3.563 2.934-7.335 5.030-11.526 6.706-10.688 4.61-21.795 8.173-31.644 14.25-16.346 9.64-26.614 23.052-25.357 42.96 1.257 22.423 14.041 36.254 34.578 43.799 8.383 3.143 8.592 2.934 8.592 11.736 0 2.934 0 6.077 0 9.011 0.21 6.706 1.257 7.754 7.963 7.963 2.096 0 4.191 0 6.077 0 14.25 0 14.25 0 14.25-14.25 0-10.059 0-10.059 10.059-11.526 7.544-1.257 14.879-3.353 22.004-6.496 3.982-1.677 5.449-4.401 4.191-8.592-1.677-6.077-3.353-12.364-5.449-18.232-1.886-5.658-3.772-6.496-9.221-3.982-11.107 5.449-22.633 7.544-34.787 6.916-3.143-0.21-6.287-0.629-9.221-1.886-10.478-4.61-12.364-16.346-3.353-23.471 4.61-3.563 9.64-6.287 15.089-8.592 9.43-3.772 18.651-7.544 27.662-12.574 27.662-15.298 35.416-50.714 15.508-74.814z" />
<glyph unicode="&#xe916;" glyph-name="disabled" d="M0.006 448.003c0-282.316 229.681-511.997 511.997-511.997 282.311 0 511.991 229.681 511.991 511.997s-229.681 511.997-511.991 511.997c-282.316 0-511.997-229.681-511.997-511.997zM512.003 819.437c204.812 0 371.44-166.629 371.44-371.44 0-77.060-23.603-148.706-63.937-208.108l-515.618 515.612c59.408 40.334 131.054 63.937 208.114 63.937zM720.111 140.499c-59.408-40.334-131.049-63.937-208.108-63.937-204.812 0-371.435 166.629-371.435 371.44 0 77.060 23.603 148.7 63.931 208.108l515.612-515.612z" />
<glyph unicode="&#xe917;" glyph-name="done-tick" d="M985.519 838.147l-27.419 23.556c-45.513 39.111-113.906 34.752-154.089-9.807l-458.685-508.591-138.456 119.247c-45.465 39.155-113.868 34.883-154.099-9.628l-24.243-26.826c-19.66-21.742-29.868-50.422-28.386-79.718 1.497-29.279 14.559-56.767 36.335-76.419l253.797-232.412c21.974-20.635 51.422-31.397 81.522-29.799 30.1 1.593 58.241 15.422 77.904 38.27l547.555 636.219c19.13 22.228 28.64 51.142 26.436 80.378-2.203 29.256-15.929 56.421-38.17 75.53z" />
<glyph unicode="&#xe918;" glyph-name="drop-down-arrow" d="M0 704l512-512 512 512z" />
<glyph unicode="&#xe919;" glyph-name="error-triangle" d="M1016.431 59.866l-446.654 836.911c-11.137 20.923-32.962 34.055-56.717 34.055h-0.064c-23.755 0-45.514-13.069-56.717-33.992l-448.649-836.909c-10.686-20.087-10.108-44.163 1.48-63.477 11.652-19.377 32.641-31.287 55.237-31.287h895.238c22.662 0 43.583 11.847 55.237 31.287 11.652 19.377 12.232 43.454 1.609 63.411zM512.996 93.923c-35.538 0-64.377 28.841-64.377 64.377s28.841 64.377 64.377 64.377c35.472 0 64.377-28.841 64.377-64.377s-28.839-64.377-64.377-64.377zM577.439 350.403c0-35.601-28.905-64.377-64.377-64.377-35.538 0-64.377 28.778-64.377 64.377v257.512c0 35.538 28.841 64.377 64.377 64.377 35.472 0 64.377-28.841 64.377-64.377v-257.512z" />
<glyph unicode="&#xe91a;" glyph-name="escalator" d="M847.896 403.252l-121.703-41.637c-6.712-2.293-11.277-7.346-12.213-13.514-0.934-6.17 1.928-12.346 7.663-16.533l18.223-13.287-145.139-199.039c-7.070-9.699-4.934-23.344 4.765-30.414l49.968-36.435c3.742-2.728 8.168-4.17 12.805-4.17 6.949 0 13.531 3.34 17.609 8.93l145.134 199.037 18.216-13.284c3.471-2.528 7.307-3.865 11.095-3.865 7.849 0 15.906 5.972 16.121 17.384l2.433 128.613c0.102 5.433-1.788 10.408-5.321 14.007-4.905 5.002-12.505 6.647-19.658 4.206zM974.182 770.629h-277.298c-24.454 0-55.425-15.081-70.504-34.335l-151.95-194.013v108.687c0 15.911-12.945 28.859-28.859 28.859h-8.618c22.045 17.2 36.26 43.989 36.26 74.050 0 51.777-42.126 93.903-93.906 93.903s-93.906-42.126-93.906-93.903c0-30.063 14.215-56.849 36.26-74.050h-8.618c-15.913 0-28.859-12.948-28.859-28.859v-220.925c0-15.014 11.528-27.374 26.196-28.723v-68.498l-25.231-32.214c-10.457-13.352-34.502-25.061-51.46-25.061h-183.873c-27.47-0.002-49.818-22.35-49.818-49.82v-120.858c0-27.468 22.347-49.818 49.818-49.818h302.448c24.466 0 55.408 15.122 70.441 34.429l339.096 435.553c10.411 13.371 34.41 25.102 51.354 25.102h161.025c27.468 0 49.818 22.347 49.818 49.818v120.861c0 27.468-22.35 49.815-49.818 49.815z" />
<glyph unicode="&#xe91b;" glyph-name="giftbox" d="M774.577 648.309c18.338 13.032 35.931 27.537 52.053 43.657 33.796 33.796 56.404 75.379 63.652 117.087 7.953 45.719-3.715 88.168-32.001 116.458-22.561 22.561-53.128 34.488-88.395 34.488-50.218 0-103.125-24.105-145.153-66.133-67.256-67.26-106.464-160.105-127.562-226.362-15.622 66.578-46.751 156.469-107.269 216.989-32.475 32.471-73.979 49.143-113.168 49.143-32.028 0-62.509-11.134-85.254-33.881-50.576-50.578-43.742-139.412 15.264-198.418 21.037-21.037 45.63-38.511 71.554-53.030h-219.585v-259.021h64.755v-453.286h777.062v453.29h64.755v259.021h-190.71zM676.24 842.354c28.053 28.051 63.059 44.796 93.642 44.796 10.826 0 26.011-2.281 36.88-13.151 26.339-26.335 11.549-87.326-31.647-130.52-44.469-44.465-104.278-75.043-156.256-95.17h-51.27c18.789 58.227 52.674 138.066 108.651 194.045zM230.652 809.296c-0.71 9.228-0.051 26.558 12.34 38.948 10.365 10.365 24.069 12.542 33.741 12.542v0c21.509 0 43.981-10.134 61.651-27.804 34.272-34.272 62.495-88.808 81.62-157.715 0.516-1.862 1.020-3.713 1.514-5.551-1.837 0.492-3.689 0.996-5.551 1.514-68.908 19.127-123.442 47.35-157.713 81.622-16.013 16.013-26.072 36.587-27.602 56.444zM447.246 0.759h-259.021v420.909h259.021v-420.909zM447.246 454.043h-323.776v129.51h323.776v-129.51zM835.777 0.759h-259.021v420.909h259.021v-420.909zM900.532 454.043h-323.776v129.51h323.776v-129.51z" />
<glyph unicode="&#xe91c;" glyph-name="gift-box-with-a-ribbon" d="M354.201 206.544l-39.878 64.702-84.203-15.127 110.74 196.402h-215.94v-516.52h367.943v516.52zM959.809 699.006h-244.335c14.289 7.363 27.047 15.055 38.347 23.22 43.45 31.13 66.524 70.57 66.451 109.719 0 32.114-15.2 78.116-37.29 97.289-22.126 19.392-51.47 30.765-82.782 30.765-33.463 0-64.556-11.482-91.202-29.344-40.060-26.828-71.409-84.932-93.754-129.258-1.13-2.224-2.26-4.374-3.354-6.525-8.165 17.096-17.716 51.324-28.542 66.925-18.955 27.047-41.737 50.959-68.493 68.857-26.573 17.861-57.63 29.344-91.056 29.344-33.317-0.109-63.827-14.070-86.646-35.613-22.709-21.324-38.602-69.331-38.748-103.632-0.146-20.012 5.686-40.972 17.752-60.036 15.164-23.876 39.186-44.69 72.357-61.713h-224.943l0.51-205.405h422.402v205.405h51.47v-205.405h422.475l-0.62 205.405zM303.096 763.234c-16.95 10.717-27.375 21.47-33.499 31.13-5.942 9.587-8.019 26.427-8.019 34.702-0.146 13.815 6.744 38.056 18.991 49.428 11.956 11.409 28.214 18.445 42.794 18.445h0.437c18.773-0.146 37.363-6.415 56.099-18.773 27.886-18.408 54.167-68.456 72.429-105.127 9.55-18.663 16.841-38.165 21.762-57.229-84.604 8.748-139.282 27.412-170.995 47.424zM592.267 807.887c15.237 21.835 33.207 57.849 51.834 70.279 18.517 12.357 37.326 18.627 56.099 18.773h0.182c15.638 0 30.692-6.124 40.935-15.2 10.279-9.222 15.784-26.099 15.784-37.983-0.219-14.034-7.473-46.33-40.243-70.279-31.093-22.673-85.078-45.893-168.079-62.15 7.837 32.916 23.183 67.764 43.487 96.56zM794.318 256.957l-84.167 14.289-39.732-65.467-136.876 243.424v-513.203h366.084v516.52h-215.94z" />
<glyph unicode="&#xe91d;" glyph-name="give-money" d="M766.11 645.142c-30.599 12.266-39.439 19.684-39.439 33.078 0 10.719 8.119 23.242 31.009 23.242 20.246 0 35.774-7.983 35.913-8.052 1.634-0.872 3.466-1.336 5.282-1.336 4.43 0 8.35 2.681 9.975 6.832l5.562 14.217c1.937 5.181-1.001 9.695-4.748 11.314-12.465 5.426-36.827 9.625-37.076 9.669-0.393 0.069-1.758 0.361-1.758 1.957l-0.078 20.625c0 6.211-5.186 11.268-11.553 11.268h-9.977c-6.361 0-11.545-5.054-11.545-11.27l0.026-21.684c0-1.662-1.801-2.384-2.459-2.537-30.752-7.325-49.971-29.852-49.971-58.266 0-35.422 29.28-51.429 60.895-63.444 25.274-9.923 35.584-19.984 35.584-34.741 0-16.059-14.601-27.274-35.52-27.274-17.862 0-42.037 11.322-42.277 11.438-1.547 0.733-3.186 1.103-4.872 1.103-4.601 0-8.607-2.782-10.208-7.091l-5.311-14.379c-1.888-5.368 1.019-9.726 4.739-11.666 14.846-7.732 43.575-12.263 44.854-12.462 0.343-0.049 2.092-0.664 2.092-2.263v-21.589c0-6.211 5.186-11.268 11.556-11.268h10.309c6.373 0 11.559 5.054 11.559 11.268v22.72c0 2.124 1.567 2.312 1.89 2.39 32.761 7.36 52.941 31.329 52.941 61.426-0.009 30.914-17.176 50.889-57.394 66.777zM753.229 895.035c-149.55 0-270.774-121.233-270.774-270.774 0-149.544 121.225-270.78 270.774-270.78 149.544 0 270.771 121.236 270.771 270.78 0 149.541-121.228 270.774-270.771 270.774zM753.229 416.235c-114.892 0-208.023 93.139-208.023 208.023s93.131 208.020 208.023 208.020c114.887 0 208.015-93.137 208.015-208.020s-93.128-208.023-208.015-208.023zM968.981 222.267c-57.579-31.78-136.773-61.164-215.75-73.551-70.267-11.019-202.459 15.556-202.459 46.943 0 11.894 115.937-29.306 186.068-10.595 53.778 14.347 46.144 64.653 16.893 71.288-29.081 6.601-199.457 69.017-272.232 71.17-34.282 1.013-118.919-11.923-159.873-18.593-14.030-2.283-22.827-2.032-23.704-15.458-4.075-62.399-12.107-190.002-16.486-256.655-0.092-1.408 1.864-20.347 17.493-7.019 17.106 14.587 41.099 30.755 63.291 25.722 34.816-7.899 336.019-63.080 377.565-53.423 59.435 13.816 227.684 113.524 259.943 144.516 50 48.046 11.132 98.77-30.749 75.655zM214.806 311.363l-157.792 7.775c-12.183 0.6-24.625-8.581-27.652-20.394l-28.691-260.491c-3.025-11.816 4.474-21.871 16.662-22.342l174.873 0.017c12.191-0.47 22.922 9.094 23.857 21.257l19.205 250.975c0.929 12.159-8.278 22.602-20.46 23.202zM121.912 50.439c-24.097 0-43.627 19.534-43.627 43.627 0 24.097 19.534 43.627 43.627 43.627s43.627-19.534 43.627-43.627c0-24.097-19.531-43.627-43.627-43.627z" />
<glyph unicode="&#xe91e;" glyph-name="graphic" d="M524.451 490.293c2.945-2.939 6.938-4.598 11.103-4.598h471.305c4.454 0 8.699 1.893 11.677 5.202 2.981 3.312 4.413 7.744 3.938 12.165-13.465 126.294-72.461 242.186-166.124 326.336-93.742 84.215-215.521 130.602-342.914 130.602-116.428 0-230.427-40.163-320.993-113.108-3.475-2.798-5.591-6.933-5.831-11.387-0.24-4.457 1.427-8.795 4.579-11.95l333.26-333.263zM460.931 669.307l135.167 201.035c15.51-3.022 30.921-6.919 45.998-11.635l-147.925-222.639-33.239 33.239zM513.436 878.329c4.027 0 8.1-0.055 12.207-0.174l-109.984-163.582-35.626 35.635 88.079 125.759c15.035 1.568 30.264 2.362 45.324 2.362zM377.798 856.532l-42.868-61.218-29.511 29.511c19.112 10.567 39.115 19.722 59.628 27.25 4.2 1.548 8.456 3.028 12.75 4.457zM778.502 567.363l86.042 129.507c5.92-8.354 11.586-16.989 16.942-25.81l-71.162-103.694h-31.823zM886.52 567.363l26.996 39.33c5.128-12.91 9.626-26.064 13.457-39.33h-40.453zM651.968 567.363l139.119 209.389c4.476-3.778 8.807-7.581 12.941-11.368 6.229-5.702 12.458-11.779 18.582-18.115l-119.535-179.903h-51.106zM576.539 567.363h-13.664l-23.387 23.395 162.282 244.24c13.195-6.43 26.080-13.54 38.48-21.234l-163.712-246.401zM456.968 451.167l-319.083 319.086c-3.157 3.149-7.504 4.816-11.953 4.573-4.449-0.237-8.589-2.357-11.387-5.831-72.939-90.56-113.111-204.559-113.111-320.993 0-159.461 72.312-306.978 198.399-404.731 2.776-2.144 6.168-3.292 9.623-3.292 0.936 0 1.879 0.083 2.812 0.259 4.388 0.798 8.23 3.419 10.565 7.22l236.407 384.377c3.806 6.19 2.865 14.185-2.274 19.332zM362.387 430.25l-167.186-271.832c-26.058 28.622-48.045 60.354-65.44 94.493-30.959 60.729-46.657 126.363-46.657 195.088 0 51.054 8.831 100.984 26.257 148.389 7.537 20.522 16.68 40.519 27.25 59.631l225.777-225.768zM1006.859 410.305h-463.575c-5.453 0-10.52-2.826-13.377-7.479l-242.893-394.931c-2.338-3.795-2.95-8.412-1.683-12.687 1.261-4.267 4.283-7.805 8.301-9.72 68.918-32.836 142.872-49.489 219.807-49.489 127.392 0 249.172 46.387 342.914 130.602 93.662 84.149 152.658 200.042 166.124 326.336 0.475 4.424-0.958 8.853-3.938 12.165s-7.225 5.202-11.679 5.202z" />
<glyph unicode="&#xe91f;" glyph-name="group" d="M687.492 240.829l-9.021 9.021c-0.42 0.42-0.629 0.629-1.049 1.049-49.931-29.581-107.414-45.525-166.366-45.525-74.057 0-144.547 24.546-201.821 69.861-15.525-10.699-31.469-22.658-46.994-35.455-12.378-10.070-19.511-25.385-19.511-41.329v-75.735h538.119v24.965l-79.092 79.092-14.266 14.056zM523.853 703.423h-23.916c-54.966 0-99.652-44.686-99.652-99.652v-110.561c0-17.413 8.811-32.518 22.238-41.539v-94.407c27.063-13.846 57.274-21.399 88.742-21.399 31.889 0 62.518 7.553 89.791 21.818v93.778c13.427 9.021 22.238 24.126 22.238 41.539v110.561c0.21 55.385-44.476 99.862-99.442 99.862zM1007.636 314.467c-57.483 47.203-119.372 78.463-131.96 84.756-1.469 0.629-2.308 2.098-2.308 3.776v89.372c11.329 7.553 18.672 20.35 18.672 34.826v92.729c0 46.154-37.343 83.498-83.498 83.498h-19.301c29.371-47.623 46.364-102.169 48.462-159.023 2.518-63.358-13.427-125.456-45.315-179.163 0.42-0.42 0.629-0.629 1.049-1.049l148.324-148.324h82.239v63.567c0 13.637-6.084 26.434-16.364 35.035zM952.251 146.632l-188.394 188.394-11.119-11.119-23.916 23.916c94.826 111.82 89.582 279.654-16.154 385.39-55.595 55.595-128.603 83.498-201.401 83.498s-145.806-27.902-201.401-83.498c-111.19-111.19-111.19-291.612 0-402.803 55.595-55.595 128.603-83.498 201.401-83.498 65.455 0 130.911 22.448 183.989 67.344l23.916-23.916-11.119-11.119 188.394-188.394c7.762-7.762 17.832-11.539 27.902-11.539s20.14 3.776 27.902 11.539c15.315 15.315 15.315 40.28 0 55.805 0-0.21 0 0 0 0zM679.1 363.768c-46.364-46.364-107.204-69.442-167.834-69.442-60.84 0-121.47 23.077-167.834 69.442-92.729 92.729-92.729 242.94 0 335.669 46.364 46.364 107.204 69.442 167.834 69.442 60.84 0 121.47-23.077 167.834-69.442 92.729-92.519 92.729-242.94 0-335.669zM233.709 703.423h-18.252c-46.154 0-83.498-37.343-83.498-83.498v-92.729c0-14.476 7.343-27.273 18.672-34.826v-89.372c0-1.678-0.839-2.937-2.308-3.776-12.588-6.084-74.477-37.553-131.96-84.756-10.28-8.602-16.364-21.399-16.364-34.826v-63.567h203.919c4.196 21.609 15.525 41.119 32.728 55.176 13.846 11.329 27.902 22.028 41.749 31.889-107.204 109.092-122.1 275.249-44.686 400.285z" />
<glyph unicode="&#xe920;" glyph-name="heart-insurance" d="M311.979 340.056c-42.229 48.438-48.18 124.449-76.959 160.996-24.156 30.677-62.478 15.82-67.049-11.016-7.071-41.534 37.497-163.92 59.985-203.168 5.601-9.773-4.441-27.836-21.776-12.285-17.335 15.556-86.266 173.912-59.413 278.447 13.148 51.177-20.755 104.667-64.206 77.642-43.451-27.023-68.706-252.23-4.207-383.998 54.426-111.19 169.303-184.722 189.257-197.298 13.568-8.548 19.068-58.116 21.2-88.955 1.002-14.514 4.984-24.418 21.079-24.4 17.725 0.024 53.758-0.038 103.76-0.017 26.080 0 26.987 15.657 26.98 23.135-0.18 196.478 10.418 221.395-128.651 380.916zM712.021 340.056c42.229 48.438 48.182 124.449 76.959 160.996 24.156 30.677 62.478 15.82 67.049-11.016 7.071-41.534-37.497-163.92-59.985-203.168-5.601-9.773 4.441-27.836 21.776-12.285 17.335 15.556 86.266 173.912 59.413 278.447-13.145 51.177 20.755 104.667 64.206 77.642 43.451-27.023 68.706-252.23 4.207-383.998-54.426-111.19-169.303-184.722-189.257-197.298-13.568-8.548-19.068-58.116-21.2-88.955-1.002-14.514-4.984-24.418-21.079-24.4-17.725 0.024-53.758-0.038-103.76-0.017-26.080 0-26.987 15.657-26.98 23.135 0.18 196.478-10.415 221.395 128.651 380.916zM647.371 960c-53.446 0-101.881-21.327-137.365-55.889-35.481 34.562-83.919 55.889-137.365 55.889-108.765 0-196.936-88.171-196.936-196.938 0-42.219 13.329-81.3 35.947-113.362 9.012-14.093 19.838-26.914 32.17-38.11l204.289-204.601c20.46-20.465 40.92-40.922 61.379-40.922 0.17 0 0.343 0.028 0.513 0.033 0.17-0.005 0.343-0.033 0.513-0.033 20.46 0 40.92 20.457 61.382 40.922l204.286 204.601c12.332 11.198 23.159 24.017 32.17 38.11 22.615 32.062 35.947 71.145 35.947 113.362 0.005 108.768-88.166 196.938-196.931 196.938z" />
<glyph unicode="&#xe921;" glyph-name="commerce" d="M972.429 479.933l-453.224 453.27c-17.857 17.857-41.252 26.797-64.648 26.797s-46.814-8.94-64.648-26.797l-248.203-248.157c-35.714-35.714-35.714-94.731 0-130.445l41.137-42.264h94.892l-88.572 89.721c-6.205 6.228-7.124 14.019-7.124 17.788s0.919 11.284 7.124 17.489l32.772 31.761 155.748-156.759h149.405l-230.461 231.611 140.718 141.269c6.205 6.205 13.444 7.377 17.213 7.377s11.008-0.781 17.213-6.963l453.247-453.201c6.228-6.228 7.17-13.398 7.17-17.19 0-3.769-1.609-10.985-7.837-17.213l-25.694-25.073v-94.892l73.174 72.508c35.691 35.783 36.334 93.651 0.598 129.365zM759.778 469.844h-641.031c-50.491 0-93.674-40.678-93.674-91.169v-242.458h825.001v242.458c0 50.491-39.804 91.169-90.295 91.169zM249.1 218.768c-17.903 0-34.105 7.124-46.056 18.615-11.951-11.491-28.176-18.615-46.033-18.615-36.725 0-66.532 29.761-66.532 66.555 0 36.748 29.784 66.532 66.532 66.532 17.88 0 34.105-7.101 46.033-18.592 11.951 11.491 28.153 18.592 46.056 18.592 36.748 0 66.532-29.784 66.532-66.532 0-36.794-29.784-66.555-66.532-66.555zM25.073 27.72c0-50.491 43.16-91.697 93.674-91.697h641.031c50.491 0 90.318 41.206 90.318 91.697v5.378h-825.024v-5.378z" />
<glyph unicode="&#xe922;" glyph-name="house" d="M465.343 36.727l-35.242 155.191c-0.206 0.904-0.473 1.795-0.802 2.664-7.003 18.616-15.364 36.927-24.857 54.423-0.149 0.275-0.304 0.547-0.467 0.814l-144.88 240.036c-8.953 17.175-23.991 29.929-42.433 35.952-14.040 4.588-28.786 4.859-42.69 0.944l-27.193 230.814c-4.755 40.326-41.435 69.269-81.751 64.514-40.326-4.753-69.267-41.425-64.518-81.751 0.010-0.073 0.018-0.147 0.029-0.22l28.358-220.101c7.164-55.59 25.172-108.289 53.523-156.631l140.745-239.991c0.149-0.255 0.304-0.508 0.467-0.757 7.845-12.135 13.689-25.376 17.373-39.353l22.289-84.639c8.865-33.651 40.719-53.74 85.208-53.74h46.839c20.076 0 39.461 8.4 53.187 23.046 13.608 14.518 20.398 33.341 19.124 53.001-0.335 5.161-1.11 10.46-2.309 15.782zM418.761-4.157c-6.044-6.45-14.579-10.148-23.419-10.148h-46.839c-14.793 0-40.411 3.031-45.76 23.334l-22.289 84.639c-4.743 18.006-12.251 35.069-22.314 50.727l-140.529 239.622c-25.559 43.581-41.794 91.091-48.252 141.208l-28.344 219.976c-2.062 17.949 10.834 34.249 28.786 36.364 17.967 2.113 34.341-10.787 36.458-28.774l29.702-252.086c-15.599-20.682-19.735-48.901-8.6-74.093 0.536-1.214 2.174-4.482 2.427-4.902l58.201-96.515c3.831-6.352 10.575-9.867 17.488-9.867 3.586 0 7.219 0.946 10.513 2.933 9.646 5.818 12.751 18.354 6.933 28.003l-57.772 95.805c-0.167 0.345-0.326 0.692-0.479 1.038-6.903 15.617-0.616 33.831 14.275 41.996 7.821 3.961 16.714 4.647 25.045 1.926 8.339-2.723 15.119-8.533 19.089-16.355 0.224-0.445 0.467-0.881 0.724-1.31l144.992-240.22c8.294-15.336 15.633-31.352 21.824-47.638l34.924-153.784c0.722-3.211 1.191-6.377 1.387-9.416 0.545-8.288-2.36-16.266-8.172-22.465zM248.797 303.363c-5.82 9.648-18.354 12.753-28.003 6.933-9.646-5.818-12.751-18.354-6.933-28.003l12.935-21.449c3.831-6.352 10.575-9.867 17.488-9.867 3.586 0 7.219 0.946 10.513 2.933 9.646 5.818 12.751 18.354 6.933 28.003l-12.933 21.449zM958.974 822.080c-40.307 4.749-77-24.186-81.753-64.514l-27.197-230.828c-32.868 9.198-68.798-5.571-85.118-36.882l-144.882-240.036c-0.161-0.267-0.316-0.539-0.467-0.814-9.491-17.498-17.855-35.807-24.857-54.423-0.326-0.869-0.596-1.76-0.802-2.664l-35.246-155.214c-0.985-4.359-1.687-8.751-2.089-13.055-1.868-20.043 4.863-40.107 18.473-55.043 13.726-15.066 33.286-23.707 53.666-23.707h46.796c44.491 0 76.345 20.090 85.208 53.742l22.289 84.637c3.684 13.979 9.528 27.218 17.373 39.353 0.161 0.249 0.316 0.5 0.467 0.757l140.745 239.991c28.352 48.342 46.361 101.041 53.523 156.633l28.358 220.101c0.010 0.073 0.018 0.147 0.029 0.22 4.749 40.322-24.193 76.994-64.516 81.747zM982.985 745.201l-28.344-219.976c-6.458-50.117-22.693-97.627-48.252-141.21l-140.529-239.62c-10.065-15.656-17.571-32.721-22.314-50.729l-22.289-84.635c-5.348-20.305-30.967-23.336-45.76-23.336h-46.796c-9.057 0-17.406 3.688-23.507 10.385-5.983 6.566-8.826 15.011-8.008 23.78 0.239 2.562 0.663 5.206 1.257 7.833l34.93 153.81c6.191 16.286 13.53 32.305 21.824 47.638l144.992 240.22c0.257 0.426 0.5 0.863 0.724 1.31 3.97 7.823 10.752 13.632 19.089 16.355 8.331 2.723 17.224 2.038 25.045-1.926 14.891-8.165 21.176-26.379 14.275-41.994-0.155-0.349-0.314-0.696-0.481-1.042l-57.772-95.805c-5.818-9.646-2.713-22.183 6.933-28.003 3.296-1.987 6.927-2.933 10.513-2.933 6.915 0 13.657 3.517 17.488 9.867l58.201 96.515c0.253 0.42 0.492 0.849 0.714 1.285 0.61 1.195 1.179 2.401 1.718 3.619 11.133 25.192 6.997 53.409-8.602 74.091l29.704 252.086c2.119 17.985 18.487 30.881 36.46 28.774 17.955-2.111 30.849-18.412 28.788-36.358zM803.206 310.296c-9.648 5.818-22.183 2.711-28.003-6.933l-12.935-21.449c-5.818-9.646-2.713-22.183 6.933-28.003 3.294-1.987 6.927-2.933 10.513-2.933 6.915 0 13.657 3.517 17.488 9.867l12.935 21.449c5.82 9.648 2.715 22.185-6.931 28.003zM297.009 742.575l16.049 12.135v-255.121c0-11.266 9.134-20.398 20.398-20.398h357.084c11.264 0 20.398 9.132 20.398 20.398v255.123l16.049-12.135c3.682-2.784 8.002-4.129 12.286-4.129 6.175 0 12.278 2.793 16.286 8.096 6.795 8.985 5.018 21.779-3.967 28.574l-227.291 171.855c-7.278 5.503-17.326 5.503-24.607 0l-227.293-171.857c-8.985-6.795-10.762-19.589-3.967-28.574 6.793-8.985 19.589-10.764 28.574-3.967zM551.834 519.99h-79.666v147.436h79.666v-147.436zM353.855 785.559l158.145 119.571 158.143-119.571v-265.569h-77.514v167.834c0 11.266-9.134 20.398-20.398 20.398h-120.463c-11.264 0-20.398-9.132-20.398-20.398v-167.834h-77.514v265.569z" />
<glyph unicode="&#xe923;" glyph-name="interface2" d="M672 416h-320c-17.664 0-32-14.336-32-32s14.336-32 32-32h320c17.664 0 32 14.336 32 32s-14.336 32-32 32zM736 608h-448c-17.664 0-32-14.336-32-32s14.336-32 32-32h448c17.664 0 32 14.336 32 32s-14.336 32-32 32zM512 960c-282.751 0-512-200.575-512-448 0-141.409 75.040-267.296 192-349.408v-226.592l224.288 136.097c31.041-5.122 62.976-8.097 95.712-8.097 282.785 0 512 200.575 512 448s-229.215 448-512 448zM512 128c-37.376 0-73.472 4.352-108.161 11.744l-150.657-90.559 2.016 148.415c-115.486 69.471-191.199 184.287-191.199 314.4 0 212.063 200.575 384 448 384s448-171.937 448-384-200.575-384-448-384z" />
<glyph unicode="&#xe924;" glyph-name="interface-1" d="M997.142 823.431c-17.903 17.907-39.431 26.856-64.569 26.856h-841.143c-25.142 0-46.67-8.949-64.575-26.856-17.907-17.903-26.856-39.429-26.856-64.575v-621.719c0-25.15 8.949-46.658 26.856-64.561 17.903-17.919 39.431-26.864 64.575-26.864h841.145c25.138 0 46.664 8.945 64.569 26.864 17.911 17.903 26.856 39.423 26.856 64.561v621.719c-0.002 25.146-8.945 46.672-26.858 64.575zM950.849 137.151c0-4.954-1.807-9.239-5.432-12.857-3.623-3.623-7.904-5.416-12.849-5.416h-841.143c-4.952 0-9.239 1.793-12.855 5.416-3.621 3.619-5.428 7.904-5.428 12.857v438.854c12.189-13.714 25.332-26.287 39.429-37.713 102.098-78.475 183.239-142.852 243.431-193.141 19.428-16.384 35.24-29.143 47.429-38.288 12.189-9.149 28.665-18.383 49.424-27.712 20.761-9.343 40.287-13.992 58.573-13.992h1.143c18.281 0 37.816 4.649 58.569 13.992 20.767 9.329 37.253 18.562 49.438 27.712 12.187 9.145 28 21.904 47.431 38.288 60.192 50.289 141.323 114.666 243.425 193.141 14.096 11.424 27.246 23.999 39.417 37.713v-438.854zM950.849 744.003v-6.285c0-22.474-8.848-47.525-26.561-75.141-17.715-27.616-36.865-49.62-57.424-65.996-73.534-57.914-149.903-118.288-229.157-181.144-2.282-1.903-8.955-7.519-20.007-16.848-11.036-9.343-19.802-16.494-26.281-21.44-6.487-4.96-14.953-10.958-25.425-17.999-10.48-7.041-20.097-12.289-28.857-15.713-8.76-3.416-16.952-5.128-24.568-5.128h-1.143c-7.618 0-15.802 1.711-24.568 5.128-8.76 3.424-18.383 8.672-28.855 15.713-10.47 7.043-18.948 13.042-25.425 17.999-6.473 4.946-15.239 12.097-26.283 21.44-11.048 9.329-17.721 14.945-20.005 16.848-79.236 62.858-155.613 123.23-229.141 181.144-56.003 44.184-83.999 98.284-83.999 162.284 0 4.948 1.807 9.237 5.428 12.851 3.621 3.621 7.904 5.432 12.855 5.432h841.145c3.042-1.711 5.712-2.188 8-1.431 2.288 0.771 3.999-0.662 5.136-4.279 1.143-3.621 2.192-5.332 3.142-5.144 0.955 0.192 1.529-2.188 1.719-7.147 0.178-4.95 0.274-7.441 0.274-7.441v-7.704h-0.002z" />
<glyph unicode="&#xe925;" glyph-name="interface-2" d="M772.075 732.444h-166.519l83.259-83.259zM306.223 651.186c0.488 11.712 5.504 23.175 13.777 31.481l49.778 49.778h-369.778v-113.778h317.333c-7.552 8.965-11.596 20.807-11.11 32.519zM0 960h796.444v-113.778h-796.444v113.778zM320 213.333c-8.282 8.296-13.312 19.757-13.815 31.467-0.503 11.712 3.532 23.559 11.072 32.533h-317.257v-113.778h369.778l-49.778 49.778zM0 49.778h796.444v-113.778h-796.444v113.778zM605.483 163.556h166.665l-83.333 83.333zM910.222 391.111v113.778h-30.481l144.258 144.258-134.073 134.075-201.112-201.112-201.185 201.112-134.075-134.075 144.313-144.258h-497.868v-113.778h497.816l-144.261-144.258 134.075-134.075 201.185 201.185 201.112-201.185 134.073 134.075-144.206 144.258z" />
<glyph unicode="&#xe926;" glyph-name="interface-3" d="M526.005 84.108h-146.709l21.361-21.334c13.607-13.603 22.223-30.145 26.657-47.53h140.931l-13.685 13.685c-15.604 15.602-25.018 34.97-28.556 55.18zM224.045 308.209v580.85h572.618v-674.433l68.862 68.898v639.969c0 19.016-15.397 34.434-34.43 34.434h-641.487c-19.029 0-34.43-15.418-34.43-34.434v-615.269l34.43-34.451 34.436 34.436zM340.767 745.798h201.447c19.035 0 34.432 15.418 34.432 34.432 0 19.016-15.397 34.43-34.432 34.43h-201.447c-19.033 0-34.432-15.414-34.432-34.43 0-19.014 15.399-34.432 34.432-34.432zM679.951 676.931h-339.184c-19.033 0-34.432-15.418-34.432-34.43 0-19.016 15.399-34.434 34.432-34.434h339.184c19.035 0 34.432 15.418 34.432 34.434 0 19.010-15.397 34.43-34.432 34.43zM679.951 539.201h-339.184c-19.033 0-34.432-15.418-34.432-34.434 0-19.012 15.399-34.43 34.432-34.43h339.184c19.035 0 34.432 15.418 34.432 34.43 0 19.014-15.397 34.434-34.432 34.434zM679.951 401.468h-201.458c-19.033 0-34.43-15.416-34.43-34.432 0-19.014 15.397-34.43 34.43-34.43h201.458c19.035 0 34.432 15.416 34.432 34.43s-15.397 34.432-34.432 34.432zM1008.869 280.801c-20.174 20.141-52.858 20.161-73.024-0.017l-206.97-207.018-64.767 64.73c-20.174 20.176-52.862 20.176-73.036 0-20.178-20.174-20.178-52.877 0-73.034l101.276-101.264c9.688-9.686 22.839-15.131 36.526-15.131 13.72 0 26.827 5.447 36.513 15.131l243.483 243.552c20.176 20.174 20.176 52.877 0 73.051zM262.648 127.705c46.069 46.084 23.982 23.99 101.452 101.448 20.174 20.174 20.174 52.875 0 73.036-20.176 20.176-52.86 20.176-73.036 0-77.914-77.893-55.753-55.751-101.456-101.448l-101.44 101.448c-20.174 20.176-52.858 20.176-73.036 0-20.178-20.178-20.178-52.877 0-73.036l101.454-101.448c-46.21-46.222-24.020-24.045-101.454-101.469-20.178-20.174-20.178-52.875 0-73.036 20.178-20.174 52.862-20.174 73.036 0 77.435 77.426 55.274 55.282 101.44 101.469l101.486-101.469c20.178-20.174 52.864-20.174 73.041 0 20.178 20.178 20.178 52.879 0 73.036l-101.486 101.469z" />
<glyph unicode="&#xe927;" glyph-name="interface-4" d="M921.6 960h-819.2c-56.32 0-102.4-46.080-102.4-102.4v-921.6l204.8 204.8h716.8c56.32 0 102.4 46.080 102.4 102.4v614.4c0 56.32-46.080 102.4-102.4 102.4zM819.2 345.6h-614.4v102.4h614.4v-102.4zM819.2 499.2h-614.4v102.4h614.4v-102.4zM819.2 652.8h-614.4v102.4h614.4v-102.4z" />
<glyph unicode="&#xe928;" glyph-name="interface-5" d="M922.795 942.933h-650.923c-55.808 0-101.205-45.397-101.205-101.205v-103.595h581.461c74.615 0 135.339-60.706 135.339-135.322v-223.078h35.328c55.808 0 101.205 45.397 101.205 101.205v360.789c0 55.808-45.397 101.205-101.205 101.205zM752.128 704h-650.923c-55.808 0-101.205-45.397-101.205-101.188v-360.806c0-55.808 45.397-101.205 101.205-101.205h103.595v-170.667c0-7.049 4.335-13.38 10.923-15.923 1.997-0.768 4.079-1.143 6.144-1.143 4.71 0 9.335 1.963 12.629 5.581l165.581 182.153h352.051c55.808 0 101.205 45.397 101.205 101.205v360.806c0 55.791-45.397 101.188-101.205 101.188zM204.8 533.077h238.933c9.438 0 17.067-7.646 17.067-17.067s-7.629-17.067-17.067-17.067h-238.933c-9.438 0-17.067 7.646-17.067 17.067s7.629 17.067 17.067 17.067zM665.6 294.144h-460.8c-9.438 0-17.067 7.646-17.067 17.067s7.629 17.067 17.067 17.067h460.8c9.438 0 17.067-7.646 17.067-17.067s-7.629-17.067-17.067-17.067zM665.6 396.544h-460.8c-9.438 0-17.067 7.646-17.067 17.067s7.629 17.067 17.067 17.067h460.8c9.438 0 17.067-7.646 17.067-17.067s-7.629-17.067-17.067-17.067z" />
<glyph unicode="&#xe929;" glyph-name="internet" d="M966.879 307.921c-75.298 19.14-136.293 62.257-136.293 62.257l-47.745-150.805-9.044-28.394-0.21 0.421-7.782-23.977-25.239 71.301c61.837 86.235-12.409 85.393-16.616 85.183-4.207 0.21-78.452 1.052-16.616-85.183l-25.239-71.301-7.782 23.977-0.21-0.421-9.044 28.394-47.745 150.805c0 0-61.206-43.117-136.293-62.257-56.158-14.302-58.892-79.083-56.578-111.053 0 0 3.155-43.538 6.52-62.678 0 0 109.371-71.091 292.777-71.301 183.617 0.21 293.198 71.301 293.198 71.301 3.365 19.14 6.52 62.678 6.52 62.678 2.314 31.97-0.421 96.751-56.578 111.053zM571.041 763.282c0.841 0.841 1.472 1.472 2.314 2.314-60.995 43.748-134.189 67.515-210.749 67.515-96.961 0.21-188.033-37.438-256.39-106.005-68.567-68.567-106.216-159.429-106.216-256.39 0-96.751 37.649-187.823 106.216-256.39s159.429-106.216 256.39-106.216c4.838 0 9.675 0.21 14.513 0.21-2.314 4.838-3.996 10.096-4.838 15.564-2.103 11.989-3.996 30.708-5.258 45.431-1.472 0-2.945 0-4.417 0-9.465 0-18.93 0.421-28.394 1.262-31.129 48.165-54.265 100.747-68.777 155.643h136.293c16.826 19.35 38.911 32.811 64.781 39.542 23.767 6.1 46.272 15.144 64.991 23.977 2.524 18.299 4.207 36.597 5.258 55.316-1.052 1.683-2.314 3.155-3.365 5.048-8.203 13.040-15.144 29.446-21.453 51.951-7.361 26.291-14.723 63.94 3.996 94.858-2.314 15.985-2.734 30.708-1.683 44.59-10.937 38.069-25.45 74.877-43.538 110.212 23.557-9.044 45.431-21.033 65.622-35.335 9.044 16.616 20.612 32.391 34.704 46.903zM339.47 771.275c7.572 0.631 15.144 0.841 22.926 0.841 8.834 0 17.668-0.421 26.501-1.262 31.129-48.165 54.265-100.537 68.777-155.222h-190.137c15.564 55.106 39.752 107.478 71.932 155.643zM257.231 753.186c-23.346-43.538-41.014-89.81-53.003-137.555h-105.795c34.494 62.888 90.862 112.105 158.798 137.555zM61.206 470.715c0 29.025 4.207 56.999 11.778 83.5h119.046c-4.207-28.815-6.31-57.84-6.31-87.286 0-26.712 1.683-53.003 5.048-79.083h-117.784c-7.572 26.291-11.778 54.265-11.778 82.869zM98.223 326.43h104.112c11.147-47.114 27.974-92.755 50.058-136.082-66.043 26.081-120.518 74.667-154.171 136.082zM475.973 474.712c0-29.236-2.314-58.261-6.941-86.866h-216.217c-3.786 26.081-5.679 52.582-5.679 79.083 0 29.446 2.314 58.682 6.941 87.286h216.217c3.786-26.081 5.679-52.792 5.679-79.504zM861.715 572.935c2.314 6.731 4.207 13.251 5.258 19.981 20.822 125.566-40.804 129.983-40.804 129.983s-10.306 19.771-37.228 34.494c-17.878 10.727-43.117 19.14-76.349 16.195-10.727-0.421-20.822-2.524-30.498-5.889-12.199-4.207-23.346-10.096-33.442-17.247-12.409-7.782-24.188-17.457-34.494-28.394-16.406-16.616-30.918-38.28-37.228-65.412-5.258-20.192-4.207-41.224 0.21-63.729 1.262-6.52 2.945-13.251 5.258-19.981-12.409 1.262-26.922-6.1-13.251-54.475 10.096-35.335 19.35-45.431 26.501-45.852 6.52-42.066 38.911-95.699 92.334-114.629 21.874-7.782 46.062-7.782 67.726 0.21 52.582 18.93 86.235 72.353 92.755 114.419 7.151 0.631 16.406 10.516 26.501 45.852 13.671 48.376-0.841 55.737-13.251 54.475z" />
<glyph unicode="&#xe92a;" glyph-name="like" d="M217.066 39.236c0-57.011-10.271-103.236-22.94-103.236h-108.974c-12.671 0-22.94 46.225-22.94 103.236v490.368c0 57.016 10.271 103.236 22.94 103.236h108.974c12.669 0 22.94-46.221 22.94-103.236v-490.368zM858.559 650.294h-132.433c2.134 8.263 3.386 16.879 3.386 25.809v180.66c0 57.016-46.221 103.236-103.236 103.236l-129.045-283.898c0-8.931-232.281-72.029-232.281-129.045v-490.368c0-57.007 46.218-103.236 103.236-103.236h490.37c57.016 0 103.234 46.229 103.234 103.236v490.37c0.004 57.014-46.214 103.236-103.23 103.236z" />
<glyph unicode="&#xe92b;" glyph-name="list-with-one-cross" d="M792.835 794.29h-108.426v20.778c0 26.737-21.751 48.488-48.488 48.488h-5.987c-11.106 54.946-59.762 96.444-117.93 96.444s-106.824-41.498-117.933-96.444h-5.995c-26.737 0-48.488-21.751-48.488-48.488v-20.778h-108.426c-44.559 0-80.813-36.255-80.813-80.813v-696.664c0-44.559 36.255-80.813 80.813-80.813h561.673c44.559 0 80.813 36.255 80.813 80.813v696.664c0 44.562-36.255 80.813-80.813 80.813zM393.463 809.68h237.074v-88.252h-237.074v88.252zM512.004 906.125c28.216 0 52.317-17.711 61.935-42.569h-123.87c9.619 24.858 33.719 42.569 61.935 42.569zM819.773 16.813c0-14.855-12.082-26.938-26.938-26.938h-561.673c-14.855 0-26.938 12.082-26.938 26.938v696.664c0 14.855 12.082 26.938 26.938 26.938h108.426v-24.373c0-26.737 21.751-48.488 48.488-48.488h247.849c26.737 0 48.488 21.751 48.488 48.488v24.373h108.426c14.855 0 26.938-12.082 26.938-26.938v-696.664zM552.701 572.345h-222.656c-14.88 0-26.938-12.057-26.938-26.938 0-14.877 12.057-26.938 26.938-26.938h222.656c14.88 0 26.938 12.061 26.938 26.938 0 14.88-12.061 26.938-26.938 26.938zM552.701 433.874h-222.656c-14.88 0-26.938-12.057-26.938-26.938s12.057-26.938 26.938-26.938h222.656c14.88 0 26.938 12.057 26.938 26.938 0 14.877-12.061 26.938-26.938 26.938zM552.701 295.389h-222.656c-14.88 0-26.938-12.057-26.938-26.938s12.057-26.938 26.938-26.938h222.656c14.88 0 26.938 12.057 26.938 26.938s-12.061 26.938-26.938 26.938zM552.701 156.907h-222.656c-14.88 0-26.938-12.057-26.938-26.938s12.057-26.938 26.938-26.938h222.656c14.88 0 26.938 12.057 26.938 26.938s-12.061 26.938-26.938 26.938zM653.98 528.199c7.252-6.587 16.45-10.143 26.126-10.143 0.812 0 1.627 0.029 2.446 0.075 10.56 0.65 20.193 5.445 27.117 13.498l37.429 43.524c6.469 7.517 5.614 18.856-1.907 25.325-7.517 6.465-18.856 5.614-25.325-1.907l-37.429-43.524c-0.7-0.819-1.526-1.027-2.094-1.063-0.55-0.029-1.412 0.075-2.205 0.797l-23.565 21.424c-7.341 6.673-18.698 6.138-25.368-1.207-6.673-7.338-6.135-18.695 1.207-25.368l23.569-21.432zM719.866 454.795l-37.429-43.521c-0.704-0.819-1.53-1.031-2.098-1.067-0.517-0.047-1.401 0.072-2.202 0.805l-23.565 21.421c-7.345 6.67-18.698 6.124-25.372-1.21-6.67-7.338-6.127-18.695 1.21-25.372l23.562-21.417c7.252-6.594 16.45-10.15 26.13-10.15 0.808 0 1.62 0.025 2.435 0.072 10.567 0.654 20.203 5.449 27.132 13.501l37.429 43.517c6.469 7.521 5.614 18.856-1.904 25.329-7.521 6.461-18.853 5.614-25.329-1.907zM719.866 181.615l-37.429-43.521c-0.704-0.815-1.526-1.031-2.094-1.067-0.582-0.029-1.412 0.075-2.205 0.805l-23.565 21.421c-7.345 6.67-18.698 6.124-25.372-1.21-6.67-7.338-6.127-18.695 1.21-25.368l23.565-21.417c7.252-6.594 16.45-10.15 26.13-10.15 0.808 0 1.623 0.025 2.442 0.075 10.563 0.654 20.196 5.445 27.124 13.501l37.429 43.521c6.469 7.517 5.614 18.856-1.907 25.325-7.521 6.454-18.86 5.61-25.329-1.914zM644.814 229.801c3.505-3.509 8.103-5.262 12.697-5.262s9.195 1.753 12.697 5.262l17.772 17.772 17.775-17.775c3.505-3.509 8.103-5.262 12.697-5.262s9.195 1.753 12.697 5.262c7.015 7.011 7.015 18.382 0 25.393l-17.775 17.775 17.779 17.775c7.015 7.011 7.015 18.382 0 25.39-7.007 7.018-18.386 7.018-25.393 0l-17.775-17.772-17.775 17.772c-7.007 7.018-18.386 7.018-25.393 0-7.015-7.007-7.015-18.379 0-25.39l17.772-17.775-17.772-17.772c-7.015-7.011-7.015-18.382 0-25.393z" />
<glyph unicode="&#xe92c;" glyph-name="logout" d="M762.129 698.129c-18.171 18.174-47.647 18.178-65.825 0.003-18.174-18.178-18.178-47.647 0-65.825l137.756-137.762h-570.297c-25.706 0-46.545-20.84-46.545-46.545s20.84-46.545 46.545-46.545h570.29l-137.75-137.75c-18.178-18.178-18.178-47.647 0-65.825 9.089-9.089 21.001-13.632 32.914-13.632s23.825 4.543 32.911 13.632l217.206 217.206c18.178 18.174 18.178 47.647 0 65.825l-217.206 217.218zM480.97-64c25.706 0 46.545 20.84 46.545 46.545s-20.84 46.545-46.545 46.545h-356.848v837.818h356.848c25.706 0 46.545 20.84 46.545 46.545s-20.84 46.545-46.545 46.545h-403.394c-25.706 0-46.545-20.84-46.545-46.545v-930.909c0-25.706 20.84-46.545 46.545-46.545h403.394z" />
<glyph unicode="&#xe92d;" glyph-name="medic-suitcase" d="M985.496 657.171c-25.669 24.283-55.848 36.423-90.537 36.423h-106.146v110.309c0 40.238-13.876 74.579-41.626 103.024s-61.051 42.667-99.902 42.667h-270.569c-38.852 0-72.152-14.222-99.902-42.667-27.752-28.445-41.626-62.787-41.626-103.024v-110.309h-106.146c-34.689 0-64.868-12.14-90.537-36.423s-38.504-54.461-38.504-90.537v-491.187c0-34.689 12.835-64.868 38.504-90.537s55.848-38.504 90.537-38.504h765.919c34.689 0 64.868 12.835 90.537 38.504s38.504 56.543 38.504 92.618v489.106c0 36.075-12.835 66.254-38.504 90.537zM320.52 803.902c0 15.262 5.896 29.138 17.691 41.626s24.63 18.732 38.504 18.732h270.569c13.876 0 26.709-6.244 38.504-18.732s17.691-26.364 17.691-41.626v-110.309h-382.959v110.309zM747.187 225.301h-149.854v-149.854h-170.667v149.854h-149.854v170.667h149.854v147.772h170.667v-147.772h149.854v-170.667z" />
<glyph unicode="&#xe92e;" glyph-name="money" d="M993.549 536.577l-443.412 331.848c-22.716 17.018-53.939 17.018-76.675 0l-179.33-134.2v32.378c0 35.318-28.645 63.984-63.984 63.984h-59.143c-35.343 0-63.984-28.665-63.984-63.984v-172.395l-81.368-60.912c-22.073-16.506-31.075-45.279-22.374-71.428s33.165-43.786 60.721-43.786h43.043v-339.286c0-35.342 28.645-63.984 63.984-63.984h681.542c35.342 0 63.982 28.645 63.982 63.984v339.286h43.040c0.151 0 0.276 0 0.427 0 35.342 0 63.984 28.645 63.984 63.984-0.017 23.050-12.194 43.249-30.452 54.51zM674.524 313.89c0-73.006-49.566-117.413-123.107-126.562v-29.326c0-21.779-17.636-39.434-39.434-39.434s-39.459 17.681-39.459 39.434v32.591c-37.39 7.039-73.795 21.608-105.896 44.576-10.089 7.079-17.169 20.135-17.169 34.338 0 23.674 18.917 41.996 42.613 41.996 11.838 0 20.090-4.096 26.020-8.254 31.438-23.079 65.734-37.281 106.003-37.281 37.304 0 59.826 14.779 59.826 39.073v1.195c0 23.057-14.202 34.871-83.502 52.681-83.436 21.287-137.352 44.405-137.352 126.733v1.195c0 64.092 44.128 109.371 109.477 121.42v30.884c0 21.797 17.661 39.478 39.459 39.478s39.439-17.661 39.439-39.478v-31.162c32.506-5.333 62.065-16.336 88.15-32.952 10.111-5.845 20.177-18.343 20.177-36.111 0-23.654-18.961-42.039-42.635-42.039-8.917 0-15.976 2.369-23.057 6.547-30.242 17.723-58.653 27.832-87.128 27.832-34.915 0-53.255-15.996-53.255-36.11v-1.215c0-27.215 17.746-36.111 89.41-54.473 84.034-21.904 131.446-52.126 131.446-124.321v-1.26l-0.027 0.007z" />
<glyph unicode="&#xe92f;" glyph-name="money-1" d="M587.676 318.455c1.791 7.55 3.020 15.539 3.389 24.090 7.094 155.268-77.748 282.408-204.923 364.142-75.641 48.636-147.384-4.39-165.61-72.007-46.881 37.311-128.070-18.524-91.549-79.855 1.334-2.23 2.704-4.477 4.074-6.725-36.662 0.14-153.495 0.509-120.784-0.035 38.663-0.667 131.441-104.718 131.441-104.718v87.791c28.497-43.58 64.931-84.35 119.151-90.513 24.722-2.827 45.142 4.829 61.928 18.226 21.193-25.934 31.991-55.045 34.098-89.986-18.559 0.281-37.171-0.474-55.958-2.669-64.808-7.638-104.805-21.913-117.904-89.705-19.7-102.26 33.484-176.953 90.847-255.122 46.67-63.579 154.092-1.967 106.807 62.508-38.663 52.675-77.555 95.956-75.957 157.164 37.785 5.742 75.36 4.196 113.725 0.527 18.77-8.077 39.945-11.343 60.91-9.71 31.271-104.56 90.653-197.689 167.559-277.123 55.59-57.433 142.977 30.235 87.475 87.423-76.256 78.872-127.333 170.122-148.719 276.297zM119.484 820.394c0.158-1.756 0.211-3.512 0.457-5.285 7.884-57.24 60.646-97.255 117.851-89.372 57.24 7.866 97.203 60.611 89.372 117.851-1.615 11.905-5.267 22.984-10.43 33.097 3.529 1.703 5.127 5.759 3.933 14.205l-3.406 24.985c-3.863 27.935-29.621 47.495-57.521 43.632l-111.355-15.276c-28.005-3.863-47.513-29.621-43.667-57.591l2.722-20.21c-15.609-12.449-28.796-28.181-25.934-44.861 2.493-14.802 18.893-11.132 37.979-1.176zM401.98 724.736c0 0 250.733-134.426 221.112-332.554-64.931-165.188 218.583-335.328 372.745 45.652-0.018 0 196.284 522.149-593.857 286.903zM826.487 413.849v-31.851h-33.888v29.972c-15.697 1.475-31.306 6.655-41.402 13.818l-4.758 3.424 12.291 34.379 8.252-5.496c10.693-7.146 24.511-11.272 37.75-11.272 16.206 0 27.022 8.41 27.022 20.894 0 8.428-3.354 17.576-28.164 27.619-26.197 10.254-53.044 25.196-53.044 57.714 0 26.144 17.19 46.529 44.142 53.325v30.955h33.589v-28.848c12.835-1.299 24.055-4.864 34.151-10.781l5.636-3.336-12.818-33.852-7.901 4.495c-4.635 2.651-15.574 8.92-32.939 8.92-17.119 0-23.212-8.99-23.212-17.4 0-9.113 4.53-15.012 31.447-26.179 23.282-9.481 50.094-24.968 50.094-60.594-0.053-26.987-18.366-48.795-46.249-55.906z" />
<glyph unicode="&#xe930;" glyph-name="money-2" d="M417.33 757.623c-21.303 0-38.429 17.335-38.429 38.429s17.335 38.429 38.429 38.429c21.303 0 38.429-17.335 38.429-38.429s-17.126-38.429-38.429-38.429zM417.33 732.978c76.857 0 139.304-62.447 139.304-139.304 0-42.397-19.006-80.199-48.871-105.888-13.575 6.683-28.822 10.443-45.739 10.443-3.55 0-7.31-0.209-10.234-0.418-8.145-0.627-36.131-5.221-56.808-35.296-1.253-1.88-2.506-3.759-3.55-5.639-64.535 12.113-113.406 68.712-113.406 136.798 0 76.857 62.238 139.304 139.304 139.304zM369.503 563.391c0.627-11.905 4.386-21.303 11.696-27.777 7.728-7.101 17.544-11.278 29.030-12.531v-15.455c0-2.089 1.671-3.759 3.759-3.759h13.784c2.089 0 3.759 1.671 3.759 3.759v15.873c9.398 1.671 16.917 5.43 22.765 11.069 6.892 6.683 10.443 15.455 10.443 26.524 0 11.487-3.342 20.467-10.234 26.524-6.892 6.266-17.544 12.322-32.163 18.588-6.266 2.715-10.651 5.43-12.949 8.145s-3.55 6.266-3.55 10.651 1.044 7.728 3.133 10.651c2.089 2.715 5.43 4.177 10.025 4.177 4.386 0 7.936-1.671 10.651-5.012 2.089-2.715 3.342-6.474 3.759-11.487 0.209-2.297 2.297-3.968 4.386-3.759l22.556 0.418c2.506 0 4.595 2.089 4.386 4.595-0.627 9.816-3.759 18.17-9.607 24.853-6.057 6.892-13.993 11.487-23.809 13.367v16.917c0 2.089-1.671 3.759-3.759 3.759h-13.784c-2.089 0-3.759-1.671-3.759-3.759v-16.499c-10.443-1.462-19.006-5.43-25.48-11.696-7.101-6.892-10.86-15.664-10.86-26.315 0-11.696 3.342-20.676 10.234-26.733 6.683-6.057 17.544-12.113 32.372-17.961 6.057-2.715 10.443-5.43 12.74-8.145s3.55-6.683 3.55-11.487c0-4.386-1.253-7.728-3.55-10.443s-5.848-3.968-10.234-3.968c-5.43 0-9.816 1.671-13.158 5.221-2.715 2.715-4.386 7.101-5.012 12.949-0.209 2.297-2.297 3.968-4.386 3.968l-22.556-0.418c-2.297-0.209-4.177-2.297-4.177-4.804zM807.673 389.835c-11.487 8.981-131.577 142.228-163.74 161.025v345.65c0 35.087-28.404 63.491-63.491 63.491h-326.226c-35.087 0-63.491-28.404-63.491-63.491v-605.043c0-35.087 28.404-63.491 63.491-63.491h142.019l-5.848 49.707c-1.88 1.671-3.133 2.715-5.012 4.386h-62.656c1.88 7.728 2.506 15.873 1.462 24.227-3.342 26.315-23.391 48.245-49.080 54.093-10.651 2.506-20.676 2.089-30.075-0.209v471.378c10.651-2.089 22.347-1.462 34.252 3.133 12.74 4.804 23.391 13.993 30.91 25.271 10.651 16.29 12.322 31.954 9.816 46.156h194.859c-2.506-13.993-0.835-29.239 9.398-45.53 7.31-11.696 18.17-20.885 30.91-25.689 12.113-4.595 23.809-5.221 34.669-3.133v-591.677c-22.138 16.29-46.992 67.25-46.992 67.25s-12.113 135.754-80.826 135.754c-1.88 0-3.55 0-5.43-0.209 0 0-52.004-4.386-8.981-153.297l19.214-165.202c0 0 21.512-89.806 80.826-151.835v-18.588c0-9.816 7.936-17.961 17.961-17.961h193.397c9.189 0 16.708 6.892 17.752 15.873 6.892 63.7 33.207 298.449 48.871 338.757 2.924 7.728 5.639 15.455 6.683 23.6 2.506 20.885 1.88 55.137-24.645 75.604z" />
<glyph unicode="&#xe931;" glyph-name="coins" d="M976.042 329.601c-24.367 24.363-58.838 33.154-90.505 26.307 28.159 56.17 44.040 119.515 44.040 186.507 0 230.259-187.326 417.585-417.585 417.585s-417.582-187.326-417.582-417.582c0-89.706 28.437-172.891 76.764-241.024-40.312-5.966-77.655-25.857-105.1-56.657-30.235-33.933-46.888-77.655-46.888-123.104v-97.538c0-15.204 11.208-28.081 26.266-30.184l379.559-52.939c23.805-3.318 47.616-4.971 71.309-4.971 81.85 0 162.258 19.68 235.863 58.113 24.353 12.715 47.968 27.587 70.188 44.206 48.046 35.931 94.237 75.329 137.289 117.090l35.324 34.268c19.030 18.461 29.622 43.228 29.825 69.741s-10.020 51.432-28.769 70.182zM155.361 542.415c0 196.648 159.983 356.634 356.631 356.634s356.634-159.986 356.634-356.631c0-178.217-131.4-326.321-302.405-352.517h-3.332l38.074 16.65c0.792 0.349 1.571 0.728 2.33 1.141 51.172 27.79 71.716 90.773 46.766 143.387-3.593 7.578-8.056 14.642-13.206 21.123 9.173 18.553 14.354 39.418 14.354 61.476 0 66.291-46.594 121.875-108.74 135.812v153.749c28.058-11.906 47.789-39.733 47.789-72.085 0-16.833 13.643-30.475 30.475-30.475s30.475 13.643 30.475 30.475c0 66.291-46.594 121.875-108.74 135.812v28.681c0 16.833-13.643 30.475-30.475 30.475s-30.475-13.643-30.475-30.475v-28.681c-62.146-13.941-108.74-69.521-108.74-135.812s46.594-121.871 108.74-135.812v-123.074l-26.168-12.508c-13.379 14.049-21.621 33.035-21.621 53.918 0 16.833-13.643 30.475-30.475 30.475s-30.475-13.643-30.475-30.475c0-30.171 9.681-58.11 26.053-80.936l-103.562-49.509-47.616 0.041c-57.324 63.304-92.29 147.214-92.29 239.141zM590.259 433.682c-0.003-8.99-1.544-17.622-4.344-25.664-0.61 0.207-1.209 0.437-1.822 0.63-13.535 4.29-27.685 5.817-41.623 4.734v92.385c28.058-11.906 47.789-39.733 47.789-72.085zM481.516 723.239v-144.169c-28.058 11.906-47.789 39.733-47.789 72.085s19.731 60.179 47.789 72.085zM932.54 233.424l-35.324-34.268c-41.189-39.957-85.382-77.648-131.353-112.024-19.609-14.665-40.434-27.783-61.892-38.988-83.594-43.648-177.147-59.827-270.541-46.807l-353.296 49.275v71.018c0 30.479 11.168 59.8 31.447 82.558 21.621 24.269 52.655 38.179 85.159 38.179 0.030 0 0.064 0 0.095 0l105.303-0.091c0.007 0 0.017 0 0.027 0 4.548 0 9.038 1.019 13.142 2.98l209.83 100.305c0.626 0.298 1.239 0.62 1.842 0.962 11.916 6.725 25.65 8.154 38.697 4.023 13.040-4.135 23.449-13.22 29.311-25.579 10.924-23.033 2.225-50.539-19.779-63.152l-170.263-74.469c-13.216-5.78-20.571-20.036-17.618-34.16s15.404-24.238 29.832-24.238h202.242c64.605 0 125.332 25.136 171.035 70.781l90.289 87.221c14.523 14.025 37.949 13.826 52.221-0.45 7.111-7.114 10.985-16.569 10.91-26.625-0.078-10.050-4.097-19.447-11.317-26.449z" />
<glyph unicode="&#xe932;" glyph-name="money-bag" d="M546.488 317.286h-58.545c-21.289 0-38.533 17.244-38.533 38.533s17.244 38.533 38.533 38.533h103.039c14.051 0 25.547 11.496 25.547 25.547s-11.496 25.547-25.547 25.547h-48.326v35.553c0 14.051-11.496 25.547-25.547 25.547s-25.547-11.496-25.547-25.547v-35.553h-3.619c-49.39 0-89.627-40.236-89.627-89.627s40.236-89.627 89.627-89.627h58.545c21.289 0 38.533-17.244 38.533-38.533s-17.244-38.533-38.533-38.533h-104.955c-14.051 0-25.547-11.496-25.547-25.547s11.496-25.547 25.547-25.547h50.242v-36.404c0-14.051 11.496-25.547 25.547-25.547s25.547 11.496 25.547 25.547v36.404h4.258c0.213 0 0.426 0 0.639 0 48.965 0.639 88.349 40.662 88.349 89.627 0 49.39-40.236 89.627-89.627 89.627zM901.163 375.192c-26.824 61.738-63.867 121.56-110.703 177.55-56.629 68.125-113.044 113.683-141.785 134.759l108.574 201.394c5.322 10.006 3.619 22.353-4.684 30.23-28.101 27.463-57.906 40.875-91.117 40.875-30.443 0-58.332-11.496-82.601-21.715-19.16-7.877-37.256-15.541-51.945-15.541-4.471 0-8.303 0.639-12.135 2.129-50.668 18.521-89.627 30.017-127.308 30.017-47.687 0-88.349-19.16-128.16-60.035-8.303-8.516-9.58-21.928-2.98-31.933l117.089-176.911c-28.953-21.502-84.304-66.635-139.869-133.269-46.623-55.99-83.879-115.812-110.703-177.55-33.637-77.705-50.668-158.816-50.668-240.991 0-109.212 88.988-198.2 198.2-198.2h483.26c109.212 0 198.2 88.988 198.2 198.2 0 82.175-17.031 163.286-50.668 240.991zM310.819 873.567c24.695 21.289 48.326 30.656 76.64 30.656 30.23 0 64.293-10.219 109.638-27.037 9.367-3.406 19.373-5.109 29.592-5.109 24.908 0 48.752 9.793 71.531 19.373 21.928 9.154 42.791 17.883 63.015 17.883 9.793 0 23.631-1.703 41.088-14.051l-102.187-189.898h-177.976l-111.341 168.183zM753.63-12.906h-483.26c-81.111 0-147.107 65.996-147.107 147.107 0 136.462 50.029 265.899 148.384 384.692 62.164 75.15 125.392 121.773 144.552 135.398h191.175c19.373-13.412 82.388-60.248 144.552-135.398 98.568-118.793 148.384-248.017 148.384-384.692 0.426-81.111-65.57-147.107-146.681-147.107z" />
<glyph unicode="&#xe933;" glyph-name="money-bag-1" d="M791.078 580.618c-39.816 50.974-84.92 93.928-130.43 124.214-16.42 10.926-32.68 20.108-48.742 27.572 16.286 14.524 32.18 32.728 47.628 54.602 31.156 44.112 49.328 87.804 50.086 89.644 6.594 15.982-0.16 34.35-15.534 42.256s-34.244 2.714-43.408-11.95c-13.924-22.276-33.302-27.866-47.106-28.634-23.888-1.326-48.158 10.502-64.9 31.648-25.168 31.794-64.976 50.030-109.212 50.030s-84.044-18.236-109.214-50.026c-7.476-9.442-9.262-22.19-4.666-33.322 0.758-1.838 18.93-45.53 50.086-89.644 15.44-21.86 31.324-40.056 47.6-54.578-16.194-7.516-32.588-16.77-49.14-27.798-45.644-30.404-90.876-73.526-130.812-124.704-84.332-108.074-134.68-236.964-134.68-344.78 0-88.698 31.574-159.766 93.854-211.232 70.638-58.336 178.336-87.916 320.108-87.916 141.262 0 248.634 29.82 319.134 88.63 62.136 51.836 93.64 123.344 93.64 212.534-0.002 107.402-50.204 235.796-134.292 343.454zM386.58 881.468c11.836 7.696 26.864 12.020 42.88 12.020 23.438 0 44.772-9.272 57.064-24.8 27.43-34.648 67.272-55.342 108.478-56.882-23.812-30.31-52.788-55.498-82.404-55.498-52.322 0-102.656 78.638-126.018 125.16zM789.122 75.704c-58.222-48.564-151.258-73.192-276.528-73.192-125.902 0-219.35 24.456-277.748 72.682-46.252 38.224-69.704 92.040-69.704 159.956 0 93.488 45.086 207.082 120.606 303.864 72.57 93.006 159.494 150.784 226.846 150.784 67.116 0 153.742-57.524 226.068-150.124 75.262-96.356 120.196-209.444 120.196-302.51 0-68.534-23.464-122.858-69.736-161.46zM528.548 354.77c-34.888 18.442-70.968 37.514-70.968 59.282 0 30.562 24.862 55.426 55.426 55.426 30.562 0 55.426-24.864 55.426-55.426 0-18.366 14.89-33.256 33.256-33.256s33.256 14.89 33.256 33.256c0 55.708-37.564 102.774-88.682 117.29v15.732c0 18.366-14.89 33.256-33.256 33.256s-33.256-14.89-33.256-33.256v-15.732c-51.118-14.516-88.682-61.584-88.682-117.29 0-61.844 58.994-93.028 106.396-118.084 34.89-18.442 70.968-37.512 70.968-59.28 0-30.562-24.864-55.426-55.426-55.426s-55.426 24.864-55.426 55.426c0 18.366-14.89 33.256-33.256 33.256s-33.256-14.89-33.256-33.256c0-55.708 37.564-102.774 88.682-117.29v-15.732c0-18.366 14.89-33.256 33.256-33.256s33.256 14.89 33.256 33.256v15.732c51.118 14.516 88.682 61.584 88.682 117.29 0 61.842-58.994 93.024-106.396 118.082z" />
<glyph unicode="&#xe934;" glyph-name="money-bag-with-dollar-symbol" d="M581.647 279.781c-3.824 4.188-8.662 7.32-13.662 9.93-10.886 5.677-22.792 9.12-34.613 12.228v-91.601c19.187 2.169 41.215 9.132 51.289 27.045v0c4.809 8.556 5.766 19.069 3.807 28.594-1.063 5.161-3.258 9.898-6.821 13.804zM584.56 237.208c0.039 0.065 0.060 0.106 0.101 0.176v0c-0.034-0.058-0.067-0.116-0.101-0.176zM443.374 426.213c-3.299-4.817-5.368-10.289-5.939-16.105-0.571-5.829-0.251-12.313 1.964-17.799 2.108-5.229 6.525-9.089 11.084-12.197 5.115-3.479 10.742-6.197 16.472-8.501 4.807-1.935 10.214-3.785 16.043-5.573v82.888c-14.725-3.142-30.813-9.85-39.622-22.712zM585.042 238.060c-0.12-0.214-0.251-0.439-0.378-0.675v0c0.149 0.275 0.267 0.477 0.378 0.675zM585.524 238.918c0.031 0.058 0.036 0.063 0 0v0zM565.643 737.194c77.898 65.438 129.948 212.86 97.916 219.308-42.562 8.571-134.986-29.011-179.659-35.632-63.361-7.65-132.37 68.708-171.105 26.146-31.495-34.606 22.58-160.455 107.18-215.281-252.403-124.052-607.171-746.803 11.742-791.989 856.372-62.525 427.556 676.563 133.926 797.449zM639.189 246.063c-2.634-24.278-15.5-46.234-34.733-61.139-20.307-15.739-45.779-23.059-71.086-25.11v-26.825c0-7.178-3.135-14.12-8.508-18.871-7.385-6.535-18.238-8.147-27.201-4.017-8.85 4.072-14.664 13.149-14.664 22.888v29.319c-4.34 0.824-8.648 1.805-12.905 2.973-23.652 6.498-45.591 19.165-61.616 37.907-7.983 9.342-14.491 19.941-18.992 31.384-1.176 2.99-2.224 6.036-3.142 9.115-0.831 2.788-1.689 5.621-1.985 8.527-0.499 4.874 0.467 9.848 2.74 14.19 4.67 8.932 14.51 14.327 24.558 13.431 9.889-0.877 18.556-7.739 21.669-17.165 0.959-2.903 1.61-5.879 2.687-8.751 1.067-2.853 2.357-5.626 3.872-8.267 2.993-5.2 6.742-9.995 11.060-14.156 8.901-8.576 20.238-14.149 32.056-17.464v99.663c-23.11 5.983-46.964 13.71-66.047 28.548-9.274 7.214-17.144 16.178-22.298 26.787-5.438 11.197-7.691 23.671-7.783 36.061-0.094 12.58 2.296 25.049 7.544 36.512 4.915 10.732 11.992 20.368 20.669 28.355 18.553 17.076 43.198 26.601 67.917 30.1v27.847c0 7.176 3.135 14.12 8.508 18.871 7.388 6.532 18.235 8.147 27.201 4.017 8.848-4.075 14.664-13.149 14.664-22.888v-27.695c3.294-0.414 6.578-0.911 9.845-1.504 24.274-4.393 48.015-14.416 65.766-31.917 8.409-8.289 15.293-18.165 20.134-28.936 1.352-3.005 2.535-6.079 3.559-9.214 0.954-2.923 1.913-5.932 2.369-8.983 0.728-4.87-0.014-9.901-2.099-14.356-4.27-9.127-13.845-14.939-23.919-14.508-9.898 0.431-18.867 6.877-22.411 16.129-1.055 2.752-1.583 5.665-2.66 8.409-1.087 2.778-2.494 5.429-4.115 7.932-3.152 4.867-7.236 9.041-11.898 12.479-10.096 7.455-22.341 11.339-34.577 13.51v-95.374c14.541-3.482 29.095-7.279 43.027-12.773 21.057-8.303 41.010-21.035 52.504-41.111-1.783 3.128-3.518 6.176 0.060-0.104 3.513-6.168 1.836-3.229 0.072-0.137 9.144-16.115 12.149-35.384 10.161-53.689zM584.293 236.735c-0.147-0.263-0.275-0.494-0.376-0.67 0.087 0.152 0.217 0.381 0.376 0.67z" />
<glyph unicode="&#xe935;" glyph-name="music" d="M881.693 234.062c-61.081 61.081-95.397 143.926-95.397 230.308v80.797c0 128.525-88.403 236.39-207.717 266.14v82.116c0 36.767-29.809 66.576-66.578 66.576s-66.576-29.809-66.576-66.576v-82.114c-119.314-29.752-207.717-137.615-207.717-266.14v-80.797c0-86.383-34.316-169.225-95.397-230.308-26.848-26.848-34.88-67.226-20.35-102.306 14.53-35.078 48.761-57.951 86.73-57.951h165.505c0-76.11 61.699-137.806 137.806-137.806s137.806 61.699 137.806 137.806h165.505c37.969 0 72.2 22.871 86.73 57.951 14.532 35.078 6.501 75.456-20.348 102.304zM512 3.643c-38.688 0-70.161 31.475-70.161 70.161h140.323c0-38.686-31.473-70.161-70.161-70.161zM839.546 157.643c-4.074-9.838-13.588-16.192-24.235-16.192h-606.622c-10.647 0-20.16 6.356-24.235 16.192s-1.842 21.058 5.687 28.587c74.294 74.294 115.208 173.074 115.208 278.14v80.797c0 113.948 92.703 206.651 206.651 206.651s206.651-92.703 206.651-206.651v-80.797c0-105.066 40.916-203.846 115.211-278.14 7.529-7.529 9.759-18.749 5.684-28.587z" />
<glyph unicode="&#xe936;" glyph-name="networking" d="M997.232 939.183c-13.815 13.535-30.917 20.817-50.542 20.817h-660.072c-40.431 0-73.134-30.929-73.134-71.359v-139.154h67.199v139.154c0 4.161 1.775 5.949 5.936 5.949h660.074c4.161 0 5.951-1.788 5.951-5.949v-475.133c0-4.162-1.79-5.951-5.951-5.951h-89.792v-66.005h89.792c19.625 0 36.727 7.28 50.54 20.817 14.131 13.828 21.415 30.915 21.415 51.138v475.133c-0.002 20.221-7.283 36.714-21.415 50.542zM737.369 679.916h-660.059c-20.221 0-37.475-7.129-51.151-21.415-13.676-14.259-20.806-31.513-20.806-51.721v-474.55c0-19.625 6.977-37.005 20.806-51.138 13.535-13.828 30.929-20.804 51.151-20.804h298.504l223.593-124.286v124.286h137.96c20.223 0 37.616 6.977 51.138 20.804 13.83 14.133 20.819 31.513 20.819 51.138v474.55c0 20.221-7.143 37.462-20.819 51.734-13.673 14.272-30.915 21.402-51.137 21.402zM743.318 132.229c0-4.161-1.788-5.937-5.951-5.937h-203.369v-78.5l-125.466 70.762-14.868 7.739h-316.354c-4.174 0-5.951 1.777-5.951 5.937v474.55c0 5.353 1.777 7.726 5.951 7.726h660.059c4.162 0 5.951-2.384 5.951-7.726v-474.55zM610.711 329.664h-237.269c-18.433 0-33.301-14.868-33.301-33.301s14.868-32.705 33.301-32.705h237.268c18.435 0 32.705 14.272 32.705 32.705s-14.271 33.301-32.704 33.301zM610.711 475.351h-406.743c-18.433 0-32.705-14.272-32.705-32.705s14.272-32.705 32.705-32.705h406.743c18.435 0 32.705 14.272 32.705 32.705s-14.272 32.705-32.705 32.705z" />
<glyph unicode="&#xe937;" glyph-name="next" d="M774.115 468.413l-483.056 483.056c-11.374 11.374-29.614 11.374-40.988 0s-11.374-29.614 0-40.988l462.455-462.455-462.455-462.455c-11.374-11.374-11.374-29.614 0-40.988 5.58-5.58 13.090-8.584 20.387-8.584s14.807 2.79 20.387 8.584l483.056 483.056c11.374 11.159 11.374 29.614 0.215 40.773z" />
<glyph unicode="&#xe938;" glyph-name="pen" d="M999.408 935.312c-16.272 16.272-38.448 24.672-61.28 24.688-22.88-0.336-44.448-9.456-60.816-25.744l-39.136-39.088c-0.16-0.192-0.24-0.4-0.384-0.56l-510.544-509.104c-1.664-1.664-2.528-3.728-3.744-5.648-2.096-2.432-3.92-5.072-5.232-8.080l-52.064-120c-5.184-12-2.704-25.92 6.352-35.376 6.272-6.56 14.832-10.096 23.616-10.096 3.856 0 7.776 0.688 11.504 2.096l125.184 47.088c3.472 1.296 6.496 3.344 9.264 5.632 2.016 1.28 4.192 2.24 5.872 3.92l512.56 511.12c0.096 0.096 0.128 0.224 0.24 0.32l37.456 37.28c33.888 33.776 34.4 88.32 1.152 121.552zM424.928 334.096l-28.432 28.368 466.416 465.104 28.416-28.368-466.4-465.104zM952.128 859.808l-14.656-14.592-28.544 28.464 14.576 14.56c4.24 4.224 9.744 6.576 15.552 6.656 5.504 0.128 10.448-1.904 14.128-5.568 7.856-7.84 7.344-21.104-1.056-29.52zM935.264 603.952c-18.048 0-32.64-14.576-32.64-32.544v-537.776c0-17.936-14.64-32.528-32.64-32.528h-772.064c-18.016 0-32.64 14.592-32.64 32.528v769.776c0 17.936 14.624 32.544 32.64 32.544h534.448c18.032 0 32.64 14.576 32.64 32.544s-14.608 32.544-32.64 32.544h-534.448c-54 0-97.92-43.792-97.92-97.632v-769.776c0-53.84 43.92-97.632 97.92-97.632h772.064c53.984 0 97.92 43.792 97.92 97.632v537.776c0 17.968-14.608 32.544-32.64 32.544z" />
<glyph unicode="&#xe939;" glyph-name="people" d="M712.849 670.365c3.337 9.594 6.048 19.188 7.717 28.782 30.034 180.619-58.816 186.876-58.816 186.876s-14.808 28.365-53.602 49.848c-26.071 15.434-62.362 27.322-110.123 23.36-15.434-0.834-30.034-3.754-43.799-8.343-17.52-5.84-33.579-14.6-48.179-24.611-17.937-11.263-34.831-25.237-49.639-41.088-23.568-23.985-44.633-55.27-53.602-94.064-7.717-28.991-5.84-59.233 0.417-91.978 1.669-9.594 4.171-18.98 7.717-28.782-17.728 1.669-38.793-8.551-18.98-78.421 14.183-51.099 27.531-65.282 37.751-66.116 9.386-60.693 56.105-137.863 133.066-164.977 31.494-11.054 66.116-11.054 97.609 0.209 75.71 27.322 124.097 104.284 133.483 164.768 10.22 0.834 23.568 15.225 37.959 66.116 19.814 69.87-1.251 80.090-18.98 78.421zM861.557 288.687c-108.246 27.531-196.262 89.475-196.262 89.475l-81.55-257.998-0.209 0.626-11.263-34.622-36.291 102.824c89.058 124.306-17.937 123.055-23.985 122.846-6.048 0.209-113.043 1.46-23.985-122.846l-36.291-102.824-11.263 34.622-0.209-0.626-12.931 40.879-68.619 217.118c0 0-88.015-61.944-196.262-89.475-80.715-20.44-84.678-113.669-81.341-159.971-0.417 0 4.38-62.57 8.968-90.101 0 0 157.677-102.406 421.723-102.615 264.046 0 421.723 102.615 421.723 102.615 4.797 27.531 9.386 90.101 9.386 90.101 3.337 46.093-0.626 139.323-81.341 159.971z" />
<glyph unicode="&#xe93a;" glyph-name="printer" d="M847.32 750.107h-26.316v58.575c0 83.406-67.913 151.319-151.319 151.319h-317.705c-83.406 0-151.319-67.913-151.319-151.319v-58.575h-23.982c-83.406 0-151.319-67.913-151.319-151.319v-244.062c0-83.406 67.913-151.319 151.319-151.319h23.77v-191.854c0-41.597 33.956-75.553 75.553-75.553h469.236c41.597 0 75.553 33.956 75.553 75.553v191.854h26.528c83.406 0 151.319 67.913 151.319 151.319v244.062c0 83.406-67.913 151.319-151.319 151.319zM257.751 808.681c0 51.784 42.233 94.017 94.017 94.017h317.493c51.784 0 94.017-42.233 94.017-94.017v-58.575h-505.527v58.575zM763.49 11.129c0-9.975-8.277-18.252-18.252-18.252h-469.236c-9.975 0-18.252 8.277-18.252 18.252v316.432h505.739v-316.432zM941.337 354.514c0-51.784-42.233-94.017-94.017-94.017h-26.316v67.064h37.777c15.917 0 28.651 12.734 28.651 28.651s-12.734 28.651-28.651 28.651h-700.352c-15.917 0-28.651-12.734-28.651-28.651s12.734-28.651 28.651-28.651h42.233v-67.064h-23.982c-51.784 0-94.017 42.233-94.017 94.017v244.062c0 51.784 42.233 94.017 94.017 94.017h670.64c51.784 0 94.017-42.233 94.017-94.017v-244.062zM327.149 186.641h364.82c15.917 0 28.651 12.734 28.651 28.651s-12.734 28.651-28.651 28.651h-364.82c-15.917 0-28.651-12.734-28.651-28.651s12.946-28.651 28.651-28.651zM694.304 126.793h-365.032c-15.917 0-28.651-12.734-28.651-28.651s12.734-28.651 28.651-28.651h364.82c15.917 0 28.651 12.734 28.651 28.651s-12.734 28.651-28.439 28.651zM846.684 637.626h-58.15c-15.917 0-28.651-12.734-28.651-28.651s12.734-28.651 28.651-28.651h58.15c15.917 0 28.651 12.734 28.651 28.651s-12.734 28.651-28.651 28.651z" />
<glyph unicode="&#xe93b;" glyph-name="prison" d="M422.813 910.452c0 2.223 0.109 4.42 0.271 6.6-80.919-43.282-137.992-143.855-139.452-261.5h139.181v254.9zM601.187 655.552h139.181c-1.46 117.648-58.533 218.221-139.452 261.5 0.162-2.18 0.271-4.377 0.271-6.6v-254.9zM422.813 477.177c-25.864 0-20.827 0-93.276 0 21.481-36.012 49.476-65.45 81.768-85.54l-4.836-60.132-223.14-64.71v-281.247c0-10.263-1.764-20.117-4.968-29.303h249.423c-3.204 9.183-4.968 19.036-4.968 29.303-0.003 25.266-0.003 478.334-0.003 491.629zM840.671 266.795l-223.14 64.71-4.836 60.132c32.292 20.090 60.287 49.529 81.768 85.54-126.884 0-77.444 0-93.276 0 0-13.444 0-467.030 0-491.629 0-10.263-1.764-20.117-4.968-29.303h249.423c-3.204 9.183-4.968 19.036-4.968 29.303v281.247zM462.452-14.452c0-27.364 22.184-49.548 49.548-49.548s49.548 22.184 49.548 49.548v491.629h-99.097v-491.629zM561.548 910.452c0 27.364-22.184 49.548-49.548 49.548s-49.548-22.184-49.548-49.548v-254.9h99.097v254.9zM44.594 477.323v-491.774c0-27.364 22.184-49.548 49.548-49.548s49.548 22.184 49.548 49.548v491.629c-102.374 0-95.341-0.063-99.097 0.145zM143.69 655.552v254.9c0 27.364-22.184 49.548-49.548 49.548s-49.548-22.184-49.548-49.548v-255.045c3.766 0.208-3.204 0.145 99.097 0.145zM880.31 477.177v-491.629c0-27.364 22.184-49.548 49.548-49.548s49.548 22.184 49.548 49.548v491.774c-3.766-0.208 3.207-0.145-99.097-0.145zM979.406 655.406v255.045c0 27.364-22.184 49.548-49.548 49.548s-49.548-22.184-49.548-49.548v-254.9c102.42 0 95.348 0.063 99.097-0.145zM974.452 615.913h-924.903c-27.364 0-49.548-22.184-49.548-49.548s22.184-49.548 49.548-49.548h924.903c27.364 0 49.548 22.184 49.548 49.548s-22.184 49.548-49.548 49.548z" />
<glyph unicode="&#xe93c;" glyph-name="profile" d="M819.439 228.028l-163.038 81.51c-15.377 7.697-24.934 23.159-24.934 40.363v57.702c3.908 4.779 8.021 10.223 12.271 16.23 21.146 29.867 38.093 63.113 50.415 98.97 24.081 11.042 39.714 34.85 39.714 61.73v68.267c0 16.435-6.144 32.358-17.067 44.8v90.778c0.956 9.387 4.71 65.263-35.703 111.36-35.055 39.987-91.938 60.262-169.097 60.262s-134.042-20.275-169.097-60.245c-40.414-46.097-36.659-101.99-35.703-111.377v-90.778c-10.923-12.442-17.067-28.365-17.067-44.8v-68.267c0-20.77 9.438-40.141 25.549-53.060 15.633-61.901 48.35-108.544 59.785-123.511v-56.474c0-16.521-9.011-31.676-23.501-39.595l-152.252-83.046c-49.51-27.017-80.247-78.797-80.247-135.185v-55.262c0-80.998 256.768-102.4 392.533-102.4s392.533 21.402 392.533 102.4v51.934c0 58.675-32.614 111.445-85.094 137.694z" />
<glyph unicode="&#xe93d;" glyph-name="reload" d="M528.223 938.407c-40.707 1.087-81.887-3.254-122.493-13.285-162.417-40.112-290.024-165.385-332.502-326.391-7.302-25.174 7.299-51.471 32.607-58.731 25.311-7.26 51.745 7.26 59.047 32.435 0.214 0.735 0.408 1.476 0.586 2.224 33.667 127.61 134.489 226.62 263.219 258.414 121.094 29.904 248.356-4.257 337.75-89.264-29.241-27.836-47.664-66.938-47.664-110.062 0-83.605 68.912-152.406 152.633-152.406s152.594 68.801 152.594 152.406c0 83.608-68.876 152.406-152.594 152.406-4.554 0-9.049-0.271-13.508-0.67-1.441 2.084-3.045 4.048-4.801 5.879-84.941 91.907-202.752 143.786-324.873 147.045zM871.406 690.896c32.173 0 57.228-25.025 57.228-57.153s-25.055-57.151-57.228-57.151-57.267 25.023-57.267 57.151 25.094 57.153 57.267 57.153zM152.597 414.66c-83.721 0-152.597-68.799-152.597-152.403 0-83.608 68.876-152.403 152.597-152.403 4.543 0 9.023 0.304 13.47 0.705 1.453-2.087 3.069-4.051 4.837-5.879 84.944-91.91 202.755-143.824 324.873-147.084 40.707-1.087 81.887 3.257 122.493 13.285 162.417 40.109 290.024 165.385 332.502 326.391 7.305 25.174-7.293 51.471-32.601 58.737s-51.748-7.254-59.050-32.429c-0.214-0.738-0.411-1.485-0.589-2.236-33.667-127.607-134.489-226.62-263.219-258.411-121.094-29.904-248.356 4.254-337.75 89.264 29.249 27.836 47.664 66.929 47.664 110.062 0 83.599-68.912 152.4-152.63 152.4v0zM152.597 319.411c32.173 0 57.264-25.025 57.264-57.153s-25.094-57.151-57.264-57.151c-32.173 0-57.228 25.023-57.228 57.151s25.055 57.153 57.228 57.153z" />
<glyph unicode="&#xe93e;" glyph-name="rotate" d="M512.018-64c-255.81 0-463.907 208.314-463.907 464.052 0 255.774 208.097 463.979 463.907 463.979 16.991 0 34.164-0.978 51.227-2.898v74.993c0 9.637 5.941 18.404 14.709 22.136 9.13 3.55 19.237 1.558 26.193-5.362l164.369-164.731c9.347-9.347 9.347-24.273 0-33.765l-164.296-165.094c-6.992-6.811-17.136-8.912-26.266-5.181-8.767 3.768-14.709 12.463-14.709 22.063v83.181c-16.991 3.116-34.091 4.529-51.227 4.529-162.050 0-293.922-131.836-293.922-293.85 0-161.978 131.908-293.922 293.922-293.922s293.85 131.981 293.85 293.922c0 13.151 10.687 23.911 23.983 23.911h122.054c13.223 0 23.983-10.76 23.983-23.911 0-255.737-208.242-464.052-463.87-464.052z" />
<glyph unicode="&#xe93f;" glyph-name="scales-of-justice" d="M748.308-23.355v-39.385h-472.615v39.385c0 21.701 17.684 39.385 39.385 39.385h79.281c2.087 49.152 33.989 90.191 78.257 105.905v461.785c-20.756 13.115-34.658 36.116-34.658 62.503h148.086c0-26.388-13.903-49.388-34.658-62.503v-461.745c44.268-15.714 76.17-56.753 78.257-105.905h79.281c21.701-0.039 39.385-17.723 39.385-39.424zM1024 331.146c-28.869-81.29-105.748-139.934-196.923-139.934s-168.054 58.683-196.923 139.934h45.45l133.041 352.61c5.75 15.36 31.074 15.36 36.864 0l133.041-352.61h45.45zM936.448 331.146l-109.371 289.831-109.371-289.871h218.742zM196.923 724.559c17.841 0 32.374 11.934 37.415 28.121 13.036 4.962 26.388 11.658 40.094 18.59 30.129 15.202 64.276 32.492 99.722 32.492 34.028 0 55.296-15.714 67.466-29.105-0.473-3.387-1.024-6.774-1.024-10.279 0-39.424 31.98-71.404 71.404-71.404s71.404 31.98 71.404 71.404c0 3.505-0.551 6.853-1.024 10.24 12.13 13.351 33.398 29.145 67.466 29.145 35.446 0 69.593-17.25 99.682-32.453 13.745-6.932 27.097-13.627 40.133-18.59 5.041-16.187 19.574-28.121 37.415-28.121 21.977 0 39.778 17.802 39.778 39.778s-17.802 39.778-39.778 39.778c-11.343 0-21.465-4.884-28.711-12.524-9.728 4.096-20.244 9.334-31.074 14.809-34.028 17.211-72.586 36.706-117.445 36.706-39.227 0-66.56-14.927-85.11-30.996-8.31 9.177-18.944 16.030-31.035 19.929 14.69 7.877 25.009 22.882 25.009 40.645 0 25.797-46.71 86.016-46.71 86.016s-46.71-60.219-46.71-86.016c0-17.802 10.319-32.768 25.009-40.645-12.091-3.86-22.725-10.752-31.035-19.929-18.55 16.069-45.883 30.996-85.11 30.996-44.859 0-83.456-19.495-117.484-36.706-10.831-5.514-21.307-10.752-31.035-14.809-7.247 7.601-17.369 12.524-28.711 12.524-21.977 0-39.778-17.802-39.778-39.778s17.802-39.818 39.778-39.818zM196.923 191.173c-91.175 0-168.054 58.683-196.923 139.934h45.45l133.041 352.61c5.75 15.36 31.074 15.36 36.864 0l133.041-352.61h45.45c-28.869-81.25-105.748-139.934-196.923-139.934zM306.294 331.146l-109.371 289.831-109.371-289.871h218.742z" />
<glyph unicode="&#xe940;" glyph-name="home" d="M1011.172 459.992c18.562 20.415 16.77 51.705-4.002 69.87l-457.639 400.437c-20.772 18.165-54.075 17.785-74.41-0.858l-459.195-420.928c-20.335-18.643-21.333-49.893-2.21-69.77l11.513-11.99c19.1-19.878 49.973-22.248 68.912-5.277l34.318 30.733v-449.932c0-27.605 22.368-49.953 49.953-49.953h178.995c27.585 0 49.953 22.348 49.953 49.953v314.771h228.311v-314.771c-0.397-27.585 19.34-49.933 46.925-49.933h189.69c27.585 0 49.953 22.348 49.953 49.953v443.577c0 0 9.48-8.305 21.173-18.582 11.673-10.258 36.19-2.033 54.753 18.402l13.008 14.3z" />
<glyph unicode="&#xe941;" glyph-name="shapes" d="M311.979 340.056c-42.229 48.438-48.18 124.449-76.959 160.996-24.156 30.677-62.478 15.82-67.049-11.016-7.071-41.534 37.497-163.92 59.985-203.168 5.601-9.773-4.441-27.836-21.776-12.285-17.335 15.556-86.266 173.912-59.413 278.447 13.148 51.177-20.755 104.667-64.206 77.642-43.451-27.023-68.706-252.23-4.207-383.998 54.426-111.19 169.303-184.722 189.257-197.298 13.568-8.548 19.068-58.116 21.2-88.955 1.002-14.514 4.984-24.418 21.079-24.4 17.725 0.024 53.758-0.038 103.76-0.017 26.080 0 26.987 15.657 26.98 23.135-0.18 196.478 10.418 221.395-128.651 380.916zM712.021 340.056c42.229 48.438 48.182 124.449 76.959 160.996 24.156 30.677 62.478 15.82 67.049-11.016 7.071-41.534-37.497-163.92-59.985-203.168-5.601-9.773 4.441-27.836 21.776-12.285 17.335 15.556 86.266 173.912 59.413 278.447-13.145 51.177 20.755 104.667 64.206 77.642 43.451-27.023 68.706-252.23 4.207-383.998-54.426-111.19-169.303-184.722-189.257-197.298-13.568-8.548-19.068-58.116-21.2-88.955-1.002-14.514-4.984-24.418-21.079-24.4-17.725 0.024-53.758-0.038-103.76-0.017-26.080 0-26.987 15.657-26.98 23.135 0.18 196.478-10.415 221.395 128.651 380.916zM647.371 960c-53.446 0-101.881-21.327-137.365-55.889-35.481 34.562-83.919 55.889-137.365 55.889-108.765 0-196.936-88.171-196.936-196.938 0-42.219 13.329-81.3 35.947-113.362 9.012-14.093 19.838-26.914 32.17-38.11l204.289-204.601c20.46-20.465 40.92-40.922 61.379-40.922 0.17 0 0.343 0.028 0.513 0.033 0.17-0.005 0.343-0.033 0.513-0.033 20.46 0 40.92 20.457 61.382 40.922l204.286 204.601c12.332 11.198 23.159 24.017 32.17 38.11 22.615 32.062 35.947 71.145 35.947 113.362 0.005 108.768-88.166 196.938-196.931 196.938z" />
<glyph unicode="&#xe942;" glyph-name="shapes-1" d="M276.304 456.99c37.418 17.252 73.21 25.882 107.357 25.882h453.434v87.2c0 33.425-11.993 62.141-35.981 86.122-23.984 23.978-52.676 35.966-86.106 35.966h-296.471v17.439c0 33.425-11.987 62.128-35.966 86.101-23.98 23.978-52.683 35.973-86.108 35.973h-174.389c-33.425 0-62.128-11.993-86.108-35.973-23.98-23.975-35.966-52.677-35.966-86.103v-523.174c0-1.458 0.094-3.732 0.275-6.826 0.179-3.083 0.275-5.358 0.275-6.807l2.722 3.253 183.658 215.825c22.161 26.162 51.954 47.875 89.374 65.123zM1009.566 406.037c-9.622 4.73-20.609 7.101-32.969 7.101h-592.935c-23.978 0-50.047-6.454-78.2-19.355-28.155-12.915-50.047-28.605-65.665-47.15l-183.112-215.808c-11.266-12.716-16.899-24.71-16.899-35.979 0-10.895 4.816-18.71 14.442-23.425 9.626-4.73 20.615-7.093 32.971-7.093h592.953c23.975 0 50.030 6.454 78.191 19.348 28.155 12.896 50.038 28.611 65.661 47.15l183.114 215.808c11.26 12.718 16.885 24.698 16.885 35.979 0.008 10.894-4.801 18.701-14.436 23.425z" />
<glyph unicode="&#xe943;" glyph-name="sharethis-logo" d="M361.406 448c0-3.512-0.8-6.799-1.007-10.299l366.899-183.389c31.412 26.6 71.601 43.201 116.002 43.201 99.813-0.021 180.698-80.91 180.698-180.71 0-99.913-80.888-180.798-180.698-180.798-99.898 0-180.698 80.888-180.698 180.798 0 3.6 0.8 6.811 1 10.299l-366.899 183.4c-31.507-26.5-71.601-43.101-116.002-43.101-99.805 0-180.698 80.798-180.698 180.598 0 99.901 80.895 180.805 180.698 180.805 44.398 0 84.507-16.706 116.002-43.206l366.899 183.4c-0.2 3.507-1 6.804-1 10.399 0 99.705 80.8 180.601 180.698 180.601 99.813 0 180.698-80.895 180.698-180.601 0-99.894-80.888-180.805-180.698-180.805-44.498 0-84.609 16.706-116.002 43.306l-366.899-183.5c0.195-3.504 1.007-6.804 1.007-10.399z" />
<glyph unicode="&#xe944;" glyph-name="social" d="M301.163 361.014h-164.724l220.492 176.381h-240.349c-10.531 0-19.121 8.512-19.121 19.043s8.551 19.082 19.121 19.082h288.067l49.431 39.597h-337.497c-10.531 0-19.121 8.512-19.121 19.043s8.551 19.082 19.121 19.082h385.222l119.963 95.983v28.643c0 42.749-34.973 77.722-77.722 77.722h-466.324c-42.749-0.007-77.722-34.979-77.722-77.728v-582.9c0-42.749 34.973-77.722 77.722-77.722h223.448c-0.007 0-0.007 243.774-0.007 243.774zM116.583 730.957h388.602c10.531 0 19.121-8.551 19.121-19.082s-8.551-19.043-19.121-19.043h-388.602c-10.531 0-19.121 8.512-19.121 19.043 0 10.537 8.59 19.082 19.121 19.082zM872.718 511.13v161.891h-87.432v-91.906l-163.565 130.767-402.239-321.724h110.793v-349.741h582.9v349.741h110.832l-151.288 120.972zM872.523 81.101h-147.127v270.196h-207.238v-270.196h-147.159v328.328l250.84 200.635 250.762-200.635-0.078-328.328zM563.433 408.654h116.583v-30.74h-116.583v30.74z" />
<glyph unicode="&#xe945;" glyph-name="symbol" d="M792.719 322.407c-59.71 0-113.164-27.239-148.632-69.935l-230.717 130.992c7.175 20.19 11.118 41.899 11.118 64.523 0 22.619-3.943 44.328-11.118 64.518l230.699 131.024c35.463-42.71 88.927-69.958 148.641-69.958 106.512 0 193.167 86.687 193.167 193.244 0.009 106.525-86.646 193.185-193.158 193.185-106.525 0-193.19-86.66-193.19-193.181 0-22.624 3.939-44.337 11.118-64.532l-230.713-131.029c-35.463 42.688-88.913 69.917-148.609 69.917-106.539 0-193.217-86.66-193.217-193.185 0-106.521 86.678-193.181 193.217-193.181 59.696 0 113.141 27.23 148.605 69.913l230.717-130.997c-7.179-20.195-11.123-41.913-11.123-64.541 0-106.521 86.664-193.181 193.19-193.181 106.512 0 193.167 86.664 193.167 193.181 0.005 106.539-86.651 193.221-193.163 193.221zM792.719 892.399c69.237 0 125.566-56.334 125.566-125.58 0-69.282-56.33-125.643-125.566-125.643-69.25 0-125.589 56.361-125.589 125.643 0 69.246 56.339 125.58 125.589 125.58zM231.33 322.407c-69.264 0-125.616 56.339-125.616 125.58 0 69.25 56.352 125.584 125.616 125.584 69.237 0 125.562-56.334 125.562-125.584 0-69.241-56.33-125.58-125.562-125.58zM792.719 3.601c-69.25 0-125.589 56.339-125.589 125.58 0 69.268 56.339 125.625 125.589 125.625 69.237 0 125.566-56.357 125.566-125.625 0-69.241-56.33-125.58-125.566-125.58z" />
<glyph unicode="&#xe946;" glyph-name="symbol-1" d="M877.585 574.413l-706.918 328.209v40.311c0 9.438-7.646 17.067-17.067 17.067s-17.067-7.629-17.067-17.067v-989.867c0-9.438 7.646-17.067 17.067-17.067s17.067 7.629 17.067 17.067v312.644l705.98 277.35c6.366 2.492 10.615 8.55 10.82 15.36 0.205 6.827-3.686 13.107-9.882 15.991z" />
<glyph unicode="&#xe947;" glyph-name="terrorist-man-silhouette-with-bonnet-mask" d="M875.25 225.214v-221.209l-1.533 0.022-14.272-7.208c-7.164-3.621-123.371-60.819-323.933-60.819-52.989 0-112.009 4.098-176.372 14.128l-58.443 10.696c-43.293 8.841-88.597 20.125-136.122 34.963l-15.249 4.798-0.566 3.421v221.209c0 126.359 86.509 232.637 203.327 263.525 41.949-39.162 98.093-63.352 159.912-63.352 61.797 0 117.918 24.19 159.912 63.352 90.807-24.012 163.133-93.684 190.877-182.869l11.362-56.61c0.711-7.919 1.1-15.96 1.1-24.046zM264.813 712.813c0 136.521 110.665 247.187 247.198 247.187 136.51 0 247.187-110.665 247.187-247.187s-110.677-247.187-247.187-247.187c-136.533 0-247.198 110.665-247.198 247.187zM598.087 572.615c0 27.333-38.562 49.491-86.076 49.491-47.547 0-86.076-22.158-86.076-49.491 0-27.322 38.529-49.48 86.076-49.48 47.514 0 86.076 22.158 86.076 49.48zM425.003 666.543c34.819 0 65.951 11.273 87.009 28.966 21.058-17.704 52.156-28.966 86.986-28.966 63.385 0 114.775 37.174 114.775 83.010 0 45.859-51.39 83.032-114.775 83.032-34.83 0-65.951-11.262-86.986-28.966-21.058 17.715-52.19 28.966-87.009 28.966-63.385 0-114.775-37.174-114.775-83.032 0-45.837 51.39-83.010 114.775-83.010z" />
</font>
</defs>
</svg>
